<?xml version="1.0" encoding="utf-8"?>
<svg xmlns="http://www.w3.org/2000/svg" xmlns:xlink="http://www.w3.org/1999/xlink" width="580" height="301" viewBox="0 0 2320 1204">
<defs>
  <clipPath id="clip620">
    <rect x="0" y="0" width="2320" height="1204"/>
  </clipPath>
</defs>
<path clip-path="url(#clip620)" d="M0 1204 L2320 1204 L2320 0 L0 0  Z" fill="#ffffff" fill-rule="evenodd" fill-opacity="1"/>
<defs>
  <clipPath id="clip621">
    <rect x="464" y="0" width="1625" height="1204"/>
  </clipPath>
</defs>
<path clip-path="url(#clip620)" d="M146.678 1102.06 L2272.76 1102.06 L2272.76 47.2441 L146.678 47.2441  Z" fill="#ffffff" fill-rule="evenodd" fill-opacity="1"/>
<defs>
  <clipPath id="clip622">
    <rect x="146" y="47" width="2127" height="1056"/>
  </clipPath>
</defs>
<polyline clip-path="url(#clip622)" style="stroke:#000000; stroke-linecap:round; stroke-linejoin:round; stroke-width:2; stroke-opacity:0.1; fill:none" points="201.355,1102.06 201.355,47.2441 "/>
<polyline clip-path="url(#clip622)" style="stroke:#000000; stroke-linecap:round; stroke-linejoin:round; stroke-width:2; stroke-opacity:0.1; fill:none" points="750.871,1102.06 750.871,47.2441 "/>
<polyline clip-path="url(#clip622)" style="stroke:#000000; stroke-linecap:round; stroke-linejoin:round; stroke-width:2; stroke-opacity:0.1; fill:none" points="1300.39,1102.06 1300.39,47.2441 "/>
<polyline clip-path="url(#clip622)" style="stroke:#000000; stroke-linecap:round; stroke-linejoin:round; stroke-width:2; stroke-opacity:0.1; fill:none" points="1849.9,1102.06 1849.9,47.2441 "/>
<polyline clip-path="url(#clip620)" style="stroke:#000000; stroke-linecap:round; stroke-linejoin:round; stroke-width:4; stroke-opacity:1; fill:none" points="146.678,1102.06 2272.76,1102.06 "/>
<polyline clip-path="url(#clip620)" style="stroke:#000000; stroke-linecap:round; stroke-linejoin:round; stroke-width:4; stroke-opacity:1; fill:none" points="201.355,1102.06 201.355,1083.17 "/>
<polyline clip-path="url(#clip620)" style="stroke:#000000; stroke-linecap:round; stroke-linejoin:round; stroke-width:4; stroke-opacity:1; fill:none" points="750.871,1102.06 750.871,1083.17 "/>
<polyline clip-path="url(#clip620)" style="stroke:#000000; stroke-linecap:round; stroke-linejoin:round; stroke-width:4; stroke-opacity:1; fill:none" points="1300.39,1102.06 1300.39,1083.17 "/>
<polyline clip-path="url(#clip620)" style="stroke:#000000; stroke-linecap:round; stroke-linejoin:round; stroke-width:4; stroke-opacity:1; fill:none" points="1849.9,1102.06 1849.9,1083.17 "/>
<path clip-path="url(#clip620)" d="M201.355 1132.34 Q197.744 1132.34 195.915 1135.91 Q194.109 1139.45 194.109 1146.58 Q194.109 1153.69 195.915 1157.25 Q197.744 1160.79 201.355 1160.79 Q204.989 1160.79 206.795 1157.25 Q208.623 1153.69 208.623 1146.58 Q208.623 1139.45 206.795 1135.91 Q204.989 1132.34 201.355 1132.34 M201.355 1128.64 Q207.165 1128.64 210.22 1133.25 Q213.299 1137.83 213.299 1146.58 Q213.299 1155.31 210.22 1159.91 Q207.165 1164.5 201.355 1164.5 Q195.545 1164.5 192.466 1159.91 Q189.41 1155.31 189.41 1146.58 Q189.41 1137.83 192.466 1133.25 Q195.545 1128.64 201.355 1128.64 Z" fill="#000000" fill-rule="nonzero" fill-opacity="1" /><path clip-path="url(#clip620)" d="M710.478 1159.89 L718.116 1159.89 L718.116 1133.52 L709.806 1135.19 L709.806 1130.93 L718.07 1129.26 L722.746 1129.26 L722.746 1159.89 L730.385 1159.89 L730.385 1163.82 L710.478 1163.82 L710.478 1159.89 Z" fill="#000000" fill-rule="nonzero" fill-opacity="1" /><path clip-path="url(#clip620)" d="M749.829 1132.34 Q746.218 1132.34 744.389 1135.91 Q742.584 1139.45 742.584 1146.58 Q742.584 1153.69 744.389 1157.25 Q746.218 1160.79 749.829 1160.79 Q753.464 1160.79 755.269 1157.25 Q757.098 1153.69 757.098 1146.58 Q757.098 1139.45 755.269 1135.91 Q753.464 1132.34 749.829 1132.34 M749.829 1128.64 Q755.639 1128.64 758.695 1133.25 Q761.774 1137.83 761.774 1146.58 Q761.774 1155.31 758.695 1159.91 Q755.639 1164.5 749.829 1164.5 Q744.019 1164.5 740.94 1159.91 Q737.885 1155.31 737.885 1146.58 Q737.885 1137.83 740.94 1133.25 Q744.019 1128.64 749.829 1128.64 Z" fill="#000000" fill-rule="nonzero" fill-opacity="1" /><path clip-path="url(#clip620)" d="M779.991 1132.34 Q776.38 1132.34 774.551 1135.91 Q772.746 1139.45 772.746 1146.58 Q772.746 1153.69 774.551 1157.25 Q776.38 1160.79 779.991 1160.79 Q783.625 1160.79 785.431 1157.25 Q787.26 1153.69 787.26 1146.58 Q787.26 1139.45 785.431 1135.91 Q783.625 1132.34 779.991 1132.34 M779.991 1128.64 Q785.801 1128.64 788.857 1133.25 Q791.936 1137.83 791.936 1146.58 Q791.936 1155.31 788.857 1159.91 Q785.801 1164.5 779.991 1164.5 Q774.181 1164.5 771.102 1159.91 Q768.047 1155.31 768.047 1146.58 Q768.047 1137.83 771.102 1133.25 Q774.181 1128.64 779.991 1128.64 Z" fill="#000000" fill-rule="nonzero" fill-opacity="1" /><path clip-path="url(#clip620)" d="M1264.08 1159.89 L1280.4 1159.89 L1280.4 1163.82 L1258.45 1163.82 L1258.45 1159.89 Q1261.12 1157.13 1265.7 1152.51 Q1270.31 1147.85 1271.49 1146.51 Q1273.73 1143.99 1274.61 1142.25 Q1275.51 1140.49 1275.51 1138.8 Q1275.51 1136.05 1273.57 1134.31 Q1271.65 1132.57 1268.55 1132.57 Q1266.35 1132.57 1263.89 1133.34 Q1261.46 1134.1 1258.69 1135.65 L1258.69 1130.93 Q1261.51 1129.8 1263.96 1129.22 Q1266.42 1128.64 1268.45 1128.64 Q1273.82 1128.64 1277.02 1131.32 Q1280.21 1134.01 1280.21 1138.5 Q1280.21 1140.63 1279.4 1142.55 Q1278.62 1144.45 1276.51 1147.04 Q1275.93 1147.71 1272.83 1150.93 Q1269.73 1154.13 1264.08 1159.89 Z" fill="#000000" fill-rule="nonzero" fill-opacity="1" /><path clip-path="url(#clip620)" d="M1300.21 1132.34 Q1296.6 1132.34 1294.77 1135.91 Q1292.97 1139.45 1292.97 1146.58 Q1292.97 1153.69 1294.77 1157.25 Q1296.6 1160.79 1300.21 1160.79 Q1303.85 1160.79 1305.65 1157.25 Q1307.48 1153.69 1307.48 1146.58 Q1307.48 1139.45 1305.65 1135.91 Q1303.85 1132.34 1300.21 1132.34 M1300.21 1128.64 Q1306.02 1128.64 1309.08 1133.25 Q1312.16 1137.83 1312.16 1146.58 Q1312.16 1155.31 1309.08 1159.91 Q1306.02 1164.5 1300.21 1164.5 Q1294.4 1164.5 1291.32 1159.91 Q1288.27 1155.31 1288.27 1146.58 Q1288.27 1137.83 1291.32 1133.25 Q1294.4 1128.64 1300.21 1128.64 Z" fill="#000000" fill-rule="nonzero" fill-opacity="1" /><path clip-path="url(#clip620)" d="M1330.38 1132.34 Q1326.76 1132.34 1324.94 1135.91 Q1323.13 1139.45 1323.13 1146.58 Q1323.13 1153.69 1324.94 1157.25 Q1326.76 1160.79 1330.38 1160.79 Q1334.01 1160.79 1335.82 1157.25 Q1337.64 1153.69 1337.64 1146.58 Q1337.64 1139.45 1335.82 1135.91 Q1334.01 1132.34 1330.38 1132.34 M1330.38 1128.64 Q1336.19 1128.64 1339.24 1133.25 Q1342.32 1137.83 1342.32 1146.58 Q1342.32 1155.31 1339.24 1159.91 Q1336.19 1164.5 1330.38 1164.5 Q1324.57 1164.5 1321.49 1159.91 Q1318.43 1155.31 1318.43 1146.58 Q1318.43 1137.83 1321.49 1133.25 Q1324.57 1128.64 1330.38 1128.64 Z" fill="#000000" fill-rule="nonzero" fill-opacity="1" /><path clip-path="url(#clip620)" d="M1823.66 1145.19 Q1827.02 1145.91 1828.9 1148.18 Q1830.79 1150.45 1830.79 1153.78 Q1830.79 1158.89 1827.28 1161.7 Q1823.76 1164.5 1817.28 1164.5 Q1815.1 1164.5 1812.79 1164.06 Q1810.49 1163.64 1808.04 1162.78 L1808.04 1158.27 Q1809.98 1159.4 1812.3 1159.98 Q1814.61 1160.56 1817.14 1160.56 Q1821.54 1160.56 1823.83 1158.82 Q1826.14 1157.09 1826.14 1153.78 Q1826.14 1150.72 1823.99 1149.01 Q1821.86 1147.27 1818.04 1147.27 L1814.01 1147.27 L1814.01 1143.43 L1818.23 1143.43 Q1821.67 1143.43 1823.5 1142.07 Q1825.33 1140.68 1825.33 1138.08 Q1825.33 1135.42 1823.43 1134.01 Q1821.56 1132.57 1818.04 1132.57 Q1816.12 1132.57 1813.92 1132.99 Q1811.72 1133.41 1809.08 1134.29 L1809.08 1130.12 Q1811.74 1129.38 1814.06 1129.01 Q1816.4 1128.64 1818.46 1128.64 Q1823.78 1128.64 1826.88 1131.07 Q1829.98 1133.48 1829.98 1137.6 Q1829.98 1140.47 1828.34 1142.46 Q1826.7 1144.43 1823.66 1145.19 Z" fill="#000000" fill-rule="nonzero" fill-opacity="1" /><path clip-path="url(#clip620)" d="M1849.66 1132.34 Q1846.05 1132.34 1844.22 1135.91 Q1842.41 1139.45 1842.41 1146.58 Q1842.41 1153.69 1844.22 1157.25 Q1846.05 1160.79 1849.66 1160.79 Q1853.29 1160.79 1855.1 1157.25 Q1856.93 1153.69 1856.93 1146.58 Q1856.93 1139.45 1855.1 1135.91 Q1853.29 1132.34 1849.66 1132.34 M1849.66 1128.64 Q1855.47 1128.64 1858.53 1133.25 Q1861.6 1137.83 1861.6 1146.58 Q1861.6 1155.31 1858.53 1159.91 Q1855.47 1164.5 1849.66 1164.5 Q1843.85 1164.5 1840.77 1159.91 Q1837.72 1155.31 1837.72 1146.58 Q1837.72 1137.83 1840.77 1133.25 Q1843.85 1128.64 1849.66 1128.64 Z" fill="#000000" fill-rule="nonzero" fill-opacity="1" /><path clip-path="url(#clip620)" d="M1879.82 1132.34 Q1876.21 1132.34 1874.38 1135.91 Q1872.58 1139.45 1872.58 1146.58 Q1872.58 1153.69 1874.38 1157.25 Q1876.21 1160.79 1879.82 1160.79 Q1883.46 1160.79 1885.26 1157.25 Q1887.09 1153.69 1887.09 1146.58 Q1887.09 1139.45 1885.26 1135.91 Q1883.46 1132.34 1879.82 1132.34 M1879.82 1128.64 Q1885.63 1128.64 1888.69 1133.25 Q1891.77 1137.83 1891.77 1146.58 Q1891.77 1155.31 1888.69 1159.91 Q1885.63 1164.5 1879.82 1164.5 Q1874.01 1164.5 1870.93 1159.91 Q1867.88 1155.31 1867.88 1146.58 Q1867.88 1137.83 1870.93 1133.25 Q1874.01 1128.64 1879.82 1128.64 Z" fill="#000000" fill-rule="nonzero" fill-opacity="1" /><polyline clip-path="url(#clip622)" style="stroke:#000000; stroke-linecap:round; stroke-linejoin:round; stroke-width:2; stroke-opacity:0.1; fill:none" points="146.678,1088.57 2272.76,1088.57 "/>
<polyline clip-path="url(#clip622)" style="stroke:#000000; stroke-linecap:round; stroke-linejoin:round; stroke-width:2; stroke-opacity:0.1; fill:none" points="146.678,753.339 2272.76,753.339 "/>
<polyline clip-path="url(#clip622)" style="stroke:#000000; stroke-linecap:round; stroke-linejoin:round; stroke-width:2; stroke-opacity:0.1; fill:none" points="146.678,418.106 2272.76,418.106 "/>
<polyline clip-path="url(#clip622)" style="stroke:#000000; stroke-linecap:round; stroke-linejoin:round; stroke-width:2; stroke-opacity:0.1; fill:none" points="146.678,82.8731 2272.76,82.8731 "/>
<polyline clip-path="url(#clip620)" style="stroke:#000000; stroke-linecap:round; stroke-linejoin:round; stroke-width:4; stroke-opacity:1; fill:none" points="146.678,1102.06 146.678,47.2441 "/>
<polyline clip-path="url(#clip620)" style="stroke:#000000; stroke-linecap:round; stroke-linejoin:round; stroke-width:4; stroke-opacity:1; fill:none" points="146.678,1088.57 165.576,1088.57 "/>
<polyline clip-path="url(#clip620)" style="stroke:#000000; stroke-linecap:round; stroke-linejoin:round; stroke-width:4; stroke-opacity:1; fill:none" points="146.678,753.339 165.576,753.339 "/>
<polyline clip-path="url(#clip620)" style="stroke:#000000; stroke-linecap:round; stroke-linejoin:round; stroke-width:4; stroke-opacity:1; fill:none" points="146.678,418.106 165.576,418.106 "/>
<polyline clip-path="url(#clip620)" style="stroke:#000000; stroke-linecap:round; stroke-linejoin:round; stroke-width:4; stroke-opacity:1; fill:none" points="146.678,82.8731 165.576,82.8731 "/>
<path clip-path="url(#clip620)" d="M51.3921 1089.02 L81.0679 1089.02 L81.0679 1092.96 L51.3921 1092.96 L51.3921 1089.02 Z" fill="#000000" fill-rule="nonzero" fill-opacity="1" /><path clip-path="url(#clip620)" d="M91.9706 1101.92 L99.6095 1101.92 L99.6095 1075.55 L91.2993 1077.22 L91.2993 1072.96 L99.5632 1071.29 L104.239 1071.29 L104.239 1101.92 L111.878 1101.92 L111.878 1105.85 L91.9706 1105.85 L91.9706 1101.92 Z" fill="#000000" fill-rule="nonzero" fill-opacity="1" /><path clip-path="url(#clip620)" d="M99.9335 739.138 Q96.3224 739.138 94.4937 742.703 Q92.6882 746.245 92.6882 753.374 Q92.6882 760.481 94.4937 764.045 Q96.3224 767.587 99.9335 767.587 Q103.568 767.587 105.373 764.045 Q107.202 760.481 107.202 753.374 Q107.202 746.245 105.373 742.703 Q103.568 739.138 99.9335 739.138 M99.9335 735.434 Q105.744 735.434 108.799 740.041 Q111.878 744.624 111.878 753.374 Q111.878 762.101 108.799 766.707 Q105.744 771.291 99.9335 771.291 Q94.1234 771.291 91.0447 766.707 Q87.9892 762.101 87.9892 753.374 Q87.9892 744.624 91.0447 740.041 Q94.1234 735.434 99.9335 735.434 Z" fill="#000000" fill-rule="nonzero" fill-opacity="1" /><path clip-path="url(#clip620)" d="M91.9706 431.451 L99.6095 431.451 L99.6095 405.085 L91.2993 406.752 L91.2993 402.493 L99.5632 400.826 L104.239 400.826 L104.239 431.451 L111.878 431.451 L111.878 435.386 L91.9706 435.386 L91.9706 431.451 Z" fill="#000000" fill-rule="nonzero" fill-opacity="1" /><path clip-path="url(#clip620)" d="M95.5586 96.218 L111.878 96.218 L111.878 100.153 L89.9336 100.153 L89.9336 96.218 Q92.5956 93.4633 97.1789 88.8337 Q101.785 84.181 102.966 82.8384 Q105.211 80.3153 106.091 78.5792 Q106.994 76.8199 106.994 75.1301 Q106.994 72.3755 105.049 70.6394 Q103.128 68.9033 100.026 68.9033 Q97.8271 68.9033 95.3734 69.6672 Q92.9428 70.4311 90.1651 71.982 L90.1651 67.2598 Q92.9891 66.1255 95.4428 65.5468 Q97.8965 64.9681 99.9335 64.9681 Q105.304 64.9681 108.498 67.6533 Q111.693 70.3385 111.693 74.8292 Q111.693 76.9588 110.883 78.8801 Q110.096 80.7782 107.989 83.3708 Q107.41 84.0421 104.309 87.2597 Q101.207 90.4541 95.5586 96.218 Z" fill="#000000" fill-rule="nonzero" fill-opacity="1" /><polyline clip-path="url(#clip622)" style="stroke:#000000; stroke-linecap:round; stroke-linejoin:round; stroke-width:8; stroke-opacity:1; fill:none" points="206.85,648.128 212.345,687.389 217.84,748.009 223.335,787.579 228.831,828.522 234.326,866.607 239.821,880.84 245.316,892.368 250.811,902.133 256.306,913.44 261.802,928.258 267.297,933.398 272.792,937.69 278.287,931.643 283.782,918.634 289.277,902.526 294.773,885.193 300.268,870.026 305.763,853.142 311.258,842.239 316.753,827.672 322.248,810.751 327.743,794.776 333.239,791.706 338.734,802.206 344.229,791.505 349.724,780.258 355.219,786.594 360.714,795.507 366.21,802.96 371.705,810.371 377.2,810.291 382.695,792.626 404.676,802.912 410.171,818.101 415.666,831.389 421.161,818.444 426.656,810.364 432.152,823.575 437.647,847.595 443.142,881.779 448.637,895 454.132,874.554 459.627,843.483 465.123,822.362 470.618,826.362 476.113,843.239 481.608,835.675 487.103,821.523 492.598,785.535 498.093,717.199 503.589,688.042 509.084,671.335 514.579,671.776 520.074,668.841 525.569,682.381 536.56,715.79 542.055,729.43 547.55,737.704 553.045,756.99 558.54,760.227 564.035,746.322 569.531,734.128 575.026,711.202 580.521,708.294 586.016,717.886 591.511,747.181 597.006,781.367 602.502,818.113 607.997,844.433 613.492,869.414 618.987,890.443 624.482,923.287 629.977,944.624 635.473,989.032 640.968,1015.22 646.463,1040.5 651.958,1057.18 657.453,1072.21 662.948,1067.63 668.443,1048.47 673.939,1013.7 679.434,1015.33 684.929,1013.3 690.424,1010.08 695.919,991.61 701.414,963.571 706.91,941.245 712.405,930.472 717.9,931.969 723.395,911.651 728.89,906.172 734.385,903.193 739.881,897.105 745.376,914.705 750.871,928.495 756.366,942.361 761.861,942.311 767.356,945.5 772.852,958.191 778.347,968.99 783.842,955.374 789.337,923.466 794.832,899.534 800.327,866.623 805.823,864.318 811.318,859.696 816.813,871.347 822.308,861.654 827.803,867.686 833.298,846.037 838.794,810.279 844.289,792.269 849.784,795.386 855.279,790.474 860.774,784.213 866.269,767.044 871.764,765.636 877.26,772.457 882.755,766.822 888.25,761.3 893.745,747.857 899.24,704.828 904.735,675.813 910.231,685.449 915.726,702.131 921.221,715.626 926.716,722.937 932.211,702.866 937.706,673.741 943.202,682.883 948.697,685.207 954.192,667.139 959.687,657.398 965.182,645.385 970.677,661.223 976.173,670.248 981.668,660.15 987.163,621.828 992.658,538.577 998.153,507.418 1003.65,478.397 1009.14,453.278 1014.64,421.737 1020.13,406.904 1025.63,399.626 1031.12,381.766 1036.62,382.853 1042.11,380.884 1047.61,385.683 1053.1,395.883 1058.6,391.599 1064.1,350.589 1069.59,340.188 1075.09,347.176 1080.58,321.171 1086.08,303.817 1091.57,282.025 1097.07,317.134 1102.56,320.41 1108.06,321.27 1113.55,341.061 1119.05,308.995 1124.54,290.388 1130.04,251.394 1135.53,237.615 1141.03,225.464 1146.52,243.925 1152.02,274.455 1157.51,251.264 1163.01,242.972 1168.5,212.226 1174,196.272 1179.49,172.574 1184.99,172.055 1190.48,188.398 1195.98,180.987 1201.47,149.822 1206.97,162.708 1212.46,191.097 1217.96,217.387 1223.45,221.914 1228.95,200.223 1234.45,172.334 1239.94,166.871 1245.44,186.274 1250.93,212.861 1256.43,177.101 1261.92,172.002 1267.42,130.561 1272.91,120.811 1278.41,109.617 1283.9,77.0975 1289.4,79.7566 1294.89,113.437 1300.39,140.669 1305.88,113.957 1311.38,131.749 1316.87,231.737 1322.37,291.984 1327.86,310.645 1333.36,342.264 1338.85,386.419 1344.35,359.424 1349.84,353.289 1355.34,360.612 1360.83,358.308 1366.33,294.345 1371.82,263.651 1377.32,268.848 1382.81,303.368 1388.31,318.625 1393.8,322.641 1399.3,265.832 1404.8,208.772 1410.29,210.253 1415.79,254.44 1421.28,242.87 1426.78,244.037 1432.27,243.609 1437.77,211.829 1443.26,166.775 1448.76,160.146 1454.25,170.578 1459.75,179.841 1465.24,159.141 1470.74,158.765 1476.23,226.238 1481.73,257.17 1487.22,256.294 1492.72,201.247 1498.21,190.862 1503.71,120.13 1509.2,154.654 1514.7,191.387 1520.19,283.097 1525.69,333.924 1531.18,328.688 1536.68,371.638 1542.17,435.336 1547.67,443.835 1553.16,412.284 1558.66,405.703 1564.15,415.713 1569.65,466.171 1575.15,432.638 1580.64,410.05 1586.14,455.828 1591.63,496.291 1597.13,490.07 1602.62,517.832 1608.12,526.747 1613.61,557.65 1619.11,605.244 1624.6,633.395 1630.1,673.503 1635.59,698.421 1641.09,713.8 1646.58,782.668 1652.08,806.073 1657.57,791.84 1663.07,738.356 1668.56,702.428 1674.06,689.613 1679.55,652.523 1685.05,672.732 1690.54,715.532 1696.04,731.637 1701.53,699.362 1707.03,671.08 1712.52,675.384 1718.02,632.068 1723.51,579.099 1729.01,537.562 1734.5,520.456 1740,505.931 1745.5,479.57 1750.99,468.104 1756.49,422.769 1761.98,400.605 1767.48,383.851 1772.97,377.751 1778.47,406.437 1783.96,394.754 1789.46,392.468 1794.95,408.421 1800.45,403.72 1805.94,419.148 1811.44,410.241 1816.93,431.541 1822.43,378.858 1827.92,327.273 1833.42,314.082 1838.91,326.312 1844.41,335.226 1849.9,383.026 1855.4,381.681 1860.89,392.68 1866.39,390.403 1871.88,395.984 1877.38,400.378 1882.87,417.172 1888.37,438.582 1893.86,452.927 1899.36,451.794 1904.85,422.046 1910.35,416.872 1915.85,388.995 1921.34,346.203 1926.84,321.249 1932.33,328.648 1937.83,372.346 1943.32,371.274 1948.82,341.581 1954.31,309.254 1959.81,272.83 1965.3,248.363 1970.8,249.268 1976.29,191.699 1981.79,208.983 1987.28,223.453 1992.78,196.827 1998.27,165.368 2003.77,148.876 2009.26,130.36 2014.76,118.361 2020.25,128.998 2025.75,103.974 2031.24,117.301 2036.74,117.839 2042.23,104.966 2047.73,147.696 2053.22,163.386 2058.72,176.855 2064.21,172.287 2069.71,198.968 2075.2,207.476 2080.7,238.932 2086.2,293.3 2091.69,301.805 2097.19,334.952 2102.68,339.893 2108.18,343.253 2113.67,362.037 2119.17,382.914 2124.66,397.282 2130.16,418.973 2135.65,463.045 2141.15,487.082 2146.64,504.14 2152.14,499.425 2157.63,534.169 2163.13,556.137 2168.62,559.298 2174.12,551.667 2179.61,594.056 2185.11,643.361 2190.6,663.138 2196.1,695.825 2201.59,723.125 2207.09,777.67 2212.58,795.09 "/>
</svg>
