<?xml version="1.0" encoding="utf-8"?>
<svg xmlns="http://www.w3.org/2000/svg" xmlns:xlink="http://www.w3.org/1999/xlink" width="580" height="301" viewBox="0 0 2320 1204">
<defs>
  <clipPath id="clip430">
    <rect x="0" y="0" width="2320" height="1204"/>
  </clipPath>
</defs>
<path clip-path="url(#clip430)" d="M0 1204 L2320 1204 L2320 0 L0 0  Z" fill="#ffffff" fill-rule="evenodd" fill-opacity="1"/>
<defs>
  <clipPath id="clip431">
    <rect x="464" y="0" width="1625" height="1204"/>
  </clipPath>
</defs>
<path clip-path="url(#clip430)" d="M199.418 1049.32 L2272.76 1049.32 L2272.76 47.2441 L199.418 47.2441  Z" fill="#ffffff" fill-rule="evenodd" fill-opacity="1"/>
<defs>
  <clipPath id="clip432">
    <rect x="199" y="47" width="2074" height="1003"/>
  </clipPath>
</defs>
<polyline clip-path="url(#clip432)" style="stroke:#000000; stroke-linecap:round; stroke-linejoin:round; stroke-width:2; stroke-opacity:0.1; fill:none" points="252.738,1049.32 252.738,47.2441 "/>
<polyline clip-path="url(#clip432)" style="stroke:#000000; stroke-linecap:round; stroke-linejoin:round; stroke-width:2; stroke-opacity:0.1; fill:none" points="788.623,1049.32 788.623,47.2441 "/>
<polyline clip-path="url(#clip432)" style="stroke:#000000; stroke-linecap:round; stroke-linejoin:round; stroke-width:2; stroke-opacity:0.1; fill:none" points="1324.51,1049.32 1324.51,47.2441 "/>
<polyline clip-path="url(#clip432)" style="stroke:#000000; stroke-linecap:round; stroke-linejoin:round; stroke-width:2; stroke-opacity:0.1; fill:none" points="1860.39,1049.32 1860.39,47.2441 "/>
<polyline clip-path="url(#clip430)" style="stroke:#000000; stroke-linecap:round; stroke-linejoin:round; stroke-width:4; stroke-opacity:1; fill:none" points="199.418,1049.32 2272.76,1049.32 "/>
<polyline clip-path="url(#clip430)" style="stroke:#000000; stroke-linecap:round; stroke-linejoin:round; stroke-width:4; stroke-opacity:1; fill:none" points="252.738,1049.32 252.738,1030.43 "/>
<polyline clip-path="url(#clip430)" style="stroke:#000000; stroke-linecap:round; stroke-linejoin:round; stroke-width:4; stroke-opacity:1; fill:none" points="788.623,1049.32 788.623,1030.43 "/>
<polyline clip-path="url(#clip430)" style="stroke:#000000; stroke-linecap:round; stroke-linejoin:round; stroke-width:4; stroke-opacity:1; fill:none" points="1324.51,1049.32 1324.51,1030.43 "/>
<polyline clip-path="url(#clip430)" style="stroke:#000000; stroke-linecap:round; stroke-linejoin:round; stroke-width:4; stroke-opacity:1; fill:none" points="1860.39,1049.32 1860.39,1030.43 "/>
<path clip-path="url(#clip430)" d="M252.738 1079.6 Q249.127 1079.6 247.299 1083.17 Q245.493 1086.71 245.493 1093.84 Q245.493 1100.95 247.299 1104.51 Q249.127 1108.05 252.738 1108.05 Q256.373 1108.05 258.178 1104.51 Q260.007 1100.95 260.007 1093.84 Q260.007 1086.71 258.178 1083.17 Q256.373 1079.6 252.738 1079.6 M252.738 1075.9 Q258.548 1075.9 261.604 1080.51 Q264.683 1085.09 264.683 1093.84 Q264.683 1102.57 261.604 1107.17 Q258.548 1111.76 252.738 1111.76 Q246.928 1111.76 243.849 1107.17 Q240.794 1102.57 240.794 1093.84 Q240.794 1085.09 243.849 1080.51 Q246.928 1075.9 252.738 1075.9 Z" fill="#000000" fill-rule="nonzero" fill-opacity="1" /><path clip-path="url(#clip430)" d="M748.23 1107.15 L755.869 1107.15 L755.869 1080.78 L747.558 1082.45 L747.558 1078.19 L755.822 1076.52 L760.498 1076.52 L760.498 1107.15 L768.137 1107.15 L768.137 1111.08 L748.23 1111.08 L748.23 1107.15 Z" fill="#000000" fill-rule="nonzero" fill-opacity="1" /><path clip-path="url(#clip430)" d="M787.581 1079.6 Q783.97 1079.6 782.142 1083.17 Q780.336 1086.71 780.336 1093.84 Q780.336 1100.95 782.142 1104.51 Q783.97 1108.05 787.581 1108.05 Q791.216 1108.05 793.021 1104.51 Q794.85 1100.95 794.85 1093.84 Q794.85 1086.71 793.021 1083.17 Q791.216 1079.6 787.581 1079.6 M787.581 1075.9 Q793.392 1075.9 796.447 1080.51 Q799.526 1085.09 799.526 1093.84 Q799.526 1102.57 796.447 1107.17 Q793.392 1111.76 787.581 1111.76 Q781.771 1111.76 778.693 1107.17 Q775.637 1102.57 775.637 1093.84 Q775.637 1085.09 778.693 1080.51 Q781.771 1075.9 787.581 1075.9 Z" fill="#000000" fill-rule="nonzero" fill-opacity="1" /><path clip-path="url(#clip430)" d="M817.743 1079.6 Q814.132 1079.6 812.304 1083.17 Q810.498 1086.71 810.498 1093.84 Q810.498 1100.95 812.304 1104.51 Q814.132 1108.05 817.743 1108.05 Q821.378 1108.05 823.183 1104.51 Q825.012 1100.95 825.012 1093.84 Q825.012 1086.71 823.183 1083.17 Q821.378 1079.6 817.743 1079.6 M817.743 1075.9 Q823.553 1075.9 826.609 1080.51 Q829.688 1085.09 829.688 1093.84 Q829.688 1102.57 826.609 1107.17 Q823.553 1111.76 817.743 1111.76 Q811.933 1111.76 808.854 1107.17 Q805.799 1102.57 805.799 1093.84 Q805.799 1085.09 808.854 1080.51 Q811.933 1075.9 817.743 1075.9 Z" fill="#000000" fill-rule="nonzero" fill-opacity="1" /><path clip-path="url(#clip430)" d="M1288.2 1107.15 L1304.52 1107.15 L1304.52 1111.08 L1282.58 1111.08 L1282.58 1107.15 Q1285.24 1104.4 1289.82 1099.77 Q1294.43 1095.11 1295.61 1093.77 Q1297.85 1091.25 1298.73 1089.51 Q1299.64 1087.75 1299.64 1086.06 Q1299.64 1083.31 1297.69 1081.57 Q1295.77 1079.83 1292.67 1079.83 Q1290.47 1079.83 1288.01 1080.6 Q1285.58 1081.36 1282.81 1082.91 L1282.81 1078.19 Q1285.63 1077.06 1288.08 1076.48 Q1290.54 1075.9 1292.58 1075.9 Q1297.95 1075.9 1301.14 1078.58 Q1304.33 1081.27 1304.33 1085.76 Q1304.33 1087.89 1303.52 1089.81 Q1302.74 1091.71 1300.63 1094.3 Q1300.05 1094.97 1296.95 1098.19 Q1293.85 1101.39 1288.2 1107.15 Z" fill="#000000" fill-rule="nonzero" fill-opacity="1" /><path clip-path="url(#clip430)" d="M1324.33 1079.6 Q1320.72 1079.6 1318.89 1083.17 Q1317.09 1086.71 1317.09 1093.84 Q1317.09 1100.95 1318.89 1104.51 Q1320.72 1108.05 1324.33 1108.05 Q1327.97 1108.05 1329.77 1104.51 Q1331.6 1100.95 1331.6 1093.84 Q1331.6 1086.71 1329.77 1083.17 Q1327.97 1079.6 1324.33 1079.6 M1324.33 1075.9 Q1330.14 1075.9 1333.2 1080.51 Q1336.28 1085.09 1336.28 1093.84 Q1336.28 1102.57 1333.2 1107.17 Q1330.14 1111.76 1324.33 1111.76 Q1318.52 1111.76 1315.45 1107.17 Q1312.39 1102.57 1312.39 1093.84 Q1312.39 1085.09 1315.45 1080.51 Q1318.52 1075.9 1324.33 1075.9 Z" fill="#000000" fill-rule="nonzero" fill-opacity="1" /><path clip-path="url(#clip430)" d="M1354.5 1079.6 Q1350.89 1079.6 1349.06 1083.17 Q1347.25 1086.71 1347.25 1093.84 Q1347.25 1100.95 1349.06 1104.51 Q1350.89 1108.05 1354.5 1108.05 Q1358.13 1108.05 1359.94 1104.51 Q1361.76 1100.95 1361.76 1093.84 Q1361.76 1086.71 1359.94 1083.17 Q1358.13 1079.6 1354.5 1079.6 M1354.5 1075.9 Q1360.31 1075.9 1363.36 1080.51 Q1366.44 1085.09 1366.44 1093.84 Q1366.44 1102.57 1363.36 1107.17 Q1360.31 1111.76 1354.5 1111.76 Q1348.69 1111.76 1345.61 1107.17 Q1342.55 1102.57 1342.55 1093.84 Q1342.55 1085.09 1345.61 1080.51 Q1348.69 1075.9 1354.5 1075.9 Z" fill="#000000" fill-rule="nonzero" fill-opacity="1" /><path clip-path="url(#clip430)" d="M1834.15 1092.45 Q1837.51 1093.17 1839.39 1095.44 Q1841.28 1097.71 1841.28 1101.04 Q1841.28 1106.15 1837.77 1108.96 Q1834.25 1111.76 1827.77 1111.76 Q1825.59 1111.76 1823.27 1111.32 Q1820.98 1110.9 1818.53 1110.04 L1818.53 1105.53 Q1820.47 1106.66 1822.79 1107.24 Q1825.1 1107.82 1827.63 1107.82 Q1832.02 1107.82 1834.32 1106.08 Q1836.63 1104.35 1836.63 1101.04 Q1836.63 1097.98 1834.48 1096.27 Q1832.35 1094.53 1828.53 1094.53 L1824.5 1094.53 L1824.5 1090.69 L1828.71 1090.69 Q1832.16 1090.69 1833.99 1089.33 Q1835.82 1087.94 1835.82 1085.34 Q1835.82 1082.68 1833.92 1081.27 Q1832.05 1079.83 1828.53 1079.83 Q1826.61 1079.83 1824.41 1080.25 Q1822.21 1080.67 1819.57 1081.55 L1819.57 1077.38 Q1822.23 1076.64 1824.55 1076.27 Q1826.89 1075.9 1828.95 1075.9 Q1834.27 1075.9 1837.37 1078.33 Q1840.47 1080.74 1840.47 1084.86 Q1840.47 1087.73 1838.83 1089.72 Q1837.19 1091.69 1834.15 1092.45 Z" fill="#000000" fill-rule="nonzero" fill-opacity="1" /><path clip-path="url(#clip430)" d="M1860.15 1079.6 Q1856.54 1079.6 1854.71 1083.17 Q1852.9 1086.71 1852.9 1093.84 Q1852.9 1100.95 1854.71 1104.51 Q1856.54 1108.05 1860.15 1108.05 Q1863.78 1108.05 1865.59 1104.51 Q1867.42 1100.95 1867.42 1093.84 Q1867.42 1086.71 1865.59 1083.17 Q1863.78 1079.6 1860.15 1079.6 M1860.15 1075.9 Q1865.96 1075.9 1869.02 1080.51 Q1872.09 1085.09 1872.09 1093.84 Q1872.09 1102.57 1869.02 1107.17 Q1865.96 1111.76 1860.15 1111.76 Q1854.34 1111.76 1851.26 1107.17 Q1848.21 1102.57 1848.21 1093.84 Q1848.21 1085.09 1851.26 1080.51 Q1854.34 1075.9 1860.15 1075.9 Z" fill="#000000" fill-rule="nonzero" fill-opacity="1" /><path clip-path="url(#clip430)" d="M1890.31 1079.6 Q1886.7 1079.6 1884.87 1083.17 Q1883.07 1086.71 1883.07 1093.84 Q1883.07 1100.95 1884.87 1104.51 Q1886.7 1108.05 1890.31 1108.05 Q1893.95 1108.05 1895.75 1104.51 Q1897.58 1100.95 1897.58 1093.84 Q1897.58 1086.71 1895.75 1083.17 Q1893.95 1079.6 1890.31 1079.6 M1890.31 1075.9 Q1896.12 1075.9 1899.18 1080.51 Q1902.26 1085.09 1902.26 1093.84 Q1902.26 1102.57 1899.18 1107.17 Q1896.12 1111.76 1890.31 1111.76 Q1884.5 1111.76 1881.42 1107.17 Q1878.37 1102.57 1878.37 1093.84 Q1878.37 1085.09 1881.42 1080.51 Q1884.5 1075.9 1890.31 1075.9 Z" fill="#000000" fill-rule="nonzero" fill-opacity="1" /><path clip-path="url(#clip430)" d="M1056.51 1150.75 L1056.51 1187.71 L1064.28 1187.71 Q1074.11 1187.71 1078.66 1183.25 Q1083.25 1178.79 1083.25 1169.18 Q1083.25 1159.63 1078.66 1155.21 Q1074.11 1150.75 1064.28 1150.75 L1056.51 1150.75 M1050.08 1145.47 L1063.29 1145.47 Q1077.1 1145.47 1083.56 1151.23 Q1090.03 1156.96 1090.03 1169.18 Q1090.03 1181.47 1083.53 1187.23 Q1077.04 1192.99 1063.29 1192.99 L1050.08 1192.99 L1050.08 1145.47 Z" fill="#000000" fill-rule="nonzero" fill-opacity="1" /><path clip-path="url(#clip430)" d="M1116.22 1175.07 Q1109.12 1175.07 1106.39 1176.69 Q1103.65 1178.32 1103.65 1182.23 Q1103.65 1185.35 1105.69 1187.2 Q1107.75 1189.01 1111.29 1189.01 Q1116.16 1189.01 1119.09 1185.57 Q1122.05 1182.1 1122.05 1176.37 L1122.05 1175.07 L1116.22 1175.07 M1127.9 1172.65 L1127.9 1192.99 L1122.05 1192.99 L1122.05 1187.58 Q1120.04 1190.82 1117.05 1192.38 Q1114.06 1193.91 1109.73 1193.91 Q1104.25 1193.91 1101.01 1190.86 Q1097.79 1187.77 1097.79 1182.61 Q1097.79 1176.6 1101.8 1173.54 Q1105.84 1170.49 1113.83 1170.49 L1122.05 1170.49 L1122.05 1169.91 Q1122.05 1165.87 1119.37 1163.67 Q1116.73 1161.45 1111.92 1161.45 Q1108.87 1161.45 1105.97 1162.18 Q1103.08 1162.91 1100.4 1164.37 L1100.4 1158.96 Q1103.62 1157.72 1106.64 1157.12 Q1109.66 1156.48 1112.53 1156.48 Q1120.26 1156.48 1124.08 1160.49 Q1127.9 1164.5 1127.9 1172.65 Z" fill="#000000" fill-rule="nonzero" fill-opacity="1" /><path clip-path="url(#clip430)" d="M1154.8 1196.3 Q1152.31 1202.66 1149.96 1204.61 Q1147.6 1206.55 1143.66 1206.55 L1138.98 1206.55 L1138.98 1201.65 L1142.42 1201.65 Q1144.83 1201.65 1146.17 1200.5 Q1147.51 1199.35 1149.13 1195.09 L1150.18 1192.42 L1135.76 1157.34 L1141.97 1157.34 L1153.11 1185.22 L1164.25 1157.34 L1170.46 1157.34 L1154.8 1196.3 Z" fill="#000000" fill-rule="nonzero" fill-opacity="1" /><path clip-path="url(#clip430)" d="M1213.07 1161.45 Q1208.36 1161.45 1205.63 1165.14 Q1202.89 1168.8 1202.89 1175.2 Q1202.89 1181.59 1205.6 1185.29 Q1208.33 1188.95 1213.07 1188.95 Q1217.75 1188.95 1220.49 1185.25 Q1223.23 1181.56 1223.23 1175.2 Q1223.23 1168.86 1220.49 1165.17 Q1217.75 1161.45 1213.07 1161.45 M1213.07 1156.48 Q1220.71 1156.48 1225.07 1161.45 Q1229.43 1166.41 1229.43 1175.2 Q1229.43 1183.95 1225.07 1188.95 Q1220.71 1193.91 1213.07 1193.91 Q1205.4 1193.91 1201.04 1188.95 Q1196.71 1183.95 1196.71 1175.2 Q1196.71 1166.41 1201.04 1161.45 Q1205.4 1156.48 1213.07 1156.48 Z" fill="#000000" fill-rule="nonzero" fill-opacity="1" /><path clip-path="url(#clip430)" d="M1257.19 1143.46 L1257.19 1148.33 L1251.59 1148.33 Q1248.44 1148.33 1247.2 1149.61 Q1245.99 1150.88 1245.99 1154.19 L1245.99 1157.34 L1255.63 1157.34 L1255.63 1161.89 L1245.99 1161.89 L1245.99 1192.99 L1240.1 1192.99 L1240.1 1161.89 L1234.5 1161.89 L1234.5 1157.34 L1240.1 1157.34 L1240.1 1154.86 Q1240.1 1148.91 1242.87 1146.2 Q1245.64 1143.46 1251.65 1143.46 L1257.19 1143.46 Z" fill="#000000" fill-rule="nonzero" fill-opacity="1" /><path clip-path="url(#clip430)" d="M1297.64 1196.3 Q1295.16 1202.66 1292.81 1204.61 Q1290.45 1206.55 1286.5 1206.55 L1281.82 1206.55 L1281.82 1201.65 L1285.26 1201.65 Q1287.68 1201.65 1289.02 1200.5 Q1290.35 1199.35 1291.98 1195.09 L1293.03 1192.42 L1278.61 1157.34 L1284.82 1157.34 L1295.96 1185.22 L1307.1 1157.34 L1313.3 1157.34 L1297.64 1196.3 Z" fill="#000000" fill-rule="nonzero" fill-opacity="1" /><path clip-path="url(#clip430)" d="M1351.88 1173.7 L1351.88 1176.57 L1324.95 1176.57 Q1325.33 1182.61 1328.58 1185.8 Q1331.86 1188.95 1337.68 1188.95 Q1341.06 1188.95 1344.21 1188.12 Q1347.39 1187.29 1350.51 1185.64 L1350.51 1191.17 Q1347.36 1192.51 1344.05 1193.21 Q1340.74 1193.91 1337.33 1193.91 Q1328.8 1193.91 1323.81 1188.95 Q1318.84 1183.98 1318.84 1175.51 Q1318.84 1166.76 1323.55 1161.64 Q1328.29 1156.48 1336.31 1156.48 Q1343.51 1156.48 1347.68 1161.13 Q1351.88 1165.74 1351.88 1173.7 M1346.02 1171.98 Q1345.96 1167.18 1343.32 1164.31 Q1340.71 1161.45 1336.38 1161.45 Q1331.48 1161.45 1328.52 1164.22 Q1325.59 1166.98 1325.14 1172.01 L1346.02 1171.98 Z" fill="#000000" fill-rule="nonzero" fill-opacity="1" /><path clip-path="url(#clip430)" d="M1377.69 1175.07 Q1370.59 1175.07 1367.86 1176.69 Q1365.12 1178.32 1365.12 1182.23 Q1365.12 1185.35 1367.16 1187.2 Q1369.23 1189.01 1372.76 1189.01 Q1377.63 1189.01 1380.56 1185.57 Q1383.52 1182.1 1383.52 1176.37 L1383.52 1175.07 L1377.69 1175.07 M1389.37 1172.65 L1389.37 1192.99 L1383.52 1192.99 L1383.52 1187.58 Q1381.51 1190.82 1378.52 1192.38 Q1375.53 1193.91 1371.2 1193.91 Q1365.72 1193.91 1362.48 1190.86 Q1359.26 1187.77 1359.26 1182.61 Q1359.26 1176.6 1363.27 1173.54 Q1367.32 1170.49 1375.3 1170.49 L1383.52 1170.49 L1383.52 1169.91 Q1383.52 1165.87 1380.84 1163.67 Q1378.2 1161.45 1373.4 1161.45 Q1370.34 1161.45 1367.44 1162.18 Q1364.55 1162.91 1361.87 1164.37 L1361.87 1158.96 Q1365.09 1157.72 1368.11 1157.12 Q1371.14 1156.48 1374 1156.48 Q1381.73 1156.48 1385.55 1160.49 Q1389.37 1164.5 1389.37 1172.65 Z" fill="#000000" fill-rule="nonzero" fill-opacity="1" /><path clip-path="url(#clip430)" d="M1422.09 1162.82 Q1421.11 1162.24 1419.93 1161.99 Q1418.78 1161.7 1417.38 1161.7 Q1412.42 1161.7 1409.74 1164.95 Q1407.1 1168.16 1407.1 1174.21 L1407.1 1192.99 L1401.21 1192.99 L1401.21 1157.34 L1407.1 1157.34 L1407.1 1162.88 Q1408.95 1159.63 1411.91 1158.07 Q1414.87 1156.48 1419.1 1156.48 Q1419.71 1156.48 1420.44 1156.58 Q1421.17 1156.64 1422.06 1156.8 L1422.09 1162.82 Z" fill="#000000" fill-rule="nonzero" fill-opacity="1" /><polyline clip-path="url(#clip432)" style="stroke:#000000; stroke-linecap:round; stroke-linejoin:round; stroke-width:2; stroke-opacity:0.1; fill:none" points="199.418,1036.51 2272.76,1036.51 "/>
<polyline clip-path="url(#clip432)" style="stroke:#000000; stroke-linecap:round; stroke-linejoin:round; stroke-width:2; stroke-opacity:0.1; fill:none" points="199.418,718.035 2272.76,718.035 "/>
<polyline clip-path="url(#clip432)" style="stroke:#000000; stroke-linecap:round; stroke-linejoin:round; stroke-width:2; stroke-opacity:0.1; fill:none" points="199.418,399.564 2272.76,399.564 "/>
<polyline clip-path="url(#clip432)" style="stroke:#000000; stroke-linecap:round; stroke-linejoin:round; stroke-width:2; stroke-opacity:0.1; fill:none" points="199.418,81.0917 2272.76,81.0917 "/>
<polyline clip-path="url(#clip430)" style="stroke:#000000; stroke-linecap:round; stroke-linejoin:round; stroke-width:4; stroke-opacity:1; fill:none" points="199.418,1049.32 199.418,47.2441 "/>
<polyline clip-path="url(#clip430)" style="stroke:#000000; stroke-linecap:round; stroke-linejoin:round; stroke-width:4; stroke-opacity:1; fill:none" points="199.418,1036.51 218.315,1036.51 "/>
<polyline clip-path="url(#clip430)" style="stroke:#000000; stroke-linecap:round; stroke-linejoin:round; stroke-width:4; stroke-opacity:1; fill:none" points="199.418,718.035 218.315,718.035 "/>
<polyline clip-path="url(#clip430)" style="stroke:#000000; stroke-linecap:round; stroke-linejoin:round; stroke-width:4; stroke-opacity:1; fill:none" points="199.418,399.564 218.315,399.564 "/>
<polyline clip-path="url(#clip430)" style="stroke:#000000; stroke-linecap:round; stroke-linejoin:round; stroke-width:4; stroke-opacity:1; fill:none" points="199.418,81.0917 218.315,81.0917 "/>
<path clip-path="url(#clip430)" d="M104.132 1036.96 L133.808 1036.96 L133.808 1040.89 L104.132 1040.89 L104.132 1036.96 Z" fill="#000000" fill-rule="nonzero" fill-opacity="1" /><path clip-path="url(#clip430)" d="M144.711 1049.85 L152.349 1049.85 L152.349 1023.49 L144.039 1025.15 L144.039 1020.89 L152.303 1019.23 L156.979 1019.23 L156.979 1049.85 L164.618 1049.85 L164.618 1053.79 L144.711 1053.79 L144.711 1049.85 Z" fill="#000000" fill-rule="nonzero" fill-opacity="1" /><path clip-path="url(#clip430)" d="M152.673 703.834 Q149.062 703.834 147.234 707.399 Q145.428 710.941 145.428 718.07 Q145.428 725.177 147.234 728.741 Q149.062 732.283 152.673 732.283 Q156.308 732.283 158.113 728.741 Q159.942 725.177 159.942 718.07 Q159.942 710.941 158.113 707.399 Q156.308 703.834 152.673 703.834 M152.673 700.13 Q158.484 700.13 161.539 704.737 Q164.618 709.32 164.618 718.07 Q164.618 726.797 161.539 731.403 Q158.484 735.987 152.673 735.987 Q146.863 735.987 143.785 731.403 Q140.729 726.797 140.729 718.07 Q140.729 709.32 143.785 704.737 Q146.863 700.13 152.673 700.13 Z" fill="#000000" fill-rule="nonzero" fill-opacity="1" /><path clip-path="url(#clip430)" d="M144.711 412.908 L152.349 412.908 L152.349 386.543 L144.039 388.209 L144.039 383.95 L152.303 382.284 L156.979 382.284 L156.979 412.908 L164.618 412.908 L164.618 416.844 L144.711 416.844 L144.711 412.908 Z" fill="#000000" fill-rule="nonzero" fill-opacity="1" /><path clip-path="url(#clip430)" d="M148.298 94.4365 L164.618 94.4365 L164.618 98.3717 L142.673 98.3717 L142.673 94.4365 Q145.336 91.6819 149.919 87.0523 Q154.525 82.3996 155.706 81.057 Q157.951 78.5338 158.831 76.7977 Q159.734 75.0385 159.734 73.3487 Q159.734 70.5941 157.789 68.858 Q155.868 67.1219 152.766 67.1219 Q150.567 67.1219 148.113 67.8858 Q145.683 68.6496 142.905 70.2006 L142.905 65.4784 Q145.729 64.3441 148.183 63.7654 Q150.636 63.1867 152.673 63.1867 Q158.044 63.1867 161.238 65.8719 Q164.433 68.5571 164.433 73.0478 Q164.433 75.1774 163.622 77.0987 Q162.835 78.9968 160.729 81.5894 Q160.15 82.2607 157.048 85.4783 Q153.947 88.6727 148.298 94.4365 Z" fill="#000000" fill-rule="nonzero" fill-opacity="1" /><path clip-path="url(#clip430)" d="M7.55602 1049.95 L7.55602 1041.29 L47.3099 1020.22 L7.55602 1020.22 L7.55602 1013.98 L55.076 1013.98 L55.076 1022.64 L15.3222 1043.71 L55.076 1043.71 L55.076 1049.95 L7.55602 1049.95 Z" fill="#000000" fill-rule="nonzero" fill-opacity="1" /><path clip-path="url(#clip430)" d="M41.0078 1002.05 L19.4281 1002.05 L19.4281 996.191 L40.785 996.191 Q45.8457 996.191 48.392 994.218 Q50.9065 992.245 50.9065 988.298 Q50.9065 983.556 47.8828 980.818 Q44.8591 978.049 39.6392 978.049 L19.4281 978.049 L19.4281 972.193 L55.076 972.193 L55.076 978.049 L49.6015 978.049 Q52.848 980.182 54.4394 983.014 Q55.999 985.815 55.999 989.539 Q55.999 995.682 52.1796 998.865 Q48.3602 1002.05 41.0078 1002.05 M18.5687 987.311 L18.5687 987.311 Z" fill="#000000" fill-rule="nonzero" fill-opacity="1" /><path clip-path="url(#clip430)" d="M26.2712 932.375 Q22.3245 930.179 20.4466 927.124 Q18.5687 924.068 18.5687 919.93 Q18.5687 914.36 22.4836 911.337 Q26.3667 908.313 33.5599 908.313 L55.076 908.313 L55.076 914.201 L33.7509 914.201 Q28.6265 914.201 26.1439 916.015 Q23.6613 917.83 23.6613 921.554 Q23.6613 926.105 26.685 928.747 Q29.7087 931.389 34.9286 931.389 L55.076 931.389 L55.076 937.277 L33.7509 937.277 Q28.5947 937.277 26.1439 939.091 Q23.6613 940.905 23.6613 944.693 Q23.6613 949.181 26.7168 951.823 Q29.7405 954.464 34.9286 954.464 L55.076 954.464 L55.076 960.353 L19.4281 960.353 L19.4281 954.464 L24.9662 954.464 Q21.6879 952.459 20.1283 949.658 Q18.5687 946.857 18.5687 943.006 Q18.5687 939.123 20.5421 936.417 Q22.5154 933.68 26.2712 932.375 Z" fill="#000000" fill-rule="nonzero" fill-opacity="1" /><path clip-path="url(#clip430)" d="M37.2839 871.042 Q30.8227 871.042 27.1624 873.715 Q23.4703 876.357 23.4703 881.004 Q23.4703 885.651 27.1624 888.325 Q30.8227 890.966 37.2839 890.966 Q43.7451 890.966 47.4372 888.325 Q51.0975 885.651 51.0975 881.004 Q51.0975 876.357 47.4372 873.715 Q43.7451 871.042 37.2839 871.042 M24.8389 890.966 Q21.6561 889.12 20.1283 886.319 Q18.5687 883.487 18.5687 879.572 Q18.5687 873.079 23.7249 869.036 Q28.8811 864.962 37.2839 864.962 Q45.6866 864.962 50.8428 869.036 Q55.999 873.079 55.999 879.572 Q55.999 883.487 54.4713 886.319 Q52.9117 889.12 49.7288 890.966 L55.076 890.966 L55.076 896.855 L5.55082 896.855 L5.55082 890.966 L24.8389 890.966 Z" fill="#000000" fill-rule="nonzero" fill-opacity="1" /><path clip-path="url(#clip430)" d="M35.7879 824.763 L38.6525 824.763 L38.6525 851.69 Q44.6999 851.308 47.8828 848.061 Q51.0338 844.783 51.0338 838.959 Q51.0338 835.585 50.2063 832.434 Q49.3787 829.251 47.7236 826.132 L53.2618 826.132 Q54.5986 829.283 55.2988 832.593 Q55.999 835.903 55.999 839.309 Q55.999 847.839 51.0338 852.836 Q46.0685 857.801 37.6022 857.801 Q28.8493 857.801 23.7249 853.09 Q18.5687 848.348 18.5687 840.327 Q18.5687 833.134 23.2157 828.964 Q27.8308 824.763 35.7879 824.763 M34.0692 830.619 Q29.2631 830.683 26.3985 833.325 Q23.5339 835.935 23.5339 840.264 Q23.5339 845.165 26.303 848.125 Q29.0721 851.053 34.101 851.499 L34.0692 830.619 Z" fill="#000000" fill-rule="nonzero" fill-opacity="1" /><path clip-path="url(#clip430)" d="M24.9026 794.494 Q24.3297 795.481 24.075 796.658 Q23.7886 797.804 23.7886 799.205 Q23.7886 804.17 27.0351 806.844 Q30.2498 809.485 36.2972 809.485 L55.076 809.485 L55.076 815.374 L19.4281 815.374 L19.4281 809.485 L24.9662 809.485 Q21.7197 807.639 20.1601 804.679 Q18.5687 801.719 18.5687 797.486 Q18.5687 796.881 18.6642 796.149 Q18.7278 795.417 18.887 794.526 L24.9026 794.494 Z" fill="#000000" fill-rule="nonzero" fill-opacity="1" /><path clip-path="url(#clip430)" d="M23.5339 753.817 Q23.5339 758.528 27.2261 761.265 Q30.8863 764.002 37.2839 764.002 Q43.6814 764.002 47.3735 761.297 Q51.0338 758.56 51.0338 753.817 Q51.0338 749.138 47.3417 746.401 Q43.6496 743.664 37.2839 743.664 Q30.95 743.664 27.2579 746.401 Q23.5339 749.138 23.5339 753.817 M18.5687 753.817 Q18.5687 746.178 23.5339 741.818 Q28.4992 737.457 37.2839 737.457 Q46.0367 737.457 51.0338 741.818 Q55.999 746.178 55.999 753.817 Q55.999 761.488 51.0338 765.848 Q46.0367 770.177 37.2839 770.177 Q28.4992 770.177 23.5339 765.848 Q18.5687 761.488 18.5687 753.817 Z" fill="#000000" fill-rule="nonzero" fill-opacity="1" /><path clip-path="url(#clip430)" d="M5.55082 709.703 L10.4206 709.703 L10.4206 715.305 Q10.4206 718.456 11.6937 719.697 Q12.9669 720.907 16.277 720.907 L19.4281 720.907 L19.4281 711.262 L23.9795 711.262 L23.9795 720.907 L55.076 720.907 L55.076 726.795 L23.9795 726.795 L23.9795 732.397 L19.4281 732.397 L19.4281 726.795 L16.9454 726.795 Q10.9935 726.795 8.28808 724.026 Q5.55082 721.257 5.55082 715.241 L5.55082 709.703 Z" fill="#000000" fill-rule="nonzero" fill-opacity="1" /><path clip-path="url(#clip430)" d="M20.4784 661.355 L26.0166 661.355 Q24.7434 663.838 24.1069 666.512 Q23.4703 669.185 23.4703 672.05 Q23.4703 676.41 24.8071 678.606 Q26.1439 680.771 28.8175 680.771 Q30.8545 680.771 32.0322 679.211 Q33.178 677.652 34.2283 672.941 L34.6739 670.936 Q36.0107 664.697 38.4615 662.087 Q40.8805 659.446 45.241 659.446 Q50.2063 659.446 53.1027 663.392 Q55.999 667.307 55.999 674.182 Q55.999 677.047 55.4261 680.166 Q54.885 683.253 53.771 686.691 L47.7236 686.691 Q49.4105 683.444 50.2699 680.293 Q51.0975 677.142 51.0975 674.055 Q51.0975 669.917 49.697 667.689 Q48.2647 665.461 45.6866 665.461 Q43.2995 665.461 42.0263 667.084 Q40.7532 668.676 39.5755 674.119 L39.0981 676.156 Q37.9523 681.598 35.597 684.017 Q33.2098 686.436 29.0721 686.436 Q24.0432 686.436 21.3059 682.871 Q18.5687 679.307 18.5687 672.75 Q18.5687 669.503 19.0461 666.639 Q19.5235 663.774 20.4784 661.355 Z" fill="#000000" fill-rule="nonzero" fill-opacity="1" /><path clip-path="url(#clip430)" d="M9.30659 644.327 L19.4281 644.327 L19.4281 632.264 L23.9795 632.264 L23.9795 644.327 L43.3313 644.327 Q47.6918 644.327 48.9331 643.149 Q50.1744 641.94 50.1744 638.28 L50.1744 632.264 L55.076 632.264 L55.076 638.28 Q55.076 645.059 52.5616 647.637 Q50.0153 650.215 43.3313 650.215 L23.9795 650.215 L23.9795 654.512 L19.4281 654.512 L19.4281 650.215 L9.30659 650.215 L9.30659 644.327 Z" fill="#000000" fill-rule="nonzero" fill-opacity="1" /><path clip-path="url(#clip430)" d="M37.1566 608.361 Q37.1566 615.459 38.7798 618.196 Q40.4031 620.933 44.318 620.933 Q47.4372 620.933 49.2832 618.896 Q51.0975 616.827 51.0975 613.294 Q51.0975 608.424 47.66 605.496 Q44.1907 602.536 38.4615 602.536 L37.1566 602.536 L37.1566 608.361 M34.7376 596.68 L55.076 596.68 L55.076 602.536 L49.6652 602.536 Q52.9117 604.541 54.4713 607.533 Q55.999 610.525 55.999 614.854 Q55.999 620.328 52.9435 623.575 Q49.8561 626.79 44.6999 626.79 Q38.6843 626.79 35.6288 622.779 Q32.5732 618.737 32.5732 610.748 L32.5732 602.536 L32.0003 602.536 Q27.9581 602.536 25.7619 605.21 Q23.5339 607.852 23.5339 612.658 Q23.5339 615.713 24.266 618.61 Q24.9981 621.506 26.4622 624.18 L21.0513 624.18 Q19.81 620.965 19.2053 617.941 Q18.5687 614.917 18.5687 612.053 Q18.5687 604.319 22.5791 600.499 Q26.5895 596.68 34.7376 596.68 Z" fill="#000000" fill-rule="nonzero" fill-opacity="1" /><path clip-path="url(#clip430)" d="M33.5599 554.984 L55.076 554.984 L55.076 560.841 L33.7509 560.841 Q28.6902 560.841 26.1757 562.814 Q23.6613 564.788 23.6613 568.734 Q23.6613 573.477 26.685 576.214 Q29.7087 578.951 34.9286 578.951 L55.076 578.951 L55.076 584.84 L19.4281 584.84 L19.4281 578.951 L24.9662 578.951 Q21.7515 576.851 20.1601 574.018 Q18.5687 571.153 18.5687 567.429 Q18.5687 561.286 22.3881 558.135 Q26.1757 554.984 33.5599 554.984 Z" fill="#000000" fill-rule="nonzero" fill-opacity="1" /><path clip-path="url(#clip430)" d="M24.8389 519.846 L5.55082 519.846 L5.55082 513.989 L55.076 513.989 L55.076 519.846 L49.7288 519.846 Q52.9117 521.692 54.4713 524.524 Q55.999 527.325 55.999 531.272 Q55.999 537.733 50.8428 541.807 Q45.6866 545.85 37.2839 545.85 Q28.8811 545.85 23.7249 541.807 Q18.5687 537.733 18.5687 531.272 Q18.5687 527.325 20.1283 524.524 Q21.6561 521.692 24.8389 519.846 M37.2839 539.802 Q43.7451 539.802 47.4372 537.16 Q51.0975 534.487 51.0975 529.84 Q51.0975 525.193 47.4372 522.519 Q43.7451 519.846 37.2839 519.846 Q30.8227 519.846 27.1624 522.519 Q23.4703 525.193 23.4703 529.84 Q23.4703 534.487 27.1624 537.16 Q30.8227 539.802 37.2839 539.802 Z" fill="#000000" fill-rule="nonzero" fill-opacity="1" /><path clip-path="url(#clip430)" d="M37.1566 485.725 Q37.1566 492.823 38.7798 495.56 Q40.4031 498.298 44.318 498.298 Q47.4372 498.298 49.2832 496.261 Q51.0975 494.192 51.0975 490.659 Q51.0975 485.789 47.66 482.861 Q44.1907 479.901 38.4615 479.901 L37.1566 479.901 L37.1566 485.725 M34.7376 474.044 L55.076 474.044 L55.076 479.901 L49.6652 479.901 Q52.9117 481.906 54.4713 484.898 Q55.999 487.89 55.999 492.218 Q55.999 497.693 52.9435 500.94 Q49.8561 504.154 44.6999 504.154 Q38.6843 504.154 35.6288 500.144 Q32.5732 496.102 32.5732 488.113 L32.5732 479.901 L32.0003 479.901 Q27.9581 479.901 25.7619 482.574 Q23.5339 485.216 23.5339 490.022 Q23.5339 493.078 24.266 495.974 Q24.9981 498.871 26.4622 501.544 L21.0513 501.544 Q19.81 498.33 19.2053 495.306 Q18.5687 492.282 18.5687 489.418 Q18.5687 481.683 22.5791 477.864 Q26.5895 474.044 34.7376 474.044 Z" fill="#000000" fill-rule="nonzero" fill-opacity="1" /><path clip-path="url(#clip430)" d="M24.9026 441.325 Q24.3297 442.311 24.075 443.489 Q23.7886 444.635 23.7886 446.035 Q23.7886 451.001 27.0351 453.674 Q30.2498 456.316 36.2972 456.316 L55.076 456.316 L55.076 462.204 L19.4281 462.204 L19.4281 456.316 L24.9662 456.316 Q21.7197 454.47 20.1601 451.51 Q18.5687 448.55 18.5687 444.317 Q18.5687 443.712 18.6642 442.98 Q18.7278 442.248 18.887 441.356 L24.9026 441.325 Z" fill="#000000" fill-rule="nonzero" fill-opacity="1" /><path clip-path="url(#clip430)" d="M24.8389 412.87 L5.55082 412.87 L5.55082 407.014 L55.076 407.014 L55.076 412.87 L49.7288 412.87 Q52.9117 414.716 54.4713 417.549 Q55.999 420.35 55.999 424.296 Q55.999 430.758 50.8428 434.832 Q45.6866 438.874 37.2839 438.874 Q28.8811 438.874 23.7249 434.832 Q18.5687 430.758 18.5687 424.296 Q18.5687 420.35 20.1283 417.549 Q21.6561 414.716 24.8389 412.87 M37.2839 432.826 Q43.7451 432.826 47.4372 430.185 Q51.0975 427.511 51.0975 422.864 Q51.0975 418.217 47.4372 415.544 Q43.7451 412.87 37.2839 412.87 Q30.8227 412.87 27.1624 415.544 Q23.4703 418.217 23.4703 422.864 Q23.4703 427.511 27.1624 430.185 Q30.8227 432.826 37.2839 432.826 Z" fill="#000000" fill-rule="nonzero" fill-opacity="1" /><path clip-path="url(#clip430)" d="M24.8389 350.772 L5.55082 350.772 L5.55082 344.916 L55.076 344.916 L55.076 350.772 L49.7288 350.772 Q52.9117 352.619 54.4713 355.451 Q55.999 358.252 55.999 362.199 Q55.999 368.66 50.8428 372.734 Q45.6866 376.776 37.2839 376.776 Q28.8811 376.776 23.7249 372.734 Q18.5687 368.66 18.5687 362.199 Q18.5687 358.252 20.1283 355.451 Q21.6561 352.619 24.8389 350.772 M37.2839 370.729 Q43.7451 370.729 47.4372 368.087 Q51.0975 365.414 51.0975 360.767 Q51.0975 356.12 47.4372 353.446 Q43.7451 350.772 37.2839 350.772 Q30.8227 350.772 27.1624 353.446 Q23.4703 356.12 23.4703 360.767 Q23.4703 365.414 27.1624 368.087 Q30.8227 370.729 37.2839 370.729 Z" fill="#000000" fill-rule="nonzero" fill-opacity="1" /><path clip-path="url(#clip430)" d="M35.7879 302.361 L38.6525 302.361 L38.6525 329.288 Q44.6999 328.906 47.8828 325.66 Q51.0338 322.381 51.0338 316.557 Q51.0338 313.183 50.2063 310.032 Q49.3787 306.849 47.7236 303.73 L53.2618 303.73 Q54.5986 306.881 55.2988 310.191 Q55.999 313.501 55.999 316.907 Q55.999 325.437 51.0338 330.434 Q46.0685 335.399 37.6022 335.399 Q28.8493 335.399 23.7249 330.689 Q18.5687 325.946 18.5687 317.925 Q18.5687 310.732 23.2157 306.563 Q27.8308 302.361 35.7879 302.361 M34.0692 308.218 Q29.2631 308.281 26.3985 310.923 Q23.5339 313.533 23.5339 317.862 Q23.5339 322.763 26.303 325.723 Q29.0721 328.652 34.101 329.097 L34.0692 308.218 Z" fill="#000000" fill-rule="nonzero" fill-opacity="1" /><path clip-path="url(#clip430)" d="M19.4281 296.95 L19.4281 290.744 L49.3469 279.604 L19.4281 268.464 L19.4281 262.257 L55.076 275.625 L55.076 283.582 L19.4281 296.95 Z" fill="#000000" fill-rule="nonzero" fill-opacity="1" /><path clip-path="url(#clip430)" d="M19.4281 254.173 L19.4281 248.316 L55.076 248.316 L55.076 254.173 L19.4281 254.173 M5.55082 254.173 L5.55082 248.316 L12.9669 248.316 L12.9669 254.173 L5.55082 254.173 Z" fill="#000000" fill-rule="nonzero" fill-opacity="1" /><path clip-path="url(#clip430)" d="M37.1566 219.862 Q37.1566 226.959 38.7798 229.697 Q40.4031 232.434 44.318 232.434 Q47.4372 232.434 49.2832 230.397 Q51.0975 228.328 51.0975 224.795 Q51.0975 219.925 47.66 216.997 Q44.1907 214.037 38.4615 214.037 L37.1566 214.037 L37.1566 219.862 M34.7376 208.181 L55.076 208.181 L55.076 214.037 L49.6652 214.037 Q52.9117 216.042 54.4713 219.034 Q55.999 222.026 55.999 226.355 Q55.999 231.829 52.9435 235.076 Q49.8561 238.29 44.6999 238.29 Q38.6843 238.29 35.6288 234.28 Q32.5732 230.238 32.5732 222.249 L32.5732 214.037 L32.0003 214.037 Q27.9581 214.037 25.7619 216.711 Q23.5339 219.352 23.5339 224.159 Q23.5339 227.214 24.266 230.111 Q24.9981 233.007 26.4622 235.681 L21.0513 235.681 Q19.81 232.466 19.2053 229.442 Q18.5687 226.418 18.5687 223.554 Q18.5687 215.82 22.5791 212 Q26.5895 208.181 34.7376 208.181 Z" fill="#000000" fill-rule="nonzero" fill-opacity="1" /><path clip-path="url(#clip430)" d="M9.30659 190.325 L19.4281 190.325 L19.4281 178.262 L23.9795 178.262 L23.9795 190.325 L43.3313 190.325 Q47.6918 190.325 48.9331 189.147 Q50.1744 187.938 50.1744 184.277 L50.1744 178.262 L55.076 178.262 L55.076 184.277 Q55.076 191.057 52.5616 193.635 Q50.0153 196.213 43.3313 196.213 L23.9795 196.213 L23.9795 200.51 L19.4281 200.51 L19.4281 196.213 L9.30659 196.213 L9.30659 190.325 Z" fill="#000000" fill-rule="nonzero" fill-opacity="1" /><path clip-path="url(#clip430)" d="M19.4281 170.559 L19.4281 164.703 L55.076 164.703 L55.076 170.559 L19.4281 170.559 M5.55082 170.559 L5.55082 164.703 L12.9669 164.703 L12.9669 170.559 L5.55082 170.559 Z" fill="#000000" fill-rule="nonzero" fill-opacity="1" /><path clip-path="url(#clip430)" d="M23.5339 138.635 Q23.5339 143.346 27.2261 146.083 Q30.8863 148.82 37.2839 148.82 Q43.6814 148.82 47.3735 146.115 Q51.0338 143.378 51.0338 138.635 Q51.0338 133.957 47.3417 131.219 Q43.6496 128.482 37.2839 128.482 Q30.95 128.482 27.2579 131.219 Q23.5339 133.957 23.5339 138.635 M18.5687 138.635 Q18.5687 130.996 23.5339 126.636 Q28.4992 122.275 37.2839 122.275 Q46.0367 122.275 51.0338 126.636 Q55.999 130.996 55.999 138.635 Q55.999 146.306 51.0338 150.667 Q46.0367 154.995 37.2839 154.995 Q28.4992 154.995 23.5339 150.667 Q18.5687 146.306 18.5687 138.635 Z" fill="#000000" fill-rule="nonzero" fill-opacity="1" /><path clip-path="url(#clip430)" d="M33.5599 82.9354 L55.076 82.9354 L55.076 88.7918 L33.7509 88.7918 Q28.6902 88.7918 26.1757 90.7652 Q23.6613 92.7386 23.6613 96.6853 Q23.6613 101.428 26.685 104.165 Q29.7087 106.902 34.9286 106.902 L55.076 106.902 L55.076 112.791 L19.4281 112.791 L19.4281 106.902 L24.9662 106.902 Q21.7515 104.802 20.1601 101.969 Q18.5687 99.1043 18.5687 95.3803 Q18.5687 89.2374 22.3881 86.0864 Q26.1757 82.9354 33.5599 82.9354 Z" fill="#000000" fill-rule="nonzero" fill-opacity="1" /><path clip-path="url(#clip430)" d="M20.4784 48.5287 L26.0166 48.5287 Q24.7434 51.0114 24.1069 53.685 Q23.4703 56.3586 23.4703 59.2231 Q23.4703 63.5836 24.8071 65.7798 Q26.1439 67.9441 28.8175 67.9441 Q30.8545 67.9441 32.0322 66.3845 Q33.178 64.8249 34.2283 60.1143 L34.6739 58.1091 Q36.0107 51.8707 38.4615 49.2608 Q40.8805 46.619 45.241 46.619 Q50.2063 46.619 53.1027 50.5658 Q55.999 54.4807 55.999 61.3556 Q55.999 64.2202 55.4261 67.3394 Q54.885 70.4268 53.771 73.8643 L47.7236 73.8643 Q49.4105 70.6177 50.2699 67.4667 Q51.0975 64.3157 51.0975 61.2283 Q51.0975 57.0906 49.697 54.8626 Q48.2647 52.6346 45.6866 52.6346 Q43.2995 52.6346 42.0263 54.2579 Q40.7532 55.8493 39.5755 61.292 L39.0981 63.329 Q37.9523 68.7717 35.597 71.1907 Q33.2098 73.6096 29.0721 73.6096 Q24.0432 73.6096 21.3059 70.0448 Q18.5687 66.48 18.5687 59.9234 Q18.5687 56.6768 19.0461 53.8123 Q19.5235 50.9477 20.4784 48.5287 Z" fill="#000000" fill-rule="nonzero" fill-opacity="1" /><polyline clip-path="url(#clip432)" style="stroke:#000000; stroke-linecap:round; stroke-linejoin:round; stroke-width:8; stroke-opacity:1; fill:none" points="258.097,618.084 263.456,655.383 268.815,712.972 274.174,750.563 279.533,789.458 284.891,825.64 290.25,839.161 295.609,850.112 300.968,859.39 306.327,870.131 311.686,884.208 317.045,889.091 322.403,893.168 327.762,887.424 333.121,875.065 338.48,859.763 343.839,843.296 349.198,828.888 354.556,812.848 359.915,802.49 365.274,788.652 370.633,772.577 375.992,757.4 381.351,754.484 386.71,764.459 392.068,754.293 397.427,743.608 402.786,749.627 408.145,758.095 413.504,765.175 418.863,772.215 424.221,772.14 429.58,755.358 451.016,765.13 456.375,779.559 461.733,792.182 467.092,779.885 472.451,772.209 477.81,784.759 483.169,807.579 488.528,840.053 493.886,852.613 499.245,833.189 504.604,803.672 509.963,783.607 515.322,787.407 520.681,803.441 526.04,796.255 531.398,782.81 536.757,748.622 542.116,683.702 547.475,656.003 552.834,640.131 558.193,640.55 563.551,637.762 568.91,650.625 579.628,682.364 584.987,695.321 590.346,703.182 595.705,721.504 601.063,724.578 606.422,711.368 611.781,699.784 617.14,678.005 622.499,675.242 627.858,684.355 633.217,712.185 638.575,744.661 643.934,779.571 649.293,804.575 654.652,828.306 660.011,848.284 665.37,879.486 670.728,899.756 676.087,941.943 681.446,966.822 686.805,990.834 692.164,1006.69 697.523,1020.96 702.882,1016.61 708.24,998.413 713.599,965.377 718.958,966.925 724.317,964.995 729.676,961.944 735.035,944.393 740.393,917.756 745.752,896.546 751.111,886.311 756.47,887.734 761.829,868.432 767.188,863.226 772.547,860.397 777.905,854.613 783.264,871.333 788.623,884.434 793.982,897.606 799.341,897.559 804.7,900.588 810.058,912.644 815.417,922.904 820.776,909.969 826.135,879.656 831.494,856.921 836.853,825.655 842.212,823.466 847.57,819.074 852.929,830.142 858.288,820.935 863.647,826.665 869.006,806.098 874.365,772.128 879.723,755.019 885.082,757.98 890.441,753.313 895.8,747.365 901.159,731.055 906.518,729.717 911.877,736.198 917.235,730.844 922.594,725.598 927.953,712.827 933.312,671.95 938.671,644.385 944.03,653.54 949.389,669.388 954.747,682.208 960.106,689.153 965.465,670.085 970.824,642.417 976.183,651.102 981.542,653.309 986.9,636.145 992.259,626.891 997.618,615.478 1002.98,630.525 1008.34,639.098 1013.69,629.505 1019.05,593.1 1024.41,514.011 1029.77,484.41 1035.13,456.84 1040.49,432.977 1045.85,403.013 1051.21,388.921 1056.57,382.007 1061.92,365.04 1067.28,366.073 1072.64,364.202 1078,368.762 1083.36,378.451 1088.72,374.381 1094.08,335.422 1099.44,325.541 1104.8,332.179 1110.15,307.475 1115.51,290.988 1120.87,270.286 1126.23,303.64 1131.59,306.752 1136.95,307.569 1142.31,326.37 1147.67,295.908 1153.02,278.231 1158.38,241.187 1163.74,228.097 1169.1,216.553 1174.46,234.091 1179.82,263.095 1185.18,241.063 1190.54,233.186 1195.9,203.977 1201.25,188.821 1206.61,166.307 1211.97,165.814 1217.33,181.341 1222.69,174.3 1228.05,144.694 1233.41,156.935 1238.77,183.905 1244.13,208.88 1249.48,213.18 1254.84,192.574 1260.2,166.079 1265.56,160.89 1270.92,179.323 1276.28,204.581 1281.64,170.609 1287,165.765 1292.35,126.395 1297.71,117.133 1303.07,106.498 1308.43,75.6049 1313.79,78.131 1319.15,110.128 1324.51,135.998 1329.87,110.622 1335.23,127.524 1340.58,222.513 1345.94,279.747 1351.3,297.475 1356.66,327.513 1362.02,369.461 1367.38,343.815 1372.74,337.987 1378.1,344.944 1383.46,342.755 1388.81,281.99 1394.17,252.831 1399.53,257.768 1404.89,290.563 1410.25,305.056 1415.61,308.872 1420.97,254.903 1426.33,200.696 1431.68,202.103 1437.04,244.081 1442.4,233.089 1447.76,234.198 1453.12,233.791 1458.48,203.6 1463.84,160.799 1469.2,154.501 1474.56,164.411 1479.91,173.211 1485.27,153.546 1490.63,153.189 1495.99,217.288 1501.35,246.674 1506.71,245.841 1512.07,193.547 1517.43,183.681 1522.79,116.486 1528.14,149.284 1533.5,184.18 1538.86,271.305 1544.22,319.59 1549.58,314.616 1554.94,355.418 1560.3,415.932 1565.66,424.006 1571.01,394.032 1576.37,387.781 1581.73,397.29 1587.09,445.225 1592.45,413.369 1597.81,391.911 1603.17,435.399 1608.53,473.839 1613.89,467.929 1619.24,494.303 1624.6,502.772 1629.96,532.13 1635.32,577.345 1640.68,604.089 1646.04,642.19 1651.4,665.863 1656.76,680.473 1662.12,745.898 1667.47,768.133 1672.83,754.611 1678.19,703.801 1683.55,669.669 1688.91,657.495 1694.27,622.26 1699.63,641.458 1704.99,682.119 1710.34,697.418 1715.7,666.757 1721.06,639.889 1726.42,643.978 1731.78,602.828 1737.14,552.507 1742.5,513.047 1747.86,496.796 1753.22,482.997 1758.57,457.954 1763.93,447.062 1769.29,403.993 1774.65,382.937 1780.01,367.021 1785.37,361.226 1790.73,388.478 1796.09,377.378 1801.45,375.207 1806.8,390.362 1812.16,385.896 1817.52,400.553 1822.88,392.092 1828.24,412.326 1833.6,362.277 1838.96,313.272 1844.32,300.74 1849.67,312.359 1855.03,320.827 1860.39,366.237 1865.75,364.959 1871.11,375.408 1876.47,373.246 1881.83,378.547 1887.19,382.722 1892.55,398.676 1897.9,419.016 1903.26,432.644 1908.62,431.567 1913.98,403.306 1919.34,398.391 1924.7,371.908 1930.06,331.256 1935.42,307.549 1940.78,314.578 1946.13,356.091 1951.49,355.073 1956.85,326.864 1962.21,296.154 1967.57,261.551 1972.93,238.307 1978.29,239.167 1983.65,184.476 1989,200.896 1994.36,214.643 1999.72,189.348 2005.08,159.462 2010.44,143.794 2015.8,126.204 2021.16,114.805 2026.52,124.911 2031.88,101.138 2037.23,113.798 2042.59,114.309 2047.95,102.08 2053.31,142.673 2058.67,157.579 2064.03,170.374 2069.39,166.035 2074.75,191.382 2080.11,199.465 2085.46,229.348 2090.82,280.997 2096.18,289.078 2101.54,320.567 2106.9,325.261 2112.26,328.453 2117.62,346.298 2122.98,366.131 2128.33,379.781 2133.69,400.387 2139.05,442.255 2144.41,465.09 2149.77,481.296 2155.13,476.816 2160.49,509.823 2165.85,530.693 2171.21,533.695 2176.56,526.447 2181.92,566.716 2187.28,613.556 2192.64,632.344 2198,663.396 2203.36,689.332 2208.72,741.149 2214.08,757.698 "/>
<path clip-path="url(#clip430)" d="M268.529 184.327 L589.89 184.327 L589.89 80.6468 L268.529 80.6468  Z" fill="#ffffff" fill-rule="evenodd" fill-opacity="1"/>
<polyline clip-path="url(#clip430)" style="stroke:#000000; stroke-linecap:round; stroke-linejoin:round; stroke-width:4; stroke-opacity:1; fill:none" points="268.529,184.327 589.89,184.327 589.89,80.6468 268.529,80.6468 268.529,184.327 "/>
<polyline clip-path="url(#clip430)" style="stroke:#000000; stroke-linecap:round; stroke-linejoin:round; stroke-width:8; stroke-opacity:1; fill:none" points="291.566,132.487 429.789,132.487 "/>
<path clip-path="url(#clip430)" d="M458.451 145.832 L474.77 145.832 L474.77 149.767 L452.826 149.767 L452.826 145.832 Q455.488 143.077 460.071 138.447 Q464.678 133.795 465.858 132.452 Q468.103 129.929 468.983 128.193 Q469.886 126.434 469.886 124.744 Q469.886 121.989 467.941 120.253 Q466.02 118.517 462.918 118.517 Q460.719 118.517 458.266 119.281 Q455.835 120.045 453.057 121.596 L453.057 116.873 Q455.881 115.739 458.335 115.16 Q460.789 114.582 462.826 114.582 Q468.196 114.582 471.391 117.267 Q474.585 119.952 474.585 124.443 Q474.585 126.572 473.775 128.494 Q472.988 130.392 470.881 132.984 Q470.303 133.656 467.201 136.873 Q464.099 140.068 458.451 145.832 Z" fill="#000000" fill-rule="nonzero" fill-opacity="1" /><path clip-path="url(#clip430)" d="M494.585 118.285 Q490.974 118.285 489.145 121.85 Q487.34 125.392 487.34 132.522 Q487.34 139.628 489.145 143.193 Q490.974 146.734 494.585 146.734 Q498.219 146.734 500.025 143.193 Q501.853 139.628 501.853 132.522 Q501.853 125.392 500.025 121.85 Q498.219 118.285 494.585 118.285 M494.585 114.582 Q500.395 114.582 503.451 119.188 Q506.529 123.772 506.529 132.522 Q506.529 141.248 503.451 145.855 Q500.395 150.438 494.585 150.438 Q488.775 150.438 485.696 145.855 Q482.64 141.248 482.64 132.522 Q482.64 123.772 485.696 119.188 Q488.775 114.582 494.585 114.582 Z" fill="#000000" fill-rule="nonzero" fill-opacity="1" /><path clip-path="url(#clip430)" d="M515.557 145.832 L523.196 145.832 L523.196 119.466 L514.886 121.133 L514.886 116.873 L523.149 115.207 L527.825 115.207 L527.825 145.832 L535.464 145.832 L535.464 149.767 L515.557 149.767 L515.557 145.832 Z" fill="#000000" fill-rule="nonzero" fill-opacity="1" /><path clip-path="url(#clip430)" d="M554.909 118.285 Q551.297 118.285 549.469 121.85 Q547.663 125.392 547.663 132.522 Q547.663 139.628 549.469 143.193 Q551.297 146.734 554.909 146.734 Q558.543 146.734 560.348 143.193 Q562.177 139.628 562.177 132.522 Q562.177 125.392 560.348 121.85 Q558.543 118.285 554.909 118.285 M554.909 114.582 Q560.719 114.582 563.774 119.188 Q566.853 123.772 566.853 132.522 Q566.853 141.248 563.774 145.855 Q560.719 150.438 554.909 150.438 Q549.098 150.438 546.02 145.855 Q542.964 141.248 542.964 132.522 Q542.964 123.772 546.02 119.188 Q549.098 114.582 554.909 114.582 Z" fill="#000000" fill-rule="nonzero" fill-opacity="1" /></svg>
