<?xml version="1.0" encoding="utf-8"?>
<svg xmlns="http://www.w3.org/2000/svg" xmlns:xlink="http://www.w3.org/1999/xlink" width="580" height="300" viewBox="0 0 2320 1200">
<defs>
  <clipPath id="clip380">
    <rect x="0" y="0" width="2320" height="1200"/>
  </clipPath>
</defs>
<path clip-path="url(#clip380)" d="
M0 1200 L2320 1200 L2320 0 L0 0  Z
  " fill="#ffffff" fill-rule="evenodd" fill-opacity="1"/>
<defs>
  <clipPath id="clip381">
    <rect x="464" y="0" width="1625" height="1200"/>
  </clipPath>
</defs>
<path clip-path="url(#clip380)" d="
M208.415 1045.58 L2272.76 1045.58 L2272.76 109.916 L208.415 109.916  Z
  " fill="#ffffff" fill-rule="evenodd" fill-opacity="1"/>
<defs>
  <clipPath id="clip382">
    <rect x="208" y="109" width="2065" height="937"/>
  </clipPath>
</defs>
<polyline clip-path="url(#clip382)" style="stroke:#000000; stroke-linecap:butt; stroke-linejoin:round; stroke-width:2; stroke-opacity:0.1; fill:none" points="
  591.422,1045.58 591.422,109.916 
  "/>
<polyline clip-path="url(#clip382)" style="stroke:#000000; stroke-linecap:butt; stroke-linejoin:round; stroke-width:2; stroke-opacity:0.1; fill:none" points="
  1132.39,1045.58 1132.39,109.916 
  "/>
<polyline clip-path="url(#clip382)" style="stroke:#000000; stroke-linecap:butt; stroke-linejoin:round; stroke-width:2; stroke-opacity:0.1; fill:none" points="
  1673.36,1045.58 1673.36,109.916 
  "/>
<polyline clip-path="url(#clip382)" style="stroke:#000000; stroke-linecap:butt; stroke-linejoin:round; stroke-width:2; stroke-opacity:0.1; fill:none" points="
  2214.33,1045.58 2214.33,109.916 
  "/>
<polyline clip-path="url(#clip380)" style="stroke:#000000; stroke-linecap:butt; stroke-linejoin:round; stroke-width:4; stroke-opacity:1; fill:none" points="
  208.415,1045.58 2272.76,1045.58 
  "/>
<polyline clip-path="url(#clip380)" style="stroke:#000000; stroke-linecap:butt; stroke-linejoin:round; stroke-width:4; stroke-opacity:1; fill:none" points="
  591.422,1045.58 591.422,1026.68 
  "/>
<polyline clip-path="url(#clip380)" style="stroke:#000000; stroke-linecap:butt; stroke-linejoin:round; stroke-width:4; stroke-opacity:1; fill:none" points="
  1132.39,1045.58 1132.39,1026.68 
  "/>
<polyline clip-path="url(#clip380)" style="stroke:#000000; stroke-linecap:butt; stroke-linejoin:round; stroke-width:4; stroke-opacity:1; fill:none" points="
  1673.36,1045.58 1673.36,1026.68 
  "/>
<polyline clip-path="url(#clip380)" style="stroke:#000000; stroke-linecap:butt; stroke-linejoin:round; stroke-width:4; stroke-opacity:1; fill:none" points="
  2214.33,1045.58 2214.33,1026.68 
  "/>
<path clip-path="url(#clip380)" d="M581.7 1072.78 L600.056 1072.78 L600.056 1076.71 L585.982 1076.71 L585.982 1085.18 Q587.001 1084.84 588.019 1084.68 Q589.038 1084.49 590.056 1084.49 Q595.843 1084.49 599.223 1087.66 Q602.602 1090.83 602.602 1096.25 Q602.602 1101.83 599.13 1104.93 Q595.658 1108.01 589.339 1108.01 Q587.163 1108.01 584.894 1107.64 Q582.649 1107.27 580.241 1106.53 L580.241 1101.83 Q582.325 1102.96 584.547 1103.52 Q586.769 1104.07 589.246 1104.07 Q593.251 1104.07 595.588 1101.97 Q597.926 1099.86 597.926 1096.25 Q597.926 1092.64 595.588 1090.53 Q593.251 1088.43 589.246 1088.43 Q587.371 1088.43 585.496 1088.84 Q583.644 1089.26 581.7 1090.14 L581.7 1072.78 Z" fill="#000000" fill-rule="evenodd" fill-opacity="1" /><path clip-path="url(#clip380)" d="M1107.08 1103.4 L1114.72 1103.4 L1114.72 1077.04 L1106.41 1078.7 L1106.41 1074.44 L1114.67 1072.78 L1119.35 1072.78 L1119.35 1103.4 L1126.99 1103.4 L1126.99 1107.34 L1107.08 1107.34 L1107.08 1103.4 Z" fill="#000000" fill-rule="evenodd" fill-opacity="1" /><path clip-path="url(#clip380)" d="M1146.43 1075.86 Q1142.82 1075.86 1140.99 1079.42 Q1139.19 1082.96 1139.19 1090.09 Q1139.19 1097.2 1140.99 1100.76 Q1142.82 1104.3 1146.43 1104.3 Q1150.07 1104.3 1151.87 1100.76 Q1153.7 1097.2 1153.7 1090.09 Q1153.7 1082.96 1151.87 1079.42 Q1150.07 1075.86 1146.43 1075.86 M1146.43 1072.15 Q1152.24 1072.15 1155.3 1076.76 Q1158.38 1081.34 1158.38 1090.09 Q1158.38 1098.82 1155.3 1103.43 Q1152.24 1108.01 1146.43 1108.01 Q1140.62 1108.01 1137.54 1103.43 Q1134.49 1098.82 1134.49 1090.09 Q1134.49 1081.34 1137.54 1076.76 Q1140.62 1072.15 1146.43 1072.15 Z" fill="#000000" fill-rule="evenodd" fill-opacity="1" /><path clip-path="url(#clip380)" d="M1648.55 1103.4 L1656.19 1103.4 L1656.19 1077.04 L1647.88 1078.7 L1647.88 1074.44 L1656.14 1072.78 L1660.82 1072.78 L1660.82 1103.4 L1668.45 1103.4 L1668.45 1107.34 L1648.55 1107.34 L1648.55 1103.4 Z" fill="#000000" fill-rule="evenodd" fill-opacity="1" /><path clip-path="url(#clip380)" d="M1677.94 1072.78 L1696.3 1072.78 L1696.3 1076.71 L1682.23 1076.71 L1682.23 1085.18 Q1683.25 1084.84 1684.26 1084.68 Q1685.28 1084.49 1686.3 1084.49 Q1692.09 1084.49 1695.47 1087.66 Q1698.85 1090.83 1698.85 1096.25 Q1698.85 1101.83 1695.38 1104.93 Q1691.9 1108.01 1685.58 1108.01 Q1683.41 1108.01 1681.14 1107.64 Q1678.89 1107.27 1676.49 1106.53 L1676.49 1101.83 Q1678.57 1102.96 1680.79 1103.52 Q1683.01 1104.07 1685.49 1104.07 Q1689.5 1104.07 1691.83 1101.97 Q1694.17 1099.86 1694.17 1096.25 Q1694.17 1092.64 1691.83 1090.53 Q1689.5 1088.43 1685.49 1088.43 Q1683.62 1088.43 1681.74 1088.84 Q1679.89 1089.26 1677.94 1090.14 L1677.94 1072.78 Z" fill="#000000" fill-rule="evenodd" fill-opacity="1" /><path clip-path="url(#clip380)" d="M2193.1 1103.4 L2209.42 1103.4 L2209.42 1107.34 L2187.48 1107.34 L2187.48 1103.4 Q2190.14 1100.65 2194.72 1096.02 Q2199.33 1091.36 2200.51 1090.02 Q2202.76 1087.5 2203.64 1085.76 Q2204.54 1084 2204.54 1082.31 Q2204.54 1079.56 2202.6 1077.82 Q2200.67 1076.09 2197.57 1076.09 Q2195.37 1076.09 2192.92 1076.85 Q2190.49 1077.62 2187.71 1079.17 L2187.71 1074.44 Q2190.54 1073.31 2192.99 1072.73 Q2195.44 1072.15 2197.48 1072.15 Q2202.85 1072.15 2206.04 1074.84 Q2209.24 1077.52 2209.24 1082.01 Q2209.24 1084.14 2208.43 1086.06 Q2207.64 1087.96 2205.53 1090.55 Q2204.96 1091.23 2201.85 1094.44 Q2198.75 1097.64 2193.1 1103.4 Z" fill="#000000" fill-rule="evenodd" fill-opacity="1" /><path clip-path="url(#clip380)" d="M2229.24 1075.86 Q2225.63 1075.86 2223.8 1079.42 Q2221.99 1082.96 2221.99 1090.09 Q2221.99 1097.2 2223.8 1100.76 Q2225.63 1104.3 2229.24 1104.3 Q2232.87 1104.3 2234.68 1100.76 Q2236.51 1097.2 2236.51 1090.09 Q2236.51 1082.96 2234.68 1079.42 Q2232.87 1075.86 2229.24 1075.86 M2229.24 1072.15 Q2235.05 1072.15 2238.1 1076.76 Q2241.18 1081.34 2241.18 1090.09 Q2241.18 1098.82 2238.1 1103.43 Q2235.05 1108.01 2229.24 1108.01 Q2223.43 1108.01 2220.35 1103.43 Q2217.29 1098.82 2217.29 1090.09 Q2217.29 1081.34 2220.35 1076.76 Q2223.43 1072.15 2229.24 1072.15 Z" fill="#000000" fill-rule="evenodd" fill-opacity="1" /><path clip-path="url(#clip380)" d="M844.082 1147 L844.082 1183.96 L851.848 1183.96 Q861.683 1183.96 866.234 1179.5 Q870.818 1175.05 870.818 1165.43 Q870.818 1155.88 866.234 1151.46 Q861.683 1147 851.848 1147 L844.082 1147 M837.652 1141.72 L850.861 1141.72 Q864.675 1141.72 871.136 1147.48 Q877.597 1153.21 877.597 1165.43 Q877.597 1177.72 871.104 1183.48 Q864.611 1189.24 850.861 1189.24 L837.652 1189.24 L837.652 1141.72 Z" fill="#000000" fill-rule="evenodd" fill-opacity="1" /><path clip-path="url(#clip380)" d="M887.591 1153.59 L893.448 1153.59 L893.448 1189.24 L887.591 1189.24 L887.591 1153.59 M887.591 1139.72 L893.448 1139.72 L893.448 1147.13 L887.591 1147.13 L887.591 1139.72 Z" fill="#000000" fill-rule="evenodd" fill-opacity="1" /><path clip-path="url(#clip380)" d="M928.427 1154.64 L928.427 1160.18 Q925.945 1158.91 923.271 1158.27 Q920.597 1157.64 917.733 1157.64 Q913.372 1157.64 911.176 1158.97 Q909.012 1160.31 909.012 1162.98 Q909.012 1165.02 910.571 1166.2 Q912.131 1167.34 916.842 1168.39 L918.847 1168.84 Q925.085 1170.18 927.695 1172.63 Q930.337 1175.05 930.337 1179.41 Q930.337 1184.37 926.39 1187.27 Q922.475 1190.16 915.6 1190.16 Q912.736 1190.16 909.617 1189.59 Q906.529 1189.05 903.092 1187.94 L903.092 1181.89 Q906.338 1183.58 909.489 1184.43 Q912.64 1185.26 915.728 1185.26 Q919.865 1185.26 922.093 1183.86 Q924.321 1182.43 924.321 1179.85 Q924.321 1177.46 922.698 1176.19 Q921.107 1174.92 915.664 1173.74 L913.627 1173.26 Q908.184 1172.12 905.765 1169.76 Q903.346 1167.37 903.346 1163.24 Q903.346 1158.21 906.911 1155.47 Q910.476 1152.73 917.033 1152.73 Q920.279 1152.73 923.144 1153.21 Q926.008 1153.69 928.427 1154.64 Z" fill="#000000" fill-rule="evenodd" fill-opacity="1" /><path clip-path="url(#clip380)" d="M945.455 1143.47 L945.455 1153.59 L957.519 1153.59 L957.519 1158.14 L945.455 1158.14 L945.455 1177.5 Q945.455 1181.86 946.633 1183.1 Q947.843 1184.34 951.503 1184.34 L957.519 1184.34 L957.519 1189.24 L951.503 1189.24 Q944.723 1189.24 942.145 1186.73 Q939.567 1184.18 939.567 1177.5 L939.567 1158.14 L935.27 1158.14 L935.27 1153.59 L939.567 1153.59 L939.567 1143.47 L945.455 1143.47 Z" fill="#000000" fill-rule="evenodd" fill-opacity="1" /><path clip-path="url(#clip380)" d="M981.422 1171.32 Q974.324 1171.32 971.587 1172.94 Q968.849 1174.57 968.849 1178.48 Q968.849 1181.6 970.886 1183.45 Q972.955 1185.26 976.488 1185.26 Q981.358 1185.26 984.286 1181.83 Q987.246 1178.36 987.246 1172.63 L987.246 1171.32 L981.422 1171.32 M993.103 1168.9 L993.103 1189.24 L987.246 1189.24 L987.246 1183.83 Q985.241 1187.08 982.249 1188.64 Q979.257 1190.16 974.929 1190.16 Q969.454 1190.16 966.208 1187.11 Q962.993 1184.02 962.993 1178.86 Q962.993 1172.85 967.003 1169.79 Q971.046 1166.74 979.035 1166.74 L987.246 1166.74 L987.246 1166.17 Q987.246 1162.12 984.573 1159.93 Q981.931 1157.7 977.125 1157.7 Q974.069 1157.7 971.173 1158.43 Q968.277 1159.16 965.603 1160.63 L965.603 1155.22 Q968.818 1153.98 971.841 1153.37 Q974.865 1152.73 977.73 1152.73 Q985.464 1152.73 989.283 1156.74 Q993.103 1160.75 993.103 1168.9 Z" fill="#000000" fill-rule="evenodd" fill-opacity="1" /><path clip-path="url(#clip380)" d="M1034.8 1167.72 L1034.8 1189.24 L1028.94 1189.24 L1028.94 1167.92 Q1028.94 1162.86 1026.97 1160.34 Q1024.99 1157.83 1021.05 1157.83 Q1016.31 1157.83 1013.57 1160.85 Q1010.83 1163.87 1010.83 1169.09 L1010.83 1189.24 L1004.94 1189.24 L1004.94 1153.59 L1010.83 1153.59 L1010.83 1159.13 Q1012.93 1155.92 1015.76 1154.33 Q1018.63 1152.73 1022.35 1152.73 Q1028.5 1152.73 1031.65 1156.55 Q1034.8 1160.34 1034.8 1167.72 Z" fill="#000000" fill-rule="evenodd" fill-opacity="1" /><path clip-path="url(#clip380)" d="M1072.13 1154.96 L1072.13 1160.44 Q1069.65 1159.07 1067.14 1158.4 Q1064.65 1157.7 1062.11 1157.7 Q1056.41 1157.7 1053.26 1161.33 Q1050.11 1164.92 1050.11 1171.45 Q1050.11 1177.97 1053.26 1181.6 Q1056.41 1185.2 1062.11 1185.2 Q1064.65 1185.2 1067.14 1184.53 Q1069.65 1183.83 1072.13 1182.46 L1072.13 1187.87 Q1069.68 1189.02 1067.04 1189.59 Q1064.43 1190.16 1061.47 1190.16 Q1053.42 1190.16 1048.68 1185.1 Q1043.93 1180.04 1043.93 1171.45 Q1043.93 1162.73 1048.71 1157.73 Q1053.51 1152.73 1061.85 1152.73 Q1064.56 1152.73 1067.14 1153.31 Q1069.71 1153.85 1072.13 1154.96 Z" fill="#000000" fill-rule="evenodd" fill-opacity="1" /><path clip-path="url(#clip380)" d="M1112.81 1169.95 L1112.81 1172.82 L1085.88 1172.82 Q1086.26 1178.86 1089.51 1182.05 Q1092.79 1185.2 1098.61 1185.2 Q1101.99 1185.2 1105.14 1184.37 Q1108.32 1183.54 1111.44 1181.89 L1111.44 1187.43 Q1108.29 1188.76 1104.98 1189.46 Q1101.67 1190.16 1098.26 1190.16 Q1089.73 1190.16 1084.74 1185.2 Q1079.77 1180.23 1079.77 1171.77 Q1079.77 1163.01 1084.48 1157.89 Q1089.22 1152.73 1097.25 1152.73 Q1104.44 1152.73 1108.61 1157.38 Q1112.81 1162 1112.81 1169.95 M1106.95 1168.23 Q1106.89 1163.43 1104.25 1160.56 Q1101.64 1157.7 1097.31 1157.7 Q1092.41 1157.7 1089.45 1160.47 Q1086.52 1163.24 1086.07 1168.27 L1106.95 1168.23 Z" fill="#000000" fill-rule="evenodd" fill-opacity="1" /><path clip-path="url(#clip380)" d="M1161.19 1139.72 L1161.19 1144.59 L1155.59 1144.59 Q1152.44 1144.59 1151.2 1145.86 Q1149.99 1147.13 1149.99 1150.44 L1149.99 1153.59 L1159.63 1153.59 L1159.63 1158.14 L1149.99 1158.14 L1149.99 1189.24 L1144.1 1189.24 L1144.1 1158.14 L1138.5 1158.14 L1138.5 1153.59 L1144.1 1153.59 L1144.1 1151.11 Q1144.1 1145.16 1146.87 1142.45 Q1149.64 1139.72 1155.65 1139.72 L1161.19 1139.72 Z" fill="#000000" fill-rule="evenodd" fill-opacity="1" /><path clip-path="url(#clip380)" d="M1186.75 1159.07 Q1185.76 1158.49 1184.58 1158.24 Q1183.44 1157.95 1182.04 1157.95 Q1177.07 1157.95 1174.4 1161.2 Q1171.76 1164.41 1171.76 1170.46 L1171.76 1189.24 L1165.87 1189.24 L1165.87 1153.59 L1171.76 1153.59 L1171.76 1159.13 Q1173.6 1155.88 1176.56 1154.33 Q1179.52 1152.73 1183.76 1152.73 Q1184.36 1152.73 1185.09 1152.83 Q1185.82 1152.89 1186.72 1153.05 L1186.75 1159.07 Z" fill="#000000" fill-rule="evenodd" fill-opacity="1" /><path clip-path="url(#clip380)" d="M1205.27 1157.7 Q1200.56 1157.7 1197.82 1161.39 Q1195.09 1165.05 1195.09 1171.45 Q1195.09 1177.85 1197.79 1181.54 Q1200.53 1185.2 1205.27 1185.2 Q1209.95 1185.2 1212.69 1181.51 Q1215.43 1177.81 1215.43 1171.45 Q1215.43 1165.12 1212.69 1161.42 Q1209.95 1157.7 1205.27 1157.7 M1205.27 1152.73 Q1212.91 1152.73 1217.27 1157.7 Q1221.63 1162.66 1221.63 1171.45 Q1221.63 1180.2 1217.27 1185.2 Q1212.91 1190.16 1205.27 1190.16 Q1197.6 1190.16 1193.24 1185.2 Q1188.91 1180.2 1188.91 1171.45 Q1188.91 1162.66 1193.24 1157.7 Q1197.6 1152.73 1205.27 1152.73 Z" fill="#000000" fill-rule="evenodd" fill-opacity="1" /><path clip-path="url(#clip380)" d="M1259.09 1160.44 Q1261.29 1156.49 1264.35 1154.61 Q1267.4 1152.73 1271.54 1152.73 Q1277.11 1152.73 1280.13 1156.65 Q1283.16 1160.53 1283.16 1167.72 L1283.16 1189.24 L1277.27 1189.24 L1277.27 1167.92 Q1277.27 1162.79 1275.45 1160.31 Q1273.64 1157.83 1269.92 1157.83 Q1265.36 1157.83 1262.72 1160.85 Q1260.08 1163.87 1260.08 1169.09 L1260.08 1189.24 L1254.19 1189.24 L1254.19 1167.92 Q1254.19 1162.76 1252.38 1160.31 Q1250.56 1157.83 1246.78 1157.83 Q1242.29 1157.83 1239.65 1160.88 Q1237 1163.91 1237 1169.09 L1237 1189.24 L1231.12 1189.24 L1231.12 1153.59 L1237 1153.59 L1237 1159.13 Q1239.01 1155.85 1241.81 1154.29 Q1244.61 1152.73 1248.46 1152.73 Q1252.35 1152.73 1255.05 1154.71 Q1257.79 1156.68 1259.09 1160.44 Z" fill="#000000" fill-rule="evenodd" fill-opacity="1" /><path clip-path="url(#clip380)" d="M1345.19 1167.72 L1345.19 1189.24 L1339.33 1189.24 L1339.33 1167.92 Q1339.33 1162.86 1337.36 1160.34 Q1335.39 1157.83 1331.44 1157.83 Q1326.7 1157.83 1323.96 1160.85 Q1321.22 1163.87 1321.22 1169.09 L1321.22 1189.24 L1315.33 1189.24 L1315.33 1139.72 L1321.22 1139.72 L1321.22 1159.13 Q1323.32 1155.92 1326.16 1154.33 Q1329.02 1152.73 1332.75 1152.73 Q1338.89 1152.73 1342.04 1156.55 Q1345.19 1160.34 1345.19 1167.72 Z" fill="#000000" fill-rule="evenodd" fill-opacity="1" /><path clip-path="url(#clip380)" d="M1370.68 1157.7 Q1365.97 1157.7 1363.24 1161.39 Q1360.5 1165.05 1360.5 1171.45 Q1360.5 1177.85 1363.2 1181.54 Q1365.94 1185.2 1370.68 1185.2 Q1375.36 1185.2 1378.1 1181.51 Q1380.84 1177.81 1380.84 1171.45 Q1380.84 1165.12 1378.1 1161.42 Q1375.36 1157.7 1370.68 1157.7 M1370.68 1152.73 Q1378.32 1152.73 1382.68 1157.7 Q1387.04 1162.66 1387.04 1171.45 Q1387.04 1180.2 1382.68 1185.2 Q1378.32 1190.16 1370.68 1190.16 Q1363.01 1190.16 1358.65 1185.2 Q1354.32 1180.2 1354.32 1171.45 Q1354.32 1162.66 1358.65 1157.7 Q1363.01 1152.73 1370.68 1152.73 Z" fill="#000000" fill-rule="evenodd" fill-opacity="1" /><path clip-path="url(#clip380)" d="M1396.75 1139.72 L1402.61 1139.72 L1402.61 1189.24 L1396.75 1189.24 L1396.75 1139.72 Z" fill="#000000" fill-rule="evenodd" fill-opacity="1" /><path clip-path="url(#clip380)" d="M1445.35 1169.95 L1445.35 1172.82 L1418.43 1172.82 Q1418.81 1178.86 1422.06 1182.05 Q1425.33 1185.2 1431.16 1185.2 Q1434.53 1185.2 1437.68 1184.37 Q1440.87 1183.54 1443.99 1181.89 L1443.99 1187.43 Q1440.83 1188.76 1437.52 1189.46 Q1434.21 1190.16 1430.81 1190.16 Q1422.28 1190.16 1417.28 1185.2 Q1412.32 1180.23 1412.32 1171.77 Q1412.32 1163.01 1417.03 1157.89 Q1421.77 1152.73 1429.79 1152.73 Q1436.98 1152.73 1441.15 1157.38 Q1445.35 1162 1445.35 1169.95 M1439.5 1168.23 Q1439.43 1163.43 1436.79 1160.56 Q1434.18 1157.7 1429.85 1157.7 Q1424.95 1157.7 1421.99 1160.47 Q1419.06 1163.24 1418.62 1168.27 L1439.5 1168.23 Z" fill="#000000" fill-rule="evenodd" fill-opacity="1" /><path clip-path="url(#clip380)" d="M1489.76 1139.78 Q1485.49 1147.1 1483.42 1154.26 Q1481.35 1161.42 1481.35 1168.78 Q1481.35 1176.13 1483.42 1183.35 Q1485.52 1190.55 1489.76 1197.83 L1484.66 1197.83 Q1479.89 1190.36 1477.5 1183.13 Q1475.15 1175.9 1475.15 1168.78 Q1475.15 1161.68 1477.5 1154.48 Q1479.86 1147.29 1484.66 1139.78 L1489.76 1139.78 Z" fill="#000000" fill-rule="evenodd" fill-opacity="1" /><path clip-path="url(#clip380)" d="M1519.16 1139.72 L1519.16 1144.59 L1513.56 1144.59 Q1510.41 1144.59 1509.17 1145.86 Q1507.96 1147.13 1507.96 1150.44 L1507.96 1153.59 L1517.61 1153.59 L1517.61 1158.14 L1507.96 1158.14 L1507.96 1189.24 L1502.07 1189.24 L1502.07 1158.14 L1496.47 1158.14 L1496.47 1153.59 L1502.07 1153.59 L1502.07 1151.11 Q1502.07 1145.16 1504.84 1142.45 Q1507.61 1139.72 1513.63 1139.72 L1519.16 1139.72 Z" fill="#000000" fill-rule="evenodd" fill-opacity="1" /><path clip-path="url(#clip380)" d="M1554.56 1169.95 L1554.56 1172.82 L1527.63 1172.82 Q1528.01 1178.86 1531.26 1182.05 Q1534.54 1185.2 1540.36 1185.2 Q1543.74 1185.2 1546.89 1184.37 Q1550.07 1183.54 1553.19 1181.89 L1553.19 1187.43 Q1550.04 1188.76 1546.73 1189.46 Q1543.42 1190.16 1540.01 1190.16 Q1531.48 1190.16 1526.49 1185.2 Q1521.52 1180.23 1521.52 1171.77 Q1521.52 1163.01 1526.23 1157.89 Q1530.97 1152.73 1538.99 1152.73 Q1546.19 1152.73 1550.36 1157.38 Q1554.56 1162 1554.56 1169.95 M1548.7 1168.23 Q1548.64 1163.43 1546 1160.56 Q1543.39 1157.7 1539.06 1157.7 Q1534.16 1157.7 1531.2 1160.47 Q1528.27 1163.24 1527.82 1168.27 L1548.7 1168.23 Z" fill="#000000" fill-rule="evenodd" fill-opacity="1" /><path clip-path="url(#clip380)" d="M1594.66 1169.95 L1594.66 1172.82 L1567.74 1172.82 Q1568.12 1178.86 1571.36 1182.05 Q1574.64 1185.2 1580.47 1185.2 Q1583.84 1185.2 1586.99 1184.37 Q1590.17 1183.54 1593.29 1181.89 L1593.29 1187.43 Q1590.14 1188.76 1586.83 1189.46 Q1583.52 1190.16 1580.12 1190.16 Q1571.59 1190.16 1566.59 1185.2 Q1561.62 1180.23 1561.62 1171.77 Q1561.62 1163.01 1566.33 1157.89 Q1571.08 1152.73 1579.1 1152.73 Q1586.29 1152.73 1590.46 1157.38 Q1594.66 1162 1594.66 1169.95 M1588.81 1168.23 Q1588.74 1163.43 1586.1 1160.56 Q1583.49 1157.7 1579.16 1157.7 Q1574.26 1157.7 1571.3 1160.47 Q1568.37 1163.24 1567.93 1168.27 L1588.81 1168.23 Z" fill="#000000" fill-rule="evenodd" fill-opacity="1" /><path clip-path="url(#clip380)" d="M1610.07 1143.47 L1610.07 1153.59 L1622.13 1153.59 L1622.13 1158.14 L1610.07 1158.14 L1610.07 1177.5 Q1610.07 1181.86 1611.24 1183.1 Q1612.45 1184.34 1616.11 1184.34 L1622.13 1184.34 L1622.13 1189.24 L1616.11 1189.24 Q1609.34 1189.24 1606.76 1186.73 Q1604.18 1184.18 1604.18 1177.5 L1604.18 1158.14 L1599.88 1158.14 L1599.88 1153.59 L1604.18 1153.59 L1604.18 1143.47 L1610.07 1143.47 Z" fill="#000000" fill-rule="evenodd" fill-opacity="1" /><path clip-path="url(#clip380)" d="M1628.91 1139.78 L1634 1139.78 Q1638.78 1147.29 1641.13 1154.48 Q1643.52 1161.68 1643.52 1168.78 Q1643.52 1175.9 1641.13 1183.13 Q1638.78 1190.36 1634 1197.83 L1628.91 1197.83 Q1633.14 1190.55 1635.21 1183.35 Q1637.31 1176.13 1637.31 1168.78 Q1637.31 1161.42 1635.21 1154.26 Q1633.14 1147.1 1628.91 1139.78 Z" fill="#000000" fill-rule="evenodd" fill-opacity="1" /><polyline clip-path="url(#clip382)" style="stroke:#000000; stroke-linecap:butt; stroke-linejoin:round; stroke-width:2; stroke-opacity:0.1; fill:none" points="
  208.415,921.206 2272.76,921.206 
  "/>
<polyline clip-path="url(#clip382)" style="stroke:#000000; stroke-linecap:butt; stroke-linejoin:round; stroke-width:2; stroke-opacity:0.1; fill:none" points="
  208.415,708.915 2272.76,708.915 
  "/>
<polyline clip-path="url(#clip382)" style="stroke:#000000; stroke-linecap:butt; stroke-linejoin:round; stroke-width:2; stroke-opacity:0.1; fill:none" points="
  208.415,496.624 2272.76,496.624 
  "/>
<polyline clip-path="url(#clip382)" style="stroke:#000000; stroke-linecap:butt; stroke-linejoin:round; stroke-width:2; stroke-opacity:0.1; fill:none" points="
  208.415,284.333 2272.76,284.333 
  "/>
<polyline clip-path="url(#clip380)" style="stroke:#000000; stroke-linecap:butt; stroke-linejoin:round; stroke-width:4; stroke-opacity:1; fill:none" points="
  208.415,1045.58 208.415,109.916 
  "/>
<polyline clip-path="url(#clip380)" style="stroke:#000000; stroke-linecap:butt; stroke-linejoin:round; stroke-width:4; stroke-opacity:1; fill:none" points="
  208.415,921.206 227.313,921.206 
  "/>
<polyline clip-path="url(#clip380)" style="stroke:#000000; stroke-linecap:butt; stroke-linejoin:round; stroke-width:4; stroke-opacity:1; fill:none" points="
  208.415,708.915 227.313,708.915 
  "/>
<polyline clip-path="url(#clip380)" style="stroke:#000000; stroke-linecap:butt; stroke-linejoin:round; stroke-width:4; stroke-opacity:1; fill:none" points="
  208.415,496.624 227.313,496.624 
  "/>
<polyline clip-path="url(#clip380)" style="stroke:#000000; stroke-linecap:butt; stroke-linejoin:round; stroke-width:4; stroke-opacity:1; fill:none" points="
  208.415,284.333 227.313,284.333 
  "/>
<path clip-path="url(#clip380)" d="M118.037 907.004 Q114.426 907.004 112.597 910.569 Q110.791 914.111 110.791 921.24 Q110.791 928.347 112.597 931.912 Q114.426 935.453 118.037 935.453 Q121.671 935.453 123.477 931.912 Q125.305 928.347 125.305 921.24 Q125.305 914.111 123.477 910.569 Q121.671 907.004 118.037 907.004 M118.037 903.301 Q123.847 903.301 126.903 907.907 Q129.981 912.49 129.981 921.24 Q129.981 929.967 126.903 934.574 Q123.847 939.157 118.037 939.157 Q112.227 939.157 109.148 934.574 Q106.092 929.967 106.092 921.24 Q106.092 912.49 109.148 907.907 Q112.227 903.301 118.037 903.301 Z" fill="#000000" fill-rule="evenodd" fill-opacity="1" /><path clip-path="url(#clip380)" d="M138.199 932.606 L143.083 932.606 L143.083 938.486 L138.199 938.486 L138.199 932.606 Z" fill="#000000" fill-rule="evenodd" fill-opacity="1" /><path clip-path="url(#clip380)" d="M157.296 934.55 L173.615 934.55 L173.615 938.486 L151.671 938.486 L151.671 934.55 Q154.333 931.796 158.916 927.166 Q163.523 922.513 164.703 921.171 Q166.949 918.648 167.828 916.912 Q168.731 915.152 168.731 913.463 Q168.731 910.708 166.787 908.972 Q164.865 907.236 161.763 907.236 Q159.564 907.236 157.111 908 Q154.68 908.763 151.902 910.314 L151.902 905.592 Q154.726 904.458 157.18 903.879 Q159.634 903.301 161.671 903.301 Q167.041 903.301 170.236 905.986 Q173.43 908.671 173.43 913.162 Q173.43 915.291 172.62 917.213 Q171.833 919.111 169.726 921.703 Q169.148 922.375 166.046 925.592 Q162.944 928.787 157.296 934.55 Z" fill="#000000" fill-rule="evenodd" fill-opacity="1" /><path clip-path="url(#clip380)" d="M115.954 694.713 Q112.342 694.713 110.514 698.278 Q108.708 701.82 108.708 708.949 Q108.708 716.056 110.514 719.621 Q112.342 723.162 115.954 723.162 Q119.588 723.162 121.393 719.621 Q123.222 716.056 123.222 708.949 Q123.222 701.82 121.393 698.278 Q119.588 694.713 115.954 694.713 M115.954 691.01 Q121.764 691.01 124.819 695.616 Q127.898 700.199 127.898 708.949 Q127.898 717.676 124.819 722.283 Q121.764 726.866 115.954 726.866 Q110.143 726.866 107.065 722.283 Q104.009 717.676 104.009 708.949 Q104.009 700.199 107.065 695.616 Q110.143 691.01 115.954 691.01 Z" fill="#000000" fill-rule="evenodd" fill-opacity="1" /><path clip-path="url(#clip380)" d="M136.115 720.315 L141 720.315 L141 726.195 L136.115 726.195 L136.115 720.315 Z" fill="#000000" fill-rule="evenodd" fill-opacity="1" /><path clip-path="url(#clip380)" d="M164.032 695.709 L152.226 714.158 L164.032 714.158 L164.032 695.709 M162.805 691.635 L168.685 691.635 L168.685 714.158 L173.615 714.158 L173.615 718.047 L168.685 718.047 L168.685 726.195 L164.032 726.195 L164.032 718.047 L148.43 718.047 L148.43 713.533 L162.805 691.635 Z" fill="#000000" fill-rule="evenodd" fill-opacity="1" /><path clip-path="url(#clip380)" d="M116.278 482.423 Q112.666 482.423 110.838 485.987 Q109.032 489.529 109.032 496.659 Q109.032 503.765 110.838 507.33 Q112.666 510.871 116.278 510.871 Q119.912 510.871 121.717 507.33 Q123.546 503.765 123.546 496.659 Q123.546 489.529 121.717 485.987 Q119.912 482.423 116.278 482.423 M116.278 478.719 Q122.088 478.719 125.143 483.325 Q128.222 487.909 128.222 496.659 Q128.222 505.385 125.143 509.992 Q122.088 514.575 116.278 514.575 Q110.467 514.575 107.389 509.992 Q104.333 505.385 104.333 496.659 Q104.333 487.909 107.389 483.325 Q110.467 478.719 116.278 478.719 Z" fill="#000000" fill-rule="evenodd" fill-opacity="1" /><path clip-path="url(#clip380)" d="M136.44 508.024 L141.324 508.024 L141.324 513.904 L136.44 513.904 L136.44 508.024 Z" fill="#000000" fill-rule="evenodd" fill-opacity="1" /><path clip-path="url(#clip380)" d="M162.088 494.76 Q158.939 494.76 157.088 496.913 Q155.259 499.066 155.259 502.816 Q155.259 506.543 157.088 508.719 Q158.939 510.871 162.088 510.871 Q165.236 510.871 167.064 508.719 Q168.916 506.543 168.916 502.816 Q168.916 499.066 167.064 496.913 Q165.236 494.76 162.088 494.76 M171.37 480.108 L171.37 484.367 Q169.611 483.534 167.805 483.094 Q166.023 482.654 164.263 482.654 Q159.634 482.654 157.18 485.779 Q154.75 488.904 154.402 495.223 Q155.768 493.209 157.828 492.145 Q159.888 491.057 162.365 491.057 Q167.574 491.057 170.583 494.228 Q173.615 497.376 173.615 502.816 Q173.615 508.14 170.467 511.358 Q167.319 514.575 162.088 514.575 Q156.092 514.575 152.921 509.992 Q149.75 505.385 149.75 496.659 Q149.75 488.464 153.638 483.603 Q157.527 478.719 164.078 478.719 Q165.837 478.719 167.62 479.066 Q169.425 479.413 171.37 480.108 Z" fill="#000000" fill-rule="evenodd" fill-opacity="1" /><path clip-path="url(#clip380)" d="M116.532 270.132 Q112.921 270.132 111.092 273.696 Q109.287 277.238 109.287 284.368 Q109.287 291.474 111.092 295.039 Q112.921 298.581 116.532 298.581 Q120.166 298.581 121.972 295.039 Q123.801 291.474 123.801 284.368 Q123.801 277.238 121.972 273.696 Q120.166 270.132 116.532 270.132 M116.532 266.428 Q122.342 266.428 125.398 271.034 Q128.477 275.618 128.477 284.368 Q128.477 293.094 125.398 297.701 Q122.342 302.284 116.532 302.284 Q110.722 302.284 107.643 297.701 Q104.588 293.094 104.588 284.368 Q104.588 275.618 107.643 271.034 Q110.722 266.428 116.532 266.428 Z" fill="#000000" fill-rule="evenodd" fill-opacity="1" /><path clip-path="url(#clip380)" d="M136.694 295.733 L141.578 295.733 L141.578 301.613 L136.694 301.613 L136.694 295.733 Z" fill="#000000" fill-rule="evenodd" fill-opacity="1" /><path clip-path="url(#clip380)" d="M161.763 285.201 Q158.43 285.201 156.509 286.983 Q154.611 288.766 154.611 291.891 Q154.611 295.016 156.509 296.798 Q158.43 298.581 161.763 298.581 Q165.097 298.581 167.018 296.798 Q168.939 294.993 168.939 291.891 Q168.939 288.766 167.018 286.983 Q165.12 285.201 161.763 285.201 M157.088 283.21 Q154.078 282.47 152.388 280.409 Q150.722 278.349 150.722 275.386 Q150.722 271.243 153.662 268.835 Q156.625 266.428 161.763 266.428 Q166.925 266.428 169.865 268.835 Q172.805 271.243 172.805 275.386 Q172.805 278.349 171.115 280.409 Q169.449 282.47 166.462 283.21 Q169.842 283.997 171.717 286.289 Q173.615 288.581 173.615 291.891 Q173.615 296.914 170.537 299.599 Q167.481 302.284 161.763 302.284 Q156.046 302.284 152.967 299.599 Q149.912 296.914 149.912 291.891 Q149.912 288.581 151.81 286.289 Q153.708 283.997 157.088 283.21 M155.375 275.826 Q155.375 278.511 157.041 280.016 Q158.731 281.52 161.763 281.52 Q164.773 281.52 166.462 280.016 Q168.175 278.511 168.175 275.826 Q168.175 273.141 166.462 271.636 Q164.773 270.132 161.763 270.132 Q158.731 270.132 157.041 271.636 Q155.375 273.141 155.375 275.826 Z" fill="#000000" fill-rule="evenodd" fill-opacity="1" /><path clip-path="url(#clip380)" d="M12.7167 918.439 L30.5725 918.439 L30.5725 910.355 Q30.5725 905.867 28.249 903.416 Q25.9255 900.965 21.6286 900.965 Q17.3636 900.965 15.0401 903.416 Q12.7167 905.867 12.7167 910.355 L12.7167 918.439 M7.43312 924.869 L7.43312 910.355 Q7.43312 902.366 11.0616 898.292 Q14.6582 894.186 21.6286 894.186 Q28.6628 894.186 32.2594 898.292 Q35.856 902.366 35.856 910.355 L35.856 918.439 L54.9531 918.439 L54.9531 924.869 L7.43312 924.869 Z" fill="#000000" fill-rule="evenodd" fill-opacity="1" /><path clip-path="url(#clip380)" d="M24.7797 866.304 Q24.2068 867.291 23.9521 868.468 Q23.6657 869.614 23.6657 871.015 Q23.6657 875.98 26.9122 878.654 Q30.1269 881.295 36.1743 881.295 L54.9531 881.295 L54.9531 887.184 L19.3052 887.184 L19.3052 881.295 L24.8433 881.295 Q21.5968 879.449 20.0372 876.489 Q18.4458 873.529 18.4458 869.296 Q18.4458 868.691 18.5413 867.959 Q18.6049 867.227 18.7641 866.336 L24.7797 866.304 Z" fill="#000000" fill-rule="evenodd" fill-opacity="1" /><path clip-path="url(#clip380)" d="M23.411 847.78 Q23.411 852.491 27.1032 855.228 Q30.7634 857.965 37.161 857.965 Q43.5585 857.965 47.2506 855.26 Q50.9109 852.522 50.9109 847.78 Q50.9109 843.101 47.2188 840.364 Q43.5267 837.627 37.161 837.627 Q30.8271 837.627 27.135 840.364 Q23.411 843.101 23.411 847.78 M18.4458 847.78 Q18.4458 840.141 23.411 835.781 Q28.3763 831.42 37.161 831.42 Q45.9138 831.42 50.9109 835.781 Q55.8762 840.141 55.8762 847.78 Q55.8762 855.451 50.9109 859.811 Q45.9138 864.14 37.161 864.14 Q28.3763 864.14 23.411 859.811 Q18.4458 855.451 18.4458 847.78 Z" fill="#000000" fill-rule="evenodd" fill-opacity="1" /><path clip-path="url(#clip380)" d="M37.161 796.122 Q30.6998 796.122 27.0395 798.796 Q23.3474 801.438 23.3474 806.085 Q23.3474 810.732 27.0395 813.405 Q30.6998 816.047 37.161 816.047 Q43.6222 816.047 47.3143 813.405 Q50.9746 810.732 50.9746 806.085 Q50.9746 801.438 47.3143 798.796 Q43.6222 796.122 37.161 796.122 M24.716 816.047 Q21.5332 814.201 20.0054 811.4 Q18.4458 808.567 18.4458 804.652 Q18.4458 798.159 23.602 794.117 Q28.7582 790.043 37.161 790.043 Q45.5637 790.043 50.7199 794.117 Q55.8762 798.159 55.8762 804.652 Q55.8762 808.567 54.3484 811.4 Q52.7888 814.201 49.6059 816.047 L54.9531 816.047 L54.9531 821.935 L5.42793 821.935 L5.42793 816.047 L24.716 816.047 Z" fill="#000000" fill-rule="evenodd" fill-opacity="1" /><path clip-path="url(#clip380)" d="M37.0337 764.135 Q37.0337 771.232 38.6569 773.97 Q40.2802 776.707 44.1951 776.707 Q47.3143 776.707 49.1603 774.67 Q50.9746 772.601 50.9746 769.068 Q50.9746 764.198 47.5371 761.27 Q44.0678 758.31 38.3386 758.31 L37.0337 758.31 L37.0337 764.135 M34.6147 752.453 L54.9531 752.453 L54.9531 758.31 L49.5423 758.31 Q52.7888 760.315 54.3484 763.307 Q55.8762 766.299 55.8762 770.628 Q55.8762 776.102 52.8206 779.349 Q49.7332 782.563 44.577 782.563 Q38.5614 782.563 35.5059 778.553 Q32.4504 774.511 32.4504 766.522 L32.4504 758.31 L31.8774 758.31 Q27.8352 758.31 25.639 760.984 Q23.411 763.625 23.411 768.431 Q23.411 771.487 24.1431 774.383 Q24.8752 777.28 26.3393 779.953 L20.9284 779.953 Q19.6871 776.739 19.0824 773.715 Q18.4458 770.691 18.4458 767.827 Q18.4458 760.092 22.4562 756.273 Q26.4666 752.453 34.6147 752.453 Z" fill="#000000" fill-rule="evenodd" fill-opacity="1" /><path clip-path="url(#clip380)" d="M37.161 714.8 Q30.6998 714.8 27.0395 717.474 Q23.3474 720.116 23.3474 724.763 Q23.3474 729.41 27.0395 732.083 Q30.6998 734.725 37.161 734.725 Q43.6222 734.725 47.3143 732.083 Q50.9746 729.41 50.9746 724.763 Q50.9746 720.116 47.3143 717.474 Q43.6222 714.8 37.161 714.8 M24.716 734.725 Q21.5332 732.879 20.0054 730.078 Q18.4458 727.245 18.4458 723.33 Q18.4458 716.837 23.602 712.795 Q28.7582 708.721 37.161 708.721 Q45.5637 708.721 50.7199 712.795 Q55.8762 716.837 55.8762 723.33 Q55.8762 727.245 54.3484 730.078 Q52.7888 732.879 49.6059 734.725 L54.9531 734.725 L54.9531 740.613 L5.42793 740.613 L5.42793 734.725 L24.716 734.725 Z" fill="#000000" fill-rule="evenodd" fill-opacity="1" /><path clip-path="url(#clip380)" d="M19.3052 699.013 L19.3052 693.157 L54.9531 693.157 L54.9531 699.013 L19.3052 699.013 M5.42793 699.013 L5.42793 693.157 L12.844 693.157 L12.844 699.013 L5.42793 699.013 Z" fill="#000000" fill-rule="evenodd" fill-opacity="1" /><path clip-path="url(#clip380)" d="M5.42793 680.903 L5.42793 675.046 L54.9531 675.046 L54.9531 680.903 L5.42793 680.903 Z" fill="#000000" fill-rule="evenodd" fill-opacity="1" /><path clip-path="url(#clip380)" d="M19.3052 662.793 L19.3052 656.936 L54.9531 656.936 L54.9531 662.793 L19.3052 662.793 M5.42793 662.793 L5.42793 656.936 L12.844 656.936 L12.844 662.793 L5.42793 662.793 Z" fill="#000000" fill-rule="evenodd" fill-opacity="1" /><path clip-path="url(#clip380)" d="M9.18369 638.889 L19.3052 638.889 L19.3052 626.826 L23.8566 626.826 L23.8566 638.889 L43.2084 638.889 Q47.5689 638.889 48.8102 637.712 Q50.0515 636.502 50.0515 632.842 L50.0515 626.826 L54.9531 626.826 L54.9531 632.842 Q54.9531 639.621 52.4387 642.199 Q49.8924 644.778 43.2084 644.778 L23.8566 644.778 L23.8566 649.074 L19.3052 649.074 L19.3052 644.778 L9.18369 644.778 L9.18369 638.889 Z" fill="#000000" fill-rule="evenodd" fill-opacity="1" /><path clip-path="url(#clip380)" d="M58.2633 604.292 Q64.629 606.774 66.5705 609.13 Q68.5121 611.485 68.5121 615.432 L68.5121 620.11 L63.6105 620.11 L63.6105 616.673 Q63.6105 614.254 62.4647 612.917 Q61.3188 611.58 57.0538 609.957 L54.3802 608.907 L19.3052 623.325 L19.3052 617.119 L47.187 605.979 L19.3052 594.839 L19.3052 588.632 L58.2633 604.292 Z" fill="#000000" fill-rule="evenodd" fill-opacity="1" /><path clip-path="url(#clip380)" d="M23.411 546.014 Q23.411 550.724 27.1032 553.462 Q30.7634 556.199 37.161 556.199 Q43.5585 556.199 47.2506 553.493 Q50.9109 550.756 50.9109 546.014 Q50.9109 541.335 47.2188 538.598 Q43.5267 535.86 37.161 535.86 Q30.8271 535.86 27.135 538.598 Q23.411 541.335 23.411 546.014 M18.4458 546.014 Q18.4458 538.375 23.411 534.014 Q28.3763 529.654 37.161 529.654 Q45.9138 529.654 50.9109 534.014 Q55.8762 538.375 55.8762 546.014 Q55.8762 553.684 50.9109 558.045 Q45.9138 562.373 37.161 562.373 Q28.3763 562.373 23.411 558.045 Q18.4458 553.684 18.4458 546.014 Z" fill="#000000" fill-rule="evenodd" fill-opacity="1" /><path clip-path="url(#clip380)" d="M5.42793 501.899 L10.2977 501.899 L10.2977 507.501 Q10.2977 510.652 11.5708 511.893 Q12.844 513.103 16.1541 513.103 L19.3052 513.103 L19.3052 503.459 L23.8566 503.459 L23.8566 513.103 L54.9531 513.103 L54.9531 518.991 L23.8566 518.991 L23.8566 524.593 L19.3052 524.593 L19.3052 518.991 L16.8225 518.991 Q10.8706 518.991 8.16518 516.222 Q5.42793 513.453 5.42793 507.437 L5.42793 501.899 Z" fill="#000000" fill-rule="evenodd" fill-opacity="1" /><path clip-path="url(#clip380)" d="M20.3555 453.552 L25.8937 453.552 Q24.6205 456.034 23.984 458.708 Q23.3474 461.382 23.3474 464.246 Q23.3474 468.607 24.6842 470.803 Q26.021 472.967 28.6946 472.967 Q30.7316 472.967 31.9093 471.408 Q33.0551 469.848 34.1054 465.137 L34.551 463.132 Q35.8878 456.894 38.3386 454.284 Q40.7576 451.642 45.1181 451.642 Q50.0834 451.642 52.9798 455.589 Q55.8762 459.504 55.8762 466.379 Q55.8762 469.243 55.3032 472.362 Q54.7622 475.45 53.6482 478.887 L47.6007 478.887 Q49.2876 475.641 50.147 472.49 Q50.9746 469.339 50.9746 466.251 Q50.9746 462.114 49.5741 459.886 Q48.1418 457.658 45.5637 457.658 Q43.1766 457.658 41.9034 459.281 Q40.6303 460.872 39.4526 466.315 L38.9752 468.352 Q37.8294 473.795 35.4741 476.214 Q33.0869 478.633 28.9492 478.633 Q23.9203 478.633 21.183 475.068 Q18.4458 471.503 18.4458 464.946 Q18.4458 461.7 18.9232 458.835 Q19.4007 455.971 20.3555 453.552 Z" fill="#000000" fill-rule="evenodd" fill-opacity="1" /><path clip-path="url(#clip380)" d="M40.8849 442.921 L19.3052 442.921 L19.3052 437.065 L40.6621 437.065 Q45.7228 437.065 48.2691 435.091 Q50.7836 433.118 50.7836 429.171 Q50.7836 424.429 47.7599 421.691 Q44.7362 418.922 39.5163 418.922 L19.3052 418.922 L19.3052 413.066 L54.9531 413.066 L54.9531 418.922 L49.4786 418.922 Q52.7251 421.055 54.3166 423.888 Q55.8762 426.688 55.8762 430.412 Q55.8762 436.555 52.0567 439.738 Q48.2373 442.921 40.8849 442.921 M18.4458 428.184 L18.4458 428.184 Z" fill="#000000" fill-rule="evenodd" fill-opacity="1" /><path clip-path="url(#clip380)" d="M20.6738 375.349 L26.1483 375.349 Q24.7797 377.832 24.1113 380.346 Q23.411 382.829 23.411 385.375 Q23.411 391.072 27.0395 394.223 Q30.6361 397.374 37.161 397.374 Q43.6858 397.374 47.3143 394.223 Q50.9109 391.072 50.9109 385.375 Q50.9109 382.829 50.2425 380.346 Q49.5423 377.832 48.1736 375.349 L53.5845 375.349 Q54.7303 377.8 55.3032 380.442 Q55.8762 383.052 55.8762 386.012 Q55.8762 394.064 50.8154 398.807 Q45.7547 403.549 37.161 403.549 Q28.44 403.549 23.4429 398.775 Q18.4458 393.969 18.4458 385.63 Q18.4458 382.924 19.0187 380.346 Q19.5598 377.768 20.6738 375.349 Z" fill="#000000" fill-rule="evenodd" fill-opacity="1" /><path clip-path="url(#clip380)" d="M20.6738 339.51 L26.1483 339.51 Q24.7797 341.993 24.1113 344.507 Q23.411 346.99 23.411 349.536 Q23.411 355.233 27.0395 358.384 Q30.6361 361.535 37.161 361.535 Q43.6858 361.535 47.3143 358.384 Q50.9109 355.233 50.9109 349.536 Q50.9109 346.99 50.2425 344.507 Q49.5423 341.993 48.1736 339.51 L53.5845 339.51 Q54.7303 341.961 55.3032 344.603 Q55.8762 347.213 55.8762 350.173 Q55.8762 358.225 50.8154 362.968 Q45.7547 367.71 37.161 367.71 Q28.44 367.71 23.4429 362.936 Q18.4458 358.13 18.4458 349.791 Q18.4458 347.085 19.0187 344.507 Q19.5598 341.929 20.6738 339.51 Z" fill="#000000" fill-rule="evenodd" fill-opacity="1" /><path clip-path="url(#clip380)" d="M35.665 298.833 L38.5296 298.833 L38.5296 325.76 Q44.577 325.378 47.7599 322.132 Q50.9109 318.853 50.9109 313.029 Q50.9109 309.655 50.0834 306.504 Q49.2558 303.321 47.6007 300.202 L53.1389 300.202 Q54.4757 303.353 55.1759 306.663 Q55.8762 309.973 55.8762 313.379 Q55.8762 321.909 50.9109 326.906 Q45.9456 331.871 37.4793 331.871 Q28.7264 331.871 23.602 327.161 Q18.4458 322.418 18.4458 314.397 Q18.4458 307.204 23.0928 303.035 Q27.7079 298.833 35.665 298.833 M33.9463 304.69 Q29.1402 304.753 26.2756 307.395 Q23.411 310.005 23.411 314.334 Q23.411 319.235 26.1801 322.195 Q28.9492 325.124 33.9781 325.569 L33.9463 304.69 Z" fill="#000000" fill-rule="evenodd" fill-opacity="1" /><path clip-path="url(#clip380)" d="M20.3555 266.495 L25.8937 266.495 Q24.6205 268.978 23.984 271.652 Q23.3474 274.325 23.3474 277.19 Q23.3474 281.55 24.6842 283.747 Q26.021 285.911 28.6946 285.911 Q30.7316 285.911 31.9093 284.351 Q33.0551 282.792 34.1054 278.081 L34.551 276.076 Q35.8878 269.837 38.3386 267.228 Q40.7576 264.586 45.1181 264.586 Q50.0834 264.586 52.9798 268.532 Q55.8762 272.447 55.8762 279.322 Q55.8762 282.187 55.3032 285.306 Q54.7622 288.393 53.6482 291.831 L47.6007 291.831 Q49.2876 288.584 50.147 285.433 Q50.9746 282.282 50.9746 279.195 Q50.9746 275.057 49.5741 272.829 Q48.1418 270.601 45.5637 270.601 Q43.1766 270.601 41.9034 272.225 Q40.6303 273.816 39.4526 279.259 L38.9752 281.296 Q37.8294 286.738 35.4741 289.157 Q33.0869 291.576 28.9492 291.576 Q23.9203 291.576 21.183 288.012 Q18.4458 284.447 18.4458 277.89 Q18.4458 274.644 18.9232 271.779 Q19.4007 268.914 20.3555 266.495 Z" fill="#000000" fill-rule="evenodd" fill-opacity="1" /><path clip-path="url(#clip380)" d="M20.3555 232.534 L25.8937 232.534 Q24.6205 235.017 23.984 237.691 Q23.3474 240.364 23.3474 243.229 Q23.3474 247.589 24.6842 249.785 Q26.021 251.95 28.6946 251.95 Q30.7316 251.95 31.9093 250.39 Q33.0551 248.831 34.1054 244.12 L34.551 242.115 Q35.8878 235.876 38.3386 233.266 Q40.7576 230.625 45.1181 230.625 Q50.0834 230.625 52.9798 234.571 Q55.8762 238.486 55.8762 245.361 Q55.8762 248.226 55.3032 251.345 Q54.7622 254.432 53.6482 257.87 L47.6007 257.87 Q49.2876 254.623 50.147 251.472 Q50.9746 248.321 50.9746 245.234 Q50.9746 241.096 49.5741 238.868 Q48.1418 236.64 45.5637 236.64 Q43.1766 236.64 41.9034 238.264 Q40.6303 239.855 39.4526 245.298 L38.9752 247.335 Q37.8294 252.777 35.4741 255.196 Q33.0869 257.615 28.9492 257.615 Q23.9203 257.615 21.183 254.05 Q18.4458 250.486 18.4458 243.929 Q18.4458 240.683 18.9232 237.818 Q19.4007 234.953 20.3555 232.534 Z" fill="#000000" fill-rule="evenodd" fill-opacity="1" /><path clip-path="url(#clip380)" d="M745.14 18.8205 L745.14 65.8515 L755.024 65.8515 Q767.541 65.8515 773.334 60.1802 Q779.167 54.509 779.167 42.2752 Q779.167 30.1225 773.334 24.4918 Q767.541 18.8205 755.024 18.8205 L745.14 18.8205 M736.957 12.096 L753.768 12.096 Q771.349 12.096 779.572 19.4281 Q787.796 26.7198 787.796 42.2752 Q787.796 57.9117 779.532 65.2439 Q771.268 72.576 753.768 72.576 L736.957 72.576 L736.957 12.096 Z" fill="#000000" fill-rule="evenodd" fill-opacity="1" /><path clip-path="url(#clip380)" d="M821.135 49.7694 Q812.101 49.7694 808.617 51.8354 Q805.134 53.9013 805.134 58.8839 Q805.134 62.8538 807.726 65.2034 Q810.359 67.5124 814.856 67.5124 Q821.054 67.5124 824.781 63.1374 Q828.548 58.7219 828.548 51.4303 L828.548 49.7694 L821.135 49.7694 M836.002 46.6907 L836.002 72.576 L828.548 72.576 L828.548 65.6895 Q825.996 69.8214 822.188 71.8063 Q818.38 73.7508 812.871 73.7508 Q805.903 73.7508 801.771 69.8619 Q797.68 65.9325 797.68 59.3701 Q797.68 51.7138 802.784 47.825 Q807.929 43.9361 818.097 43.9361 L828.548 43.9361 L828.548 43.2069 Q828.548 38.0623 825.145 35.2672 Q821.783 32.4315 815.666 32.4315 Q811.777 32.4315 808.091 33.3632 Q804.404 34.295 801.002 36.1584 L801.002 29.2718 Q805.093 27.692 808.941 26.9223 Q812.79 26.1121 816.436 26.1121 Q826.279 26.1121 831.14 31.2163 Q836.002 36.3204 836.002 46.6907 Z" fill="#000000" fill-rule="evenodd" fill-opacity="1" /><path clip-path="url(#clip380)" d="M858.727 14.324 L858.727 27.2059 L874.08 27.2059 L874.08 32.9987 L858.727 32.9987 L858.727 57.6282 Q858.727 63.1779 860.226 64.7578 Q861.765 66.3376 866.424 66.3376 L874.08 66.3376 L874.08 72.576 L866.424 72.576 Q857.795 72.576 854.514 69.3758 Q851.233 66.1351 851.233 57.6282 L851.233 32.9987 L845.764 32.9987 L845.764 27.2059 L851.233 27.2059 L851.233 14.324 L858.727 14.324 Z" fill="#000000" fill-rule="evenodd" fill-opacity="1" /><path clip-path="url(#clip380)" d="M904.502 49.7694 Q895.469 49.7694 891.985 51.8354 Q888.501 53.9013 888.501 58.8839 Q888.501 62.8538 891.094 65.2034 Q893.727 67.5124 898.223 67.5124 Q904.421 67.5124 908.148 63.1374 Q911.915 58.7219 911.915 51.4303 L911.915 49.7694 L904.502 49.7694 M919.369 46.6907 L919.369 72.576 L911.915 72.576 L911.915 65.6895 Q909.363 69.8214 905.556 71.8063 Q901.748 73.7508 896.238 73.7508 Q889.271 73.7508 885.139 69.8619 Q881.048 65.9325 881.048 59.3701 Q881.048 51.7138 886.152 47.825 Q891.296 43.9361 901.464 43.9361 L911.915 43.9361 L911.915 43.2069 Q911.915 38.0623 908.513 35.2672 Q905.15 32.4315 899.034 32.4315 Q895.145 32.4315 891.458 33.3632 Q887.772 34.295 884.369 36.1584 L884.369 29.2718 Q888.461 27.692 892.309 26.9223 Q896.157 26.1121 899.803 26.1121 Q909.647 26.1121 914.508 31.2163 Q919.369 36.3204 919.369 46.6907 Z" fill="#000000" fill-rule="evenodd" fill-opacity="1" /><path clip-path="url(#clip380)" d="M978.674 32.4315 Q972.679 32.4315 969.195 37.1306 Q965.711 41.7891 965.711 49.9314 Q965.711 58.0738 969.155 62.7728 Q972.639 67.4314 978.674 67.4314 Q984.629 67.4314 988.113 62.7323 Q991.597 58.0333 991.597 49.9314 Q991.597 41.8701 988.113 37.1711 Q984.629 32.4315 978.674 32.4315 M978.674 26.1121 Q988.397 26.1121 993.946 32.4315 Q999.496 38.7509 999.496 49.9314 Q999.496 61.0714 993.946 67.4314 Q988.397 73.7508 978.674 73.7508 Q968.912 73.7508 963.362 67.4314 Q957.853 61.0714 957.853 49.9314 Q957.853 38.7509 963.362 32.4315 Q968.912 26.1121 978.674 26.1121 Z" fill="#000000" fill-rule="evenodd" fill-opacity="1" /><path clip-path="url(#clip380)" d="M1049.57 45.1919 L1049.57 72.576 L1042.11 72.576 L1042.11 45.4349 Q1042.11 38.994 1039.6 35.7938 Q1037.09 32.5936 1032.07 32.5936 Q1026.03 32.5936 1022.55 36.4419 Q1019.06 40.2903 1019.06 46.9338 L1019.06 72.576 L1011.57 72.576 L1011.57 27.2059 L1019.06 27.2059 L1019.06 34.2544 Q1021.74 30.163 1025.34 28.1376 Q1028.99 26.1121 1033.73 26.1121 Q1041.54 26.1121 1045.55 30.9732 Q1049.57 35.7938 1049.57 45.1919 Z" fill="#000000" fill-rule="evenodd" fill-opacity="1" /><path clip-path="url(#clip380)" d="M1098.01 65.7705 L1098.01 89.8329 L1090.52 89.8329 L1090.52 27.2059 L1098.01 27.2059 L1098.01 34.0924 Q1100.36 30.0415 1103.93 28.0971 Q1107.53 26.1121 1112.52 26.1121 Q1120.78 26.1121 1125.92 32.6746 Q1131.11 39.2371 1131.11 49.9314 Q1131.11 60.6258 1125.92 67.1883 Q1120.78 73.7508 1112.52 73.7508 Q1107.53 73.7508 1103.93 71.8063 Q1100.36 69.8214 1098.01 65.7705 M1123.37 49.9314 Q1123.37 41.7081 1119.97 37.0496 Q1116.61 32.3505 1110.69 32.3505 Q1104.78 32.3505 1101.38 37.0496 Q1098.01 41.7081 1098.01 49.9314 Q1098.01 58.1548 1101.38 62.8538 Q1104.78 67.5124 1110.69 67.5124 Q1116.61 67.5124 1119.97 62.8538 Q1123.37 58.1548 1123.37 49.9314 Z" fill="#000000" fill-rule="evenodd" fill-opacity="1" /><path clip-path="url(#clip380)" d="M1142.7 54.671 L1142.7 27.2059 L1150.15 27.2059 L1150.15 54.3874 Q1150.15 60.8284 1152.66 64.0691 Q1155.17 67.2693 1160.2 67.2693 Q1166.23 67.2693 1169.71 63.421 Q1173.24 59.5726 1173.24 52.9291 L1173.24 27.2059 L1180.69 27.2059 L1180.69 72.576 L1173.24 72.576 L1173.24 65.6084 Q1170.53 69.7404 1166.92 71.7658 Q1163.36 73.7508 1158.62 73.7508 Q1150.8 73.7508 1146.75 68.8897 Q1142.7 64.0286 1142.7 54.671 M1161.45 26.1121 L1161.45 26.1121 Z" fill="#000000" fill-rule="evenodd" fill-opacity="1" /><path clip-path="url(#clip380)" d="M1203.42 14.324 L1203.42 27.2059 L1218.77 27.2059 L1218.77 32.9987 L1203.42 32.9987 L1203.42 57.6282 Q1203.42 63.1779 1204.92 64.7578 Q1206.46 66.3376 1211.12 66.3376 L1218.77 66.3376 L1218.77 72.576 L1211.12 72.576 Q1202.49 72.576 1199.21 69.3758 Q1195.92 66.1351 1195.92 57.6282 L1195.92 32.9987 L1190.46 32.9987 L1190.46 27.2059 L1195.92 27.2059 L1195.92 14.324 L1203.42 14.324 Z" fill="#000000" fill-rule="evenodd" fill-opacity="1" /><path clip-path="url(#clip380)" d="M1235.95 14.324 L1235.95 27.2059 L1251.3 27.2059 L1251.3 32.9987 L1235.95 32.9987 L1235.95 57.6282 Q1235.95 63.1779 1237.45 64.7578 Q1238.99 66.3376 1243.64 66.3376 L1251.3 66.3376 L1251.3 72.576 L1243.64 72.576 Q1235.02 72.576 1231.73 69.3758 Q1228.45 66.1351 1228.45 57.6282 L1228.45 32.9987 L1222.98 32.9987 L1222.98 27.2059 L1228.45 27.2059 L1228.45 14.324 L1235.95 14.324 Z" fill="#000000" fill-rule="evenodd" fill-opacity="1" /><path clip-path="url(#clip380)" d="M1290.03 28.5427 L1290.03 35.5912 Q1286.87 33.9709 1283.46 33.1607 Q1280.06 32.3505 1276.42 32.3505 Q1270.87 32.3505 1268.07 34.0519 Q1265.32 35.7533 1265.32 39.156 Q1265.32 41.7486 1267.3 43.2475 Q1269.29 44.7058 1275.28 46.0426 L1277.83 46.6097 Q1285.77 48.3111 1289.1 51.4303 Q1292.46 54.509 1292.46 60.0587 Q1292.46 66.3781 1287.43 70.0644 Q1282.45 73.7508 1273.7 73.7508 Q1270.06 73.7508 1266.09 73.0216 Q1262.16 72.3329 1257.78 70.9151 L1257.78 63.2184 Q1261.91 65.3654 1265.92 66.4591 Q1269.93 67.5124 1273.86 67.5124 Q1279.13 67.5124 1281.97 65.73 Q1284.8 63.9071 1284.8 60.6258 Q1284.8 57.5877 1282.74 55.9673 Q1280.71 54.3469 1273.78 52.8481 L1271.19 52.2405 Q1264.26 50.7821 1261.18 47.7845 Q1258.11 44.7463 1258.11 39.4801 Q1258.11 33.0797 1262.64 29.5959 Q1267.18 26.1121 1275.52 26.1121 Q1279.66 26.1121 1283.3 26.7198 Q1286.95 27.3274 1290.03 28.5427 Z" fill="#000000" fill-rule="evenodd" fill-opacity="1" /><path clip-path="url(#clip380)" d="M1330.7 27.2059 L1338.15 27.2059 L1338.15 72.576 L1330.7 72.576 L1330.7 27.2059 M1330.7 9.54393 L1338.15 9.54393 L1338.15 18.9825 L1330.7 18.9825 L1330.7 9.54393 Z" fill="#000000" fill-rule="evenodd" fill-opacity="1" /><path clip-path="url(#clip380)" d="M1391.46 45.1919 L1391.46 72.576 L1384.01 72.576 L1384.01 45.4349 Q1384.01 38.994 1381.5 35.7938 Q1378.98 32.5936 1373.96 32.5936 Q1367.93 32.5936 1364.44 36.4419 Q1360.96 40.2903 1360.96 46.9338 L1360.96 72.576 L1353.46 72.576 L1353.46 27.2059 L1360.96 27.2059 L1360.96 34.2544 Q1363.63 30.163 1367.24 28.1376 Q1370.88 26.1121 1375.62 26.1121 Q1383.44 26.1121 1387.45 30.9732 Q1391.46 35.7938 1391.46 45.1919 Z" fill="#000000" fill-rule="evenodd" fill-opacity="1" /><path clip-path="url(#clip380)" d="M1439.91 65.7705 L1439.91 89.8329 L1432.42 89.8329 L1432.42 27.2059 L1439.91 27.2059 L1439.91 34.0924 Q1442.26 30.0415 1445.82 28.0971 Q1449.43 26.1121 1454.41 26.1121 Q1462.68 26.1121 1467.82 32.6746 Q1473.01 39.2371 1473.01 49.9314 Q1473.01 60.6258 1467.82 67.1883 Q1462.68 73.7508 1454.41 73.7508 Q1449.43 73.7508 1445.82 71.8063 Q1442.26 69.8214 1439.91 65.7705 M1465.27 49.9314 Q1465.27 41.7081 1461.87 37.0496 Q1458.5 32.3505 1452.59 32.3505 Q1446.68 32.3505 1443.27 37.0496 Q1439.91 41.7081 1439.91 49.9314 Q1439.91 58.1548 1443.27 62.8538 Q1446.68 67.5124 1452.59 67.5124 Q1458.5 67.5124 1461.87 62.8538 Q1465.27 58.1548 1465.27 49.9314 Z" fill="#000000" fill-rule="evenodd" fill-opacity="1" /><path clip-path="url(#clip380)" d="M1511.65 34.1734 Q1510.4 33.4443 1508.9 33.1202 Q1507.44 32.7556 1505.66 32.7556 Q1499.34 32.7556 1495.93 36.8875 Q1492.57 40.9789 1492.57 48.6757 L1492.57 72.576 L1485.08 72.576 L1485.08 27.2059 L1492.57 27.2059 L1492.57 34.2544 Q1494.92 30.1225 1498.69 28.1376 Q1502.46 26.1121 1507.84 26.1121 Q1508.61 26.1121 1509.55 26.2337 Q1510.48 26.3147 1511.61 26.5172 L1511.65 34.1734 Z" fill="#000000" fill-rule="evenodd" fill-opacity="1" /><path clip-path="url(#clip380)" d="M1535.23 32.4315 Q1529.23 32.4315 1525.75 37.1306 Q1522.27 41.7891 1522.27 49.9314 Q1522.27 58.0738 1525.71 62.7728 Q1529.19 67.4314 1535.23 67.4314 Q1541.18 67.4314 1544.67 62.7323 Q1548.15 58.0333 1548.15 49.9314 Q1548.15 41.8701 1544.67 37.1711 Q1541.18 32.4315 1535.23 32.4315 M1535.23 26.1121 Q1544.95 26.1121 1550.5 32.4315 Q1556.05 38.7509 1556.05 49.9314 Q1556.05 61.0714 1550.5 67.4314 Q1544.95 73.7508 1535.23 73.7508 Q1525.47 73.7508 1519.92 67.4314 Q1514.41 61.0714 1514.41 49.9314 Q1514.41 38.7509 1519.92 32.4315 Q1525.47 26.1121 1535.23 26.1121 Z" fill="#000000" fill-rule="evenodd" fill-opacity="1" /><path clip-path="url(#clip380)" d="M1624.63 49.3643 Q1624.63 41.2625 1621.27 36.8065 Q1617.95 32.3505 1611.91 32.3505 Q1605.92 32.3505 1602.55 36.8065 Q1599.23 41.2625 1599.23 49.3643 Q1599.23 57.4256 1602.55 61.8816 Q1605.92 66.3376 1611.91 66.3376 Q1617.95 66.3376 1621.27 61.8816 Q1624.63 57.4256 1624.63 49.3643 M1632.09 66.9452 Q1632.09 78.5308 1626.94 84.1616 Q1621.8 89.8329 1611.18 89.8329 Q1607.25 89.8329 1603.77 89.2252 Q1600.29 88.6581 1597 87.4428 L1597 80.1917 Q1600.29 81.9741 1603.49 82.8248 Q1606.69 83.6755 1610.01 83.6755 Q1617.34 83.6755 1620.99 79.8271 Q1624.63 76.0193 1624.63 68.282 L1624.63 64.5957 Q1622.32 68.6061 1618.72 70.5911 Q1615.11 72.576 1610.09 72.576 Q1601.74 72.576 1596.64 66.2161 Q1591.54 59.8562 1591.54 49.3643 Q1591.54 38.832 1596.64 32.472 Q1601.74 26.1121 1610.09 26.1121 Q1615.11 26.1121 1618.72 28.0971 Q1622.32 30.082 1624.63 34.0924 L1624.63 27.2059 L1632.09 27.2059 L1632.09 66.9452 Z" fill="#000000" fill-rule="evenodd" fill-opacity="1" /><path clip-path="url(#clip380)" d="M1665.02 32.4315 Q1659.02 32.4315 1655.54 37.1306 Q1652.06 41.7891 1652.06 49.9314 Q1652.06 58.0738 1655.5 62.7728 Q1658.98 67.4314 1665.02 67.4314 Q1670.97 67.4314 1674.46 62.7323 Q1677.94 58.0333 1677.94 49.9314 Q1677.94 41.8701 1674.46 37.1711 Q1670.97 32.4315 1665.02 32.4315 M1665.02 26.1121 Q1674.74 26.1121 1680.29 32.4315 Q1685.84 38.7509 1685.84 49.9314 Q1685.84 61.0714 1680.29 67.4314 Q1674.74 73.7508 1665.02 73.7508 Q1655.26 73.7508 1649.71 67.4314 Q1644.2 61.0714 1644.2 49.9314 Q1644.2 38.7509 1649.71 32.4315 Q1655.26 26.1121 1665.02 26.1121 Z" fill="#000000" fill-rule="evenodd" fill-opacity="1" /><path clip-path="url(#clip380)" d="M1698.2 9.54393 L1705.65 9.54393 L1705.65 72.576 L1698.2 72.576 L1698.2 9.54393 Z" fill="#000000" fill-rule="evenodd" fill-opacity="1" /><path clip-path="url(#clip380)" d="M1744.21 9.54393 L1744.21 15.7418 L1737.08 15.7418 Q1733.07 15.7418 1731.49 17.3622 Q1729.96 18.9825 1729.96 23.1955 L1729.96 27.2059 L1742.23 27.2059 L1742.23 32.9987 L1729.96 32.9987 L1729.96 72.576 L1722.46 72.576 L1722.46 32.9987 L1715.33 32.9987 L1715.33 27.2059 L1722.46 27.2059 L1722.46 24.0462 Q1722.46 16.471 1725.99 13.0277 Q1729.51 9.54393 1737.17 9.54393 L1744.21 9.54393 Z" fill="#000000" fill-rule="evenodd" fill-opacity="1" /><polyline clip-path="url(#clip382)" style="stroke:#000000; stroke-linecap:butt; stroke-linejoin:round; stroke-width:4; stroke-opacity:1; fill:none" points="
  266.84,150.391 266.84,136.397 
  "/>
<polyline clip-path="url(#clip382)" style="stroke:#000000; stroke-linecap:butt; stroke-linejoin:round; stroke-width:4; stroke-opacity:1; fill:none" points="
  375.034,266.075 375.034,235.906 
  "/>
<polyline clip-path="url(#clip382)" style="stroke:#000000; stroke-linecap:butt; stroke-linejoin:round; stroke-width:4; stroke-opacity:1; fill:none" points="
  483.228,369.13 483.228,325.511 
  "/>
<polyline clip-path="url(#clip382)" style="stroke:#000000; stroke-linecap:butt; stroke-linejoin:round; stroke-width:4; stroke-opacity:1; fill:none" points="
  591.422,535.844 591.422,480.256 
  "/>
<polyline clip-path="url(#clip382)" style="stroke:#000000; stroke-linecap:butt; stroke-linejoin:round; stroke-width:4; stroke-opacity:1; fill:none" points="
  699.616,584.071 699.616,520.005 
  "/>
<polyline clip-path="url(#clip382)" style="stroke:#000000; stroke-linecap:butt; stroke-linejoin:round; stroke-width:4; stroke-opacity:1; fill:none" points="
  807.81,602.704 807.81,536.493 
  "/>
<polyline clip-path="url(#clip382)" style="stroke:#000000; stroke-linecap:butt; stroke-linejoin:round; stroke-width:4; stroke-opacity:1; fill:none" points="
  916.004,676.736 916.004,608.412 
  "/>
<polyline clip-path="url(#clip382)" style="stroke:#000000; stroke-linecap:butt; stroke-linejoin:round; stroke-width:4; stroke-opacity:1; fill:none" points="
  1024.2,829.539 1024.2,762.428 
  "/>
<polyline clip-path="url(#clip382)" style="stroke:#000000; stroke-linecap:butt; stroke-linejoin:round; stroke-width:4; stroke-opacity:1; fill:none" points="
  1132.39,813.335 1132.39,742.483 
  "/>
<polyline clip-path="url(#clip382)" style="stroke:#000000; stroke-linecap:butt; stroke-linejoin:round; stroke-width:4; stroke-opacity:1; fill:none" points="
  1240.59,829.661 1240.59,765.526 
  "/>
<polyline clip-path="url(#clip382)" style="stroke:#000000; stroke-linecap:butt; stroke-linejoin:round; stroke-width:4; stroke-opacity:1; fill:none" points="
  1348.78,892.904 1348.78,827.598 
  "/>
<polyline clip-path="url(#clip382)" style="stroke:#000000; stroke-linecap:butt; stroke-linejoin:round; stroke-width:4; stroke-opacity:1; fill:none" points="
  1456.97,911.886 1456.97,846.493 
  "/>
<polyline clip-path="url(#clip382)" style="stroke:#000000; stroke-linecap:butt; stroke-linejoin:round; stroke-width:4; stroke-opacity:1; fill:none" points="
  1565.17,841.307 1565.17,766.852 
  "/>
<polyline clip-path="url(#clip382)" style="stroke:#000000; stroke-linecap:butt; stroke-linejoin:round; stroke-width:4; stroke-opacity:1; fill:none" points="
  1673.36,986.212 1673.36,924.844 
  "/>
<polyline clip-path="url(#clip382)" style="stroke:#000000; stroke-linecap:butt; stroke-linejoin:round; stroke-width:4; stroke-opacity:1; fill:none" points="
  1781.56,1016.44 1781.56,965.382 
  "/>
<polyline clip-path="url(#clip382)" style="stroke:#000000; stroke-linecap:butt; stroke-linejoin:round; stroke-width:4; stroke-opacity:1; fill:none" points="
  1889.75,992.546 1889.75,936.958 
  "/>
<polyline clip-path="url(#clip382)" style="stroke:#000000; stroke-linecap:butt; stroke-linejoin:round; stroke-width:4; stroke-opacity:1; fill:none" points="
  1997.94,979.14 1997.94,921.068 
  "/>
<polyline clip-path="url(#clip382)" style="stroke:#000000; stroke-linecap:butt; stroke-linejoin:round; stroke-width:4; stroke-opacity:1; fill:none" points="
  2106.14,1019.1 2106.14,959.066 
  "/>
<polyline clip-path="url(#clip382)" style="stroke:#000000; stroke-linecap:butt; stroke-linejoin:round; stroke-width:4; stroke-opacity:1; fill:none" points="
  2214.33,997.292 2214.33,934.504 
  "/>
<line clip-path="url(#clip382)" x1="282.84" y1="150.391" x2="250.84" y2="150.391" style="stroke:#000000; stroke-width:2.4; stroke-opacity:1"/>
<line clip-path="url(#clip382)" x1="282.84" y1="136.397" x2="250.84" y2="136.397" style="stroke:#000000; stroke-width:2.4; stroke-opacity:1"/>
<line clip-path="url(#clip382)" x1="391.034" y1="266.075" x2="359.034" y2="266.075" style="stroke:#000000; stroke-width:2.4; stroke-opacity:1"/>
<line clip-path="url(#clip382)" x1="391.034" y1="235.906" x2="359.034" y2="235.906" style="stroke:#000000; stroke-width:2.4; stroke-opacity:1"/>
<line clip-path="url(#clip382)" x1="499.228" y1="369.13" x2="467.228" y2="369.13" style="stroke:#000000; stroke-width:2.4; stroke-opacity:1"/>
<line clip-path="url(#clip382)" x1="499.228" y1="325.511" x2="467.228" y2="325.511" style="stroke:#000000; stroke-width:2.4; stroke-opacity:1"/>
<line clip-path="url(#clip382)" x1="607.422" y1="535.844" x2="575.422" y2="535.844" style="stroke:#000000; stroke-width:2.4; stroke-opacity:1"/>
<line clip-path="url(#clip382)" x1="607.422" y1="480.256" x2="575.422" y2="480.256" style="stroke:#000000; stroke-width:2.4; stroke-opacity:1"/>
<line clip-path="url(#clip382)" x1="715.616" y1="584.071" x2="683.616" y2="584.071" style="stroke:#000000; stroke-width:2.4; stroke-opacity:1"/>
<line clip-path="url(#clip382)" x1="715.616" y1="520.005" x2="683.616" y2="520.005" style="stroke:#000000; stroke-width:2.4; stroke-opacity:1"/>
<line clip-path="url(#clip382)" x1="823.81" y1="602.704" x2="791.81" y2="602.704" style="stroke:#000000; stroke-width:2.4; stroke-opacity:1"/>
<line clip-path="url(#clip382)" x1="823.81" y1="536.493" x2="791.81" y2="536.493" style="stroke:#000000; stroke-width:2.4; stroke-opacity:1"/>
<line clip-path="url(#clip382)" x1="932.004" y1="676.736" x2="900.004" y2="676.736" style="stroke:#000000; stroke-width:2.4; stroke-opacity:1"/>
<line clip-path="url(#clip382)" x1="932.004" y1="608.412" x2="900.004" y2="608.412" style="stroke:#000000; stroke-width:2.4; stroke-opacity:1"/>
<line clip-path="url(#clip382)" x1="1040.2" y1="829.539" x2="1008.2" y2="829.539" style="stroke:#000000; stroke-width:2.4; stroke-opacity:1"/>
<line clip-path="url(#clip382)" x1="1040.2" y1="762.428" x2="1008.2" y2="762.428" style="stroke:#000000; stroke-width:2.4; stroke-opacity:1"/>
<line clip-path="url(#clip382)" x1="1148.39" y1="813.335" x2="1116.39" y2="813.335" style="stroke:#000000; stroke-width:2.4; stroke-opacity:1"/>
<line clip-path="url(#clip382)" x1="1148.39" y1="742.483" x2="1116.39" y2="742.483" style="stroke:#000000; stroke-width:2.4; stroke-opacity:1"/>
<line clip-path="url(#clip382)" x1="1256.59" y1="829.661" x2="1224.59" y2="829.661" style="stroke:#000000; stroke-width:2.4; stroke-opacity:1"/>
<line clip-path="url(#clip382)" x1="1256.59" y1="765.526" x2="1224.59" y2="765.526" style="stroke:#000000; stroke-width:2.4; stroke-opacity:1"/>
<line clip-path="url(#clip382)" x1="1364.78" y1="892.904" x2="1332.78" y2="892.904" style="stroke:#000000; stroke-width:2.4; stroke-opacity:1"/>
<line clip-path="url(#clip382)" x1="1364.78" y1="827.598" x2="1332.78" y2="827.598" style="stroke:#000000; stroke-width:2.4; stroke-opacity:1"/>
<line clip-path="url(#clip382)" x1="1472.97" y1="911.886" x2="1440.97" y2="911.886" style="stroke:#000000; stroke-width:2.4; stroke-opacity:1"/>
<line clip-path="url(#clip382)" x1="1472.97" y1="846.493" x2="1440.97" y2="846.493" style="stroke:#000000; stroke-width:2.4; stroke-opacity:1"/>
<line clip-path="url(#clip382)" x1="1581.17" y1="841.307" x2="1549.17" y2="841.307" style="stroke:#000000; stroke-width:2.4; stroke-opacity:1"/>
<line clip-path="url(#clip382)" x1="1581.17" y1="766.852" x2="1549.17" y2="766.852" style="stroke:#000000; stroke-width:2.4; stroke-opacity:1"/>
<line clip-path="url(#clip382)" x1="1689.36" y1="986.212" x2="1657.36" y2="986.212" style="stroke:#000000; stroke-width:2.4; stroke-opacity:1"/>
<line clip-path="url(#clip382)" x1="1689.36" y1="924.844" x2="1657.36" y2="924.844" style="stroke:#000000; stroke-width:2.4; stroke-opacity:1"/>
<line clip-path="url(#clip382)" x1="1797.56" y1="1016.44" x2="1765.56" y2="1016.44" style="stroke:#000000; stroke-width:2.4; stroke-opacity:1"/>
<line clip-path="url(#clip382)" x1="1797.56" y1="965.382" x2="1765.56" y2="965.382" style="stroke:#000000; stroke-width:2.4; stroke-opacity:1"/>
<line clip-path="url(#clip382)" x1="1905.75" y1="992.546" x2="1873.75" y2="992.546" style="stroke:#000000; stroke-width:2.4; stroke-opacity:1"/>
<line clip-path="url(#clip382)" x1="1905.75" y1="936.958" x2="1873.75" y2="936.958" style="stroke:#000000; stroke-width:2.4; stroke-opacity:1"/>
<line clip-path="url(#clip382)" x1="2013.94" y1="979.14" x2="1981.94" y2="979.14" style="stroke:#000000; stroke-width:2.4; stroke-opacity:1"/>
<line clip-path="url(#clip382)" x1="2013.94" y1="921.068" x2="1981.94" y2="921.068" style="stroke:#000000; stroke-width:2.4; stroke-opacity:1"/>
<line clip-path="url(#clip382)" x1="2122.14" y1="1019.1" x2="2090.14" y2="1019.1" style="stroke:#000000; stroke-width:2.4; stroke-opacity:1"/>
<line clip-path="url(#clip382)" x1="2122.14" y1="959.066" x2="2090.14" y2="959.066" style="stroke:#000000; stroke-width:2.4; stroke-opacity:1"/>
<line clip-path="url(#clip382)" x1="2230.33" y1="997.292" x2="2198.33" y2="997.292" style="stroke:#000000; stroke-width:2.4; stroke-opacity:1"/>
<line clip-path="url(#clip382)" x1="2230.33" y1="934.504" x2="2198.33" y2="934.504" style="stroke:#000000; stroke-width:2.4; stroke-opacity:1"/>
<circle clip-path="url(#clip382)" cx="266.84" cy="143.394" r="14" fill="#add8e6" fill-rule="evenodd" fill-opacity="1" stroke="#000000" stroke-opacity="1" stroke-width="2.4"/>
<circle clip-path="url(#clip382)" cx="375.034" cy="250.99" r="14" fill="#add8e6" fill-rule="evenodd" fill-opacity="1" stroke="#000000" stroke-opacity="1" stroke-width="2.4"/>
<circle clip-path="url(#clip382)" cx="483.228" cy="347.32" r="14" fill="#add8e6" fill-rule="evenodd" fill-opacity="1" stroke="#000000" stroke-opacity="1" stroke-width="2.4"/>
<circle clip-path="url(#clip382)" cx="591.422" cy="508.05" r="14" fill="#add8e6" fill-rule="evenodd" fill-opacity="1" stroke="#000000" stroke-opacity="1" stroke-width="2.4"/>
<circle clip-path="url(#clip382)" cx="699.616" cy="552.038" r="14" fill="#add8e6" fill-rule="evenodd" fill-opacity="1" stroke="#000000" stroke-opacity="1" stroke-width="2.4"/>
<circle clip-path="url(#clip382)" cx="807.81" cy="569.599" r="14" fill="#add8e6" fill-rule="evenodd" fill-opacity="1" stroke="#000000" stroke-opacity="1" stroke-width="2.4"/>
<circle clip-path="url(#clip382)" cx="916.004" cy="642.574" r="14" fill="#add8e6" fill-rule="evenodd" fill-opacity="1" stroke="#000000" stroke-opacity="1" stroke-width="2.4"/>
<circle clip-path="url(#clip382)" cx="1024.2" cy="795.983" r="14" fill="#add8e6" fill-rule="evenodd" fill-opacity="1" stroke="#000000" stroke-opacity="1" stroke-width="2.4"/>
<circle clip-path="url(#clip382)" cx="1132.39" cy="777.909" r="14" fill="#add8e6" fill-rule="evenodd" fill-opacity="1" stroke="#000000" stroke-opacity="1" stroke-width="2.4"/>
<circle clip-path="url(#clip382)" cx="1240.59" cy="797.593" r="14" fill="#add8e6" fill-rule="evenodd" fill-opacity="1" stroke="#000000" stroke-opacity="1" stroke-width="2.4"/>
<circle clip-path="url(#clip382)" cx="1348.78" cy="860.251" r="14" fill="#add8e6" fill-rule="evenodd" fill-opacity="1" stroke="#000000" stroke-opacity="1" stroke-width="2.4"/>
<circle clip-path="url(#clip382)" cx="1456.97" cy="879.19" r="14" fill="#add8e6" fill-rule="evenodd" fill-opacity="1" stroke="#000000" stroke-opacity="1" stroke-width="2.4"/>
<circle clip-path="url(#clip382)" cx="1565.17" cy="804.08" r="14" fill="#add8e6" fill-rule="evenodd" fill-opacity="1" stroke="#000000" stroke-opacity="1" stroke-width="2.4"/>
<circle clip-path="url(#clip382)" cx="1673.36" cy="955.528" r="14" fill="#add8e6" fill-rule="evenodd" fill-opacity="1" stroke="#000000" stroke-opacity="1" stroke-width="2.4"/>
<circle clip-path="url(#clip382)" cx="1781.56" cy="990.913" r="14" fill="#add8e6" fill-rule="evenodd" fill-opacity="1" stroke="#000000" stroke-opacity="1" stroke-width="2.4"/>
<circle clip-path="url(#clip382)" cx="1889.75" cy="964.752" r="14" fill="#add8e6" fill-rule="evenodd" fill-opacity="1" stroke="#000000" stroke-opacity="1" stroke-width="2.4"/>
<circle clip-path="url(#clip382)" cx="1997.94" cy="950.104" r="14" fill="#add8e6" fill-rule="evenodd" fill-opacity="1" stroke="#000000" stroke-opacity="1" stroke-width="2.4"/>
<circle clip-path="url(#clip382)" cx="2106.14" cy="989.081" r="14" fill="#add8e6" fill-rule="evenodd" fill-opacity="1" stroke="#000000" stroke-opacity="1" stroke-width="2.4"/>
<circle clip-path="url(#clip382)" cx="2214.33" cy="965.898" r="14" fill="#add8e6" fill-rule="evenodd" fill-opacity="1" stroke="#000000" stroke-opacity="1" stroke-width="2.4"/>
</svg>
