<?xml version="1.0" encoding="utf-8"?>
<svg xmlns="http://www.w3.org/2000/svg" xmlns:xlink="http://www.w3.org/1999/xlink" width="600" height="400" viewBox="0 0 2400 1600">
<defs>
  <clipPath id="clip710">
    <rect x="0" y="0" width="2400" height="1600"/>
  </clipPath>
</defs>
<path clip-path="url(#clip710)" d="
M0 1600 L2400 1600 L2400 0 L0 0  Z
  " fill="#ffffff" fill-rule="evenodd" fill-opacity="1"/>
<defs>
  <clipPath id="clip711">
    <rect x="480" y="0" width="1681" height="1600"/>
  </clipPath>
</defs>
<path clip-path="url(#clip710)" d="
M219.866 1423.18 L2352.76 1423.18 L2352.76 123.472 L219.866 123.472  Z
  " fill="#ffffff" fill-rule="evenodd" fill-opacity="1"/>
<defs>
  <clipPath id="clip712">
    <rect x="219" y="123" width="2134" height="1301"/>
  </clipPath>
</defs>
<polyline clip-path="url(#clip712)" style="stroke:#000000; stroke-linecap:butt; stroke-linejoin:round; stroke-width:2; stroke-opacity:0.1; fill:none" points="
  615.591,1423.18 615.591,123.472 
  "/>
<polyline clip-path="url(#clip712)" style="stroke:#000000; stroke-linecap:butt; stroke-linejoin:round; stroke-width:2; stroke-opacity:0.1; fill:none" points="
  1174.52,1423.18 1174.52,123.472 
  "/>
<polyline clip-path="url(#clip712)" style="stroke:#000000; stroke-linecap:butt; stroke-linejoin:round; stroke-width:2; stroke-opacity:0.1; fill:none" points="
  1733.46,1423.18 1733.46,123.472 
  "/>
<polyline clip-path="url(#clip712)" style="stroke:#000000; stroke-linecap:butt; stroke-linejoin:round; stroke-width:2; stroke-opacity:0.1; fill:none" points="
  2292.39,1423.18 2292.39,123.472 
  "/>
<polyline clip-path="url(#clip710)" style="stroke:#000000; stroke-linecap:butt; stroke-linejoin:round; stroke-width:4; stroke-opacity:1; fill:none" points="
  219.866,1423.18 2352.76,1423.18 
  "/>
<polyline clip-path="url(#clip710)" style="stroke:#000000; stroke-linecap:butt; stroke-linejoin:round; stroke-width:4; stroke-opacity:1; fill:none" points="
  615.591,1423.18 615.591,1404.28 
  "/>
<polyline clip-path="url(#clip710)" style="stroke:#000000; stroke-linecap:butt; stroke-linejoin:round; stroke-width:4; stroke-opacity:1; fill:none" points="
  1174.52,1423.18 1174.52,1404.28 
  "/>
<polyline clip-path="url(#clip710)" style="stroke:#000000; stroke-linecap:butt; stroke-linejoin:round; stroke-width:4; stroke-opacity:1; fill:none" points="
  1733.46,1423.18 1733.46,1404.28 
  "/>
<polyline clip-path="url(#clip710)" style="stroke:#000000; stroke-linecap:butt; stroke-linejoin:round; stroke-width:4; stroke-opacity:1; fill:none" points="
  2292.39,1423.18 2292.39,1404.28 
  "/>
<path clip-path="url(#clip710)" d="M605.869 1451.02 L624.225 1451.02 L624.225 1454.96 L610.151 1454.96 L610.151 1463.43 Q611.17 1463.08 612.188 1462.92 Q613.207 1462.73 614.225 1462.73 Q620.012 1462.73 623.392 1465.9 Q626.772 1469.08 626.772 1474.49 Q626.772 1480.07 623.299 1483.17 Q619.827 1486.25 613.508 1486.25 Q611.332 1486.25 609.063 1485.88 Q606.818 1485.51 604.411 1484.77 L604.411 1480.07 Q606.494 1481.2 608.716 1481.76 Q610.938 1482.32 613.415 1482.32 Q617.42 1482.32 619.758 1480.21 Q622.096 1478.1 622.096 1474.49 Q622.096 1470.88 619.758 1468.77 Q617.42 1466.67 613.415 1466.67 Q611.54 1466.67 609.665 1467.08 Q607.813 1467.5 605.869 1468.38 L605.869 1451.02 Z" fill="#000000" fill-rule="evenodd" fill-opacity="1" /><path clip-path="url(#clip710)" d="M1149.21 1481.64 L1156.85 1481.64 L1156.85 1455.28 L1148.54 1456.95 L1148.54 1452.69 L1156.8 1451.02 L1161.48 1451.02 L1161.48 1481.64 L1169.12 1481.64 L1169.12 1485.58 L1149.21 1485.58 L1149.21 1481.64 Z" fill="#000000" fill-rule="evenodd" fill-opacity="1" /><path clip-path="url(#clip710)" d="M1188.56 1454.1 Q1184.95 1454.1 1183.12 1457.66 Q1181.32 1461.2 1181.32 1468.33 Q1181.32 1475.44 1183.12 1479.01 Q1184.95 1482.55 1188.56 1482.55 Q1192.2 1482.55 1194 1479.01 Q1195.83 1475.44 1195.83 1468.33 Q1195.83 1461.2 1194 1457.66 Q1192.2 1454.1 1188.56 1454.1 M1188.56 1450.39 Q1194.37 1450.39 1197.43 1455 Q1200.51 1459.58 1200.51 1468.33 Q1200.51 1477.06 1197.43 1481.67 Q1194.37 1486.25 1188.56 1486.25 Q1182.75 1486.25 1179.67 1481.67 Q1176.62 1477.06 1176.62 1468.33 Q1176.62 1459.58 1179.67 1455 Q1182.75 1450.39 1188.56 1450.39 Z" fill="#000000" fill-rule="evenodd" fill-opacity="1" /><path clip-path="url(#clip710)" d="M1708.64 1481.64 L1716.28 1481.64 L1716.28 1455.28 L1707.97 1456.95 L1707.97 1452.69 L1716.24 1451.02 L1720.91 1451.02 L1720.91 1481.64 L1728.55 1481.64 L1728.55 1485.58 L1708.64 1485.58 L1708.64 1481.64 Z" fill="#000000" fill-rule="evenodd" fill-opacity="1" /><path clip-path="url(#clip710)" d="M1738.04 1451.02 L1756.4 1451.02 L1756.4 1454.96 L1742.32 1454.96 L1742.32 1463.43 Q1743.34 1463.08 1744.36 1462.92 Q1745.38 1462.73 1746.4 1462.73 Q1752.18 1462.73 1755.56 1465.9 Q1758.94 1469.08 1758.94 1474.49 Q1758.94 1480.07 1755.47 1483.17 Q1752 1486.25 1745.68 1486.25 Q1743.5 1486.25 1741.24 1485.88 Q1738.99 1485.51 1736.58 1484.77 L1736.58 1480.07 Q1738.67 1481.2 1740.89 1481.76 Q1743.11 1482.32 1745.59 1482.32 Q1749.59 1482.32 1751.93 1480.21 Q1754.27 1478.1 1754.27 1474.49 Q1754.27 1470.88 1751.93 1468.77 Q1749.59 1466.67 1745.59 1466.67 Q1743.71 1466.67 1741.84 1467.08 Q1739.99 1467.5 1738.04 1468.38 L1738.04 1451.02 Z" fill="#000000" fill-rule="evenodd" fill-opacity="1" /><path clip-path="url(#clip710)" d="M2271.16 1481.64 L2287.48 1481.64 L2287.48 1485.58 L2265.54 1485.58 L2265.54 1481.64 Q2268.2 1478.89 2272.78 1474.26 Q2277.39 1469.61 2278.57 1468.27 Q2280.82 1465.74 2281.7 1464.01 Q2282.6 1462.25 2282.6 1460.56 Q2282.6 1457.8 2280.66 1456.07 Q2278.73 1454.33 2275.63 1454.33 Q2273.43 1454.33 2270.98 1455.09 Q2268.55 1455.86 2265.77 1457.41 L2265.77 1452.69 Q2268.59 1451.55 2271.05 1450.97 Q2273.5 1450.39 2275.54 1450.39 Q2280.91 1450.39 2284.1 1453.08 Q2287.3 1455.77 2287.3 1460.26 Q2287.3 1462.39 2286.49 1464.31 Q2285.7 1466.2 2283.59 1468.8 Q2283.02 1469.47 2279.91 1472.69 Q2276.81 1475.88 2271.16 1481.64 Z" fill="#000000" fill-rule="evenodd" fill-opacity="1" /><path clip-path="url(#clip710)" d="M2307.3 1454.1 Q2303.69 1454.1 2301.86 1457.66 Q2300.05 1461.2 2300.05 1468.33 Q2300.05 1475.44 2301.86 1479.01 Q2303.69 1482.55 2307.3 1482.55 Q2310.93 1482.55 2312.74 1479.01 Q2314.57 1475.44 2314.57 1468.33 Q2314.57 1461.2 2312.74 1457.66 Q2310.93 1454.1 2307.3 1454.1 M2307.3 1450.39 Q2313.11 1450.39 2316.16 1455 Q2319.24 1459.58 2319.24 1468.33 Q2319.24 1477.06 2316.16 1481.67 Q2313.11 1486.25 2307.3 1486.25 Q2301.49 1486.25 2298.41 1481.67 Q2295.35 1477.06 2295.35 1468.33 Q2295.35 1459.58 2298.41 1455 Q2301.49 1450.39 2307.3 1450.39 Z" fill="#000000" fill-rule="evenodd" fill-opacity="1" /><path clip-path="url(#clip710)" d="M889.807 1525.81 L889.807 1562.76 L897.573 1562.76 Q907.408 1562.76 911.96 1558.3 Q916.543 1553.85 916.543 1544.24 Q916.543 1534.69 911.96 1530.26 Q907.408 1525.81 897.573 1525.81 L889.807 1525.81 M883.378 1520.52 L896.587 1520.52 Q910.4 1520.52 916.861 1526.28 Q923.323 1532.01 923.323 1544.24 Q923.323 1556.52 916.83 1562.28 Q910.337 1568.04 896.587 1568.04 L883.378 1568.04 L883.378 1520.52 Z" fill="#000000" fill-rule="evenodd" fill-opacity="1" /><path clip-path="url(#clip710)" d="M933.317 1532.4 L939.173 1532.4 L939.173 1568.04 L933.317 1568.04 L933.317 1532.4 M933.317 1518.52 L939.173 1518.52 L939.173 1525.93 L933.317 1525.93 L933.317 1518.52 Z" fill="#000000" fill-rule="evenodd" fill-opacity="1" /><path clip-path="url(#clip710)" d="M974.153 1533.45 L974.153 1538.98 Q971.67 1537.71 968.997 1537.07 Q966.323 1536.44 963.458 1536.44 Q959.098 1536.44 956.902 1537.77 Q954.737 1539.11 954.737 1541.79 Q954.737 1543.82 956.297 1545 Q957.857 1546.15 962.567 1547.2 L964.572 1547.64 Q970.811 1548.98 973.421 1551.43 Q976.062 1553.85 976.062 1558.21 Q976.062 1563.17 972.116 1566.07 Q968.201 1568.97 961.326 1568.97 Q958.461 1568.97 955.342 1568.39 Q952.255 1567.85 948.817 1566.74 L948.817 1560.69 Q952.064 1562.38 955.215 1563.24 Q958.366 1564.07 961.453 1564.07 Q965.591 1564.07 967.819 1562.66 Q970.047 1561.23 970.047 1558.65 Q970.047 1556.27 968.424 1554.99 Q966.832 1553.72 961.39 1552.54 L959.352 1552.07 Q953.91 1550.92 951.491 1548.56 Q949.072 1546.18 949.072 1542.04 Q949.072 1537.01 952.637 1534.27 Q956.201 1531.54 962.758 1531.54 Q966.005 1531.54 968.869 1532.01 Q971.734 1532.49 974.153 1533.45 Z" fill="#000000" fill-rule="evenodd" fill-opacity="1" /><path clip-path="url(#clip710)" d="M991.181 1522.27 L991.181 1532.4 L1003.24 1532.4 L1003.24 1536.95 L991.181 1536.95 L991.181 1556.3 Q991.181 1560.66 992.359 1561.9 Q993.568 1563.14 997.228 1563.14 L1003.24 1563.14 L1003.24 1568.04 L997.228 1568.04 Q990.449 1568.04 987.871 1565.53 Q985.293 1562.98 985.293 1556.3 L985.293 1536.95 L980.996 1536.95 L980.996 1532.4 L985.293 1532.4 L985.293 1522.27 L991.181 1522.27 Z" fill="#000000" fill-rule="evenodd" fill-opacity="1" /><path clip-path="url(#clip710)" d="M1027.15 1550.12 Q1020.05 1550.12 1017.31 1551.75 Q1014.57 1553.37 1014.57 1557.29 Q1014.57 1560.4 1016.61 1562.25 Q1018.68 1564.07 1022.21 1564.07 Q1027.08 1564.07 1030.01 1560.63 Q1032.97 1557.16 1032.97 1551.43 L1032.97 1550.12 L1027.15 1550.12 M1038.83 1547.71 L1038.83 1568.04 L1032.97 1568.04 L1032.97 1562.63 Q1030.97 1565.88 1027.97 1567.44 Q1024.98 1568.97 1020.65 1568.97 Q1015.18 1568.97 1011.93 1565.91 Q1008.72 1562.82 1008.72 1557.67 Q1008.72 1551.65 1012.73 1548.6 Q1016.77 1545.54 1024.76 1545.54 L1032.97 1545.54 L1032.97 1544.97 Q1032.97 1540.93 1030.3 1538.73 Q1027.66 1536.5 1022.85 1536.5 Q1019.79 1536.5 1016.9 1537.23 Q1014 1537.97 1011.33 1539.43 L1011.33 1534.02 Q1014.54 1532.78 1017.57 1532.17 Q1020.59 1531.54 1023.46 1531.54 Q1031.19 1531.54 1035.01 1535.55 Q1038.83 1539.56 1038.83 1547.71 Z" fill="#000000" fill-rule="evenodd" fill-opacity="1" /><path clip-path="url(#clip710)" d="M1080.52 1546.53 L1080.52 1568.04 L1074.67 1568.04 L1074.67 1546.72 Q1074.67 1541.66 1072.69 1539.14 Q1070.72 1536.63 1066.77 1536.63 Q1062.03 1536.63 1059.29 1539.65 Q1056.56 1542.68 1056.56 1547.9 L1056.56 1568.04 L1050.67 1568.04 L1050.67 1532.4 L1056.56 1532.4 L1056.56 1537.93 Q1058.66 1534.72 1061.49 1533.13 Q1064.35 1531.54 1068.08 1531.54 Q1074.22 1531.54 1077.37 1535.36 Q1080.52 1539.14 1080.52 1546.53 Z" fill="#000000" fill-rule="evenodd" fill-opacity="1" /><path clip-path="url(#clip710)" d="M1117.86 1533.76 L1117.86 1539.24 Q1115.38 1537.87 1112.86 1537.2 Q1110.38 1536.5 1107.83 1536.5 Q1102.14 1536.5 1098.98 1540.13 Q1095.83 1543.73 1095.83 1550.25 Q1095.83 1556.78 1098.98 1560.4 Q1102.14 1564 1107.83 1564 Q1110.38 1564 1112.86 1563.33 Q1115.38 1562.63 1117.86 1561.26 L1117.86 1566.68 Q1115.41 1567.82 1112.77 1568.39 Q1110.16 1568.97 1107.2 1568.97 Q1099.14 1568.97 1094.4 1563.91 Q1089.66 1558.85 1089.66 1550.25 Q1089.66 1541.53 1094.43 1536.53 Q1099.24 1531.54 1107.58 1531.54 Q1110.28 1531.54 1112.86 1532.11 Q1115.44 1532.65 1117.86 1533.76 Z" fill="#000000" fill-rule="evenodd" fill-opacity="1" /><path clip-path="url(#clip710)" d="M1158.54 1548.76 L1158.54 1551.62 L1131.61 1551.62 Q1131.99 1557.67 1135.24 1560.85 Q1138.52 1564 1144.34 1564 Q1147.71 1564 1150.86 1563.17 Q1154.05 1562.35 1157.17 1560.69 L1157.17 1566.23 Q1154.02 1567.57 1150.71 1568.27 Q1147.4 1568.97 1143.99 1568.97 Q1135.46 1568.97 1130.46 1564 Q1125.5 1559.04 1125.5 1550.57 Q1125.5 1541.82 1130.21 1536.69 Q1134.95 1531.54 1142.97 1531.54 Q1150.16 1531.54 1154.33 1536.18 Q1158.54 1540.8 1158.54 1548.76 M1152.68 1547.04 Q1152.62 1542.23 1149.97 1539.37 Q1147.36 1536.5 1143.03 1536.5 Q1138.13 1536.5 1135.17 1539.27 Q1132.25 1542.04 1131.8 1547.07 L1152.68 1547.04 Z" fill="#000000" fill-rule="evenodd" fill-opacity="1" /><path clip-path="url(#clip710)" d="M1206.91 1518.52 L1206.91 1523.39 L1201.31 1523.39 Q1198.16 1523.39 1196.92 1524.66 Q1195.71 1525.93 1195.71 1529.24 L1195.71 1532.4 L1205.36 1532.4 L1205.36 1536.95 L1195.71 1536.95 L1195.71 1568.04 L1189.82 1568.04 L1189.82 1536.95 L1184.22 1536.95 L1184.22 1532.4 L1189.82 1532.4 L1189.82 1529.91 Q1189.82 1523.96 1192.59 1521.26 Q1195.36 1518.52 1201.38 1518.52 L1206.91 1518.52 Z" fill="#000000" fill-rule="evenodd" fill-opacity="1" /><path clip-path="url(#clip710)" d="M1232.47 1537.87 Q1231.49 1537.3 1230.31 1537.04 Q1229.16 1536.76 1227.76 1536.76 Q1222.8 1536.76 1220.12 1540 Q1217.48 1543.22 1217.48 1549.27 L1217.48 1568.04 L1211.59 1568.04 L1211.59 1532.4 L1217.48 1532.4 L1217.48 1537.93 Q1219.33 1534.69 1222.29 1533.13 Q1225.25 1531.54 1229.48 1531.54 Q1230.09 1531.54 1230.82 1531.63 Q1231.55 1531.7 1232.44 1531.85 L1232.47 1537.87 Z" fill="#000000" fill-rule="evenodd" fill-opacity="1" /><path clip-path="url(#clip710)" d="M1251 1536.5 Q1246.29 1536.5 1243.55 1540.19 Q1240.81 1543.85 1240.81 1550.25 Q1240.81 1556.65 1243.52 1560.34 Q1246.25 1564 1251 1564 Q1255.68 1564 1258.41 1560.31 Q1261.15 1556.62 1261.15 1550.25 Q1261.15 1543.92 1258.41 1540.23 Q1255.68 1536.5 1251 1536.5 M1251 1531.54 Q1258.64 1531.54 1263 1536.5 Q1267.36 1541.47 1267.36 1550.25 Q1267.36 1559 1263 1564 Q1258.64 1568.97 1251 1568.97 Q1243.33 1568.97 1238.97 1564 Q1234.64 1559 1234.64 1550.25 Q1234.64 1541.47 1238.97 1536.5 Q1243.33 1531.54 1251 1531.54 Z" fill="#000000" fill-rule="evenodd" fill-opacity="1" /><path clip-path="url(#clip710)" d="M1304.82 1539.24 Q1307.02 1535.29 1310.07 1533.41 Q1313.13 1531.54 1317.26 1531.54 Q1322.83 1531.54 1325.86 1535.45 Q1328.88 1539.33 1328.88 1546.53 L1328.88 1568.04 L1322.99 1568.04 L1322.99 1546.72 Q1322.99 1541.59 1321.18 1539.11 Q1319.37 1536.63 1315.64 1536.63 Q1311.09 1536.63 1308.45 1539.65 Q1305.81 1542.68 1305.81 1547.9 L1305.81 1568.04 L1299.92 1568.04 L1299.92 1546.72 Q1299.92 1541.56 1298.1 1539.11 Q1296.29 1536.63 1292.5 1536.63 Q1288.01 1536.63 1285.37 1539.68 Q1282.73 1542.71 1282.73 1547.9 L1282.73 1568.04 L1276.84 1568.04 L1276.84 1532.4 L1282.73 1532.4 L1282.73 1537.93 Q1284.74 1534.66 1287.54 1533.1 Q1290.34 1531.54 1294.19 1531.54 Q1298.07 1531.54 1300.78 1533.51 Q1303.51 1535.48 1304.82 1539.24 Z" fill="#000000" fill-rule="evenodd" fill-opacity="1" /><path clip-path="url(#clip710)" d="M1390.92 1546.53 L1390.92 1568.04 L1385.06 1568.04 L1385.06 1546.72 Q1385.06 1541.66 1383.09 1539.14 Q1381.11 1536.63 1377.17 1536.63 Q1372.42 1536.63 1369.69 1539.65 Q1366.95 1542.68 1366.95 1547.9 L1366.95 1568.04 L1361.06 1568.04 L1361.06 1518.52 L1366.95 1518.52 L1366.95 1537.93 Q1369.05 1534.72 1371.88 1533.13 Q1374.75 1531.54 1378.47 1531.54 Q1384.61 1531.54 1387.76 1535.36 Q1390.92 1539.14 1390.92 1546.53 Z" fill="#000000" fill-rule="evenodd" fill-opacity="1" /><path clip-path="url(#clip710)" d="M1416.41 1536.5 Q1411.7 1536.5 1408.96 1540.19 Q1406.23 1543.85 1406.23 1550.25 Q1406.23 1556.65 1408.93 1560.34 Q1411.67 1564 1416.41 1564 Q1421.09 1564 1423.83 1560.31 Q1426.56 1556.62 1426.56 1550.25 Q1426.56 1543.92 1423.83 1540.23 Q1421.09 1536.5 1416.41 1536.5 M1416.41 1531.54 Q1424.05 1531.54 1428.41 1536.5 Q1432.77 1541.47 1432.77 1550.25 Q1432.77 1559 1428.41 1564 Q1424.05 1568.97 1416.41 1568.97 Q1408.74 1568.97 1404.38 1564 Q1400.05 1559 1400.05 1550.25 Q1400.05 1541.47 1404.38 1536.5 Q1408.74 1531.54 1416.41 1531.54 Z" fill="#000000" fill-rule="evenodd" fill-opacity="1" /><path clip-path="url(#clip710)" d="M1442.48 1518.52 L1448.33 1518.52 L1448.33 1568.04 L1442.48 1568.04 L1442.48 1518.52 Z" fill="#000000" fill-rule="evenodd" fill-opacity="1" /><path clip-path="url(#clip710)" d="M1491.08 1548.76 L1491.08 1551.62 L1464.15 1551.62 Q1464.53 1557.67 1467.78 1560.85 Q1471.06 1564 1476.88 1564 Q1480.26 1564 1483.41 1563.17 Q1486.59 1562.35 1489.71 1560.69 L1489.71 1566.23 Q1486.56 1567.57 1483.25 1568.27 Q1479.94 1568.97 1476.53 1568.97 Q1468 1568.97 1463.01 1564 Q1458.04 1559.04 1458.04 1550.57 Q1458.04 1541.82 1462.75 1536.69 Q1467.5 1531.54 1475.52 1531.54 Q1482.71 1531.54 1486.88 1536.18 Q1491.08 1540.8 1491.08 1548.76 M1485.22 1547.04 Q1485.16 1542.23 1482.52 1539.37 Q1479.91 1536.5 1475.58 1536.5 Q1470.68 1536.5 1467.72 1539.27 Q1464.79 1542.04 1464.34 1547.07 L1485.22 1547.04 Z" fill="#000000" fill-rule="evenodd" fill-opacity="1" /><path clip-path="url(#clip710)" d="M1535.48 1518.58 Q1531.22 1525.9 1529.15 1533.06 Q1527.08 1540.23 1527.08 1547.58 Q1527.08 1554.93 1529.15 1562.16 Q1531.25 1569.35 1535.48 1576.64 L1530.39 1576.64 Q1525.61 1569.16 1523.23 1561.93 Q1520.87 1554.71 1520.87 1547.58 Q1520.87 1540.48 1523.23 1533.29 Q1525.58 1526.09 1530.39 1518.58 L1535.48 1518.58 Z" fill="#000000" fill-rule="evenodd" fill-opacity="1" /><path clip-path="url(#clip710)" d="M1564.89 1518.52 L1564.89 1523.39 L1559.29 1523.39 Q1556.14 1523.39 1554.9 1524.66 Q1553.69 1525.93 1553.69 1529.24 L1553.69 1532.4 L1563.33 1532.4 L1563.33 1536.95 L1553.69 1536.95 L1553.69 1568.04 L1547.8 1568.04 L1547.8 1536.95 L1542.2 1536.95 L1542.2 1532.4 L1547.8 1532.4 L1547.8 1529.91 Q1547.8 1523.96 1550.57 1521.26 Q1553.34 1518.52 1559.35 1518.52 L1564.89 1518.52 Z" fill="#000000" fill-rule="evenodd" fill-opacity="1" /><path clip-path="url(#clip710)" d="M1600.28 1548.76 L1600.28 1551.62 L1573.36 1551.62 Q1573.74 1557.67 1576.99 1560.85 Q1580.26 1564 1586.09 1564 Q1589.46 1564 1592.61 1563.17 Q1595.8 1562.35 1598.92 1560.69 L1598.92 1566.23 Q1595.76 1567.57 1592.45 1568.27 Q1589.14 1568.97 1585.74 1568.97 Q1577.21 1568.97 1572.21 1564 Q1567.25 1559.04 1567.25 1550.57 Q1567.25 1541.82 1571.96 1536.69 Q1576.7 1531.54 1584.72 1531.54 Q1591.91 1531.54 1596.08 1536.18 Q1600.28 1540.8 1600.28 1548.76 M1594.43 1547.04 Q1594.36 1542.23 1591.72 1539.37 Q1589.11 1536.5 1584.78 1536.5 Q1579.88 1536.5 1576.92 1539.27 Q1573.99 1542.04 1573.55 1547.07 L1594.43 1547.04 Z" fill="#000000" fill-rule="evenodd" fill-opacity="1" /><path clip-path="url(#clip710)" d="M1640.39 1548.76 L1640.39 1551.62 L1613.46 1551.62 Q1613.84 1557.67 1617.09 1560.85 Q1620.37 1564 1626.19 1564 Q1629.57 1564 1632.72 1563.17 Q1635.9 1562.35 1639.02 1560.69 L1639.02 1566.23 Q1635.87 1567.57 1632.56 1568.27 Q1629.25 1568.97 1625.84 1568.97 Q1617.31 1568.97 1612.31 1564 Q1607.35 1559.04 1607.35 1550.57 Q1607.35 1541.82 1612.06 1536.69 Q1616.8 1531.54 1624.82 1531.54 Q1632.02 1531.54 1636.19 1536.18 Q1640.39 1540.8 1640.39 1548.76 M1634.53 1547.04 Q1634.47 1542.23 1631.83 1539.37 Q1629.22 1536.5 1624.89 1536.5 Q1619.99 1536.5 1617.03 1539.27 Q1614.1 1542.04 1613.65 1547.07 L1634.53 1547.04 Z" fill="#000000" fill-rule="evenodd" fill-opacity="1" /><path clip-path="url(#clip710)" d="M1655.79 1522.27 L1655.79 1532.4 L1667.86 1532.4 L1667.86 1536.95 L1655.79 1536.95 L1655.79 1556.3 Q1655.79 1560.66 1656.97 1561.9 Q1658.18 1563.14 1661.84 1563.14 L1667.86 1563.14 L1667.86 1568.04 L1661.84 1568.04 Q1655.06 1568.04 1652.48 1565.53 Q1649.9 1562.98 1649.9 1556.3 L1649.9 1536.95 L1645.61 1536.95 L1645.61 1532.4 L1649.9 1532.4 L1649.9 1522.27 L1655.79 1522.27 Z" fill="#000000" fill-rule="evenodd" fill-opacity="1" /><path clip-path="url(#clip710)" d="M1674.64 1518.58 L1679.73 1518.58 Q1684.5 1526.09 1686.86 1533.29 Q1689.24 1540.48 1689.24 1547.58 Q1689.24 1554.71 1686.86 1561.93 Q1684.5 1569.16 1679.73 1576.64 L1674.64 1576.64 Q1678.87 1569.35 1680.94 1562.16 Q1683.04 1554.93 1683.04 1547.58 Q1683.04 1540.23 1680.94 1533.06 Q1678.87 1525.9 1674.64 1518.58 Z" fill="#000000" fill-rule="evenodd" fill-opacity="1" /><polyline clip-path="url(#clip712)" style="stroke:#000000; stroke-linecap:butt; stroke-linejoin:round; stroke-width:2; stroke-opacity:0.1; fill:none" points="
  219.866,1250.42 2352.76,1250.42 
  "/>
<polyline clip-path="url(#clip712)" style="stroke:#000000; stroke-linecap:butt; stroke-linejoin:round; stroke-width:2; stroke-opacity:0.1; fill:none" points="
  219.866,955.529 2352.76,955.529 
  "/>
<polyline clip-path="url(#clip712)" style="stroke:#000000; stroke-linecap:butt; stroke-linejoin:round; stroke-width:2; stroke-opacity:0.1; fill:none" points="
  219.866,660.64 2352.76,660.64 
  "/>
<polyline clip-path="url(#clip712)" style="stroke:#000000; stroke-linecap:butt; stroke-linejoin:round; stroke-width:2; stroke-opacity:0.1; fill:none" points="
  219.866,365.751 2352.76,365.751 
  "/>
<polyline clip-path="url(#clip710)" style="stroke:#000000; stroke-linecap:butt; stroke-linejoin:round; stroke-width:4; stroke-opacity:1; fill:none" points="
  219.866,1423.18 219.866,123.472 
  "/>
<polyline clip-path="url(#clip710)" style="stroke:#000000; stroke-linecap:butt; stroke-linejoin:round; stroke-width:4; stroke-opacity:1; fill:none" points="
  219.866,1250.42 238.764,1250.42 
  "/>
<polyline clip-path="url(#clip710)" style="stroke:#000000; stroke-linecap:butt; stroke-linejoin:round; stroke-width:4; stroke-opacity:1; fill:none" points="
  219.866,955.529 238.764,955.529 
  "/>
<polyline clip-path="url(#clip710)" style="stroke:#000000; stroke-linecap:butt; stroke-linejoin:round; stroke-width:4; stroke-opacity:1; fill:none" points="
  219.866,660.64 238.764,660.64 
  "/>
<polyline clip-path="url(#clip710)" style="stroke:#000000; stroke-linecap:butt; stroke-linejoin:round; stroke-width:4; stroke-opacity:1; fill:none" points="
  219.866,365.751 238.764,365.751 
  "/>
<path clip-path="url(#clip710)" d="M128.288 1236.22 Q124.677 1236.22 122.848 1239.78 Q121.043 1243.32 121.043 1250.45 Q121.043 1257.56 122.848 1261.12 Q124.677 1264.67 128.288 1264.67 Q131.922 1264.67 133.728 1261.12 Q135.556 1257.56 135.556 1250.45 Q135.556 1243.32 133.728 1239.78 Q131.922 1236.22 128.288 1236.22 M128.288 1232.51 Q134.098 1232.51 137.154 1237.12 Q140.232 1241.7 140.232 1250.45 Q140.232 1259.18 137.154 1263.79 Q134.098 1268.37 128.288 1268.37 Q122.478 1268.37 119.399 1263.79 Q116.343 1259.18 116.343 1250.45 Q116.343 1241.7 119.399 1237.12 Q122.478 1232.51 128.288 1232.51 Z" fill="#000000" fill-rule="evenodd" fill-opacity="1" /><path clip-path="url(#clip710)" d="M148.45 1261.82 L153.334 1261.82 L153.334 1267.7 L148.45 1267.7 L148.45 1261.82 Z" fill="#000000" fill-rule="evenodd" fill-opacity="1" /><path clip-path="url(#clip710)" d="M167.547 1263.76 L183.866 1263.76 L183.866 1267.7 L161.922 1267.7 L161.922 1263.76 Q164.584 1261.01 169.167 1256.38 Q173.774 1251.73 174.954 1250.38 Q177.2 1247.86 178.079 1246.12 Q178.982 1244.36 178.982 1242.67 Q178.982 1239.92 177.038 1238.18 Q175.116 1236.45 172.014 1236.45 Q169.815 1236.45 167.362 1237.21 Q164.931 1237.98 162.153 1239.53 L162.153 1234.8 Q164.977 1233.67 167.431 1233.09 Q169.885 1232.51 171.922 1232.51 Q177.292 1232.51 180.487 1235.2 Q183.681 1237.88 183.681 1242.37 Q183.681 1244.5 182.871 1246.42 Q182.084 1248.32 179.977 1250.92 Q179.399 1251.59 176.297 1254.8 Q173.195 1258 167.547 1263.76 Z" fill="#000000" fill-rule="evenodd" fill-opacity="1" /><path clip-path="url(#clip710)" d="M126.205 941.328 Q122.593 941.328 120.765 944.892 Q118.959 948.434 118.959 955.564 Q118.959 962.67 120.765 966.235 Q122.593 969.776 126.205 969.776 Q129.839 969.776 131.644 966.235 Q133.473 962.67 133.473 955.564 Q133.473 948.434 131.644 944.892 Q129.839 941.328 126.205 941.328 M126.205 937.624 Q132.015 937.624 135.07 942.23 Q138.149 946.814 138.149 955.564 Q138.149 964.29 135.07 968.897 Q132.015 973.48 126.205 973.48 Q120.394 973.48 117.316 968.897 Q114.26 964.29 114.26 955.564 Q114.26 946.814 117.316 942.23 Q120.394 937.624 126.205 937.624 Z" fill="#000000" fill-rule="evenodd" fill-opacity="1" /><path clip-path="url(#clip710)" d="M146.366 966.929 L151.251 966.929 L151.251 972.809 L146.366 972.809 L146.366 966.929 Z" fill="#000000" fill-rule="evenodd" fill-opacity="1" /><path clip-path="url(#clip710)" d="M174.283 942.323 L162.477 960.772 L174.283 960.772 L174.283 942.323 M173.056 938.249 L178.936 938.249 L178.936 960.772 L183.866 960.772 L183.866 964.661 L178.936 964.661 L178.936 972.809 L174.283 972.809 L174.283 964.661 L158.681 964.661 L158.681 960.147 L173.056 938.249 Z" fill="#000000" fill-rule="evenodd" fill-opacity="1" /><path clip-path="url(#clip710)" d="M126.529 646.439 Q122.918 646.439 121.089 650.003 Q119.283 653.545 119.283 660.675 Q119.283 667.781 121.089 671.346 Q122.918 674.887 126.529 674.887 Q130.163 674.887 131.968 671.346 Q133.797 667.781 133.797 660.675 Q133.797 653.545 131.968 650.003 Q130.163 646.439 126.529 646.439 M126.529 642.735 Q132.339 642.735 135.394 647.341 Q138.473 651.925 138.473 660.675 Q138.473 669.401 135.394 674.008 Q132.339 678.591 126.529 678.591 Q120.718 678.591 117.64 674.008 Q114.584 669.401 114.584 660.675 Q114.584 651.925 117.64 647.341 Q120.718 642.735 126.529 642.735 Z" fill="#000000" fill-rule="evenodd" fill-opacity="1" /><path clip-path="url(#clip710)" d="M146.691 672.04 L151.575 672.04 L151.575 677.92 L146.691 677.92 L146.691 672.04 Z" fill="#000000" fill-rule="evenodd" fill-opacity="1" /><path clip-path="url(#clip710)" d="M172.339 658.776 Q169.19 658.776 167.339 660.929 Q165.51 663.082 165.51 666.832 Q165.51 670.559 167.339 672.735 Q169.19 674.887 172.339 674.887 Q175.487 674.887 177.315 672.735 Q179.167 670.559 179.167 666.832 Q179.167 663.082 177.315 660.929 Q175.487 658.776 172.339 658.776 M181.621 644.124 L181.621 648.383 Q179.862 647.55 178.056 647.11 Q176.274 646.67 174.514 646.67 Q169.885 646.67 167.431 649.795 Q165.001 652.92 164.653 659.239 Q166.019 657.226 168.079 656.161 Q170.139 655.073 172.616 655.073 Q177.825 655.073 180.834 658.244 Q183.866 661.392 183.866 666.832 Q183.866 672.156 180.718 675.374 Q177.57 678.591 172.339 678.591 Q166.343 678.591 163.172 674.008 Q160.001 669.401 160.001 660.675 Q160.001 652.48 163.89 647.619 Q167.778 642.735 174.329 642.735 Q176.089 642.735 177.871 643.082 Q179.676 643.429 181.621 644.124 Z" fill="#000000" fill-rule="evenodd" fill-opacity="1" /><path clip-path="url(#clip710)" d="M126.783 351.55 Q123.172 351.55 121.343 355.114 Q119.538 358.656 119.538 365.786 Q119.538 372.892 121.343 376.457 Q123.172 379.998 126.783 379.998 Q130.417 379.998 132.223 376.457 Q134.052 372.892 134.052 365.786 Q134.052 358.656 132.223 355.114 Q130.417 351.55 126.783 351.55 M126.783 347.846 Q132.593 347.846 135.649 352.452 Q138.728 357.036 138.728 365.786 Q138.728 374.512 135.649 379.119 Q132.593 383.702 126.783 383.702 Q120.973 383.702 117.894 379.119 Q114.839 374.512 114.839 365.786 Q114.839 357.036 117.894 352.452 Q120.973 347.846 126.783 347.846 Z" fill="#000000" fill-rule="evenodd" fill-opacity="1" /><path clip-path="url(#clip710)" d="M146.945 377.151 L151.829 377.151 L151.829 383.031 L146.945 383.031 L146.945 377.151 Z" fill="#000000" fill-rule="evenodd" fill-opacity="1" /><path clip-path="url(#clip710)" d="M172.014 366.619 Q168.681 366.619 166.76 368.401 Q164.862 370.184 164.862 373.309 Q164.862 376.434 166.76 378.216 Q168.681 379.998 172.014 379.998 Q175.348 379.998 177.269 378.216 Q179.19 376.411 179.19 373.309 Q179.19 370.184 177.269 368.401 Q175.371 366.619 172.014 366.619 M167.339 364.628 Q164.329 363.887 162.64 361.827 Q160.973 359.767 160.973 356.804 Q160.973 352.661 163.913 350.253 Q166.876 347.846 172.014 347.846 Q177.176 347.846 180.116 350.253 Q183.056 352.661 183.056 356.804 Q183.056 359.767 181.366 361.827 Q179.7 363.887 176.714 364.628 Q180.093 365.415 181.968 367.707 Q183.866 369.999 183.866 373.309 Q183.866 378.332 180.788 381.017 Q177.732 383.702 172.014 383.702 Q166.297 383.702 163.218 381.017 Q160.163 378.332 160.163 373.309 Q160.163 369.999 162.061 367.707 Q163.959 365.415 167.339 364.628 M165.626 357.244 Q165.626 359.929 167.292 361.434 Q168.982 362.938 172.014 362.938 Q175.024 362.938 176.714 361.434 Q178.426 359.929 178.426 357.244 Q178.426 354.559 176.714 353.054 Q175.024 351.55 172.014 351.55 Q168.982 351.55 167.292 353.054 Q165.626 354.559 165.626 357.244 Z" fill="#000000" fill-rule="evenodd" fill-opacity="1" /><path clip-path="url(#clip710)" d="M21.7677 1114.02 L39.6235 1114.02 L39.6235 1105.93 Q39.6235 1101.45 37.3 1099 Q34.9765 1096.54 30.6797 1096.54 Q26.4147 1096.54 24.0912 1099 Q21.7677 1101.45 21.7677 1105.93 L21.7677 1114.02 M16.4842 1120.45 L16.4842 1105.93 Q16.4842 1097.95 20.1126 1093.87 Q23.7092 1089.77 30.6797 1089.77 Q37.7138 1089.77 41.3104 1093.87 Q44.907 1097.95 44.907 1105.93 L44.907 1114.02 L64.0042 1114.02 L64.0042 1120.45 L16.4842 1120.45 Z" fill="#000000" fill-rule="evenodd" fill-opacity="1" /><path clip-path="url(#clip710)" d="M33.8307 1061.88 Q33.2578 1062.87 33.0032 1064.05 Q32.7167 1065.19 32.7167 1066.59 Q32.7167 1071.56 35.9632 1074.23 Q39.1779 1076.87 45.2253 1076.87 L64.0042 1076.87 L64.0042 1082.76 L28.3562 1082.76 L28.3562 1076.87 L33.8944 1076.87 Q30.6479 1075.03 29.0883 1072.07 Q27.4968 1069.11 27.4968 1064.88 Q27.4968 1064.27 27.5923 1063.54 Q27.656 1062.81 27.8151 1061.92 L33.8307 1061.88 Z" fill="#000000" fill-rule="evenodd" fill-opacity="1" /><path clip-path="url(#clip710)" d="M32.4621 1043.36 Q32.4621 1048.07 36.1542 1050.81 Q39.8145 1053.54 46.212 1053.54 Q52.6095 1053.54 56.3017 1050.84 Q59.9619 1048.1 59.9619 1043.36 Q59.9619 1038.68 56.2698 1035.94 Q52.5777 1033.21 46.212 1033.21 Q39.8781 1033.21 36.186 1035.94 Q32.4621 1038.68 32.4621 1043.36 M27.4968 1043.36 Q27.4968 1035.72 32.4621 1031.36 Q37.4273 1027 46.212 1027 Q54.9649 1027 59.9619 1031.36 Q64.9272 1035.72 64.9272 1043.36 Q64.9272 1051.03 59.9619 1055.39 Q54.9649 1059.72 46.212 1059.72 Q37.4273 1059.72 32.4621 1055.39 Q27.4968 1051.03 27.4968 1043.36 Z" fill="#000000" fill-rule="evenodd" fill-opacity="1" /><path clip-path="url(#clip710)" d="M46.212 991.702 Q39.7508 991.702 36.0905 994.375 Q32.3984 997.017 32.3984 1001.66 Q32.3984 1006.31 36.0905 1008.98 Q39.7508 1011.63 46.212 1011.63 Q52.6732 1011.63 56.3653 1008.98 Q60.0256 1006.31 60.0256 1001.66 Q60.0256 997.017 56.3653 994.375 Q52.6732 991.702 46.212 991.702 M33.7671 1011.63 Q30.5842 1009.78 29.0564 1006.98 Q27.4968 1004.15 27.4968 1000.23 Q27.4968 993.739 32.6531 989.696 Q37.8093 985.622 46.212 985.622 Q54.6147 985.622 59.771 989.696 Q64.9272 993.739 64.9272 1000.23 Q64.9272 1004.15 63.3994 1006.98 Q61.8398 1009.78 58.657 1011.63 L64.0042 1011.63 L64.0042 1017.51 L14.479 1017.51 L14.479 1011.63 L33.7671 1011.63 Z" fill="#000000" fill-rule="evenodd" fill-opacity="1" /><path clip-path="url(#clip710)" d="M46.0847 959.714 Q46.0847 966.812 47.7079 969.549 Q49.3312 972.286 53.2461 972.286 Q56.3653 972.286 58.2114 970.249 Q60.0256 968.18 60.0256 964.647 Q60.0256 959.778 56.5881 956.849 Q53.1188 953.889 47.3897 953.889 L46.0847 953.889 L46.0847 959.714 M43.6657 948.033 L64.0042 948.033 L64.0042 953.889 L58.5933 953.889 Q61.8398 955.894 63.3994 958.886 Q64.9272 961.878 64.9272 966.207 Q64.9272 971.681 61.8716 974.928 Q58.7843 978.143 53.6281 978.143 Q47.6125 978.143 44.5569 974.132 Q41.5014 970.09 41.5014 962.101 L41.5014 953.889 L40.9285 953.889 Q36.8862 953.889 34.6901 956.563 Q32.4621 959.205 32.4621 964.011 Q32.4621 967.066 33.1941 969.963 Q33.9262 972.859 35.3903 975.533 L29.9795 975.533 Q28.7381 972.318 28.1334 969.294 Q27.4968 966.271 27.4968 963.406 Q27.4968 955.672 31.5072 951.852 Q35.5176 948.033 43.6657 948.033 Z" fill="#000000" fill-rule="evenodd" fill-opacity="1" /><path clip-path="url(#clip710)" d="M46.212 910.38 Q39.7508 910.38 36.0905 913.053 Q32.3984 915.695 32.3984 920.342 Q32.3984 924.989 36.0905 927.663 Q39.7508 930.304 46.212 930.304 Q52.6732 930.304 56.3653 927.663 Q60.0256 924.989 60.0256 920.342 Q60.0256 915.695 56.3653 913.053 Q52.6732 910.38 46.212 910.38 M33.7671 930.304 Q30.5842 928.458 29.0564 925.657 Q27.4968 922.825 27.4968 918.91 Q27.4968 912.417 32.6531 908.374 Q37.8093 904.3 46.212 904.3 Q54.6147 904.3 59.771 908.374 Q64.9272 912.417 64.9272 918.91 Q64.9272 922.825 63.3994 925.657 Q61.8398 928.458 58.657 930.304 L64.0042 930.304 L64.0042 936.193 L14.479 936.193 L14.479 930.304 L33.7671 930.304 Z" fill="#000000" fill-rule="evenodd" fill-opacity="1" /><path clip-path="url(#clip710)" d="M28.3562 894.593 L28.3562 888.736 L64.0042 888.736 L64.0042 894.593 L28.3562 894.593 M14.479 894.593 L14.479 888.736 L21.895 888.736 L21.895 894.593 L14.479 894.593 Z" fill="#000000" fill-rule="evenodd" fill-opacity="1" /><path clip-path="url(#clip710)" d="M14.479 876.482 L14.479 870.626 L64.0042 870.626 L64.0042 876.482 L14.479 876.482 Z" fill="#000000" fill-rule="evenodd" fill-opacity="1" /><path clip-path="url(#clip710)" d="M28.3562 858.372 L28.3562 852.515 L64.0042 852.515 L64.0042 858.372 L28.3562 858.372 M14.479 858.372 L14.479 852.515 L21.895 852.515 L21.895 858.372 L14.479 858.372 Z" fill="#000000" fill-rule="evenodd" fill-opacity="1" /><path clip-path="url(#clip710)" d="M18.2347 834.469 L28.3562 834.469 L28.3562 822.406 L32.9077 822.406 L32.9077 834.469 L52.2594 834.469 Q56.6199 834.469 57.8613 833.291 Q59.1026 832.081 59.1026 828.421 L59.1026 822.406 L64.0042 822.406 L64.0042 828.421 Q64.0042 835.201 61.4897 837.779 Q58.9434 840.357 52.2594 840.357 L32.9077 840.357 L32.9077 844.654 L28.3562 844.654 L28.3562 840.357 L18.2347 840.357 L18.2347 834.469 Z" fill="#000000" fill-rule="evenodd" fill-opacity="1" /><path clip-path="url(#clip710)" d="M67.3143 799.871 Q73.68 802.354 75.6216 804.709 Q77.5631 807.064 77.5631 811.011 L77.5631 815.69 L72.6615 815.69 L72.6615 812.252 Q72.6615 809.833 71.5157 808.497 Q70.3699 807.16 66.1048 805.536 L63.4312 804.486 L28.3562 818.904 L28.3562 812.698 L56.238 801.558 L28.3562 790.418 L28.3562 784.211 L67.3143 799.871 Z" fill="#000000" fill-rule="evenodd" fill-opacity="1" /><path clip-path="url(#clip710)" d="M32.4621 741.593 Q32.4621 746.304 36.1542 749.041 Q39.8145 751.778 46.212 751.778 Q52.6095 751.778 56.3017 749.073 Q59.9619 746.335 59.9619 741.593 Q59.9619 736.914 56.2698 734.177 Q52.5777 731.44 46.212 731.44 Q39.8781 731.44 36.186 734.177 Q32.4621 736.914 32.4621 741.593 M27.4968 741.593 Q27.4968 733.954 32.4621 729.594 Q37.4273 725.233 46.212 725.233 Q54.9649 725.233 59.9619 729.594 Q64.9272 733.954 64.9272 741.593 Q64.9272 749.264 59.9619 753.624 Q54.9649 757.953 46.212 757.953 Q37.4273 757.953 32.4621 753.624 Q27.4968 749.264 27.4968 741.593 Z" fill="#000000" fill-rule="evenodd" fill-opacity="1" /><path clip-path="url(#clip710)" d="M14.479 697.479 L19.3487 697.479 L19.3487 703.08 Q19.3487 706.231 20.6219 707.473 Q21.895 708.682 25.2052 708.682 L28.3562 708.682 L28.3562 699.038 L32.9077 699.038 L32.9077 708.682 L64.0042 708.682 L64.0042 714.571 L32.9077 714.571 L32.9077 720.172 L28.3562 720.172 L28.3562 714.571 L25.8736 714.571 Q19.9216 714.571 17.2162 711.801 Q14.479 709.032 14.479 703.017 L14.479 697.479 Z" fill="#000000" fill-rule="evenodd" fill-opacity="1" /><path clip-path="url(#clip710)" d="M29.4065 649.131 L34.9447 649.131 Q33.6716 651.614 33.035 654.287 Q32.3984 656.961 32.3984 659.825 Q32.3984 664.186 33.7352 666.382 Q35.072 668.546 37.7456 668.546 Q39.7826 668.546 40.9603 666.987 Q42.1061 665.427 43.1565 660.717 L43.6021 658.711 Q44.9389 652.473 47.3897 649.863 Q49.8086 647.221 54.1691 647.221 Q59.1344 647.221 62.0308 651.168 Q64.9272 655.083 64.9272 661.958 Q64.9272 664.823 64.3543 667.942 Q63.8132 671.029 62.6992 674.467 L56.6518 674.467 Q58.3387 671.22 59.198 668.069 Q60.0256 664.918 60.0256 661.831 Q60.0256 657.693 58.6251 655.465 Q57.1929 653.237 54.6147 653.237 Q52.2276 653.237 50.9545 654.86 Q49.6813 656.452 48.5037 661.894 L48.0262 663.931 Q46.8804 669.374 44.5251 671.793 Q42.138 674.212 38.0002 674.212 Q32.9713 674.212 30.2341 670.647 Q27.4968 667.082 27.4968 660.526 Q27.4968 657.279 27.9743 654.415 Q28.4517 651.55 29.4065 649.131 Z" fill="#000000" fill-rule="evenodd" fill-opacity="1" /><path clip-path="url(#clip710)" d="M49.9359 638.5 L28.3562 638.5 L28.3562 632.644 L49.7131 632.644 Q54.7739 632.644 57.3202 630.67 Q59.8346 628.697 59.8346 624.75 Q59.8346 620.008 56.8109 617.271 Q53.7872 614.502 48.5673 614.502 L28.3562 614.502 L28.3562 608.645 L64.0042 608.645 L64.0042 614.502 L58.5296 614.502 Q61.7762 616.634 63.3676 619.467 Q64.9272 622.268 64.9272 625.992 Q64.9272 632.135 61.1078 635.317 Q57.2883 638.5 49.9359 638.5 M27.4968 623.764 L27.4968 623.764 Z" fill="#000000" fill-rule="evenodd" fill-opacity="1" /><path clip-path="url(#clip710)" d="M29.7248 570.928 L35.1993 570.928 Q33.8307 573.411 33.1623 575.925 Q32.4621 578.408 32.4621 580.954 Q32.4621 586.652 36.0905 589.803 Q39.6872 592.954 46.212 592.954 Q52.7369 592.954 56.3653 589.803 Q59.9619 586.652 59.9619 580.954 Q59.9619 578.408 59.2935 575.925 Q58.5933 573.411 57.2247 570.928 L62.6355 570.928 Q63.7814 573.379 64.3543 576.021 Q64.9272 578.631 64.9272 581.591 Q64.9272 589.644 59.8664 594.386 Q54.8057 599.128 46.212 599.128 Q37.491 599.128 32.4939 594.354 Q27.4968 589.548 27.4968 581.209 Q27.4968 578.504 28.0697 575.925 Q28.6108 573.347 29.7248 570.928 Z" fill="#000000" fill-rule="evenodd" fill-opacity="1" /><path clip-path="url(#clip710)" d="M29.7248 535.089 L35.1993 535.089 Q33.8307 537.572 33.1623 540.086 Q32.4621 542.569 32.4621 545.115 Q32.4621 550.813 36.0905 553.964 Q39.6872 557.115 46.212 557.115 Q52.7369 557.115 56.3653 553.964 Q59.9619 550.813 59.9619 545.115 Q59.9619 542.569 59.2935 540.086 Q58.5933 537.572 57.2247 535.089 L62.6355 535.089 Q63.7814 537.54 64.3543 540.182 Q64.9272 542.792 64.9272 545.752 Q64.9272 553.805 59.8664 558.547 Q54.8057 563.289 46.212 563.289 Q37.491 563.289 32.4939 558.515 Q27.4968 553.709 27.4968 545.37 Q27.4968 542.665 28.0697 540.086 Q28.6108 537.508 29.7248 535.089 Z" fill="#000000" fill-rule="evenodd" fill-opacity="1" /><path clip-path="url(#clip710)" d="M44.7161 494.413 L47.5806 494.413 L47.5806 521.339 Q53.6281 520.958 56.8109 517.711 Q59.9619 514.433 59.9619 508.608 Q59.9619 505.234 59.1344 502.083 Q58.3069 498.9 56.6518 495.781 L62.1899 495.781 Q63.5267 498.932 64.227 502.242 Q64.9272 505.553 64.9272 508.958 Q64.9272 517.488 59.9619 522.485 Q54.9967 527.451 46.5303 527.451 Q37.7774 527.451 32.6531 522.74 Q27.4968 517.997 27.4968 509.977 Q27.4968 502.783 32.1438 498.614 Q36.7589 494.413 44.7161 494.413 M42.9973 500.269 Q38.1912 500.333 35.3266 502.974 Q32.4621 505.584 32.4621 509.913 Q32.4621 514.815 35.2312 517.775 Q38.0002 520.703 43.0292 521.149 L42.9973 500.269 Z" fill="#000000" fill-rule="evenodd" fill-opacity="1" /><path clip-path="url(#clip710)" d="M29.4065 462.075 L34.9447 462.075 Q33.6716 464.557 33.035 467.231 Q32.3984 469.905 32.3984 472.769 Q32.3984 477.13 33.7352 479.326 Q35.072 481.49 37.7456 481.49 Q39.7826 481.49 40.9603 479.931 Q42.1061 478.371 43.1565 473.66 L43.6021 471.655 Q44.9389 465.417 47.3897 462.807 Q49.8086 460.165 54.1691 460.165 Q59.1344 460.165 62.0308 464.112 Q64.9272 468.027 64.9272 474.902 Q64.9272 477.766 64.3543 480.885 Q63.8132 483.973 62.6992 487.41 L56.6518 487.41 Q58.3387 484.164 59.198 481.013 Q60.0256 477.862 60.0256 474.774 Q60.0256 470.637 58.6251 468.409 Q57.1929 466.181 54.6147 466.181 Q52.2276 466.181 50.9545 467.804 Q49.6813 469.395 48.5037 474.838 L48.0262 476.875 Q46.8804 482.318 44.5251 484.737 Q42.138 487.156 38.0002 487.156 Q32.9713 487.156 30.2341 483.591 Q27.4968 480.026 27.4968 473.469 Q27.4968 470.223 27.9743 467.358 Q28.4517 464.494 29.4065 462.075 Z" fill="#000000" fill-rule="evenodd" fill-opacity="1" /><path clip-path="url(#clip710)" d="M29.4065 428.114 L34.9447 428.114 Q33.6716 430.596 33.035 433.27 Q32.3984 435.944 32.3984 438.808 Q32.3984 443.169 33.7352 445.365 Q35.072 447.529 37.7456 447.529 Q39.7826 447.529 40.9603 445.97 Q42.1061 444.41 43.1565 439.699 L43.6021 437.694 Q44.9389 431.456 47.3897 428.846 Q49.8086 426.204 54.1691 426.204 Q59.1344 426.204 62.0308 430.151 Q64.9272 434.066 64.9272 440.941 Q64.9272 443.805 64.3543 446.924 Q63.8132 450.012 62.6992 453.449 L56.6518 453.449 Q58.3387 450.203 59.198 447.052 Q60.0256 443.901 60.0256 440.813 Q60.0256 436.676 58.6251 434.448 Q57.1929 432.22 54.6147 432.22 Q52.2276 432.22 50.9545 433.843 Q49.6813 435.434 48.5037 440.877 L48.0262 442.914 Q46.8804 448.357 44.5251 450.776 Q42.138 453.195 38.0002 453.195 Q32.9713 453.195 30.2341 449.63 Q27.4968 446.065 27.4968 439.508 Q27.4968 436.262 27.9743 433.397 Q28.4517 430.533 29.4065 428.114 Z" fill="#000000" fill-rule="evenodd" fill-opacity="1" /><path clip-path="url(#clip710)" d="M790.865 18.8205 L790.865 65.8515 L800.749 65.8515 Q813.267 65.8515 819.06 60.1802 Q824.893 54.509 824.893 42.2752 Q824.893 30.1225 819.06 24.4918 Q813.267 18.8205 800.749 18.8205 L790.865 18.8205 M782.682 12.096 L799.494 12.096 Q817.075 12.096 825.298 19.4281 Q833.521 26.7198 833.521 42.2752 Q833.521 57.9117 825.257 65.2439 Q816.994 72.576 799.494 72.576 L782.682 72.576 L782.682 12.096 Z" fill="#000000" fill-rule="evenodd" fill-opacity="1" /><path clip-path="url(#clip710)" d="M866.86 49.7694 Q857.827 49.7694 854.343 51.8354 Q850.859 53.9013 850.859 58.8839 Q850.859 62.8538 853.452 65.2034 Q856.085 67.5124 860.581 67.5124 Q866.779 67.5124 870.506 63.1374 Q874.273 58.7219 874.273 51.4303 L874.273 49.7694 L866.86 49.7694 M881.727 46.6907 L881.727 72.576 L874.273 72.576 L874.273 65.6895 Q871.721 69.8214 867.913 71.8063 Q864.106 73.7508 858.596 73.7508 Q851.629 73.7508 847.497 69.8619 Q843.405 65.9325 843.405 59.3701 Q843.405 51.7138 848.51 47.825 Q853.654 43.9361 863.822 43.9361 L874.273 43.9361 L874.273 43.2069 Q874.273 38.0623 870.871 35.2672 Q867.508 32.4315 861.391 32.4315 Q857.503 32.4315 853.816 33.3632 Q850.13 34.295 846.727 36.1584 L846.727 29.2718 Q850.819 27.692 854.667 26.9223 Q858.515 26.1121 862.161 26.1121 Q872.005 26.1121 876.866 31.2163 Q881.727 36.3204 881.727 46.6907 Z" fill="#000000" fill-rule="evenodd" fill-opacity="1" /><path clip-path="url(#clip710)" d="M904.453 14.324 L904.453 27.2059 L919.806 27.2059 L919.806 32.9987 L904.453 32.9987 L904.453 57.6282 Q904.453 63.1779 905.951 64.7578 Q907.491 66.3376 912.149 66.3376 L919.806 66.3376 L919.806 72.576 L912.149 72.576 Q903.521 72.576 900.24 69.3758 Q896.958 66.1351 896.958 57.6282 L896.958 32.9987 L891.49 32.9987 L891.49 27.2059 L896.958 27.2059 L896.958 14.324 L904.453 14.324 Z" fill="#000000" fill-rule="evenodd" fill-opacity="1" /><path clip-path="url(#clip710)" d="M950.228 49.7694 Q941.194 49.7694 937.711 51.8354 Q934.227 53.9013 934.227 58.8839 Q934.227 62.8538 936.819 65.2034 Q939.452 67.5124 943.949 67.5124 Q950.147 67.5124 953.874 63.1374 Q957.641 58.7219 957.641 51.4303 L957.641 49.7694 L950.228 49.7694 M965.095 46.6907 L965.095 72.576 L957.641 72.576 L957.641 65.6895 Q955.089 69.8214 951.281 71.8063 Q947.473 73.7508 941.964 73.7508 Q934.996 73.7508 930.864 69.8619 Q926.773 65.9325 926.773 59.3701 Q926.773 51.7138 931.877 47.825 Q937.022 43.9361 947.19 43.9361 L957.641 43.9361 L957.641 43.2069 Q957.641 38.0623 954.238 35.2672 Q950.876 32.4315 944.759 32.4315 Q940.87 32.4315 937.184 33.3632 Q933.498 34.295 930.095 36.1584 L930.095 29.2718 Q934.186 27.692 938.035 26.9223 Q941.883 26.1121 945.529 26.1121 Q955.372 26.1121 960.234 31.2163 Q965.095 36.3204 965.095 46.6907 Z" fill="#000000" fill-rule="evenodd" fill-opacity="1" /><path clip-path="url(#clip710)" d="M1024.4 32.4315 Q1018.4 32.4315 1014.92 37.1306 Q1011.44 41.7891 1011.44 49.9314 Q1011.44 58.0738 1014.88 62.7728 Q1018.36 67.4314 1024.4 67.4314 Q1030.35 67.4314 1033.84 62.7323 Q1037.32 58.0333 1037.32 49.9314 Q1037.32 41.8701 1033.84 37.1711 Q1030.35 32.4315 1024.4 32.4315 M1024.4 26.1121 Q1034.12 26.1121 1039.67 32.4315 Q1045.22 38.7509 1045.22 49.9314 Q1045.22 61.0714 1039.67 67.4314 Q1034.12 73.7508 1024.4 73.7508 Q1014.64 73.7508 1009.09 67.4314 Q1003.58 61.0714 1003.58 49.9314 Q1003.58 38.7509 1009.09 32.4315 Q1014.64 26.1121 1024.4 26.1121 Z" fill="#000000" fill-rule="evenodd" fill-opacity="1" /><path clip-path="url(#clip710)" d="M1095.29 45.1919 L1095.29 72.576 L1087.84 72.576 L1087.84 45.4349 Q1087.84 38.994 1085.33 35.7938 Q1082.81 32.5936 1077.79 32.5936 Q1071.75 32.5936 1068.27 36.4419 Q1064.79 40.2903 1064.79 46.9338 L1064.79 72.576 L1057.29 72.576 L1057.29 27.2059 L1064.79 27.2059 L1064.79 34.2544 Q1067.46 30.163 1071.07 28.1376 Q1074.71 26.1121 1079.45 26.1121 Q1087.27 26.1121 1091.28 30.9732 Q1095.29 35.7938 1095.29 45.1919 Z" fill="#000000" fill-rule="evenodd" fill-opacity="1" /><path clip-path="url(#clip710)" d="M1143.74 65.7705 L1143.74 89.8329 L1136.25 89.8329 L1136.25 27.2059 L1143.74 27.2059 L1143.74 34.0924 Q1146.09 30.0415 1149.65 28.0971 Q1153.26 26.1121 1158.24 26.1121 Q1166.51 26.1121 1171.65 32.6746 Q1176.84 39.2371 1176.84 49.9314 Q1176.84 60.6258 1171.65 67.1883 Q1166.51 73.7508 1158.24 73.7508 Q1153.26 73.7508 1149.65 71.8063 Q1146.09 69.8214 1143.74 65.7705 M1169.1 49.9314 Q1169.1 41.7081 1165.7 37.0496 Q1162.33 32.3505 1156.42 32.3505 Q1150.5 32.3505 1147.1 37.0496 Q1143.74 41.7081 1143.74 49.9314 Q1143.74 58.1548 1147.1 62.8538 Q1150.5 67.5124 1156.42 67.5124 Q1162.33 67.5124 1165.7 62.8538 Q1169.1 58.1548 1169.1 49.9314 Z" fill="#000000" fill-rule="evenodd" fill-opacity="1" /><path clip-path="url(#clip710)" d="M1188.42 54.671 L1188.42 27.2059 L1195.87 27.2059 L1195.87 54.3874 Q1195.87 60.8284 1198.39 64.0691 Q1200.9 67.2693 1205.92 67.2693 Q1211.96 67.2693 1215.44 63.421 Q1218.96 59.5726 1218.96 52.9291 L1218.96 27.2059 L1226.42 27.2059 L1226.42 72.576 L1218.96 72.576 L1218.96 65.6084 Q1216.25 69.7404 1212.65 71.7658 Q1209.08 73.7508 1204.34 73.7508 Q1196.52 73.7508 1192.47 68.8897 Q1188.42 64.0286 1188.42 54.671 M1207.18 26.1121 L1207.18 26.1121 Z" fill="#000000" fill-rule="evenodd" fill-opacity="1" /><path clip-path="url(#clip710)" d="M1249.14 14.324 L1249.14 27.2059 L1264.5 27.2059 L1264.5 32.9987 L1249.14 32.9987 L1249.14 57.6282 Q1249.14 63.1779 1250.64 64.7578 Q1252.18 66.3376 1256.84 66.3376 L1264.5 66.3376 L1264.5 72.576 L1256.84 72.576 Q1248.21 72.576 1244.93 69.3758 Q1241.65 66.1351 1241.65 57.6282 L1241.65 32.9987 L1236.18 32.9987 L1236.18 27.2059 L1241.65 27.2059 L1241.65 14.324 L1249.14 14.324 Z" fill="#000000" fill-rule="evenodd" fill-opacity="1" /><path clip-path="url(#clip710)" d="M1281.67 14.324 L1281.67 27.2059 L1297.03 27.2059 L1297.03 32.9987 L1281.67 32.9987 L1281.67 57.6282 Q1281.67 63.1779 1283.17 64.7578 Q1284.71 66.3376 1289.37 66.3376 L1297.03 66.3376 L1297.03 72.576 L1289.37 72.576 Q1280.74 72.576 1277.46 69.3758 Q1274.18 66.1351 1274.18 57.6282 L1274.18 32.9987 L1268.71 32.9987 L1268.71 27.2059 L1274.18 27.2059 L1274.18 14.324 L1281.67 14.324 Z" fill="#000000" fill-rule="evenodd" fill-opacity="1" /><path clip-path="url(#clip710)" d="M1335.75 28.5427 L1335.75 35.5912 Q1332.59 33.9709 1329.19 33.1607 Q1325.79 32.3505 1322.14 32.3505 Q1316.59 32.3505 1313.8 34.0519 Q1311.04 35.7533 1311.04 39.156 Q1311.04 41.7486 1313.03 43.2475 Q1315.01 44.7058 1321.01 46.0426 L1323.56 46.6097 Q1331.5 48.3111 1334.82 51.4303 Q1338.18 54.509 1338.18 60.0587 Q1338.18 66.3781 1333.16 70.0644 Q1328.18 73.7508 1319.43 73.7508 Q1315.78 73.7508 1311.81 73.0216 Q1307.88 72.3329 1303.51 70.9151 L1303.51 63.2184 Q1307.64 65.3654 1311.65 66.4591 Q1315.66 67.5124 1319.59 67.5124 Q1324.86 67.5124 1327.69 65.73 Q1330.53 63.9071 1330.53 60.6258 Q1330.53 57.5877 1328.46 55.9673 Q1326.44 54.3469 1319.51 52.8481 L1316.92 52.2405 Q1309.99 50.7821 1306.91 47.7845 Q1303.83 44.7463 1303.83 39.4801 Q1303.83 33.0797 1308.37 29.5959 Q1312.91 26.1121 1321.25 26.1121 Q1325.38 26.1121 1329.03 26.7198 Q1332.67 27.3274 1335.75 28.5427 Z" fill="#000000" fill-rule="evenodd" fill-opacity="1" /><path clip-path="url(#clip710)" d="M1376.42 27.2059 L1383.88 27.2059 L1383.88 72.576 L1376.42 72.576 L1376.42 27.2059 M1376.42 9.54393 L1383.88 9.54393 L1383.88 18.9825 L1376.42 18.9825 L1376.42 9.54393 Z" fill="#000000" fill-rule="evenodd" fill-opacity="1" /><path clip-path="url(#clip710)" d="M1437.19 45.1919 L1437.19 72.576 L1429.73 72.576 L1429.73 45.4349 Q1429.73 38.994 1427.22 35.7938 Q1424.71 32.5936 1419.69 32.5936 Q1413.65 32.5936 1410.17 36.4419 Q1406.68 40.2903 1406.68 46.9338 L1406.68 72.576 L1399.19 72.576 L1399.19 27.2059 L1406.68 27.2059 L1406.68 34.2544 Q1409.36 30.163 1412.96 28.1376 Q1416.61 26.1121 1421.35 26.1121 Q1429.17 26.1121 1433.18 30.9732 Q1437.19 35.7938 1437.19 45.1919 Z" fill="#000000" fill-rule="evenodd" fill-opacity="1" /><path clip-path="url(#clip710)" d="M1485.64 65.7705 L1485.64 89.8329 L1478.14 89.8329 L1478.14 27.2059 L1485.64 27.2059 L1485.64 34.0924 Q1487.99 30.0415 1491.55 28.0971 Q1495.16 26.1121 1500.14 26.1121 Q1508.4 26.1121 1513.55 32.6746 Q1518.73 39.2371 1518.73 49.9314 Q1518.73 60.6258 1513.55 67.1883 Q1508.4 73.7508 1500.14 73.7508 Q1495.16 73.7508 1491.55 71.8063 Q1487.99 69.8214 1485.64 65.7705 M1510.99 49.9314 Q1510.99 41.7081 1507.59 37.0496 Q1504.23 32.3505 1498.32 32.3505 Q1492.4 32.3505 1489 37.0496 Q1485.64 41.7081 1485.64 49.9314 Q1485.64 58.1548 1489 62.8538 Q1492.4 67.5124 1498.32 67.5124 Q1504.23 67.5124 1507.59 62.8538 Q1510.99 58.1548 1510.99 49.9314 Z" fill="#000000" fill-rule="evenodd" fill-opacity="1" /><path clip-path="url(#clip710)" d="M1557.38 34.1734 Q1556.12 33.4443 1554.62 33.1202 Q1553.16 32.7556 1551.38 32.7556 Q1545.06 32.7556 1541.66 36.8875 Q1538.3 40.9789 1538.3 48.6757 L1538.3 72.576 L1530.8 72.576 L1530.8 27.2059 L1538.3 27.2059 L1538.3 34.2544 Q1540.65 30.1225 1544.41 28.1376 Q1548.18 26.1121 1553.57 26.1121 Q1554.34 26.1121 1555.27 26.2337 Q1556.2 26.3147 1557.34 26.5172 L1557.38 34.1734 Z" fill="#000000" fill-rule="evenodd" fill-opacity="1" /><path clip-path="url(#clip710)" d="M1580.95 32.4315 Q1574.96 32.4315 1571.47 37.1306 Q1567.99 41.7891 1567.99 49.9314 Q1567.99 58.0738 1571.43 62.7728 Q1574.92 67.4314 1580.95 67.4314 Q1586.91 67.4314 1590.39 62.7323 Q1593.88 58.0333 1593.88 49.9314 Q1593.88 41.8701 1590.39 37.1711 Q1586.91 32.4315 1580.95 32.4315 M1580.95 26.1121 Q1590.68 26.1121 1596.23 32.4315 Q1601.78 38.7509 1601.78 49.9314 Q1601.78 61.0714 1596.23 67.4314 Q1590.68 73.7508 1580.95 73.7508 Q1571.19 73.7508 1565.64 67.4314 Q1560.13 61.0714 1560.13 49.9314 Q1560.13 38.7509 1565.64 32.4315 Q1571.19 26.1121 1580.95 26.1121 Z" fill="#000000" fill-rule="evenodd" fill-opacity="1" /><path clip-path="url(#clip710)" d="M1670.36 49.3643 Q1670.36 41.2625 1666.99 36.8065 Q1663.67 32.3505 1657.64 32.3505 Q1651.64 32.3505 1648.28 36.8065 Q1644.96 41.2625 1644.96 49.3643 Q1644.96 57.4256 1648.28 61.8816 Q1651.64 66.3376 1657.64 66.3376 Q1663.67 66.3376 1666.99 61.8816 Q1670.36 57.4256 1670.36 49.3643 M1677.81 66.9452 Q1677.81 78.5308 1672.67 84.1616 Q1667.52 89.8329 1656.91 89.8329 Q1652.98 89.8329 1649.49 89.2252 Q1646.01 88.6581 1642.73 87.4428 L1642.73 80.1917 Q1646.01 81.9741 1649.21 82.8248 Q1652.41 83.6755 1655.73 83.6755 Q1663.07 83.6755 1666.71 79.8271 Q1670.36 76.0193 1670.36 68.282 L1670.36 64.5957 Q1668.05 68.6061 1664.44 70.5911 Q1660.84 72.576 1655.81 72.576 Q1647.47 72.576 1642.37 66.2161 Q1637.26 59.8562 1637.26 49.3643 Q1637.26 38.832 1642.37 32.472 Q1647.47 26.1121 1655.81 26.1121 Q1660.84 26.1121 1664.44 28.0971 Q1668.05 30.082 1670.36 34.0924 L1670.36 27.2059 L1677.81 27.2059 L1677.81 66.9452 Z" fill="#000000" fill-rule="evenodd" fill-opacity="1" /><path clip-path="url(#clip710)" d="M1710.74 32.4315 Q1704.75 32.4315 1701.27 37.1306 Q1697.78 41.7891 1697.78 49.9314 Q1697.78 58.0738 1701.22 62.7728 Q1704.71 67.4314 1710.74 67.4314 Q1716.7 67.4314 1720.18 62.7323 Q1723.67 58.0333 1723.67 49.9314 Q1723.67 41.8701 1720.18 37.1711 Q1716.7 32.4315 1710.74 32.4315 M1710.74 26.1121 Q1720.47 26.1121 1726.02 32.4315 Q1731.57 38.7509 1731.57 49.9314 Q1731.57 61.0714 1726.02 67.4314 Q1720.47 73.7508 1710.74 73.7508 Q1700.98 73.7508 1695.43 67.4314 Q1689.92 61.0714 1689.92 49.9314 Q1689.92 38.7509 1695.43 32.4315 Q1700.98 26.1121 1710.74 26.1121 Z" fill="#000000" fill-rule="evenodd" fill-opacity="1" /><path clip-path="url(#clip710)" d="M1743.92 9.54393 L1751.38 9.54393 L1751.38 72.576 L1743.92 72.576 L1743.92 9.54393 Z" fill="#000000" fill-rule="evenodd" fill-opacity="1" /><path clip-path="url(#clip710)" d="M1789.94 9.54393 L1789.94 15.7418 L1782.81 15.7418 Q1778.8 15.7418 1777.22 17.3622 Q1775.68 18.9825 1775.68 23.1955 L1775.68 27.2059 L1787.95 27.2059 L1787.95 32.9987 L1775.68 32.9987 L1775.68 72.576 L1768.19 72.576 L1768.19 32.9987 L1761.06 32.9987 L1761.06 27.2059 L1768.19 27.2059 L1768.19 24.0462 Q1768.19 16.471 1771.71 13.0277 Q1775.23 9.54393 1782.89 9.54393 L1789.94 9.54393 Z" fill="#000000" fill-rule="evenodd" fill-opacity="1" /><polyline clip-path="url(#clip712)" style="stroke:#000000; stroke-linecap:butt; stroke-linejoin:round; stroke-width:4; stroke-opacity:1; fill:none" points="
  280.231,179.695 280.231,160.256 
  "/>
<polyline clip-path="url(#clip712)" style="stroke:#000000; stroke-linecap:butt; stroke-linejoin:round; stroke-width:4; stroke-opacity:1; fill:none" points="
  392.018,340.39 392.018,298.481 
  "/>
<polyline clip-path="url(#clip712)" style="stroke:#000000; stroke-linecap:butt; stroke-linejoin:round; stroke-width:4; stroke-opacity:1; fill:none" points="
  503.804,483.54 503.804,422.951 
  "/>
<polyline clip-path="url(#clip712)" style="stroke:#000000; stroke-linecap:butt; stroke-linejoin:round; stroke-width:4; stroke-opacity:1; fill:none" points="
  615.591,715.121 615.591,637.904 
  "/>
<polyline clip-path="url(#clip712)" style="stroke:#000000; stroke-linecap:butt; stroke-linejoin:round; stroke-width:4; stroke-opacity:1; fill:none" points="
  727.378,782.111 727.378,693.119 
  "/>
<polyline clip-path="url(#clip712)" style="stroke:#000000; stroke-linecap:butt; stroke-linejoin:round; stroke-width:4; stroke-opacity:1; fill:none" points="
  839.164,807.994 839.164,716.022 
  "/>
<polyline clip-path="url(#clip712)" style="stroke:#000000; stroke-linecap:butt; stroke-linejoin:round; stroke-width:4; stroke-opacity:1; fill:none" points="
  950.951,910.83 950.951,815.923 
  "/>
<polyline clip-path="url(#clip712)" style="stroke:#000000; stroke-linecap:butt; stroke-linejoin:round; stroke-width:4; stroke-opacity:1; fill:none" points="
  1062.74,1123.09 1062.74,1029.86 
  "/>
<polyline clip-path="url(#clip712)" style="stroke:#000000; stroke-linecap:butt; stroke-linejoin:round; stroke-width:4; stroke-opacity:1; fill:none" points="
  1174.52,1100.58 1174.52,1002.16 
  "/>
<polyline clip-path="url(#clip712)" style="stroke:#000000; stroke-linecap:butt; stroke-linejoin:round; stroke-width:4; stroke-opacity:1; fill:none" points="
  1286.31,1123.25 1286.31,1034.17 
  "/>
<polyline clip-path="url(#clip712)" style="stroke:#000000; stroke-linecap:butt; stroke-linejoin:round; stroke-width:4; stroke-opacity:1; fill:none" points="
  1398.1,1211.1 1398.1,1120.39 
  "/>
<polyline clip-path="url(#clip712)" style="stroke:#000000; stroke-linecap:butt; stroke-linejoin:round; stroke-width:4; stroke-opacity:1; fill:none" points="
  1509.88,1237.47 1509.88,1146.64 
  "/>
<polyline clip-path="url(#clip712)" style="stroke:#000000; stroke-linecap:butt; stroke-linejoin:round; stroke-width:4; stroke-opacity:1; fill:none" points="
  1621.67,1139.43 1621.67,1036.01 
  "/>
<polyline clip-path="url(#clip712)" style="stroke:#000000; stroke-linecap:butt; stroke-linejoin:round; stroke-width:4; stroke-opacity:1; fill:none" points="
  1733.46,1340.72 1733.46,1255.47 
  "/>
<polyline clip-path="url(#clip712)" style="stroke:#000000; stroke-linecap:butt; stroke-linejoin:round; stroke-width:4; stroke-opacity:1; fill:none" points="
  1845.24,1382.71 1845.24,1311.78 
  "/>
<polyline clip-path="url(#clip712)" style="stroke:#000000; stroke-linecap:butt; stroke-linejoin:round; stroke-width:4; stroke-opacity:1; fill:none" points="
  1957.03,1349.52 1957.03,1272.3 
  "/>
<polyline clip-path="url(#clip712)" style="stroke:#000000; stroke-linecap:butt; stroke-linejoin:round; stroke-width:4; stroke-opacity:1; fill:none" points="
  2068.82,1330.89 2068.82,1250.23 
  "/>
<polyline clip-path="url(#clip712)" style="stroke:#000000; stroke-linecap:butt; stroke-linejoin:round; stroke-width:4; stroke-opacity:1; fill:none" points="
  2180.6,1386.4 2180.6,1303.01 
  "/>
<polyline clip-path="url(#clip712)" style="stroke:#000000; stroke-linecap:butt; stroke-linejoin:round; stroke-width:4; stroke-opacity:1; fill:none" points="
  2292.39,1356.11 2292.39,1268.89 
  "/>
<line clip-path="url(#clip712)" x1="296.231" y1="179.695" x2="264.231" y2="179.695" style="stroke:#000000; stroke-width:3.2; stroke-opacity:1"/>
<line clip-path="url(#clip712)" x1="296.231" y1="160.256" x2="264.231" y2="160.256" style="stroke:#000000; stroke-width:3.2; stroke-opacity:1"/>
<line clip-path="url(#clip712)" x1="408.018" y1="340.39" x2="376.018" y2="340.39" style="stroke:#000000; stroke-width:3.2; stroke-opacity:1"/>
<line clip-path="url(#clip712)" x1="408.018" y1="298.481" x2="376.018" y2="298.481" style="stroke:#000000; stroke-width:3.2; stroke-opacity:1"/>
<line clip-path="url(#clip712)" x1="519.804" y1="483.54" x2="487.804" y2="483.54" style="stroke:#000000; stroke-width:3.2; stroke-opacity:1"/>
<line clip-path="url(#clip712)" x1="519.804" y1="422.951" x2="487.804" y2="422.951" style="stroke:#000000; stroke-width:3.2; stroke-opacity:1"/>
<line clip-path="url(#clip712)" x1="631.591" y1="715.121" x2="599.591" y2="715.121" style="stroke:#000000; stroke-width:3.2; stroke-opacity:1"/>
<line clip-path="url(#clip712)" x1="631.591" y1="637.904" x2="599.591" y2="637.904" style="stroke:#000000; stroke-width:3.2; stroke-opacity:1"/>
<line clip-path="url(#clip712)" x1="743.378" y1="782.111" x2="711.378" y2="782.111" style="stroke:#000000; stroke-width:3.2; stroke-opacity:1"/>
<line clip-path="url(#clip712)" x1="743.378" y1="693.119" x2="711.378" y2="693.119" style="stroke:#000000; stroke-width:3.2; stroke-opacity:1"/>
<line clip-path="url(#clip712)" x1="855.164" y1="807.994" x2="823.164" y2="807.994" style="stroke:#000000; stroke-width:3.2; stroke-opacity:1"/>
<line clip-path="url(#clip712)" x1="855.164" y1="716.022" x2="823.164" y2="716.022" style="stroke:#000000; stroke-width:3.2; stroke-opacity:1"/>
<line clip-path="url(#clip712)" x1="966.951" y1="910.83" x2="934.951" y2="910.83" style="stroke:#000000; stroke-width:3.2; stroke-opacity:1"/>
<line clip-path="url(#clip712)" x1="966.951" y1="815.923" x2="934.951" y2="815.923" style="stroke:#000000; stroke-width:3.2; stroke-opacity:1"/>
<line clip-path="url(#clip712)" x1="1078.74" y1="1123.09" x2="1046.74" y2="1123.09" style="stroke:#000000; stroke-width:3.2; stroke-opacity:1"/>
<line clip-path="url(#clip712)" x1="1078.74" y1="1029.86" x2="1046.74" y2="1029.86" style="stroke:#000000; stroke-width:3.2; stroke-opacity:1"/>
<line clip-path="url(#clip712)" x1="1190.52" y1="1100.58" x2="1158.52" y2="1100.58" style="stroke:#000000; stroke-width:3.2; stroke-opacity:1"/>
<line clip-path="url(#clip712)" x1="1190.52" y1="1002.16" x2="1158.52" y2="1002.16" style="stroke:#000000; stroke-width:3.2; stroke-opacity:1"/>
<line clip-path="url(#clip712)" x1="1302.31" y1="1123.25" x2="1270.31" y2="1123.25" style="stroke:#000000; stroke-width:3.2; stroke-opacity:1"/>
<line clip-path="url(#clip712)" x1="1302.31" y1="1034.17" x2="1270.31" y2="1034.17" style="stroke:#000000; stroke-width:3.2; stroke-opacity:1"/>
<line clip-path="url(#clip712)" x1="1414.1" y1="1211.1" x2="1382.1" y2="1211.1" style="stroke:#000000; stroke-width:3.2; stroke-opacity:1"/>
<line clip-path="url(#clip712)" x1="1414.1" y1="1120.39" x2="1382.1" y2="1120.39" style="stroke:#000000; stroke-width:3.2; stroke-opacity:1"/>
<line clip-path="url(#clip712)" x1="1525.88" y1="1237.47" x2="1493.88" y2="1237.47" style="stroke:#000000; stroke-width:3.2; stroke-opacity:1"/>
<line clip-path="url(#clip712)" x1="1525.88" y1="1146.64" x2="1493.88" y2="1146.64" style="stroke:#000000; stroke-width:3.2; stroke-opacity:1"/>
<line clip-path="url(#clip712)" x1="1637.67" y1="1139.43" x2="1605.67" y2="1139.43" style="stroke:#000000; stroke-width:3.2; stroke-opacity:1"/>
<line clip-path="url(#clip712)" x1="1637.67" y1="1036.01" x2="1605.67" y2="1036.01" style="stroke:#000000; stroke-width:3.2; stroke-opacity:1"/>
<line clip-path="url(#clip712)" x1="1749.46" y1="1340.72" x2="1717.46" y2="1340.72" style="stroke:#000000; stroke-width:3.2; stroke-opacity:1"/>
<line clip-path="url(#clip712)" x1="1749.46" y1="1255.47" x2="1717.46" y2="1255.47" style="stroke:#000000; stroke-width:3.2; stroke-opacity:1"/>
<line clip-path="url(#clip712)" x1="1861.24" y1="1382.71" x2="1829.24" y2="1382.71" style="stroke:#000000; stroke-width:3.2; stroke-opacity:1"/>
<line clip-path="url(#clip712)" x1="1861.24" y1="1311.78" x2="1829.24" y2="1311.78" style="stroke:#000000; stroke-width:3.2; stroke-opacity:1"/>
<line clip-path="url(#clip712)" x1="1973.03" y1="1349.52" x2="1941.03" y2="1349.52" style="stroke:#000000; stroke-width:3.2; stroke-opacity:1"/>
<line clip-path="url(#clip712)" x1="1973.03" y1="1272.3" x2="1941.03" y2="1272.3" style="stroke:#000000; stroke-width:3.2; stroke-opacity:1"/>
<line clip-path="url(#clip712)" x1="2084.82" y1="1330.89" x2="2052.82" y2="1330.89" style="stroke:#000000; stroke-width:3.2; stroke-opacity:1"/>
<line clip-path="url(#clip712)" x1="2084.82" y1="1250.23" x2="2052.82" y2="1250.23" style="stroke:#000000; stroke-width:3.2; stroke-opacity:1"/>
<line clip-path="url(#clip712)" x1="2196.6" y1="1386.4" x2="2164.6" y2="1386.4" style="stroke:#000000; stroke-width:3.2; stroke-opacity:1"/>
<line clip-path="url(#clip712)" x1="2196.6" y1="1303.01" x2="2164.6" y2="1303.01" style="stroke:#000000; stroke-width:3.2; stroke-opacity:1"/>
<line clip-path="url(#clip712)" x1="2308.39" y1="1356.11" x2="2276.39" y2="1356.11" style="stroke:#000000; stroke-width:3.2; stroke-opacity:1"/>
<line clip-path="url(#clip712)" x1="2308.39" y1="1268.89" x2="2276.39" y2="1268.89" style="stroke:#000000; stroke-width:3.2; stroke-opacity:1"/>
<circle clip-path="url(#clip712)" cx="280.231" cy="169.976" r="14" fill="#add8e6" fill-rule="evenodd" fill-opacity="1" stroke="#000000" stroke-opacity="1" stroke-width="3.2"/>
<circle clip-path="url(#clip712)" cx="392.018" cy="319.435" r="14" fill="#add8e6" fill-rule="evenodd" fill-opacity="1" stroke="#000000" stroke-opacity="1" stroke-width="3.2"/>
<circle clip-path="url(#clip712)" cx="503.804" cy="453.245" r="14" fill="#add8e6" fill-rule="evenodd" fill-opacity="1" stroke="#000000" stroke-opacity="1" stroke-width="3.2"/>
<circle clip-path="url(#clip712)" cx="615.591" cy="676.512" r="14" fill="#add8e6" fill-rule="evenodd" fill-opacity="1" stroke="#000000" stroke-opacity="1" stroke-width="3.2"/>
<circle clip-path="url(#clip712)" cx="727.378" cy="737.615" r="14" fill="#add8e6" fill-rule="evenodd" fill-opacity="1" stroke="#000000" stroke-opacity="1" stroke-width="3.2"/>
<circle clip-path="url(#clip712)" cx="839.164" cy="762.008" r="14" fill="#add8e6" fill-rule="evenodd" fill-opacity="1" stroke="#000000" stroke-opacity="1" stroke-width="3.2"/>
<circle clip-path="url(#clip712)" cx="950.951" cy="863.376" r="14" fill="#add8e6" fill-rule="evenodd" fill-opacity="1" stroke="#000000" stroke-opacity="1" stroke-width="3.2"/>
<circle clip-path="url(#clip712)" cx="1062.74" cy="1076.47" r="14" fill="#add8e6" fill-rule="evenodd" fill-opacity="1" stroke="#000000" stroke-opacity="1" stroke-width="3.2"/>
<circle clip-path="url(#clip712)" cx="1174.52" cy="1051.37" r="14" fill="#add8e6" fill-rule="evenodd" fill-opacity="1" stroke="#000000" stroke-opacity="1" stroke-width="3.2"/>
<circle clip-path="url(#clip712)" cx="1286.31" cy="1078.71" r="14" fill="#add8e6" fill-rule="evenodd" fill-opacity="1" stroke="#000000" stroke-opacity="1" stroke-width="3.2"/>
<circle clip-path="url(#clip712)" cx="1398.1" cy="1165.75" r="14" fill="#add8e6" fill-rule="evenodd" fill-opacity="1" stroke="#000000" stroke-opacity="1" stroke-width="3.2"/>
<circle clip-path="url(#clip712)" cx="1509.88" cy="1192.05" r="14" fill="#add8e6" fill-rule="evenodd" fill-opacity="1" stroke="#000000" stroke-opacity="1" stroke-width="3.2"/>
<circle clip-path="url(#clip712)" cx="1621.67" cy="1087.72" r="14" fill="#add8e6" fill-rule="evenodd" fill-opacity="1" stroke="#000000" stroke-opacity="1" stroke-width="3.2"/>
<circle clip-path="url(#clip712)" cx="1733.46" cy="1298.09" r="14" fill="#add8e6" fill-rule="evenodd" fill-opacity="1" stroke="#000000" stroke-opacity="1" stroke-width="3.2"/>
<circle clip-path="url(#clip712)" cx="1845.24" cy="1347.25" r="14" fill="#add8e6" fill-rule="evenodd" fill-opacity="1" stroke="#000000" stroke-opacity="1" stroke-width="3.2"/>
<circle clip-path="url(#clip712)" cx="1957.03" cy="1310.91" r="14" fill="#add8e6" fill-rule="evenodd" fill-opacity="1" stroke="#000000" stroke-opacity="1" stroke-width="3.2"/>
<circle clip-path="url(#clip712)" cx="2068.82" cy="1290.56" r="14" fill="#add8e6" fill-rule="evenodd" fill-opacity="1" stroke="#000000" stroke-opacity="1" stroke-width="3.2"/>
<circle clip-path="url(#clip712)" cx="2180.6" cy="1344.7" r="14" fill="#add8e6" fill-rule="evenodd" fill-opacity="1" stroke="#000000" stroke-opacity="1" stroke-width="3.2"/>
<circle clip-path="url(#clip712)" cx="2292.39" cy="1312.5" r="14" fill="#add8e6" fill-rule="evenodd" fill-opacity="1" stroke="#000000" stroke-opacity="1" stroke-width="3.2"/>
</svg>
