<?xml version="1.0" encoding="utf-8"?>
<svg xmlns="http://www.w3.org/2000/svg" xmlns:xlink="http://www.w3.org/1999/xlink" width="600" height="400" viewBox="0 0 2400 1600">
<defs>
  <clipPath id="clip900">
    <rect x="0" y="0" width="2400" height="1600"/>
  </clipPath>
</defs>
<path clip-path="url(#clip900)" d="
M0 1600 L2400 1600 L2400 0 L0 0  Z
  " fill="#ffffff" fill-rule="evenodd" fill-opacity="1"/>
<defs>
  <clipPath id="clip901">
    <rect x="480" y="0" width="1681" height="1600"/>
  </clipPath>
</defs>
<path clip-path="url(#clip900)" d="
M102.74 1505.26 L2352.76 1505.26 L2352.76 62.9921 L102.74 62.9921  Z
  " fill="#ffffff" fill-rule="evenodd" fill-opacity="1"/>
<defs>
  <clipPath id="clip902">
    <rect x="102" y="62" width="2251" height="1443"/>
  </clipPath>
</defs>
<polyline clip-path="url(#clip902)" style="stroke:#000000; stroke-linecap:butt; stroke-linejoin:round; stroke-width:2; stroke-opacity:0.1; fill:none" points="
  520.196,1505.26 520.196,62.9921 
  "/>
<polyline clip-path="url(#clip902)" style="stroke:#000000; stroke-linecap:butt; stroke-linejoin:round; stroke-width:2; stroke-opacity:0.1; fill:none" points="
  1109.82,1505.26 1109.82,62.9921 
  "/>
<polyline clip-path="url(#clip902)" style="stroke:#000000; stroke-linecap:butt; stroke-linejoin:round; stroke-width:2; stroke-opacity:0.1; fill:none" points="
  1699.45,1505.26 1699.45,62.9921 
  "/>
<polyline clip-path="url(#clip902)" style="stroke:#000000; stroke-linecap:butt; stroke-linejoin:round; stroke-width:2; stroke-opacity:0.1; fill:none" points="
  2289.08,1505.26 2289.08,62.9921 
  "/>
<polyline clip-path="url(#clip900)" style="stroke:#000000; stroke-linecap:butt; stroke-linejoin:round; stroke-width:4; stroke-opacity:1; fill:none" points="
  102.74,1505.26 2352.76,1505.26 
  "/>
<polyline clip-path="url(#clip900)" style="stroke:#000000; stroke-linecap:butt; stroke-linejoin:round; stroke-width:4; stroke-opacity:1; fill:none" points="
  520.196,1505.26 520.196,1486.36 
  "/>
<polyline clip-path="url(#clip900)" style="stroke:#000000; stroke-linecap:butt; stroke-linejoin:round; stroke-width:4; stroke-opacity:1; fill:none" points="
  1109.82,1505.26 1109.82,1486.36 
  "/>
<polyline clip-path="url(#clip900)" style="stroke:#000000; stroke-linecap:butt; stroke-linejoin:round; stroke-width:4; stroke-opacity:1; fill:none" points="
  1699.45,1505.26 1699.45,1486.36 
  "/>
<polyline clip-path="url(#clip900)" style="stroke:#000000; stroke-linecap:butt; stroke-linejoin:round; stroke-width:4; stroke-opacity:1; fill:none" points="
  2289.08,1505.26 2289.08,1486.36 
  "/>
<path clip-path="url(#clip900)" d="M510.474 1533.1 L528.83 1533.1 L528.83 1537.04 L514.756 1537.04 L514.756 1545.51 Q515.775 1545.16 516.793 1545 Q517.812 1544.81 518.83 1544.81 Q524.617 1544.81 527.997 1547.98 Q531.376 1551.16 531.376 1556.57 Q531.376 1562.15 527.904 1565.25 Q524.432 1568.33 518.113 1568.33 Q515.937 1568.33 513.668 1567.96 Q511.423 1567.59 509.015 1566.85 L509.015 1562.15 Q511.099 1563.28 513.321 1563.84 Q515.543 1564.4 518.02 1564.4 Q522.025 1564.4 524.363 1562.29 Q526.701 1560.18 526.701 1556.57 Q526.701 1552.96 524.363 1550.85 Q522.025 1548.75 518.02 1548.75 Q516.145 1548.75 514.27 1549.16 Q512.418 1549.58 510.474 1550.46 L510.474 1533.1 Z" fill="#000000" fill-rule="evenodd" fill-opacity="1" /><path clip-path="url(#clip900)" d="M1084.51 1563.72 L1092.15 1563.72 L1092.15 1537.36 L1083.84 1539.03 L1083.84 1534.77 L1092.1 1533.1 L1096.78 1533.1 L1096.78 1563.72 L1104.42 1563.72 L1104.42 1567.66 L1084.51 1567.66 L1084.51 1563.72 Z" fill="#000000" fill-rule="evenodd" fill-opacity="1" /><path clip-path="url(#clip900)" d="M1123.86 1536.18 Q1120.25 1536.18 1118.42 1539.74 Q1116.62 1543.28 1116.62 1550.41 Q1116.62 1557.52 1118.42 1561.09 Q1120.25 1564.63 1123.86 1564.63 Q1127.5 1564.63 1129.3 1561.09 Q1131.13 1557.52 1131.13 1550.41 Q1131.13 1543.28 1129.3 1539.74 Q1127.5 1536.18 1123.86 1536.18 M1123.86 1532.47 Q1129.67 1532.47 1132.73 1537.08 Q1135.81 1541.66 1135.81 1550.41 Q1135.81 1559.14 1132.73 1563.75 Q1129.67 1568.33 1123.86 1568.33 Q1118.05 1568.33 1114.97 1563.75 Q1111.92 1559.14 1111.92 1550.41 Q1111.92 1541.66 1114.97 1537.08 Q1118.05 1532.47 1123.86 1532.47 Z" fill="#000000" fill-rule="evenodd" fill-opacity="1" /><path clip-path="url(#clip900)" d="M1674.63 1563.72 L1682.27 1563.72 L1682.27 1537.36 L1673.96 1539.03 L1673.96 1534.77 L1682.23 1533.1 L1686.9 1533.1 L1686.9 1563.72 L1694.54 1563.72 L1694.54 1567.66 L1674.63 1567.66 L1674.63 1563.72 Z" fill="#000000" fill-rule="evenodd" fill-opacity="1" /><path clip-path="url(#clip900)" d="M1704.03 1533.1 L1722.39 1533.1 L1722.39 1537.04 L1708.32 1537.04 L1708.32 1545.51 Q1709.33 1545.16 1710.35 1545 Q1711.37 1544.81 1712.39 1544.81 Q1718.18 1544.81 1721.56 1547.98 Q1724.94 1551.16 1724.94 1556.57 Q1724.94 1562.15 1721.46 1565.25 Q1717.99 1568.33 1711.67 1568.33 Q1709.5 1568.33 1707.23 1567.96 Q1704.98 1567.59 1702.57 1566.85 L1702.57 1562.15 Q1704.66 1563.28 1706.88 1563.84 Q1709.1 1564.4 1711.58 1564.4 Q1715.58 1564.4 1717.92 1562.29 Q1720.26 1560.18 1720.26 1556.57 Q1720.26 1552.96 1717.92 1550.85 Q1715.58 1548.75 1711.58 1548.75 Q1709.7 1548.75 1707.83 1549.16 Q1705.98 1549.58 1704.03 1550.46 L1704.03 1533.1 Z" fill="#000000" fill-rule="evenodd" fill-opacity="1" /><path clip-path="url(#clip900)" d="M2267.85 1563.72 L2284.17 1563.72 L2284.17 1567.66 L2262.22 1567.66 L2262.22 1563.72 Q2264.89 1560.97 2269.47 1556.34 Q2274.08 1551.69 2275.26 1550.35 Q2277.5 1547.82 2278.38 1546.09 Q2279.28 1544.33 2279.28 1542.64 Q2279.28 1539.88 2277.34 1538.15 Q2275.42 1536.41 2272.32 1536.41 Q2270.12 1536.41 2267.66 1537.17 Q2265.23 1537.94 2262.46 1539.49 L2262.46 1534.77 Q2265.28 1533.63 2267.73 1533.05 Q2270.19 1532.47 2272.22 1532.47 Q2277.59 1532.47 2280.79 1535.16 Q2283.98 1537.85 2283.98 1542.34 Q2283.98 1544.47 2283.17 1546.39 Q2282.39 1548.28 2280.28 1550.88 Q2279.7 1551.55 2276.6 1554.77 Q2273.5 1557.96 2267.85 1563.72 Z" fill="#000000" fill-rule="evenodd" fill-opacity="1" /><path clip-path="url(#clip900)" d="M2303.98 1536.18 Q2300.37 1536.18 2298.54 1539.74 Q2296.74 1543.28 2296.74 1550.41 Q2296.74 1557.52 2298.54 1561.09 Q2300.37 1564.63 2303.98 1564.63 Q2307.62 1564.63 2309.42 1561.09 Q2311.25 1557.52 2311.25 1550.41 Q2311.25 1543.28 2309.42 1539.74 Q2307.62 1536.18 2303.98 1536.18 M2303.98 1532.47 Q2309.79 1532.47 2312.85 1537.08 Q2315.93 1541.66 2315.93 1550.41 Q2315.93 1559.14 2312.85 1563.75 Q2309.79 1568.33 2303.98 1568.33 Q2298.17 1568.33 2295.09 1563.75 Q2292.04 1559.14 2292.04 1550.41 Q2292.04 1541.66 2295.09 1537.08 Q2298.17 1532.47 2303.98 1532.47 Z" fill="#000000" fill-rule="evenodd" fill-opacity="1" /><path clip-path="url(#clip900)" d="M831.244 1607.89 L831.244 1644.84 L839.01 1644.84 Q848.845 1644.84 853.397 1640.38 Q857.98 1635.93 857.98 1626.32 Q857.98 1616.77 853.397 1612.34 Q848.845 1607.89 839.01 1607.89 L831.244 1607.89 M824.815 1602.6 L838.024 1602.6 Q851.837 1602.6 858.298 1608.36 Q864.76 1614.09 864.76 1626.32 Q864.76 1638.6 858.267 1644.36 Q851.773 1650.12 838.024 1650.12 L824.815 1650.12 L824.815 1602.6 Z" fill="#000000" fill-rule="evenodd" fill-opacity="1" /><path clip-path="url(#clip900)" d="M874.754 1614.48 L880.61 1614.48 L880.61 1650.12 L874.754 1650.12 L874.754 1614.48 M874.754 1600.6 L880.61 1600.6 L880.61 1608.01 L874.754 1608.01 L874.754 1600.6 Z" fill="#000000" fill-rule="evenodd" fill-opacity="1" /><path clip-path="url(#clip900)" d="M915.59 1615.53 L915.59 1621.06 Q913.107 1619.79 910.433 1619.15 Q907.76 1618.52 904.895 1618.52 Q900.535 1618.52 898.339 1619.85 Q896.174 1621.19 896.174 1623.87 Q896.174 1625.9 897.734 1627.08 Q899.293 1628.23 904.004 1629.28 L906.009 1629.72 Q912.248 1631.06 914.858 1633.51 Q917.499 1635.93 917.499 1640.29 Q917.499 1645.25 913.553 1648.15 Q909.638 1651.05 902.763 1651.05 Q899.898 1651.05 896.779 1650.47 Q893.692 1649.93 890.254 1648.82 L890.254 1642.77 Q893.501 1644.46 896.652 1645.32 Q899.803 1646.15 902.89 1646.15 Q907.028 1646.15 909.256 1644.74 Q911.484 1643.31 911.484 1640.73 Q911.484 1638.35 909.861 1637.07 Q908.269 1635.8 902.826 1634.62 L900.789 1634.15 Q895.347 1633 892.928 1630.64 Q890.509 1628.26 890.509 1624.12 Q890.509 1619.09 894.074 1616.35 Q897.638 1613.62 904.195 1613.62 Q907.442 1613.62 910.306 1614.09 Q913.171 1614.57 915.59 1615.53 Z" fill="#000000" fill-rule="evenodd" fill-opacity="1" /><path clip-path="url(#clip900)" d="M932.618 1604.35 L932.618 1614.48 L944.681 1614.48 L944.681 1619.03 L932.618 1619.03 L932.618 1638.38 Q932.618 1642.74 933.796 1643.98 Q935.005 1645.22 938.665 1645.22 L944.681 1645.22 L944.681 1650.12 L938.665 1650.12 Q931.886 1650.12 929.308 1647.61 Q926.73 1645.06 926.73 1638.38 L926.73 1619.03 L922.433 1619.03 L922.433 1614.48 L926.73 1614.48 L926.73 1604.35 L932.618 1604.35 Z" fill="#000000" fill-rule="evenodd" fill-opacity="1" /><path clip-path="url(#clip900)" d="M968.584 1632.2 Q961.486 1632.2 958.749 1633.83 Q956.012 1635.45 956.012 1639.37 Q956.012 1642.48 958.049 1644.33 Q960.118 1646.15 963.651 1646.15 Q968.521 1646.15 971.449 1642.71 Q974.409 1639.24 974.409 1633.51 L974.409 1632.2 L968.584 1632.2 M980.265 1629.79 L980.265 1650.12 L974.409 1650.12 L974.409 1644.71 Q972.404 1647.96 969.412 1649.52 Q966.42 1651.05 962.091 1651.05 Q956.617 1651.05 953.37 1647.99 Q950.155 1644.9 950.155 1639.75 Q950.155 1633.73 954.166 1630.68 Q958.208 1627.62 966.197 1627.62 L974.409 1627.62 L974.409 1627.05 Q974.409 1623.01 971.735 1620.81 Q969.093 1618.58 964.287 1618.58 Q961.232 1618.58 958.335 1619.31 Q955.439 1620.05 952.765 1621.51 L952.765 1616.1 Q955.98 1614.86 959.004 1614.25 Q962.028 1613.62 964.892 1613.62 Q972.626 1613.62 976.446 1617.63 Q980.265 1621.64 980.265 1629.79 Z" fill="#000000" fill-rule="evenodd" fill-opacity="1" /><path clip-path="url(#clip900)" d="M1021.96 1628.61 L1021.96 1650.12 L1016.1 1650.12 L1016.1 1628.8 Q1016.1 1623.74 1014.13 1621.22 Q1012.16 1618.71 1008.21 1618.71 Q1003.47 1618.71 1000.73 1621.73 Q997.994 1624.76 997.994 1629.98 L997.994 1650.12 L992.105 1650.12 L992.105 1614.48 L997.994 1614.48 L997.994 1620.01 Q1000.09 1616.8 1002.93 1615.21 Q1005.79 1613.62 1009.52 1613.62 Q1015.66 1613.62 1018.81 1617.44 Q1021.96 1621.22 1021.96 1628.61 Z" fill="#000000" fill-rule="evenodd" fill-opacity="1" /><path clip-path="url(#clip900)" d="M1059.3 1615.84 L1059.3 1621.32 Q1056.81 1619.95 1054.3 1619.28 Q1051.82 1618.58 1049.27 1618.58 Q1043.57 1618.58 1040.42 1622.21 Q1037.27 1625.81 1037.27 1632.33 Q1037.27 1638.86 1040.42 1642.48 Q1043.57 1646.08 1049.27 1646.08 Q1051.82 1646.08 1054.3 1645.41 Q1056.81 1644.71 1059.3 1643.34 L1059.3 1648.76 Q1056.84 1649.9 1054.2 1650.47 Q1051.59 1651.05 1048.63 1651.05 Q1040.58 1651.05 1035.84 1645.99 Q1031.1 1640.93 1031.1 1632.33 Q1031.1 1623.61 1035.87 1618.61 Q1040.68 1613.62 1049.01 1613.62 Q1051.72 1613.62 1054.3 1614.19 Q1056.88 1614.73 1059.3 1615.84 Z" fill="#000000" fill-rule="evenodd" fill-opacity="1" /><path clip-path="url(#clip900)" d="M1099.97 1630.84 L1099.97 1633.7 L1073.05 1633.7 Q1073.43 1639.75 1076.67 1642.93 Q1079.95 1646.08 1085.78 1646.08 Q1089.15 1646.08 1092.3 1645.25 Q1095.48 1644.43 1098.6 1642.77 L1098.6 1648.31 Q1095.45 1649.65 1092.14 1650.35 Q1088.83 1651.05 1085.43 1651.05 Q1076.9 1651.05 1071.9 1646.08 Q1066.93 1641.12 1066.93 1632.65 Q1066.93 1623.9 1071.64 1618.77 Q1076.39 1613.62 1084.41 1613.62 Q1091.6 1613.62 1095.77 1618.26 Q1099.97 1622.88 1099.97 1630.84 M1094.12 1629.12 Q1094.05 1624.31 1091.41 1621.45 Q1088.8 1618.58 1084.47 1618.58 Q1079.57 1618.58 1076.61 1621.35 Q1073.68 1624.12 1073.24 1629.15 L1094.12 1629.12 Z" fill="#000000" fill-rule="evenodd" fill-opacity="1" /><path clip-path="url(#clip900)" d="M1148.35 1600.6 L1148.35 1605.47 L1142.75 1605.47 Q1139.6 1605.47 1138.36 1606.74 Q1137.15 1608.01 1137.15 1611.32 L1137.15 1614.48 L1146.79 1614.48 L1146.79 1619.03 L1137.15 1619.03 L1137.15 1650.12 L1131.26 1650.12 L1131.26 1619.03 L1125.66 1619.03 L1125.66 1614.48 L1131.26 1614.48 L1131.26 1611.99 Q1131.26 1606.04 1134.03 1603.34 Q1136.8 1600.6 1142.81 1600.6 L1148.35 1600.6 Z" fill="#000000" fill-rule="evenodd" fill-opacity="1" /><path clip-path="url(#clip900)" d="M1173.91 1619.95 Q1172.92 1619.38 1171.75 1619.12 Q1170.6 1618.84 1169.2 1618.84 Q1164.23 1618.84 1161.56 1622.08 Q1158.92 1625.3 1158.92 1631.35 L1158.92 1650.12 L1153.03 1650.12 L1153.03 1614.48 L1158.92 1614.48 L1158.92 1620.01 Q1160.76 1616.77 1163.72 1615.21 Q1166.68 1613.62 1170.92 1613.62 Q1171.52 1613.62 1172.25 1613.71 Q1172.99 1613.78 1173.88 1613.93 L1173.91 1619.95 Z" fill="#000000" fill-rule="evenodd" fill-opacity="1" /><path clip-path="url(#clip900)" d="M1192.43 1618.58 Q1187.72 1618.58 1184.99 1622.27 Q1182.25 1625.93 1182.25 1632.33 Q1182.25 1638.73 1184.95 1642.42 Q1187.69 1646.08 1192.43 1646.08 Q1197.11 1646.08 1199.85 1642.39 Q1202.59 1638.7 1202.59 1632.33 Q1202.59 1626 1199.85 1622.31 Q1197.11 1618.58 1192.43 1618.58 M1192.43 1613.62 Q1200.07 1613.62 1204.43 1618.58 Q1208.79 1623.55 1208.79 1632.33 Q1208.79 1641.08 1204.43 1646.08 Q1200.07 1651.05 1192.43 1651.05 Q1184.76 1651.05 1180.4 1646.08 Q1176.07 1641.08 1176.07 1632.33 Q1176.07 1623.55 1180.4 1618.58 Q1184.76 1613.62 1192.43 1613.62 Z" fill="#000000" fill-rule="evenodd" fill-opacity="1" /><path clip-path="url(#clip900)" d="M1246.26 1621.32 Q1248.45 1617.37 1251.51 1615.49 Q1254.56 1613.62 1258.7 1613.62 Q1264.27 1613.62 1267.29 1617.53 Q1270.32 1621.41 1270.32 1628.61 L1270.32 1650.12 L1264.43 1650.12 L1264.43 1628.8 Q1264.43 1623.67 1262.62 1621.19 Q1260.8 1618.71 1257.08 1618.71 Q1252.53 1618.71 1249.88 1621.73 Q1247.24 1624.76 1247.24 1629.98 L1247.24 1650.12 L1241.35 1650.12 L1241.35 1628.8 Q1241.35 1623.64 1239.54 1621.19 Q1237.73 1618.71 1233.94 1618.71 Q1229.45 1618.71 1226.81 1621.76 Q1224.17 1624.79 1224.17 1629.98 L1224.17 1650.12 L1218.28 1650.12 L1218.28 1614.48 L1224.17 1614.48 L1224.17 1620.01 Q1226.17 1616.74 1228.97 1615.18 Q1231.77 1613.62 1235.63 1613.62 Q1239.51 1613.62 1242.21 1615.59 Q1244.95 1617.56 1246.26 1621.32 Z" fill="#000000" fill-rule="evenodd" fill-opacity="1" /><path clip-path="url(#clip900)" d="M1332.35 1628.61 L1332.35 1650.12 L1326.5 1650.12 L1326.5 1628.8 Q1326.5 1623.74 1324.52 1621.22 Q1322.55 1618.71 1318.6 1618.71 Q1313.86 1618.71 1311.12 1621.73 Q1308.39 1624.76 1308.39 1629.98 L1308.39 1650.12 L1302.5 1650.12 L1302.5 1600.6 L1308.39 1600.6 L1308.39 1620.01 Q1310.49 1616.8 1313.32 1615.21 Q1316.18 1613.62 1319.91 1613.62 Q1326.05 1613.62 1329.2 1617.44 Q1332.35 1621.22 1332.35 1628.61 Z" fill="#000000" fill-rule="evenodd" fill-opacity="1" /><path clip-path="url(#clip900)" d="M1357.85 1618.58 Q1353.14 1618.58 1350.4 1622.27 Q1347.66 1625.93 1347.66 1632.33 Q1347.66 1638.73 1350.37 1642.42 Q1353.1 1646.08 1357.85 1646.08 Q1362.53 1646.08 1365.26 1642.39 Q1368 1638.7 1368 1632.33 Q1368 1626 1365.26 1622.31 Q1362.53 1618.58 1357.85 1618.58 M1357.85 1613.62 Q1365.49 1613.62 1369.85 1618.58 Q1374.21 1623.55 1374.21 1632.33 Q1374.21 1641.08 1369.85 1646.08 Q1365.49 1651.05 1357.85 1651.05 Q1350.18 1651.05 1345.82 1646.08 Q1341.49 1641.08 1341.49 1632.33 Q1341.49 1623.55 1345.82 1618.58 Q1350.18 1613.62 1357.85 1613.62 Z" fill="#000000" fill-rule="evenodd" fill-opacity="1" /><path clip-path="url(#clip900)" d="M1383.91 1600.6 L1389.77 1600.6 L1389.77 1650.12 L1383.91 1650.12 L1383.91 1600.6 Z" fill="#000000" fill-rule="evenodd" fill-opacity="1" /><path clip-path="url(#clip900)" d="M1432.52 1630.84 L1432.52 1633.7 L1405.59 1633.7 Q1405.97 1639.75 1409.22 1642.93 Q1412.5 1646.08 1418.32 1646.08 Q1421.7 1646.08 1424.85 1645.25 Q1428.03 1644.43 1431.15 1642.77 L1431.15 1648.31 Q1428 1649.65 1424.69 1650.35 Q1421.38 1651.05 1417.97 1651.05 Q1409.44 1651.05 1404.44 1646.08 Q1399.48 1641.12 1399.48 1632.65 Q1399.48 1623.9 1404.19 1618.77 Q1408.93 1613.62 1416.95 1613.62 Q1424.15 1613.62 1428.32 1618.26 Q1432.52 1622.88 1432.52 1630.84 M1426.66 1629.12 Q1426.6 1624.31 1423.96 1621.45 Q1421.35 1618.58 1417.02 1618.58 Q1412.11 1618.58 1409.15 1621.35 Q1406.23 1624.12 1405.78 1629.15 L1426.66 1629.12 Z" fill="#000000" fill-rule="evenodd" fill-opacity="1" /><path clip-path="url(#clip900)" d="M1476.92 1600.66 Q1472.65 1607.98 1470.58 1615.14 Q1468.51 1622.31 1468.51 1629.66 Q1468.51 1637.01 1470.58 1644.24 Q1472.68 1651.43 1476.92 1658.72 L1471.83 1658.72 Q1467.05 1651.24 1464.66 1644.01 Q1462.31 1636.79 1462.31 1629.66 Q1462.31 1622.56 1464.66 1615.37 Q1467.02 1608.17 1471.83 1600.66 L1476.92 1600.66 Z" fill="#000000" fill-rule="evenodd" fill-opacity="1" /><path clip-path="url(#clip900)" d="M1506.33 1600.6 L1506.33 1605.47 L1500.73 1605.47 Q1497.57 1605.47 1496.33 1606.74 Q1495.12 1608.01 1495.12 1611.32 L1495.12 1614.48 L1504.77 1614.48 L1504.77 1619.03 L1495.12 1619.03 L1495.12 1650.12 L1489.24 1650.12 L1489.24 1619.03 L1483.63 1619.03 L1483.63 1614.48 L1489.24 1614.48 L1489.24 1611.99 Q1489.24 1606.04 1492 1603.34 Q1494.77 1600.6 1500.79 1600.6 L1506.33 1600.6 Z" fill="#000000" fill-rule="evenodd" fill-opacity="1" /><path clip-path="url(#clip900)" d="M1541.72 1630.84 L1541.72 1633.7 L1514.79 1633.7 Q1515.18 1639.75 1518.42 1642.93 Q1521.7 1646.08 1527.53 1646.08 Q1530.9 1646.08 1534.05 1645.25 Q1537.23 1644.43 1540.35 1642.77 L1540.35 1648.31 Q1537.2 1649.65 1533.89 1650.35 Q1530.58 1651.05 1527.17 1651.05 Q1518.64 1651.05 1513.65 1646.08 Q1508.68 1641.12 1508.68 1632.65 Q1508.68 1623.9 1513.39 1618.77 Q1518.14 1613.62 1526.16 1613.62 Q1533.35 1613.62 1537.52 1618.26 Q1541.72 1622.88 1541.72 1630.84 M1535.86 1629.12 Q1535.8 1624.31 1533.16 1621.45 Q1530.55 1618.58 1526.22 1618.58 Q1521.32 1618.58 1518.36 1621.35 Q1515.43 1624.12 1514.98 1629.15 L1535.86 1629.12 Z" fill="#000000" fill-rule="evenodd" fill-opacity="1" /><path clip-path="url(#clip900)" d="M1581.82 1630.84 L1581.82 1633.7 L1554.9 1633.7 Q1555.28 1639.75 1558.53 1642.93 Q1561.8 1646.08 1567.63 1646.08 Q1571 1646.08 1574.15 1645.25 Q1577.34 1644.43 1580.46 1642.77 L1580.46 1648.31 Q1577.3 1649.65 1573.99 1650.35 Q1570.68 1651.05 1567.28 1651.05 Q1558.75 1651.05 1553.75 1646.08 Q1548.79 1641.12 1548.79 1632.65 Q1548.79 1623.9 1553.5 1618.77 Q1558.24 1613.62 1566.26 1613.62 Q1573.45 1613.62 1577.62 1618.26 Q1581.82 1622.88 1581.82 1630.84 M1575.97 1629.12 Q1575.9 1624.31 1573.26 1621.45 Q1570.65 1618.58 1566.32 1618.58 Q1561.42 1618.58 1558.46 1621.35 Q1555.53 1624.12 1555.09 1629.15 L1575.97 1629.12 Z" fill="#000000" fill-rule="evenodd" fill-opacity="1" /><path clip-path="url(#clip900)" d="M1597.23 1604.35 L1597.23 1614.48 L1609.29 1614.48 L1609.29 1619.03 L1597.23 1619.03 L1597.23 1638.38 Q1597.23 1642.74 1598.41 1643.98 Q1599.62 1645.22 1603.28 1645.22 L1609.29 1645.22 L1609.29 1650.12 L1603.28 1650.12 Q1596.5 1650.12 1593.92 1647.61 Q1591.34 1645.06 1591.34 1638.38 L1591.34 1619.03 L1587.04 1619.03 L1587.04 1614.48 L1591.34 1614.48 L1591.34 1604.35 L1597.23 1604.35 Z" fill="#000000" fill-rule="evenodd" fill-opacity="1" /><path clip-path="url(#clip900)" d="M1616.07 1600.66 L1621.16 1600.66 Q1625.94 1608.17 1628.29 1615.37 Q1630.68 1622.56 1630.68 1629.66 Q1630.68 1636.79 1628.29 1644.01 Q1625.94 1651.24 1621.16 1658.72 L1616.07 1658.72 Q1620.31 1651.43 1622.37 1644.24 Q1624.47 1637.01 1624.47 1629.66 Q1624.47 1622.31 1622.37 1615.14 Q1620.31 1607.98 1616.07 1600.66 Z" fill="#000000" fill-rule="evenodd" fill-opacity="1" /><polyline clip-path="url(#clip902)" style="stroke:#000000; stroke-linecap:butt; stroke-linejoin:round; stroke-width:2; stroke-opacity:0.1; fill:none" points="
  102.74,1313.55 2352.76,1313.55 
  "/>
<polyline clip-path="url(#clip902)" style="stroke:#000000; stroke-linecap:butt; stroke-linejoin:round; stroke-width:2; stroke-opacity:0.1; fill:none" points="
  102.74,986.314 2352.76,986.314 
  "/>
<polyline clip-path="url(#clip902)" style="stroke:#000000; stroke-linecap:butt; stroke-linejoin:round; stroke-width:2; stroke-opacity:0.1; fill:none" points="
  102.74,659.08 2352.76,659.08 
  "/>
<polyline clip-path="url(#clip902)" style="stroke:#000000; stroke-linecap:butt; stroke-linejoin:round; stroke-width:2; stroke-opacity:0.1; fill:none" points="
  102.74,331.846 2352.76,331.846 
  "/>
<polyline clip-path="url(#clip900)" style="stroke:#000000; stroke-linecap:butt; stroke-linejoin:round; stroke-width:4; stroke-opacity:1; fill:none" points="
  102.74,1505.26 102.74,62.9921 
  "/>
<polyline clip-path="url(#clip900)" style="stroke:#000000; stroke-linecap:butt; stroke-linejoin:round; stroke-width:4; stroke-opacity:1; fill:none" points="
  102.74,1313.55 121.638,1313.55 
  "/>
<polyline clip-path="url(#clip900)" style="stroke:#000000; stroke-linecap:butt; stroke-linejoin:round; stroke-width:4; stroke-opacity:1; fill:none" points="
  102.74,986.314 121.638,986.314 
  "/>
<polyline clip-path="url(#clip900)" style="stroke:#000000; stroke-linecap:butt; stroke-linejoin:round; stroke-width:4; stroke-opacity:1; fill:none" points="
  102.74,659.08 121.638,659.08 
  "/>
<polyline clip-path="url(#clip900)" style="stroke:#000000; stroke-linecap:butt; stroke-linejoin:round; stroke-width:4; stroke-opacity:1; fill:none" points="
  102.74,331.846 121.638,331.846 
  "/>
<path clip-path="url(#clip900)" d="M11.1618 1299.35 Q7.55066 1299.35 5.72197 1302.91 Q3.91642 1306.45 3.91642 1313.58 Q3.91642 1320.69 5.72197 1324.25 Q7.55066 1327.8 11.1618 1327.8 Q14.796 1327.8 16.6015 1324.25 Q18.4302 1320.69 18.4302 1313.58 Q18.4302 1306.45 16.6015 1302.91 Q14.796 1299.35 11.1618 1299.35 M11.1618 1295.64 Q16.9719 1295.64 20.0274 1300.25 Q23.1061 1304.83 23.1061 1313.58 Q23.1061 1322.31 20.0274 1326.92 Q16.9719 1331.5 11.1618 1331.5 Q5.3516 1331.5 2.27291 1326.92 Q-0.782629 1322.31 -0.782629 1313.58 Q-0.782629 1304.83 2.27291 1300.25 Q5.3516 1295.64 11.1618 1295.64 Z" fill="#000000" fill-rule="evenodd" fill-opacity="1" /><path clip-path="url(#clip900)" d="M31.3237 1324.95 L36.2079 1324.95 L36.2079 1330.83 L31.3237 1330.83 L31.3237 1324.95 Z" fill="#000000" fill-rule="evenodd" fill-opacity="1" /><path clip-path="url(#clip900)" d="M50.4208 1326.89 L66.7402 1326.89 L66.7402 1330.83 L44.7958 1330.83 L44.7958 1326.89 Q47.4579 1324.14 52.0412 1319.51 Q56.6476 1314.86 57.8282 1313.51 Q60.0735 1310.99 60.9532 1309.25 Q61.8559 1307.5 61.8559 1305.81 Q61.8559 1303.05 59.9115 1301.31 Q57.9902 1299.58 54.8884 1299.58 Q52.6893 1299.58 50.2356 1300.34 Q47.8051 1301.11 45.0273 1302.66 L45.0273 1297.93 Q47.8514 1296.8 50.3051 1296.22 Q52.7588 1295.64 54.7958 1295.64 Q60.1661 1295.64 63.3605 1298.33 Q66.555 1301.01 66.555 1305.5 Q66.555 1307.63 65.7448 1309.56 Q64.9578 1311.45 62.8513 1314.05 Q62.2726 1314.72 59.1708 1317.93 Q56.0689 1321.13 50.4208 1326.89 Z" fill="#000000" fill-rule="evenodd" fill-opacity="1" /><path clip-path="url(#clip900)" d="M9.07843 972.113 Q5.46734 972.113 3.63864 975.677 Q1.8331 979.219 1.8331 986.349 Q1.8331 993.455 3.63864 997.02 Q5.46734 1000.56 9.07843 1000.56 Q12.7127 1000.56 14.5182 997.02 Q16.3469 993.455 16.3469 986.349 Q16.3469 979.219 14.5182 975.677 Q12.7127 972.113 9.07843 972.113 M9.07843 968.409 Q14.8886 968.409 17.9441 973.015 Q21.0228 977.599 21.0228 986.349 Q21.0228 995.076 17.9441 999.682 Q14.8886 1004.27 9.07843 1004.27 Q3.26828 1004.27 0.189588 999.682 Q-2.86595 995.076 -2.86595 986.349 Q-2.86595 977.599 0.189588 973.015 Q3.26828 968.409 9.07843 968.409 Z" fill="#000000" fill-rule="evenodd" fill-opacity="1" /><path clip-path="url(#clip900)" d="M29.2404 997.714 L34.1246 997.714 L34.1246 1003.59 L29.2404 1003.59 L29.2404 997.714 Z" fill="#000000" fill-rule="evenodd" fill-opacity="1" /><path clip-path="url(#clip900)" d="M57.1569 973.108 L45.3514 991.557 L57.1569 991.557 L57.1569 973.108 M55.93 969.034 L61.8096 969.034 L61.8096 991.557 L66.7402 991.557 L66.7402 995.446 L61.8096 995.446 L61.8096 1003.59 L57.1569 1003.59 L57.1569 995.446 L41.5551 995.446 L41.5551 990.932 L55.93 969.034 Z" fill="#000000" fill-rule="evenodd" fill-opacity="1" /><path clip-path="url(#clip900)" d="M9.4025 644.878 Q5.79141 644.878 3.96272 648.443 Q2.15717 651.985 2.15717 659.114 Q2.15717 666.221 3.96272 669.786 Q5.79141 673.327 9.4025 673.327 Q13.0367 673.327 14.8423 669.786 Q16.671 666.221 16.671 659.114 Q16.671 651.985 14.8423 648.443 Q13.0367 644.878 9.4025 644.878 M9.4025 641.175 Q15.2127 641.175 18.2682 645.781 Q21.3469 650.365 21.3469 659.114 Q21.3469 667.841 18.2682 672.448 Q15.2127 677.031 9.4025 677.031 Q3.59235 677.031 0.51366 672.448 Q-2.54188 667.841 -2.54188 659.114 Q-2.54188 650.365 0.51366 645.781 Q3.59235 641.175 9.4025 641.175 Z" fill="#000000" fill-rule="evenodd" fill-opacity="1" /><path clip-path="url(#clip900)" d="M29.5644 670.48 L34.4487 670.48 L34.4487 676.36 L29.5644 676.36 L29.5644 670.48 Z" fill="#000000" fill-rule="evenodd" fill-opacity="1" /><path clip-path="url(#clip900)" d="M55.2124 657.216 Q52.0643 657.216 50.2125 659.369 Q48.3838 661.522 48.3838 665.272 Q48.3838 668.999 50.2125 671.175 Q52.0643 673.327 55.2124 673.327 Q58.3606 673.327 60.1893 671.175 Q62.0411 668.999 62.0411 665.272 Q62.0411 661.522 60.1893 659.369 Q58.3606 657.216 55.2124 657.216 M64.4948 642.564 L64.4948 646.823 Q62.7355 645.99 60.93 645.55 Q59.1476 645.11 57.3884 645.11 Q52.7588 645.11 50.3051 648.235 Q47.8745 651.36 47.5273 657.679 Q48.893 655.665 50.9532 654.601 Q53.0134 653.513 55.4902 653.513 Q60.6985 653.513 63.7078 656.684 Q66.7402 659.832 66.7402 665.272 Q66.7402 670.596 63.592 673.813 Q60.4439 677.031 55.2124 677.031 Q49.2171 677.031 46.0458 672.448 Q42.8745 667.841 42.8745 659.114 Q42.8745 650.92 46.7634 646.059 Q50.6523 641.175 57.2032 641.175 Q58.9624 641.175 60.7448 641.522 Q62.5504 641.869 64.4948 642.564 Z" fill="#000000" fill-rule="evenodd" fill-opacity="1" /><path clip-path="url(#clip900)" d="M9.65713 317.644 Q6.04604 317.644 4.21734 321.209 Q2.4118 324.751 2.4118 331.88 Q2.4118 338.987 4.21734 342.551 Q6.04604 346.093 9.65713 346.093 Q13.2914 346.093 15.0969 342.551 Q16.9256 338.987 16.9256 331.88 Q16.9256 324.751 15.0969 321.209 Q13.2914 317.644 9.65713 317.644 M9.65713 313.941 Q15.4673 313.941 18.5228 318.547 Q21.6015 323.13 21.6015 331.88 Q21.6015 340.607 18.5228 345.214 Q15.4673 349.797 9.65713 349.797 Q3.84698 349.797 0.768289 345.214 Q-2.28725 340.607 -2.28725 331.88 Q-2.28725 323.13 0.768289 318.547 Q3.84698 313.941 9.65713 313.941 Z" fill="#000000" fill-rule="evenodd" fill-opacity="1" /><path clip-path="url(#clip900)" d="M29.8191 343.246 L34.7033 343.246 L34.7033 349.126 L29.8191 349.126 L29.8191 343.246 Z" fill="#000000" fill-rule="evenodd" fill-opacity="1" /><path clip-path="url(#clip900)" d="M54.8884 332.714 Q51.5551 332.714 49.6338 334.496 Q47.7356 336.278 47.7356 339.403 Q47.7356 342.528 49.6338 344.311 Q51.5551 346.093 54.8884 346.093 Q58.2217 346.093 60.143 344.311 Q62.0643 342.505 62.0643 339.403 Q62.0643 336.278 60.143 334.496 Q58.2448 332.714 54.8884 332.714 M50.2125 330.723 Q47.2032 329.982 45.5134 327.922 Q43.8468 325.862 43.8468 322.899 Q43.8468 318.755 46.7866 316.348 Q49.7495 313.941 54.8884 313.941 Q60.0504 313.941 62.9902 316.348 Q65.93 318.755 65.93 322.899 Q65.93 325.862 64.2402 327.922 Q62.5735 329.982 59.5874 330.723 Q62.967 331.51 64.842 333.802 Q66.7402 336.093 66.7402 339.403 Q66.7402 344.426 63.6615 347.112 Q60.6059 349.797 54.8884 349.797 Q49.1708 349.797 46.0921 347.112 Q43.0366 344.426 43.0366 339.403 Q43.0366 336.093 44.9347 333.802 Q46.8329 331.51 50.2125 330.723 M48.4995 323.339 Q48.4995 326.024 50.1662 327.528 Q51.856 329.033 54.8884 329.033 Q57.8976 329.033 59.5874 327.528 Q61.3004 326.024 61.3004 323.339 Q61.3004 320.653 59.5874 319.149 Q57.8976 317.644 54.8884 317.644 Q51.856 317.644 50.1662 319.149 Q48.4995 320.653 48.4995 323.339 Z" fill="#000000" fill-rule="evenodd" fill-opacity="1" /><path clip-path="url(#clip900)" d="M-95.3584 1124.82 L-77.5026 1124.82 L-77.5026 1116.73 Q-77.5026 1112.25 -79.8261 1109.8 Q-82.1496 1107.34 -86.4464 1107.34 Q-90.7114 1107.34 -93.0349 1109.8 Q-95.3584 1112.25 -95.3584 1116.73 L-95.3584 1124.82 M-100.642 1131.25 L-100.642 1116.73 Q-100.642 1108.75 -97.0135 1104.67 Q-93.4169 1100.57 -86.4464 1100.57 Q-79.4123 1100.57 -75.8157 1104.67 Q-72.2191 1108.75 -72.2191 1116.73 L-72.2191 1124.82 L-53.122 1124.82 L-53.122 1131.25 L-100.642 1131.25 Z" fill="#000000" fill-rule="evenodd" fill-opacity="1" /><path clip-path="url(#clip900)" d="M-83.2954 1072.68 Q-83.8683 1073.67 -84.1229 1074.85 Q-84.4094 1075.99 -84.4094 1077.39 Q-84.4094 1082.36 -81.1629 1085.03 Q-77.9482 1087.67 -71.9008 1087.67 L-53.122 1087.67 L-53.122 1093.56 L-88.7699 1093.56 L-88.7699 1087.67 L-83.2317 1087.67 Q-86.4783 1085.83 -88.0379 1082.87 Q-89.6293 1079.91 -89.6293 1075.68 Q-89.6293 1075.07 -89.5338 1074.34 Q-89.4701 1073.61 -89.311 1072.72 L-83.2954 1072.68 Z" fill="#000000" fill-rule="evenodd" fill-opacity="1" /><path clip-path="url(#clip900)" d="M-84.664 1054.16 Q-84.664 1058.87 -80.9719 1061.61 Q-77.3116 1064.34 -70.9141 1064.34 Q-64.5166 1064.34 -60.8245 1061.64 Q-57.1642 1058.9 -57.1642 1054.16 Q-57.1642 1049.48 -60.8563 1046.74 Q-64.5484 1044.01 -70.9141 1044.01 Q-77.248 1044.01 -80.9401 1046.74 Q-84.664 1049.48 -84.664 1054.16 M-89.6293 1054.16 Q-89.6293 1046.52 -84.664 1042.16 Q-79.6988 1037.8 -70.9141 1037.8 Q-62.1613 1037.8 -57.1642 1042.16 Q-52.1989 1046.52 -52.1989 1054.16 Q-52.1989 1061.83 -57.1642 1066.19 Q-62.1613 1070.52 -70.9141 1070.52 Q-79.6988 1070.52 -84.664 1066.19 Q-89.6293 1061.83 -89.6293 1054.16 Z" fill="#000000" fill-rule="evenodd" fill-opacity="1" /><path clip-path="url(#clip900)" d="M-70.9141 1002.5 Q-77.3753 1002.5 -81.0356 1005.18 Q-84.7277 1007.82 -84.7277 1012.46 Q-84.7277 1017.11 -81.0356 1019.78 Q-77.3753 1022.43 -70.9141 1022.43 Q-64.4529 1022.43 -60.7608 1019.78 Q-57.1005 1017.11 -57.1005 1012.46 Q-57.1005 1007.82 -60.7608 1005.18 Q-64.4529 1002.5 -70.9141 1002.5 M-83.3591 1022.43 Q-86.5419 1020.58 -88.0697 1017.78 Q-89.6293 1014.95 -89.6293 1011.03 Q-89.6293 1004.54 -84.4731 1000.5 Q-79.3168 996.422 -70.9141 996.422 Q-62.5114 996.422 -57.3551 1000.5 Q-52.1989 1004.54 -52.1989 1011.03 Q-52.1989 1014.95 -53.7267 1017.78 Q-55.2863 1020.58 -58.4691 1022.43 L-53.122 1022.43 L-53.122 1028.31 L-102.647 1028.31 L-102.647 1022.43 L-83.3591 1022.43 Z" fill="#000000" fill-rule="evenodd" fill-opacity="1" /><path clip-path="url(#clip900)" d="M-71.0414 970.514 Q-71.0414 977.612 -69.4182 980.349 Q-67.7949 983.086 -63.88 983.086 Q-60.7608 983.086 -58.9147 981.049 Q-57.1005 978.98 -57.1005 975.447 Q-57.1005 970.578 -60.538 967.649 Q-64.0073 964.689 -69.7364 964.689 L-71.0414 964.689 L-71.0414 970.514 M-73.4604 958.833 L-53.122 958.833 L-53.122 964.689 L-58.5328 964.689 Q-55.2863 966.694 -53.7267 969.686 Q-52.1989 972.678 -52.1989 977.007 Q-52.1989 982.481 -55.2545 985.728 Q-58.3418 988.943 -63.4981 988.943 Q-69.5136 988.943 -72.5692 984.932 Q-75.6247 980.89 -75.6247 972.901 L-75.6247 964.689 L-76.1976 964.689 Q-80.2399 964.689 -82.436 967.363 Q-84.664 970.005 -84.664 974.811 Q-84.664 977.866 -83.932 980.763 Q-83.1999 983.659 -81.7358 986.333 L-87.1467 986.333 Q-88.388 983.118 -88.9927 980.094 Q-89.6293 977.071 -89.6293 974.206 Q-89.6293 966.472 -85.6189 962.652 Q-81.6085 958.833 -73.4604 958.833 Z" fill="#000000" fill-rule="evenodd" fill-opacity="1" /><path clip-path="url(#clip900)" d="M-70.9141 921.18 Q-77.3753 921.18 -81.0356 923.853 Q-84.7277 926.495 -84.7277 931.142 Q-84.7277 935.789 -81.0356 938.463 Q-77.3753 941.104 -70.9141 941.104 Q-64.4529 941.104 -60.7608 938.463 Q-57.1005 935.789 -57.1005 931.142 Q-57.1005 926.495 -60.7608 923.853 Q-64.4529 921.18 -70.9141 921.18 M-83.3591 941.104 Q-86.5419 939.258 -88.0697 936.457 Q-89.6293 933.625 -89.6293 929.71 Q-89.6293 923.217 -84.4731 919.174 Q-79.3168 915.1 -70.9141 915.1 Q-62.5114 915.1 -57.3551 919.174 Q-52.1989 923.217 -52.1989 929.71 Q-52.1989 933.625 -53.7267 936.457 Q-55.2863 939.258 -58.4691 941.104 L-53.122 941.104 L-53.122 946.993 L-102.647 946.993 L-102.647 941.104 L-83.3591 941.104 Z" fill="#000000" fill-rule="evenodd" fill-opacity="1" /><path clip-path="url(#clip900)" d="M-88.7699 905.393 L-88.7699 899.536 L-53.122 899.536 L-53.122 905.393 L-88.7699 905.393 M-102.647 905.393 L-102.647 899.536 L-95.2311 899.536 L-95.2311 905.393 L-102.647 905.393 Z" fill="#000000" fill-rule="evenodd" fill-opacity="1" /><path clip-path="url(#clip900)" d="M-102.647 887.282 L-102.647 881.426 L-53.122 881.426 L-53.122 887.282 L-102.647 887.282 Z" fill="#000000" fill-rule="evenodd" fill-opacity="1" /><path clip-path="url(#clip900)" d="M-88.7699 869.172 L-88.7699 863.315 L-53.122 863.315 L-53.122 869.172 L-88.7699 869.172 M-102.647 869.172 L-102.647 863.315 L-95.2311 863.315 L-95.2311 869.172 L-102.647 869.172 Z" fill="#000000" fill-rule="evenodd" fill-opacity="1" /><path clip-path="url(#clip900)" d="M-98.8914 845.269 L-88.7699 845.269 L-88.7699 833.206 L-84.2184 833.206 L-84.2184 845.269 L-64.8667 845.269 Q-60.5062 845.269 -59.2649 844.091 Q-58.0235 842.881 -58.0235 839.221 L-58.0235 833.206 L-53.122 833.206 L-53.122 839.221 Q-53.122 846.001 -55.6364 848.579 Q-58.1827 851.157 -64.8667 851.157 L-84.2184 851.157 L-84.2184 855.454 L-88.7699 855.454 L-88.7699 851.157 L-98.8914 851.157 L-98.8914 845.269 Z" fill="#000000" fill-rule="evenodd" fill-opacity="1" /><path clip-path="url(#clip900)" d="M-49.8118 810.671 Q-43.4461 813.154 -41.5045 815.509 Q-39.563 817.864 -39.563 821.811 L-39.563 826.49 L-44.4646 826.49 L-44.4646 823.052 Q-44.4646 820.633 -45.6104 819.297 Q-46.7562 817.96 -51.0213 816.336 L-53.6949 815.286 L-88.7699 829.704 L-88.7699 823.498 L-60.8881 812.358 L-88.7699 801.218 L-88.7699 795.011 L-49.8118 810.671 Z" fill="#000000" fill-rule="evenodd" fill-opacity="1" /><path clip-path="url(#clip900)" d="M-84.664 752.393 Q-84.664 757.104 -80.9719 759.841 Q-77.3116 762.578 -70.9141 762.578 Q-64.5166 762.578 -60.8245 759.873 Q-57.1642 757.135 -57.1642 752.393 Q-57.1642 747.714 -60.8563 744.977 Q-64.5484 742.24 -70.9141 742.24 Q-77.248 742.24 -80.9401 744.977 Q-84.664 747.714 -84.664 752.393 M-89.6293 752.393 Q-89.6293 744.754 -84.664 740.394 Q-79.6988 736.033 -70.9141 736.033 Q-62.1613 736.033 -57.1642 740.394 Q-52.1989 744.754 -52.1989 752.393 Q-52.1989 760.064 -57.1642 764.424 Q-62.1613 768.753 -70.9141 768.753 Q-79.6988 768.753 -84.664 764.424 Q-89.6293 760.064 -89.6293 752.393 Z" fill="#000000" fill-rule="evenodd" fill-opacity="1" /><path clip-path="url(#clip900)" d="M-102.647 708.279 L-97.7774 708.279 L-97.7774 713.88 Q-97.7774 717.031 -96.5042 718.273 Q-95.2311 719.482 -91.9209 719.482 L-88.7699 719.482 L-88.7699 709.838 L-84.2184 709.838 L-84.2184 719.482 L-53.122 719.482 L-53.122 725.371 L-84.2184 725.371 L-84.2184 730.972 L-88.7699 730.972 L-88.7699 725.371 L-91.2525 725.371 Q-97.2045 725.371 -99.9099 722.601 Q-102.647 719.832 -102.647 713.817 L-102.647 708.279 Z" fill="#000000" fill-rule="evenodd" fill-opacity="1" /><path clip-path="url(#clip900)" d="M-87.7196 659.931 L-82.1814 659.931 Q-83.4545 662.414 -84.0911 665.087 Q-84.7277 667.761 -84.7277 670.625 Q-84.7277 674.986 -83.3909 677.182 Q-82.0541 679.346 -79.3805 679.346 Q-77.3435 679.346 -76.1658 677.787 Q-75.02 676.227 -73.9696 671.517 L-73.524 669.511 Q-72.1872 663.273 -69.7364 660.663 Q-67.3175 658.021 -62.957 658.021 Q-57.9917 658.021 -55.0953 661.968 Q-52.1989 665.883 -52.1989 672.758 Q-52.1989 675.623 -52.7718 678.742 Q-53.3129 681.829 -54.4269 685.267 L-60.4743 685.267 Q-58.7874 682.02 -57.9281 678.869 Q-57.1005 675.718 -57.1005 672.631 Q-57.1005 668.493 -58.501 666.265 Q-59.9333 664.037 -62.5114 664.037 Q-64.8985 664.037 -66.1716 665.66 Q-67.4448 667.252 -68.6224 672.694 L-69.0999 674.731 Q-70.2457 680.174 -72.601 682.593 Q-74.9882 685.012 -79.1259 685.012 Q-84.1548 685.012 -86.892 681.447 Q-89.6293 677.882 -89.6293 671.326 Q-89.6293 668.079 -89.1519 665.215 Q-88.6744 662.35 -87.7196 659.931 Z" fill="#000000" fill-rule="evenodd" fill-opacity="1" /><path clip-path="url(#clip900)" d="M-67.1902 649.3 L-88.7699 649.3 L-88.7699 643.444 L-67.413 643.444 Q-62.3522 643.444 -59.8059 641.47 Q-57.2915 639.497 -57.2915 635.55 Q-57.2915 630.808 -60.3152 628.071 Q-63.3389 625.302 -68.5588 625.302 L-88.7699 625.302 L-88.7699 619.445 L-53.122 619.445 L-53.122 625.302 L-58.5965 625.302 Q-55.3499 627.434 -53.7585 630.267 Q-52.1989 633.068 -52.1989 636.792 Q-52.1989 642.935 -56.0183 646.117 Q-59.8378 649.3 -67.1902 649.3 M-89.6293 634.564 L-89.6293 634.564 Z" fill="#000000" fill-rule="evenodd" fill-opacity="1" /><path clip-path="url(#clip900)" d="M-87.4013 581.728 L-81.9268 581.728 Q-83.2954 584.211 -83.9638 586.725 Q-84.664 589.208 -84.664 591.754 Q-84.664 597.452 -81.0356 600.603 Q-77.439 603.754 -70.9141 603.754 Q-64.3893 603.754 -60.7608 600.603 Q-57.1642 597.452 -57.1642 591.754 Q-57.1642 589.208 -57.8326 586.725 Q-58.5328 584.211 -59.9014 581.728 L-54.4906 581.728 Q-53.3448 584.179 -52.7718 586.821 Q-52.1989 589.431 -52.1989 592.391 Q-52.1989 600.444 -57.2597 605.186 Q-62.3204 609.928 -70.9141 609.928 Q-79.6351 609.928 -84.6322 605.154 Q-89.6293 600.348 -89.6293 592.009 Q-89.6293 589.304 -89.0564 586.725 Q-88.5153 584.147 -87.4013 581.728 Z" fill="#000000" fill-rule="evenodd" fill-opacity="1" /><path clip-path="url(#clip900)" d="M-87.4013 545.889 L-81.9268 545.889 Q-83.2954 548.372 -83.9638 550.886 Q-84.664 553.369 -84.664 555.915 Q-84.664 561.613 -81.0356 564.764 Q-77.439 567.915 -70.9141 567.915 Q-64.3893 567.915 -60.7608 564.764 Q-57.1642 561.613 -57.1642 555.915 Q-57.1642 553.369 -57.8326 550.886 Q-58.5328 548.372 -59.9014 545.889 L-54.4906 545.889 Q-53.3448 548.34 -52.7718 550.982 Q-52.1989 553.592 -52.1989 556.552 Q-52.1989 564.605 -57.2597 569.347 Q-62.3204 574.089 -70.9141 574.089 Q-79.6351 574.089 -84.6322 569.315 Q-89.6293 564.509 -89.6293 556.17 Q-89.6293 553.465 -89.0564 550.886 Q-88.5153 548.308 -87.4013 545.889 Z" fill="#000000" fill-rule="evenodd" fill-opacity="1" /><path clip-path="url(#clip900)" d="M-72.41 505.213 L-69.5455 505.213 L-69.5455 532.139 Q-63.4981 531.758 -60.3152 528.511 Q-57.1642 525.233 -57.1642 519.408 Q-57.1642 516.034 -57.9917 512.883 Q-58.8193 509.7 -60.4743 506.581 L-54.9362 506.581 Q-53.5994 509.732 -52.8992 513.042 Q-52.1989 516.353 -52.1989 519.758 Q-52.1989 528.288 -57.1642 533.285 Q-62.1294 538.251 -70.5958 538.251 Q-79.3487 538.251 -84.4731 533.54 Q-89.6293 528.797 -89.6293 520.777 Q-89.6293 513.583 -84.9823 509.414 Q-80.3672 505.213 -72.41 505.213 M-74.1288 511.069 Q-78.9349 511.133 -81.7995 513.774 Q-84.664 516.384 -84.664 520.713 Q-84.664 525.615 -81.8949 528.575 Q-79.1259 531.503 -74.097 531.949 L-74.1288 511.069 Z" fill="#000000" fill-rule="evenodd" fill-opacity="1" /><path clip-path="url(#clip900)" d="M-87.7196 472.875 L-82.1814 472.875 Q-83.4545 475.357 -84.0911 478.031 Q-84.7277 480.705 -84.7277 483.569 Q-84.7277 487.93 -83.3909 490.126 Q-82.0541 492.29 -79.3805 492.29 Q-77.3435 492.29 -76.1658 490.731 Q-75.02 489.171 -73.9696 484.46 L-73.524 482.455 Q-72.1872 476.217 -69.7364 473.607 Q-67.3175 470.965 -62.957 470.965 Q-57.9917 470.965 -55.0953 474.912 Q-52.1989 478.827 -52.1989 485.702 Q-52.1989 488.566 -52.7718 491.685 Q-53.3129 494.773 -54.4269 498.21 L-60.4743 498.21 Q-58.7874 494.964 -57.9281 491.813 Q-57.1005 488.662 -57.1005 485.574 Q-57.1005 481.437 -58.501 479.209 Q-59.9333 476.981 -62.5114 476.981 Q-64.8985 476.981 -66.1716 478.604 Q-67.4448 480.195 -68.6224 485.638 L-69.0999 487.675 Q-70.2457 493.118 -72.601 495.537 Q-74.9882 497.956 -79.1259 497.956 Q-84.1548 497.956 -86.892 494.391 Q-89.6293 490.826 -89.6293 484.269 Q-89.6293 481.023 -89.1519 478.158 Q-88.6744 475.294 -87.7196 472.875 Z" fill="#000000" fill-rule="evenodd" fill-opacity="1" /><path clip-path="url(#clip900)" d="M-87.7196 438.914 L-82.1814 438.914 Q-83.4545 441.396 -84.0911 444.07 Q-84.7277 446.744 -84.7277 449.608 Q-84.7277 453.969 -83.3909 456.165 Q-82.0541 458.329 -79.3805 458.329 Q-77.3435 458.329 -76.1658 456.77 Q-75.02 455.21 -73.9696 450.499 L-73.524 448.494 Q-72.1872 442.256 -69.7364 439.646 Q-67.3175 437.004 -62.957 437.004 Q-57.9917 437.004 -55.0953 440.951 Q-52.1989 444.866 -52.1989 451.741 Q-52.1989 454.605 -52.7718 457.724 Q-53.3129 460.812 -54.4269 464.249 L-60.4743 464.249 Q-58.7874 461.003 -57.9281 457.852 Q-57.1005 454.701 -57.1005 451.613 Q-57.1005 447.476 -58.501 445.248 Q-59.9333 443.02 -62.5114 443.02 Q-64.8985 443.02 -66.1716 444.643 Q-67.4448 446.234 -68.6224 451.677 L-69.0999 453.714 Q-70.2457 459.157 -72.601 461.576 Q-74.9882 463.995 -79.1259 463.995 Q-84.1548 463.995 -86.892 460.43 Q-89.6293 456.865 -89.6293 450.308 Q-89.6293 447.062 -89.1519 444.197 Q-88.6744 441.333 -87.7196 438.914 Z" fill="#000000" fill-rule="evenodd" fill-opacity="1" /><path clip-path="url(#clip900)" d="M732.302 18.8205 L732.302 65.8515 L742.186 65.8515 Q754.704 65.8515 760.496 60.1802 Q766.33 54.509 766.33 42.2752 Q766.33 30.1225 760.496 24.4918 Q754.704 18.8205 742.186 18.8205 L732.302 18.8205 M724.119 12.096 L740.931 12.096 Q758.512 12.096 766.735 19.4281 Q774.958 26.7198 774.958 42.2752 Q774.958 57.9117 766.694 65.2439 Q758.431 72.576 740.931 72.576 L724.119 72.576 L724.119 12.096 Z" fill="#000000" fill-rule="evenodd" fill-opacity="1" /><path clip-path="url(#clip900)" d="M808.297 49.7694 Q799.264 49.7694 795.78 51.8354 Q792.296 53.9013 792.296 58.8839 Q792.296 62.8538 794.889 65.2034 Q797.522 67.5124 802.018 67.5124 Q808.216 67.5124 811.943 63.1374 Q815.71 58.7219 815.71 51.4303 L815.71 49.7694 L808.297 49.7694 M823.164 46.6907 L823.164 72.576 L815.71 72.576 L815.71 65.6895 Q813.158 69.8214 809.35 71.8063 Q805.543 73.7508 800.033 73.7508 Q793.066 73.7508 788.934 69.8619 Q784.842 65.9325 784.842 59.3701 Q784.842 51.7138 789.947 47.825 Q795.091 43.9361 805.259 43.9361 L815.71 43.9361 L815.71 43.2069 Q815.71 38.0623 812.308 35.2672 Q808.945 32.4315 802.828 32.4315 Q798.94 32.4315 795.253 33.3632 Q791.567 34.295 788.164 36.1584 L788.164 29.2718 Q792.256 27.692 796.104 26.9223 Q799.952 26.1121 803.598 26.1121 Q813.442 26.1121 818.303 31.2163 Q823.164 36.3204 823.164 46.6907 Z" fill="#000000" fill-rule="evenodd" fill-opacity="1" /><path clip-path="url(#clip900)" d="M845.89 14.324 L845.89 27.2059 L861.242 27.2059 L861.242 32.9987 L845.89 32.9987 L845.89 57.6282 Q845.89 63.1779 847.388 64.7578 Q848.928 66.3376 853.586 66.3376 L861.242 66.3376 L861.242 72.576 L853.586 72.576 Q844.958 72.576 841.677 69.3758 Q838.395 66.1351 838.395 57.6282 L838.395 32.9987 L832.927 32.9987 L832.927 27.2059 L838.395 27.2059 L838.395 14.324 L845.89 14.324 Z" fill="#000000" fill-rule="evenodd" fill-opacity="1" /><path clip-path="url(#clip900)" d="M891.665 49.7694 Q882.631 49.7694 879.147 51.8354 Q875.664 53.9013 875.664 58.8839 Q875.664 62.8538 878.256 65.2034 Q880.889 67.5124 885.386 67.5124 Q891.584 67.5124 895.311 63.1374 Q899.078 58.7219 899.078 51.4303 L899.078 49.7694 L891.665 49.7694 M906.532 46.6907 L906.532 72.576 L899.078 72.576 L899.078 65.6895 Q896.526 69.8214 892.718 71.8063 Q888.91 73.7508 883.401 73.7508 Q876.433 73.7508 872.301 69.8619 Q868.21 65.9325 868.21 59.3701 Q868.21 51.7138 873.314 47.825 Q878.459 43.9361 888.627 43.9361 L899.078 43.9361 L899.078 43.2069 Q899.078 38.0623 895.675 35.2672 Q892.313 32.4315 886.196 32.4315 Q882.307 32.4315 878.621 33.3632 Q874.935 34.295 871.532 36.1584 L871.532 29.2718 Q875.623 27.692 879.472 26.9223 Q883.32 26.1121 886.966 26.1121 Q896.809 26.1121 901.67 31.2163 Q906.532 36.3204 906.532 46.6907 Z" fill="#000000" fill-rule="evenodd" fill-opacity="1" /><path clip-path="url(#clip900)" d="M965.837 32.4315 Q959.841 32.4315 956.358 37.1306 Q952.874 41.7891 952.874 49.9314 Q952.874 58.0738 956.317 62.7728 Q959.801 67.4314 965.837 67.4314 Q971.792 67.4314 975.275 62.7323 Q978.759 58.0333 978.759 49.9314 Q978.759 41.8701 975.275 37.1711 Q971.792 32.4315 965.837 32.4315 M965.837 26.1121 Q975.559 26.1121 981.109 32.4315 Q986.658 38.7509 986.658 49.9314 Q986.658 61.0714 981.109 67.4314 Q975.559 73.7508 965.837 73.7508 Q956.074 73.7508 950.524 67.4314 Q945.015 61.0714 945.015 49.9314 Q945.015 38.7509 950.524 32.4315 Q956.074 26.1121 965.837 26.1121 Z" fill="#000000" fill-rule="evenodd" fill-opacity="1" /><path clip-path="url(#clip900)" d="M1036.73 45.1919 L1036.73 72.576 L1029.27 72.576 L1029.27 45.4349 Q1029.27 38.994 1026.76 35.7938 Q1024.25 32.5936 1019.23 32.5936 Q1013.19 32.5936 1009.71 36.4419 Q1006.22 40.2903 1006.22 46.9338 L1006.22 72.576 L998.73 72.576 L998.73 27.2059 L1006.22 27.2059 L1006.22 34.2544 Q1008.9 30.163 1012.5 28.1376 Q1016.15 26.1121 1020.89 26.1121 Q1028.71 26.1121 1032.72 30.9732 Q1036.73 35.7938 1036.73 45.1919 Z" fill="#000000" fill-rule="evenodd" fill-opacity="1" /><path clip-path="url(#clip900)" d="M1085.18 65.7705 L1085.18 89.8329 L1077.68 89.8329 L1077.68 27.2059 L1085.18 27.2059 L1085.18 34.0924 Q1087.53 30.0415 1091.09 28.0971 Q1094.7 26.1121 1099.68 26.1121 Q1107.94 26.1121 1113.09 32.6746 Q1118.27 39.2371 1118.27 49.9314 Q1118.27 60.6258 1113.09 67.1883 Q1107.94 73.7508 1099.68 73.7508 Q1094.7 73.7508 1091.09 71.8063 Q1087.53 69.8214 1085.18 65.7705 M1110.54 49.9314 Q1110.54 41.7081 1107.13 37.0496 Q1103.77 32.3505 1097.86 32.3505 Q1091.94 32.3505 1088.54 37.0496 Q1085.18 41.7081 1085.18 49.9314 Q1085.18 58.1548 1088.54 62.8538 Q1091.94 67.5124 1097.86 67.5124 Q1103.77 67.5124 1107.13 62.8538 Q1110.54 58.1548 1110.54 49.9314 Z" fill="#000000" fill-rule="evenodd" fill-opacity="1" /><path clip-path="url(#clip900)" d="M1129.86 54.671 L1129.86 27.2059 L1137.31 27.2059 L1137.31 54.3874 Q1137.31 60.8284 1139.82 64.0691 Q1142.33 67.2693 1147.36 67.2693 Q1153.39 67.2693 1156.88 63.421 Q1160.4 59.5726 1160.4 52.9291 L1160.4 27.2059 L1167.86 27.2059 L1167.86 72.576 L1160.4 72.576 L1160.4 65.6084 Q1157.69 69.7404 1154.08 71.7658 Q1150.52 73.7508 1145.78 73.7508 Q1137.96 73.7508 1133.91 68.8897 Q1129.86 64.0286 1129.86 54.671 M1148.61 26.1121 L1148.61 26.1121 Z" fill="#000000" fill-rule="evenodd" fill-opacity="1" /><path clip-path="url(#clip900)" d="M1190.58 14.324 L1190.58 27.2059 L1205.93 27.2059 L1205.93 32.9987 L1190.58 32.9987 L1190.58 57.6282 Q1190.58 63.1779 1192.08 64.7578 Q1193.62 66.3376 1198.28 66.3376 L1205.93 66.3376 L1205.93 72.576 L1198.28 72.576 Q1189.65 72.576 1186.37 69.3758 Q1183.09 66.1351 1183.09 57.6282 L1183.09 32.9987 L1177.62 32.9987 L1177.62 27.2059 L1183.09 27.2059 L1183.09 14.324 L1190.58 14.324 Z" fill="#000000" fill-rule="evenodd" fill-opacity="1" /><path clip-path="url(#clip900)" d="M1223.11 14.324 L1223.11 27.2059 L1238.46 27.2059 L1238.46 32.9987 L1223.11 32.9987 L1223.11 57.6282 Q1223.11 63.1779 1224.61 64.7578 Q1226.15 66.3376 1230.81 66.3376 L1238.46 66.3376 L1238.46 72.576 L1230.81 72.576 Q1222.18 72.576 1218.9 69.3758 Q1215.62 66.1351 1215.62 57.6282 L1215.62 32.9987 L1210.15 32.9987 L1210.15 27.2059 L1215.62 27.2059 L1215.62 14.324 L1223.11 14.324 Z" fill="#000000" fill-rule="evenodd" fill-opacity="1" /><path clip-path="url(#clip900)" d="M1277.19 28.5427 L1277.19 35.5912 Q1274.03 33.9709 1270.63 33.1607 Q1267.22 32.3505 1263.58 32.3505 Q1258.03 32.3505 1255.23 34.0519 Q1252.48 35.7533 1252.48 39.156 Q1252.48 41.7486 1254.46 43.2475 Q1256.45 44.7058 1262.44 46.0426 L1265 46.6097 Q1272.94 48.3111 1276.26 51.4303 Q1279.62 54.509 1279.62 60.0587 Q1279.62 66.3781 1274.6 70.0644 Q1269.61 73.7508 1260.86 73.7508 Q1257.22 73.7508 1253.25 73.0216 Q1249.32 72.3329 1244.94 70.9151 L1244.94 63.2184 Q1249.08 65.3654 1253.09 66.4591 Q1257.1 67.5124 1261.03 67.5124 Q1266.29 67.5124 1269.13 65.73 Q1271.96 63.9071 1271.96 60.6258 Q1271.96 57.5877 1269.9 55.9673 Q1267.87 54.3469 1260.95 52.8481 L1258.35 52.2405 Q1251.43 50.7821 1248.35 47.7845 Q1245.27 44.7463 1245.27 39.4801 Q1245.27 33.0797 1249.81 29.5959 Q1254.34 26.1121 1262.69 26.1121 Q1266.82 26.1121 1270.46 26.7198 Q1274.11 27.3274 1277.19 28.5427 Z" fill="#000000" fill-rule="evenodd" fill-opacity="1" /><path clip-path="url(#clip900)" d="M1317.86 27.2059 L1325.31 27.2059 L1325.31 72.576 L1317.86 72.576 L1317.86 27.2059 M1317.86 9.54393 L1325.31 9.54393 L1325.31 18.9825 L1317.86 18.9825 L1317.86 9.54393 Z" fill="#000000" fill-rule="evenodd" fill-opacity="1" /><path clip-path="url(#clip900)" d="M1378.62 45.1919 L1378.62 72.576 L1371.17 72.576 L1371.17 45.4349 Q1371.17 38.994 1368.66 35.7938 Q1366.15 32.5936 1361.12 32.5936 Q1355.09 32.5936 1351.6 36.4419 Q1348.12 40.2903 1348.12 46.9338 L1348.12 72.576 L1340.63 72.576 L1340.63 27.2059 L1348.12 27.2059 L1348.12 34.2544 Q1350.79 30.163 1354.4 28.1376 Q1358.05 26.1121 1362.78 26.1121 Q1370.6 26.1121 1374.61 30.9732 Q1378.62 35.7938 1378.62 45.1919 Z" fill="#000000" fill-rule="evenodd" fill-opacity="1" /><path clip-path="url(#clip900)" d="M1427.07 65.7705 L1427.07 89.8329 L1419.58 89.8329 L1419.58 27.2059 L1427.07 27.2059 L1427.07 34.0924 Q1429.42 30.0415 1432.99 28.0971 Q1436.59 26.1121 1441.58 26.1121 Q1449.84 26.1121 1454.98 32.6746 Q1460.17 39.2371 1460.17 49.9314 Q1460.17 60.6258 1454.98 67.1883 Q1449.84 73.7508 1441.58 73.7508 Q1436.59 73.7508 1432.99 71.8063 Q1429.42 69.8214 1427.07 65.7705 M1452.43 49.9314 Q1452.43 41.7081 1449.03 37.0496 Q1445.67 32.3505 1439.75 32.3505 Q1433.84 32.3505 1430.44 37.0496 Q1427.07 41.7081 1427.07 49.9314 Q1427.07 58.1548 1430.44 62.8538 Q1433.84 67.5124 1439.75 67.5124 Q1445.67 67.5124 1449.03 62.8538 Q1452.43 58.1548 1452.43 49.9314 Z" fill="#000000" fill-rule="evenodd" fill-opacity="1" /><path clip-path="url(#clip900)" d="M1498.81 34.1734 Q1497.56 33.4443 1496.06 33.1202 Q1494.6 32.7556 1492.82 32.7556 Q1486.5 32.7556 1483.1 36.8875 Q1479.73 40.9789 1479.73 48.6757 L1479.73 72.576 L1472.24 72.576 L1472.24 27.2059 L1479.73 27.2059 L1479.73 34.2544 Q1482.08 30.1225 1485.85 28.1376 Q1489.62 26.1121 1495.01 26.1121 Q1495.78 26.1121 1496.71 26.2337 Q1497.64 26.3147 1498.77 26.5172 L1498.81 34.1734 Z" fill="#000000" fill-rule="evenodd" fill-opacity="1" /><path clip-path="url(#clip900)" d="M1522.39 32.4315 Q1516.4 32.4315 1512.91 37.1306 Q1509.43 41.7891 1509.43 49.9314 Q1509.43 58.0738 1512.87 62.7728 Q1516.35 67.4314 1522.39 67.4314 Q1528.35 67.4314 1531.83 62.7323 Q1535.31 58.0333 1535.31 49.9314 Q1535.31 41.8701 1531.83 37.1711 Q1528.35 32.4315 1522.39 32.4315 M1522.39 26.1121 Q1532.11 26.1121 1537.66 32.4315 Q1543.21 38.7509 1543.21 49.9314 Q1543.21 61.0714 1537.66 67.4314 Q1532.11 73.7508 1522.39 73.7508 Q1512.63 73.7508 1507.08 67.4314 Q1501.57 61.0714 1501.57 49.9314 Q1501.57 38.7509 1507.08 32.4315 Q1512.63 26.1121 1522.39 26.1121 Z" fill="#000000" fill-rule="evenodd" fill-opacity="1" /><path clip-path="url(#clip900)" d="M1611.79 49.3643 Q1611.79 41.2625 1608.43 36.8065 Q1605.11 32.3505 1599.07 32.3505 Q1593.08 32.3505 1589.72 36.8065 Q1586.39 41.2625 1586.39 49.3643 Q1586.39 57.4256 1589.72 61.8816 Q1593.08 66.3376 1599.07 66.3376 Q1605.11 66.3376 1608.43 61.8816 Q1611.79 57.4256 1611.79 49.3643 M1619.25 66.9452 Q1619.25 78.5308 1614.1 84.1616 Q1608.96 89.8329 1598.35 89.8329 Q1594.42 89.8329 1590.93 89.2252 Q1587.45 88.6581 1584.17 87.4428 L1584.17 80.1917 Q1587.45 81.9741 1590.65 82.8248 Q1593.85 83.6755 1597.17 83.6755 Q1604.5 83.6755 1608.15 79.8271 Q1611.79 76.0193 1611.79 68.282 L1611.79 64.5957 Q1609.48 68.6061 1605.88 70.5911 Q1602.27 72.576 1597.25 72.576 Q1588.91 72.576 1583.8 66.2161 Q1578.7 59.8562 1578.7 49.3643 Q1578.7 38.832 1583.8 32.472 Q1588.91 26.1121 1597.25 26.1121 Q1602.27 26.1121 1605.88 28.0971 Q1609.48 30.082 1611.79 34.0924 L1611.79 27.2059 L1619.25 27.2059 L1619.25 66.9452 Z" fill="#000000" fill-rule="evenodd" fill-opacity="1" /><path clip-path="url(#clip900)" d="M1652.18 32.4315 Q1646.19 32.4315 1642.7 37.1306 Q1639.22 41.7891 1639.22 49.9314 Q1639.22 58.0738 1642.66 62.7728 Q1646.15 67.4314 1652.18 67.4314 Q1658.14 67.4314 1661.62 62.7323 Q1665.1 58.0333 1665.1 49.9314 Q1665.1 41.8701 1661.62 37.1711 Q1658.14 32.4315 1652.18 32.4315 M1652.18 26.1121 Q1661.9 26.1121 1667.45 32.4315 Q1673 38.7509 1673 49.9314 Q1673 61.0714 1667.45 67.4314 Q1661.9 73.7508 1652.18 73.7508 Q1642.42 73.7508 1636.87 67.4314 Q1631.36 61.0714 1631.36 49.9314 Q1631.36 38.7509 1636.87 32.4315 Q1642.42 26.1121 1652.18 26.1121 Z" fill="#000000" fill-rule="evenodd" fill-opacity="1" /><path clip-path="url(#clip900)" d="M1685.36 9.54393 L1692.81 9.54393 L1692.81 72.576 L1685.36 72.576 L1685.36 9.54393 Z" fill="#000000" fill-rule="evenodd" fill-opacity="1" /><path clip-path="url(#clip900)" d="M1731.38 9.54393 L1731.38 15.7418 L1724.25 15.7418 Q1720.24 15.7418 1718.66 17.3622 Q1717.12 18.9825 1717.12 23.1955 L1717.12 27.2059 L1729.39 27.2059 L1729.39 32.9987 L1717.12 32.9987 L1717.12 72.576 L1709.62 72.576 L1709.62 32.9987 L1702.49 32.9987 L1702.49 27.2059 L1709.62 27.2059 L1709.62 24.0462 Q1709.62 16.471 1713.15 13.0277 Q1716.67 9.54393 1724.33 9.54393 L1731.38 9.54393 Z" fill="#000000" fill-rule="evenodd" fill-opacity="1" /><polyline clip-path="url(#clip902)" style="stroke:#000000; stroke-linecap:butt; stroke-linejoin:round; stroke-width:4; stroke-opacity:1; fill:none" points="
  166.42,125.382 166.42,103.811 
  "/>
<polyline clip-path="url(#clip902)" style="stroke:#000000; stroke-linecap:butt; stroke-linejoin:round; stroke-width:4; stroke-opacity:1; fill:none" points="
  284.345,303.702 284.345,257.197 
  "/>
<polyline clip-path="url(#clip902)" style="stroke:#000000; stroke-linecap:butt; stroke-linejoin:round; stroke-width:4; stroke-opacity:1; fill:none" points="
  402.271,462.555 402.271,395.319 
  "/>
<polyline clip-path="url(#clip902)" style="stroke:#000000; stroke-linecap:butt; stroke-linejoin:round; stroke-width:4; stroke-opacity:1; fill:none" points="
  520.196,719.536 520.196,633.85 
  "/>
<polyline clip-path="url(#clip902)" style="stroke:#000000; stroke-linecap:butt; stroke-linejoin:round; stroke-width:4; stroke-opacity:1; fill:none" points="
  638.121,793.874 638.121,695.121 
  "/>
<polyline clip-path="url(#clip902)" style="stroke:#000000; stroke-linecap:butt; stroke-linejoin:round; stroke-width:4; stroke-opacity:1; fill:none" points="
  756.047,822.597 756.047,720.536 
  "/>
<polyline clip-path="url(#clip902)" style="stroke:#000000; stroke-linecap:butt; stroke-linejoin:round; stroke-width:4; stroke-opacity:1; fill:none" points="
  873.972,936.712 873.972,831.395 
  "/>
<polyline clip-path="url(#clip902)" style="stroke:#000000; stroke-linecap:butt; stroke-linejoin:round; stroke-width:4; stroke-opacity:1; fill:none" points="
  991.897,1172.25 991.897,1068.8 
  "/>
<polyline clip-path="url(#clip902)" style="stroke:#000000; stroke-linecap:butt; stroke-linejoin:round; stroke-width:4; stroke-opacity:1; fill:none" points="
  1109.82,1147.27 1109.82,1038.06 
  "/>
<polyline clip-path="url(#clip902)" style="stroke:#000000; stroke-linecap:butt; stroke-linejoin:round; stroke-width:4; stroke-opacity:1; fill:none" points="
  1227.75,1172.44 1227.75,1073.58 
  "/>
<polyline clip-path="url(#clip902)" style="stroke:#000000; stroke-linecap:butt; stroke-linejoin:round; stroke-width:4; stroke-opacity:1; fill:none" points="
  1345.67,1269.92 1345.67,1169.26 
  "/>
<polyline clip-path="url(#clip902)" style="stroke:#000000; stroke-linecap:butt; stroke-linejoin:round; stroke-width:4; stroke-opacity:1; fill:none" points="
  1463.6,1299.18 1463.6,1198.38 
  "/>
<polyline clip-path="url(#clip902)" style="stroke:#000000; stroke-linecap:butt; stroke-linejoin:round; stroke-width:4; stroke-opacity:1; fill:none" points="
  1581.52,1190.39 1581.52,1075.62 
  "/>
<polyline clip-path="url(#clip902)" style="stroke:#000000; stroke-linecap:butt; stroke-linejoin:round; stroke-width:4; stroke-opacity:1; fill:none" points="
  1699.45,1413.75 1699.45,1319.16 
  "/>
<polyline clip-path="url(#clip902)" style="stroke:#000000; stroke-linecap:butt; stroke-linejoin:round; stroke-width:4; stroke-opacity:1; fill:none" points="
  1817.37,1460.35 1817.37,1381.64 
  "/>
<polyline clip-path="url(#clip902)" style="stroke:#000000; stroke-linecap:butt; stroke-linejoin:round; stroke-width:4; stroke-opacity:1; fill:none" points="
  1935.3,1423.52 1935.3,1337.83 
  "/>
<polyline clip-path="url(#clip902)" style="stroke:#000000; stroke-linecap:butt; stroke-linejoin:round; stroke-width:4; stroke-opacity:1; fill:none" points="
  2053.23,1402.85 2053.23,1313.34 
  "/>
<polyline clip-path="url(#clip902)" style="stroke:#000000; stroke-linecap:butt; stroke-linejoin:round; stroke-width:4; stroke-opacity:1; fill:none" points="
  2171.15,1464.44 2171.15,1371.91 
  "/>
<polyline clip-path="url(#clip902)" style="stroke:#000000; stroke-linecap:butt; stroke-linejoin:round; stroke-width:4; stroke-opacity:1; fill:none" points="
  2289.08,1430.83 2289.08,1334.05 
  "/>
<line clip-path="url(#clip902)" x1="182.42" y1="125.382" x2="150.42" y2="125.382" style="stroke:#000000; stroke-width:3.2; stroke-opacity:1"/>
<line clip-path="url(#clip902)" x1="182.42" y1="103.811" x2="150.42" y2="103.811" style="stroke:#000000; stroke-width:3.2; stroke-opacity:1"/>
<line clip-path="url(#clip902)" x1="300.345" y1="303.702" x2="268.345" y2="303.702" style="stroke:#000000; stroke-width:3.2; stroke-opacity:1"/>
<line clip-path="url(#clip902)" x1="300.345" y1="257.197" x2="268.345" y2="257.197" style="stroke:#000000; stroke-width:3.2; stroke-opacity:1"/>
<line clip-path="url(#clip902)" x1="418.271" y1="462.555" x2="386.271" y2="462.555" style="stroke:#000000; stroke-width:3.2; stroke-opacity:1"/>
<line clip-path="url(#clip902)" x1="418.271" y1="395.319" x2="386.271" y2="395.319" style="stroke:#000000; stroke-width:3.2; stroke-opacity:1"/>
<line clip-path="url(#clip902)" x1="536.196" y1="719.536" x2="504.196" y2="719.536" style="stroke:#000000; stroke-width:3.2; stroke-opacity:1"/>
<line clip-path="url(#clip902)" x1="536.196" y1="633.85" x2="504.196" y2="633.85" style="stroke:#000000; stroke-width:3.2; stroke-opacity:1"/>
<line clip-path="url(#clip902)" x1="654.121" y1="793.874" x2="622.121" y2="793.874" style="stroke:#000000; stroke-width:3.2; stroke-opacity:1"/>
<line clip-path="url(#clip902)" x1="654.121" y1="695.121" x2="622.121" y2="695.121" style="stroke:#000000; stroke-width:3.2; stroke-opacity:1"/>
<line clip-path="url(#clip902)" x1="772.047" y1="822.597" x2="740.047" y2="822.597" style="stroke:#000000; stroke-width:3.2; stroke-opacity:1"/>
<line clip-path="url(#clip902)" x1="772.047" y1="720.536" x2="740.047" y2="720.536" style="stroke:#000000; stroke-width:3.2; stroke-opacity:1"/>
<line clip-path="url(#clip902)" x1="889.972" y1="936.712" x2="857.972" y2="936.712" style="stroke:#000000; stroke-width:3.2; stroke-opacity:1"/>
<line clip-path="url(#clip902)" x1="889.972" y1="831.395" x2="857.972" y2="831.395" style="stroke:#000000; stroke-width:3.2; stroke-opacity:1"/>
<line clip-path="url(#clip902)" x1="1007.9" y1="1172.25" x2="975.897" y2="1172.25" style="stroke:#000000; stroke-width:3.2; stroke-opacity:1"/>
<line clip-path="url(#clip902)" x1="1007.9" y1="1068.8" x2="975.897" y2="1068.8" style="stroke:#000000; stroke-width:3.2; stroke-opacity:1"/>
<line clip-path="url(#clip902)" x1="1125.82" y1="1147.27" x2="1093.82" y2="1147.27" style="stroke:#000000; stroke-width:3.2; stroke-opacity:1"/>
<line clip-path="url(#clip902)" x1="1125.82" y1="1038.06" x2="1093.82" y2="1038.06" style="stroke:#000000; stroke-width:3.2; stroke-opacity:1"/>
<line clip-path="url(#clip902)" x1="1243.75" y1="1172.44" x2="1211.75" y2="1172.44" style="stroke:#000000; stroke-width:3.2; stroke-opacity:1"/>
<line clip-path="url(#clip902)" x1="1243.75" y1="1073.58" x2="1211.75" y2="1073.58" style="stroke:#000000; stroke-width:3.2; stroke-opacity:1"/>
<line clip-path="url(#clip902)" x1="1361.67" y1="1269.92" x2="1329.67" y2="1269.92" style="stroke:#000000; stroke-width:3.2; stroke-opacity:1"/>
<line clip-path="url(#clip902)" x1="1361.67" y1="1169.26" x2="1329.67" y2="1169.26" style="stroke:#000000; stroke-width:3.2; stroke-opacity:1"/>
<line clip-path="url(#clip902)" x1="1479.6" y1="1299.18" x2="1447.6" y2="1299.18" style="stroke:#000000; stroke-width:3.2; stroke-opacity:1"/>
<line clip-path="url(#clip902)" x1="1479.6" y1="1198.38" x2="1447.6" y2="1198.38" style="stroke:#000000; stroke-width:3.2; stroke-opacity:1"/>
<line clip-path="url(#clip902)" x1="1597.52" y1="1190.39" x2="1565.52" y2="1190.39" style="stroke:#000000; stroke-width:3.2; stroke-opacity:1"/>
<line clip-path="url(#clip902)" x1="1597.52" y1="1075.62" x2="1565.52" y2="1075.62" style="stroke:#000000; stroke-width:3.2; stroke-opacity:1"/>
<line clip-path="url(#clip902)" x1="1715.45" y1="1413.75" x2="1683.45" y2="1413.75" style="stroke:#000000; stroke-width:3.2; stroke-opacity:1"/>
<line clip-path="url(#clip902)" x1="1715.45" y1="1319.16" x2="1683.45" y2="1319.16" style="stroke:#000000; stroke-width:3.2; stroke-opacity:1"/>
<line clip-path="url(#clip902)" x1="1833.37" y1="1460.35" x2="1801.37" y2="1460.35" style="stroke:#000000; stroke-width:3.2; stroke-opacity:1"/>
<line clip-path="url(#clip902)" x1="1833.37" y1="1381.64" x2="1801.37" y2="1381.64" style="stroke:#000000; stroke-width:3.2; stroke-opacity:1"/>
<line clip-path="url(#clip902)" x1="1951.3" y1="1423.52" x2="1919.3" y2="1423.52" style="stroke:#000000; stroke-width:3.2; stroke-opacity:1"/>
<line clip-path="url(#clip902)" x1="1951.3" y1="1337.83" x2="1919.3" y2="1337.83" style="stroke:#000000; stroke-width:3.2; stroke-opacity:1"/>
<line clip-path="url(#clip902)" x1="2069.23" y1="1402.85" x2="2037.23" y2="1402.85" style="stroke:#000000; stroke-width:3.2; stroke-opacity:1"/>
<line clip-path="url(#clip902)" x1="2069.23" y1="1313.34" x2="2037.23" y2="1313.34" style="stroke:#000000; stroke-width:3.2; stroke-opacity:1"/>
<line clip-path="url(#clip902)" x1="2187.15" y1="1464.44" x2="2155.15" y2="1464.44" style="stroke:#000000; stroke-width:3.2; stroke-opacity:1"/>
<line clip-path="url(#clip902)" x1="2187.15" y1="1371.91" x2="2155.15" y2="1371.91" style="stroke:#000000; stroke-width:3.2; stroke-opacity:1"/>
<line clip-path="url(#clip902)" x1="2305.08" y1="1430.83" x2="2273.08" y2="1430.83" style="stroke:#000000; stroke-width:3.2; stroke-opacity:1"/>
<line clip-path="url(#clip902)" x1="2305.08" y1="1334.05" x2="2273.08" y2="1334.05" style="stroke:#000000; stroke-width:3.2; stroke-opacity:1"/>
<circle clip-path="url(#clip902)" cx="166.42" cy="114.596" r="14" fill="#add8e6" fill-rule="evenodd" fill-opacity="1" stroke="#000000" stroke-opacity="1" stroke-width="3.2"/>
<circle clip-path="url(#clip902)" cx="284.345" cy="280.45" r="14" fill="#add8e6" fill-rule="evenodd" fill-opacity="1" stroke="#000000" stroke-opacity="1" stroke-width="3.2"/>
<circle clip-path="url(#clip902)" cx="402.271" cy="428.937" r="14" fill="#add8e6" fill-rule="evenodd" fill-opacity="1" stroke="#000000" stroke-opacity="1" stroke-width="3.2"/>
<circle clip-path="url(#clip902)" cx="520.196" cy="676.693" r="14" fill="#add8e6" fill-rule="evenodd" fill-opacity="1" stroke="#000000" stroke-opacity="1" stroke-width="3.2"/>
<circle clip-path="url(#clip902)" cx="638.121" cy="744.498" r="14" fill="#add8e6" fill-rule="evenodd" fill-opacity="1" stroke="#000000" stroke-opacity="1" stroke-width="3.2"/>
<circle clip-path="url(#clip902)" cx="756.047" cy="771.567" r="14" fill="#add8e6" fill-rule="evenodd" fill-opacity="1" stroke="#000000" stroke-opacity="1" stroke-width="3.2"/>
<circle clip-path="url(#clip902)" cx="873.972" cy="884.053" r="14" fill="#add8e6" fill-rule="evenodd" fill-opacity="1" stroke="#000000" stroke-opacity="1" stroke-width="3.2"/>
<circle clip-path="url(#clip902)" cx="991.897" cy="1120.53" r="14" fill="#add8e6" fill-rule="evenodd" fill-opacity="1" stroke="#000000" stroke-opacity="1" stroke-width="3.2"/>
<circle clip-path="url(#clip902)" cx="1109.82" cy="1092.67" r="14" fill="#add8e6" fill-rule="evenodd" fill-opacity="1" stroke="#000000" stroke-opacity="1" stroke-width="3.2"/>
<circle clip-path="url(#clip902)" cx="1227.75" cy="1123.01" r="14" fill="#add8e6" fill-rule="evenodd" fill-opacity="1" stroke="#000000" stroke-opacity="1" stroke-width="3.2"/>
<circle clip-path="url(#clip902)" cx="1345.67" cy="1219.59" r="14" fill="#add8e6" fill-rule="evenodd" fill-opacity="1" stroke="#000000" stroke-opacity="1" stroke-width="3.2"/>
<circle clip-path="url(#clip902)" cx="1463.6" cy="1248.78" r="14" fill="#add8e6" fill-rule="evenodd" fill-opacity="1" stroke="#000000" stroke-opacity="1" stroke-width="3.2"/>
<circle clip-path="url(#clip902)" cx="1581.52" cy="1133.01" r="14" fill="#add8e6" fill-rule="evenodd" fill-opacity="1" stroke="#000000" stroke-opacity="1" stroke-width="3.2"/>
<circle clip-path="url(#clip902)" cx="1699.45" cy="1366.45" r="14" fill="#add8e6" fill-rule="evenodd" fill-opacity="1" stroke="#000000" stroke-opacity="1" stroke-width="3.2"/>
<circle clip-path="url(#clip902)" cx="1817.37" cy="1421" r="14" fill="#add8e6" fill-rule="evenodd" fill-opacity="1" stroke="#000000" stroke-opacity="1" stroke-width="3.2"/>
<circle clip-path="url(#clip902)" cx="1935.3" cy="1380.67" r="14" fill="#add8e6" fill-rule="evenodd" fill-opacity="1" stroke="#000000" stroke-opacity="1" stroke-width="3.2"/>
<circle clip-path="url(#clip902)" cx="2053.23" cy="1358.09" r="14" fill="#add8e6" fill-rule="evenodd" fill-opacity="1" stroke="#000000" stroke-opacity="1" stroke-width="3.2"/>
<circle clip-path="url(#clip902)" cx="2171.15" cy="1418.17" r="14" fill="#add8e6" fill-rule="evenodd" fill-opacity="1" stroke="#000000" stroke-opacity="1" stroke-width="3.2"/>
<circle clip-path="url(#clip902)" cx="2289.08" cy="1382.44" r="14" fill="#add8e6" fill-rule="evenodd" fill-opacity="1" stroke="#000000" stroke-opacity="1" stroke-width="3.2"/>
</svg>
