<?xml version="1.0" encoding="utf-8"?>
<svg xmlns="http://www.w3.org/2000/svg" xmlns:xlink="http://www.w3.org/1999/xlink" width="580" height="301" viewBox="0 0 2320 1204">
<defs>
  <clipPath id="clip710">
    <rect x="0" y="0" width="2320" height="1204"/>
  </clipPath>
</defs>
<path clip-path="url(#clip710)" d="M0 1204 L2320 1204 L2320 0 L0 0  Z" fill="#ffffff" fill-rule="evenodd" fill-opacity="1"/>
<defs>
  <clipPath id="clip711">
    <rect x="464" y="0" width="1625" height="1204"/>
  </clipPath>
</defs>
<path clip-path="url(#clip710)" d="M208.538 1049.32 L2272.76 1049.32 L2272.76 110.073 L208.538 110.073  Z" fill="#ffffff" fill-rule="evenodd" fill-opacity="1"/>
<defs>
  <clipPath id="clip712">
    <rect x="208" y="110" width="2065" height="940"/>
  </clipPath>
</defs>
<polyline clip-path="url(#clip712)" style="stroke:#000000; stroke-linecap:round; stroke-linejoin:round; stroke-width:2; stroke-opacity:0.1; fill:none" points="591.522,1049.32 591.522,110.073 "/>
<polyline clip-path="url(#clip712)" style="stroke:#000000; stroke-linecap:round; stroke-linejoin:round; stroke-width:2; stroke-opacity:0.1; fill:none" points="1132.46,1049.32 1132.46,110.073 "/>
<polyline clip-path="url(#clip712)" style="stroke:#000000; stroke-linecap:round; stroke-linejoin:round; stroke-width:2; stroke-opacity:0.1; fill:none" points="1673.4,1049.32 1673.4,110.073 "/>
<polyline clip-path="url(#clip712)" style="stroke:#000000; stroke-linecap:round; stroke-linejoin:round; stroke-width:2; stroke-opacity:0.1; fill:none" points="2214.33,1049.32 2214.33,110.073 "/>
<polyline clip-path="url(#clip710)" style="stroke:#000000; stroke-linecap:round; stroke-linejoin:round; stroke-width:4; stroke-opacity:1; fill:none" points="208.538,1049.32 2272.76,1049.32 "/>
<polyline clip-path="url(#clip710)" style="stroke:#000000; stroke-linecap:round; stroke-linejoin:round; stroke-width:4; stroke-opacity:1; fill:none" points="591.522,1049.32 591.522,1030.43 "/>
<polyline clip-path="url(#clip710)" style="stroke:#000000; stroke-linecap:round; stroke-linejoin:round; stroke-width:4; stroke-opacity:1; fill:none" points="1132.46,1049.32 1132.46,1030.43 "/>
<polyline clip-path="url(#clip710)" style="stroke:#000000; stroke-linecap:round; stroke-linejoin:round; stroke-width:4; stroke-opacity:1; fill:none" points="1673.4,1049.32 1673.4,1030.43 "/>
<polyline clip-path="url(#clip710)" style="stroke:#000000; stroke-linecap:round; stroke-linejoin:round; stroke-width:4; stroke-opacity:1; fill:none" points="2214.33,1049.32 2214.33,1030.43 "/>
<path clip-path="url(#clip710)" d="M581.8 1076.52 L600.156 1076.52 L600.156 1080.46 L586.082 1080.46 L586.082 1088.93 Q587.101 1088.58 588.119 1088.42 Q589.138 1088.24 590.156 1088.24 Q595.943 1088.24 599.323 1091.41 Q602.702 1094.58 602.702 1100 Q602.702 1105.58 599.23 1108.68 Q595.758 1111.76 589.439 1111.76 Q587.263 1111.76 584.994 1111.39 Q582.749 1111.02 580.341 1110.27 L580.341 1105.58 Q582.425 1106.71 584.647 1107.27 Q586.869 1107.82 589.346 1107.82 Q593.351 1107.82 595.689 1105.71 Q598.027 1103.61 598.027 1100 Q598.027 1096.39 595.689 1094.28 Q593.351 1092.17 589.346 1092.17 Q587.471 1092.17 585.596 1092.59 Q583.744 1093.01 581.8 1093.89 L581.8 1076.52 Z" fill="#000000" fill-rule="nonzero" fill-opacity="1" /><path clip-path="url(#clip710)" d="M1107.15 1107.15 L1114.79 1107.15 L1114.79 1080.78 L1106.48 1082.45 L1106.48 1078.19 L1114.74 1076.52 L1119.42 1076.52 L1119.42 1107.15 L1127.05 1107.15 L1127.05 1111.08 L1107.15 1111.08 L1107.15 1107.15 Z" fill="#000000" fill-rule="nonzero" fill-opacity="1" /><path clip-path="url(#clip710)" d="M1146.5 1079.6 Q1142.89 1079.6 1141.06 1083.17 Q1139.25 1086.71 1139.25 1093.84 Q1139.25 1100.95 1141.06 1104.51 Q1142.89 1108.05 1146.5 1108.05 Q1150.13 1108.05 1151.94 1104.51 Q1153.77 1100.95 1153.77 1093.84 Q1153.77 1086.71 1151.94 1083.17 Q1150.13 1079.6 1146.5 1079.6 M1146.5 1075.9 Q1152.31 1075.9 1155.36 1080.51 Q1158.44 1085.09 1158.44 1093.84 Q1158.44 1102.57 1155.36 1107.17 Q1152.31 1111.76 1146.5 1111.76 Q1140.69 1111.76 1137.61 1107.17 Q1134.55 1102.57 1134.55 1093.84 Q1134.55 1085.09 1137.61 1080.51 Q1140.69 1075.9 1146.5 1075.9 Z" fill="#000000" fill-rule="nonzero" fill-opacity="1" /><path clip-path="url(#clip710)" d="M1648.58 1107.15 L1656.22 1107.15 L1656.22 1080.78 L1647.91 1082.45 L1647.91 1078.19 L1656.17 1076.52 L1660.85 1076.52 L1660.85 1107.15 L1668.49 1107.15 L1668.49 1111.08 L1648.58 1111.08 L1648.58 1107.15 Z" fill="#000000" fill-rule="nonzero" fill-opacity="1" /><path clip-path="url(#clip710)" d="M1677.98 1076.52 L1696.34 1076.52 L1696.34 1080.46 L1682.26 1080.46 L1682.26 1088.93 Q1683.28 1088.58 1684.3 1088.42 Q1685.32 1088.24 1686.34 1088.24 Q1692.12 1088.24 1695.5 1091.41 Q1698.88 1094.58 1698.88 1100 Q1698.88 1105.58 1695.41 1108.68 Q1691.94 1111.76 1685.62 1111.76 Q1683.44 1111.76 1681.17 1111.39 Q1678.93 1111.02 1676.52 1110.27 L1676.52 1105.58 Q1678.61 1106.71 1680.83 1107.27 Q1683.05 1107.82 1685.53 1107.82 Q1689.53 1107.82 1691.87 1105.71 Q1694.21 1103.61 1694.21 1100 Q1694.21 1096.39 1691.87 1094.28 Q1689.53 1092.17 1685.53 1092.17 Q1683.65 1092.17 1681.78 1092.59 Q1679.92 1093.01 1677.98 1093.89 L1677.98 1076.52 Z" fill="#000000" fill-rule="nonzero" fill-opacity="1" /><path clip-path="url(#clip710)" d="M2193.11 1107.15 L2209.43 1107.15 L2209.43 1111.08 L2187.48 1111.08 L2187.48 1107.15 Q2190.14 1104.4 2194.73 1099.77 Q2199.33 1095.11 2200.52 1093.77 Q2202.76 1091.25 2203.64 1089.51 Q2204.54 1087.75 2204.54 1086.06 Q2204.54 1083.31 2202.6 1081.57 Q2200.68 1079.83 2197.58 1079.83 Q2195.38 1079.83 2192.92 1080.6 Q2190.49 1081.36 2187.71 1082.91 L2187.71 1078.19 Q2190.54 1077.06 2192.99 1076.48 Q2195.45 1075.9 2197.48 1075.9 Q2202.85 1075.9 2206.05 1078.58 Q2209.24 1081.27 2209.24 1085.76 Q2209.24 1087.89 2208.43 1089.81 Q2207.64 1091.71 2205.54 1094.3 Q2204.96 1094.97 2201.86 1098.19 Q2198.76 1101.39 2193.11 1107.15 Z" fill="#000000" fill-rule="nonzero" fill-opacity="1" /><path clip-path="url(#clip710)" d="M2229.24 1079.6 Q2225.63 1079.6 2223.8 1083.17 Q2222 1086.71 2222 1093.84 Q2222 1100.95 2223.8 1104.51 Q2225.63 1108.05 2229.24 1108.05 Q2232.88 1108.05 2234.68 1104.51 Q2236.51 1100.95 2236.51 1093.84 Q2236.51 1086.71 2234.68 1083.17 Q2232.88 1079.6 2229.24 1079.6 M2229.24 1075.9 Q2235.05 1075.9 2238.11 1080.51 Q2241.19 1085.09 2241.19 1093.84 Q2241.19 1102.57 2238.11 1107.17 Q2235.05 1111.76 2229.24 1111.76 Q2223.43 1111.76 2220.35 1107.17 Q2217.3 1102.57 2217.3 1093.84 Q2217.3 1085.09 2220.35 1080.51 Q2223.43 1075.9 2229.24 1075.9 Z" fill="#000000" fill-rule="nonzero" fill-opacity="1" /><path clip-path="url(#clip710)" d="M844.143 1150.75 L844.143 1187.71 L851.909 1187.71 Q861.744 1187.71 866.296 1183.25 Q870.879 1178.79 870.879 1169.18 Q870.879 1159.63 866.296 1155.21 Q861.744 1150.75 851.909 1150.75 L844.143 1150.75 M837.714 1145.47 L850.923 1145.47 Q864.736 1145.47 871.197 1151.23 Q877.659 1156.96 877.659 1169.18 Q877.659 1181.47 871.165 1187.23 Q864.672 1192.99 850.923 1192.99 L837.714 1192.99 L837.714 1145.47 Z" fill="#000000" fill-rule="nonzero" fill-opacity="1" /><path clip-path="url(#clip710)" d="M887.653 1157.34 L893.509 1157.34 L893.509 1192.99 L887.653 1192.99 L887.653 1157.34 M887.653 1143.46 L893.509 1143.46 L893.509 1150.88 L887.653 1150.88 L887.653 1143.46 Z" fill="#000000" fill-rule="nonzero" fill-opacity="1" /><path clip-path="url(#clip710)" d="M928.489 1158.39 L928.489 1163.93 Q926.006 1162.66 923.332 1162.02 Q920.659 1161.38 917.794 1161.38 Q913.434 1161.38 911.238 1162.72 Q909.073 1164.06 909.073 1166.73 Q909.073 1168.77 910.633 1169.94 Q912.192 1171.09 916.903 1172.14 L918.908 1172.59 Q925.147 1173.92 927.757 1176.37 Q930.398 1178.79 930.398 1183.15 Q930.398 1188.12 926.452 1191.02 Q922.537 1193.91 915.662 1193.91 Q912.797 1193.91 909.678 1193.34 Q906.591 1192.8 903.153 1191.68 L903.153 1185.64 Q906.4 1187.32 909.551 1188.18 Q912.702 1189.01 915.789 1189.01 Q919.927 1189.01 922.155 1187.61 Q924.383 1186.18 924.383 1183.6 Q924.383 1181.21 922.76 1179.94 Q921.168 1178.67 915.725 1177.49 L913.688 1177.01 Q908.246 1175.87 905.827 1173.51 Q903.408 1171.12 903.408 1166.98 Q903.408 1161.96 906.973 1159.22 Q910.537 1156.48 917.094 1156.48 Q920.341 1156.48 923.205 1156.96 Q926.07 1157.44 928.489 1158.39 Z" fill="#000000" fill-rule="nonzero" fill-opacity="1" /><path clip-path="url(#clip710)" d="M945.517 1147.22 L945.517 1157.34 L957.58 1157.34 L957.58 1161.89 L945.517 1161.89 L945.517 1181.24 Q945.517 1185.6 946.695 1186.85 Q947.904 1188.09 951.564 1188.09 L957.58 1188.09 L957.58 1192.99 L951.564 1192.99 Q944.785 1192.99 942.207 1190.47 Q939.629 1187.93 939.629 1181.24 L939.629 1161.89 L935.332 1161.89 L935.332 1157.34 L939.629 1157.34 L939.629 1147.22 L945.517 1147.22 Z" fill="#000000" fill-rule="nonzero" fill-opacity="1" /><path clip-path="url(#clip710)" d="M981.483 1175.07 Q974.385 1175.07 971.648 1176.69 Q968.911 1178.32 968.911 1182.23 Q968.911 1185.35 970.948 1187.2 Q973.017 1189.01 976.55 1189.01 Q981.42 1189.01 984.348 1185.57 Q987.308 1182.1 987.308 1176.37 L987.308 1175.07 L981.483 1175.07 M993.164 1172.65 L993.164 1192.99 L987.308 1192.99 L987.308 1187.58 Q985.303 1190.82 982.311 1192.38 Q979.319 1193.91 974.99 1193.91 Q969.516 1193.91 966.269 1190.86 Q963.054 1187.77 963.054 1182.61 Q963.054 1176.6 967.065 1173.54 Q971.107 1170.49 979.096 1170.49 L987.308 1170.49 L987.308 1169.91 Q987.308 1165.87 984.634 1163.67 Q981.992 1161.45 977.186 1161.45 Q974.131 1161.45 971.234 1162.18 Q968.338 1162.91 965.664 1164.37 L965.664 1158.96 Q968.879 1157.72 971.903 1157.12 Q974.927 1156.48 977.791 1156.48 Q985.525 1156.48 989.345 1160.49 Q993.164 1164.5 993.164 1172.65 Z" fill="#000000" fill-rule="nonzero" fill-opacity="1" /><path clip-path="url(#clip710)" d="M1034.86 1171.47 L1034.86 1192.99 L1029 1192.99 L1029 1171.66 Q1029 1166.6 1027.03 1164.09 Q1025.06 1161.57 1021.11 1161.57 Q1016.37 1161.57 1013.63 1164.6 Q1010.89 1167.62 1010.89 1172.84 L1010.89 1192.99 L1005 1192.99 L1005 1157.34 L1010.89 1157.34 L1010.89 1162.88 Q1012.99 1159.66 1015.83 1158.07 Q1018.69 1156.48 1022.41 1156.48 Q1028.56 1156.48 1031.71 1160.3 Q1034.86 1164.09 1034.86 1171.47 Z" fill="#000000" fill-rule="nonzero" fill-opacity="1" /><path clip-path="url(#clip710)" d="M1072.19 1158.71 L1072.19 1164.18 Q1069.71 1162.82 1067.2 1162.15 Q1064.71 1161.45 1062.17 1161.45 Q1056.47 1161.45 1053.32 1165.08 Q1050.17 1168.67 1050.17 1175.2 Q1050.17 1181.72 1053.32 1185.35 Q1056.47 1188.95 1062.17 1188.95 Q1064.71 1188.95 1067.2 1188.28 Q1069.71 1187.58 1072.19 1186.21 L1072.19 1191.62 Q1069.74 1192.77 1067.1 1193.34 Q1064.49 1193.91 1061.53 1193.91 Q1053.48 1193.91 1048.74 1188.85 Q1043.99 1183.79 1043.99 1175.2 Q1043.99 1166.48 1048.77 1161.48 Q1053.57 1156.48 1061.91 1156.48 Q1064.62 1156.48 1067.2 1157.05 Q1069.78 1157.6 1072.19 1158.71 Z" fill="#000000" fill-rule="nonzero" fill-opacity="1" /><path clip-path="url(#clip710)" d="M1112.87 1173.7 L1112.87 1176.57 L1085.94 1176.57 Q1086.33 1182.61 1089.57 1185.8 Q1092.85 1188.95 1098.68 1188.95 Q1102.05 1188.95 1105.2 1188.12 Q1108.38 1187.29 1111.5 1185.64 L1111.5 1191.17 Q1108.35 1192.51 1105.04 1193.21 Q1101.73 1193.91 1098.33 1193.91 Q1089.8 1193.91 1084.8 1188.95 Q1079.83 1183.98 1079.83 1175.51 Q1079.83 1166.76 1084.54 1161.64 Q1089.29 1156.48 1097.31 1156.48 Q1104.5 1156.48 1108.67 1161.13 Q1112.87 1165.74 1112.87 1173.7 M1107.01 1171.98 Q1106.95 1167.18 1104.31 1164.31 Q1101.7 1161.45 1097.37 1161.45 Q1092.47 1161.45 1089.51 1164.22 Q1086.58 1166.98 1086.14 1172.01 L1107.01 1171.98 Z" fill="#000000" fill-rule="nonzero" fill-opacity="1" /><path clip-path="url(#clip710)" d="M1161.25 1143.46 L1161.25 1148.33 L1155.65 1148.33 Q1152.5 1148.33 1151.26 1149.61 Q1150.05 1150.88 1150.05 1154.19 L1150.05 1157.34 L1159.69 1157.34 L1159.69 1161.89 L1150.05 1161.89 L1150.05 1192.99 L1144.16 1192.99 L1144.16 1161.89 L1138.56 1161.89 L1138.56 1157.34 L1144.16 1157.34 L1144.16 1154.86 Q1144.16 1148.91 1146.93 1146.2 Q1149.7 1143.46 1155.71 1143.46 L1161.25 1143.46 Z" fill="#000000" fill-rule="nonzero" fill-opacity="1" /><path clip-path="url(#clip710)" d="M1186.81 1162.82 Q1185.82 1162.24 1184.64 1161.99 Q1183.5 1161.7 1182.1 1161.7 Q1177.13 1161.7 1174.46 1164.95 Q1171.82 1168.16 1171.82 1174.21 L1171.82 1192.99 L1165.93 1192.99 L1165.93 1157.34 L1171.82 1157.34 L1171.82 1162.88 Q1173.66 1159.63 1176.62 1158.07 Q1179.58 1156.48 1183.82 1156.48 Q1184.42 1156.48 1185.15 1156.58 Q1185.89 1156.64 1186.78 1156.8 L1186.81 1162.82 Z" fill="#000000" fill-rule="nonzero" fill-opacity="1" /><path clip-path="url(#clip710)" d="M1205.33 1161.45 Q1200.62 1161.45 1197.89 1165.14 Q1195.15 1168.8 1195.15 1175.2 Q1195.15 1181.59 1197.85 1185.29 Q1200.59 1188.95 1205.33 1188.95 Q1210.01 1188.95 1212.75 1185.25 Q1215.49 1181.56 1215.49 1175.2 Q1215.49 1168.86 1212.75 1165.17 Q1210.01 1161.45 1205.33 1161.45 M1205.33 1156.48 Q1212.97 1156.48 1217.33 1161.45 Q1221.69 1166.41 1221.69 1175.2 Q1221.69 1183.95 1217.33 1188.95 Q1212.97 1193.91 1205.33 1193.91 Q1197.66 1193.91 1193.3 1188.95 Q1188.97 1183.95 1188.97 1175.2 Q1188.97 1166.41 1193.3 1161.45 Q1197.66 1156.48 1205.33 1156.48 Z" fill="#000000" fill-rule="nonzero" fill-opacity="1" /><path clip-path="url(#clip710)" d="M1259.16 1164.18 Q1261.35 1160.24 1264.41 1158.36 Q1267.46 1156.48 1271.6 1156.48 Q1277.17 1156.48 1280.19 1160.4 Q1283.22 1164.28 1283.22 1171.47 L1283.22 1192.99 L1277.33 1192.99 L1277.33 1171.66 Q1277.33 1166.54 1275.52 1164.06 Q1273.7 1161.57 1269.98 1161.57 Q1265.43 1161.57 1262.78 1164.6 Q1260.14 1167.62 1260.14 1172.84 L1260.14 1192.99 L1254.25 1192.99 L1254.25 1171.66 Q1254.25 1166.51 1252.44 1164.06 Q1250.63 1161.57 1246.84 1161.57 Q1242.35 1161.57 1239.71 1164.63 Q1237.07 1167.65 1237.07 1172.84 L1237.07 1192.99 L1231.18 1192.99 L1231.18 1157.34 L1237.07 1157.34 L1237.07 1162.88 Q1239.07 1159.6 1241.87 1158.04 Q1244.67 1156.48 1248.52 1156.48 Q1252.41 1156.48 1255.11 1158.45 Q1257.85 1160.43 1259.16 1164.18 Z" fill="#000000" fill-rule="nonzero" fill-opacity="1" /><path clip-path="url(#clip710)" d="M1345.25 1171.47 L1345.25 1192.99 L1339.4 1192.99 L1339.4 1171.66 Q1339.4 1166.6 1337.42 1164.09 Q1335.45 1161.57 1331.5 1161.57 Q1326.76 1161.57 1324.02 1164.6 Q1321.28 1167.62 1321.28 1172.84 L1321.28 1192.99 L1315.4 1192.99 L1315.4 1143.46 L1321.28 1143.46 L1321.28 1162.88 Q1323.39 1159.66 1326.22 1158.07 Q1329.08 1156.48 1332.81 1156.48 Q1338.95 1156.48 1342.1 1160.3 Q1345.25 1164.09 1345.25 1171.47 Z" fill="#000000" fill-rule="nonzero" fill-opacity="1" /><path clip-path="url(#clip710)" d="M1370.75 1161.45 Q1366.04 1161.45 1363.3 1165.14 Q1360.56 1168.8 1360.56 1175.2 Q1360.56 1181.59 1363.27 1185.29 Q1366 1188.95 1370.75 1188.95 Q1375.42 1188.95 1378.16 1185.25 Q1380.9 1181.56 1380.9 1175.2 Q1380.9 1168.86 1378.16 1165.17 Q1375.42 1161.45 1370.75 1161.45 M1370.75 1156.48 Q1378.38 1156.48 1382.75 1161.45 Q1387.11 1166.41 1387.11 1175.2 Q1387.11 1183.95 1382.75 1188.95 Q1378.38 1193.91 1370.75 1193.91 Q1363.08 1193.91 1358.71 1188.95 Q1354.39 1183.95 1354.39 1175.2 Q1354.39 1166.41 1358.71 1161.45 Q1363.08 1156.48 1370.75 1156.48 Z" fill="#000000" fill-rule="nonzero" fill-opacity="1" /><path clip-path="url(#clip710)" d="M1396.81 1143.46 L1402.67 1143.46 L1402.67 1192.99 L1396.81 1192.99 L1396.81 1143.46 Z" fill="#000000" fill-rule="nonzero" fill-opacity="1" /><path clip-path="url(#clip710)" d="M1445.42 1173.7 L1445.42 1176.57 L1418.49 1176.57 Q1418.87 1182.61 1422.12 1185.8 Q1425.4 1188.95 1431.22 1188.95 Q1434.59 1188.95 1437.75 1188.12 Q1440.93 1187.29 1444.05 1185.64 L1444.05 1191.17 Q1440.9 1192.51 1437.59 1193.21 Q1434.28 1193.91 1430.87 1193.91 Q1422.34 1193.91 1417.34 1188.95 Q1412.38 1183.98 1412.38 1175.51 Q1412.38 1166.76 1417.09 1161.64 Q1421.83 1156.48 1429.85 1156.48 Q1437.04 1156.48 1441.21 1161.13 Q1445.42 1165.74 1445.42 1173.7 M1439.56 1171.98 Q1439.5 1167.18 1436.85 1164.31 Q1434.24 1161.45 1429.92 1161.45 Q1425.01 1161.45 1422.05 1164.22 Q1419.13 1166.98 1418.68 1172.01 L1439.56 1171.98 Z" fill="#000000" fill-rule="nonzero" fill-opacity="1" /><path clip-path="url(#clip710)" d="M1489.82 1143.53 Q1485.55 1150.85 1483.48 1158.01 Q1481.41 1165.17 1481.41 1172.52 Q1481.41 1179.88 1483.48 1187.1 Q1485.58 1194.29 1489.82 1201.58 L1484.72 1201.58 Q1479.95 1194.1 1477.56 1186.88 Q1475.21 1179.65 1475.21 1172.52 Q1475.21 1165.43 1477.56 1158.23 Q1479.92 1151.04 1484.72 1143.53 L1489.82 1143.53 Z" fill="#000000" fill-rule="nonzero" fill-opacity="1" /><path clip-path="url(#clip710)" d="M1519.23 1143.46 L1519.23 1148.33 L1513.62 1148.33 Q1510.47 1148.33 1509.23 1149.61 Q1508.02 1150.88 1508.02 1154.19 L1508.02 1157.34 L1517.67 1157.34 L1517.67 1161.89 L1508.02 1161.89 L1508.02 1192.99 L1502.13 1192.99 L1502.13 1161.89 L1496.53 1161.89 L1496.53 1157.34 L1502.13 1157.34 L1502.13 1154.86 Q1502.13 1148.91 1504.9 1146.2 Q1507.67 1143.46 1513.69 1143.46 L1519.23 1143.46 Z" fill="#000000" fill-rule="nonzero" fill-opacity="1" /><path clip-path="url(#clip710)" d="M1554.62 1173.7 L1554.62 1176.57 L1527.69 1176.57 Q1528.07 1182.61 1531.32 1185.8 Q1534.6 1188.95 1540.42 1188.95 Q1543.8 1188.95 1546.95 1188.12 Q1550.13 1187.29 1553.25 1185.64 L1553.25 1191.17 Q1550.1 1192.51 1546.79 1193.21 Q1543.48 1193.91 1540.07 1193.91 Q1531.54 1193.91 1526.55 1188.95 Q1521.58 1183.98 1521.58 1175.51 Q1521.58 1166.76 1526.29 1161.64 Q1531.03 1156.48 1539.06 1156.48 Q1546.25 1156.48 1550.42 1161.13 Q1554.62 1165.74 1554.62 1173.7 M1548.76 1171.98 Q1548.7 1167.18 1546.06 1164.31 Q1543.45 1161.45 1539.12 1161.45 Q1534.22 1161.45 1531.26 1164.22 Q1528.33 1166.98 1527.88 1172.01 L1548.76 1171.98 Z" fill="#000000" fill-rule="nonzero" fill-opacity="1" /><path clip-path="url(#clip710)" d="M1594.72 1173.7 L1594.72 1176.57 L1567.8 1176.57 Q1568.18 1182.61 1571.43 1185.8 Q1574.7 1188.95 1580.53 1188.95 Q1583.9 1188.95 1587.05 1188.12 Q1590.24 1187.29 1593.35 1185.64 L1593.35 1191.17 Q1590.2 1192.51 1586.89 1193.21 Q1583.58 1193.91 1580.18 1193.91 Q1571.65 1193.91 1566.65 1188.95 Q1561.69 1183.98 1561.69 1175.51 Q1561.69 1166.76 1566.4 1161.64 Q1571.14 1156.48 1579.16 1156.48 Q1586.35 1156.48 1590.52 1161.13 Q1594.72 1165.74 1594.72 1173.7 M1588.87 1171.98 Q1588.8 1167.18 1586.16 1164.31 Q1583.55 1161.45 1579.22 1161.45 Q1574.32 1161.45 1571.36 1164.22 Q1568.43 1166.98 1567.99 1172.01 L1588.87 1171.98 Z" fill="#000000" fill-rule="nonzero" fill-opacity="1" /><path clip-path="url(#clip710)" d="M1610.13 1147.22 L1610.13 1157.34 L1622.19 1157.34 L1622.19 1161.89 L1610.13 1161.89 L1610.13 1181.24 Q1610.13 1185.6 1611.31 1186.85 Q1612.52 1188.09 1616.18 1188.09 L1622.19 1188.09 L1622.19 1192.99 L1616.18 1192.99 Q1609.4 1192.99 1606.82 1190.47 Q1604.24 1187.93 1604.24 1181.24 L1604.24 1161.89 L1599.94 1161.89 L1599.94 1157.34 L1604.24 1157.34 L1604.24 1147.22 L1610.13 1147.22 Z" fill="#000000" fill-rule="nonzero" fill-opacity="1" /><path clip-path="url(#clip710)" d="M1628.97 1143.53 L1634.06 1143.53 Q1638.84 1151.04 1641.19 1158.23 Q1643.58 1165.43 1643.58 1172.52 Q1643.58 1179.65 1641.19 1186.88 Q1638.84 1194.1 1634.06 1201.58 L1628.97 1201.58 Q1633.2 1194.29 1635.27 1187.1 Q1637.37 1179.88 1637.37 1172.52 Q1637.37 1165.17 1635.27 1158.01 Q1633.2 1150.85 1628.97 1143.53 Z" fill="#000000" fill-rule="nonzero" fill-opacity="1" /><polyline clip-path="url(#clip712)" style="stroke:#000000; stroke-linecap:round; stroke-linejoin:round; stroke-width:2; stroke-opacity:0.1; fill:none" points="208.538,924.476 2272.76,924.476 "/>
<polyline clip-path="url(#clip712)" style="stroke:#000000; stroke-linecap:round; stroke-linejoin:round; stroke-width:2; stroke-opacity:0.1; fill:none" points="208.538,711.37 2272.76,711.37 "/>
<polyline clip-path="url(#clip712)" style="stroke:#000000; stroke-linecap:round; stroke-linejoin:round; stroke-width:2; stroke-opacity:0.1; fill:none" points="208.538,498.265 2272.76,498.265 "/>
<polyline clip-path="url(#clip712)" style="stroke:#000000; stroke-linecap:round; stroke-linejoin:round; stroke-width:2; stroke-opacity:0.1; fill:none" points="208.538,285.159 2272.76,285.159 "/>
<polyline clip-path="url(#clip710)" style="stroke:#000000; stroke-linecap:round; stroke-linejoin:round; stroke-width:4; stroke-opacity:1; fill:none" points="208.538,1049.32 208.538,110.073 "/>
<polyline clip-path="url(#clip710)" style="stroke:#000000; stroke-linecap:round; stroke-linejoin:round; stroke-width:4; stroke-opacity:1; fill:none" points="208.538,924.476 227.436,924.476 "/>
<polyline clip-path="url(#clip710)" style="stroke:#000000; stroke-linecap:round; stroke-linejoin:round; stroke-width:4; stroke-opacity:1; fill:none" points="208.538,711.37 227.436,711.37 "/>
<polyline clip-path="url(#clip710)" style="stroke:#000000; stroke-linecap:round; stroke-linejoin:round; stroke-width:4; stroke-opacity:1; fill:none" points="208.538,498.265 227.436,498.265 "/>
<polyline clip-path="url(#clip710)" style="stroke:#000000; stroke-linecap:round; stroke-linejoin:round; stroke-width:4; stroke-opacity:1; fill:none" points="208.538,285.159 227.436,285.159 "/>
<path clip-path="url(#clip710)" d="M118.16 910.275 Q114.549 910.275 112.72 913.839 Q110.914 917.381 110.914 924.511 Q110.914 931.617 112.72 935.182 Q114.549 938.724 118.16 938.724 Q121.794 938.724 123.6 935.182 Q125.428 931.617 125.428 924.511 Q125.428 917.381 123.6 913.839 Q121.794 910.275 118.16 910.275 M118.16 906.571 Q123.97 906.571 127.025 911.177 Q130.104 915.761 130.104 924.511 Q130.104 933.237 127.025 937.844 Q123.97 942.427 118.16 942.427 Q112.35 942.427 109.271 937.844 Q106.215 933.237 106.215 924.511 Q106.215 915.761 109.271 911.177 Q112.35 906.571 118.16 906.571 Z" fill="#000000" fill-rule="nonzero" fill-opacity="1" /><path clip-path="url(#clip710)" d="M138.322 935.876 L143.206 935.876 L143.206 941.756 L138.322 941.756 L138.322 935.876 Z" fill="#000000" fill-rule="nonzero" fill-opacity="1" /><path clip-path="url(#clip710)" d="M157.419 937.821 L173.738 937.821 L173.738 941.756 L151.794 941.756 L151.794 937.821 Q154.456 935.066 159.039 930.437 Q163.646 925.784 164.826 924.441 Q167.071 921.918 167.951 920.182 Q168.854 918.423 168.854 916.733 Q168.854 913.978 166.909 912.242 Q164.988 910.506 161.886 910.506 Q159.687 910.506 157.234 911.27 Q154.803 912.034 152.025 913.585 L152.025 908.863 Q154.849 907.728 157.303 907.15 Q159.757 906.571 161.794 906.571 Q167.164 906.571 170.359 909.256 Q173.553 911.941 173.553 916.432 Q173.553 918.562 172.743 920.483 Q171.956 922.381 169.849 924.974 Q169.271 925.645 166.169 928.862 Q163.067 932.057 157.419 937.821 Z" fill="#000000" fill-rule="nonzero" fill-opacity="1" /><path clip-path="url(#clip710)" d="M116.076 697.169 Q112.465 697.169 110.637 700.734 Q108.831 704.275 108.831 711.405 Q108.831 718.511 110.637 722.076 Q112.465 725.618 116.076 725.618 Q119.711 725.618 121.516 722.076 Q123.345 718.511 123.345 711.405 Q123.345 704.275 121.516 700.734 Q119.711 697.169 116.076 697.169 M116.076 693.465 Q121.887 693.465 124.942 698.072 Q128.021 702.655 128.021 711.405 Q128.021 720.132 124.942 724.738 Q121.887 729.322 116.076 729.322 Q110.266 729.322 107.188 724.738 Q104.132 720.132 104.132 711.405 Q104.132 702.655 107.188 698.072 Q110.266 693.465 116.076 693.465 Z" fill="#000000" fill-rule="nonzero" fill-opacity="1" /><path clip-path="url(#clip710)" d="M136.238 722.771 L141.123 722.771 L141.123 728.65 L136.238 728.65 L136.238 722.771 Z" fill="#000000" fill-rule="nonzero" fill-opacity="1" /><path clip-path="url(#clip710)" d="M164.155 698.164 L152.349 716.613 L164.155 716.613 L164.155 698.164 M162.928 694.09 L168.808 694.09 L168.808 716.613 L173.738 716.613 L173.738 720.502 L168.808 720.502 L168.808 728.65 L164.155 728.65 L164.155 720.502 L148.553 720.502 L148.553 715.988 L162.928 694.09 Z" fill="#000000" fill-rule="nonzero" fill-opacity="1" /><path clip-path="url(#clip710)" d="M116.4 484.063 Q112.789 484.063 110.961 487.628 Q109.155 491.17 109.155 498.299 Q109.155 505.406 110.961 508.97 Q112.789 512.512 116.4 512.512 Q120.035 512.512 121.84 508.97 Q123.669 505.406 123.669 498.299 Q123.669 491.17 121.84 487.628 Q120.035 484.063 116.4 484.063 M116.4 480.36 Q122.211 480.36 125.266 484.966 Q128.345 489.549 128.345 498.299 Q128.345 507.026 125.266 511.633 Q122.211 516.216 116.4 516.216 Q110.59 516.216 107.512 511.633 Q104.456 507.026 104.456 498.299 Q104.456 489.549 107.512 484.966 Q110.59 480.36 116.4 480.36 Z" fill="#000000" fill-rule="nonzero" fill-opacity="1" /><path clip-path="url(#clip710)" d="M136.562 509.665 L141.447 509.665 L141.447 515.545 L136.562 515.545 L136.562 509.665 Z" fill="#000000" fill-rule="nonzero" fill-opacity="1" /><path clip-path="url(#clip710)" d="M162.21 496.401 Q159.062 496.401 157.21 498.554 Q155.382 500.707 155.382 504.457 Q155.382 508.183 157.21 510.359 Q159.062 512.512 162.21 512.512 Q165.359 512.512 167.187 510.359 Q169.039 508.183 169.039 504.457 Q169.039 500.707 167.187 498.554 Q165.359 496.401 162.21 496.401 M171.493 481.748 L171.493 486.008 Q169.734 485.174 167.928 484.735 Q166.146 484.295 164.386 484.295 Q159.757 484.295 157.303 487.42 Q154.872 490.545 154.525 496.864 Q155.891 494.85 157.951 493.785 Q160.011 492.697 162.488 492.697 Q167.696 492.697 170.706 495.869 Q173.738 499.017 173.738 504.457 Q173.738 509.781 170.59 512.998 Q167.442 516.216 162.21 516.216 Q156.215 516.216 153.044 511.633 Q149.873 507.026 149.873 498.299 Q149.873 490.105 153.761 485.244 Q157.65 480.36 164.201 480.36 Q165.96 480.36 167.743 480.707 Q169.548 481.054 171.493 481.748 Z" fill="#000000" fill-rule="nonzero" fill-opacity="1" /><path clip-path="url(#clip710)" d="M116.655 270.958 Q113.044 270.958 111.215 274.522 Q109.41 278.064 109.41 285.194 Q109.41 292.3 111.215 295.865 Q113.044 299.406 116.655 299.406 Q120.289 299.406 122.095 295.865 Q123.924 292.3 123.924 285.194 Q123.924 278.064 122.095 274.522 Q120.289 270.958 116.655 270.958 M116.655 267.254 Q122.465 267.254 125.521 271.86 Q128.599 276.444 128.599 285.194 Q128.599 293.92 125.521 298.527 Q122.465 303.11 116.655 303.11 Q110.845 303.11 107.766 298.527 Q104.711 293.92 104.711 285.194 Q104.711 276.444 107.766 271.86 Q110.845 267.254 116.655 267.254 Z" fill="#000000" fill-rule="nonzero" fill-opacity="1" /><path clip-path="url(#clip710)" d="M136.817 296.559 L141.701 296.559 L141.701 302.439 L136.817 302.439 L136.817 296.559 Z" fill="#000000" fill-rule="nonzero" fill-opacity="1" /><path clip-path="url(#clip710)" d="M161.886 286.027 Q158.553 286.027 156.632 287.809 Q154.734 289.592 154.734 292.717 Q154.734 295.842 156.632 297.624 Q158.553 299.406 161.886 299.406 Q165.22 299.406 167.141 297.624 Q169.062 295.819 169.062 292.717 Q169.062 289.592 167.141 287.809 Q165.243 286.027 161.886 286.027 M157.21 284.036 Q154.201 283.295 152.511 281.235 Q150.845 279.175 150.845 276.212 Q150.845 272.069 153.785 269.661 Q156.747 267.254 161.886 267.254 Q167.048 267.254 169.988 269.661 Q172.928 272.069 172.928 276.212 Q172.928 279.175 171.238 281.235 Q169.571 283.295 166.585 284.036 Q169.965 284.823 171.84 287.115 Q173.738 289.407 173.738 292.717 Q173.738 297.74 170.659 300.425 Q167.604 303.11 161.886 303.11 Q156.169 303.11 153.09 300.425 Q150.035 297.74 150.035 292.717 Q150.035 289.407 151.933 287.115 Q153.831 284.823 157.21 284.036 M155.497 276.652 Q155.497 279.337 157.164 280.842 Q158.854 282.346 161.886 282.346 Q164.896 282.346 166.585 280.842 Q168.298 279.337 168.298 276.652 Q168.298 273.967 166.585 272.462 Q164.896 270.958 161.886 270.958 Q158.854 270.958 157.164 272.462 Q155.497 273.967 155.497 276.652 Z" fill="#000000" fill-rule="nonzero" fill-opacity="1" /><path clip-path="url(#clip710)" d="M12.8396 920.391 L30.6954 920.391 L30.6954 912.307 Q30.6954 907.819 28.3719 905.368 Q26.0484 902.917 21.7515 902.917 Q17.4865 902.917 15.163 905.368 Q12.8396 907.819 12.8396 912.307 L12.8396 920.391 M7.55602 926.821 L7.55602 912.307 Q7.55602 904.318 11.1845 900.244 Q14.7811 896.138 21.7515 896.138 Q28.7857 896.138 32.3823 900.244 Q35.9789 904.318 35.9789 912.307 L35.9789 920.391 L55.076 920.391 L55.076 926.821 L7.55602 926.821 Z" fill="#000000" fill-rule="nonzero" fill-opacity="1" /><path clip-path="url(#clip710)" d="M24.9026 868.256 Q24.3297 869.243 24.075 870.421 Q23.7886 871.566 23.7886 872.967 Q23.7886 877.932 27.0351 880.606 Q30.2498 883.247 36.2972 883.247 L55.076 883.247 L55.076 889.136 L19.4281 889.136 L19.4281 883.247 L24.9662 883.247 Q21.7197 881.401 20.1601 878.441 Q18.5687 875.481 18.5687 871.248 Q18.5687 870.643 18.6642 869.911 Q18.7278 869.179 18.887 868.288 L24.9026 868.256 Z" fill="#000000" fill-rule="nonzero" fill-opacity="1" /><path clip-path="url(#clip710)" d="M23.5339 849.732 Q23.5339 854.443 27.2261 857.18 Q30.8863 859.917 37.2839 859.917 Q43.6814 859.917 47.3735 857.212 Q51.0338 854.474 51.0338 849.732 Q51.0338 845.053 47.3417 842.316 Q43.6496 839.579 37.2839 839.579 Q30.95 839.579 27.2579 842.316 Q23.5339 845.053 23.5339 849.732 M18.5687 849.732 Q18.5687 842.093 23.5339 837.733 Q28.4992 833.372 37.2839 833.372 Q46.0367 833.372 51.0338 837.733 Q55.999 842.093 55.999 849.732 Q55.999 857.403 51.0338 861.763 Q46.0367 866.092 37.2839 866.092 Q28.4992 866.092 23.5339 861.763 Q18.5687 857.403 18.5687 849.732 Z" fill="#000000" fill-rule="nonzero" fill-opacity="1" /><path clip-path="url(#clip710)" d="M37.2839 798.074 Q30.8227 798.074 27.1624 800.748 Q23.4703 803.39 23.4703 808.037 Q23.4703 812.684 27.1624 815.357 Q30.8227 817.999 37.2839 817.999 Q43.7451 817.999 47.4372 815.357 Q51.0975 812.684 51.0975 808.037 Q51.0975 803.39 47.4372 800.748 Q43.7451 798.074 37.2839 798.074 M24.8389 817.999 Q21.6561 816.153 20.1283 813.352 Q18.5687 810.519 18.5687 806.604 Q18.5687 800.111 23.7249 796.069 Q28.8811 791.995 37.2839 791.995 Q45.6866 791.995 50.8428 796.069 Q55.999 800.111 55.999 806.604 Q55.999 810.519 54.4713 813.352 Q52.9117 816.153 49.7288 817.999 L55.076 817.999 L55.076 823.887 L5.55082 823.887 L5.55082 817.999 L24.8389 817.999 Z" fill="#000000" fill-rule="nonzero" fill-opacity="1" /><path clip-path="url(#clip710)" d="M37.1566 766.087 Q37.1566 773.184 38.7798 775.922 Q40.4031 778.659 44.318 778.659 Q47.4372 778.659 49.2832 776.622 Q51.0975 774.553 51.0975 771.02 Q51.0975 766.15 47.66 763.222 Q44.1907 760.262 38.4615 760.262 L37.1566 760.262 L37.1566 766.087 M34.7376 754.406 L55.076 754.406 L55.076 760.262 L49.6652 760.262 Q52.9117 762.267 54.4713 765.259 Q55.999 768.251 55.999 772.58 Q55.999 778.054 52.9435 781.301 Q49.8561 784.515 44.6999 784.515 Q38.6843 784.515 35.6288 780.505 Q32.5732 776.463 32.5732 768.474 L32.5732 760.262 L32.0003 760.262 Q27.9581 760.262 25.7619 762.936 Q23.5339 765.577 23.5339 770.383 Q23.5339 773.439 24.266 776.335 Q24.9981 779.232 26.4622 781.905 L21.0513 781.905 Q19.81 778.691 19.2053 775.667 Q18.5687 772.643 18.5687 769.779 Q18.5687 762.044 22.5791 758.225 Q26.5895 754.406 34.7376 754.406 Z" fill="#000000" fill-rule="nonzero" fill-opacity="1" /><path clip-path="url(#clip710)" d="M37.2839 716.752 Q30.8227 716.752 27.1624 719.426 Q23.4703 722.068 23.4703 726.715 Q23.4703 731.362 27.1624 734.035 Q30.8227 736.677 37.2839 736.677 Q43.7451 736.677 47.4372 734.035 Q51.0975 731.362 51.0975 726.715 Q51.0975 722.068 47.4372 719.426 Q43.7451 716.752 37.2839 716.752 M24.8389 736.677 Q21.6561 734.831 20.1283 732.03 Q18.5687 729.197 18.5687 725.282 Q18.5687 718.789 23.7249 714.747 Q28.8811 710.673 37.2839 710.673 Q45.6866 710.673 50.8428 714.747 Q55.999 718.789 55.999 725.282 Q55.999 729.197 54.4713 732.03 Q52.9117 734.831 49.7288 736.677 L55.076 736.677 L55.076 742.565 L5.55082 742.565 L5.55082 736.677 L24.8389 736.677 Z" fill="#000000" fill-rule="nonzero" fill-opacity="1" /><path clip-path="url(#clip710)" d="M19.4281 700.965 L19.4281 695.109 L55.076 695.109 L55.076 700.965 L19.4281 700.965 M5.55082 700.965 L5.55082 695.109 L12.9669 695.109 L12.9669 700.965 L5.55082 700.965 Z" fill="#000000" fill-rule="nonzero" fill-opacity="1" /><path clip-path="url(#clip710)" d="M5.55082 682.855 L5.55082 676.999 L55.076 676.999 L55.076 682.855 L5.55082 682.855 Z" fill="#000000" fill-rule="nonzero" fill-opacity="1" /><path clip-path="url(#clip710)" d="M19.4281 664.745 L19.4281 658.888 L55.076 658.888 L55.076 664.745 L19.4281 664.745 M5.55082 664.745 L5.55082 658.888 L12.9669 658.888 L12.9669 664.745 L5.55082 664.745 Z" fill="#000000" fill-rule="nonzero" fill-opacity="1" /><path clip-path="url(#clip710)" d="M9.30659 640.841 L19.4281 640.841 L19.4281 628.778 L23.9795 628.778 L23.9795 640.841 L43.3313 640.841 Q47.6918 640.841 48.9331 639.664 Q50.1744 638.454 50.1744 634.794 L50.1744 628.778 L55.076 628.778 L55.076 634.794 Q55.076 641.573 52.5616 644.152 Q50.0153 646.73 43.3313 646.73 L23.9795 646.73 L23.9795 651.026 L19.4281 651.026 L19.4281 646.73 L9.30659 646.73 L9.30659 640.841 Z" fill="#000000" fill-rule="nonzero" fill-opacity="1" /><path clip-path="url(#clip710)" d="M58.3862 606.244 Q64.7519 608.726 66.6934 611.082 Q68.635 613.437 68.635 617.384 L68.635 622.063 L63.7334 622.063 L63.7334 618.625 Q63.7334 616.206 62.5876 614.869 Q61.4417 613.532 57.1767 611.909 L54.5031 610.859 L19.4281 625.277 L19.4281 619.071 L47.3099 607.931 L19.4281 596.791 L19.4281 590.584 L58.3862 606.244 Z" fill="#000000" fill-rule="nonzero" fill-opacity="1" /><path clip-path="url(#clip710)" d="M23.5339 547.966 Q23.5339 552.676 27.2261 555.414 Q30.8863 558.151 37.2839 558.151 Q43.6814 558.151 47.3735 555.445 Q51.0338 552.708 51.0338 547.966 Q51.0338 543.287 47.3417 540.55 Q43.6496 537.812 37.2839 537.812 Q30.95 537.812 27.2579 540.55 Q23.5339 543.287 23.5339 547.966 M18.5687 547.966 Q18.5687 540.327 23.5339 535.966 Q28.4992 531.606 37.2839 531.606 Q46.0367 531.606 51.0338 535.966 Q55.999 540.327 55.999 547.966 Q55.999 555.636 51.0338 559.997 Q46.0367 564.326 37.2839 564.326 Q28.4992 564.326 23.5339 559.997 Q18.5687 555.636 18.5687 547.966 Z" fill="#000000" fill-rule="nonzero" fill-opacity="1" /><path clip-path="url(#clip710)" d="M5.55082 503.851 L10.4206 503.851 L10.4206 509.453 Q10.4206 512.604 11.6937 513.846 Q12.9669 515.055 16.277 515.055 L19.4281 515.055 L19.4281 505.411 L23.9795 505.411 L23.9795 515.055 L55.076 515.055 L55.076 520.943 L23.9795 520.943 L23.9795 526.545 L19.4281 526.545 L19.4281 520.943 L16.9454 520.943 Q10.9935 520.943 8.28808 518.174 Q5.55082 515.405 5.55082 509.39 L5.55082 503.851 Z" fill="#000000" fill-rule="nonzero" fill-opacity="1" /><path clip-path="url(#clip710)" d="M20.4784 455.504 L26.0166 455.504 Q24.7434 457.986 24.1069 460.66 Q23.4703 463.334 23.4703 466.198 Q23.4703 470.559 24.8071 472.755 Q26.1439 474.919 28.8175 474.919 Q30.8545 474.919 32.0322 473.36 Q33.178 471.8 34.2283 467.089 L34.6739 465.084 Q36.0107 458.846 38.4615 456.236 Q40.8805 453.594 45.241 453.594 Q50.2063 453.594 53.1027 457.541 Q55.999 461.456 55.999 468.331 Q55.999 471.195 55.4261 474.314 Q54.885 477.402 53.771 480.839 L47.7236 480.839 Q49.4105 477.593 50.2699 474.442 Q51.0975 471.291 51.0975 468.203 Q51.0975 464.066 49.697 461.838 Q48.2647 459.61 45.6866 459.61 Q43.2995 459.61 42.0263 461.233 Q40.7532 462.824 39.5755 468.267 L39.0981 470.304 Q37.9523 475.747 35.597 478.166 Q33.2098 480.585 29.0721 480.585 Q24.0432 480.585 21.3059 477.02 Q18.5687 473.455 18.5687 466.898 Q18.5687 463.652 19.0461 460.787 Q19.5235 457.923 20.4784 455.504 Z" fill="#000000" fill-rule="nonzero" fill-opacity="1" /><path clip-path="url(#clip710)" d="M41.0078 444.873 L19.4281 444.873 L19.4281 439.017 L40.785 439.017 Q45.8457 439.017 48.392 437.043 Q50.9065 435.07 50.9065 431.123 Q50.9065 426.381 47.8828 423.643 Q44.8591 420.874 39.6392 420.874 L19.4281 420.874 L19.4281 415.018 L55.076 415.018 L55.076 420.874 L49.6015 420.874 Q52.848 423.007 54.4394 425.84 Q55.999 428.641 55.999 432.364 Q55.999 438.507 52.1796 441.69 Q48.3602 444.873 41.0078 444.873 M18.5687 430.136 L18.5687 430.136 Z" fill="#000000" fill-rule="nonzero" fill-opacity="1" /><path clip-path="url(#clip710)" d="M20.7967 377.301 L26.2712 377.301 Q24.9026 379.784 24.2342 382.298 Q23.5339 384.781 23.5339 387.327 Q23.5339 393.024 27.1624 396.175 Q30.759 399.326 37.2839 399.326 Q43.8087 399.326 47.4372 396.175 Q51.0338 393.024 51.0338 387.327 Q51.0338 384.781 50.3654 382.298 Q49.6652 379.784 48.2965 377.301 L53.7074 377.301 Q54.8532 379.752 55.4261 382.394 Q55.999 385.004 55.999 387.964 Q55.999 396.016 50.9383 400.759 Q45.8776 405.501 37.2839 405.501 Q28.5629 405.501 23.5658 400.727 Q18.5687 395.921 18.5687 387.582 Q18.5687 384.876 19.1416 382.298 Q19.6827 379.72 20.7967 377.301 Z" fill="#000000" fill-rule="nonzero" fill-opacity="1" /><path clip-path="url(#clip710)" d="M20.7967 341.462 L26.2712 341.462 Q24.9026 343.945 24.2342 346.459 Q23.5339 348.942 23.5339 351.488 Q23.5339 357.185 27.1624 360.336 Q30.759 363.488 37.2839 363.488 Q43.8087 363.488 47.4372 360.336 Q51.0338 357.185 51.0338 351.488 Q51.0338 348.942 50.3654 346.459 Q49.6652 343.945 48.2965 341.462 L53.7074 341.462 Q54.8532 343.913 55.4261 346.555 Q55.999 349.165 55.999 352.125 Q55.999 360.177 50.9383 364.92 Q45.8776 369.662 37.2839 369.662 Q28.5629 369.662 23.5658 364.888 Q18.5687 360.082 18.5687 351.743 Q18.5687 349.037 19.1416 346.459 Q19.6827 343.881 20.7967 341.462 Z" fill="#000000" fill-rule="nonzero" fill-opacity="1" /><path clip-path="url(#clip710)" d="M35.7879 300.785 L38.6525 300.785 L38.6525 327.712 Q44.6999 327.33 47.8828 324.084 Q51.0338 320.805 51.0338 314.981 Q51.0338 311.607 50.2063 308.456 Q49.3787 305.273 47.7236 302.154 L53.2618 302.154 Q54.5986 305.305 55.2988 308.615 Q55.999 311.925 55.999 315.331 Q55.999 323.861 51.0338 328.858 Q46.0685 333.823 37.6022 333.823 Q28.8493 333.823 23.7249 329.113 Q18.5687 324.37 18.5687 316.349 Q18.5687 309.156 23.2157 304.987 Q27.8308 300.785 35.7879 300.785 M34.0692 306.642 Q29.2631 306.705 26.3985 309.347 Q23.5339 311.957 23.5339 316.286 Q23.5339 321.187 26.303 324.147 Q29.0721 327.076 34.101 327.521 L34.0692 306.642 Z" fill="#000000" fill-rule="nonzero" fill-opacity="1" /><path clip-path="url(#clip710)" d="M20.4784 268.448 L26.0166 268.448 Q24.7434 270.93 24.1069 273.604 Q23.4703 276.277 23.4703 279.142 Q23.4703 283.502 24.8071 285.699 Q26.1439 287.863 28.8175 287.863 Q30.8545 287.863 32.0322 286.303 Q33.178 284.744 34.2283 280.033 L34.6739 278.028 Q36.0107 271.79 38.4615 269.18 Q40.8805 266.538 45.241 266.538 Q50.2063 266.538 53.1027 270.485 Q55.999 274.399 55.999 281.274 Q55.999 284.139 55.4261 287.258 Q54.885 290.346 53.771 293.783 L47.7236 293.783 Q49.4105 290.537 50.2699 287.385 Q51.0975 284.234 51.0975 281.147 Q51.0975 277.009 49.697 274.781 Q48.2647 272.553 45.6866 272.553 Q43.2995 272.553 42.0263 274.177 Q40.7532 275.768 39.5755 281.211 L39.0981 283.248 Q37.9523 288.69 35.597 291.109 Q33.2098 293.528 29.0721 293.528 Q24.0432 293.528 21.3059 289.964 Q18.5687 286.399 18.5687 279.842 Q18.5687 276.596 19.0461 273.731 Q19.5235 270.866 20.4784 268.448 Z" fill="#000000" fill-rule="nonzero" fill-opacity="1" /><path clip-path="url(#clip710)" d="M20.4784 234.486 L26.0166 234.486 Q24.7434 236.969 24.1069 239.643 Q23.4703 242.316 23.4703 245.181 Q23.4703 249.541 24.8071 251.738 Q26.1439 253.902 28.8175 253.902 Q30.8545 253.902 32.0322 252.342 Q33.178 250.783 34.2283 246.072 L34.6739 244.067 Q36.0107 237.828 38.4615 235.219 Q40.8805 232.577 45.241 232.577 Q50.2063 232.577 53.1027 236.523 Q55.999 240.438 55.999 247.313 Q55.999 250.178 55.4261 253.297 Q54.885 256.385 53.771 259.822 L47.7236 259.822 Q49.4105 256.575 50.2699 253.424 Q51.0975 250.273 51.0975 247.186 Q51.0975 243.048 49.697 240.82 Q48.2647 238.592 45.6866 238.592 Q43.2995 238.592 42.0263 240.216 Q40.7532 241.807 39.5755 247.25 L39.0981 249.287 Q37.9523 254.729 35.597 257.148 Q33.2098 259.567 29.0721 259.567 Q24.0432 259.567 21.3059 256.003 Q18.5687 252.438 18.5687 245.881 Q18.5687 242.635 19.0461 239.77 Q19.5235 236.905 20.4784 234.486 Z" fill="#000000" fill-rule="nonzero" fill-opacity="1" /><path clip-path="url(#clip710)" d="M745.201 18.8205 L745.201 65.8515 L755.085 65.8515 Q767.603 65.8515 773.395 60.1802 Q779.229 54.509 779.229 42.2752 Q779.229 30.1225 773.395 24.4918 Q767.603 18.8205 755.085 18.8205 L745.201 18.8205 M737.018 12.096 L753.83 12.096 Q771.411 12.096 779.634 19.4281 Q787.857 26.7198 787.857 42.2752 Q787.857 57.9117 779.593 65.2439 Q771.33 72.576 753.83 72.576 L737.018 72.576 L737.018 12.096 Z" fill="#000000" fill-rule="nonzero" fill-opacity="1" /><path clip-path="url(#clip710)" d="M821.196 49.7694 Q812.163 49.7694 808.679 51.8354 Q805.195 53.9013 805.195 58.8839 Q805.195 62.8538 807.788 65.2034 Q810.421 67.5124 814.917 67.5124 Q821.115 67.5124 824.842 63.1374 Q828.609 58.7219 828.609 51.4303 L828.609 49.7694 L821.196 49.7694 M836.063 46.6907 L836.063 72.576 L828.609 72.576 L828.609 65.6895 Q826.057 69.8214 822.249 71.8063 Q818.442 73.7508 812.932 73.7508 Q805.965 73.7508 801.833 69.8619 Q797.741 65.9325 797.741 59.3701 Q797.741 51.7138 802.846 47.825 Q807.99 43.9361 818.158 43.9361 L828.609 43.9361 L828.609 43.2069 Q828.609 38.0623 825.207 35.2672 Q821.844 32.4315 815.727 32.4315 Q811.839 32.4315 808.152 33.3632 Q804.466 34.295 801.063 36.1584 L801.063 29.2718 Q805.155 27.692 809.003 26.9223 Q812.851 26.1121 816.497 26.1121 Q826.341 26.1121 831.202 31.2163 Q836.063 36.3204 836.063 46.6907 Z" fill="#000000" fill-rule="nonzero" fill-opacity="1" /><path clip-path="url(#clip710)" d="M858.789 14.324 L858.789 27.2059 L874.141 27.2059 L874.141 32.9987 L858.789 32.9987 L858.789 57.6282 Q858.789 63.1779 860.287 64.7578 Q861.827 66.3376 866.485 66.3376 L874.141 66.3376 L874.141 72.576 L866.485 72.576 Q857.857 72.576 854.576 69.3758 Q851.294 66.1351 851.294 57.6282 L851.294 32.9987 L845.826 32.9987 L845.826 27.2059 L851.294 27.2059 L851.294 14.324 L858.789 14.324 Z" fill="#000000" fill-rule="nonzero" fill-opacity="1" /><path clip-path="url(#clip710)" d="M904.564 49.7694 Q895.53 49.7694 892.046 51.8354 Q888.563 53.9013 888.563 58.8839 Q888.563 62.8538 891.155 65.2034 Q893.788 67.5124 898.285 67.5124 Q904.483 67.5124 908.21 63.1374 Q911.977 58.7219 911.977 51.4303 L911.977 49.7694 L904.564 49.7694 M919.431 46.6907 L919.431 72.576 L911.977 72.576 L911.977 65.6895 Q909.425 69.8214 905.617 71.8063 Q901.809 73.7508 896.3 73.7508 Q889.332 73.7508 885.2 69.8619 Q881.109 65.9325 881.109 59.3701 Q881.109 51.7138 886.213 47.825 Q891.358 43.9361 901.526 43.9361 L911.977 43.9361 L911.977 43.2069 Q911.977 38.0623 908.574 35.2672 Q905.212 32.4315 899.095 32.4315 Q895.206 32.4315 891.52 33.3632 Q887.834 34.295 884.431 36.1584 L884.431 29.2718 Q888.522 27.692 892.371 26.9223 Q896.219 26.1121 899.865 26.1121 Q909.708 26.1121 914.569 31.2163 Q919.431 36.3204 919.431 46.6907 Z" fill="#000000" fill-rule="nonzero" fill-opacity="1" /><path clip-path="url(#clip710)" d="M978.736 32.4315 Q972.74 32.4315 969.257 37.1306 Q965.773 41.7891 965.773 49.9314 Q965.773 58.0738 969.216 62.7728 Q972.7 67.4314 978.736 67.4314 Q984.691 67.4314 988.174 62.7323 Q991.658 58.0333 991.658 49.9314 Q991.658 41.8701 988.174 37.1711 Q984.691 32.4315 978.736 32.4315 M978.736 26.1121 Q988.458 26.1121 994.008 32.4315 Q999.557 38.7509 999.557 49.9314 Q999.557 61.0714 994.008 67.4314 Q988.458 73.7508 978.736 73.7508 Q968.973 73.7508 963.423 67.4314 Q957.914 61.0714 957.914 49.9314 Q957.914 38.7509 963.423 32.4315 Q968.973 26.1121 978.736 26.1121 Z" fill="#000000" fill-rule="nonzero" fill-opacity="1" /><path clip-path="url(#clip710)" d="M1049.63 45.1919 L1049.63 72.576 L1042.17 72.576 L1042.17 45.4349 Q1042.17 38.994 1039.66 35.7938 Q1037.15 32.5936 1032.13 32.5936 Q1026.09 32.5936 1022.61 36.4419 Q1019.12 40.2903 1019.12 46.9338 L1019.12 72.576 L1011.63 72.576 L1011.63 27.2059 L1019.12 27.2059 L1019.12 34.2544 Q1021.8 30.163 1025.4 28.1376 Q1029.05 26.1121 1033.79 26.1121 Q1041.61 26.1121 1045.62 30.9732 Q1049.63 35.7938 1049.63 45.1919 Z" fill="#000000" fill-rule="nonzero" fill-opacity="1" /><path clip-path="url(#clip710)" d="M1098.08 65.7705 L1098.08 89.8329 L1090.58 89.8329 L1090.58 27.2059 L1098.08 27.2059 L1098.08 34.0924 Q1100.42 30.0415 1103.99 28.0971 Q1107.6 26.1121 1112.58 26.1121 Q1120.84 26.1121 1125.99 32.6746 Q1131.17 39.2371 1131.17 49.9314 Q1131.17 60.6258 1125.99 67.1883 Q1120.84 73.7508 1112.58 73.7508 Q1107.6 73.7508 1103.99 71.8063 Q1100.42 69.8214 1098.08 65.7705 M1123.43 49.9314 Q1123.43 41.7081 1120.03 37.0496 Q1116.67 32.3505 1110.75 32.3505 Q1104.84 32.3505 1101.44 37.0496 Q1098.08 41.7081 1098.08 49.9314 Q1098.08 58.1548 1101.44 62.8538 Q1104.84 67.5124 1110.75 67.5124 Q1116.67 67.5124 1120.03 62.8538 Q1123.43 58.1548 1123.43 49.9314 Z" fill="#000000" fill-rule="nonzero" fill-opacity="1" /><path clip-path="url(#clip710)" d="M1142.76 54.671 L1142.76 27.2059 L1150.21 27.2059 L1150.21 54.3874 Q1150.21 60.8284 1152.72 64.0691 Q1155.23 67.2693 1160.26 67.2693 Q1166.29 67.2693 1169.78 63.421 Q1173.3 59.5726 1173.3 52.9291 L1173.3 27.2059 L1180.75 27.2059 L1180.75 72.576 L1173.3 72.576 L1173.3 65.6084 Q1170.59 69.7404 1166.98 71.7658 Q1163.42 73.7508 1158.68 73.7508 Q1150.86 73.7508 1146.81 68.8897 Q1142.76 64.0286 1142.76 54.671 M1161.51 26.1121 L1161.51 26.1121 Z" fill="#000000" fill-rule="nonzero" fill-opacity="1" /><path clip-path="url(#clip710)" d="M1203.48 14.324 L1203.48 27.2059 L1218.83 27.2059 L1218.83 32.9987 L1203.48 32.9987 L1203.48 57.6282 Q1203.48 63.1779 1204.98 64.7578 Q1206.52 66.3376 1211.18 66.3376 L1218.83 66.3376 L1218.83 72.576 L1211.18 72.576 Q1202.55 72.576 1199.27 69.3758 Q1195.99 66.1351 1195.99 57.6282 L1195.99 32.9987 L1190.52 32.9987 L1190.52 27.2059 L1195.99 27.2059 L1195.99 14.324 L1203.48 14.324 Z" fill="#000000" fill-rule="nonzero" fill-opacity="1" /><path clip-path="url(#clip710)" d="M1236.01 14.324 L1236.01 27.2059 L1251.36 27.2059 L1251.36 32.9987 L1236.01 32.9987 L1236.01 57.6282 Q1236.01 63.1779 1237.51 64.7578 Q1239.05 66.3376 1243.71 66.3376 L1251.36 66.3376 L1251.36 72.576 L1243.71 72.576 Q1235.08 72.576 1231.8 69.3758 Q1228.51 66.1351 1228.51 57.6282 L1228.51 32.9987 L1223.05 32.9987 L1223.05 27.2059 L1228.51 27.2059 L1228.51 14.324 L1236.01 14.324 Z" fill="#000000" fill-rule="nonzero" fill-opacity="1" /><path clip-path="url(#clip710)" d="M1290.09 28.5427 L1290.09 35.5912 Q1286.93 33.9709 1283.53 33.1607 Q1280.12 32.3505 1276.48 32.3505 Q1270.93 32.3505 1268.13 34.0519 Q1265.38 35.7533 1265.38 39.156 Q1265.38 41.7486 1267.36 43.2475 Q1269.35 44.7058 1275.34 46.0426 L1277.9 46.6097 Q1285.83 48.3111 1289.16 51.4303 Q1292.52 54.509 1292.52 60.0587 Q1292.52 66.3781 1287.5 70.0644 Q1282.51 73.7508 1273.76 73.7508 Q1270.12 73.7508 1266.15 73.0216 Q1262.22 72.3329 1257.84 70.9151 L1257.84 63.2184 Q1261.98 65.3654 1265.99 66.4591 Q1270 67.5124 1273.93 67.5124 Q1279.19 67.5124 1282.03 65.73 Q1284.86 63.9071 1284.86 60.6258 Q1284.86 57.5877 1282.8 55.9673 Q1280.77 54.3469 1273.84 52.8481 L1271.25 52.2405 Q1264.32 50.7821 1261.25 47.7845 Q1258.17 44.7463 1258.17 39.4801 Q1258.17 33.0797 1262.7 29.5959 Q1267.24 26.1121 1275.59 26.1121 Q1279.72 26.1121 1283.36 26.7198 Q1287.01 27.3274 1290.09 28.5427 Z" fill="#000000" fill-rule="nonzero" fill-opacity="1" /><path clip-path="url(#clip710)" d="M1330.76 27.2059 L1338.21 27.2059 L1338.21 72.576 L1330.76 72.576 L1330.76 27.2059 M1330.76 9.54393 L1338.21 9.54393 L1338.21 18.9825 L1330.76 18.9825 L1330.76 9.54393 Z" fill="#000000" fill-rule="nonzero" fill-opacity="1" /><path clip-path="url(#clip710)" d="M1391.52 45.1919 L1391.52 72.576 L1384.07 72.576 L1384.07 45.4349 Q1384.07 38.994 1381.56 35.7938 Q1379.05 32.5936 1374.02 32.5936 Q1367.99 32.5936 1364.5 36.4419 Q1361.02 40.2903 1361.02 46.9338 L1361.02 72.576 L1353.53 72.576 L1353.53 27.2059 L1361.02 27.2059 L1361.02 34.2544 Q1363.69 30.163 1367.3 28.1376 Q1370.94 26.1121 1375.68 26.1121 Q1383.5 26.1121 1387.51 30.9732 Q1391.52 35.7938 1391.52 45.1919 Z" fill="#000000" fill-rule="nonzero" fill-opacity="1" /><path clip-path="url(#clip710)" d="M1439.97 65.7705 L1439.97 89.8329 L1432.48 89.8329 L1432.48 27.2059 L1439.97 27.2059 L1439.97 34.0924 Q1442.32 30.0415 1445.89 28.0971 Q1449.49 26.1121 1454.47 26.1121 Q1462.74 26.1121 1467.88 32.6746 Q1473.07 39.2371 1473.07 49.9314 Q1473.07 60.6258 1467.88 67.1883 Q1462.74 73.7508 1454.47 73.7508 Q1449.49 73.7508 1445.89 71.8063 Q1442.32 69.8214 1439.97 65.7705 M1465.33 49.9314 Q1465.33 41.7081 1461.93 37.0496 Q1458.57 32.3505 1452.65 32.3505 Q1446.74 32.3505 1443.33 37.0496 Q1439.97 41.7081 1439.97 49.9314 Q1439.97 58.1548 1443.33 62.8538 Q1446.74 67.5124 1452.65 67.5124 Q1458.57 67.5124 1461.93 62.8538 Q1465.33 58.1548 1465.33 49.9314 Z" fill="#000000" fill-rule="nonzero" fill-opacity="1" /><path clip-path="url(#clip710)" d="M1511.71 34.1734 Q1510.46 33.4443 1508.96 33.1202 Q1507.5 32.7556 1505.72 32.7556 Q1499.4 32.7556 1496 36.8875 Q1492.63 40.9789 1492.63 48.6757 L1492.63 72.576 L1485.14 72.576 L1485.14 27.2059 L1492.63 27.2059 L1492.63 34.2544 Q1494.98 30.1225 1498.75 28.1376 Q1502.52 26.1121 1507.91 26.1121 Q1508.68 26.1121 1509.61 26.2337 Q1510.54 26.3147 1511.67 26.5172 L1511.71 34.1734 Z" fill="#000000" fill-rule="nonzero" fill-opacity="1" /><path clip-path="url(#clip710)" d="M1535.29 32.4315 Q1529.29 32.4315 1525.81 37.1306 Q1522.33 41.7891 1522.33 49.9314 Q1522.33 58.0738 1525.77 62.7728 Q1529.25 67.4314 1535.29 67.4314 Q1541.24 67.4314 1544.73 62.7323 Q1548.21 58.0333 1548.21 49.9314 Q1548.21 41.8701 1544.73 37.1711 Q1541.24 32.4315 1535.29 32.4315 M1535.29 26.1121 Q1545.01 26.1121 1550.56 32.4315 Q1556.11 38.7509 1556.11 49.9314 Q1556.11 61.0714 1550.56 67.4314 Q1545.01 73.7508 1535.29 73.7508 Q1525.53 73.7508 1519.98 67.4314 Q1514.47 61.0714 1514.47 49.9314 Q1514.47 38.7509 1519.98 32.4315 Q1525.53 26.1121 1535.29 26.1121 Z" fill="#000000" fill-rule="nonzero" fill-opacity="1" /><path clip-path="url(#clip710)" d="M1624.69 49.3643 Q1624.69 41.2625 1621.33 36.8065 Q1618.01 32.3505 1611.97 32.3505 Q1605.98 32.3505 1602.62 36.8065 Q1599.29 41.2625 1599.29 49.3643 Q1599.29 57.4256 1602.62 61.8816 Q1605.98 66.3376 1611.97 66.3376 Q1618.01 66.3376 1621.33 61.8816 Q1624.69 57.4256 1624.69 49.3643 M1632.15 66.9452 Q1632.15 78.5308 1627 84.1616 Q1621.86 89.8329 1611.24 89.8329 Q1607.31 89.8329 1603.83 89.2252 Q1600.35 88.6581 1597.07 87.4428 L1597.07 80.1917 Q1600.35 81.9741 1603.55 82.8248 Q1606.75 83.6755 1610.07 83.6755 Q1617.4 83.6755 1621.05 79.8271 Q1624.69 76.0193 1624.69 68.282 L1624.69 64.5957 Q1622.38 68.6061 1618.78 70.5911 Q1615.17 72.576 1610.15 72.576 Q1601.81 72.576 1596.7 66.2161 Q1591.6 59.8562 1591.6 49.3643 Q1591.6 38.832 1596.7 32.472 Q1601.81 26.1121 1610.15 26.1121 Q1615.17 26.1121 1618.78 28.0971 Q1622.38 30.082 1624.69 34.0924 L1624.69 27.2059 L1632.15 27.2059 L1632.15 66.9452 Z" fill="#000000" fill-rule="nonzero" fill-opacity="1" /><path clip-path="url(#clip710)" d="M1665.08 32.4315 Q1659.09 32.4315 1655.6 37.1306 Q1652.12 41.7891 1652.12 49.9314 Q1652.12 58.0738 1655.56 62.7728 Q1659.04 67.4314 1665.08 67.4314 Q1671.04 67.4314 1674.52 62.7323 Q1678 58.0333 1678 49.9314 Q1678 41.8701 1674.52 37.1711 Q1671.04 32.4315 1665.08 32.4315 M1665.08 26.1121 Q1674.8 26.1121 1680.35 32.4315 Q1685.9 38.7509 1685.9 49.9314 Q1685.9 61.0714 1680.35 67.4314 Q1674.8 73.7508 1665.08 73.7508 Q1655.32 73.7508 1649.77 67.4314 Q1644.26 61.0714 1644.26 49.9314 Q1644.26 38.7509 1649.77 32.4315 Q1655.32 26.1121 1665.08 26.1121 Z" fill="#000000" fill-rule="nonzero" fill-opacity="1" /><path clip-path="url(#clip710)" d="M1698.26 9.54393 L1705.71 9.54393 L1705.71 72.576 L1698.26 72.576 L1698.26 9.54393 Z" fill="#000000" fill-rule="nonzero" fill-opacity="1" /><path clip-path="url(#clip710)" d="M1744.28 9.54393 L1744.28 15.7418 L1737.15 15.7418 Q1733.14 15.7418 1731.56 17.3622 Q1730.02 18.9825 1730.02 23.1955 L1730.02 27.2059 L1742.29 27.2059 L1742.29 32.9987 L1730.02 32.9987 L1730.02 72.576 L1722.52 72.576 L1722.52 32.9987 L1715.39 32.9987 L1715.39 27.2059 L1722.52 27.2059 L1722.52 24.0462 Q1722.52 16.471 1726.05 13.0277 Q1729.57 9.54393 1737.23 9.54393 L1744.28 9.54393 Z" fill="#000000" fill-rule="nonzero" fill-opacity="1" /><polyline clip-path="url(#clip712)" style="stroke:#000000; stroke-linecap:round; stroke-linejoin:round; stroke-width:4; stroke-opacity:1; fill:none" points="266.959,150.703 266.959,136.655 "/>
<polyline clip-path="url(#clip712)" style="stroke:#000000; stroke-linecap:round; stroke-linejoin:round; stroke-width:4; stroke-opacity:1; fill:none" points="375.147,266.831 375.147,236.546 "/>
<polyline clip-path="url(#clip712)" style="stroke:#000000; stroke-linecap:round; stroke-linejoin:round; stroke-width:4; stroke-opacity:1; fill:none" points="483.334,370.281 483.334,326.495 "/>
<polyline clip-path="url(#clip712)" style="stroke:#000000; stroke-linecap:round; stroke-linejoin:round; stroke-width:4; stroke-opacity:1; fill:none" points="591.522,537.636 591.522,481.834 "/>
<polyline clip-path="url(#clip712)" style="stroke:#000000; stroke-linecap:round; stroke-linejoin:round; stroke-width:4; stroke-opacity:1; fill:none" points="699.709,586.047 699.709,521.736 "/>
<polyline clip-path="url(#clip712)" style="stroke:#000000; stroke-linecap:round; stroke-linejoin:round; stroke-width:4; stroke-opacity:1; fill:none" points="807.897,604.752 807.897,538.287 "/>
<polyline clip-path="url(#clip712)" style="stroke:#000000; stroke-linecap:round; stroke-linejoin:round; stroke-width:4; stroke-opacity:1; fill:none" points="916.084,679.068 916.084,610.482 "/>
<polyline clip-path="url(#clip712)" style="stroke:#000000; stroke-linecap:round; stroke-linejoin:round; stroke-width:4; stroke-opacity:1; fill:none" points="1024.27,832.458 1024.27,765.088 "/>
<polyline clip-path="url(#clip712)" style="stroke:#000000; stroke-linecap:round; stroke-linejoin:round; stroke-width:4; stroke-opacity:1; fill:none" points="1132.46,816.191 1132.46,745.068 "/>
<polyline clip-path="url(#clip712)" style="stroke:#000000; stroke-linecap:round; stroke-linejoin:round; stroke-width:4; stroke-opacity:1; fill:none" points="1240.65,832.58 1240.65,768.198 "/>
<polyline clip-path="url(#clip712)" style="stroke:#000000; stroke-linecap:round; stroke-linejoin:round; stroke-width:4; stroke-opacity:1; fill:none" points="1348.83,896.065 1348.83,830.509 "/>
<polyline clip-path="url(#clip712)" style="stroke:#000000; stroke-linecap:round; stroke-linejoin:round; stroke-width:4; stroke-opacity:1; fill:none" points="1457.02,915.121 1457.02,849.476 "/>
<polyline clip-path="url(#clip712)" style="stroke:#000000; stroke-linecap:round; stroke-linejoin:round; stroke-width:4; stroke-opacity:1; fill:none" points="1565.21,844.271 1565.21,769.53 "/>
<polyline clip-path="url(#clip712)" style="stroke:#000000; stroke-linecap:round; stroke-linejoin:round; stroke-width:4; stroke-opacity:1; fill:none" points="1673.4,989.732 1673.4,928.128 "/>
<polyline clip-path="url(#clip712)" style="stroke:#000000; stroke-linecap:round; stroke-linejoin:round; stroke-width:4; stroke-opacity:1; fill:none" points="1781.58,1020.08 1781.58,968.822 "/>
<polyline clip-path="url(#clip712)" style="stroke:#000000; stroke-linecap:round; stroke-linejoin:round; stroke-width:4; stroke-opacity:1; fill:none" points="1889.77,996.091 1889.77,940.289 "/>
<polyline clip-path="url(#clip712)" style="stroke:#000000; stroke-linecap:round; stroke-linejoin:round; stroke-width:4; stroke-opacity:1; fill:none" points="1997.96,982.632 1997.96,924.338 "/>
<polyline clip-path="url(#clip712)" style="stroke:#000000; stroke-linecap:round; stroke-linejoin:round; stroke-width:4; stroke-opacity:1; fill:none" points="2106.15,1022.74 2106.15,962.481 "/>
<polyline clip-path="url(#clip712)" style="stroke:#000000; stroke-linecap:round; stroke-linejoin:round; stroke-width:4; stroke-opacity:1; fill:none" points="2214.33,1000.85 2214.33,937.826 "/>
<line clip-path="url(#clip712)" x1="282.959" y1="150.703" x2="250.959" y2="150.703" style="stroke:#000000; stroke-width:4; stroke-opacity:1"/>
<line clip-path="url(#clip712)" x1="282.959" y1="136.655" x2="250.959" y2="136.655" style="stroke:#000000; stroke-width:4; stroke-opacity:1"/>
<line clip-path="url(#clip712)" x1="391.147" y1="266.831" x2="359.147" y2="266.831" style="stroke:#000000; stroke-width:4; stroke-opacity:1"/>
<line clip-path="url(#clip712)" x1="391.147" y1="236.546" x2="359.147" y2="236.546" style="stroke:#000000; stroke-width:4; stroke-opacity:1"/>
<line clip-path="url(#clip712)" x1="499.334" y1="370.281" x2="467.334" y2="370.281" style="stroke:#000000; stroke-width:4; stroke-opacity:1"/>
<line clip-path="url(#clip712)" x1="499.334" y1="326.495" x2="467.334" y2="326.495" style="stroke:#000000; stroke-width:4; stroke-opacity:1"/>
<line clip-path="url(#clip712)" x1="607.522" y1="537.636" x2="575.522" y2="537.636" style="stroke:#000000; stroke-width:4; stroke-opacity:1"/>
<line clip-path="url(#clip712)" x1="607.522" y1="481.834" x2="575.522" y2="481.834" style="stroke:#000000; stroke-width:4; stroke-opacity:1"/>
<line clip-path="url(#clip712)" x1="715.709" y1="586.047" x2="683.709" y2="586.047" style="stroke:#000000; stroke-width:4; stroke-opacity:1"/>
<line clip-path="url(#clip712)" x1="715.709" y1="521.736" x2="683.709" y2="521.736" style="stroke:#000000; stroke-width:4; stroke-opacity:1"/>
<line clip-path="url(#clip712)" x1="823.897" y1="604.752" x2="791.897" y2="604.752" style="stroke:#000000; stroke-width:4; stroke-opacity:1"/>
<line clip-path="url(#clip712)" x1="823.897" y1="538.287" x2="791.897" y2="538.287" style="stroke:#000000; stroke-width:4; stroke-opacity:1"/>
<line clip-path="url(#clip712)" x1="932.084" y1="679.068" x2="900.084" y2="679.068" style="stroke:#000000; stroke-width:4; stroke-opacity:1"/>
<line clip-path="url(#clip712)" x1="932.084" y1="610.482" x2="900.084" y2="610.482" style="stroke:#000000; stroke-width:4; stroke-opacity:1"/>
<line clip-path="url(#clip712)" x1="1040.27" y1="832.458" x2="1008.27" y2="832.458" style="stroke:#000000; stroke-width:4; stroke-opacity:1"/>
<line clip-path="url(#clip712)" x1="1040.27" y1="765.088" x2="1008.27" y2="765.088" style="stroke:#000000; stroke-width:4; stroke-opacity:1"/>
<line clip-path="url(#clip712)" x1="1148.46" y1="816.191" x2="1116.46" y2="816.191" style="stroke:#000000; stroke-width:4; stroke-opacity:1"/>
<line clip-path="url(#clip712)" x1="1148.46" y1="745.068" x2="1116.46" y2="745.068" style="stroke:#000000; stroke-width:4; stroke-opacity:1"/>
<line clip-path="url(#clip712)" x1="1256.65" y1="832.58" x2="1224.65" y2="832.58" style="stroke:#000000; stroke-width:4; stroke-opacity:1"/>
<line clip-path="url(#clip712)" x1="1256.65" y1="768.198" x2="1224.65" y2="768.198" style="stroke:#000000; stroke-width:4; stroke-opacity:1"/>
<line clip-path="url(#clip712)" x1="1364.83" y1="896.065" x2="1332.83" y2="896.065" style="stroke:#000000; stroke-width:4; stroke-opacity:1"/>
<line clip-path="url(#clip712)" x1="1364.83" y1="830.509" x2="1332.83" y2="830.509" style="stroke:#000000; stroke-width:4; stroke-opacity:1"/>
<line clip-path="url(#clip712)" x1="1473.02" y1="915.121" x2="1441.02" y2="915.121" style="stroke:#000000; stroke-width:4; stroke-opacity:1"/>
<line clip-path="url(#clip712)" x1="1473.02" y1="849.476" x2="1441.02" y2="849.476" style="stroke:#000000; stroke-width:4; stroke-opacity:1"/>
<line clip-path="url(#clip712)" x1="1581.21" y1="844.271" x2="1549.21" y2="844.271" style="stroke:#000000; stroke-width:4; stroke-opacity:1"/>
<line clip-path="url(#clip712)" x1="1581.21" y1="769.53" x2="1549.21" y2="769.53" style="stroke:#000000; stroke-width:4; stroke-opacity:1"/>
<line clip-path="url(#clip712)" x1="1689.4" y1="989.732" x2="1657.4" y2="989.732" style="stroke:#000000; stroke-width:4; stroke-opacity:1"/>
<line clip-path="url(#clip712)" x1="1689.4" y1="928.128" x2="1657.4" y2="928.128" style="stroke:#000000; stroke-width:4; stroke-opacity:1"/>
<line clip-path="url(#clip712)" x1="1797.58" y1="1020.08" x2="1765.58" y2="1020.08" style="stroke:#000000; stroke-width:4; stroke-opacity:1"/>
<line clip-path="url(#clip712)" x1="1797.58" y1="968.822" x2="1765.58" y2="968.822" style="stroke:#000000; stroke-width:4; stroke-opacity:1"/>
<line clip-path="url(#clip712)" x1="1905.77" y1="996.091" x2="1873.77" y2="996.091" style="stroke:#000000; stroke-width:4; stroke-opacity:1"/>
<line clip-path="url(#clip712)" x1="1905.77" y1="940.289" x2="1873.77" y2="940.289" style="stroke:#000000; stroke-width:4; stroke-opacity:1"/>
<line clip-path="url(#clip712)" x1="2013.96" y1="982.632" x2="1981.96" y2="982.632" style="stroke:#000000; stroke-width:4; stroke-opacity:1"/>
<line clip-path="url(#clip712)" x1="2013.96" y1="924.338" x2="1981.96" y2="924.338" style="stroke:#000000; stroke-width:4; stroke-opacity:1"/>
<line clip-path="url(#clip712)" x1="2122.15" y1="1022.74" x2="2090.15" y2="1022.74" style="stroke:#000000; stroke-width:4; stroke-opacity:1"/>
<line clip-path="url(#clip712)" x1="2122.15" y1="962.481" x2="2090.15" y2="962.481" style="stroke:#000000; stroke-width:4; stroke-opacity:1"/>
<line clip-path="url(#clip712)" x1="2230.33" y1="1000.85" x2="2198.33" y2="1000.85" style="stroke:#000000; stroke-width:4; stroke-opacity:1"/>
<line clip-path="url(#clip712)" x1="2230.33" y1="937.826" x2="2198.33" y2="937.826" style="stroke:#000000; stroke-width:4; stroke-opacity:1"/>
<circle clip-path="url(#clip712)" cx="266.959" cy="143.679" r="14.4" fill="#add8e6" fill-rule="evenodd" fill-opacity="1" stroke="#000000" stroke-opacity="1" stroke-width="2.408"/>
<circle clip-path="url(#clip712)" cx="375.147" cy="251.688" r="14.4" fill="#add8e6" fill-rule="evenodd" fill-opacity="1" stroke="#000000" stroke-opacity="1" stroke-width="2.408"/>
<circle clip-path="url(#clip712)" cx="483.334" cy="348.388" r="14.4" fill="#add8e6" fill-rule="evenodd" fill-opacity="1" stroke="#000000" stroke-opacity="1" stroke-width="2.408"/>
<circle clip-path="url(#clip712)" cx="591.522" cy="509.735" r="14.4" fill="#add8e6" fill-rule="evenodd" fill-opacity="1" stroke="#000000" stroke-opacity="1" stroke-width="2.408"/>
<circle clip-path="url(#clip712)" cx="699.709" cy="553.891" r="14.4" fill="#add8e6" fill-rule="evenodd" fill-opacity="1" stroke="#000000" stroke-opacity="1" stroke-width="2.408"/>
<circle clip-path="url(#clip712)" cx="807.897" cy="571.52" r="14.4" fill="#add8e6" fill-rule="evenodd" fill-opacity="1" stroke="#000000" stroke-opacity="1" stroke-width="2.408"/>
<circle clip-path="url(#clip712)" cx="916.084" cy="644.775" r="14.4" fill="#add8e6" fill-rule="evenodd" fill-opacity="1" stroke="#000000" stroke-opacity="1" stroke-width="2.408"/>
<circle clip-path="url(#clip712)" cx="1024.27" cy="798.773" r="14.4" fill="#add8e6" fill-rule="evenodd" fill-opacity="1" stroke="#000000" stroke-opacity="1" stroke-width="2.408"/>
<circle clip-path="url(#clip712)" cx="1132.46" cy="780.63" r="14.4" fill="#add8e6" fill-rule="evenodd" fill-opacity="1" stroke="#000000" stroke-opacity="1" stroke-width="2.408"/>
<circle clip-path="url(#clip712)" cx="1240.65" cy="800.389" r="14.4" fill="#add8e6" fill-rule="evenodd" fill-opacity="1" stroke="#000000" stroke-opacity="1" stroke-width="2.408"/>
<circle clip-path="url(#clip712)" cx="1348.83" cy="863.287" r="14.4" fill="#add8e6" fill-rule="evenodd" fill-opacity="1" stroke="#000000" stroke-opacity="1" stroke-width="2.408"/>
<circle clip-path="url(#clip712)" cx="1457.02" cy="882.299" r="14.4" fill="#add8e6" fill-rule="evenodd" fill-opacity="1" stroke="#000000" stroke-opacity="1" stroke-width="2.408"/>
<circle clip-path="url(#clip712)" cx="1565.21" cy="806.9" r="14.4" fill="#add8e6" fill-rule="evenodd" fill-opacity="1" stroke="#000000" stroke-opacity="1" stroke-width="2.408"/>
<circle clip-path="url(#clip712)" cx="1673.4" cy="958.93" r="14.4" fill="#add8e6" fill-rule="evenodd" fill-opacity="1" stroke="#000000" stroke-opacity="1" stroke-width="2.408"/>
<circle clip-path="url(#clip712)" cx="1781.58" cy="994.451" r="14.4" fill="#add8e6" fill-rule="evenodd" fill-opacity="1" stroke="#000000" stroke-opacity="1" stroke-width="2.408"/>
<circle clip-path="url(#clip712)" cx="1889.77" cy="968.19" r="14.4" fill="#add8e6" fill-rule="evenodd" fill-opacity="1" stroke="#000000" stroke-opacity="1" stroke-width="2.408"/>
<circle clip-path="url(#clip712)" cx="1997.96" cy="953.485" r="14.4" fill="#add8e6" fill-rule="evenodd" fill-opacity="1" stroke="#000000" stroke-opacity="1" stroke-width="2.408"/>
<circle clip-path="url(#clip712)" cx="2106.15" cy="992.612" r="14.4" fill="#add8e6" fill-rule="evenodd" fill-opacity="1" stroke="#000000" stroke-opacity="1" stroke-width="2.408"/>
<circle clip-path="url(#clip712)" cx="2214.33" cy="969.34" r="14.4" fill="#add8e6" fill-rule="evenodd" fill-opacity="1" stroke="#000000" stroke-opacity="1" stroke-width="2.408"/>
</svg>
