<?xml version="1.0" encoding="utf-8"?>
<svg xmlns="http://www.w3.org/2000/svg" xmlns:xlink="http://www.w3.org/1999/xlink" width="580" height="301" viewBox="0 0 2320 1204">
<defs>
  <clipPath id="clip290">
    <rect x="0" y="0" width="2320" height="1204"/>
  </clipPath>
</defs>
<path clip-path="url(#clip290)" d="
M0 1204 L2320 1204 L2320 0 L0 0  Z
  " fill="#ffffff" fill-rule="evenodd" fill-opacity="1"/>
<defs>
  <clipPath id="clip291">
    <rect x="464" y="0" width="1625" height="1204"/>
  </clipPath>
</defs>
<path clip-path="url(#clip290)" d="
M238.214 1049.32 L2272.76 1049.32 L2272.76 110.073 L238.214 110.073  Z
  " fill="#ffffff" fill-rule="evenodd" fill-opacity="1"/>
<defs>
  <clipPath id="clip292">
    <rect x="238" y="110" width="2036" height="940"/>
  </clipPath>
</defs>
<polyline clip-path="url(#clip292)" style="stroke:#000000; stroke-linecap:butt; stroke-linejoin:round; stroke-width:2; stroke-opacity:0.1; fill:none" points="
  288.621,1049.32 288.621,110.073 
  "/>
<polyline clip-path="url(#clip292)" style="stroke:#000000; stroke-linecap:butt; stroke-linejoin:round; stroke-width:2; stroke-opacity:0.1; fill:none" points="
  801.07,1049.32 801.07,110.073 
  "/>
<polyline clip-path="url(#clip292)" style="stroke:#000000; stroke-linecap:butt; stroke-linejoin:round; stroke-width:2; stroke-opacity:0.1; fill:none" points="
  1313.52,1049.32 1313.52,110.073 
  "/>
<polyline clip-path="url(#clip292)" style="stroke:#000000; stroke-linecap:butt; stroke-linejoin:round; stroke-width:2; stroke-opacity:0.1; fill:none" points="
  1825.97,1049.32 1825.97,110.073 
  "/>
<polyline clip-path="url(#clip290)" style="stroke:#000000; stroke-linecap:butt; stroke-linejoin:round; stroke-width:4; stroke-opacity:1; fill:none" points="
  238.214,1049.32 2272.76,1049.32 
  "/>
<polyline clip-path="url(#clip290)" style="stroke:#000000; stroke-linecap:butt; stroke-linejoin:round; stroke-width:4; stroke-opacity:1; fill:none" points="
  288.621,1049.32 288.621,1030.43 
  "/>
<polyline clip-path="url(#clip290)" style="stroke:#000000; stroke-linecap:butt; stroke-linejoin:round; stroke-width:4; stroke-opacity:1; fill:none" points="
  801.07,1049.32 801.07,1030.43 
  "/>
<polyline clip-path="url(#clip290)" style="stroke:#000000; stroke-linecap:butt; stroke-linejoin:round; stroke-width:4; stroke-opacity:1; fill:none" points="
  1313.52,1049.32 1313.52,1030.43 
  "/>
<polyline clip-path="url(#clip290)" style="stroke:#000000; stroke-linecap:butt; stroke-linejoin:round; stroke-width:4; stroke-opacity:1; fill:none" points="
  1825.97,1049.32 1825.97,1030.43 
  "/>
<path clip-path="url(#clip290)" d="M288.621 1079.6 Q285.01 1079.6 283.181 1083.17 Q281.376 1086.71 281.376 1093.84 Q281.376 1100.95 283.181 1104.51 Q285.01 1108.05 288.621 1108.05 Q292.255 1108.05 294.061 1104.51 Q295.889 1100.95 295.889 1093.84 Q295.889 1086.71 294.061 1083.17 Q292.255 1079.6 288.621 1079.6 M288.621 1075.9 Q294.431 1075.9 297.487 1080.51 Q300.565 1085.09 300.565 1093.84 Q300.565 1102.57 297.487 1107.17 Q294.431 1111.76 288.621 1111.76 Q282.811 1111.76 279.732 1107.17 Q276.677 1102.57 276.677 1093.84 Q276.677 1085.09 279.732 1080.51 Q282.811 1075.9 288.621 1075.9 Z" fill="#000000" fill-rule="evenodd" fill-opacity="1" /><path clip-path="url(#clip290)" d="M779.844 1107.15 L796.163 1107.15 L796.163 1111.08 L774.219 1111.08 L774.219 1107.15 Q776.881 1104.4 781.464 1099.77 Q786.07 1095.11 787.251 1093.77 Q789.496 1091.25 790.376 1089.51 Q791.279 1087.75 791.279 1086.06 Q791.279 1083.31 789.334 1081.57 Q787.413 1079.83 784.311 1079.83 Q782.112 1079.83 779.658 1080.6 Q777.228 1081.36 774.45 1082.91 L774.45 1078.19 Q777.274 1077.06 779.728 1076.48 Q782.182 1075.9 784.219 1075.9 Q789.589 1075.9 792.783 1078.58 Q795.978 1081.27 795.978 1085.76 Q795.978 1087.89 795.168 1089.81 Q794.381 1091.71 792.274 1094.3 Q791.695 1094.97 788.594 1098.19 Q785.492 1101.39 779.844 1107.15 Z" fill="#000000" fill-rule="evenodd" fill-opacity="1" /><path clip-path="url(#clip290)" d="M815.978 1079.6 Q812.367 1079.6 810.538 1083.17 Q808.732 1086.71 808.732 1093.84 Q808.732 1100.95 810.538 1104.51 Q812.367 1108.05 815.978 1108.05 Q819.612 1108.05 821.418 1104.51 Q823.246 1100.95 823.246 1093.84 Q823.246 1086.71 821.418 1083.17 Q819.612 1079.6 815.978 1079.6 M815.978 1075.9 Q821.788 1075.9 824.843 1080.51 Q827.922 1085.09 827.922 1093.84 Q827.922 1102.57 824.843 1107.17 Q821.788 1111.76 815.978 1111.76 Q810.168 1111.76 807.089 1107.17 Q804.033 1102.57 804.033 1093.84 Q804.033 1085.09 807.089 1080.51 Q810.168 1075.9 815.978 1075.9 Z" fill="#000000" fill-rule="evenodd" fill-opacity="1" /><path clip-path="url(#clip290)" d="M1301.69 1080.6 L1289.89 1099.05 L1301.69 1099.05 L1301.69 1080.6 M1300.46 1076.52 L1306.34 1076.52 L1306.34 1099.05 L1311.27 1099.05 L1311.27 1102.94 L1306.34 1102.94 L1306.34 1111.08 L1301.69 1111.08 L1301.69 1102.94 L1286.09 1102.94 L1286.09 1098.42 L1300.46 1076.52 Z" fill="#000000" fill-rule="evenodd" fill-opacity="1" /><path clip-path="url(#clip290)" d="M1329.01 1079.6 Q1325.39 1079.6 1323.57 1083.17 Q1321.76 1086.71 1321.76 1093.84 Q1321.76 1100.95 1323.57 1104.51 Q1325.39 1108.05 1329.01 1108.05 Q1332.64 1108.05 1334.45 1104.51 Q1336.27 1100.95 1336.27 1093.84 Q1336.27 1086.71 1334.45 1083.17 Q1332.64 1079.6 1329.01 1079.6 M1329.01 1075.9 Q1334.82 1075.9 1337.87 1080.51 Q1340.95 1085.09 1340.95 1093.84 Q1340.95 1102.57 1337.87 1107.17 Q1334.82 1111.76 1329.01 1111.76 Q1323.2 1111.76 1320.12 1107.17 Q1317.06 1102.57 1317.06 1093.84 Q1317.06 1085.09 1320.12 1080.51 Q1323.2 1075.9 1329.01 1075.9 Z" fill="#000000" fill-rule="evenodd" fill-opacity="1" /><path clip-path="url(#clip290)" d="M1811.37 1091.94 Q1808.23 1091.94 1806.37 1094.09 Q1804.55 1096.25 1804.55 1100 Q1804.55 1103.72 1806.37 1105.9 Q1808.23 1108.05 1811.37 1108.05 Q1814.52 1108.05 1816.35 1105.9 Q1818.2 1103.72 1818.2 1100 Q1818.2 1096.25 1816.35 1094.09 Q1814.52 1091.94 1811.37 1091.94 M1820.66 1077.29 L1820.66 1081.55 Q1818.9 1080.71 1817.09 1080.27 Q1815.31 1079.83 1813.55 1079.83 Q1808.92 1079.83 1806.47 1082.96 Q1804.04 1086.08 1803.69 1092.4 Q1805.05 1090.39 1807.12 1089.33 Q1809.18 1088.24 1811.65 1088.24 Q1816.86 1088.24 1819.87 1091.41 Q1822.9 1094.56 1822.9 1100 Q1822.9 1105.32 1819.75 1108.54 Q1816.61 1111.76 1811.37 1111.76 Q1805.38 1111.76 1802.21 1107.17 Q1799.04 1102.57 1799.04 1093.84 Q1799.04 1085.65 1802.93 1080.78 Q1806.81 1075.9 1813.37 1075.9 Q1815.12 1075.9 1816.91 1076.25 Q1818.71 1076.59 1820.66 1077.29 Z" fill="#000000" fill-rule="evenodd" fill-opacity="1" /><path clip-path="url(#clip290)" d="M1840.96 1079.6 Q1837.35 1079.6 1835.52 1083.17 Q1833.71 1086.71 1833.71 1093.84 Q1833.71 1100.95 1835.52 1104.51 Q1837.35 1108.05 1840.96 1108.05 Q1844.59 1108.05 1846.4 1104.51 Q1848.23 1100.95 1848.23 1093.84 Q1848.23 1086.71 1846.4 1083.17 Q1844.59 1079.6 1840.96 1079.6 M1840.96 1075.9 Q1846.77 1075.9 1849.82 1080.51 Q1852.9 1085.09 1852.9 1093.84 Q1852.9 1102.57 1849.82 1107.17 Q1846.77 1111.76 1840.96 1111.76 Q1835.15 1111.76 1832.07 1107.17 Q1829.01 1102.57 1829.01 1093.84 Q1829.01 1085.09 1832.07 1080.51 Q1835.15 1075.9 1840.96 1075.9 Z" fill="#000000" fill-rule="evenodd" fill-opacity="1" /><path clip-path="url(#clip290)" d="M858.981 1150.75 L858.981 1187.71 L866.747 1187.71 Q876.582 1187.71 881.134 1183.25 Q885.717 1178.79 885.717 1169.18 Q885.717 1159.63 881.134 1155.21 Q876.582 1150.75 866.747 1150.75 L858.981 1150.75 M852.552 1145.47 L865.76 1145.47 Q879.574 1145.47 886.035 1151.23 Q892.496 1156.96 892.496 1169.18 Q892.496 1181.47 886.003 1187.23 Q879.51 1192.99 865.76 1192.99 L852.552 1192.99 L852.552 1145.47 Z" fill="#000000" fill-rule="evenodd" fill-opacity="1" /><path clip-path="url(#clip290)" d="M902.491 1157.34 L908.347 1157.34 L908.347 1192.99 L902.491 1192.99 L902.491 1157.34 M902.491 1143.46 L908.347 1143.46 L908.347 1150.88 L902.491 1150.88 L902.491 1143.46 Z" fill="#000000" fill-rule="evenodd" fill-opacity="1" /><path clip-path="url(#clip290)" d="M943.327 1158.39 L943.327 1163.93 Q940.844 1162.66 938.17 1162.02 Q935.497 1161.38 932.632 1161.38 Q928.272 1161.38 926.075 1162.72 Q923.911 1164.06 923.911 1166.73 Q923.911 1168.77 925.471 1169.94 Q927.03 1171.09 931.741 1172.14 L933.746 1172.59 Q939.985 1173.92 942.595 1176.37 Q945.236 1178.79 945.236 1183.15 Q945.236 1188.12 941.29 1191.02 Q937.375 1193.91 930.5 1193.91 Q927.635 1193.91 924.516 1193.34 Q921.429 1192.8 917.991 1191.68 L917.991 1185.64 Q921.238 1187.32 924.389 1188.18 Q927.54 1189.01 930.627 1189.01 Q934.765 1189.01 936.993 1187.61 Q939.221 1186.18 939.221 1183.6 Q939.221 1181.21 937.597 1179.94 Q936.006 1178.67 930.563 1177.49 L928.526 1177.01 Q923.084 1175.87 920.665 1173.51 Q918.246 1171.12 918.246 1166.98 Q918.246 1161.96 921.81 1159.22 Q925.375 1156.48 931.932 1156.48 Q935.178 1156.48 938.043 1156.96 Q940.908 1157.44 943.327 1158.39 Z" fill="#000000" fill-rule="evenodd" fill-opacity="1" /><path clip-path="url(#clip290)" d="M960.355 1147.22 L960.355 1157.34 L972.418 1157.34 L972.418 1161.89 L960.355 1161.89 L960.355 1181.24 Q960.355 1185.6 961.532 1186.85 Q962.742 1188.09 966.402 1188.09 L972.418 1188.09 L972.418 1192.99 L966.402 1192.99 Q959.623 1192.99 957.045 1190.47 Q954.467 1187.93 954.467 1181.24 L954.467 1161.89 L950.17 1161.89 L950.17 1157.34 L954.467 1157.34 L954.467 1147.22 L960.355 1147.22 Z" fill="#000000" fill-rule="evenodd" fill-opacity="1" /><path clip-path="url(#clip290)" d="M996.321 1175.07 Q989.223 1175.07 986.486 1176.69 Q983.749 1178.32 983.749 1182.23 Q983.749 1185.35 985.786 1187.2 Q987.855 1189.01 991.388 1189.01 Q996.257 1189.01 999.186 1185.57 Q1002.15 1182.1 1002.15 1176.37 L1002.15 1175.07 L996.321 1175.07 M1008 1172.65 L1008 1192.99 L1002.15 1192.99 L1002.15 1187.58 Q1000.14 1190.82 997.149 1192.38 Q994.157 1193.91 989.828 1193.91 Q984.354 1193.91 981.107 1190.86 Q977.892 1187.77 977.892 1182.61 Q977.892 1176.6 981.903 1173.54 Q985.945 1170.49 993.934 1170.49 L1002.15 1170.49 L1002.15 1169.91 Q1002.15 1165.87 999.472 1163.67 Q996.83 1161.45 992.024 1161.45 Q988.969 1161.45 986.072 1162.18 Q983.176 1162.91 980.502 1164.37 L980.502 1158.96 Q983.717 1157.72 986.741 1157.12 Q989.764 1156.48 992.629 1156.48 Q1000.36 1156.48 1004.18 1160.49 Q1008 1164.5 1008 1172.65 Z" fill="#000000" fill-rule="evenodd" fill-opacity="1" /><path clip-path="url(#clip290)" d="M1049.7 1171.47 L1049.7 1192.99 L1043.84 1192.99 L1043.84 1171.66 Q1043.84 1166.6 1041.87 1164.09 Q1039.89 1161.57 1035.95 1161.57 Q1031.21 1161.57 1028.47 1164.6 Q1025.73 1167.62 1025.73 1172.84 L1025.73 1192.99 L1019.84 1192.99 L1019.84 1157.34 L1025.73 1157.34 L1025.73 1162.88 Q1027.83 1159.66 1030.66 1158.07 Q1033.53 1156.48 1037.25 1156.48 Q1043.4 1156.48 1046.55 1160.3 Q1049.7 1164.09 1049.7 1171.47 Z" fill="#000000" fill-rule="evenodd" fill-opacity="1" /><path clip-path="url(#clip290)" d="M1087.03 1158.71 L1087.03 1164.18 Q1084.55 1162.82 1082.04 1162.15 Q1079.55 1161.45 1077.01 1161.45 Q1071.31 1161.45 1068.16 1165.08 Q1065.01 1168.67 1065.01 1175.2 Q1065.01 1181.72 1068.16 1185.35 Q1071.31 1188.95 1077.01 1188.95 Q1079.55 1188.95 1082.04 1188.28 Q1084.55 1187.58 1087.03 1186.21 L1087.03 1191.62 Q1084.58 1192.77 1081.94 1193.34 Q1079.33 1193.91 1076.37 1193.91 Q1068.32 1193.91 1063.57 1188.85 Q1058.83 1183.79 1058.83 1175.2 Q1058.83 1166.48 1063.61 1161.48 Q1068.41 1156.48 1076.75 1156.48 Q1079.46 1156.48 1082.04 1157.05 Q1084.61 1157.6 1087.03 1158.71 Z" fill="#000000" fill-rule="evenodd" fill-opacity="1" /><path clip-path="url(#clip290)" d="M1127.71 1173.7 L1127.71 1176.57 L1100.78 1176.57 Q1101.16 1182.61 1104.41 1185.8 Q1107.69 1188.95 1113.51 1188.95 Q1116.89 1188.95 1120.04 1188.12 Q1123.22 1187.29 1126.34 1185.64 L1126.34 1191.17 Q1123.19 1192.51 1119.88 1193.21 Q1116.57 1193.91 1113.16 1193.91 Q1104.63 1193.91 1099.64 1188.95 Q1094.67 1183.98 1094.67 1175.51 Q1094.67 1166.76 1099.38 1161.64 Q1104.12 1156.48 1112.15 1156.48 Q1119.34 1156.48 1123.51 1161.13 Q1127.71 1165.74 1127.71 1173.7 M1121.85 1171.98 Q1121.79 1167.18 1119.15 1164.31 Q1116.54 1161.45 1112.21 1161.45 Q1107.31 1161.45 1104.35 1164.22 Q1101.42 1166.98 1100.97 1172.01 L1121.85 1171.98 Z" fill="#000000" fill-rule="evenodd" fill-opacity="1" /><path clip-path="url(#clip290)" d="M1176.09 1143.46 L1176.09 1148.33 L1170.49 1148.33 Q1167.34 1148.33 1166.09 1149.61 Q1164.88 1150.88 1164.88 1154.19 L1164.88 1157.34 L1174.53 1157.34 L1174.53 1161.89 L1164.88 1161.89 L1164.88 1192.99 L1159 1192.99 L1159 1161.89 L1153.39 1161.89 L1153.39 1157.34 L1159 1157.34 L1159 1154.86 Q1159 1148.91 1161.77 1146.2 Q1164.53 1143.46 1170.55 1143.46 L1176.09 1143.46 Z" fill="#000000" fill-rule="evenodd" fill-opacity="1" /><path clip-path="url(#clip290)" d="M1201.65 1162.82 Q1200.66 1162.24 1199.48 1161.99 Q1198.34 1161.7 1196.94 1161.7 Q1191.97 1161.7 1189.3 1164.95 Q1186.66 1168.16 1186.66 1174.21 L1186.66 1192.99 L1180.77 1192.99 L1180.77 1157.34 L1186.66 1157.34 L1186.66 1162.88 Q1188.5 1159.63 1191.46 1158.07 Q1194.42 1156.48 1198.66 1156.48 Q1199.26 1156.48 1199.99 1156.58 Q1200.72 1156.64 1201.62 1156.8 L1201.65 1162.82 Z" fill="#000000" fill-rule="evenodd" fill-opacity="1" /><path clip-path="url(#clip290)" d="M1220.17 1161.45 Q1215.46 1161.45 1212.72 1165.14 Q1209.99 1168.8 1209.99 1175.2 Q1209.99 1181.59 1212.69 1185.29 Q1215.43 1188.95 1220.17 1188.95 Q1224.85 1188.95 1227.59 1185.25 Q1230.32 1181.56 1230.32 1175.2 Q1230.32 1168.86 1227.59 1165.17 Q1224.85 1161.45 1220.17 1161.45 M1220.17 1156.48 Q1227.81 1156.48 1232.17 1161.45 Q1236.53 1166.41 1236.53 1175.2 Q1236.53 1183.95 1232.17 1188.95 Q1227.81 1193.91 1220.17 1193.91 Q1212.5 1193.91 1208.14 1188.95 Q1203.81 1183.95 1203.81 1175.2 Q1203.81 1166.41 1208.14 1161.45 Q1212.5 1156.48 1220.17 1156.48 Z" fill="#000000" fill-rule="evenodd" fill-opacity="1" /><path clip-path="url(#clip290)" d="M1273.99 1164.18 Q1276.19 1160.24 1279.24 1158.36 Q1282.3 1156.48 1286.44 1156.48 Q1292.01 1156.48 1295.03 1160.4 Q1298.06 1164.28 1298.06 1171.47 L1298.06 1192.99 L1292.17 1192.99 L1292.17 1171.66 Q1292.17 1166.54 1290.35 1164.06 Q1288.54 1161.57 1284.81 1161.57 Q1280.26 1161.57 1277.62 1164.6 Q1274.98 1167.62 1274.98 1172.84 L1274.98 1192.99 L1269.09 1192.99 L1269.09 1171.66 Q1269.09 1166.51 1267.28 1164.06 Q1265.46 1161.57 1261.68 1161.57 Q1257.19 1161.57 1254.55 1164.63 Q1251.9 1167.65 1251.9 1172.84 L1251.9 1192.99 L1246.02 1192.99 L1246.02 1157.34 L1251.9 1157.34 L1251.9 1162.88 Q1253.91 1159.6 1256.71 1158.04 Q1259.51 1156.48 1263.36 1156.48 Q1267.25 1156.48 1269.95 1158.45 Q1272.69 1160.43 1273.99 1164.18 Z" fill="#000000" fill-rule="evenodd" fill-opacity="1" /><path clip-path="url(#clip290)" d="M1360.09 1171.47 L1360.09 1192.99 L1354.23 1192.99 L1354.23 1171.66 Q1354.23 1166.6 1352.26 1164.09 Q1350.29 1161.57 1346.34 1161.57 Q1341.6 1161.57 1338.86 1164.6 Q1336.12 1167.62 1336.12 1172.84 L1336.12 1192.99 L1330.23 1192.99 L1330.23 1143.46 L1336.12 1143.46 L1336.12 1162.88 Q1338.22 1159.66 1341.06 1158.07 Q1343.92 1156.48 1347.64 1156.48 Q1353.79 1156.48 1356.94 1160.3 Q1360.09 1164.09 1360.09 1171.47 Z" fill="#000000" fill-rule="evenodd" fill-opacity="1" /><path clip-path="url(#clip290)" d="M1385.58 1161.45 Q1380.87 1161.45 1378.14 1165.14 Q1375.4 1168.8 1375.4 1175.2 Q1375.4 1181.59 1378.1 1185.29 Q1380.84 1188.95 1385.58 1188.95 Q1390.26 1188.95 1393 1185.25 Q1395.74 1181.56 1395.74 1175.2 Q1395.74 1168.86 1393 1165.17 Q1390.26 1161.45 1385.58 1161.45 M1385.58 1156.48 Q1393.22 1156.48 1397.58 1161.45 Q1401.94 1166.41 1401.94 1175.2 Q1401.94 1183.95 1397.58 1188.95 Q1393.22 1193.91 1385.58 1193.91 Q1377.91 1193.91 1373.55 1188.95 Q1369.22 1183.95 1369.22 1175.2 Q1369.22 1166.41 1373.55 1161.45 Q1377.91 1156.48 1385.58 1156.48 Z" fill="#000000" fill-rule="evenodd" fill-opacity="1" /><path clip-path="url(#clip290)" d="M1411.65 1143.46 L1417.51 1143.46 L1417.51 1192.99 L1411.65 1192.99 L1411.65 1143.46 Z" fill="#000000" fill-rule="evenodd" fill-opacity="1" /><path clip-path="url(#clip290)" d="M1460.25 1173.7 L1460.25 1176.57 L1433.33 1176.57 Q1433.71 1182.61 1436.96 1185.8 Q1440.23 1188.95 1446.06 1188.95 Q1449.43 1188.95 1452.58 1188.12 Q1455.77 1187.29 1458.89 1185.64 L1458.89 1191.17 Q1455.73 1192.51 1452.42 1193.21 Q1449.11 1193.91 1445.71 1193.91 Q1437.18 1193.91 1432.18 1188.95 Q1427.22 1183.98 1427.22 1175.51 Q1427.22 1166.76 1431.93 1161.64 Q1436.67 1156.48 1444.69 1156.48 Q1451.88 1156.48 1456.05 1161.13 Q1460.25 1165.74 1460.25 1173.7 M1454.4 1171.98 Q1454.33 1167.18 1451.69 1164.31 Q1449.08 1161.45 1444.75 1161.45 Q1439.85 1161.45 1436.89 1164.22 Q1433.96 1166.98 1433.52 1172.01 L1454.4 1171.98 Z" fill="#000000" fill-rule="evenodd" fill-opacity="1" /><path clip-path="url(#clip290)" d="M1504.65 1143.53 Q1500.39 1150.85 1498.32 1158.01 Q1496.25 1165.17 1496.25 1172.52 Q1496.25 1179.88 1498.32 1187.1 Q1500.42 1194.29 1504.65 1201.58 L1499.56 1201.58 Q1494.79 1194.1 1492.4 1186.88 Q1490.05 1179.65 1490.05 1172.52 Q1490.05 1165.43 1492.4 1158.23 Q1494.76 1151.04 1499.56 1143.53 L1504.65 1143.53 Z" fill="#000000" fill-rule="evenodd" fill-opacity="1" /><path clip-path="url(#clip290)" d="M1534.06 1143.46 L1534.06 1148.33 L1528.46 1148.33 Q1525.31 1148.33 1524.07 1149.61 Q1522.86 1150.88 1522.86 1154.19 L1522.86 1157.34 L1532.5 1157.34 L1532.5 1161.89 L1522.86 1161.89 L1522.86 1192.99 L1516.97 1192.99 L1516.97 1161.89 L1511.37 1161.89 L1511.37 1157.34 L1516.97 1157.34 L1516.97 1154.86 Q1516.97 1148.91 1519.74 1146.2 Q1522.51 1143.46 1528.53 1143.46 L1534.06 1143.46 Z" fill="#000000" fill-rule="evenodd" fill-opacity="1" /><path clip-path="url(#clip290)" d="M1569.46 1173.7 L1569.46 1176.57 L1542.53 1176.57 Q1542.91 1182.61 1546.16 1185.8 Q1549.44 1188.95 1555.26 1188.95 Q1558.64 1188.95 1561.79 1188.12 Q1564.97 1187.29 1568.09 1185.64 L1568.09 1191.17 Q1564.94 1192.51 1561.63 1193.21 Q1558.32 1193.91 1554.91 1193.91 Q1546.38 1193.91 1541.38 1188.95 Q1536.42 1183.98 1536.42 1175.51 Q1536.42 1166.76 1541.13 1161.64 Q1545.87 1156.48 1553.89 1156.48 Q1561.09 1156.48 1565.26 1161.13 Q1569.46 1165.74 1569.46 1173.7 M1563.6 1171.98 Q1563.54 1167.18 1560.9 1164.31 Q1558.29 1161.45 1553.96 1161.45 Q1549.06 1161.45 1546.1 1164.22 Q1543.17 1166.98 1542.72 1172.01 L1563.6 1171.98 Z" fill="#000000" fill-rule="evenodd" fill-opacity="1" /><path clip-path="url(#clip290)" d="M1609.56 1173.7 L1609.56 1176.57 L1582.63 1176.57 Q1583.02 1182.61 1586.26 1185.8 Q1589.54 1188.95 1595.37 1188.95 Q1598.74 1188.95 1601.89 1188.12 Q1605.07 1187.29 1608.19 1185.64 L1608.19 1191.17 Q1605.04 1192.51 1601.73 1193.21 Q1598.42 1193.91 1595.02 1193.91 Q1586.49 1193.91 1581.49 1188.95 Q1576.52 1183.98 1576.52 1175.51 Q1576.52 1166.76 1581.23 1161.64 Q1585.98 1156.48 1594 1156.48 Q1601.19 1156.48 1605.36 1161.13 Q1609.56 1165.74 1609.56 1173.7 M1603.7 1171.98 Q1603.64 1167.18 1601 1164.31 Q1598.39 1161.45 1594.06 1161.45 Q1589.16 1161.45 1586.2 1164.22 Q1583.27 1166.98 1582.83 1172.01 L1603.7 1171.98 Z" fill="#000000" fill-rule="evenodd" fill-opacity="1" /><path clip-path="url(#clip290)" d="M1624.97 1147.22 L1624.97 1157.34 L1637.03 1157.34 L1637.03 1161.89 L1624.97 1161.89 L1624.97 1181.24 Q1624.97 1185.6 1626.14 1186.85 Q1627.35 1188.09 1631.01 1188.09 L1637.03 1188.09 L1637.03 1192.99 L1631.01 1192.99 Q1624.23 1192.99 1621.66 1190.47 Q1619.08 1187.93 1619.08 1181.24 L1619.08 1161.89 L1614.78 1161.89 L1614.78 1157.34 L1619.08 1157.34 L1619.08 1147.22 L1624.97 1147.22 Z" fill="#000000" fill-rule="evenodd" fill-opacity="1" /><path clip-path="url(#clip290)" d="M1643.81 1143.53 L1648.9 1143.53 Q1653.68 1151.04 1656.03 1158.23 Q1658.42 1165.43 1658.42 1172.52 Q1658.42 1179.65 1656.03 1186.88 Q1653.68 1194.1 1648.9 1201.58 L1643.81 1201.58 Q1648.04 1194.29 1650.11 1187.1 Q1652.21 1179.88 1652.21 1172.52 Q1652.21 1165.17 1650.11 1158.01 Q1648.04 1150.85 1643.81 1143.53 Z" fill="#000000" fill-rule="evenodd" fill-opacity="1" /><polyline clip-path="url(#clip292)" style="stroke:#000000; stroke-linecap:butt; stroke-linejoin:round; stroke-width:2; stroke-opacity:0.1; fill:none" points="
  238.214,1031.18 2272.76,1031.18 
  "/>
<polyline clip-path="url(#clip292)" style="stroke:#000000; stroke-linecap:butt; stroke-linejoin:round; stroke-width:2; stroke-opacity:0.1; fill:none" points="
  238.214,807.549 2272.76,807.549 
  "/>
<polyline clip-path="url(#clip292)" style="stroke:#000000; stroke-linecap:butt; stroke-linejoin:round; stroke-width:2; stroke-opacity:0.1; fill:none" points="
  238.214,583.917 2272.76,583.917 
  "/>
<polyline clip-path="url(#clip292)" style="stroke:#000000; stroke-linecap:butt; stroke-linejoin:round; stroke-width:2; stroke-opacity:0.1; fill:none" points="
  238.214,360.286 2272.76,360.286 
  "/>
<polyline clip-path="url(#clip292)" style="stroke:#000000; stroke-linecap:butt; stroke-linejoin:round; stroke-width:2; stroke-opacity:0.1; fill:none" points="
  238.214,136.655 2272.76,136.655 
  "/>
<polyline clip-path="url(#clip290)" style="stroke:#000000; stroke-linecap:butt; stroke-linejoin:round; stroke-width:4; stroke-opacity:1; fill:none" points="
  238.214,1049.32 238.214,110.073 
  "/>
<polyline clip-path="url(#clip290)" style="stroke:#000000; stroke-linecap:butt; stroke-linejoin:round; stroke-width:4; stroke-opacity:1; fill:none" points="
  238.214,1031.18 257.112,1031.18 
  "/>
<polyline clip-path="url(#clip290)" style="stroke:#000000; stroke-linecap:butt; stroke-linejoin:round; stroke-width:4; stroke-opacity:1; fill:none" points="
  238.214,807.549 257.112,807.549 
  "/>
<polyline clip-path="url(#clip290)" style="stroke:#000000; stroke-linecap:butt; stroke-linejoin:round; stroke-width:4; stroke-opacity:1; fill:none" points="
  238.214,583.917 257.112,583.917 
  "/>
<polyline clip-path="url(#clip290)" style="stroke:#000000; stroke-linecap:butt; stroke-linejoin:round; stroke-width:4; stroke-opacity:1; fill:none" points="
  238.214,360.286 257.112,360.286 
  "/>
<polyline clip-path="url(#clip290)" style="stroke:#000000; stroke-linecap:butt; stroke-linejoin:round; stroke-width:4; stroke-opacity:1; fill:none" points="
  238.214,136.655 257.112,136.655 
  "/>
<path clip-path="url(#clip290)" d="M116.076 1016.98 Q112.465 1016.98 110.637 1020.54 Q108.831 1024.08 108.831 1031.21 Q108.831 1038.32 110.637 1041.89 Q112.465 1045.43 116.076 1045.43 Q119.711 1045.43 121.516 1041.89 Q123.345 1038.32 123.345 1031.21 Q123.345 1024.08 121.516 1020.54 Q119.711 1016.98 116.076 1016.98 M116.076 1013.27 Q121.887 1013.27 124.942 1017.88 Q128.021 1022.46 128.021 1031.21 Q128.021 1039.94 124.942 1044.55 Q121.887 1049.13 116.076 1049.13 Q110.266 1049.13 107.188 1044.55 Q104.132 1039.94 104.132 1031.21 Q104.132 1022.46 107.188 1017.88 Q110.266 1013.27 116.076 1013.27 Z" fill="#000000" fill-rule="evenodd" fill-opacity="1" /><path clip-path="url(#clip290)" d="M136.238 1042.58 L141.123 1042.58 L141.123 1048.46 L136.238 1048.46 L136.238 1042.58 Z" fill="#000000" fill-rule="evenodd" fill-opacity="1" /><path clip-path="url(#clip290)" d="M161.308 1016.98 Q157.697 1016.98 155.868 1020.54 Q154.062 1024.08 154.062 1031.21 Q154.062 1038.32 155.868 1041.89 Q157.697 1045.43 161.308 1045.43 Q164.942 1045.43 166.747 1041.89 Q168.576 1038.32 168.576 1031.21 Q168.576 1024.08 166.747 1020.54 Q164.942 1016.98 161.308 1016.98 M161.308 1013.27 Q167.118 1013.27 170.173 1017.88 Q173.252 1022.46 173.252 1031.21 Q173.252 1039.94 170.173 1044.55 Q167.118 1049.13 161.308 1049.13 Q155.497 1049.13 152.419 1044.55 Q149.363 1039.94 149.363 1031.21 Q149.363 1022.46 152.419 1017.88 Q155.497 1013.27 161.308 1013.27 Z" fill="#000000" fill-rule="evenodd" fill-opacity="1" /><path clip-path="url(#clip290)" d="M191.47 1016.98 Q187.858 1016.98 186.03 1020.54 Q184.224 1024.08 184.224 1031.21 Q184.224 1038.32 186.03 1041.89 Q187.858 1045.43 191.47 1045.43 Q195.104 1045.43 196.909 1041.89 Q198.738 1038.32 198.738 1031.21 Q198.738 1024.08 196.909 1020.54 Q195.104 1016.98 191.47 1016.98 M191.47 1013.27 Q197.28 1013.27 200.335 1017.88 Q203.414 1022.46 203.414 1031.21 Q203.414 1039.94 200.335 1044.55 Q197.28 1049.13 191.47 1049.13 Q185.659 1049.13 182.581 1044.55 Q179.525 1039.94 179.525 1031.21 Q179.525 1022.46 182.581 1017.88 Q185.659 1013.27 191.47 1013.27 Z" fill="#000000" fill-rule="evenodd" fill-opacity="1" /><path clip-path="url(#clip290)" d="M117.072 793.347 Q113.461 793.347 111.632 796.912 Q109.826 800.454 109.826 807.583 Q109.826 814.69 111.632 818.255 Q113.461 821.796 117.072 821.796 Q120.706 821.796 122.512 818.255 Q124.34 814.69 124.34 807.583 Q124.34 800.454 122.512 796.912 Q120.706 793.347 117.072 793.347 M117.072 789.644 Q122.882 789.644 125.937 794.25 Q129.016 798.833 129.016 807.583 Q129.016 816.31 125.937 820.917 Q122.882 825.5 117.072 825.5 Q111.262 825.5 108.183 820.917 Q105.127 816.31 105.127 807.583 Q105.127 798.833 108.183 794.25 Q111.262 789.644 117.072 789.644 Z" fill="#000000" fill-rule="evenodd" fill-opacity="1" /><path clip-path="url(#clip290)" d="M137.234 818.949 L142.118 818.949 L142.118 824.829 L137.234 824.829 L137.234 818.949 Z" fill="#000000" fill-rule="evenodd" fill-opacity="1" /><path clip-path="url(#clip290)" d="M156.331 820.893 L172.65 820.893 L172.65 824.829 L150.706 824.829 L150.706 820.893 Q153.368 818.139 157.951 813.509 Q162.558 808.856 163.738 807.514 Q165.984 804.991 166.863 803.255 Q167.766 801.495 167.766 799.806 Q167.766 797.051 165.822 795.315 Q163.9 793.579 160.798 793.579 Q158.599 793.579 156.146 794.343 Q153.715 795.106 150.937 796.657 L150.937 791.935 Q153.761 790.801 156.215 790.222 Q158.669 789.644 160.706 789.644 Q166.076 789.644 169.271 792.329 Q172.465 795.014 172.465 799.505 Q172.465 801.634 171.655 803.556 Q170.868 805.454 168.761 808.046 Q168.183 808.718 165.081 811.935 Q161.979 815.13 156.331 820.893 Z" fill="#000000" fill-rule="evenodd" fill-opacity="1" /><path clip-path="url(#clip290)" d="M182.511 790.269 L200.868 790.269 L200.868 794.204 L186.794 794.204 L186.794 802.676 Q187.812 802.329 188.831 802.167 Q189.849 801.981 190.868 801.981 Q196.655 801.981 200.034 805.153 Q203.414 808.324 203.414 813.741 Q203.414 819.319 199.942 822.421 Q196.469 825.5 190.15 825.5 Q187.974 825.5 185.706 825.129 Q183.46 824.759 181.053 824.018 L181.053 819.319 Q183.136 820.454 185.358 821.009 Q187.581 821.565 190.057 821.565 Q194.062 821.565 196.4 819.458 Q198.738 817.352 198.738 813.741 Q198.738 810.13 196.4 808.023 Q194.062 805.917 190.057 805.917 Q188.182 805.917 186.308 806.333 Q184.456 806.75 182.511 807.63 L182.511 790.269 Z" fill="#000000" fill-rule="evenodd" fill-opacity="1" /><path clip-path="url(#clip290)" d="M116.076 569.716 Q112.465 569.716 110.637 573.281 Q108.831 576.823 108.831 583.952 Q108.831 591.059 110.637 594.623 Q112.465 598.165 116.076 598.165 Q119.711 598.165 121.516 594.623 Q123.345 591.059 123.345 583.952 Q123.345 576.823 121.516 573.281 Q119.711 569.716 116.076 569.716 M116.076 566.012 Q121.887 566.012 124.942 570.619 Q128.021 575.202 128.021 583.952 Q128.021 592.679 124.942 597.285 Q121.887 601.869 116.076 601.869 Q110.266 601.869 107.188 597.285 Q104.132 592.679 104.132 583.952 Q104.132 575.202 107.188 570.619 Q110.266 566.012 116.076 566.012 Z" fill="#000000" fill-rule="evenodd" fill-opacity="1" /><path clip-path="url(#clip290)" d="M136.238 595.318 L141.123 595.318 L141.123 601.197 L136.238 601.197 L136.238 595.318 Z" fill="#000000" fill-rule="evenodd" fill-opacity="1" /><path clip-path="url(#clip290)" d="M151.354 566.637 L169.71 566.637 L169.71 570.573 L155.636 570.573 L155.636 579.045 Q156.655 578.698 157.673 578.536 Q158.692 578.35 159.71 578.35 Q165.497 578.35 168.877 581.522 Q172.257 584.693 172.257 590.11 Q172.257 595.688 168.784 598.79 Q165.312 601.869 158.993 601.869 Q156.817 601.869 154.548 601.498 Q152.303 601.128 149.896 600.387 L149.896 595.688 Q151.979 596.822 154.201 597.378 Q156.423 597.934 158.9 597.934 Q162.905 597.934 165.243 595.827 Q167.581 593.721 167.581 590.11 Q167.581 586.498 165.243 584.392 Q162.905 582.286 158.9 582.286 Q157.025 582.286 155.15 582.702 Q153.298 583.119 151.354 583.998 L151.354 566.637 Z" fill="#000000" fill-rule="evenodd" fill-opacity="1" /><path clip-path="url(#clip290)" d="M191.47 569.716 Q187.858 569.716 186.03 573.281 Q184.224 576.823 184.224 583.952 Q184.224 591.059 186.03 594.623 Q187.858 598.165 191.47 598.165 Q195.104 598.165 196.909 594.623 Q198.738 591.059 198.738 583.952 Q198.738 576.823 196.909 573.281 Q195.104 569.716 191.47 569.716 M191.47 566.012 Q197.28 566.012 200.335 570.619 Q203.414 575.202 203.414 583.952 Q203.414 592.679 200.335 597.285 Q197.28 601.869 191.47 601.869 Q185.659 601.869 182.581 597.285 Q179.525 592.679 179.525 583.952 Q179.525 575.202 182.581 570.619 Q185.659 566.012 191.47 566.012 Z" fill="#000000" fill-rule="evenodd" fill-opacity="1" /><path clip-path="url(#clip290)" d="M117.072 346.085 Q113.461 346.085 111.632 349.65 Q109.826 353.192 109.826 360.321 Q109.826 367.428 111.632 370.992 Q113.461 374.534 117.072 374.534 Q120.706 374.534 122.512 370.992 Q124.34 367.428 124.34 360.321 Q124.34 353.192 122.512 349.65 Q120.706 346.085 117.072 346.085 M117.072 342.381 Q122.882 342.381 125.937 346.988 Q129.016 351.571 129.016 360.321 Q129.016 369.048 125.937 373.654 Q122.882 378.238 117.072 378.238 Q111.262 378.238 108.183 373.654 Q105.127 369.048 105.127 360.321 Q105.127 351.571 108.183 346.988 Q111.262 342.381 117.072 342.381 Z" fill="#000000" fill-rule="evenodd" fill-opacity="1" /><path clip-path="url(#clip290)" d="M137.234 371.687 L142.118 371.687 L142.118 377.566 L137.234 377.566 L137.234 371.687 Z" fill="#000000" fill-rule="evenodd" fill-opacity="1" /><path clip-path="url(#clip290)" d="M151.123 343.006 L173.345 343.006 L173.345 344.997 L160.798 377.566 L155.914 377.566 L167.72 346.942 L151.123 346.942 L151.123 343.006 Z" fill="#000000" fill-rule="evenodd" fill-opacity="1" /><path clip-path="url(#clip290)" d="M182.511 343.006 L200.868 343.006 L200.868 346.942 L186.794 346.942 L186.794 355.414 Q187.812 355.066 188.831 354.904 Q189.849 354.719 190.868 354.719 Q196.655 354.719 200.034 357.891 Q203.414 361.062 203.414 366.478 Q203.414 372.057 199.942 375.159 Q196.469 378.238 190.15 378.238 Q187.974 378.238 185.706 377.867 Q183.46 377.497 181.053 376.756 L181.053 372.057 Q183.136 373.191 185.358 373.747 Q187.581 374.303 190.057 374.303 Q194.062 374.303 196.4 372.196 Q198.738 370.09 198.738 366.478 Q198.738 362.867 196.4 360.761 Q194.062 358.654 190.057 358.654 Q188.182 358.654 186.308 359.071 Q184.456 359.488 182.511 360.367 L182.511 343.006 Z" fill="#000000" fill-rule="evenodd" fill-opacity="1" /><path clip-path="url(#clip290)" d="M106.887 150 L114.525 150 L114.525 123.635 L106.215 125.301 L106.215 121.042 L114.479 119.375 L119.155 119.375 L119.155 150 L126.794 150 L126.794 153.935 L106.887 153.935 L106.887 150 Z" fill="#000000" fill-rule="evenodd" fill-opacity="1" /><path clip-path="url(#clip290)" d="M136.238 148.056 L141.123 148.056 L141.123 153.935 L136.238 153.935 L136.238 148.056 Z" fill="#000000" fill-rule="evenodd" fill-opacity="1" /><path clip-path="url(#clip290)" d="M161.308 122.454 Q157.697 122.454 155.868 126.019 Q154.062 129.56 154.062 136.69 Q154.062 143.796 155.868 147.361 Q157.697 150.903 161.308 150.903 Q164.942 150.903 166.747 147.361 Q168.576 143.796 168.576 136.69 Q168.576 129.56 166.747 126.019 Q164.942 122.454 161.308 122.454 M161.308 118.75 Q167.118 118.75 170.173 123.357 Q173.252 127.94 173.252 136.69 Q173.252 145.417 170.173 150.023 Q167.118 154.607 161.308 154.607 Q155.497 154.607 152.419 150.023 Q149.363 145.417 149.363 136.69 Q149.363 127.94 152.419 123.357 Q155.497 118.75 161.308 118.75 Z" fill="#000000" fill-rule="evenodd" fill-opacity="1" /><path clip-path="url(#clip290)" d="M191.47 122.454 Q187.858 122.454 186.03 126.019 Q184.224 129.56 184.224 136.69 Q184.224 143.796 186.03 147.361 Q187.858 150.903 191.47 150.903 Q195.104 150.903 196.909 147.361 Q198.738 143.796 198.738 136.69 Q198.738 129.56 196.909 126.019 Q195.104 122.454 191.47 122.454 M191.47 118.75 Q197.28 118.75 200.335 123.357 Q203.414 127.94 203.414 136.69 Q203.414 145.417 200.335 150.023 Q197.28 154.607 191.47 154.607 Q185.659 154.607 182.581 150.023 Q179.525 145.417 179.525 136.69 Q179.525 127.94 182.581 123.357 Q185.659 118.75 191.47 118.75 Z" fill="#000000" fill-rule="evenodd" fill-opacity="1" /><path clip-path="url(#clip290)" d="M12.8396 920.391 L30.6954 920.391 L30.6954 912.307 Q30.6954 907.819 28.3719 905.368 Q26.0484 902.917 21.7515 902.917 Q17.4865 902.917 15.163 905.368 Q12.8396 907.819 12.8396 912.307 L12.8396 920.391 M7.55602 926.821 L7.55602 912.307 Q7.55602 904.318 11.1845 900.244 Q14.7811 896.138 21.7515 896.138 Q28.7857 896.138 32.3823 900.244 Q35.9789 904.318 35.9789 912.307 L35.9789 920.391 L55.076 920.391 L55.076 926.821 L7.55602 926.821 Z" fill="#000000" fill-rule="evenodd" fill-opacity="1" /><path clip-path="url(#clip290)" d="M24.9026 868.256 Q24.3297 869.243 24.075 870.421 Q23.7886 871.566 23.7886 872.967 Q23.7886 877.932 27.0351 880.606 Q30.2498 883.247 36.2972 883.247 L55.076 883.247 L55.076 889.136 L19.4281 889.136 L19.4281 883.247 L24.9662 883.247 Q21.7197 881.401 20.1601 878.441 Q18.5687 875.481 18.5687 871.248 Q18.5687 870.643 18.6642 869.911 Q18.7278 869.179 18.887 868.288 L24.9026 868.256 Z" fill="#000000" fill-rule="evenodd" fill-opacity="1" /><path clip-path="url(#clip290)" d="M23.5339 849.732 Q23.5339 854.443 27.2261 857.18 Q30.8863 859.917 37.2839 859.917 Q43.6814 859.917 47.3735 857.212 Q51.0338 854.474 51.0338 849.732 Q51.0338 845.053 47.3417 842.316 Q43.6496 839.579 37.2839 839.579 Q30.95 839.579 27.2579 842.316 Q23.5339 845.053 23.5339 849.732 M18.5687 849.732 Q18.5687 842.093 23.5339 837.733 Q28.4992 833.372 37.2839 833.372 Q46.0367 833.372 51.0338 837.733 Q55.999 842.093 55.999 849.732 Q55.999 857.403 51.0338 861.763 Q46.0367 866.092 37.2839 866.092 Q28.4992 866.092 23.5339 861.763 Q18.5687 857.403 18.5687 849.732 Z" fill="#000000" fill-rule="evenodd" fill-opacity="1" /><path clip-path="url(#clip290)" d="M37.2839 798.074 Q30.8227 798.074 27.1624 800.748 Q23.4703 803.39 23.4703 808.037 Q23.4703 812.684 27.1624 815.357 Q30.8227 817.999 37.2839 817.999 Q43.7451 817.999 47.4372 815.357 Q51.0975 812.684 51.0975 808.037 Q51.0975 803.39 47.4372 800.748 Q43.7451 798.074 37.2839 798.074 M24.8389 817.999 Q21.6561 816.153 20.1283 813.352 Q18.5687 810.519 18.5687 806.604 Q18.5687 800.111 23.7249 796.069 Q28.8811 791.995 37.2839 791.995 Q45.6866 791.995 50.8428 796.069 Q55.999 800.111 55.999 806.604 Q55.999 810.519 54.4713 813.352 Q52.9117 816.153 49.7288 817.999 L55.076 817.999 L55.076 823.887 L5.55082 823.887 L5.55082 817.999 L24.8389 817.999 Z" fill="#000000" fill-rule="evenodd" fill-opacity="1" /><path clip-path="url(#clip290)" d="M37.1566 766.087 Q37.1566 773.184 38.7798 775.922 Q40.4031 778.659 44.318 778.659 Q47.4372 778.659 49.2832 776.622 Q51.0975 774.553 51.0975 771.02 Q51.0975 766.15 47.66 763.222 Q44.1907 760.262 38.4615 760.262 L37.1566 760.262 L37.1566 766.087 M34.7376 754.406 L55.076 754.406 L55.076 760.262 L49.6652 760.262 Q52.9117 762.267 54.4713 765.259 Q55.999 768.251 55.999 772.58 Q55.999 778.054 52.9435 781.301 Q49.8561 784.515 44.6999 784.515 Q38.6843 784.515 35.6288 780.505 Q32.5732 776.463 32.5732 768.474 L32.5732 760.262 L32.0003 760.262 Q27.9581 760.262 25.7619 762.936 Q23.5339 765.577 23.5339 770.383 Q23.5339 773.439 24.266 776.335 Q24.9981 779.232 26.4622 781.905 L21.0513 781.905 Q19.81 778.691 19.2053 775.667 Q18.5687 772.643 18.5687 769.779 Q18.5687 762.044 22.5791 758.225 Q26.5895 754.406 34.7376 754.406 Z" fill="#000000" fill-rule="evenodd" fill-opacity="1" /><path clip-path="url(#clip290)" d="M37.2839 716.752 Q30.8227 716.752 27.1624 719.426 Q23.4703 722.068 23.4703 726.715 Q23.4703 731.362 27.1624 734.035 Q30.8227 736.677 37.2839 736.677 Q43.7451 736.677 47.4372 734.035 Q51.0975 731.362 51.0975 726.715 Q51.0975 722.068 47.4372 719.426 Q43.7451 716.752 37.2839 716.752 M24.8389 736.677 Q21.6561 734.831 20.1283 732.03 Q18.5687 729.197 18.5687 725.282 Q18.5687 718.789 23.7249 714.747 Q28.8811 710.673 37.2839 710.673 Q45.6866 710.673 50.8428 714.747 Q55.999 718.789 55.999 725.282 Q55.999 729.197 54.4713 732.03 Q52.9117 734.831 49.7288 736.677 L55.076 736.677 L55.076 742.565 L5.55082 742.565 L5.55082 736.677 L24.8389 736.677 Z" fill="#000000" fill-rule="evenodd" fill-opacity="1" /><path clip-path="url(#clip290)" d="M19.4281 700.965 L19.4281 695.109 L55.076 695.109 L55.076 700.965 L19.4281 700.965 M5.55082 700.965 L5.55082 695.109 L12.9669 695.109 L12.9669 700.965 L5.55082 700.965 Z" fill="#000000" fill-rule="evenodd" fill-opacity="1" /><path clip-path="url(#clip290)" d="M5.55082 682.855 L5.55082 676.999 L55.076 676.999 L55.076 682.855 L5.55082 682.855 Z" fill="#000000" fill-rule="evenodd" fill-opacity="1" /><path clip-path="url(#clip290)" d="M19.4281 664.745 L19.4281 658.888 L55.076 658.888 L55.076 664.745 L19.4281 664.745 M5.55082 664.745 L5.55082 658.888 L12.9669 658.888 L12.9669 664.745 L5.55082 664.745 Z" fill="#000000" fill-rule="evenodd" fill-opacity="1" /><path clip-path="url(#clip290)" d="M9.30659 640.841 L19.4281 640.841 L19.4281 628.778 L23.9795 628.778 L23.9795 640.841 L43.3313 640.841 Q47.6918 640.841 48.9331 639.664 Q50.1744 638.454 50.1744 634.794 L50.1744 628.778 L55.076 628.778 L55.076 634.794 Q55.076 641.573 52.5616 644.152 Q50.0153 646.73 43.3313 646.73 L23.9795 646.73 L23.9795 651.026 L19.4281 651.026 L19.4281 646.73 L9.30659 646.73 L9.30659 640.841 Z" fill="#000000" fill-rule="evenodd" fill-opacity="1" /><path clip-path="url(#clip290)" d="M58.3862 606.244 Q64.7519 608.726 66.6934 611.082 Q68.635 613.437 68.635 617.384 L68.635 622.063 L63.7334 622.063 L63.7334 618.625 Q63.7334 616.206 62.5876 614.869 Q61.4417 613.532 57.1767 611.909 L54.5031 610.859 L19.4281 625.277 L19.4281 619.071 L47.3099 607.931 L19.4281 596.791 L19.4281 590.584 L58.3862 606.244 Z" fill="#000000" fill-rule="evenodd" fill-opacity="1" /><path clip-path="url(#clip290)" d="M23.5339 547.966 Q23.5339 552.676 27.2261 555.414 Q30.8863 558.151 37.2839 558.151 Q43.6814 558.151 47.3735 555.445 Q51.0338 552.708 51.0338 547.966 Q51.0338 543.287 47.3417 540.55 Q43.6496 537.812 37.2839 537.812 Q30.95 537.812 27.2579 540.55 Q23.5339 543.287 23.5339 547.966 M18.5687 547.966 Q18.5687 540.327 23.5339 535.966 Q28.4992 531.606 37.2839 531.606 Q46.0367 531.606 51.0338 535.966 Q55.999 540.327 55.999 547.966 Q55.999 555.636 51.0338 559.997 Q46.0367 564.326 37.2839 564.326 Q28.4992 564.326 23.5339 559.997 Q18.5687 555.636 18.5687 547.966 Z" fill="#000000" fill-rule="evenodd" fill-opacity="1" /><path clip-path="url(#clip290)" d="M5.55082 503.851 L10.4206 503.851 L10.4206 509.453 Q10.4206 512.604 11.6937 513.846 Q12.9669 515.055 16.277 515.055 L19.4281 515.055 L19.4281 505.411 L23.9795 505.411 L23.9795 515.055 L55.076 515.055 L55.076 520.943 L23.9795 520.943 L23.9795 526.545 L19.4281 526.545 L19.4281 520.943 L16.9454 520.943 Q10.9935 520.943 8.28808 518.174 Q5.55082 515.405 5.55082 509.39 L5.55082 503.851 Z" fill="#000000" fill-rule="evenodd" fill-opacity="1" /><path clip-path="url(#clip290)" d="M20.4784 455.504 L26.0166 455.504 Q24.7434 457.986 24.1069 460.66 Q23.4703 463.334 23.4703 466.198 Q23.4703 470.559 24.8071 472.755 Q26.1439 474.919 28.8175 474.919 Q30.8545 474.919 32.0322 473.36 Q33.178 471.8 34.2283 467.089 L34.6739 465.084 Q36.0107 458.846 38.4615 456.236 Q40.8805 453.594 45.241 453.594 Q50.2063 453.594 53.1027 457.541 Q55.999 461.456 55.999 468.331 Q55.999 471.195 55.4261 474.314 Q54.885 477.402 53.771 480.839 L47.7236 480.839 Q49.4105 477.593 50.2699 474.442 Q51.0975 471.291 51.0975 468.203 Q51.0975 464.066 49.697 461.838 Q48.2647 459.61 45.6866 459.61 Q43.2995 459.61 42.0263 461.233 Q40.7532 462.824 39.5755 468.267 L39.0981 470.304 Q37.9523 475.747 35.597 478.166 Q33.2098 480.585 29.0721 480.585 Q24.0432 480.585 21.3059 477.02 Q18.5687 473.455 18.5687 466.898 Q18.5687 463.652 19.0461 460.787 Q19.5235 457.923 20.4784 455.504 Z" fill="#000000" fill-rule="evenodd" fill-opacity="1" /><path clip-path="url(#clip290)" d="M41.0078 444.873 L19.4281 444.873 L19.4281 439.017 L40.785 439.017 Q45.8457 439.017 48.392 437.043 Q50.9065 435.07 50.9065 431.123 Q50.9065 426.381 47.8828 423.643 Q44.8591 420.874 39.6392 420.874 L19.4281 420.874 L19.4281 415.018 L55.076 415.018 L55.076 420.874 L49.6015 420.874 Q52.848 423.007 54.4394 425.84 Q55.999 428.641 55.999 432.364 Q55.999 438.507 52.1796 441.69 Q48.3602 444.873 41.0078 444.873 M18.5687 430.136 L18.5687 430.136 Z" fill="#000000" fill-rule="evenodd" fill-opacity="1" /><path clip-path="url(#clip290)" d="M20.7967 377.301 L26.2712 377.301 Q24.9026 379.784 24.2342 382.298 Q23.5339 384.781 23.5339 387.327 Q23.5339 393.024 27.1624 396.175 Q30.759 399.326 37.2839 399.326 Q43.8087 399.326 47.4372 396.175 Q51.0338 393.024 51.0338 387.327 Q51.0338 384.781 50.3654 382.298 Q49.6652 379.784 48.2965 377.301 L53.7074 377.301 Q54.8532 379.752 55.4261 382.394 Q55.999 385.004 55.999 387.964 Q55.999 396.016 50.9383 400.759 Q45.8776 405.501 37.2839 405.501 Q28.5629 405.501 23.5658 400.727 Q18.5687 395.921 18.5687 387.582 Q18.5687 384.876 19.1416 382.298 Q19.6827 379.72 20.7967 377.301 Z" fill="#000000" fill-rule="evenodd" fill-opacity="1" /><path clip-path="url(#clip290)" d="M20.7967 341.462 L26.2712 341.462 Q24.9026 343.945 24.2342 346.459 Q23.5339 348.942 23.5339 351.488 Q23.5339 357.185 27.1624 360.336 Q30.759 363.488 37.2839 363.488 Q43.8087 363.488 47.4372 360.336 Q51.0338 357.185 51.0338 351.488 Q51.0338 348.942 50.3654 346.459 Q49.6652 343.945 48.2965 341.462 L53.7074 341.462 Q54.8532 343.913 55.4261 346.555 Q55.999 349.165 55.999 352.125 Q55.999 360.177 50.9383 364.92 Q45.8776 369.662 37.2839 369.662 Q28.5629 369.662 23.5658 364.888 Q18.5687 360.082 18.5687 351.743 Q18.5687 349.037 19.1416 346.459 Q19.6827 343.881 20.7967 341.462 Z" fill="#000000" fill-rule="evenodd" fill-opacity="1" /><path clip-path="url(#clip290)" d="M35.7879 300.785 L38.6525 300.785 L38.6525 327.712 Q44.6999 327.33 47.8828 324.084 Q51.0338 320.805 51.0338 314.981 Q51.0338 311.607 50.2063 308.456 Q49.3787 305.273 47.7236 302.154 L53.2618 302.154 Q54.5986 305.305 55.2988 308.615 Q55.999 311.925 55.999 315.331 Q55.999 323.861 51.0338 328.858 Q46.0685 333.823 37.6022 333.823 Q28.8493 333.823 23.7249 329.113 Q18.5687 324.37 18.5687 316.349 Q18.5687 309.156 23.2157 304.987 Q27.8308 300.785 35.7879 300.785 M34.0692 306.642 Q29.2631 306.705 26.3985 309.347 Q23.5339 311.957 23.5339 316.286 Q23.5339 321.187 26.303 324.147 Q29.0721 327.076 34.101 327.521 L34.0692 306.642 Z" fill="#000000" fill-rule="evenodd" fill-opacity="1" /><path clip-path="url(#clip290)" d="M20.4784 268.448 L26.0166 268.448 Q24.7434 270.93 24.1069 273.604 Q23.4703 276.277 23.4703 279.142 Q23.4703 283.502 24.8071 285.699 Q26.1439 287.863 28.8175 287.863 Q30.8545 287.863 32.0322 286.303 Q33.178 284.744 34.2283 280.033 L34.6739 278.028 Q36.0107 271.79 38.4615 269.18 Q40.8805 266.538 45.241 266.538 Q50.2063 266.538 53.1027 270.485 Q55.999 274.399 55.999 281.274 Q55.999 284.139 55.4261 287.258 Q54.885 290.346 53.771 293.783 L47.7236 293.783 Q49.4105 290.537 50.2699 287.385 Q51.0975 284.234 51.0975 281.147 Q51.0975 277.009 49.697 274.781 Q48.2647 272.553 45.6866 272.553 Q43.2995 272.553 42.0263 274.177 Q40.7532 275.768 39.5755 281.211 L39.0981 283.248 Q37.9523 288.69 35.597 291.109 Q33.2098 293.528 29.0721 293.528 Q24.0432 293.528 21.3059 289.964 Q18.5687 286.399 18.5687 279.842 Q18.5687 276.596 19.0461 273.731 Q19.5235 270.866 20.4784 268.448 Z" fill="#000000" fill-rule="evenodd" fill-opacity="1" /><path clip-path="url(#clip290)" d="M20.4784 234.486 L26.0166 234.486 Q24.7434 236.969 24.1069 239.643 Q23.4703 242.316 23.4703 245.181 Q23.4703 249.541 24.8071 251.738 Q26.1439 253.902 28.8175 253.902 Q30.8545 253.902 32.0322 252.342 Q33.178 250.783 34.2283 246.072 L34.6739 244.067 Q36.0107 237.828 38.4615 235.219 Q40.8805 232.577 45.241 232.577 Q50.2063 232.577 53.1027 236.523 Q55.999 240.438 55.999 247.313 Q55.999 250.178 55.4261 253.297 Q54.885 256.385 53.771 259.822 L47.7236 259.822 Q49.4105 256.575 50.2699 253.424 Q51.0975 250.273 51.0975 247.186 Q51.0975 243.048 49.697 240.82 Q48.2647 238.592 45.6866 238.592 Q43.2995 238.592 42.0263 240.216 Q40.7532 241.807 39.5755 247.25 L39.0981 249.287 Q37.9523 254.729 35.597 257.148 Q33.2098 259.567 29.0721 259.567 Q24.0432 259.567 21.3059 256.003 Q18.5687 252.438 18.5687 245.881 Q18.5687 242.635 19.0461 239.77 Q19.5235 236.905 20.4784 234.486 Z" fill="#000000" fill-rule="evenodd" fill-opacity="1" /><path clip-path="url(#clip290)" d="M834.393 12.096 L845.412 12.096 L872.229 62.6918 L872.229 12.096 L880.169 12.096 L880.169 72.576 L869.15 72.576 L842.333 21.9802 L842.333 72.576 L834.393 72.576 L834.393 12.096 Z" fill="#000000" fill-rule="evenodd" fill-opacity="1" /><path clip-path="url(#clip290)" d="M934.937 48.0275 L934.937 51.6733 L900.666 51.6733 Q901.152 59.3701 905.284 63.421 Q909.457 67.4314 916.87 67.4314 Q921.164 67.4314 925.174 66.3781 Q929.225 65.3249 933.195 63.2184 L933.195 70.267 Q929.185 71.9684 924.972 72.8596 Q920.759 73.7508 916.424 73.7508 Q905.568 73.7508 899.208 67.4314 Q892.888 61.1119 892.888 50.3365 Q892.888 39.1965 898.884 32.6746 Q904.92 26.1121 915.128 26.1121 Q924.283 26.1121 929.59 32.0264 Q934.937 37.9003 934.937 48.0275 M927.483 45.84 Q927.402 39.7232 924.04 36.0774 Q920.718 32.4315 915.209 32.4315 Q908.971 32.4315 905.203 35.9558 Q901.476 39.4801 900.909 45.8805 L927.483 45.84 Z" fill="#000000" fill-rule="evenodd" fill-opacity="1" /><path clip-path="url(#clip290)" d="M942.836 27.2059 L950.29 27.2059 L959.607 62.6108 L968.883 27.2059 L977.674 27.2059 L986.991 62.6108 L996.268 27.2059 L1003.72 27.2059 L991.852 72.576 L983.062 72.576 L973.299 35.3887 L963.496 72.576 L954.705 72.576 L942.836 27.2059 Z" fill="#000000" fill-rule="evenodd" fill-opacity="1" /><path clip-path="url(#clip290)" d="M1071.25 34.0924 L1071.25 9.54393 L1078.7 9.54393 L1078.7 72.576 L1071.25 72.576 L1071.25 65.7705 Q1068.9 69.8214 1065.29 71.8063 Q1061.73 73.7508 1056.71 73.7508 Q1048.48 73.7508 1043.3 67.1883 Q1038.15 60.6258 1038.15 49.9314 Q1038.15 39.2371 1043.3 32.6746 Q1048.48 26.1121 1056.71 26.1121 Q1061.73 26.1121 1065.29 28.0971 Q1068.9 30.0415 1071.25 34.0924 M1045.85 49.9314 Q1045.85 58.1548 1049.21 62.8538 Q1052.62 67.5124 1058.53 67.5124 Q1064.44 67.5124 1067.85 62.8538 Q1071.25 58.1548 1071.25 49.9314 Q1071.25 41.7081 1067.85 37.0496 Q1064.44 32.3505 1058.53 32.3505 Q1052.62 32.3505 1049.21 37.0496 Q1045.85 41.7081 1045.85 49.9314 Z" fill="#000000" fill-rule="evenodd" fill-opacity="1" /><path clip-path="url(#clip290)" d="M1114.68 49.7694 Q1105.64 49.7694 1102.16 51.8354 Q1098.67 53.9013 1098.67 58.8839 Q1098.67 62.8538 1101.27 65.2034 Q1103.9 67.5124 1108.4 67.5124 Q1114.59 67.5124 1118.32 63.1374 Q1122.09 58.7219 1122.09 51.4303 L1122.09 49.7694 L1114.68 49.7694 M1129.54 46.6907 L1129.54 72.576 L1122.09 72.576 L1122.09 65.6895 Q1119.54 69.8214 1115.73 71.8063 Q1111.92 73.7508 1106.41 73.7508 Q1099.44 73.7508 1095.31 69.8619 Q1091.22 65.9325 1091.22 59.3701 Q1091.22 51.7138 1096.32 47.825 Q1101.47 43.9361 1111.64 43.9361 L1122.09 43.9361 L1122.09 43.2069 Q1122.09 38.0623 1118.69 35.2672 Q1115.32 32.4315 1109.21 32.4315 Q1105.32 32.4315 1101.63 33.3632 Q1097.95 34.295 1094.54 36.1584 L1094.54 29.2718 Q1098.63 27.692 1102.48 26.9223 Q1106.33 26.1121 1109.98 26.1121 Q1119.82 26.1121 1124.68 31.2163 Q1129.54 36.3204 1129.54 46.6907 Z" fill="#000000" fill-rule="evenodd" fill-opacity="1" /><path clip-path="url(#clip290)" d="M1152.27 14.324 L1152.27 27.2059 L1167.62 27.2059 L1167.62 32.9987 L1152.27 32.9987 L1152.27 57.6282 Q1152.27 63.1779 1153.77 64.7578 Q1155.31 66.3376 1159.96 66.3376 L1167.62 66.3376 L1167.62 72.576 L1159.96 72.576 Q1151.34 72.576 1148.05 69.3758 Q1144.77 66.1351 1144.77 57.6282 L1144.77 32.9987 L1139.3 32.9987 L1139.3 27.2059 L1144.77 27.2059 L1144.77 14.324 L1152.27 14.324 Z" fill="#000000" fill-rule="evenodd" fill-opacity="1" /><path clip-path="url(#clip290)" d="M1198.04 49.7694 Q1189.01 49.7694 1185.53 51.8354 Q1182.04 53.9013 1182.04 58.8839 Q1182.04 62.8538 1184.63 65.2034 Q1187.27 67.5124 1191.76 67.5124 Q1197.96 67.5124 1201.69 63.1374 Q1205.46 58.7219 1205.46 51.4303 L1205.46 49.7694 L1198.04 49.7694 M1212.91 46.6907 L1212.91 72.576 L1205.46 72.576 L1205.46 65.6895 Q1202.9 69.8214 1199.1 71.8063 Q1195.29 73.7508 1189.78 73.7508 Q1182.81 73.7508 1178.68 69.8619 Q1174.59 65.9325 1174.59 59.3701 Q1174.59 51.7138 1179.69 47.825 Q1184.84 43.9361 1195 43.9361 L1205.46 43.9361 L1205.46 43.2069 Q1205.46 38.0623 1202.05 35.2672 Q1198.69 32.4315 1192.57 32.4315 Q1188.69 32.4315 1185 33.3632 Q1181.31 34.295 1177.91 36.1584 L1177.91 29.2718 Q1182 27.692 1185.85 26.9223 Q1189.7 26.1121 1193.34 26.1121 Q1203.19 26.1121 1208.05 31.2163 Q1212.91 36.3204 1212.91 46.6907 Z" fill="#000000" fill-rule="evenodd" fill-opacity="1" /><path clip-path="url(#clip290)" d="M1230.17 62.2867 L1238.71 62.2867 L1238.71 69.2543 L1232.07 82.2172 L1226.85 82.2172 L1230.17 69.2543 L1230.17 62.2867 Z" fill="#000000" fill-rule="evenodd" fill-opacity="1" /><path clip-path="url(#clip290)" d="M1298.59 32.4315 Q1292.59 32.4315 1289.11 37.1306 Q1285.62 41.7891 1285.62 49.9314 Q1285.62 58.0738 1289.07 62.7728 Q1292.55 67.4314 1298.59 67.4314 Q1304.54 67.4314 1308.03 62.7323 Q1311.51 58.0333 1311.51 49.9314 Q1311.51 41.8701 1308.03 37.1711 Q1304.54 32.4315 1298.59 32.4315 M1298.59 26.1121 Q1308.31 26.1121 1313.86 32.4315 Q1319.41 38.7509 1319.41 49.9314 Q1319.41 61.0714 1313.86 67.4314 Q1308.31 73.7508 1298.59 73.7508 Q1288.82 73.7508 1283.27 67.4314 Q1277.76 61.0714 1277.76 49.9314 Q1277.76 38.7509 1283.27 32.4315 Q1288.82 26.1121 1298.59 26.1121 Z" fill="#000000" fill-rule="evenodd" fill-opacity="1" /><path clip-path="url(#clip290)" d="M1331.76 9.54393 L1339.22 9.54393 L1339.22 72.576 L1331.76 72.576 L1331.76 9.54393 Z" fill="#000000" fill-rule="evenodd" fill-opacity="1" /><path clip-path="url(#clip290)" d="M1384.67 34.0924 L1384.67 9.54393 L1392.12 9.54393 L1392.12 72.576 L1384.67 72.576 L1384.67 65.7705 Q1382.32 69.8214 1378.71 71.8063 Q1375.15 73.7508 1370.13 73.7508 Q1361.9 73.7508 1356.72 67.1883 Q1351.57 60.6258 1351.57 49.9314 Q1351.57 39.2371 1356.72 32.6746 Q1361.9 26.1121 1370.13 26.1121 Q1375.15 26.1121 1378.71 28.0971 Q1382.32 30.0415 1384.67 34.0924 M1359.27 49.9314 Q1359.27 58.1548 1362.63 62.8538 Q1366.03 67.5124 1371.95 67.5124 Q1377.86 67.5124 1381.27 62.8538 Q1384.67 58.1548 1384.67 49.9314 Q1384.67 41.7081 1381.27 37.0496 Q1377.86 32.3505 1371.95 32.3505 Q1366.03 32.3505 1362.63 37.0496 Q1359.27 41.7081 1359.27 49.9314 Z" fill="#000000" fill-rule="evenodd" fill-opacity="1" /><path clip-path="url(#clip290)" d="M1469.17 35.9153 Q1471.97 30.8922 1475.85 28.5022 Q1479.74 26.1121 1485.01 26.1121 Q1492.1 26.1121 1495.95 31.0947 Q1499.79 36.0368 1499.79 45.1919 L1499.79 72.576 L1492.3 72.576 L1492.3 45.4349 Q1492.3 38.913 1489.99 35.7533 Q1487.68 32.5936 1482.94 32.5936 Q1477.15 32.5936 1473.79 36.4419 Q1470.43 40.2903 1470.43 46.9338 L1470.43 72.576 L1462.93 72.576 L1462.93 45.4349 Q1462.93 38.8725 1460.62 35.7533 Q1458.31 32.5936 1453.49 32.5936 Q1447.78 32.5936 1444.42 36.4824 Q1441.06 40.3308 1441.06 46.9338 L1441.06 72.576 L1433.56 72.576 L1433.56 27.2059 L1441.06 27.2059 L1441.06 34.2544 Q1443.61 30.082 1447.17 28.0971 Q1450.74 26.1121 1455.64 26.1121 Q1460.58 26.1121 1464.03 28.6237 Q1467.51 31.1352 1469.17 35.9153 Z" fill="#000000" fill-rule="evenodd" fill-opacity="1" /><path clip-path="url(#clip290)" d="M1532.24 32.4315 Q1526.25 32.4315 1522.76 37.1306 Q1519.28 41.7891 1519.28 49.9314 Q1519.28 58.0738 1522.72 62.7728 Q1526.21 67.4314 1532.24 67.4314 Q1538.2 67.4314 1541.68 62.7323 Q1545.17 58.0333 1545.17 49.9314 Q1545.17 41.8701 1541.68 37.1711 Q1538.2 32.4315 1532.24 32.4315 M1532.24 26.1121 Q1541.96 26.1121 1547.51 32.4315 Q1553.06 38.7509 1553.06 49.9314 Q1553.06 61.0714 1547.51 67.4314 Q1541.96 73.7508 1532.24 73.7508 Q1522.48 73.7508 1516.93 67.4314 Q1511.42 61.0714 1511.42 49.9314 Q1511.42 38.7509 1516.93 32.4315 Q1522.48 26.1121 1532.24 26.1121 Z" fill="#000000" fill-rule="evenodd" fill-opacity="1" /><path clip-path="url(#clip290)" d="M1595.27 34.0924 L1595.27 9.54393 L1602.73 9.54393 L1602.73 72.576 L1595.27 72.576 L1595.27 65.7705 Q1592.93 69.8214 1589.32 71.8063 Q1585.76 73.7508 1580.73 73.7508 Q1572.51 73.7508 1567.32 67.1883 Q1562.18 60.6258 1562.18 49.9314 Q1562.18 39.2371 1567.32 32.6746 Q1572.51 26.1121 1580.73 26.1121 Q1585.76 26.1121 1589.32 28.0971 Q1592.93 30.0415 1595.27 34.0924 M1569.88 49.9314 Q1569.88 58.1548 1573.24 62.8538 Q1576.64 67.5124 1582.55 67.5124 Q1588.47 67.5124 1591.87 62.8538 Q1595.27 58.1548 1595.27 49.9314 Q1595.27 41.7081 1591.87 37.0496 Q1588.47 32.3505 1582.55 32.3505 Q1576.64 32.3505 1573.24 37.0496 Q1569.88 41.7081 1569.88 49.9314 Z" fill="#000000" fill-rule="evenodd" fill-opacity="1" /><path clip-path="url(#clip290)" d="M1656.89 48.0275 L1656.89 51.6733 L1622.62 51.6733 Q1623.1 59.3701 1627.24 63.421 Q1631.41 67.4314 1638.82 67.4314 Q1643.12 67.4314 1647.13 66.3781 Q1651.18 65.3249 1655.15 63.2184 L1655.15 70.267 Q1651.14 71.9684 1646.92 72.8596 Q1642.71 73.7508 1638.38 73.7508 Q1627.52 73.7508 1621.16 67.4314 Q1614.84 61.1119 1614.84 50.3365 Q1614.84 39.1965 1620.84 32.6746 Q1626.87 26.1121 1637.08 26.1121 Q1646.24 26.1121 1651.54 32.0264 Q1656.89 37.9003 1656.89 48.0275 M1649.44 45.84 Q1649.35 39.7232 1645.99 36.0774 Q1642.67 32.4315 1637.16 32.4315 Q1630.92 32.4315 1627.16 35.9558 Q1623.43 39.4801 1622.86 45.8805 L1649.44 45.84 Z" fill="#000000" fill-rule="evenodd" fill-opacity="1" /><path clip-path="url(#clip290)" d="M1669.12 9.54393 L1676.58 9.54393 L1676.58 72.576 L1669.12 72.576 L1669.12 9.54393 Z" fill="#000000" fill-rule="evenodd" fill-opacity="1" /><polyline clip-path="url(#clip292)" style="stroke:#0000ff; stroke-linecap:butt; stroke-linejoin:round; stroke-width:6; stroke-opacity:1; fill:none" points="
  295.795,136.655 313.475,154.023 338.072,352.055 363.439,528.72 389.317,641.822 415.196,715.321 440.818,765.721 466.697,802.843 492.32,830.743 517.942,852.637 
  543.565,870.257 569.187,884.735 594.81,896.838 620.432,907.102 658.353,919.719 709.598,933.195 761.099,943.819 812.344,952.33 851.034,957.735 913.553,965.06 
  1016.3,974.375 1118.53,981.36 1221.02,986.829 1323,991.196 1425.75,994.806 1527.98,997.804 1630.21,1000.35 1755.51,1002.98 1908.73,1005.64 2061.18,1007.84 
  2215.17,1009.7 
  "/>
<polyline clip-path="url(#clip292)" style="stroke:#000000; stroke-linecap:butt; stroke-linejoin:round; stroke-width:4; stroke-opacity:1; fill:none" points="
  295.795,137.029 295.795,136.876 
  "/>
<polyline clip-path="url(#clip292)" style="stroke:#000000; stroke-linecap:butt; stroke-linejoin:round; stroke-width:4; stroke-opacity:1; fill:none" points="
  313.475,137.3 313.475,137.193 
  "/>
<polyline clip-path="url(#clip292)" style="stroke:#000000; stroke-linecap:butt; stroke-linejoin:round; stroke-width:4; stroke-opacity:1; fill:none" points="
  338.072,141.611 338.072,141.294 
  "/>
<polyline clip-path="url(#clip292)" style="stroke:#000000; stroke-linecap:butt; stroke-linejoin:round; stroke-width:4; stroke-opacity:1; fill:none" points="
  363.439,169.908 363.439,168.909 
  "/>
<polyline clip-path="url(#clip292)" style="stroke:#000000; stroke-linecap:butt; stroke-linejoin:round; stroke-width:4; stroke-opacity:1; fill:none" points="
  389.317,248.138 389.317,245.973 
  "/>
<polyline clip-path="url(#clip292)" style="stroke:#000000; stroke-linecap:butt; stroke-linejoin:round; stroke-width:4; stroke-opacity:1; fill:none" points="
  415.196,347.555 415.196,344.286 
  "/>
<polyline clip-path="url(#clip292)" style="stroke:#000000; stroke-linecap:butt; stroke-linejoin:round; stroke-width:4; stroke-opacity:1; fill:none" points="
  440.818,446.361 440.818,442.262 
  "/>
<polyline clip-path="url(#clip292)" style="stroke:#000000; stroke-linecap:butt; stroke-linejoin:round; stroke-width:4; stroke-opacity:1; fill:none" points="
  466.697,518.395 466.697,513.801 
  "/>
<polyline clip-path="url(#clip292)" style="stroke:#000000; stroke-linecap:butt; stroke-linejoin:round; stroke-width:4; stroke-opacity:1; fill:none" points="
  492.32,586.974 492.32,582.07 
  "/>
<polyline clip-path="url(#clip292)" style="stroke:#000000; stroke-linecap:butt; stroke-linejoin:round; stroke-width:4; stroke-opacity:1; fill:none" points="
  517.942,641.997 517.942,636.943 
  "/>
<polyline clip-path="url(#clip292)" style="stroke:#000000; stroke-linecap:butt; stroke-linejoin:round; stroke-width:4; stroke-opacity:1; fill:none" points="
  543.565,688.276 543.565,683.128 
  "/>
<polyline clip-path="url(#clip292)" style="stroke:#000000; stroke-linecap:butt; stroke-linejoin:round; stroke-width:4; stroke-opacity:1; fill:none" points="
  569.187,725.89 569.187,720.642 
  "/>
<polyline clip-path="url(#clip292)" style="stroke:#000000; stroke-linecap:butt; stroke-linejoin:round; stroke-width:4; stroke-opacity:1; fill:none" points="
  594.81,754.708 594.81,749.427 
  "/>
<polyline clip-path="url(#clip292)" style="stroke:#000000; stroke-linecap:butt; stroke-linejoin:round; stroke-width:4; stroke-opacity:1; fill:none" points="
  620.432,782.327 620.432,777.009 
  "/>
<polyline clip-path="url(#clip292)" style="stroke:#000000; stroke-linecap:butt; stroke-linejoin:round; stroke-width:4; stroke-opacity:1; fill:none" points="
  658.353,820.343 658.353,816.593 
  "/>
<polyline clip-path="url(#clip292)" style="stroke:#000000; stroke-linecap:butt; stroke-linejoin:round; stroke-width:4; stroke-opacity:1; fill:none" points="
  709.598,852.831 709.598,849.033 
  "/>
<polyline clip-path="url(#clip292)" style="stroke:#000000; stroke-linecap:butt; stroke-linejoin:round; stroke-width:4; stroke-opacity:1; fill:none" points="
  761.099,883.184 761.099,879.424 
  "/>
<polyline clip-path="url(#clip292)" style="stroke:#000000; stroke-linecap:butt; stroke-linejoin:round; stroke-width:4; stroke-opacity:1; fill:none" points="
  812.344,903.806 812.344,900.065 
  "/>
<polyline clip-path="url(#clip292)" style="stroke:#000000; stroke-linecap:butt; stroke-linejoin:round; stroke-width:4; stroke-opacity:1; fill:none" points="
  851.034,922.788 851.034,917.663 
  "/>
<polyline clip-path="url(#clip292)" style="stroke:#000000; stroke-linecap:butt; stroke-linejoin:round; stroke-width:4; stroke-opacity:1; fill:none" points="
  913.553,940.871 913.553,938.358 
  "/>
<polyline clip-path="url(#clip292)" style="stroke:#000000; stroke-linecap:butt; stroke-linejoin:round; stroke-width:4; stroke-opacity:1; fill:none" points="
  1016.3,963.021 1016.3,960.58 
  "/>
<polyline clip-path="url(#clip292)" style="stroke:#000000; stroke-linecap:butt; stroke-linejoin:round; stroke-width:4; stroke-opacity:1; fill:none" points="
  1118.53,975.973 1118.53,973.528 
  "/>
<polyline clip-path="url(#clip292)" style="stroke:#000000; stroke-linecap:butt; stroke-linejoin:round; stroke-width:4; stroke-opacity:1; fill:none" points="
  1221.02,986.058 1221.02,983.579 
  "/>
<polyline clip-path="url(#clip292)" style="stroke:#000000; stroke-linecap:butt; stroke-linejoin:round; stroke-width:4; stroke-opacity:1; fill:none" points="
  1323,995.791 1323,993.306 
  "/>
<polyline clip-path="url(#clip292)" style="stroke:#000000; stroke-linecap:butt; stroke-linejoin:round; stroke-width:4; stroke-opacity:1; fill:none" points="
  1425.75,1001.18 1425.75,998.582 
  "/>
<polyline clip-path="url(#clip292)" style="stroke:#000000; stroke-linecap:butt; stroke-linejoin:round; stroke-width:4; stroke-opacity:1; fill:none" points="
  1527.98,1008.87 1527.98,1006.22 
  "/>
<polyline clip-path="url(#clip292)" style="stroke:#000000; stroke-linecap:butt; stroke-linejoin:round; stroke-width:4; stroke-opacity:1; fill:none" points="
  1630.21,1008.99 1630.21,1005.91 
  "/>
<polyline clip-path="url(#clip292)" style="stroke:#000000; stroke-linecap:butt; stroke-linejoin:round; stroke-width:4; stroke-opacity:1; fill:none" points="
  1755.51,1012.05 1755.51,1009.2 
  "/>
<polyline clip-path="url(#clip292)" style="stroke:#000000; stroke-linecap:butt; stroke-linejoin:round; stroke-width:4; stroke-opacity:1; fill:none" points="
  1908.73,1016.04 1908.73,1012.77 
  "/>
<polyline clip-path="url(#clip292)" style="stroke:#000000; stroke-linecap:butt; stroke-linejoin:round; stroke-width:4; stroke-opacity:1; fill:none" points="
  2061.18,1022.74 2061.18,1019.33 
  "/>
<polyline clip-path="url(#clip292)" style="stroke:#000000; stroke-linecap:butt; stroke-linejoin:round; stroke-width:4; stroke-opacity:1; fill:none" points="
  2215.17,1021.35 2215.17,1016.36 
  "/>
<line clip-path="url(#clip292)" x1="311.795" y1="137.029" x2="279.795" y2="137.029" style="stroke:#000000; stroke-width:2.408; stroke-opacity:1"/>
<line clip-path="url(#clip292)" x1="311.795" y1="136.876" x2="279.795" y2="136.876" style="stroke:#000000; stroke-width:2.408; stroke-opacity:1"/>
<line clip-path="url(#clip292)" x1="329.475" y1="137.3" x2="297.475" y2="137.3" style="stroke:#000000; stroke-width:2.408; stroke-opacity:1"/>
<line clip-path="url(#clip292)" x1="329.475" y1="137.193" x2="297.475" y2="137.193" style="stroke:#000000; stroke-width:2.408; stroke-opacity:1"/>
<line clip-path="url(#clip292)" x1="354.072" y1="141.611" x2="322.072" y2="141.611" style="stroke:#000000; stroke-width:2.408; stroke-opacity:1"/>
<line clip-path="url(#clip292)" x1="354.072" y1="141.294" x2="322.072" y2="141.294" style="stroke:#000000; stroke-width:2.408; stroke-opacity:1"/>
<line clip-path="url(#clip292)" x1="379.439" y1="169.908" x2="347.439" y2="169.908" style="stroke:#000000; stroke-width:2.408; stroke-opacity:1"/>
<line clip-path="url(#clip292)" x1="379.439" y1="168.909" x2="347.439" y2="168.909" style="stroke:#000000; stroke-width:2.408; stroke-opacity:1"/>
<line clip-path="url(#clip292)" x1="405.317" y1="248.138" x2="373.317" y2="248.138" style="stroke:#000000; stroke-width:2.408; stroke-opacity:1"/>
<line clip-path="url(#clip292)" x1="405.317" y1="245.973" x2="373.317" y2="245.973" style="stroke:#000000; stroke-width:2.408; stroke-opacity:1"/>
<line clip-path="url(#clip292)" x1="431.196" y1="347.555" x2="399.196" y2="347.555" style="stroke:#000000; stroke-width:2.408; stroke-opacity:1"/>
<line clip-path="url(#clip292)" x1="431.196" y1="344.286" x2="399.196" y2="344.286" style="stroke:#000000; stroke-width:2.408; stroke-opacity:1"/>
<line clip-path="url(#clip292)" x1="456.818" y1="446.361" x2="424.818" y2="446.361" style="stroke:#000000; stroke-width:2.408; stroke-opacity:1"/>
<line clip-path="url(#clip292)" x1="456.818" y1="442.262" x2="424.818" y2="442.262" style="stroke:#000000; stroke-width:2.408; stroke-opacity:1"/>
<line clip-path="url(#clip292)" x1="482.697" y1="518.395" x2="450.697" y2="518.395" style="stroke:#000000; stroke-width:2.408; stroke-opacity:1"/>
<line clip-path="url(#clip292)" x1="482.697" y1="513.801" x2="450.697" y2="513.801" style="stroke:#000000; stroke-width:2.408; stroke-opacity:1"/>
<line clip-path="url(#clip292)" x1="508.32" y1="586.974" x2="476.32" y2="586.974" style="stroke:#000000; stroke-width:2.408; stroke-opacity:1"/>
<line clip-path="url(#clip292)" x1="508.32" y1="582.07" x2="476.32" y2="582.07" style="stroke:#000000; stroke-width:2.408; stroke-opacity:1"/>
<line clip-path="url(#clip292)" x1="533.942" y1="641.997" x2="501.942" y2="641.997" style="stroke:#000000; stroke-width:2.408; stroke-opacity:1"/>
<line clip-path="url(#clip292)" x1="533.942" y1="636.943" x2="501.942" y2="636.943" style="stroke:#000000; stroke-width:2.408; stroke-opacity:1"/>
<line clip-path="url(#clip292)" x1="559.565" y1="688.276" x2="527.565" y2="688.276" style="stroke:#000000; stroke-width:2.408; stroke-opacity:1"/>
<line clip-path="url(#clip292)" x1="559.565" y1="683.128" x2="527.565" y2="683.128" style="stroke:#000000; stroke-width:2.408; stroke-opacity:1"/>
<line clip-path="url(#clip292)" x1="585.187" y1="725.89" x2="553.187" y2="725.89" style="stroke:#000000; stroke-width:2.408; stroke-opacity:1"/>
<line clip-path="url(#clip292)" x1="585.187" y1="720.642" x2="553.187" y2="720.642" style="stroke:#000000; stroke-width:2.408; stroke-opacity:1"/>
<line clip-path="url(#clip292)" x1="610.81" y1="754.708" x2="578.81" y2="754.708" style="stroke:#000000; stroke-width:2.408; stroke-opacity:1"/>
<line clip-path="url(#clip292)" x1="610.81" y1="749.427" x2="578.81" y2="749.427" style="stroke:#000000; stroke-width:2.408; stroke-opacity:1"/>
<line clip-path="url(#clip292)" x1="636.432" y1="782.327" x2="604.432" y2="782.327" style="stroke:#000000; stroke-width:2.408; stroke-opacity:1"/>
<line clip-path="url(#clip292)" x1="636.432" y1="777.009" x2="604.432" y2="777.009" style="stroke:#000000; stroke-width:2.408; stroke-opacity:1"/>
<line clip-path="url(#clip292)" x1="674.353" y1="820.343" x2="642.353" y2="820.343" style="stroke:#000000; stroke-width:2.408; stroke-opacity:1"/>
<line clip-path="url(#clip292)" x1="674.353" y1="816.593" x2="642.353" y2="816.593" style="stroke:#000000; stroke-width:2.408; stroke-opacity:1"/>
<line clip-path="url(#clip292)" x1="725.598" y1="852.831" x2="693.598" y2="852.831" style="stroke:#000000; stroke-width:2.408; stroke-opacity:1"/>
<line clip-path="url(#clip292)" x1="725.598" y1="849.033" x2="693.598" y2="849.033" style="stroke:#000000; stroke-width:2.408; stroke-opacity:1"/>
<line clip-path="url(#clip292)" x1="777.099" y1="883.184" x2="745.099" y2="883.184" style="stroke:#000000; stroke-width:2.408; stroke-opacity:1"/>
<line clip-path="url(#clip292)" x1="777.099" y1="879.424" x2="745.099" y2="879.424" style="stroke:#000000; stroke-width:2.408; stroke-opacity:1"/>
<line clip-path="url(#clip292)" x1="828.344" y1="903.806" x2="796.344" y2="903.806" style="stroke:#000000; stroke-width:2.408; stroke-opacity:1"/>
<line clip-path="url(#clip292)" x1="828.344" y1="900.065" x2="796.344" y2="900.065" style="stroke:#000000; stroke-width:2.408; stroke-opacity:1"/>
<line clip-path="url(#clip292)" x1="867.034" y1="922.788" x2="835.034" y2="922.788" style="stroke:#000000; stroke-width:2.408; stroke-opacity:1"/>
<line clip-path="url(#clip292)" x1="867.034" y1="917.663" x2="835.034" y2="917.663" style="stroke:#000000; stroke-width:2.408; stroke-opacity:1"/>
<line clip-path="url(#clip292)" x1="929.553" y1="940.871" x2="897.553" y2="940.871" style="stroke:#000000; stroke-width:2.408; stroke-opacity:1"/>
<line clip-path="url(#clip292)" x1="929.553" y1="938.358" x2="897.553" y2="938.358" style="stroke:#000000; stroke-width:2.408; stroke-opacity:1"/>
<line clip-path="url(#clip292)" x1="1032.3" y1="963.021" x2="1000.3" y2="963.021" style="stroke:#000000; stroke-width:2.408; stroke-opacity:1"/>
<line clip-path="url(#clip292)" x1="1032.3" y1="960.58" x2="1000.3" y2="960.58" style="stroke:#000000; stroke-width:2.408; stroke-opacity:1"/>
<line clip-path="url(#clip292)" x1="1134.53" y1="975.973" x2="1102.53" y2="975.973" style="stroke:#000000; stroke-width:2.408; stroke-opacity:1"/>
<line clip-path="url(#clip292)" x1="1134.53" y1="973.528" x2="1102.53" y2="973.528" style="stroke:#000000; stroke-width:2.408; stroke-opacity:1"/>
<line clip-path="url(#clip292)" x1="1237.02" y1="986.058" x2="1205.02" y2="986.058" style="stroke:#000000; stroke-width:2.408; stroke-opacity:1"/>
<line clip-path="url(#clip292)" x1="1237.02" y1="983.579" x2="1205.02" y2="983.579" style="stroke:#000000; stroke-width:2.408; stroke-opacity:1"/>
<line clip-path="url(#clip292)" x1="1339" y1="995.791" x2="1307" y2="995.791" style="stroke:#000000; stroke-width:2.408; stroke-opacity:1"/>
<line clip-path="url(#clip292)" x1="1339" y1="993.306" x2="1307" y2="993.306" style="stroke:#000000; stroke-width:2.408; stroke-opacity:1"/>
<line clip-path="url(#clip292)" x1="1441.75" y1="1001.18" x2="1409.75" y2="1001.18" style="stroke:#000000; stroke-width:2.408; stroke-opacity:1"/>
<line clip-path="url(#clip292)" x1="1441.75" y1="998.582" x2="1409.75" y2="998.582" style="stroke:#000000; stroke-width:2.408; stroke-opacity:1"/>
<line clip-path="url(#clip292)" x1="1543.98" y1="1008.87" x2="1511.98" y2="1008.87" style="stroke:#000000; stroke-width:2.408; stroke-opacity:1"/>
<line clip-path="url(#clip292)" x1="1543.98" y1="1006.22" x2="1511.98" y2="1006.22" style="stroke:#000000; stroke-width:2.408; stroke-opacity:1"/>
<line clip-path="url(#clip292)" x1="1646.21" y1="1008.99" x2="1614.21" y2="1008.99" style="stroke:#000000; stroke-width:2.408; stroke-opacity:1"/>
<line clip-path="url(#clip292)" x1="1646.21" y1="1005.91" x2="1614.21" y2="1005.91" style="stroke:#000000; stroke-width:2.408; stroke-opacity:1"/>
<line clip-path="url(#clip292)" x1="1771.51" y1="1012.05" x2="1739.51" y2="1012.05" style="stroke:#000000; stroke-width:2.408; stroke-opacity:1"/>
<line clip-path="url(#clip292)" x1="1771.51" y1="1009.2" x2="1739.51" y2="1009.2" style="stroke:#000000; stroke-width:2.408; stroke-opacity:1"/>
<line clip-path="url(#clip292)" x1="1924.73" y1="1016.04" x2="1892.73" y2="1016.04" style="stroke:#000000; stroke-width:2.408; stroke-opacity:1"/>
<line clip-path="url(#clip292)" x1="1924.73" y1="1012.77" x2="1892.73" y2="1012.77" style="stroke:#000000; stroke-width:2.408; stroke-opacity:1"/>
<line clip-path="url(#clip292)" x1="2077.18" y1="1022.74" x2="2045.18" y2="1022.74" style="stroke:#000000; stroke-width:2.408; stroke-opacity:1"/>
<line clip-path="url(#clip292)" x1="2077.18" y1="1019.33" x2="2045.18" y2="1019.33" style="stroke:#000000; stroke-width:2.408; stroke-opacity:1"/>
<line clip-path="url(#clip292)" x1="2231.17" y1="1021.35" x2="2199.17" y2="1021.35" style="stroke:#000000; stroke-width:2.408; stroke-opacity:1"/>
<line clip-path="url(#clip292)" x1="2231.17" y1="1016.36" x2="2199.17" y2="1016.36" style="stroke:#000000; stroke-width:2.408; stroke-opacity:1"/>
<circle clip-path="url(#clip292)" cx="295.795" cy="136.952" r="14" fill="#add8e6" fill-rule="evenodd" fill-opacity="1" stroke="#000000" stroke-opacity="1" stroke-width="2.408"/>
<circle clip-path="url(#clip292)" cx="313.475" cy="137.247" r="14" fill="#add8e6" fill-rule="evenodd" fill-opacity="1" stroke="#000000" stroke-opacity="1" stroke-width="2.408"/>
<circle clip-path="url(#clip292)" cx="338.072" cy="141.452" r="14" fill="#add8e6" fill-rule="evenodd" fill-opacity="1" stroke="#000000" stroke-opacity="1" stroke-width="2.408"/>
<circle clip-path="url(#clip292)" cx="363.439" cy="169.409" r="14" fill="#add8e6" fill-rule="evenodd" fill-opacity="1" stroke="#000000" stroke-opacity="1" stroke-width="2.408"/>
<circle clip-path="url(#clip292)" cx="389.317" cy="247.055" r="14" fill="#add8e6" fill-rule="evenodd" fill-opacity="1" stroke="#000000" stroke-opacity="1" stroke-width="2.408"/>
<circle clip-path="url(#clip292)" cx="415.196" cy="345.921" r="14" fill="#add8e6" fill-rule="evenodd" fill-opacity="1" stroke="#000000" stroke-opacity="1" stroke-width="2.408"/>
<circle clip-path="url(#clip292)" cx="440.818" cy="444.311" r="14" fill="#add8e6" fill-rule="evenodd" fill-opacity="1" stroke="#000000" stroke-opacity="1" stroke-width="2.408"/>
<circle clip-path="url(#clip292)" cx="466.697" cy="516.098" r="14" fill="#add8e6" fill-rule="evenodd" fill-opacity="1" stroke="#000000" stroke-opacity="1" stroke-width="2.408"/>
<circle clip-path="url(#clip292)" cx="492.32" cy="584.522" r="14" fill="#add8e6" fill-rule="evenodd" fill-opacity="1" stroke="#000000" stroke-opacity="1" stroke-width="2.408"/>
<circle clip-path="url(#clip292)" cx="517.942" cy="639.47" r="14" fill="#add8e6" fill-rule="evenodd" fill-opacity="1" stroke="#000000" stroke-opacity="1" stroke-width="2.408"/>
<circle clip-path="url(#clip292)" cx="543.565" cy="685.702" r="14" fill="#add8e6" fill-rule="evenodd" fill-opacity="1" stroke="#000000" stroke-opacity="1" stroke-width="2.408"/>
<circle clip-path="url(#clip292)" cx="569.187" cy="723.266" r="14" fill="#add8e6" fill-rule="evenodd" fill-opacity="1" stroke="#000000" stroke-opacity="1" stroke-width="2.408"/>
<circle clip-path="url(#clip292)" cx="594.81" cy="752.067" r="14" fill="#add8e6" fill-rule="evenodd" fill-opacity="1" stroke="#000000" stroke-opacity="1" stroke-width="2.408"/>
<circle clip-path="url(#clip292)" cx="620.432" cy="779.668" r="14" fill="#add8e6" fill-rule="evenodd" fill-opacity="1" stroke="#000000" stroke-opacity="1" stroke-width="2.408"/>
<circle clip-path="url(#clip292)" cx="658.353" cy="818.468" r="14" fill="#add8e6" fill-rule="evenodd" fill-opacity="1" stroke="#000000" stroke-opacity="1" stroke-width="2.408"/>
<circle clip-path="url(#clip292)" cx="709.598" cy="850.932" r="14" fill="#add8e6" fill-rule="evenodd" fill-opacity="1" stroke="#000000" stroke-opacity="1" stroke-width="2.408"/>
<circle clip-path="url(#clip292)" cx="761.099" cy="881.304" r="14" fill="#add8e6" fill-rule="evenodd" fill-opacity="1" stroke="#000000" stroke-opacity="1" stroke-width="2.408"/>
<circle clip-path="url(#clip292)" cx="812.344" cy="901.935" r="14" fill="#add8e6" fill-rule="evenodd" fill-opacity="1" stroke="#000000" stroke-opacity="1" stroke-width="2.408"/>
<circle clip-path="url(#clip292)" cx="851.034" cy="920.226" r="14" fill="#add8e6" fill-rule="evenodd" fill-opacity="1" stroke="#000000" stroke-opacity="1" stroke-width="2.408"/>
<circle clip-path="url(#clip292)" cx="913.553" cy="939.614" r="14" fill="#add8e6" fill-rule="evenodd" fill-opacity="1" stroke="#000000" stroke-opacity="1" stroke-width="2.408"/>
<circle clip-path="url(#clip292)" cx="1016.3" cy="961.801" r="14" fill="#add8e6" fill-rule="evenodd" fill-opacity="1" stroke="#000000" stroke-opacity="1" stroke-width="2.408"/>
<circle clip-path="url(#clip292)" cx="1118.53" cy="974.751" r="14" fill="#add8e6" fill-rule="evenodd" fill-opacity="1" stroke="#000000" stroke-opacity="1" stroke-width="2.408"/>
<circle clip-path="url(#clip292)" cx="1221.02" cy="984.818" r="14" fill="#add8e6" fill-rule="evenodd" fill-opacity="1" stroke="#000000" stroke-opacity="1" stroke-width="2.408"/>
<circle clip-path="url(#clip292)" cx="1323" cy="994.548" r="14" fill="#add8e6" fill-rule="evenodd" fill-opacity="1" stroke="#000000" stroke-opacity="1" stroke-width="2.408"/>
<circle clip-path="url(#clip292)" cx="1425.75" cy="999.882" r="14" fill="#add8e6" fill-rule="evenodd" fill-opacity="1" stroke="#000000" stroke-opacity="1" stroke-width="2.408"/>
<circle clip-path="url(#clip292)" cx="1527.98" cy="1007.54" r="14" fill="#add8e6" fill-rule="evenodd" fill-opacity="1" stroke="#000000" stroke-opacity="1" stroke-width="2.408"/>
<circle clip-path="url(#clip292)" cx="1630.21" cy="1007.45" r="14" fill="#add8e6" fill-rule="evenodd" fill-opacity="1" stroke="#000000" stroke-opacity="1" stroke-width="2.408"/>
<circle clip-path="url(#clip292)" cx="1755.51" cy="1010.63" r="14" fill="#add8e6" fill-rule="evenodd" fill-opacity="1" stroke="#000000" stroke-opacity="1" stroke-width="2.408"/>
<circle clip-path="url(#clip292)" cx="1908.73" cy="1014.4" r="14" fill="#add8e6" fill-rule="evenodd" fill-opacity="1" stroke="#000000" stroke-opacity="1" stroke-width="2.408"/>
<circle clip-path="url(#clip292)" cx="2061.18" cy="1021.04" r="14" fill="#add8e6" fill-rule="evenodd" fill-opacity="1" stroke="#000000" stroke-opacity="1" stroke-width="2.408"/>
<circle clip-path="url(#clip292)" cx="2215.17" cy="1018.86" r="14" fill="#add8e6" fill-rule="evenodd" fill-opacity="1" stroke="#000000" stroke-opacity="1" stroke-width="2.408"/>
</svg>
