<?xml version="1.0" encoding="utf-8"?>
<svg xmlns="http://www.w3.org/2000/svg" xmlns:xlink="http://www.w3.org/1999/xlink" width="600" height="400" viewBox="0 0 2400 1600">
<defs>
  <clipPath id="clip990">
    <rect x="0" y="0" width="2400" height="1600"/>
  </clipPath>
</defs>
<path clip-path="url(#clip990)" d="
M0 1600 L2400 1600 L2400 0 L0 0  Z
  " fill="#ffffff" fill-rule="evenodd" fill-opacity="1"/>
<defs>
  <clipPath id="clip991">
    <rect x="480" y="0" width="1681" height="1600"/>
  </clipPath>
</defs>
<path clip-path="url(#clip990)" d="
M102.74 1505.26 L2352.76 1505.26 L2352.76 62.9921 L102.74 62.9921  Z
  " fill="#ffffff" fill-rule="evenodd" fill-opacity="1"/>
<defs>
  <clipPath id="clip992">
    <rect x="102" y="62" width="2251" height="1443"/>
  </clipPath>
</defs>
<polyline clip-path="url(#clip992)" style="stroke:#000000; stroke-linecap:butt; stroke-linejoin:round; stroke-width:2; stroke-opacity:0.1; fill:none" points="
  158.486,1505.26 158.486,62.9921 
  "/>
<polyline clip-path="url(#clip992)" style="stroke:#000000; stroke-linecap:butt; stroke-linejoin:round; stroke-width:2; stroke-opacity:0.1; fill:none" points="
  725.208,1505.26 725.208,62.9921 
  "/>
<polyline clip-path="url(#clip992)" style="stroke:#000000; stroke-linecap:butt; stroke-linejoin:round; stroke-width:2; stroke-opacity:0.1; fill:none" points="
  1291.93,1505.26 1291.93,62.9921 
  "/>
<polyline clip-path="url(#clip992)" style="stroke:#000000; stroke-linecap:butt; stroke-linejoin:round; stroke-width:2; stroke-opacity:0.1; fill:none" points="
  1858.65,1505.26 1858.65,62.9921 
  "/>
<polyline clip-path="url(#clip990)" style="stroke:#000000; stroke-linecap:butt; stroke-linejoin:round; stroke-width:4; stroke-opacity:1; fill:none" points="
  102.74,1505.26 2352.76,1505.26 
  "/>
<polyline clip-path="url(#clip990)" style="stroke:#000000; stroke-linecap:butt; stroke-linejoin:round; stroke-width:4; stroke-opacity:1; fill:none" points="
  158.486,1505.26 158.486,1486.36 
  "/>
<polyline clip-path="url(#clip990)" style="stroke:#000000; stroke-linecap:butt; stroke-linejoin:round; stroke-width:4; stroke-opacity:1; fill:none" points="
  725.208,1505.26 725.208,1486.36 
  "/>
<polyline clip-path="url(#clip990)" style="stroke:#000000; stroke-linecap:butt; stroke-linejoin:round; stroke-width:4; stroke-opacity:1; fill:none" points="
  1291.93,1505.26 1291.93,1486.36 
  "/>
<polyline clip-path="url(#clip990)" style="stroke:#000000; stroke-linecap:butt; stroke-linejoin:round; stroke-width:4; stroke-opacity:1; fill:none" points="
  1858.65,1505.26 1858.65,1486.36 
  "/>
<path clip-path="url(#clip990)" d="M158.486 1536.18 Q154.875 1536.18 153.046 1539.74 Q151.24 1543.28 151.24 1550.41 Q151.24 1557.52 153.046 1561.09 Q154.875 1564.63 158.486 1564.63 Q162.12 1564.63 163.926 1561.09 Q165.754 1557.52 165.754 1550.41 Q165.754 1543.28 163.926 1539.74 Q162.12 1536.18 158.486 1536.18 M158.486 1532.47 Q164.296 1532.47 167.351 1537.08 Q170.43 1541.66 170.43 1550.41 Q170.43 1559.14 167.351 1563.75 Q164.296 1568.33 158.486 1568.33 Q152.676 1568.33 149.597 1563.75 Q146.541 1559.14 146.541 1550.41 Q146.541 1541.66 149.597 1537.08 Q152.676 1532.47 158.486 1532.47 Z" fill="#000000" fill-rule="evenodd" fill-opacity="1" /><path clip-path="url(#clip990)" d="M703.981 1563.72 L720.3 1563.72 L720.3 1567.66 L698.356 1567.66 L698.356 1563.72 Q701.018 1560.97 705.601 1556.34 Q710.208 1551.69 711.388 1550.35 Q713.633 1547.82 714.513 1546.09 Q715.416 1544.33 715.416 1542.64 Q715.416 1539.88 713.471 1538.15 Q711.55 1536.41 708.448 1536.41 Q706.249 1536.41 703.796 1537.17 Q701.365 1537.94 698.587 1539.49 L698.587 1534.77 Q701.411 1533.63 703.865 1533.05 Q706.319 1532.47 708.356 1532.47 Q713.726 1532.47 716.921 1535.16 Q720.115 1537.85 720.115 1542.34 Q720.115 1544.47 719.305 1546.39 Q718.518 1548.28 716.411 1550.88 Q715.833 1551.55 712.731 1554.77 Q709.629 1557.96 703.981 1563.72 Z" fill="#000000" fill-rule="evenodd" fill-opacity="1" /><path clip-path="url(#clip990)" d="M740.115 1536.18 Q736.504 1536.18 734.675 1539.74 Q732.87 1543.28 732.87 1550.41 Q732.87 1557.52 734.675 1561.09 Q736.504 1564.63 740.115 1564.63 Q743.749 1564.63 745.555 1561.09 Q747.383 1557.52 747.383 1550.41 Q747.383 1543.28 745.555 1539.74 Q743.749 1536.18 740.115 1536.18 M740.115 1532.47 Q745.925 1532.47 748.981 1537.08 Q752.059 1541.66 752.059 1550.41 Q752.059 1559.14 748.981 1563.75 Q745.925 1568.33 740.115 1568.33 Q734.305 1568.33 731.226 1563.75 Q728.17 1559.14 728.17 1550.41 Q728.17 1541.66 731.226 1537.08 Q734.305 1532.47 740.115 1532.47 Z" fill="#000000" fill-rule="evenodd" fill-opacity="1" /><path clip-path="url(#clip990)" d="M1280.1 1537.17 L1268.3 1555.62 L1280.1 1555.62 L1280.1 1537.17 M1278.87 1533.1 L1284.75 1533.1 L1284.75 1555.62 L1289.68 1555.62 L1289.68 1559.51 L1284.75 1559.51 L1284.75 1567.66 L1280.1 1567.66 L1280.1 1559.51 L1264.5 1559.51 L1264.5 1555 L1278.87 1533.1 Z" fill="#000000" fill-rule="evenodd" fill-opacity="1" /><path clip-path="url(#clip990)" d="M1307.42 1536.18 Q1303.8 1536.18 1301.98 1539.74 Q1300.17 1543.28 1300.17 1550.41 Q1300.17 1557.52 1301.98 1561.09 Q1303.8 1564.63 1307.42 1564.63 Q1311.05 1564.63 1312.86 1561.09 Q1314.68 1557.52 1314.68 1550.41 Q1314.68 1543.28 1312.86 1539.74 Q1311.05 1536.18 1307.42 1536.18 M1307.42 1532.47 Q1313.23 1532.47 1316.28 1537.08 Q1319.36 1541.66 1319.36 1550.41 Q1319.36 1559.14 1316.28 1563.75 Q1313.23 1568.33 1307.42 1568.33 Q1301.61 1568.33 1298.53 1563.75 Q1295.47 1559.14 1295.47 1550.41 Q1295.47 1541.66 1298.53 1537.08 Q1301.61 1532.47 1307.42 1532.47 Z" fill="#000000" fill-rule="evenodd" fill-opacity="1" /><path clip-path="url(#clip990)" d="M1844.06 1548.52 Q1840.91 1548.52 1839.06 1550.67 Q1837.23 1552.82 1837.23 1556.57 Q1837.23 1560.3 1839.06 1562.47 Q1840.91 1564.63 1844.06 1564.63 Q1847.2 1564.63 1849.03 1562.47 Q1850.88 1560.3 1850.88 1556.57 Q1850.88 1552.82 1849.03 1550.67 Q1847.2 1548.52 1844.06 1548.52 M1853.34 1533.86 L1853.34 1538.12 Q1851.58 1537.29 1849.77 1536.85 Q1847.99 1536.41 1846.23 1536.41 Q1841.6 1536.41 1839.15 1539.53 Q1836.72 1542.66 1836.37 1548.98 Q1837.74 1546.97 1839.8 1545.9 Q1841.86 1544.81 1844.33 1544.81 Q1849.54 1544.81 1852.55 1547.98 Q1855.58 1551.13 1855.58 1556.57 Q1855.58 1561.9 1852.44 1565.11 Q1849.29 1568.33 1844.06 1568.33 Q1838.06 1568.33 1834.89 1563.75 Q1831.72 1559.14 1831.72 1550.41 Q1831.72 1542.22 1835.61 1537.36 Q1839.5 1532.47 1846.05 1532.47 Q1847.81 1532.47 1849.59 1532.82 Q1851.39 1533.17 1853.34 1533.86 Z" fill="#000000" fill-rule="evenodd" fill-opacity="1" /><path clip-path="url(#clip990)" d="M1873.64 1536.18 Q1870.03 1536.18 1868.2 1539.74 Q1866.39 1543.28 1866.39 1550.41 Q1866.39 1557.52 1868.2 1561.09 Q1870.03 1564.63 1873.64 1564.63 Q1877.27 1564.63 1879.08 1561.09 Q1880.91 1557.52 1880.91 1550.41 Q1880.91 1543.28 1879.08 1539.74 Q1877.27 1536.18 1873.64 1536.18 M1873.64 1532.47 Q1879.45 1532.47 1882.51 1537.08 Q1885.58 1541.66 1885.58 1550.41 Q1885.58 1559.14 1882.51 1563.75 Q1879.45 1568.33 1873.64 1568.33 Q1867.83 1568.33 1864.75 1563.75 Q1861.7 1559.14 1861.7 1550.41 Q1861.7 1541.66 1864.75 1537.08 Q1867.83 1532.47 1873.64 1532.47 Z" fill="#000000" fill-rule="evenodd" fill-opacity="1" /><path clip-path="url(#clip990)" d="M831.244 1607.89 L831.244 1644.84 L839.01 1644.84 Q848.845 1644.84 853.397 1640.38 Q857.98 1635.93 857.98 1626.32 Q857.98 1616.77 853.397 1612.34 Q848.845 1607.89 839.01 1607.89 L831.244 1607.89 M824.815 1602.6 L838.024 1602.6 Q851.837 1602.6 858.298 1608.36 Q864.76 1614.09 864.76 1626.32 Q864.76 1638.6 858.267 1644.36 Q851.773 1650.12 838.024 1650.12 L824.815 1650.12 L824.815 1602.6 Z" fill="#000000" fill-rule="evenodd" fill-opacity="1" /><path clip-path="url(#clip990)" d="M874.754 1614.48 L880.61 1614.48 L880.61 1650.12 L874.754 1650.12 L874.754 1614.48 M874.754 1600.6 L880.61 1600.6 L880.61 1608.01 L874.754 1608.01 L874.754 1600.6 Z" fill="#000000" fill-rule="evenodd" fill-opacity="1" /><path clip-path="url(#clip990)" d="M915.59 1615.53 L915.59 1621.06 Q913.107 1619.79 910.433 1619.15 Q907.76 1618.52 904.895 1618.52 Q900.535 1618.52 898.339 1619.85 Q896.174 1621.19 896.174 1623.87 Q896.174 1625.9 897.734 1627.08 Q899.293 1628.23 904.004 1629.28 L906.009 1629.72 Q912.248 1631.06 914.858 1633.51 Q917.499 1635.93 917.499 1640.29 Q917.499 1645.25 913.553 1648.15 Q909.638 1651.05 902.763 1651.05 Q899.898 1651.05 896.779 1650.47 Q893.692 1649.93 890.254 1648.82 L890.254 1642.77 Q893.501 1644.46 896.652 1645.32 Q899.803 1646.15 902.89 1646.15 Q907.028 1646.15 909.256 1644.74 Q911.484 1643.31 911.484 1640.73 Q911.484 1638.35 909.861 1637.07 Q908.269 1635.8 902.826 1634.62 L900.789 1634.15 Q895.347 1633 892.928 1630.64 Q890.509 1628.26 890.509 1624.12 Q890.509 1619.09 894.074 1616.35 Q897.638 1613.62 904.195 1613.62 Q907.442 1613.62 910.306 1614.09 Q913.171 1614.57 915.59 1615.53 Z" fill="#000000" fill-rule="evenodd" fill-opacity="1" /><path clip-path="url(#clip990)" d="M932.618 1604.35 L932.618 1614.48 L944.681 1614.48 L944.681 1619.03 L932.618 1619.03 L932.618 1638.38 Q932.618 1642.74 933.796 1643.98 Q935.005 1645.22 938.665 1645.22 L944.681 1645.22 L944.681 1650.12 L938.665 1650.12 Q931.886 1650.12 929.308 1647.61 Q926.73 1645.06 926.73 1638.38 L926.73 1619.03 L922.433 1619.03 L922.433 1614.48 L926.73 1614.48 L926.73 1604.35 L932.618 1604.35 Z" fill="#000000" fill-rule="evenodd" fill-opacity="1" /><path clip-path="url(#clip990)" d="M968.584 1632.2 Q961.486 1632.2 958.749 1633.83 Q956.012 1635.45 956.012 1639.37 Q956.012 1642.48 958.049 1644.33 Q960.118 1646.15 963.651 1646.15 Q968.521 1646.15 971.449 1642.71 Q974.409 1639.24 974.409 1633.51 L974.409 1632.2 L968.584 1632.2 M980.265 1629.79 L980.265 1650.12 L974.409 1650.12 L974.409 1644.71 Q972.404 1647.96 969.412 1649.52 Q966.42 1651.05 962.091 1651.05 Q956.617 1651.05 953.37 1647.99 Q950.155 1644.9 950.155 1639.75 Q950.155 1633.73 954.166 1630.68 Q958.208 1627.62 966.197 1627.62 L974.409 1627.62 L974.409 1627.05 Q974.409 1623.01 971.735 1620.81 Q969.093 1618.58 964.287 1618.58 Q961.232 1618.58 958.335 1619.31 Q955.439 1620.05 952.765 1621.51 L952.765 1616.1 Q955.98 1614.86 959.004 1614.25 Q962.028 1613.62 964.892 1613.62 Q972.626 1613.62 976.446 1617.63 Q980.265 1621.64 980.265 1629.79 Z" fill="#000000" fill-rule="evenodd" fill-opacity="1" /><path clip-path="url(#clip990)" d="M1021.96 1628.61 L1021.96 1650.12 L1016.1 1650.12 L1016.1 1628.8 Q1016.1 1623.74 1014.13 1621.22 Q1012.16 1618.71 1008.21 1618.71 Q1003.47 1618.71 1000.73 1621.73 Q997.994 1624.76 997.994 1629.98 L997.994 1650.12 L992.105 1650.12 L992.105 1614.48 L997.994 1614.48 L997.994 1620.01 Q1000.09 1616.8 1002.93 1615.21 Q1005.79 1613.62 1009.52 1613.62 Q1015.66 1613.62 1018.81 1617.44 Q1021.96 1621.22 1021.96 1628.61 Z" fill="#000000" fill-rule="evenodd" fill-opacity="1" /><path clip-path="url(#clip990)" d="M1059.3 1615.84 L1059.3 1621.32 Q1056.81 1619.95 1054.3 1619.28 Q1051.82 1618.58 1049.27 1618.58 Q1043.57 1618.58 1040.42 1622.21 Q1037.27 1625.81 1037.27 1632.33 Q1037.27 1638.86 1040.42 1642.48 Q1043.57 1646.08 1049.27 1646.08 Q1051.82 1646.08 1054.3 1645.41 Q1056.81 1644.71 1059.3 1643.34 L1059.3 1648.76 Q1056.84 1649.9 1054.2 1650.47 Q1051.59 1651.05 1048.63 1651.05 Q1040.58 1651.05 1035.84 1645.99 Q1031.1 1640.93 1031.1 1632.33 Q1031.1 1623.61 1035.87 1618.61 Q1040.68 1613.62 1049.01 1613.62 Q1051.72 1613.62 1054.3 1614.19 Q1056.88 1614.73 1059.3 1615.84 Z" fill="#000000" fill-rule="evenodd" fill-opacity="1" /><path clip-path="url(#clip990)" d="M1099.97 1630.84 L1099.97 1633.7 L1073.05 1633.7 Q1073.43 1639.75 1076.67 1642.93 Q1079.95 1646.08 1085.78 1646.08 Q1089.15 1646.08 1092.3 1645.25 Q1095.48 1644.43 1098.6 1642.77 L1098.6 1648.31 Q1095.45 1649.65 1092.14 1650.35 Q1088.83 1651.05 1085.43 1651.05 Q1076.9 1651.05 1071.9 1646.08 Q1066.93 1641.12 1066.93 1632.65 Q1066.93 1623.9 1071.64 1618.77 Q1076.39 1613.62 1084.41 1613.62 Q1091.6 1613.62 1095.77 1618.26 Q1099.97 1622.88 1099.97 1630.84 M1094.12 1629.12 Q1094.05 1624.31 1091.41 1621.45 Q1088.8 1618.58 1084.47 1618.58 Q1079.57 1618.58 1076.61 1621.35 Q1073.68 1624.12 1073.24 1629.15 L1094.12 1629.12 Z" fill="#000000" fill-rule="evenodd" fill-opacity="1" /><path clip-path="url(#clip990)" d="M1148.35 1600.6 L1148.35 1605.47 L1142.75 1605.47 Q1139.6 1605.47 1138.36 1606.74 Q1137.15 1608.01 1137.15 1611.32 L1137.15 1614.48 L1146.79 1614.48 L1146.79 1619.03 L1137.15 1619.03 L1137.15 1650.12 L1131.26 1650.12 L1131.26 1619.03 L1125.66 1619.03 L1125.66 1614.48 L1131.26 1614.48 L1131.26 1611.99 Q1131.26 1606.04 1134.03 1603.34 Q1136.8 1600.6 1142.81 1600.6 L1148.35 1600.6 Z" fill="#000000" fill-rule="evenodd" fill-opacity="1" /><path clip-path="url(#clip990)" d="M1173.91 1619.95 Q1172.92 1619.38 1171.75 1619.12 Q1170.6 1618.84 1169.2 1618.84 Q1164.23 1618.84 1161.56 1622.08 Q1158.92 1625.3 1158.92 1631.35 L1158.92 1650.12 L1153.03 1650.12 L1153.03 1614.48 L1158.92 1614.48 L1158.92 1620.01 Q1160.76 1616.77 1163.72 1615.21 Q1166.68 1613.62 1170.92 1613.62 Q1171.52 1613.62 1172.25 1613.71 Q1172.99 1613.78 1173.88 1613.93 L1173.91 1619.95 Z" fill="#000000" fill-rule="evenodd" fill-opacity="1" /><path clip-path="url(#clip990)" d="M1192.43 1618.58 Q1187.72 1618.58 1184.99 1622.27 Q1182.25 1625.93 1182.25 1632.33 Q1182.25 1638.73 1184.95 1642.42 Q1187.69 1646.08 1192.43 1646.08 Q1197.11 1646.08 1199.85 1642.39 Q1202.59 1638.7 1202.59 1632.33 Q1202.59 1626 1199.85 1622.31 Q1197.11 1618.58 1192.43 1618.58 M1192.43 1613.62 Q1200.07 1613.62 1204.43 1618.58 Q1208.79 1623.55 1208.79 1632.33 Q1208.79 1641.08 1204.43 1646.08 Q1200.07 1651.05 1192.43 1651.05 Q1184.76 1651.05 1180.4 1646.08 Q1176.07 1641.08 1176.07 1632.33 Q1176.07 1623.55 1180.4 1618.58 Q1184.76 1613.62 1192.43 1613.62 Z" fill="#000000" fill-rule="evenodd" fill-opacity="1" /><path clip-path="url(#clip990)" d="M1246.26 1621.32 Q1248.45 1617.37 1251.51 1615.49 Q1254.56 1613.62 1258.7 1613.62 Q1264.27 1613.62 1267.29 1617.53 Q1270.32 1621.41 1270.32 1628.61 L1270.32 1650.12 L1264.43 1650.12 L1264.43 1628.8 Q1264.43 1623.67 1262.62 1621.19 Q1260.8 1618.71 1257.08 1618.71 Q1252.53 1618.71 1249.88 1621.73 Q1247.24 1624.76 1247.24 1629.98 L1247.24 1650.12 L1241.35 1650.12 L1241.35 1628.8 Q1241.35 1623.64 1239.54 1621.19 Q1237.73 1618.71 1233.94 1618.71 Q1229.45 1618.71 1226.81 1621.76 Q1224.17 1624.79 1224.17 1629.98 L1224.17 1650.12 L1218.28 1650.12 L1218.28 1614.48 L1224.17 1614.48 L1224.17 1620.01 Q1226.17 1616.74 1228.97 1615.18 Q1231.77 1613.62 1235.63 1613.62 Q1239.51 1613.62 1242.21 1615.59 Q1244.95 1617.56 1246.26 1621.32 Z" fill="#000000" fill-rule="evenodd" fill-opacity="1" /><path clip-path="url(#clip990)" d="M1332.35 1628.61 L1332.35 1650.12 L1326.5 1650.12 L1326.5 1628.8 Q1326.5 1623.74 1324.52 1621.22 Q1322.55 1618.71 1318.6 1618.71 Q1313.86 1618.71 1311.12 1621.73 Q1308.39 1624.76 1308.39 1629.98 L1308.39 1650.12 L1302.5 1650.12 L1302.5 1600.6 L1308.39 1600.6 L1308.39 1620.01 Q1310.49 1616.8 1313.32 1615.21 Q1316.18 1613.62 1319.91 1613.62 Q1326.05 1613.62 1329.2 1617.44 Q1332.35 1621.22 1332.35 1628.61 Z" fill="#000000" fill-rule="evenodd" fill-opacity="1" /><path clip-path="url(#clip990)" d="M1357.85 1618.58 Q1353.14 1618.58 1350.4 1622.27 Q1347.66 1625.93 1347.66 1632.33 Q1347.66 1638.73 1350.37 1642.42 Q1353.1 1646.08 1357.85 1646.08 Q1362.53 1646.08 1365.26 1642.39 Q1368 1638.7 1368 1632.33 Q1368 1626 1365.26 1622.31 Q1362.53 1618.58 1357.85 1618.58 M1357.85 1613.62 Q1365.49 1613.62 1369.85 1618.58 Q1374.21 1623.55 1374.21 1632.33 Q1374.21 1641.08 1369.85 1646.08 Q1365.49 1651.05 1357.85 1651.05 Q1350.18 1651.05 1345.82 1646.08 Q1341.49 1641.08 1341.49 1632.33 Q1341.49 1623.55 1345.82 1618.58 Q1350.18 1613.62 1357.85 1613.62 Z" fill="#000000" fill-rule="evenodd" fill-opacity="1" /><path clip-path="url(#clip990)" d="M1383.91 1600.6 L1389.77 1600.6 L1389.77 1650.12 L1383.91 1650.12 L1383.91 1600.6 Z" fill="#000000" fill-rule="evenodd" fill-opacity="1" /><path clip-path="url(#clip990)" d="M1432.52 1630.84 L1432.52 1633.7 L1405.59 1633.7 Q1405.97 1639.75 1409.22 1642.93 Q1412.5 1646.08 1418.32 1646.08 Q1421.7 1646.08 1424.85 1645.25 Q1428.03 1644.43 1431.15 1642.77 L1431.15 1648.31 Q1428 1649.65 1424.69 1650.35 Q1421.38 1651.05 1417.97 1651.05 Q1409.44 1651.05 1404.44 1646.08 Q1399.48 1641.12 1399.48 1632.65 Q1399.48 1623.9 1404.19 1618.77 Q1408.93 1613.62 1416.95 1613.62 Q1424.15 1613.62 1428.32 1618.26 Q1432.52 1622.88 1432.52 1630.84 M1426.66 1629.12 Q1426.6 1624.31 1423.96 1621.45 Q1421.35 1618.58 1417.02 1618.58 Q1412.11 1618.58 1409.15 1621.35 Q1406.23 1624.12 1405.78 1629.15 L1426.66 1629.12 Z" fill="#000000" fill-rule="evenodd" fill-opacity="1" /><path clip-path="url(#clip990)" d="M1476.92 1600.66 Q1472.65 1607.98 1470.58 1615.14 Q1468.51 1622.31 1468.51 1629.66 Q1468.51 1637.01 1470.58 1644.24 Q1472.68 1651.43 1476.92 1658.72 L1471.83 1658.72 Q1467.05 1651.24 1464.66 1644.01 Q1462.31 1636.79 1462.31 1629.66 Q1462.31 1622.56 1464.66 1615.37 Q1467.02 1608.17 1471.83 1600.66 L1476.92 1600.66 Z" fill="#000000" fill-rule="evenodd" fill-opacity="1" /><path clip-path="url(#clip990)" d="M1506.33 1600.6 L1506.33 1605.47 L1500.73 1605.47 Q1497.57 1605.47 1496.33 1606.74 Q1495.12 1608.01 1495.12 1611.32 L1495.12 1614.48 L1504.77 1614.48 L1504.77 1619.03 L1495.12 1619.03 L1495.12 1650.12 L1489.24 1650.12 L1489.24 1619.03 L1483.63 1619.03 L1483.63 1614.48 L1489.24 1614.48 L1489.24 1611.99 Q1489.24 1606.04 1492 1603.34 Q1494.77 1600.6 1500.79 1600.6 L1506.33 1600.6 Z" fill="#000000" fill-rule="evenodd" fill-opacity="1" /><path clip-path="url(#clip990)" d="M1541.72 1630.84 L1541.72 1633.7 L1514.79 1633.7 Q1515.18 1639.75 1518.42 1642.93 Q1521.7 1646.08 1527.53 1646.08 Q1530.9 1646.08 1534.05 1645.25 Q1537.23 1644.43 1540.35 1642.77 L1540.35 1648.31 Q1537.2 1649.65 1533.89 1650.35 Q1530.58 1651.05 1527.17 1651.05 Q1518.64 1651.05 1513.65 1646.08 Q1508.68 1641.12 1508.68 1632.65 Q1508.68 1623.9 1513.39 1618.77 Q1518.14 1613.62 1526.16 1613.62 Q1533.35 1613.62 1537.52 1618.26 Q1541.72 1622.88 1541.72 1630.84 M1535.86 1629.12 Q1535.8 1624.31 1533.16 1621.45 Q1530.55 1618.58 1526.22 1618.58 Q1521.32 1618.58 1518.36 1621.35 Q1515.43 1624.12 1514.98 1629.15 L1535.86 1629.12 Z" fill="#000000" fill-rule="evenodd" fill-opacity="1" /><path clip-path="url(#clip990)" d="M1581.82 1630.84 L1581.82 1633.7 L1554.9 1633.7 Q1555.28 1639.75 1558.53 1642.93 Q1561.8 1646.08 1567.63 1646.08 Q1571 1646.08 1574.15 1645.25 Q1577.34 1644.43 1580.46 1642.77 L1580.46 1648.31 Q1577.3 1649.65 1573.99 1650.35 Q1570.68 1651.05 1567.28 1651.05 Q1558.75 1651.05 1553.75 1646.08 Q1548.79 1641.12 1548.79 1632.65 Q1548.79 1623.9 1553.5 1618.77 Q1558.24 1613.62 1566.26 1613.62 Q1573.45 1613.62 1577.62 1618.26 Q1581.82 1622.88 1581.82 1630.84 M1575.97 1629.12 Q1575.9 1624.31 1573.26 1621.45 Q1570.65 1618.58 1566.32 1618.58 Q1561.42 1618.58 1558.46 1621.35 Q1555.53 1624.12 1555.09 1629.15 L1575.97 1629.12 Z" fill="#000000" fill-rule="evenodd" fill-opacity="1" /><path clip-path="url(#clip990)" d="M1597.23 1604.35 L1597.23 1614.48 L1609.29 1614.48 L1609.29 1619.03 L1597.23 1619.03 L1597.23 1638.38 Q1597.23 1642.74 1598.41 1643.98 Q1599.62 1645.22 1603.28 1645.22 L1609.29 1645.22 L1609.29 1650.12 L1603.28 1650.12 Q1596.5 1650.12 1593.92 1647.61 Q1591.34 1645.06 1591.34 1638.38 L1591.34 1619.03 L1587.04 1619.03 L1587.04 1614.48 L1591.34 1614.48 L1591.34 1604.35 L1597.23 1604.35 Z" fill="#000000" fill-rule="evenodd" fill-opacity="1" /><path clip-path="url(#clip990)" d="M1616.07 1600.66 L1621.16 1600.66 Q1625.94 1608.17 1628.29 1615.37 Q1630.68 1622.56 1630.68 1629.66 Q1630.68 1636.79 1628.29 1644.01 Q1625.94 1651.24 1621.16 1658.72 L1616.07 1658.72 Q1620.31 1651.43 1622.37 1644.24 Q1624.47 1637.01 1624.47 1629.66 Q1624.47 1622.31 1622.37 1615.14 Q1620.31 1607.98 1616.07 1600.66 Z" fill="#000000" fill-rule="evenodd" fill-opacity="1" /><polyline clip-path="url(#clip992)" style="stroke:#000000; stroke-linecap:butt; stroke-linejoin:round; stroke-width:2; stroke-opacity:0.1; fill:none" points="
  102.74,1477.4 2352.76,1477.4 
  "/>
<polyline clip-path="url(#clip992)" style="stroke:#000000; stroke-linecap:butt; stroke-linejoin:round; stroke-width:2; stroke-opacity:0.1; fill:none" points="
  102.74,1134 2352.76,1134 
  "/>
<polyline clip-path="url(#clip992)" style="stroke:#000000; stroke-linecap:butt; stroke-linejoin:round; stroke-width:2; stroke-opacity:0.1; fill:none" points="
  102.74,790.604 2352.76,790.604 
  "/>
<polyline clip-path="url(#clip992)" style="stroke:#000000; stroke-linecap:butt; stroke-linejoin:round; stroke-width:2; stroke-opacity:0.1; fill:none" points="
  102.74,447.208 2352.76,447.208 
  "/>
<polyline clip-path="url(#clip992)" style="stroke:#000000; stroke-linecap:butt; stroke-linejoin:round; stroke-width:2; stroke-opacity:0.1; fill:none" points="
  102.74,103.811 2352.76,103.811 
  "/>
<polyline clip-path="url(#clip990)" style="stroke:#000000; stroke-linecap:butt; stroke-linejoin:round; stroke-width:4; stroke-opacity:1; fill:none" points="
  102.74,1505.26 102.74,62.9921 
  "/>
<polyline clip-path="url(#clip990)" style="stroke:#000000; stroke-linecap:butt; stroke-linejoin:round; stroke-width:4; stroke-opacity:1; fill:none" points="
  102.74,1477.4 121.638,1477.4 
  "/>
<polyline clip-path="url(#clip990)" style="stroke:#000000; stroke-linecap:butt; stroke-linejoin:round; stroke-width:4; stroke-opacity:1; fill:none" points="
  102.74,1134 121.638,1134 
  "/>
<polyline clip-path="url(#clip990)" style="stroke:#000000; stroke-linecap:butt; stroke-linejoin:round; stroke-width:4; stroke-opacity:1; fill:none" points="
  102.74,790.604 121.638,790.604 
  "/>
<polyline clip-path="url(#clip990)" style="stroke:#000000; stroke-linecap:butt; stroke-linejoin:round; stroke-width:4; stroke-opacity:1; fill:none" points="
  102.74,447.208 121.638,447.208 
  "/>
<polyline clip-path="url(#clip990)" style="stroke:#000000; stroke-linecap:butt; stroke-linejoin:round; stroke-width:4; stroke-opacity:1; fill:none" points="
  102.74,103.811 121.638,103.811 
  "/>
<path clip-path="url(#clip990)" d="M-20.5973 1463.2 Q-24.2084 1463.2 -26.0371 1466.76 Q-27.8427 1470.3 -27.8427 1477.43 Q-27.8427 1484.54 -26.0371 1488.1 Q-24.2084 1491.64 -20.5973 1491.64 Q-16.9631 1491.64 -15.1576 1488.1 Q-13.3289 1484.54 -13.3289 1477.43 Q-13.3289 1470.3 -15.1576 1466.76 Q-16.9631 1463.2 -20.5973 1463.2 M-20.5973 1459.49 Q-14.7872 1459.49 -11.7316 1464.1 Q-8.65296 1468.68 -8.65296 1477.43 Q-8.65296 1486.16 -11.7316 1490.77 Q-14.7872 1495.35 -20.5973 1495.35 Q-26.4075 1495.35 -29.4862 1490.77 Q-32.5417 1486.16 -32.5417 1477.43 Q-32.5417 1468.68 -29.4862 1464.1 Q-26.4075 1459.49 -20.5973 1459.49 Z" fill="#000000" fill-rule="evenodd" fill-opacity="1" /><path clip-path="url(#clip990)" d="M-0.435408 1488.8 L4.44882 1488.8 L4.44882 1494.68 L-0.435408 1494.68 L-0.435408 1488.8 Z" fill="#000000" fill-rule="evenodd" fill-opacity="1" /><path clip-path="url(#clip990)" d="M24.6339 1463.2 Q21.0228 1463.2 19.1941 1466.76 Q17.3886 1470.3 17.3886 1477.43 Q17.3886 1484.54 19.1941 1488.1 Q21.0228 1491.64 24.6339 1491.64 Q28.2681 1491.64 30.0737 1488.1 Q31.9024 1484.54 31.9024 1477.43 Q31.9024 1470.3 30.0737 1466.76 Q28.2681 1463.2 24.6339 1463.2 M24.6339 1459.49 Q30.4441 1459.49 33.4996 1464.1 Q36.5783 1468.68 36.5783 1477.43 Q36.5783 1486.16 33.4996 1490.77 Q30.4441 1495.35 24.6339 1495.35 Q18.8237 1495.35 15.7451 1490.77 Q12.6895 1486.16 12.6895 1477.43 Q12.6895 1468.68 15.7451 1464.1 Q18.8237 1459.49 24.6339 1459.49 Z" fill="#000000" fill-rule="evenodd" fill-opacity="1" /><path clip-path="url(#clip990)" d="M54.7958 1463.2 Q51.1847 1463.2 49.356 1466.76 Q47.5504 1470.3 47.5504 1477.43 Q47.5504 1484.54 49.356 1488.1 Q51.1847 1491.64 54.7958 1491.64 Q58.43 1491.64 60.2356 1488.1 Q62.0643 1484.54 62.0643 1477.43 Q62.0643 1470.3 60.2356 1466.76 Q58.43 1463.2 54.7958 1463.2 M54.7958 1459.49 Q60.6059 1459.49 63.6615 1464.1 Q66.7402 1468.68 66.7402 1477.43 Q66.7402 1486.16 63.6615 1490.77 Q60.6059 1495.35 54.7958 1495.35 Q48.9856 1495.35 45.9069 1490.77 Q42.8514 1486.16 42.8514 1477.43 Q42.8514 1468.68 45.9069 1464.1 Q48.9856 1459.49 54.7958 1459.49 Z" fill="#000000" fill-rule="evenodd" fill-opacity="1" /><path clip-path="url(#clip990)" d="M-19.602 1119.8 Q-23.2131 1119.8 -25.0418 1123.36 Q-26.8473 1126.91 -26.8473 1134.04 Q-26.8473 1141.14 -25.0418 1144.71 Q-23.2131 1148.25 -19.602 1148.25 Q-15.9677 1148.25 -14.1622 1144.71 Q-12.3335 1141.14 -12.3335 1134.04 Q-12.3335 1126.91 -14.1622 1123.36 Q-15.9677 1119.8 -19.602 1119.8 M-19.602 1116.1 Q-13.7918 1116.1 -10.7363 1120.7 Q-7.65759 1125.29 -7.65759 1134.04 Q-7.65759 1142.76 -10.7363 1147.37 Q-13.7918 1151.95 -19.602 1151.95 Q-25.4121 1151.95 -28.4908 1147.37 Q-31.5464 1142.76 -31.5464 1134.04 Q-31.5464 1125.29 -28.4908 1120.7 Q-25.4121 1116.1 -19.602 1116.1 Z" fill="#000000" fill-rule="evenodd" fill-opacity="1" /><path clip-path="url(#clip990)" d="M0.559957 1145.4 L5.44419 1145.4 L5.44419 1151.28 L0.559957 1151.28 L0.559957 1145.4 Z" fill="#000000" fill-rule="evenodd" fill-opacity="1" /><path clip-path="url(#clip990)" d="M19.6571 1147.35 L35.9764 1147.35 L35.9764 1151.28 L14.0321 1151.28 L14.0321 1147.35 Q16.6941 1144.59 21.2774 1139.96 Q25.8839 1135.31 27.0644 1133.97 Q29.3098 1131.44 30.1894 1129.71 Q31.0922 1127.95 31.0922 1126.26 Q31.0922 1123.5 29.1478 1121.77 Q27.2265 1120.03 24.1246 1120.03 Q21.9256 1120.03 19.4719 1120.79 Q17.0413 1121.56 14.2636 1123.11 L14.2636 1118.39 Q17.0876 1117.25 19.5413 1116.67 Q21.995 1116.1 24.0321 1116.1 Q29.4024 1116.1 32.5968 1118.78 Q35.7912 1121.47 35.7912 1125.96 Q35.7912 1128.09 34.9811 1130.01 Q34.194 1131.91 32.0876 1134.5 Q31.5089 1135.17 28.407 1138.39 Q25.3052 1141.58 19.6571 1147.35 Z" fill="#000000" fill-rule="evenodd" fill-opacity="1" /><path clip-path="url(#clip990)" d="M45.8375 1116.72 L64.1939 1116.72 L64.1939 1120.66 L50.1199 1120.66 L50.1199 1129.13 Q51.1384 1128.78 52.1569 1128.62 Q53.1754 1128.43 54.1939 1128.43 Q59.9809 1128.43 63.3605 1131.6 Q66.7402 1134.78 66.7402 1140.19 Q66.7402 1145.77 63.268 1148.87 Q59.7958 1151.95 53.4763 1151.95 Q51.3004 1151.95 49.0319 1151.58 Q46.7866 1151.21 44.3792 1150.47 L44.3792 1145.77 Q46.4625 1146.91 48.6847 1147.46 Q50.9069 1148.02 53.3837 1148.02 Q57.3884 1148.02 59.7263 1145.91 Q62.0643 1143.8 62.0643 1140.19 Q62.0643 1136.58 59.7263 1134.48 Q57.3884 1132.37 53.3837 1132.37 Q51.5088 1132.37 49.6338 1132.79 Q47.7819 1133.2 45.8375 1134.08 L45.8375 1116.72 Z" fill="#000000" fill-rule="evenodd" fill-opacity="1" /><path clip-path="url(#clip990)" d="M-20.5973 776.403 Q-24.2084 776.403 -26.0371 779.968 Q-27.8427 783.509 -27.8427 790.639 Q-27.8427 797.745 -26.0371 801.31 Q-24.2084 804.852 -20.5973 804.852 Q-16.9631 804.852 -15.1576 801.31 Q-13.3289 797.745 -13.3289 790.639 Q-13.3289 783.509 -15.1576 779.968 Q-16.9631 776.403 -20.5973 776.403 M-20.5973 772.699 Q-14.7872 772.699 -11.7316 777.305 Q-8.65296 781.889 -8.65296 790.639 Q-8.65296 799.366 -11.7316 803.972 Q-14.7872 808.555 -20.5973 808.555 Q-26.4075 808.555 -29.4862 803.972 Q-32.5417 799.366 -32.5417 790.639 Q-32.5417 781.889 -29.4862 777.305 Q-26.4075 772.699 -20.5973 772.699 Z" fill="#000000" fill-rule="evenodd" fill-opacity="1" /><path clip-path="url(#clip990)" d="M-0.435408 802.004 L4.44882 802.004 L4.44882 807.884 L-0.435408 807.884 L-0.435408 802.004 Z" fill="#000000" fill-rule="evenodd" fill-opacity="1" /><path clip-path="url(#clip990)" d="M14.6803 773.324 L33.0366 773.324 L33.0366 777.259 L18.9626 777.259 L18.9626 785.731 Q19.9811 785.384 20.9997 785.222 Q22.0182 785.037 23.0367 785.037 Q28.8237 785.037 32.2033 788.208 Q35.5829 791.379 35.5829 796.796 Q35.5829 802.375 32.1107 805.477 Q28.6385 808.555 22.3191 808.555 Q20.1432 808.555 17.8747 808.185 Q15.6293 807.815 13.2219 807.074 L13.2219 802.375 Q15.3052 803.509 17.5275 804.065 Q19.7497 804.62 22.2265 804.62 Q26.2311 804.62 28.5691 802.514 Q30.907 800.407 30.907 796.796 Q30.907 793.185 28.5691 791.079 Q26.2311 788.972 22.2265 788.972 Q20.3515 788.972 18.4765 789.389 Q16.6247 789.805 14.6803 790.685 L14.6803 773.324 Z" fill="#000000" fill-rule="evenodd" fill-opacity="1" /><path clip-path="url(#clip990)" d="M54.7958 776.403 Q51.1847 776.403 49.356 779.968 Q47.5504 783.509 47.5504 790.639 Q47.5504 797.745 49.356 801.31 Q51.1847 804.852 54.7958 804.852 Q58.43 804.852 60.2356 801.31 Q62.0643 797.745 62.0643 790.639 Q62.0643 783.509 60.2356 779.968 Q58.43 776.403 54.7958 776.403 M54.7958 772.699 Q60.6059 772.699 63.6615 777.305 Q66.7402 781.889 66.7402 790.639 Q66.7402 799.366 63.6615 803.972 Q60.6059 808.555 54.7958 808.555 Q48.9856 808.555 45.9069 803.972 Q42.8514 799.366 42.8514 790.639 Q42.8514 781.889 45.9069 777.305 Q48.9856 772.699 54.7958 772.699 Z" fill="#000000" fill-rule="evenodd" fill-opacity="1" /><path clip-path="url(#clip990)" d="M-19.602 433.006 Q-23.2131 433.006 -25.0418 436.571 Q-26.8473 440.113 -26.8473 447.242 Q-26.8473 454.349 -25.0418 457.913 Q-23.2131 461.455 -19.602 461.455 Q-15.9677 461.455 -14.1622 457.913 Q-12.3335 454.349 -12.3335 447.242 Q-12.3335 440.113 -14.1622 436.571 Q-15.9677 433.006 -19.602 433.006 M-19.602 429.303 Q-13.7918 429.303 -10.7363 433.909 Q-7.65759 438.492 -7.65759 447.242 Q-7.65759 455.969 -10.7363 460.576 Q-13.7918 465.159 -19.602 465.159 Q-25.4121 465.159 -28.4908 460.576 Q-31.5464 455.969 -31.5464 447.242 Q-31.5464 438.492 -28.4908 433.909 Q-25.4121 429.303 -19.602 429.303 Z" fill="#000000" fill-rule="evenodd" fill-opacity="1" /><path clip-path="url(#clip990)" d="M0.559957 458.608 L5.44419 458.608 L5.44419 464.488 L0.559957 464.488 L0.559957 458.608 Z" fill="#000000" fill-rule="evenodd" fill-opacity="1" /><path clip-path="url(#clip990)" d="M14.4488 429.928 L36.6709 429.928 L36.6709 431.918 L24.1246 464.488 L19.2404 464.488 L31.0459 433.863 L14.4488 433.863 L14.4488 429.928 Z" fill="#000000" fill-rule="evenodd" fill-opacity="1" /><path clip-path="url(#clip990)" d="M45.8375 429.928 L64.1939 429.928 L64.1939 433.863 L50.1199 433.863 L50.1199 442.335 Q51.1384 441.988 52.1569 441.826 Q53.1754 441.64 54.1939 441.64 Q59.9809 441.64 63.3605 444.812 Q66.7402 447.983 66.7402 453.4 Q66.7402 458.978 63.268 462.08 Q59.7958 465.159 53.4763 465.159 Q51.3004 465.159 49.0319 464.788 Q46.7866 464.418 44.3792 463.677 L44.3792 458.978 Q46.4625 460.113 48.6847 460.668 Q50.9069 461.224 53.3837 461.224 Q57.3884 461.224 59.7263 459.117 Q62.0643 457.011 62.0643 453.4 Q62.0643 449.789 59.7263 447.682 Q57.3884 445.576 53.3837 445.576 Q51.5088 445.576 49.6338 445.992 Q47.7819 446.409 45.8375 447.289 L45.8375 429.928 Z" fill="#000000" fill-rule="evenodd" fill-opacity="1" /><path clip-path="url(#clip990)" d="M-29.7871 117.156 L-22.1483 117.156 L-22.1483 90.7903 L-30.4584 92.4569 L-30.4584 88.1977 L-22.1946 86.531 L-17.5187 86.531 L-17.5187 117.156 L-9.8798 117.156 L-9.8798 121.091 L-29.7871 121.091 L-29.7871 117.156 Z" fill="#000000" fill-rule="evenodd" fill-opacity="1" /><path clip-path="url(#clip990)" d="M-0.435408 115.211 L4.44882 115.211 L4.44882 121.091 L-0.435408 121.091 L-0.435408 115.211 Z" fill="#000000" fill-rule="evenodd" fill-opacity="1" /><path clip-path="url(#clip990)" d="M24.6339 89.6097 Q21.0228 89.6097 19.1941 93.1745 Q17.3886 96.7162 17.3886 103.846 Q17.3886 110.952 19.1941 114.517 Q21.0228 118.059 24.6339 118.059 Q28.2681 118.059 30.0737 114.517 Q31.9024 110.952 31.9024 103.846 Q31.9024 96.7162 30.0737 93.1745 Q28.2681 89.6097 24.6339 89.6097 M24.6339 85.906 Q30.4441 85.906 33.4996 90.5125 Q36.5783 95.0958 36.5783 103.846 Q36.5783 112.573 33.4996 117.179 Q30.4441 121.762 24.6339 121.762 Q18.8237 121.762 15.7451 117.179 Q12.6895 112.573 12.6895 103.846 Q12.6895 95.0958 15.7451 90.5125 Q18.8237 85.906 24.6339 85.906 Z" fill="#000000" fill-rule="evenodd" fill-opacity="1" /><path clip-path="url(#clip990)" d="M54.7958 89.6097 Q51.1847 89.6097 49.356 93.1745 Q47.5504 96.7162 47.5504 103.846 Q47.5504 110.952 49.356 114.517 Q51.1847 118.059 54.7958 118.059 Q58.43 118.059 60.2356 114.517 Q62.0643 110.952 62.0643 103.846 Q62.0643 96.7162 60.2356 93.1745 Q58.43 89.6097 54.7958 89.6097 M54.7958 85.906 Q60.6059 85.906 63.6615 90.5125 Q66.7402 95.0958 66.7402 103.846 Q66.7402 112.573 63.6615 117.179 Q60.6059 121.762 54.7958 121.762 Q48.9856 121.762 45.9069 117.179 Q42.8514 112.573 42.8514 103.846 Q42.8514 95.0958 45.9069 90.5125 Q48.9856 85.906 54.7958 85.906 Z" fill="#000000" fill-rule="evenodd" fill-opacity="1" /><path clip-path="url(#clip990)" d="M-125.034 1124.82 L-107.178 1124.82 L-107.178 1116.73 Q-107.178 1112.25 -109.502 1109.8 Q-111.825 1107.34 -116.122 1107.34 Q-120.387 1107.34 -122.711 1109.8 Q-125.034 1112.25 -125.034 1116.73 L-125.034 1124.82 M-130.318 1131.25 L-130.318 1116.73 Q-130.318 1108.75 -126.689 1104.67 Q-123.093 1100.57 -116.122 1100.57 Q-109.088 1100.57 -105.491 1104.67 Q-101.895 1108.75 -101.895 1116.73 L-101.895 1124.82 L-82.7977 1124.82 L-82.7977 1131.25 L-130.318 1131.25 Z" fill="#000000" fill-rule="evenodd" fill-opacity="1" /><path clip-path="url(#clip990)" d="M-112.971 1072.68 Q-113.544 1073.67 -113.799 1074.85 Q-114.085 1075.99 -114.085 1077.39 Q-114.085 1082.36 -110.839 1085.03 Q-107.624 1087.67 -101.577 1087.67 L-82.7977 1087.67 L-82.7977 1093.56 L-118.446 1093.56 L-118.446 1087.67 L-112.908 1087.67 Q-116.154 1085.83 -117.714 1082.87 Q-119.305 1079.91 -119.305 1075.68 Q-119.305 1075.07 -119.21 1074.34 Q-119.146 1073.61 -118.987 1072.72 L-112.971 1072.68 Z" fill="#000000" fill-rule="evenodd" fill-opacity="1" /><path clip-path="url(#clip990)" d="M-114.34 1054.16 Q-114.34 1058.87 -110.648 1061.61 Q-106.987 1064.34 -100.59 1064.34 Q-94.1923 1064.34 -90.5002 1061.64 Q-86.8399 1058.9 -86.8399 1054.16 Q-86.8399 1049.48 -90.5321 1046.74 Q-94.2242 1044.01 -100.59 1044.01 Q-106.924 1044.01 -110.616 1046.74 Q-114.34 1049.48 -114.34 1054.16 M-119.305 1054.16 Q-119.305 1046.52 -114.34 1042.16 Q-109.375 1037.8 -100.59 1037.8 Q-91.837 1037.8 -86.8399 1042.16 Q-81.8747 1046.52 -81.8747 1054.16 Q-81.8747 1061.83 -86.8399 1066.19 Q-91.837 1070.52 -100.59 1070.52 Q-109.375 1070.52 -114.34 1066.19 Q-119.305 1061.83 -119.305 1054.16 Z" fill="#000000" fill-rule="evenodd" fill-opacity="1" /><path clip-path="url(#clip990)" d="M-100.59 1002.5 Q-107.051 1002.5 -110.711 1005.18 Q-114.403 1007.82 -114.403 1012.46 Q-114.403 1017.11 -110.711 1019.78 Q-107.051 1022.43 -100.59 1022.43 Q-94.1287 1022.43 -90.4366 1019.78 Q-86.7763 1017.11 -86.7763 1012.46 Q-86.7763 1007.82 -90.4366 1005.18 Q-94.1287 1002.5 -100.59 1002.5 M-113.035 1022.43 Q-116.218 1020.58 -117.745 1017.78 Q-119.305 1014.95 -119.305 1011.03 Q-119.305 1004.54 -114.149 1000.5 Q-108.993 996.422 -100.59 996.422 Q-92.1871 996.422 -87.0309 1000.5 Q-81.8747 1004.54 -81.8747 1011.03 Q-81.8747 1014.95 -83.4025 1017.78 Q-84.9621 1020.58 -88.1449 1022.43 L-82.7977 1022.43 L-82.7977 1028.31 L-132.323 1028.31 L-132.323 1022.43 L-113.035 1022.43 Z" fill="#000000" fill-rule="evenodd" fill-opacity="1" /><path clip-path="url(#clip990)" d="M-100.717 970.514 Q-100.717 977.612 -99.0939 980.349 Q-97.4707 983.086 -93.5558 983.086 Q-90.4366 983.086 -88.5905 981.049 Q-86.7763 978.98 -86.7763 975.447 Q-86.7763 970.578 -90.2138 967.649 Q-93.6831 964.689 -99.4122 964.689 L-100.717 964.689 L-100.717 970.514 M-103.136 958.833 L-82.7977 958.833 L-82.7977 964.689 L-88.2086 964.689 Q-84.9621 966.694 -83.4025 969.686 Q-81.8747 972.678 -81.8747 977.007 Q-81.8747 982.481 -84.9302 985.728 Q-88.0176 988.943 -93.1738 988.943 Q-99.1894 988.943 -102.245 984.932 Q-105.3 980.89 -105.3 972.901 L-105.3 964.689 L-105.873 964.689 Q-109.916 964.689 -112.112 967.363 Q-114.34 970.005 -114.34 974.811 Q-114.34 977.866 -113.608 980.763 Q-112.876 983.659 -111.412 986.333 L-116.822 986.333 Q-118.064 983.118 -118.668 980.094 Q-119.305 977.071 -119.305 974.206 Q-119.305 966.472 -115.295 962.652 Q-111.284 958.833 -103.136 958.833 Z" fill="#000000" fill-rule="evenodd" fill-opacity="1" /><path clip-path="url(#clip990)" d="M-100.59 921.18 Q-107.051 921.18 -110.711 923.853 Q-114.403 926.495 -114.403 931.142 Q-114.403 935.789 -110.711 938.463 Q-107.051 941.104 -100.59 941.104 Q-94.1287 941.104 -90.4366 938.463 Q-86.7763 935.789 -86.7763 931.142 Q-86.7763 926.495 -90.4366 923.853 Q-94.1287 921.18 -100.59 921.18 M-113.035 941.104 Q-116.218 939.258 -117.745 936.457 Q-119.305 933.625 -119.305 929.71 Q-119.305 923.217 -114.149 919.174 Q-108.993 915.1 -100.59 915.1 Q-92.1871 915.1 -87.0309 919.174 Q-81.8747 923.217 -81.8747 929.71 Q-81.8747 933.625 -83.4025 936.457 Q-84.9621 939.258 -88.1449 941.104 L-82.7977 941.104 L-82.7977 946.993 L-132.323 946.993 L-132.323 941.104 L-113.035 941.104 Z" fill="#000000" fill-rule="evenodd" fill-opacity="1" /><path clip-path="url(#clip990)" d="M-118.446 905.393 L-118.446 899.536 L-82.7977 899.536 L-82.7977 905.393 L-118.446 905.393 M-132.323 905.393 L-132.323 899.536 L-124.907 899.536 L-124.907 905.393 L-132.323 905.393 Z" fill="#000000" fill-rule="evenodd" fill-opacity="1" /><path clip-path="url(#clip990)" d="M-132.323 887.282 L-132.323 881.426 L-82.7977 881.426 L-82.7977 887.282 L-132.323 887.282 Z" fill="#000000" fill-rule="evenodd" fill-opacity="1" /><path clip-path="url(#clip990)" d="M-118.446 869.172 L-118.446 863.315 L-82.7977 863.315 L-82.7977 869.172 L-118.446 869.172 M-132.323 869.172 L-132.323 863.315 L-124.907 863.315 L-124.907 869.172 L-132.323 869.172 Z" fill="#000000" fill-rule="evenodd" fill-opacity="1" /><path clip-path="url(#clip990)" d="M-128.567 845.269 L-118.446 845.269 L-118.446 833.206 L-113.894 833.206 L-113.894 845.269 L-94.5424 845.269 Q-90.1819 845.269 -88.9406 844.091 Q-87.6993 842.881 -87.6993 839.221 L-87.6993 833.206 L-82.7977 833.206 L-82.7977 839.221 Q-82.7977 846.001 -85.3122 848.579 Q-87.8585 851.157 -94.5424 851.157 L-113.894 851.157 L-113.894 855.454 L-118.446 855.454 L-118.446 851.157 L-128.567 851.157 L-128.567 845.269 Z" fill="#000000" fill-rule="evenodd" fill-opacity="1" /><path clip-path="url(#clip990)" d="M-79.4876 810.671 Q-73.1218 813.154 -71.1803 815.509 Q-69.2388 817.864 -69.2388 821.811 L-69.2388 826.49 L-74.1404 826.49 L-74.1404 823.052 Q-74.1404 820.633 -75.2862 819.297 Q-76.432 817.96 -80.697 816.336 L-83.3706 815.286 L-118.446 829.704 L-118.446 823.498 L-90.5639 812.358 L-118.446 801.218 L-118.446 795.011 L-79.4876 810.671 Z" fill="#000000" fill-rule="evenodd" fill-opacity="1" /><path clip-path="url(#clip990)" d="M-114.34 752.393 Q-114.34 757.104 -110.648 759.841 Q-106.987 762.578 -100.59 762.578 Q-94.1923 762.578 -90.5002 759.873 Q-86.8399 757.135 -86.8399 752.393 Q-86.8399 747.714 -90.5321 744.977 Q-94.2242 742.24 -100.59 742.24 Q-106.924 742.24 -110.616 744.977 Q-114.34 747.714 -114.34 752.393 M-119.305 752.393 Q-119.305 744.754 -114.34 740.394 Q-109.375 736.033 -100.59 736.033 Q-91.837 736.033 -86.8399 740.394 Q-81.8747 744.754 -81.8747 752.393 Q-81.8747 760.064 -86.8399 764.424 Q-91.837 768.753 -100.59 768.753 Q-109.375 768.753 -114.34 764.424 Q-119.305 760.064 -119.305 752.393 Z" fill="#000000" fill-rule="evenodd" fill-opacity="1" /><path clip-path="url(#clip990)" d="M-132.323 708.279 L-127.453 708.279 L-127.453 713.88 Q-127.453 717.031 -126.18 718.273 Q-124.907 719.482 -121.597 719.482 L-118.446 719.482 L-118.446 709.838 L-113.894 709.838 L-113.894 719.482 L-82.7977 719.482 L-82.7977 725.371 L-113.894 725.371 L-113.894 730.972 L-118.446 730.972 L-118.446 725.371 L-120.928 725.371 Q-126.88 725.371 -129.586 722.601 Q-132.323 719.832 -132.323 713.817 L-132.323 708.279 Z" fill="#000000" fill-rule="evenodd" fill-opacity="1" /><path clip-path="url(#clip990)" d="M-117.395 659.931 L-111.857 659.931 Q-113.13 662.414 -113.767 665.087 Q-114.403 667.761 -114.403 670.625 Q-114.403 674.986 -113.067 677.182 Q-111.73 679.346 -109.056 679.346 Q-107.019 679.346 -105.842 677.787 Q-104.696 676.227 -103.645 671.517 L-103.2 669.511 Q-101.863 663.273 -99.4122 660.663 Q-96.9932 658.021 -92.6327 658.021 Q-87.6675 658.021 -84.7711 661.968 Q-81.8747 665.883 -81.8747 672.758 Q-81.8747 675.623 -82.4476 678.742 Q-82.9887 681.829 -84.1027 685.267 L-90.1501 685.267 Q-88.4632 682.02 -87.6038 678.869 Q-86.7763 675.718 -86.7763 672.631 Q-86.7763 668.493 -88.1767 666.265 Q-89.609 664.037 -92.1871 664.037 Q-94.5743 664.037 -95.8474 665.66 Q-97.1206 667.252 -98.2982 672.694 L-98.7756 674.731 Q-99.9215 680.174 -102.277 682.593 Q-104.664 685.012 -108.802 685.012 Q-113.831 685.012 -116.568 681.447 Q-119.305 677.882 -119.305 671.326 Q-119.305 668.079 -118.828 665.215 Q-118.35 662.35 -117.395 659.931 Z" fill="#000000" fill-rule="evenodd" fill-opacity="1" /><path clip-path="url(#clip990)" d="M-96.8659 649.3 L-118.446 649.3 L-118.446 643.444 L-97.0887 643.444 Q-92.028 643.444 -89.4817 641.47 Q-86.9673 639.497 -86.9673 635.55 Q-86.9673 630.808 -89.991 628.071 Q-93.0147 625.302 -98.2346 625.302 L-118.446 625.302 L-118.446 619.445 L-82.7977 619.445 L-82.7977 625.302 L-88.2722 625.302 Q-85.0257 627.434 -83.4343 630.267 Q-81.8747 633.068 -81.8747 636.792 Q-81.8747 642.935 -85.6941 646.117 Q-89.5135 649.3 -96.8659 649.3 M-119.305 634.564 L-119.305 634.564 Z" fill="#000000" fill-rule="evenodd" fill-opacity="1" /><path clip-path="url(#clip990)" d="M-117.077 581.728 L-111.603 581.728 Q-112.971 584.211 -113.64 586.725 Q-114.34 589.208 -114.34 591.754 Q-114.34 597.452 -110.711 600.603 Q-107.115 603.754 -100.59 603.754 Q-94.065 603.754 -90.4366 600.603 Q-86.8399 597.452 -86.8399 591.754 Q-86.8399 589.208 -87.5083 586.725 Q-88.2086 584.211 -89.5772 581.728 L-84.1663 581.728 Q-83.0205 584.179 -82.4476 586.821 Q-81.8747 589.431 -81.8747 592.391 Q-81.8747 600.444 -86.9354 605.186 Q-91.9962 609.928 -100.59 609.928 Q-109.311 609.928 -114.308 605.154 Q-119.305 600.348 -119.305 592.009 Q-119.305 589.304 -118.732 586.725 Q-118.191 584.147 -117.077 581.728 Z" fill="#000000" fill-rule="evenodd" fill-opacity="1" /><path clip-path="url(#clip990)" d="M-117.077 545.889 L-111.603 545.889 Q-112.971 548.372 -113.64 550.886 Q-114.34 553.369 -114.34 555.915 Q-114.34 561.613 -110.711 564.764 Q-107.115 567.915 -100.59 567.915 Q-94.065 567.915 -90.4366 564.764 Q-86.8399 561.613 -86.8399 555.915 Q-86.8399 553.369 -87.5083 550.886 Q-88.2086 548.372 -89.5772 545.889 L-84.1663 545.889 Q-83.0205 548.34 -82.4476 550.982 Q-81.8747 553.592 -81.8747 556.552 Q-81.8747 564.605 -86.9354 569.347 Q-91.9962 574.089 -100.59 574.089 Q-109.311 574.089 -114.308 569.315 Q-119.305 564.509 -119.305 556.17 Q-119.305 553.465 -118.732 550.886 Q-118.191 548.308 -117.077 545.889 Z" fill="#000000" fill-rule="evenodd" fill-opacity="1" /><path clip-path="url(#clip990)" d="M-102.086 505.213 L-99.2212 505.213 L-99.2212 532.139 Q-93.1738 531.758 -89.991 528.511 Q-86.8399 525.233 -86.8399 519.408 Q-86.8399 516.034 -87.6675 512.883 Q-88.495 509.7 -90.1501 506.581 L-84.6119 506.581 Q-83.2751 509.732 -82.5749 513.042 Q-81.8747 516.353 -81.8747 519.758 Q-81.8747 528.288 -86.8399 533.285 Q-91.8052 538.251 -100.272 538.251 Q-109.024 538.251 -114.149 533.54 Q-119.305 528.797 -119.305 520.777 Q-119.305 513.583 -114.658 509.414 Q-110.043 505.213 -102.086 505.213 M-103.805 511.069 Q-108.611 511.133 -111.475 513.774 Q-114.34 516.384 -114.34 520.713 Q-114.34 525.615 -111.571 528.575 Q-108.802 531.503 -103.773 531.949 L-103.805 511.069 Z" fill="#000000" fill-rule="evenodd" fill-opacity="1" /><path clip-path="url(#clip990)" d="M-117.395 472.875 L-111.857 472.875 Q-113.13 475.357 -113.767 478.031 Q-114.403 480.705 -114.403 483.569 Q-114.403 487.93 -113.067 490.126 Q-111.73 492.29 -109.056 492.29 Q-107.019 492.29 -105.842 490.731 Q-104.696 489.171 -103.645 484.46 L-103.2 482.455 Q-101.863 476.217 -99.4122 473.607 Q-96.9932 470.965 -92.6327 470.965 Q-87.6675 470.965 -84.7711 474.912 Q-81.8747 478.827 -81.8747 485.702 Q-81.8747 488.566 -82.4476 491.685 Q-82.9887 494.773 -84.1027 498.21 L-90.1501 498.21 Q-88.4632 494.964 -87.6038 491.813 Q-86.7763 488.662 -86.7763 485.574 Q-86.7763 481.437 -88.1767 479.209 Q-89.609 476.981 -92.1871 476.981 Q-94.5743 476.981 -95.8474 478.604 Q-97.1206 480.195 -98.2982 485.638 L-98.7756 487.675 Q-99.9215 493.118 -102.277 495.537 Q-104.664 497.956 -108.802 497.956 Q-113.831 497.956 -116.568 494.391 Q-119.305 490.826 -119.305 484.269 Q-119.305 481.023 -118.828 478.158 Q-118.35 475.294 -117.395 472.875 Z" fill="#000000" fill-rule="evenodd" fill-opacity="1" /><path clip-path="url(#clip990)" d="M-117.395 438.914 L-111.857 438.914 Q-113.13 441.396 -113.767 444.07 Q-114.403 446.744 -114.403 449.608 Q-114.403 453.969 -113.067 456.165 Q-111.73 458.329 -109.056 458.329 Q-107.019 458.329 -105.842 456.77 Q-104.696 455.21 -103.645 450.499 L-103.2 448.494 Q-101.863 442.256 -99.4122 439.646 Q-96.9932 437.004 -92.6327 437.004 Q-87.6675 437.004 -84.7711 440.951 Q-81.8747 444.866 -81.8747 451.741 Q-81.8747 454.605 -82.4476 457.724 Q-82.9887 460.812 -84.1027 464.249 L-90.1501 464.249 Q-88.4632 461.003 -87.6038 457.852 Q-86.7763 454.701 -86.7763 451.613 Q-86.7763 447.476 -88.1767 445.248 Q-89.609 443.02 -92.1871 443.02 Q-94.5743 443.02 -95.8474 444.643 Q-97.1206 446.234 -98.2982 451.677 L-98.7756 453.714 Q-99.9215 459.157 -102.277 461.576 Q-104.664 463.995 -108.802 463.995 Q-113.831 463.995 -116.568 460.43 Q-119.305 456.865 -119.305 450.308 Q-119.305 447.062 -118.828 444.197 Q-118.35 441.333 -117.395 438.914 Z" fill="#000000" fill-rule="evenodd" fill-opacity="1" /><path clip-path="url(#clip990)" d="M806.657 12.096 L817.675 12.096 L844.492 62.6918 L844.492 12.096 L852.432 12.096 L852.432 72.576 L841.413 72.576 L814.596 21.9802 L814.596 72.576 L806.657 72.576 L806.657 12.096 Z" fill="#000000" fill-rule="evenodd" fill-opacity="1" /><path clip-path="url(#clip990)" d="M907.2 48.0275 L907.2 51.6733 L872.929 51.6733 Q873.415 59.3701 877.547 63.421 Q881.72 67.4314 889.133 67.4314 Q893.427 67.4314 897.437 66.3781 Q901.488 65.3249 905.458 63.2184 L905.458 70.267 Q901.448 71.9684 897.235 72.8596 Q893.022 73.7508 888.687 73.7508 Q877.831 73.7508 871.471 67.4314 Q865.152 61.1119 865.152 50.3365 Q865.152 39.1965 871.147 32.6746 Q877.183 26.1121 887.391 26.1121 Q896.546 26.1121 901.853 32.0264 Q907.2 37.9003 907.2 48.0275 M899.746 45.84 Q899.665 39.7232 896.303 36.0774 Q892.981 32.4315 887.472 32.4315 Q881.234 32.4315 877.466 35.9558 Q873.74 39.4801 873.172 45.8805 L899.746 45.84 Z" fill="#000000" fill-rule="evenodd" fill-opacity="1" /><path clip-path="url(#clip990)" d="M915.099 27.2059 L922.553 27.2059 L931.87 62.6108 L941.147 27.2059 L949.937 27.2059 L959.254 62.6108 L968.531 27.2059 L975.984 27.2059 L964.115 72.576 L955.325 72.576 L945.562 35.3887 L935.759 72.576 L926.968 72.576 L915.099 27.2059 Z" fill="#000000" fill-rule="evenodd" fill-opacity="1" /><path clip-path="url(#clip990)" d="M1043.51 34.0924 L1043.51 9.54393 L1050.97 9.54393 L1050.97 72.576 L1043.51 72.576 L1043.51 65.7705 Q1041.16 69.8214 1037.56 71.8063 Q1033.99 73.7508 1028.97 73.7508 Q1020.75 73.7508 1015.56 67.1883 Q1010.42 60.6258 1010.42 49.9314 Q1010.42 39.2371 1015.56 32.6746 Q1020.75 26.1121 1028.97 26.1121 Q1033.99 26.1121 1037.56 28.0971 Q1041.16 30.0415 1043.51 34.0924 M1018.11 49.9314 Q1018.11 58.1548 1021.48 62.8538 Q1024.88 67.5124 1030.79 67.5124 Q1036.71 67.5124 1040.11 62.8538 Q1043.51 58.1548 1043.51 49.9314 Q1043.51 41.7081 1040.11 37.0496 Q1036.71 32.3505 1030.79 32.3505 Q1024.88 32.3505 1021.48 37.0496 Q1018.11 41.7081 1018.11 49.9314 Z" fill="#000000" fill-rule="evenodd" fill-opacity="1" /><path clip-path="url(#clip990)" d="M1086.94 49.7694 Q1077.91 49.7694 1074.42 51.8354 Q1070.94 53.9013 1070.94 58.8839 Q1070.94 62.8538 1073.53 65.2034 Q1076.16 67.5124 1080.66 67.5124 Q1086.86 67.5124 1090.58 63.1374 Q1094.35 58.7219 1094.35 51.4303 L1094.35 49.7694 L1086.94 49.7694 M1101.81 46.6907 L1101.81 72.576 L1094.35 72.576 L1094.35 65.6895 Q1091.8 69.8214 1087.99 71.8063 Q1084.18 73.7508 1078.67 73.7508 Q1071.71 73.7508 1067.58 69.8619 Q1063.48 65.9325 1063.48 59.3701 Q1063.48 51.7138 1068.59 47.825 Q1073.73 43.9361 1083.9 43.9361 L1094.35 43.9361 L1094.35 43.2069 Q1094.35 38.0623 1090.95 35.2672 Q1087.59 32.4315 1081.47 32.4315 Q1077.58 32.4315 1073.89 33.3632 Q1070.21 34.295 1066.81 36.1584 L1066.81 29.2718 Q1070.9 27.692 1074.75 26.9223 Q1078.59 26.1121 1082.24 26.1121 Q1092.08 26.1121 1096.94 31.2163 Q1101.81 36.3204 1101.81 46.6907 Z" fill="#000000" fill-rule="evenodd" fill-opacity="1" /><path clip-path="url(#clip990)" d="M1124.53 14.324 L1124.53 27.2059 L1139.88 27.2059 L1139.88 32.9987 L1124.53 32.9987 L1124.53 57.6282 Q1124.53 63.1779 1126.03 64.7578 Q1127.57 66.3376 1132.23 66.3376 L1139.88 66.3376 L1139.88 72.576 L1132.23 72.576 Q1123.6 72.576 1120.32 69.3758 Q1117.04 66.1351 1117.04 57.6282 L1117.04 32.9987 L1111.57 32.9987 L1111.57 27.2059 L1117.04 27.2059 L1117.04 14.324 L1124.53 14.324 Z" fill="#000000" fill-rule="evenodd" fill-opacity="1" /><path clip-path="url(#clip990)" d="M1170.31 49.7694 Q1161.27 49.7694 1157.79 51.8354 Q1154.31 53.9013 1154.31 58.8839 Q1154.31 62.8538 1156.9 65.2034 Q1159.53 67.5124 1164.03 67.5124 Q1170.23 67.5124 1173.95 63.1374 Q1177.72 58.7219 1177.72 51.4303 L1177.72 49.7694 L1170.31 49.7694 M1185.17 46.6907 L1185.17 72.576 L1177.72 72.576 L1177.72 65.6895 Q1175.17 69.8214 1171.36 71.8063 Q1167.55 73.7508 1162.04 73.7508 Q1155.07 73.7508 1150.94 69.8619 Q1146.85 65.9325 1146.85 59.3701 Q1146.85 51.7138 1151.96 47.825 Q1157.1 43.9361 1167.27 43.9361 L1177.72 43.9361 L1177.72 43.2069 Q1177.72 38.0623 1174.32 35.2672 Q1170.95 32.4315 1164.84 32.4315 Q1160.95 32.4315 1157.26 33.3632 Q1153.58 34.295 1150.17 36.1584 L1150.17 29.2718 Q1154.26 27.692 1158.11 26.9223 Q1161.96 26.1121 1165.61 26.1121 Q1175.45 26.1121 1180.31 31.2163 Q1185.17 36.3204 1185.17 46.6907 Z" fill="#000000" fill-rule="evenodd" fill-opacity="1" /><path clip-path="url(#clip990)" d="M1202.43 62.2867 L1210.98 62.2867 L1210.98 69.2543 L1204.33 82.2172 L1199.11 82.2172 L1202.43 69.2543 L1202.43 62.2867 Z" fill="#000000" fill-rule="evenodd" fill-opacity="1" /><path clip-path="url(#clip990)" d="M1270.85 32.4315 Q1264.85 32.4315 1261.37 37.1306 Q1257.89 41.7891 1257.89 49.9314 Q1257.89 58.0738 1261.33 62.7728 Q1264.81 67.4314 1270.85 67.4314 Q1276.8 67.4314 1280.29 62.7323 Q1283.77 58.0333 1283.77 49.9314 Q1283.77 41.8701 1280.29 37.1711 Q1276.8 32.4315 1270.85 32.4315 M1270.85 26.1121 Q1280.57 26.1121 1286.12 32.4315 Q1291.67 38.7509 1291.67 49.9314 Q1291.67 61.0714 1286.12 67.4314 Q1280.57 73.7508 1270.85 73.7508 Q1261.09 73.7508 1255.54 67.4314 Q1250.03 61.0714 1250.03 49.9314 Q1250.03 38.7509 1255.54 32.4315 Q1261.09 26.1121 1270.85 26.1121 Z" fill="#000000" fill-rule="evenodd" fill-opacity="1" /><path clip-path="url(#clip990)" d="M1304.03 9.54393 L1311.48 9.54393 L1311.48 72.576 L1304.03 72.576 L1304.03 9.54393 Z" fill="#000000" fill-rule="evenodd" fill-opacity="1" /><path clip-path="url(#clip990)" d="M1356.93 34.0924 L1356.93 9.54393 L1364.39 9.54393 L1364.39 72.576 L1356.93 72.576 L1356.93 65.7705 Q1354.58 69.8214 1350.98 71.8063 Q1347.41 73.7508 1342.39 73.7508 Q1334.17 73.7508 1328.98 67.1883 Q1323.84 60.6258 1323.84 49.9314 Q1323.84 39.2371 1328.98 32.6746 Q1334.17 26.1121 1342.39 26.1121 Q1347.41 26.1121 1350.98 28.0971 Q1354.58 30.0415 1356.93 34.0924 M1331.53 49.9314 Q1331.53 58.1548 1334.89 62.8538 Q1338.3 67.5124 1344.21 67.5124 Q1350.13 67.5124 1353.53 62.8538 Q1356.93 58.1548 1356.93 49.9314 Q1356.93 41.7081 1353.53 37.0496 Q1350.13 32.3505 1344.21 32.3505 Q1338.3 32.3505 1334.89 37.0496 Q1331.53 41.7081 1331.53 49.9314 Z" fill="#000000" fill-rule="evenodd" fill-opacity="1" /><path clip-path="url(#clip990)" d="M1441.43 35.9153 Q1444.23 30.8922 1448.12 28.5022 Q1452.01 26.1121 1457.27 26.1121 Q1464.36 26.1121 1468.21 31.0947 Q1472.06 36.0368 1472.06 45.1919 L1472.06 72.576 L1464.56 72.576 L1464.56 45.4349 Q1464.56 38.913 1462.25 35.7533 Q1459.95 32.5936 1455.21 32.5936 Q1449.41 32.5936 1446.05 36.4419 Q1442.69 40.2903 1442.69 46.9338 L1442.69 72.576 L1435.19 72.576 L1435.19 45.4349 Q1435.19 38.8725 1432.89 35.7533 Q1430.58 32.5936 1425.76 32.5936 Q1420.04 32.5936 1416.68 36.4824 Q1413.32 40.3308 1413.32 46.9338 L1413.32 72.576 L1405.83 72.576 L1405.83 27.2059 L1413.32 27.2059 L1413.32 34.2544 Q1415.87 30.082 1419.44 28.0971 Q1423 26.1121 1427.9 26.1121 Q1432.85 26.1121 1436.29 28.6237 Q1439.77 31.1352 1441.43 35.9153 Z" fill="#000000" fill-rule="evenodd" fill-opacity="1" /><path clip-path="url(#clip990)" d="M1504.51 32.4315 Q1498.51 32.4315 1495.03 37.1306 Q1491.54 41.7891 1491.54 49.9314 Q1491.54 58.0738 1494.99 62.7728 Q1498.47 67.4314 1504.51 67.4314 Q1510.46 67.4314 1513.94 62.7323 Q1517.43 58.0333 1517.43 49.9314 Q1517.43 41.8701 1513.94 37.1711 Q1510.46 32.4315 1504.51 32.4315 M1504.51 26.1121 Q1514.23 26.1121 1519.78 32.4315 Q1525.33 38.7509 1525.33 49.9314 Q1525.33 61.0714 1519.78 67.4314 Q1514.23 73.7508 1504.51 73.7508 Q1494.74 73.7508 1489.19 67.4314 Q1483.68 61.0714 1483.68 49.9314 Q1483.68 38.7509 1489.19 32.4315 Q1494.74 26.1121 1504.51 26.1121 Z" fill="#000000" fill-rule="evenodd" fill-opacity="1" /><path clip-path="url(#clip990)" d="M1567.54 34.0924 L1567.54 9.54393 L1574.99 9.54393 L1574.99 72.576 L1567.54 72.576 L1567.54 65.7705 Q1565.19 69.8214 1561.58 71.8063 Q1558.02 73.7508 1553 73.7508 Q1544.77 73.7508 1539.59 67.1883 Q1534.44 60.6258 1534.44 49.9314 Q1534.44 39.2371 1539.59 32.6746 Q1544.77 26.1121 1553 26.1121 Q1558.02 26.1121 1561.58 28.0971 Q1565.19 30.0415 1567.54 34.0924 M1542.14 49.9314 Q1542.14 58.1548 1545.5 62.8538 Q1548.9 67.5124 1554.82 67.5124 Q1560.73 67.5124 1564.14 62.8538 Q1567.54 58.1548 1567.54 49.9314 Q1567.54 41.7081 1564.14 37.0496 Q1560.73 32.3505 1554.82 32.3505 Q1548.9 32.3505 1545.5 37.0496 Q1542.14 41.7081 1542.14 49.9314 Z" fill="#000000" fill-rule="evenodd" fill-opacity="1" /><path clip-path="url(#clip990)" d="M1629.15 48.0275 L1629.15 51.6733 L1594.88 51.6733 Q1595.37 59.3701 1599.5 63.421 Q1603.67 67.4314 1611.09 67.4314 Q1615.38 67.4314 1619.39 66.3781 Q1623.44 65.3249 1627.41 63.2184 L1627.41 70.267 Q1623.4 71.9684 1619.19 72.8596 Q1614.97 73.7508 1610.64 73.7508 Q1599.78 73.7508 1593.42 67.4314 Q1587.1 61.1119 1587.1 50.3365 Q1587.1 39.1965 1593.1 32.6746 Q1599.13 26.1121 1609.34 26.1121 Q1618.5 26.1121 1623.8 32.0264 Q1629.15 37.9003 1629.15 48.0275 M1621.7 45.84 Q1621.62 39.7232 1618.26 36.0774 Q1614.93 32.4315 1609.42 32.4315 Q1603.19 32.4315 1599.42 35.9558 Q1595.69 39.4801 1595.12 45.8805 L1621.7 45.84 Z" fill="#000000" fill-rule="evenodd" fill-opacity="1" /><path clip-path="url(#clip990)" d="M1641.39 9.54393 L1648.84 9.54393 L1648.84 72.576 L1641.39 72.576 L1641.39 9.54393 Z" fill="#000000" fill-rule="evenodd" fill-opacity="1" /><polyline clip-path="url(#clip992)" style="stroke:#0000ff; stroke-linecap:butt; stroke-linejoin:round; stroke-width:6; stroke-opacity:1; fill:none" points="
  166.42,103.811 185.972,130.479 213.174,434.568 241.227,705.846 269.847,879.52 298.466,992.381 326.802,1069.77 355.422,1126.77 383.758,1169.62 412.094,1203.24 
  440.43,1230.29 468.766,1252.52 497.102,1271.11 525.438,1286.87 567.375,1306.24 624.048,1326.94 681.003,1343.25 737.675,1356.32 780.463,1364.62 849.603,1375.87 
  963.231,1390.17 1076.29,1400.9 1189.64,1409.29 1302.41,1416 1416.04,1421.54 1529.1,1426.15 1642.16,1430.05 1780.73,1434.09 1950.18,1438.19 2118.78,1441.56 
  2289.08,1444.42 
  "/>
<polyline clip-path="url(#clip992)" style="stroke:#000000; stroke-linecap:butt; stroke-linejoin:round; stroke-width:4; stroke-opacity:1; fill:none" points="
  166.42,104.385 166.42,104.149 
  "/>
<polyline clip-path="url(#clip992)" style="stroke:#000000; stroke-linecap:butt; stroke-linejoin:round; stroke-width:4; stroke-opacity:1; fill:none" points="
  185.972,104.802 185.972,104.637 
  "/>
<polyline clip-path="url(#clip992)" style="stroke:#000000; stroke-linecap:butt; stroke-linejoin:round; stroke-width:4; stroke-opacity:1; fill:none" points="
  213.174,111.421 213.174,110.934 
  "/>
<polyline clip-path="url(#clip992)" style="stroke:#000000; stroke-linecap:butt; stroke-linejoin:round; stroke-width:4; stroke-opacity:1; fill:none" points="
  241.227,154.873 241.227,153.339 
  "/>
<polyline clip-path="url(#clip992)" style="stroke:#000000; stroke-linecap:butt; stroke-linejoin:round; stroke-width:4; stroke-opacity:1; fill:none" points="
  269.847,274.998 269.847,271.673 
  "/>
<polyline clip-path="url(#clip992)" style="stroke:#000000; stroke-linecap:butt; stroke-linejoin:round; stroke-width:4; stroke-opacity:1; fill:none" points="
  298.466,427.658 298.466,422.638 
  "/>
<polyline clip-path="url(#clip992)" style="stroke:#000000; stroke-linecap:butt; stroke-linejoin:round; stroke-width:4; stroke-opacity:1; fill:none" points="
  326.802,579.379 326.802,573.085 
  "/>
<polyline clip-path="url(#clip992)" style="stroke:#000000; stroke-linecap:butt; stroke-linejoin:round; stroke-width:4; stroke-opacity:1; fill:none" points="
  355.422,689.99 355.422,682.937 
  "/>
<polyline clip-path="url(#clip992)" style="stroke:#000000; stroke-linecap:butt; stroke-linejoin:round; stroke-width:4; stroke-opacity:1; fill:none" points="
  383.758,795.298 383.758,787.768 
  "/>
<polyline clip-path="url(#clip992)" style="stroke:#000000; stroke-linecap:butt; stroke-linejoin:round; stroke-width:4; stroke-opacity:1; fill:none" points="
  412.094,879.788 412.094,872.027 
  "/>
<polyline clip-path="url(#clip992)" style="stroke:#000000; stroke-linecap:butt; stroke-linejoin:round; stroke-width:4; stroke-opacity:1; fill:none" points="
  440.43,950.851 440.43,942.947 
  "/>
<polyline clip-path="url(#clip992)" style="stroke:#000000; stroke-linecap:butt; stroke-linejoin:round; stroke-width:4; stroke-opacity:1; fill:none" points="
  468.766,1008.61 468.766,1000.55 
  "/>
<polyline clip-path="url(#clip992)" style="stroke:#000000; stroke-linecap:butt; stroke-linejoin:round; stroke-width:4; stroke-opacity:1; fill:none" points="
  497.102,1052.86 497.102,1044.75 
  "/>
<polyline clip-path="url(#clip992)" style="stroke:#000000; stroke-linecap:butt; stroke-linejoin:round; stroke-width:4; stroke-opacity:1; fill:none" points="
  525.438,1095.27 525.438,1087.11 
  "/>
<polyline clip-path="url(#clip992)" style="stroke:#000000; stroke-linecap:butt; stroke-linejoin:round; stroke-width:4; stroke-opacity:1; fill:none" points="
  567.375,1153.65 567.375,1147.89 
  "/>
<polyline clip-path="url(#clip992)" style="stroke:#000000; stroke-linecap:butt; stroke-linejoin:round; stroke-width:4; stroke-opacity:1; fill:none" points="
  624.048,1203.53 624.048,1197.7 
  "/>
<polyline clip-path="url(#clip992)" style="stroke:#000000; stroke-linecap:butt; stroke-linejoin:round; stroke-width:4; stroke-opacity:1; fill:none" points="
  681.003,1250.14 681.003,1244.37 
  "/>
<polyline clip-path="url(#clip992)" style="stroke:#000000; stroke-linecap:butt; stroke-linejoin:round; stroke-width:4; stroke-opacity:1; fill:none" points="
  737.675,1281.81 737.675,1276.06 
  "/>
<polyline clip-path="url(#clip992)" style="stroke:#000000; stroke-linecap:butt; stroke-linejoin:round; stroke-width:4; stroke-opacity:1; fill:none" points="
  780.463,1310.96 780.463,1303.09 
  "/>
<polyline clip-path="url(#clip992)" style="stroke:#000000; stroke-linecap:butt; stroke-linejoin:round; stroke-width:4; stroke-opacity:1; fill:none" points="
  849.603,1338.72 849.603,1334.86 
  "/>
<polyline clip-path="url(#clip992)" style="stroke:#000000; stroke-linecap:butt; stroke-linejoin:round; stroke-width:4; stroke-opacity:1; fill:none" points="
  963.231,1372.74 963.231,1368.99 
  "/>
<polyline clip-path="url(#clip992)" style="stroke:#000000; stroke-linecap:butt; stroke-linejoin:round; stroke-width:4; stroke-opacity:1; fill:none" points="
  1076.29,1392.62 1076.29,1388.87 
  "/>
<polyline clip-path="url(#clip992)" style="stroke:#000000; stroke-linecap:butt; stroke-linejoin:round; stroke-width:4; stroke-opacity:1; fill:none" points="
  1189.64,1408.11 1189.64,1404.3 
  "/>
<polyline clip-path="url(#clip992)" style="stroke:#000000; stroke-linecap:butt; stroke-linejoin:round; stroke-width:4; stroke-opacity:1; fill:none" points="
  1302.41,1423.06 1302.41,1419.24 
  "/>
<polyline clip-path="url(#clip992)" style="stroke:#000000; stroke-linecap:butt; stroke-linejoin:round; stroke-width:4; stroke-opacity:1; fill:none" points="
  1416.04,1431.34 1416.04,1427.34 
  "/>
<polyline clip-path="url(#clip992)" style="stroke:#000000; stroke-linecap:butt; stroke-linejoin:round; stroke-width:4; stroke-opacity:1; fill:none" points="
  1529.1,1443.13 1529.1,1439.07 
  "/>
<polyline clip-path="url(#clip992)" style="stroke:#000000; stroke-linecap:butt; stroke-linejoin:round; stroke-width:4; stroke-opacity:1; fill:none" points="
  1642.16,1443.32 1642.16,1438.59 
  "/>
<polyline clip-path="url(#clip992)" style="stroke:#000000; stroke-linecap:butt; stroke-linejoin:round; stroke-width:4; stroke-opacity:1; fill:none" points="
  1780.73,1448.02 1780.73,1443.65 
  "/>
<polyline clip-path="url(#clip992)" style="stroke:#000000; stroke-linecap:butt; stroke-linejoin:round; stroke-width:4; stroke-opacity:1; fill:none" points="
  1950.18,1454.15 1950.18,1449.12 
  "/>
<polyline clip-path="url(#clip992)" style="stroke:#000000; stroke-linecap:butt; stroke-linejoin:round; stroke-width:4; stroke-opacity:1; fill:none" points="
  2118.78,1464.44 2118.78,1459.21 
  "/>
<polyline clip-path="url(#clip992)" style="stroke:#000000; stroke-linecap:butt; stroke-linejoin:round; stroke-width:4; stroke-opacity:1; fill:none" points="
  2289.08,1462.31 2289.08,1454.64 
  "/>
<line clip-path="url(#clip992)" x1="182.42" y1="104.385" x2="150.42" y2="104.385" style="stroke:#000000; stroke-width:3.2; stroke-opacity:1"/>
<line clip-path="url(#clip992)" x1="182.42" y1="104.149" x2="150.42" y2="104.149" style="stroke:#000000; stroke-width:3.2; stroke-opacity:1"/>
<line clip-path="url(#clip992)" x1="201.972" y1="104.802" x2="169.972" y2="104.802" style="stroke:#000000; stroke-width:3.2; stroke-opacity:1"/>
<line clip-path="url(#clip992)" x1="201.972" y1="104.637" x2="169.972" y2="104.637" style="stroke:#000000; stroke-width:3.2; stroke-opacity:1"/>
<line clip-path="url(#clip992)" x1="229.174" y1="111.421" x2="197.174" y2="111.421" style="stroke:#000000; stroke-width:3.2; stroke-opacity:1"/>
<line clip-path="url(#clip992)" x1="229.174" y1="110.934" x2="197.174" y2="110.934" style="stroke:#000000; stroke-width:3.2; stroke-opacity:1"/>
<line clip-path="url(#clip992)" x1="257.227" y1="154.873" x2="225.227" y2="154.873" style="stroke:#000000; stroke-width:3.2; stroke-opacity:1"/>
<line clip-path="url(#clip992)" x1="257.227" y1="153.339" x2="225.227" y2="153.339" style="stroke:#000000; stroke-width:3.2; stroke-opacity:1"/>
<line clip-path="url(#clip992)" x1="285.847" y1="274.998" x2="253.847" y2="274.998" style="stroke:#000000; stroke-width:3.2; stroke-opacity:1"/>
<line clip-path="url(#clip992)" x1="285.847" y1="271.673" x2="253.847" y2="271.673" style="stroke:#000000; stroke-width:3.2; stroke-opacity:1"/>
<line clip-path="url(#clip992)" x1="314.466" y1="427.658" x2="282.466" y2="427.658" style="stroke:#000000; stroke-width:3.2; stroke-opacity:1"/>
<line clip-path="url(#clip992)" x1="314.466" y1="422.638" x2="282.466" y2="422.638" style="stroke:#000000; stroke-width:3.2; stroke-opacity:1"/>
<line clip-path="url(#clip992)" x1="342.802" y1="579.379" x2="310.802" y2="579.379" style="stroke:#000000; stroke-width:3.2; stroke-opacity:1"/>
<line clip-path="url(#clip992)" x1="342.802" y1="573.085" x2="310.802" y2="573.085" style="stroke:#000000; stroke-width:3.2; stroke-opacity:1"/>
<line clip-path="url(#clip992)" x1="371.422" y1="689.99" x2="339.422" y2="689.99" style="stroke:#000000; stroke-width:3.2; stroke-opacity:1"/>
<line clip-path="url(#clip992)" x1="371.422" y1="682.937" x2="339.422" y2="682.937" style="stroke:#000000; stroke-width:3.2; stroke-opacity:1"/>
<line clip-path="url(#clip992)" x1="399.758" y1="795.298" x2="367.758" y2="795.298" style="stroke:#000000; stroke-width:3.2; stroke-opacity:1"/>
<line clip-path="url(#clip992)" x1="399.758" y1="787.768" x2="367.758" y2="787.768" style="stroke:#000000; stroke-width:3.2; stroke-opacity:1"/>
<line clip-path="url(#clip992)" x1="428.094" y1="879.788" x2="396.094" y2="879.788" style="stroke:#000000; stroke-width:3.2; stroke-opacity:1"/>
<line clip-path="url(#clip992)" x1="428.094" y1="872.027" x2="396.094" y2="872.027" style="stroke:#000000; stroke-width:3.2; stroke-opacity:1"/>
<line clip-path="url(#clip992)" x1="456.43" y1="950.851" x2="424.43" y2="950.851" style="stroke:#000000; stroke-width:3.2; stroke-opacity:1"/>
<line clip-path="url(#clip992)" x1="456.43" y1="942.947" x2="424.43" y2="942.947" style="stroke:#000000; stroke-width:3.2; stroke-opacity:1"/>
<line clip-path="url(#clip992)" x1="484.766" y1="1008.61" x2="452.766" y2="1008.61" style="stroke:#000000; stroke-width:3.2; stroke-opacity:1"/>
<line clip-path="url(#clip992)" x1="484.766" y1="1000.55" x2="452.766" y2="1000.55" style="stroke:#000000; stroke-width:3.2; stroke-opacity:1"/>
<line clip-path="url(#clip992)" x1="513.102" y1="1052.86" x2="481.102" y2="1052.86" style="stroke:#000000; stroke-width:3.2; stroke-opacity:1"/>
<line clip-path="url(#clip992)" x1="513.102" y1="1044.75" x2="481.102" y2="1044.75" style="stroke:#000000; stroke-width:3.2; stroke-opacity:1"/>
<line clip-path="url(#clip992)" x1="541.438" y1="1095.27" x2="509.438" y2="1095.27" style="stroke:#000000; stroke-width:3.2; stroke-opacity:1"/>
<line clip-path="url(#clip992)" x1="541.438" y1="1087.11" x2="509.438" y2="1087.11" style="stroke:#000000; stroke-width:3.2; stroke-opacity:1"/>
<line clip-path="url(#clip992)" x1="583.375" y1="1153.65" x2="551.375" y2="1153.65" style="stroke:#000000; stroke-width:3.2; stroke-opacity:1"/>
<line clip-path="url(#clip992)" x1="583.375" y1="1147.89" x2="551.375" y2="1147.89" style="stroke:#000000; stroke-width:3.2; stroke-opacity:1"/>
<line clip-path="url(#clip992)" x1="640.048" y1="1203.53" x2="608.048" y2="1203.53" style="stroke:#000000; stroke-width:3.2; stroke-opacity:1"/>
<line clip-path="url(#clip992)" x1="640.048" y1="1197.7" x2="608.048" y2="1197.7" style="stroke:#000000; stroke-width:3.2; stroke-opacity:1"/>
<line clip-path="url(#clip992)" x1="697.003" y1="1250.14" x2="665.003" y2="1250.14" style="stroke:#000000; stroke-width:3.2; stroke-opacity:1"/>
<line clip-path="url(#clip992)" x1="697.003" y1="1244.37" x2="665.003" y2="1244.37" style="stroke:#000000; stroke-width:3.2; stroke-opacity:1"/>
<line clip-path="url(#clip992)" x1="753.675" y1="1281.81" x2="721.675" y2="1281.81" style="stroke:#000000; stroke-width:3.2; stroke-opacity:1"/>
<line clip-path="url(#clip992)" x1="753.675" y1="1276.06" x2="721.675" y2="1276.06" style="stroke:#000000; stroke-width:3.2; stroke-opacity:1"/>
<line clip-path="url(#clip992)" x1="796.463" y1="1310.96" x2="764.463" y2="1310.96" style="stroke:#000000; stroke-width:3.2; stroke-opacity:1"/>
<line clip-path="url(#clip992)" x1="796.463" y1="1303.09" x2="764.463" y2="1303.09" style="stroke:#000000; stroke-width:3.2; stroke-opacity:1"/>
<line clip-path="url(#clip992)" x1="865.603" y1="1338.72" x2="833.603" y2="1338.72" style="stroke:#000000; stroke-width:3.2; stroke-opacity:1"/>
<line clip-path="url(#clip992)" x1="865.603" y1="1334.86" x2="833.603" y2="1334.86" style="stroke:#000000; stroke-width:3.2; stroke-opacity:1"/>
<line clip-path="url(#clip992)" x1="979.231" y1="1372.74" x2="947.231" y2="1372.74" style="stroke:#000000; stroke-width:3.2; stroke-opacity:1"/>
<line clip-path="url(#clip992)" x1="979.231" y1="1368.99" x2="947.231" y2="1368.99" style="stroke:#000000; stroke-width:3.2; stroke-opacity:1"/>
<line clip-path="url(#clip992)" x1="1092.29" y1="1392.62" x2="1060.29" y2="1392.62" style="stroke:#000000; stroke-width:3.2; stroke-opacity:1"/>
<line clip-path="url(#clip992)" x1="1092.29" y1="1388.87" x2="1060.29" y2="1388.87" style="stroke:#000000; stroke-width:3.2; stroke-opacity:1"/>
<line clip-path="url(#clip992)" x1="1205.64" y1="1408.11" x2="1173.64" y2="1408.11" style="stroke:#000000; stroke-width:3.2; stroke-opacity:1"/>
<line clip-path="url(#clip992)" x1="1205.64" y1="1404.3" x2="1173.64" y2="1404.3" style="stroke:#000000; stroke-width:3.2; stroke-opacity:1"/>
<line clip-path="url(#clip992)" x1="1318.41" y1="1423.06" x2="1286.41" y2="1423.06" style="stroke:#000000; stroke-width:3.2; stroke-opacity:1"/>
<line clip-path="url(#clip992)" x1="1318.41" y1="1419.24" x2="1286.41" y2="1419.24" style="stroke:#000000; stroke-width:3.2; stroke-opacity:1"/>
<line clip-path="url(#clip992)" x1="1432.04" y1="1431.34" x2="1400.04" y2="1431.34" style="stroke:#000000; stroke-width:3.2; stroke-opacity:1"/>
<line clip-path="url(#clip992)" x1="1432.04" y1="1427.34" x2="1400.04" y2="1427.34" style="stroke:#000000; stroke-width:3.2; stroke-opacity:1"/>
<line clip-path="url(#clip992)" x1="1545.1" y1="1443.13" x2="1513.1" y2="1443.13" style="stroke:#000000; stroke-width:3.2; stroke-opacity:1"/>
<line clip-path="url(#clip992)" x1="1545.1" y1="1439.07" x2="1513.1" y2="1439.07" style="stroke:#000000; stroke-width:3.2; stroke-opacity:1"/>
<line clip-path="url(#clip992)" x1="1658.16" y1="1443.32" x2="1626.16" y2="1443.32" style="stroke:#000000; stroke-width:3.2; stroke-opacity:1"/>
<line clip-path="url(#clip992)" x1="1658.16" y1="1438.59" x2="1626.16" y2="1438.59" style="stroke:#000000; stroke-width:3.2; stroke-opacity:1"/>
<line clip-path="url(#clip992)" x1="1796.73" y1="1448.02" x2="1764.73" y2="1448.02" style="stroke:#000000; stroke-width:3.2; stroke-opacity:1"/>
<line clip-path="url(#clip992)" x1="1796.73" y1="1443.65" x2="1764.73" y2="1443.65" style="stroke:#000000; stroke-width:3.2; stroke-opacity:1"/>
<line clip-path="url(#clip992)" x1="1966.18" y1="1454.15" x2="1934.18" y2="1454.15" style="stroke:#000000; stroke-width:3.2; stroke-opacity:1"/>
<line clip-path="url(#clip992)" x1="1966.18" y1="1449.12" x2="1934.18" y2="1449.12" style="stroke:#000000; stroke-width:3.2; stroke-opacity:1"/>
<line clip-path="url(#clip992)" x1="2134.78" y1="1464.44" x2="2102.78" y2="1464.44" style="stroke:#000000; stroke-width:3.2; stroke-opacity:1"/>
<line clip-path="url(#clip992)" x1="2134.78" y1="1459.21" x2="2102.78" y2="1459.21" style="stroke:#000000; stroke-width:3.2; stroke-opacity:1"/>
<line clip-path="url(#clip992)" x1="2305.08" y1="1462.31" x2="2273.08" y2="1462.31" style="stroke:#000000; stroke-width:3.2; stroke-opacity:1"/>
<line clip-path="url(#clip992)" x1="2305.08" y1="1454.64" x2="2273.08" y2="1454.64" style="stroke:#000000; stroke-width:3.2; stroke-opacity:1"/>
<circle clip-path="url(#clip992)" cx="166.42" cy="104.267" r="14" fill="#add8e6" fill-rule="evenodd" fill-opacity="1" stroke="#000000" stroke-opacity="1" stroke-width="3.2"/>
<circle clip-path="url(#clip992)" cx="185.972" cy="104.719" r="14" fill="#add8e6" fill-rule="evenodd" fill-opacity="1" stroke="#000000" stroke-opacity="1" stroke-width="3.2"/>
<circle clip-path="url(#clip992)" cx="213.174" cy="111.177" r="14" fill="#add8e6" fill-rule="evenodd" fill-opacity="1" stroke="#000000" stroke-opacity="1" stroke-width="3.2"/>
<circle clip-path="url(#clip992)" cx="241.227" cy="154.106" r="14" fill="#add8e6" fill-rule="evenodd" fill-opacity="1" stroke="#000000" stroke-opacity="1" stroke-width="3.2"/>
<circle clip-path="url(#clip992)" cx="269.847" cy="273.336" r="14" fill="#add8e6" fill-rule="evenodd" fill-opacity="1" stroke="#000000" stroke-opacity="1" stroke-width="3.2"/>
<circle clip-path="url(#clip992)" cx="298.466" cy="425.148" r="14" fill="#add8e6" fill-rule="evenodd" fill-opacity="1" stroke="#000000" stroke-opacity="1" stroke-width="3.2"/>
<circle clip-path="url(#clip992)" cx="326.802" cy="576.232" r="14" fill="#add8e6" fill-rule="evenodd" fill-opacity="1" stroke="#000000" stroke-opacity="1" stroke-width="3.2"/>
<circle clip-path="url(#clip992)" cx="355.422" cy="686.464" r="14" fill="#add8e6" fill-rule="evenodd" fill-opacity="1" stroke="#000000" stroke-opacity="1" stroke-width="3.2"/>
<circle clip-path="url(#clip992)" cx="383.758" cy="791.533" r="14" fill="#add8e6" fill-rule="evenodd" fill-opacity="1" stroke="#000000" stroke-opacity="1" stroke-width="3.2"/>
<circle clip-path="url(#clip992)" cx="412.094" cy="875.907" r="14" fill="#add8e6" fill-rule="evenodd" fill-opacity="1" stroke="#000000" stroke-opacity="1" stroke-width="3.2"/>
<circle clip-path="url(#clip992)" cx="440.43" cy="946.899" r="14" fill="#add8e6" fill-rule="evenodd" fill-opacity="1" stroke="#000000" stroke-opacity="1" stroke-width="3.2"/>
<circle clip-path="url(#clip992)" cx="468.766" cy="1004.58" r="14" fill="#add8e6" fill-rule="evenodd" fill-opacity="1" stroke="#000000" stroke-opacity="1" stroke-width="3.2"/>
<circle clip-path="url(#clip992)" cx="497.102" cy="1048.81" r="14" fill="#add8e6" fill-rule="evenodd" fill-opacity="1" stroke="#000000" stroke-opacity="1" stroke-width="3.2"/>
<circle clip-path="url(#clip992)" cx="525.438" cy="1091.19" r="14" fill="#add8e6" fill-rule="evenodd" fill-opacity="1" stroke="#000000" stroke-opacity="1" stroke-width="3.2"/>
<circle clip-path="url(#clip992)" cx="567.375" cy="1150.77" r="14" fill="#add8e6" fill-rule="evenodd" fill-opacity="1" stroke="#000000" stroke-opacity="1" stroke-width="3.2"/>
<circle clip-path="url(#clip992)" cx="624.048" cy="1200.62" r="14" fill="#add8e6" fill-rule="evenodd" fill-opacity="1" stroke="#000000" stroke-opacity="1" stroke-width="3.2"/>
<circle clip-path="url(#clip992)" cx="681.003" cy="1247.26" r="14" fill="#add8e6" fill-rule="evenodd" fill-opacity="1" stroke="#000000" stroke-opacity="1" stroke-width="3.2"/>
<circle clip-path="url(#clip992)" cx="737.675" cy="1278.94" r="14" fill="#add8e6" fill-rule="evenodd" fill-opacity="1" stroke="#000000" stroke-opacity="1" stroke-width="3.2"/>
<circle clip-path="url(#clip992)" cx="780.463" cy="1307.02" r="14" fill="#add8e6" fill-rule="evenodd" fill-opacity="1" stroke="#000000" stroke-opacity="1" stroke-width="3.2"/>
<circle clip-path="url(#clip992)" cx="849.603" cy="1336.79" r="14" fill="#add8e6" fill-rule="evenodd" fill-opacity="1" stroke="#000000" stroke-opacity="1" stroke-width="3.2"/>
<circle clip-path="url(#clip992)" cx="963.231" cy="1370.86" r="14" fill="#add8e6" fill-rule="evenodd" fill-opacity="1" stroke="#000000" stroke-opacity="1" stroke-width="3.2"/>
<circle clip-path="url(#clip992)" cx="1076.29" cy="1390.75" r="14" fill="#add8e6" fill-rule="evenodd" fill-opacity="1" stroke="#000000" stroke-opacity="1" stroke-width="3.2"/>
<circle clip-path="url(#clip992)" cx="1189.64" cy="1406.21" r="14" fill="#add8e6" fill-rule="evenodd" fill-opacity="1" stroke="#000000" stroke-opacity="1" stroke-width="3.2"/>
<circle clip-path="url(#clip992)" cx="1302.41" cy="1421.15" r="14" fill="#add8e6" fill-rule="evenodd" fill-opacity="1" stroke="#000000" stroke-opacity="1" stroke-width="3.2"/>
<circle clip-path="url(#clip992)" cx="1416.04" cy="1429.34" r="14" fill="#add8e6" fill-rule="evenodd" fill-opacity="1" stroke="#000000" stroke-opacity="1" stroke-width="3.2"/>
<circle clip-path="url(#clip992)" cx="1529.1" cy="1441.1" r="14" fill="#add8e6" fill-rule="evenodd" fill-opacity="1" stroke="#000000" stroke-opacity="1" stroke-width="3.2"/>
<circle clip-path="url(#clip992)" cx="1642.16" cy="1440.96" r="14" fill="#add8e6" fill-rule="evenodd" fill-opacity="1" stroke="#000000" stroke-opacity="1" stroke-width="3.2"/>
<circle clip-path="url(#clip992)" cx="1780.73" cy="1445.83" r="14" fill="#add8e6" fill-rule="evenodd" fill-opacity="1" stroke="#000000" stroke-opacity="1" stroke-width="3.2"/>
<circle clip-path="url(#clip992)" cx="1950.18" cy="1451.64" r="14" fill="#add8e6" fill-rule="evenodd" fill-opacity="1" stroke="#000000" stroke-opacity="1" stroke-width="3.2"/>
<circle clip-path="url(#clip992)" cx="2118.78" cy="1461.82" r="14" fill="#add8e6" fill-rule="evenodd" fill-opacity="1" stroke="#000000" stroke-opacity="1" stroke-width="3.2"/>
<circle clip-path="url(#clip992)" cx="2289.08" cy="1458.47" r="14" fill="#add8e6" fill-rule="evenodd" fill-opacity="1" stroke="#000000" stroke-opacity="1" stroke-width="3.2"/>
</svg>
