<?xml version="1.0" encoding="utf-8"?>
<svg xmlns="http://www.w3.org/2000/svg" xmlns:xlink="http://www.w3.org/1999/xlink" width="580" height="300" viewBox="0 0 2320 1200">
<defs>
  <clipPath id="clip420">
    <rect x="0" y="0" width="2320" height="1200"/>
  </clipPath>
</defs>
<path clip-path="url(#clip420)" d="
M0 1200 L2320 1200 L2320 0 L0 0  Z
  " fill="#ffffff" fill-rule="evenodd" fill-opacity="1"/>
<defs>
  <clipPath id="clip421">
    <rect x="464" y="0" width="1625" height="1200"/>
  </clipPath>
</defs>
<path clip-path="url(#clip420)" d="
M238.091 1045.58 L2272.76 1045.58 L2272.76 109.916 L238.091 109.916  Z
  " fill="#ffffff" fill-rule="evenodd" fill-opacity="1"/>
<defs>
  <clipPath id="clip422">
    <rect x="238" y="109" width="2036" height="937"/>
  </clipPath>
</defs>
<polyline clip-path="url(#clip422)" style="stroke:#000000; stroke-linecap:butt; stroke-linejoin:round; stroke-width:2; stroke-opacity:0.1; fill:none" points="
  288.501,1045.58 288.501,109.916 
  "/>
<polyline clip-path="url(#clip422)" style="stroke:#000000; stroke-linecap:butt; stroke-linejoin:round; stroke-width:2; stroke-opacity:0.1; fill:none" points="
  800.981,1045.58 800.981,109.916 
  "/>
<polyline clip-path="url(#clip422)" style="stroke:#000000; stroke-linecap:butt; stroke-linejoin:round; stroke-width:2; stroke-opacity:0.1; fill:none" points="
  1313.46,1045.58 1313.46,109.916 
  "/>
<polyline clip-path="url(#clip422)" style="stroke:#000000; stroke-linecap:butt; stroke-linejoin:round; stroke-width:2; stroke-opacity:0.1; fill:none" points="
  1825.94,1045.58 1825.94,109.916 
  "/>
<polyline clip-path="url(#clip420)" style="stroke:#000000; stroke-linecap:butt; stroke-linejoin:round; stroke-width:4; stroke-opacity:1; fill:none" points="
  238.091,1045.58 2272.76,1045.58 
  "/>
<polyline clip-path="url(#clip420)" style="stroke:#000000; stroke-linecap:butt; stroke-linejoin:round; stroke-width:4; stroke-opacity:1; fill:none" points="
  288.501,1045.58 288.501,1026.68 
  "/>
<polyline clip-path="url(#clip420)" style="stroke:#000000; stroke-linecap:butt; stroke-linejoin:round; stroke-width:4; stroke-opacity:1; fill:none" points="
  800.981,1045.58 800.981,1026.68 
  "/>
<polyline clip-path="url(#clip420)" style="stroke:#000000; stroke-linecap:butt; stroke-linejoin:round; stroke-width:4; stroke-opacity:1; fill:none" points="
  1313.46,1045.58 1313.46,1026.68 
  "/>
<polyline clip-path="url(#clip420)" style="stroke:#000000; stroke-linecap:butt; stroke-linejoin:round; stroke-width:4; stroke-opacity:1; fill:none" points="
  1825.94,1045.58 1825.94,1026.68 
  "/>
<path clip-path="url(#clip420)" d="M288.501 1075.86 Q284.89 1075.86 283.061 1079.42 Q281.256 1082.96 281.256 1090.09 Q281.256 1097.2 283.061 1100.76 Q284.89 1104.3 288.501 1104.3 Q292.135 1104.3 293.941 1100.76 Q295.77 1097.2 295.77 1090.09 Q295.77 1082.96 293.941 1079.42 Q292.135 1075.86 288.501 1075.86 M288.501 1072.15 Q294.311 1072.15 297.367 1076.76 Q300.446 1081.34 300.446 1090.09 Q300.446 1098.82 297.367 1103.43 Q294.311 1108.01 288.501 1108.01 Q282.691 1108.01 279.612 1103.43 Q276.557 1098.82 276.557 1090.09 Q276.557 1081.34 279.612 1076.76 Q282.691 1072.15 288.501 1072.15 Z" fill="#000000" fill-rule="evenodd" fill-opacity="1" /><path clip-path="url(#clip420)" d="M779.755 1103.4 L796.074 1103.4 L796.074 1107.34 L774.13 1107.34 L774.13 1103.4 Q776.792 1100.65 781.375 1096.02 Q785.982 1091.36 787.162 1090.02 Q789.407 1087.5 790.287 1085.76 Q791.19 1084 791.19 1082.31 Q791.19 1079.56 789.245 1077.82 Q787.324 1076.09 784.222 1076.09 Q782.023 1076.09 779.57 1076.85 Q777.139 1077.62 774.361 1079.17 L774.361 1074.44 Q777.185 1073.31 779.639 1072.73 Q782.093 1072.15 784.13 1072.15 Q789.5 1072.15 792.694 1074.84 Q795.889 1077.52 795.889 1082.01 Q795.889 1084.14 795.079 1086.06 Q794.292 1087.96 792.185 1090.55 Q791.607 1091.23 788.505 1094.44 Q785.403 1097.64 779.755 1103.4 Z" fill="#000000" fill-rule="evenodd" fill-opacity="1" /><path clip-path="url(#clip420)" d="M815.889 1075.86 Q812.278 1075.86 810.449 1079.42 Q808.643 1082.96 808.643 1090.09 Q808.643 1097.2 810.449 1100.76 Q812.278 1104.3 815.889 1104.3 Q819.523 1104.3 821.329 1100.76 Q823.157 1097.2 823.157 1090.09 Q823.157 1082.96 821.329 1079.42 Q819.523 1075.86 815.889 1075.86 M815.889 1072.15 Q821.699 1072.15 824.755 1076.76 Q827.833 1081.34 827.833 1090.09 Q827.833 1098.82 824.755 1103.43 Q821.699 1108.01 815.889 1108.01 Q810.079 1108.01 807 1103.43 Q803.944 1098.82 803.944 1090.09 Q803.944 1081.34 807 1076.76 Q810.079 1072.15 815.889 1072.15 Z" fill="#000000" fill-rule="evenodd" fill-opacity="1" /><path clip-path="url(#clip420)" d="M1301.63 1076.85 L1289.83 1095.3 L1301.63 1095.3 L1301.63 1076.85 M1300.41 1072.78 L1306.29 1072.78 L1306.29 1095.3 L1311.22 1095.3 L1311.22 1099.19 L1306.29 1099.19 L1306.29 1107.34 L1301.63 1107.34 L1301.63 1099.19 L1286.03 1099.19 L1286.03 1094.68 L1300.41 1072.78 Z" fill="#000000" fill-rule="evenodd" fill-opacity="1" /><path clip-path="url(#clip420)" d="M1328.95 1075.86 Q1325.34 1075.86 1323.51 1079.42 Q1321.7 1082.96 1321.7 1090.09 Q1321.7 1097.2 1323.51 1100.76 Q1325.34 1104.3 1328.95 1104.3 Q1332.58 1104.3 1334.39 1100.76 Q1336.22 1097.2 1336.22 1090.09 Q1336.22 1082.96 1334.39 1079.42 Q1332.58 1075.86 1328.95 1075.86 M1328.95 1072.15 Q1334.76 1072.15 1337.81 1076.76 Q1340.89 1081.34 1340.89 1090.09 Q1340.89 1098.82 1337.81 1103.43 Q1334.76 1108.01 1328.95 1108.01 Q1323.14 1108.01 1320.06 1103.43 Q1317 1098.82 1317 1090.09 Q1317 1081.34 1320.06 1076.76 Q1323.14 1072.15 1328.95 1072.15 Z" fill="#000000" fill-rule="evenodd" fill-opacity="1" /><path clip-path="url(#clip420)" d="M1811.35 1088.19 Q1808.2 1088.19 1806.35 1090.35 Q1804.52 1092.5 1804.52 1096.25 Q1804.52 1099.98 1806.35 1102.15 Q1808.2 1104.3 1811.35 1104.3 Q1814.5 1104.3 1816.32 1102.15 Q1818.18 1099.98 1818.18 1096.25 Q1818.18 1092.5 1816.32 1090.35 Q1814.5 1088.19 1811.35 1088.19 M1820.63 1073.54 L1820.63 1077.8 Q1818.87 1076.97 1817.06 1076.53 Q1815.28 1076.09 1813.52 1076.09 Q1808.89 1076.09 1806.44 1079.21 Q1804.01 1082.34 1803.66 1088.66 Q1805.03 1086.64 1807.09 1085.58 Q1809.15 1084.49 1811.63 1084.49 Q1816.83 1084.49 1819.84 1087.66 Q1822.88 1090.81 1822.88 1096.25 Q1822.88 1101.57 1819.73 1104.79 Q1816.58 1108.01 1811.35 1108.01 Q1805.35 1108.01 1802.18 1103.43 Q1799.01 1098.82 1799.01 1090.09 Q1799.01 1081.9 1802.9 1077.04 Q1806.79 1072.15 1813.34 1072.15 Q1815.1 1072.15 1816.88 1072.5 Q1818.69 1072.85 1820.63 1073.54 Z" fill="#000000" fill-rule="evenodd" fill-opacity="1" /><path clip-path="url(#clip420)" d="M1840.93 1075.86 Q1837.32 1075.86 1835.49 1079.42 Q1833.69 1082.96 1833.69 1090.09 Q1833.69 1097.2 1835.49 1100.76 Q1837.32 1104.3 1840.93 1104.3 Q1844.56 1104.3 1846.37 1100.76 Q1848.2 1097.2 1848.2 1090.09 Q1848.2 1082.96 1846.37 1079.42 Q1844.56 1075.86 1840.93 1075.86 M1840.93 1072.15 Q1846.74 1072.15 1849.8 1076.76 Q1852.87 1081.34 1852.87 1090.09 Q1852.87 1098.82 1849.8 1103.43 Q1846.74 1108.01 1840.93 1108.01 Q1835.12 1108.01 1832.04 1103.43 Q1828.99 1098.82 1828.99 1090.09 Q1828.99 1081.34 1832.04 1076.76 Q1835.12 1072.15 1840.93 1072.15 Z" fill="#000000" fill-rule="evenodd" fill-opacity="1" /><path clip-path="url(#clip420)" d="M858.92 1147 L858.92 1183.96 L866.686 1183.96 Q876.521 1183.96 881.072 1179.5 Q885.655 1175.05 885.655 1165.43 Q885.655 1155.88 881.072 1151.46 Q876.521 1147 866.686 1147 L858.92 1147 M852.49 1141.72 L865.699 1141.72 Q879.513 1141.72 885.974 1147.48 Q892.435 1153.21 892.435 1165.43 Q892.435 1177.72 885.942 1183.48 Q879.449 1189.24 865.699 1189.24 L852.49 1189.24 L852.49 1141.72 Z" fill="#000000" fill-rule="evenodd" fill-opacity="1" /><path clip-path="url(#clip420)" d="M902.429 1153.59 L908.286 1153.59 L908.286 1189.24 L902.429 1189.24 L902.429 1153.59 M902.429 1139.72 L908.286 1139.72 L908.286 1147.13 L902.429 1147.13 L902.429 1139.72 Z" fill="#000000" fill-rule="evenodd" fill-opacity="1" /><path clip-path="url(#clip420)" d="M943.265 1154.64 L943.265 1160.18 Q940.782 1158.91 938.109 1158.27 Q935.435 1157.64 932.571 1157.64 Q928.21 1157.64 926.014 1158.97 Q923.85 1160.31 923.85 1162.98 Q923.85 1165.02 925.409 1166.2 Q926.969 1167.34 931.68 1168.39 L933.685 1168.84 Q939.923 1170.18 942.533 1172.63 Q945.175 1175.05 945.175 1179.41 Q945.175 1184.37 941.228 1187.27 Q937.313 1190.16 930.438 1190.16 Q927.574 1190.16 924.454 1189.59 Q921.367 1189.05 917.93 1187.94 L917.93 1181.89 Q921.176 1183.58 924.327 1184.43 Q927.478 1185.26 930.566 1185.26 Q934.703 1185.26 936.931 1183.86 Q939.159 1182.43 939.159 1179.85 Q939.159 1177.46 937.536 1176.19 Q935.945 1174.92 930.502 1173.74 L928.465 1173.26 Q923.022 1172.12 920.603 1169.76 Q918.184 1167.37 918.184 1163.24 Q918.184 1158.21 921.749 1155.47 Q925.314 1152.73 931.87 1152.73 Q935.117 1152.73 937.982 1153.21 Q940.846 1153.69 943.265 1154.64 Z" fill="#000000" fill-rule="evenodd" fill-opacity="1" /><path clip-path="url(#clip420)" d="M960.293 1143.47 L960.293 1153.59 L972.356 1153.59 L972.356 1158.14 L960.293 1158.14 L960.293 1177.5 Q960.293 1181.86 961.471 1183.1 Q962.681 1184.34 966.341 1184.34 L972.356 1184.34 L972.356 1189.24 L966.341 1189.24 Q959.561 1189.24 956.983 1186.73 Q954.405 1184.18 954.405 1177.5 L954.405 1158.14 L950.108 1158.14 L950.108 1153.59 L954.405 1153.59 L954.405 1143.47 L960.293 1143.47 Z" fill="#000000" fill-rule="evenodd" fill-opacity="1" /><path clip-path="url(#clip420)" d="M996.26 1171.32 Q989.162 1171.32 986.425 1172.94 Q983.687 1174.57 983.687 1178.48 Q983.687 1181.6 985.724 1183.45 Q987.793 1185.26 991.326 1185.26 Q996.196 1185.26 999.124 1181.83 Q1002.08 1178.36 1002.08 1172.63 L1002.08 1171.32 L996.26 1171.32 M1007.94 1168.9 L1007.94 1189.24 L1002.08 1189.24 L1002.08 1183.83 Q1000.08 1187.08 997.087 1188.64 Q994.095 1190.16 989.767 1190.16 Q984.292 1190.16 981.046 1187.11 Q977.831 1184.02 977.831 1178.86 Q977.831 1172.85 981.841 1169.79 Q985.884 1166.74 993.872 1166.74 L1002.08 1166.74 L1002.08 1166.17 Q1002.08 1162.12 999.411 1159.93 Q996.769 1157.7 991.963 1157.7 Q988.907 1157.7 986.011 1158.43 Q983.114 1159.16 980.441 1160.63 L980.441 1155.22 Q983.656 1153.98 986.679 1153.37 Q989.703 1152.73 992.568 1152.73 Q1000.3 1152.73 1004.12 1156.74 Q1007.94 1160.75 1007.94 1168.9 Z" fill="#000000" fill-rule="evenodd" fill-opacity="1" /><path clip-path="url(#clip420)" d="M1049.64 1167.72 L1049.64 1189.24 L1043.78 1189.24 L1043.78 1167.92 Q1043.78 1162.86 1041.81 1160.34 Q1039.83 1157.83 1035.89 1157.83 Q1031.14 1157.83 1028.41 1160.85 Q1025.67 1163.87 1025.67 1169.09 L1025.67 1189.24 L1019.78 1189.24 L1019.78 1153.59 L1025.67 1153.59 L1025.67 1159.13 Q1027.77 1155.92 1030.6 1154.33 Q1033.47 1152.73 1037.19 1152.73 Q1043.33 1152.73 1046.49 1156.55 Q1049.64 1160.34 1049.64 1167.72 Z" fill="#000000" fill-rule="evenodd" fill-opacity="1" /><path clip-path="url(#clip420)" d="M1086.97 1154.96 L1086.97 1160.44 Q1084.49 1159.07 1081.97 1158.4 Q1079.49 1157.7 1076.94 1157.7 Q1071.25 1157.7 1068.1 1161.33 Q1064.95 1164.92 1064.95 1171.45 Q1064.95 1177.97 1068.1 1181.6 Q1071.25 1185.2 1076.94 1185.2 Q1079.49 1185.2 1081.97 1184.53 Q1084.49 1183.83 1086.97 1182.46 L1086.97 1187.87 Q1084.52 1189.02 1081.88 1189.59 Q1079.27 1190.16 1076.31 1190.16 Q1068.26 1190.16 1063.51 1185.1 Q1058.77 1180.04 1058.77 1171.45 Q1058.77 1162.73 1063.55 1157.73 Q1068.35 1152.73 1076.69 1152.73 Q1079.4 1152.73 1081.97 1153.31 Q1084.55 1153.85 1086.97 1154.96 Z" fill="#000000" fill-rule="evenodd" fill-opacity="1" /><path clip-path="url(#clip420)" d="M1127.65 1169.95 L1127.65 1172.82 L1100.72 1172.82 Q1101.1 1178.86 1104.35 1182.05 Q1107.63 1185.2 1113.45 1185.2 Q1116.83 1185.2 1119.98 1184.37 Q1123.16 1183.54 1126.28 1181.89 L1126.28 1187.43 Q1123.13 1188.76 1119.82 1189.46 Q1116.51 1190.16 1113.1 1190.16 Q1104.57 1190.16 1099.58 1185.2 Q1094.61 1180.23 1094.61 1171.77 Q1094.61 1163.01 1099.32 1157.89 Q1104.06 1152.73 1112.08 1152.73 Q1119.28 1152.73 1123.45 1157.38 Q1127.65 1162 1127.65 1169.95 M1121.79 1168.23 Q1121.73 1163.43 1119.09 1160.56 Q1116.48 1157.7 1112.15 1157.7 Q1107.25 1157.7 1104.29 1160.47 Q1101.36 1163.24 1100.91 1168.27 L1121.79 1168.23 Z" fill="#000000" fill-rule="evenodd" fill-opacity="1" /><path clip-path="url(#clip420)" d="M1176.03 1139.72 L1176.03 1144.59 L1170.43 1144.59 Q1167.27 1144.59 1166.03 1145.86 Q1164.82 1147.13 1164.82 1150.44 L1164.82 1153.59 L1174.47 1153.59 L1174.47 1158.14 L1164.82 1158.14 L1164.82 1189.24 L1158.94 1189.24 L1158.94 1158.14 L1153.33 1158.14 L1153.33 1153.59 L1158.94 1153.59 L1158.94 1151.11 Q1158.94 1145.16 1161.7 1142.45 Q1164.47 1139.72 1170.49 1139.72 L1176.03 1139.72 Z" fill="#000000" fill-rule="evenodd" fill-opacity="1" /><path clip-path="url(#clip420)" d="M1201.59 1159.07 Q1200.6 1158.49 1199.42 1158.24 Q1198.28 1157.95 1196.87 1157.95 Q1191.91 1157.95 1189.24 1161.2 Q1186.59 1164.41 1186.59 1170.46 L1186.59 1189.24 L1180.71 1189.24 L1180.71 1153.59 L1186.59 1153.59 L1186.59 1159.13 Q1188.44 1155.88 1191.4 1154.33 Q1194.36 1152.73 1198.59 1152.73 Q1199.2 1152.73 1199.93 1152.83 Q1200.66 1152.89 1201.55 1153.05 L1201.59 1159.07 Z" fill="#000000" fill-rule="evenodd" fill-opacity="1" /><path clip-path="url(#clip420)" d="M1220.11 1157.7 Q1215.4 1157.7 1212.66 1161.39 Q1209.92 1165.05 1209.92 1171.45 Q1209.92 1177.85 1212.63 1181.54 Q1215.37 1185.2 1220.11 1185.2 Q1224.79 1185.2 1227.53 1181.51 Q1230.26 1177.81 1230.26 1171.45 Q1230.26 1165.12 1227.53 1161.42 Q1224.79 1157.7 1220.11 1157.7 M1220.11 1152.73 Q1227.75 1152.73 1232.11 1157.7 Q1236.47 1162.66 1236.47 1171.45 Q1236.47 1180.2 1232.11 1185.2 Q1227.75 1190.16 1220.11 1190.16 Q1212.44 1190.16 1208.08 1185.2 Q1203.75 1180.2 1203.75 1171.45 Q1203.75 1162.66 1208.08 1157.7 Q1212.44 1152.73 1220.11 1152.73 Z" fill="#000000" fill-rule="evenodd" fill-opacity="1" /><path clip-path="url(#clip420)" d="M1273.93 1160.44 Q1276.13 1156.49 1279.18 1154.61 Q1282.24 1152.73 1286.38 1152.73 Q1291.95 1152.73 1294.97 1156.65 Q1297.99 1160.53 1297.99 1167.72 L1297.99 1189.24 L1292.11 1189.24 L1292.11 1167.92 Q1292.11 1162.79 1290.29 1160.31 Q1288.48 1157.83 1284.75 1157.83 Q1280.2 1157.83 1277.56 1160.85 Q1274.92 1163.87 1274.92 1169.09 L1274.92 1189.24 L1269.03 1189.24 L1269.03 1167.92 Q1269.03 1162.76 1267.22 1160.31 Q1265.4 1157.83 1261.61 1157.83 Q1257.13 1157.83 1254.48 1160.88 Q1251.84 1163.91 1251.84 1169.09 L1251.84 1189.24 L1245.95 1189.24 L1245.95 1153.59 L1251.84 1153.59 L1251.84 1159.13 Q1253.85 1155.85 1256.65 1154.29 Q1259.45 1152.73 1263.3 1152.73 Q1267.18 1152.73 1269.89 1154.71 Q1272.63 1156.68 1273.93 1160.44 Z" fill="#000000" fill-rule="evenodd" fill-opacity="1" /><path clip-path="url(#clip420)" d="M1360.03 1167.72 L1360.03 1189.24 L1354.17 1189.24 L1354.17 1167.92 Q1354.17 1162.86 1352.2 1160.34 Q1350.22 1157.83 1346.28 1157.83 Q1341.54 1157.83 1338.8 1160.85 Q1336.06 1163.87 1336.06 1169.09 L1336.06 1189.24 L1330.17 1189.24 L1330.17 1139.72 L1336.06 1139.72 L1336.06 1159.13 Q1338.16 1155.92 1340.99 1154.33 Q1343.86 1152.73 1347.58 1152.73 Q1353.73 1152.73 1356.88 1156.55 Q1360.03 1160.34 1360.03 1167.72 Z" fill="#000000" fill-rule="evenodd" fill-opacity="1" /><path clip-path="url(#clip420)" d="M1385.52 1157.7 Q1380.81 1157.7 1378.07 1161.39 Q1375.34 1165.05 1375.34 1171.45 Q1375.34 1177.85 1378.04 1181.54 Q1380.78 1185.2 1385.52 1185.2 Q1390.2 1185.2 1392.94 1181.51 Q1395.68 1177.81 1395.68 1171.45 Q1395.68 1165.12 1392.94 1161.42 Q1390.2 1157.7 1385.52 1157.7 M1385.52 1152.73 Q1393.16 1152.73 1397.52 1157.7 Q1401.88 1162.66 1401.88 1171.45 Q1401.88 1180.2 1397.52 1185.2 Q1393.16 1190.16 1385.52 1190.16 Q1377.85 1190.16 1373.49 1185.2 Q1369.16 1180.2 1369.16 1171.45 Q1369.16 1162.66 1373.49 1157.7 Q1377.85 1152.73 1385.52 1152.73 Z" fill="#000000" fill-rule="evenodd" fill-opacity="1" /><path clip-path="url(#clip420)" d="M1411.59 1139.72 L1417.45 1139.72 L1417.45 1189.24 L1411.59 1189.24 L1411.59 1139.72 Z" fill="#000000" fill-rule="evenodd" fill-opacity="1" /><path clip-path="url(#clip420)" d="M1460.19 1169.95 L1460.19 1172.82 L1433.27 1172.82 Q1433.65 1178.86 1436.89 1182.05 Q1440.17 1185.2 1446 1185.2 Q1449.37 1185.2 1452.52 1184.37 Q1455.7 1183.54 1458.82 1181.89 L1458.82 1187.43 Q1455.67 1188.76 1452.36 1189.46 Q1449.05 1190.16 1445.65 1190.16 Q1437.12 1190.16 1432.12 1185.2 Q1427.15 1180.23 1427.15 1171.77 Q1427.15 1163.01 1431.86 1157.89 Q1436.61 1152.73 1444.63 1152.73 Q1451.82 1152.73 1455.99 1157.38 Q1460.19 1162 1460.19 1169.95 M1454.34 1168.23 Q1454.27 1163.43 1451.63 1160.56 Q1449.02 1157.7 1444.69 1157.7 Q1439.79 1157.7 1436.83 1160.47 Q1433.9 1163.24 1433.46 1168.27 L1454.34 1168.23 Z" fill="#000000" fill-rule="evenodd" fill-opacity="1" /><path clip-path="url(#clip420)" d="M1504.59 1139.78 Q1500.33 1147.1 1498.26 1154.26 Q1496.19 1161.42 1496.19 1168.78 Q1496.19 1176.13 1498.26 1183.35 Q1500.36 1190.55 1504.59 1197.83 L1499.5 1197.83 Q1494.73 1190.36 1492.34 1183.13 Q1489.98 1175.9 1489.98 1168.78 Q1489.98 1161.68 1492.34 1154.48 Q1494.69 1147.29 1499.5 1139.78 L1504.59 1139.78 Z" fill="#000000" fill-rule="evenodd" fill-opacity="1" /><path clip-path="url(#clip420)" d="M1534 1139.72 L1534 1144.59 L1528.4 1144.59 Q1525.25 1144.59 1524.01 1145.86 Q1522.8 1147.13 1522.8 1150.44 L1522.8 1153.59 L1532.44 1153.59 L1532.44 1158.14 L1522.8 1158.14 L1522.8 1189.24 L1516.91 1189.24 L1516.91 1158.14 L1511.31 1158.14 L1511.31 1153.59 L1516.91 1153.59 L1516.91 1151.11 Q1516.91 1145.16 1519.68 1142.45 Q1522.45 1139.72 1528.46 1139.72 L1534 1139.72 Z" fill="#000000" fill-rule="evenodd" fill-opacity="1" /><path clip-path="url(#clip420)" d="M1569.4 1169.95 L1569.4 1172.82 L1542.47 1172.82 Q1542.85 1178.86 1546.1 1182.05 Q1549.38 1185.2 1555.2 1185.2 Q1558.57 1185.2 1561.73 1184.37 Q1564.91 1183.54 1568.03 1181.89 L1568.03 1187.43 Q1564.88 1188.76 1561.57 1189.46 Q1558.26 1190.16 1554.85 1190.16 Q1546.32 1190.16 1541.32 1185.2 Q1536.36 1180.23 1536.36 1171.77 Q1536.36 1163.01 1541.07 1157.89 Q1545.81 1152.73 1553.83 1152.73 Q1561.03 1152.73 1565.19 1157.38 Q1569.4 1162 1569.4 1169.95 M1563.54 1168.23 Q1563.48 1163.43 1560.83 1160.56 Q1558.22 1157.7 1553.9 1157.7 Q1548.99 1157.7 1546.03 1160.47 Q1543.11 1163.24 1542.66 1168.27 L1563.54 1168.23 Z" fill="#000000" fill-rule="evenodd" fill-opacity="1" /><path clip-path="url(#clip420)" d="M1609.5 1169.95 L1609.5 1172.82 L1582.57 1172.82 Q1582.95 1178.86 1586.2 1182.05 Q1589.48 1185.2 1595.3 1185.2 Q1598.68 1185.2 1601.83 1184.37 Q1605.01 1183.54 1608.13 1181.89 L1608.13 1187.43 Q1604.98 1188.76 1601.67 1189.46 Q1598.36 1190.16 1594.95 1190.16 Q1586.42 1190.16 1581.43 1185.2 Q1576.46 1180.23 1576.46 1171.77 Q1576.46 1163.01 1581.17 1157.89 Q1585.92 1152.73 1593.94 1152.73 Q1601.13 1152.73 1605.3 1157.38 Q1609.5 1162 1609.5 1169.95 M1603.64 1168.23 Q1603.58 1163.43 1600.94 1160.56 Q1598.33 1157.7 1594 1157.7 Q1589.1 1157.7 1586.14 1160.47 Q1583.21 1163.24 1582.76 1168.27 L1603.64 1168.23 Z" fill="#000000" fill-rule="evenodd" fill-opacity="1" /><path clip-path="url(#clip420)" d="M1624.9 1143.47 L1624.9 1153.59 L1636.97 1153.59 L1636.97 1158.14 L1624.9 1158.14 L1624.9 1177.5 Q1624.9 1181.86 1626.08 1183.1 Q1627.29 1184.34 1630.95 1184.34 L1636.97 1184.34 L1636.97 1189.24 L1630.95 1189.24 Q1624.17 1189.24 1621.59 1186.73 Q1619.02 1184.18 1619.02 1177.5 L1619.02 1158.14 L1614.72 1158.14 L1614.72 1153.59 L1619.02 1153.59 L1619.02 1143.47 L1624.9 1143.47 Z" fill="#000000" fill-rule="evenodd" fill-opacity="1" /><path clip-path="url(#clip420)" d="M1643.75 1139.78 L1648.84 1139.78 Q1653.61 1147.29 1655.97 1154.48 Q1658.36 1161.68 1658.36 1168.78 Q1658.36 1175.9 1655.97 1183.13 Q1653.61 1190.36 1648.84 1197.83 L1643.75 1197.83 Q1647.98 1190.55 1650.05 1183.35 Q1652.15 1176.13 1652.15 1168.78 Q1652.15 1161.42 1650.05 1154.26 Q1647.98 1147.1 1643.75 1139.78 Z" fill="#000000" fill-rule="evenodd" fill-opacity="1" /><polyline clip-path="url(#clip422)" style="stroke:#000000; stroke-linecap:butt; stroke-linejoin:round; stroke-width:2; stroke-opacity:0.1; fill:none" points="
  238.091,1027.5 2272.76,1027.5 
  "/>
<polyline clip-path="url(#clip422)" style="stroke:#000000; stroke-linecap:butt; stroke-linejoin:round; stroke-width:2; stroke-opacity:0.1; fill:none" points="
  238.091,804.725 2272.76,804.725 
  "/>
<polyline clip-path="url(#clip422)" style="stroke:#000000; stroke-linecap:butt; stroke-linejoin:round; stroke-width:2; stroke-opacity:0.1; fill:none" points="
  238.091,581.949 2272.76,581.949 
  "/>
<polyline clip-path="url(#clip422)" style="stroke:#000000; stroke-linecap:butt; stroke-linejoin:round; stroke-width:2; stroke-opacity:0.1; fill:none" points="
  238.091,359.173 2272.76,359.173 
  "/>
<polyline clip-path="url(#clip422)" style="stroke:#000000; stroke-linecap:butt; stroke-linejoin:round; stroke-width:2; stroke-opacity:0.1; fill:none" points="
  238.091,136.397 2272.76,136.397 
  "/>
<polyline clip-path="url(#clip420)" style="stroke:#000000; stroke-linecap:butt; stroke-linejoin:round; stroke-width:4; stroke-opacity:1; fill:none" points="
  238.091,1045.58 238.091,109.916 
  "/>
<polyline clip-path="url(#clip420)" style="stroke:#000000; stroke-linecap:butt; stroke-linejoin:round; stroke-width:4; stroke-opacity:1; fill:none" points="
  238.091,1027.5 256.989,1027.5 
  "/>
<polyline clip-path="url(#clip420)" style="stroke:#000000; stroke-linecap:butt; stroke-linejoin:round; stroke-width:4; stroke-opacity:1; fill:none" points="
  238.091,804.725 256.989,804.725 
  "/>
<polyline clip-path="url(#clip420)" style="stroke:#000000; stroke-linecap:butt; stroke-linejoin:round; stroke-width:4; stroke-opacity:1; fill:none" points="
  238.091,581.949 256.989,581.949 
  "/>
<polyline clip-path="url(#clip420)" style="stroke:#000000; stroke-linecap:butt; stroke-linejoin:round; stroke-width:4; stroke-opacity:1; fill:none" points="
  238.091,359.173 256.989,359.173 
  "/>
<polyline clip-path="url(#clip420)" style="stroke:#000000; stroke-linecap:butt; stroke-linejoin:round; stroke-width:4; stroke-opacity:1; fill:none" points="
  238.091,136.397 256.989,136.397 
  "/>
<path clip-path="url(#clip420)" d="M115.954 1013.3 Q112.342 1013.3 110.514 1016.86 Q108.708 1020.41 108.708 1027.54 Q108.708 1034.64 110.514 1038.21 Q112.342 1041.75 115.954 1041.75 Q119.588 1041.75 121.393 1038.21 Q123.222 1034.64 123.222 1027.54 Q123.222 1020.41 121.393 1016.86 Q119.588 1013.3 115.954 1013.3 M115.954 1009.6 Q121.764 1009.6 124.819 1014.2 Q127.898 1018.79 127.898 1027.54 Q127.898 1036.26 124.819 1040.87 Q121.764 1045.45 115.954 1045.45 Q110.143 1045.45 107.065 1040.87 Q104.009 1036.26 104.009 1027.54 Q104.009 1018.79 107.065 1014.2 Q110.143 1009.6 115.954 1009.6 Z" fill="#000000" fill-rule="evenodd" fill-opacity="1" /><path clip-path="url(#clip420)" d="M136.115 1038.9 L141 1038.9 L141 1044.78 L136.115 1044.78 L136.115 1038.9 Z" fill="#000000" fill-rule="evenodd" fill-opacity="1" /><path clip-path="url(#clip420)" d="M161.185 1013.3 Q157.574 1013.3 155.745 1016.86 Q153.939 1020.41 153.939 1027.54 Q153.939 1034.64 155.745 1038.21 Q157.574 1041.75 161.185 1041.75 Q164.819 1041.75 166.625 1038.21 Q168.453 1034.64 168.453 1027.54 Q168.453 1020.41 166.625 1016.86 Q164.819 1013.3 161.185 1013.3 M161.185 1009.6 Q166.995 1009.6 170.05 1014.2 Q173.129 1018.79 173.129 1027.54 Q173.129 1036.26 170.05 1040.87 Q166.995 1045.45 161.185 1045.45 Q155.375 1045.45 152.296 1040.87 Q149.24 1036.26 149.24 1027.54 Q149.24 1018.79 152.296 1014.2 Q155.375 1009.6 161.185 1009.6 Z" fill="#000000" fill-rule="evenodd" fill-opacity="1" /><path clip-path="url(#clip420)" d="M191.347 1013.3 Q187.736 1013.3 185.907 1016.86 Q184.101 1020.41 184.101 1027.54 Q184.101 1034.64 185.907 1038.21 Q187.736 1041.75 191.347 1041.75 Q194.981 1041.75 196.786 1038.21 Q198.615 1034.64 198.615 1027.54 Q198.615 1020.41 196.786 1016.86 Q194.981 1013.3 191.347 1013.3 M191.347 1009.6 Q197.157 1009.6 200.212 1014.2 Q203.291 1018.79 203.291 1027.54 Q203.291 1036.26 200.212 1040.87 Q197.157 1045.45 191.347 1045.45 Q185.536 1045.45 182.458 1040.87 Q179.402 1036.26 179.402 1027.54 Q179.402 1018.79 182.458 1014.2 Q185.536 1009.6 191.347 1009.6 Z" fill="#000000" fill-rule="evenodd" fill-opacity="1" /><path clip-path="url(#clip420)" d="M116.949 790.524 Q113.338 790.524 111.509 794.089 Q109.704 797.63 109.704 804.76 Q109.704 811.866 111.509 815.431 Q113.338 818.973 116.949 818.973 Q120.583 818.973 122.389 815.431 Q124.217 811.866 124.217 804.76 Q124.217 797.63 122.389 794.089 Q120.583 790.524 116.949 790.524 M116.949 786.82 Q122.759 786.82 125.815 791.427 Q128.893 796.01 128.893 804.76 Q128.893 813.487 125.815 818.093 Q122.759 822.677 116.949 822.677 Q111.139 822.677 108.06 818.093 Q105.004 813.487 105.004 804.76 Q105.004 796.01 108.06 791.427 Q111.139 786.82 116.949 786.82 Z" fill="#000000" fill-rule="evenodd" fill-opacity="1" /><path clip-path="url(#clip420)" d="M137.111 816.126 L141.995 816.126 L141.995 822.005 L137.111 822.005 L137.111 816.126 Z" fill="#000000" fill-rule="evenodd" fill-opacity="1" /><path clip-path="url(#clip420)" d="M156.208 818.07 L172.527 818.07 L172.527 822.005 L150.583 822.005 L150.583 818.07 Q153.245 815.315 157.828 810.686 Q162.435 806.033 163.615 804.691 Q165.861 802.167 166.74 800.431 Q167.643 798.672 167.643 796.982 Q167.643 794.228 165.699 792.492 Q163.777 790.755 160.675 790.755 Q158.476 790.755 156.023 791.519 Q153.592 792.283 150.814 793.834 L150.814 789.112 Q153.638 787.978 156.092 787.399 Q158.546 786.82 160.583 786.82 Q165.953 786.82 169.148 789.505 Q172.342 792.191 172.342 796.681 Q172.342 798.811 171.532 800.732 Q170.745 802.63 168.638 805.223 Q168.06 805.894 164.958 809.112 Q161.856 812.306 156.208 818.07 Z" fill="#000000" fill-rule="evenodd" fill-opacity="1" /><path clip-path="url(#clip420)" d="M182.388 787.445 L200.745 787.445 L200.745 791.38 L186.671 791.38 L186.671 799.853 Q187.689 799.505 188.708 799.343 Q189.726 799.158 190.745 799.158 Q196.532 799.158 199.911 802.329 Q203.291 805.501 203.291 810.917 Q203.291 816.496 199.819 819.598 Q196.347 822.677 190.027 822.677 Q187.851 822.677 185.583 822.306 Q183.337 821.936 180.93 821.195 L180.93 816.496 Q183.013 817.63 185.236 818.186 Q187.458 818.741 189.935 818.741 Q193.939 818.741 196.277 816.635 Q198.615 814.528 198.615 810.917 Q198.615 807.306 196.277 805.2 Q193.939 803.093 189.935 803.093 Q188.06 803.093 186.185 803.51 Q184.333 803.927 182.388 804.806 L182.388 787.445 Z" fill="#000000" fill-rule="evenodd" fill-opacity="1" /><path clip-path="url(#clip420)" d="M115.954 567.748 Q112.342 567.748 110.514 571.313 Q108.708 574.854 108.708 581.984 Q108.708 589.09 110.514 592.655 Q112.342 596.197 115.954 596.197 Q119.588 596.197 121.393 592.655 Q123.222 589.09 123.222 581.984 Q123.222 574.854 121.393 571.313 Q119.588 567.748 115.954 567.748 M115.954 564.044 Q121.764 564.044 124.819 568.651 Q127.898 573.234 127.898 581.984 Q127.898 590.711 124.819 595.317 Q121.764 599.901 115.954 599.901 Q110.143 599.901 107.065 595.317 Q104.009 590.711 104.009 581.984 Q104.009 573.234 107.065 568.651 Q110.143 564.044 115.954 564.044 Z" fill="#000000" fill-rule="evenodd" fill-opacity="1" /><path clip-path="url(#clip420)" d="M136.115 593.35 L141 593.35 L141 599.229 L136.115 599.229 L136.115 593.35 Z" fill="#000000" fill-rule="evenodd" fill-opacity="1" /><path clip-path="url(#clip420)" d="M151.231 564.669 L169.587 564.669 L169.587 568.604 L155.513 568.604 L155.513 577.077 Q156.532 576.729 157.551 576.567 Q158.569 576.382 159.588 576.382 Q165.375 576.382 168.754 579.553 Q172.134 582.725 172.134 588.141 Q172.134 593.72 168.662 596.822 Q165.189 599.901 158.87 599.901 Q156.694 599.901 154.426 599.53 Q152.18 599.16 149.773 598.419 L149.773 593.72 Q151.856 594.854 154.078 595.41 Q156.301 595.965 158.777 595.965 Q162.782 595.965 165.12 593.859 Q167.458 591.752 167.458 588.141 Q167.458 584.53 165.12 582.424 Q162.782 580.317 158.777 580.317 Q156.902 580.317 155.027 580.734 Q153.176 581.151 151.231 582.03 L151.231 564.669 Z" fill="#000000" fill-rule="evenodd" fill-opacity="1" /><path clip-path="url(#clip420)" d="M191.347 567.748 Q187.736 567.748 185.907 571.313 Q184.101 574.854 184.101 581.984 Q184.101 589.09 185.907 592.655 Q187.736 596.197 191.347 596.197 Q194.981 596.197 196.786 592.655 Q198.615 589.09 198.615 581.984 Q198.615 574.854 196.786 571.313 Q194.981 567.748 191.347 567.748 M191.347 564.044 Q197.157 564.044 200.212 568.651 Q203.291 573.234 203.291 581.984 Q203.291 590.711 200.212 595.317 Q197.157 599.901 191.347 599.901 Q185.536 599.901 182.458 595.317 Q179.402 590.711 179.402 581.984 Q179.402 573.234 182.458 568.651 Q185.536 564.044 191.347 564.044 Z" fill="#000000" fill-rule="evenodd" fill-opacity="1" /><path clip-path="url(#clip420)" d="M116.949 344.972 Q113.338 344.972 111.509 348.537 Q109.704 352.078 109.704 359.208 Q109.704 366.314 111.509 369.879 Q113.338 373.421 116.949 373.421 Q120.583 373.421 122.389 369.879 Q124.217 366.314 124.217 359.208 Q124.217 352.078 122.389 348.537 Q120.583 344.972 116.949 344.972 M116.949 341.268 Q122.759 341.268 125.815 345.875 Q128.893 350.458 128.893 359.208 Q128.893 367.935 125.815 372.541 Q122.759 377.125 116.949 377.125 Q111.139 377.125 108.06 372.541 Q105.004 367.935 105.004 359.208 Q105.004 350.458 108.06 345.875 Q111.139 341.268 116.949 341.268 Z" fill="#000000" fill-rule="evenodd" fill-opacity="1" /><path clip-path="url(#clip420)" d="M137.111 370.574 L141.995 370.574 L141.995 376.453 L137.111 376.453 L137.111 370.574 Z" fill="#000000" fill-rule="evenodd" fill-opacity="1" /><path clip-path="url(#clip420)" d="M151 341.893 L173.222 341.893 L173.222 343.884 L160.675 376.453 L155.791 376.453 L167.597 345.828 L151 345.828 L151 341.893 Z" fill="#000000" fill-rule="evenodd" fill-opacity="1" /><path clip-path="url(#clip420)" d="M182.388 341.893 L200.745 341.893 L200.745 345.828 L186.671 345.828 L186.671 354.301 Q187.689 353.953 188.708 353.791 Q189.726 353.606 190.745 353.606 Q196.532 353.606 199.911 356.777 Q203.291 359.949 203.291 365.365 Q203.291 370.944 199.819 374.046 Q196.347 377.125 190.027 377.125 Q187.851 377.125 185.583 376.754 Q183.337 376.384 180.93 375.643 L180.93 370.944 Q183.013 372.078 185.236 372.634 Q187.458 373.189 189.935 373.189 Q193.939 373.189 196.277 371.083 Q198.615 368.976 198.615 365.365 Q198.615 361.754 196.277 359.648 Q193.939 357.541 189.935 357.541 Q188.06 357.541 186.185 357.958 Q184.333 358.375 182.388 359.254 L182.388 341.893 Z" fill="#000000" fill-rule="evenodd" fill-opacity="1" /><path clip-path="url(#clip420)" d="M106.764 149.742 L114.403 149.742 L114.403 123.376 L106.092 125.043 L106.092 120.784 L114.356 119.117 L119.032 119.117 L119.032 149.742 L126.671 149.742 L126.671 153.677 L106.764 153.677 L106.764 149.742 Z" fill="#000000" fill-rule="evenodd" fill-opacity="1" /><path clip-path="url(#clip420)" d="M136.115 147.798 L141 147.798 L141 153.677 L136.115 153.677 L136.115 147.798 Z" fill="#000000" fill-rule="evenodd" fill-opacity="1" /><path clip-path="url(#clip420)" d="M161.185 122.196 Q157.574 122.196 155.745 125.761 Q153.939 129.302 153.939 136.432 Q153.939 143.538 155.745 147.103 Q157.574 150.645 161.185 150.645 Q164.819 150.645 166.625 147.103 Q168.453 143.538 168.453 136.432 Q168.453 129.302 166.625 125.761 Q164.819 122.196 161.185 122.196 M161.185 118.492 Q166.995 118.492 170.05 123.099 Q173.129 127.682 173.129 136.432 Q173.129 145.159 170.05 149.765 Q166.995 154.349 161.185 154.349 Q155.375 154.349 152.296 149.765 Q149.24 145.159 149.24 136.432 Q149.24 127.682 152.296 123.099 Q155.375 118.492 161.185 118.492 Z" fill="#000000" fill-rule="evenodd" fill-opacity="1" /><path clip-path="url(#clip420)" d="M191.347 122.196 Q187.736 122.196 185.907 125.761 Q184.101 129.302 184.101 136.432 Q184.101 143.538 185.907 147.103 Q187.736 150.645 191.347 150.645 Q194.981 150.645 196.786 147.103 Q198.615 143.538 198.615 136.432 Q198.615 129.302 196.786 125.761 Q194.981 122.196 191.347 122.196 M191.347 118.492 Q197.157 118.492 200.212 123.099 Q203.291 127.682 203.291 136.432 Q203.291 145.159 200.212 149.765 Q197.157 154.349 191.347 154.349 Q185.536 154.349 182.458 149.765 Q179.402 145.159 179.402 136.432 Q179.402 127.682 182.458 123.099 Q185.536 118.492 191.347 118.492 Z" fill="#000000" fill-rule="evenodd" fill-opacity="1" /><path clip-path="url(#clip420)" d="M12.7167 918.439 L30.5725 918.439 L30.5725 910.355 Q30.5725 905.867 28.249 903.416 Q25.9255 900.965 21.6286 900.965 Q17.3636 900.965 15.0401 903.416 Q12.7167 905.867 12.7167 910.355 L12.7167 918.439 M7.43312 924.869 L7.43312 910.355 Q7.43312 902.366 11.0616 898.292 Q14.6582 894.186 21.6286 894.186 Q28.6628 894.186 32.2594 898.292 Q35.856 902.366 35.856 910.355 L35.856 918.439 L54.9531 918.439 L54.9531 924.869 L7.43312 924.869 Z" fill="#000000" fill-rule="evenodd" fill-opacity="1" /><path clip-path="url(#clip420)" d="M24.7797 866.304 Q24.2068 867.291 23.9521 868.468 Q23.6657 869.614 23.6657 871.015 Q23.6657 875.98 26.9122 878.654 Q30.1269 881.295 36.1743 881.295 L54.9531 881.295 L54.9531 887.184 L19.3052 887.184 L19.3052 881.295 L24.8433 881.295 Q21.5968 879.449 20.0372 876.489 Q18.4458 873.529 18.4458 869.296 Q18.4458 868.691 18.5413 867.959 Q18.6049 867.227 18.7641 866.336 L24.7797 866.304 Z" fill="#000000" fill-rule="evenodd" fill-opacity="1" /><path clip-path="url(#clip420)" d="M23.411 847.78 Q23.411 852.491 27.1032 855.228 Q30.7634 857.965 37.161 857.965 Q43.5585 857.965 47.2506 855.26 Q50.9109 852.522 50.9109 847.78 Q50.9109 843.101 47.2188 840.364 Q43.5267 837.627 37.161 837.627 Q30.8271 837.627 27.135 840.364 Q23.411 843.101 23.411 847.78 M18.4458 847.78 Q18.4458 840.141 23.411 835.781 Q28.3763 831.42 37.161 831.42 Q45.9138 831.42 50.9109 835.781 Q55.8762 840.141 55.8762 847.78 Q55.8762 855.451 50.9109 859.811 Q45.9138 864.14 37.161 864.14 Q28.3763 864.14 23.411 859.811 Q18.4458 855.451 18.4458 847.78 Z" fill="#000000" fill-rule="evenodd" fill-opacity="1" /><path clip-path="url(#clip420)" d="M37.161 796.122 Q30.6998 796.122 27.0395 798.796 Q23.3474 801.438 23.3474 806.085 Q23.3474 810.732 27.0395 813.405 Q30.6998 816.047 37.161 816.047 Q43.6222 816.047 47.3143 813.405 Q50.9746 810.732 50.9746 806.085 Q50.9746 801.438 47.3143 798.796 Q43.6222 796.122 37.161 796.122 M24.716 816.047 Q21.5332 814.201 20.0054 811.4 Q18.4458 808.567 18.4458 804.652 Q18.4458 798.159 23.602 794.117 Q28.7582 790.043 37.161 790.043 Q45.5637 790.043 50.7199 794.117 Q55.8762 798.159 55.8762 804.652 Q55.8762 808.567 54.3484 811.4 Q52.7888 814.201 49.6059 816.047 L54.9531 816.047 L54.9531 821.935 L5.42793 821.935 L5.42793 816.047 L24.716 816.047 Z" fill="#000000" fill-rule="evenodd" fill-opacity="1" /><path clip-path="url(#clip420)" d="M37.0337 764.135 Q37.0337 771.232 38.6569 773.97 Q40.2802 776.707 44.1951 776.707 Q47.3143 776.707 49.1603 774.67 Q50.9746 772.601 50.9746 769.068 Q50.9746 764.198 47.5371 761.27 Q44.0678 758.31 38.3386 758.31 L37.0337 758.31 L37.0337 764.135 M34.6147 752.453 L54.9531 752.453 L54.9531 758.31 L49.5423 758.31 Q52.7888 760.315 54.3484 763.307 Q55.8762 766.299 55.8762 770.628 Q55.8762 776.102 52.8206 779.349 Q49.7332 782.563 44.577 782.563 Q38.5614 782.563 35.5059 778.553 Q32.4504 774.511 32.4504 766.522 L32.4504 758.31 L31.8774 758.31 Q27.8352 758.31 25.639 760.984 Q23.411 763.625 23.411 768.431 Q23.411 771.487 24.1431 774.383 Q24.8752 777.28 26.3393 779.953 L20.9284 779.953 Q19.6871 776.739 19.0824 773.715 Q18.4458 770.691 18.4458 767.827 Q18.4458 760.092 22.4562 756.273 Q26.4666 752.453 34.6147 752.453 Z" fill="#000000" fill-rule="evenodd" fill-opacity="1" /><path clip-path="url(#clip420)" d="M37.161 714.8 Q30.6998 714.8 27.0395 717.474 Q23.3474 720.116 23.3474 724.763 Q23.3474 729.41 27.0395 732.083 Q30.6998 734.725 37.161 734.725 Q43.6222 734.725 47.3143 732.083 Q50.9746 729.41 50.9746 724.763 Q50.9746 720.116 47.3143 717.474 Q43.6222 714.8 37.161 714.8 M24.716 734.725 Q21.5332 732.879 20.0054 730.078 Q18.4458 727.245 18.4458 723.33 Q18.4458 716.837 23.602 712.795 Q28.7582 708.721 37.161 708.721 Q45.5637 708.721 50.7199 712.795 Q55.8762 716.837 55.8762 723.33 Q55.8762 727.245 54.3484 730.078 Q52.7888 732.879 49.6059 734.725 L54.9531 734.725 L54.9531 740.613 L5.42793 740.613 L5.42793 734.725 L24.716 734.725 Z" fill="#000000" fill-rule="evenodd" fill-opacity="1" /><path clip-path="url(#clip420)" d="M19.3052 699.013 L19.3052 693.157 L54.9531 693.157 L54.9531 699.013 L19.3052 699.013 M5.42793 699.013 L5.42793 693.157 L12.844 693.157 L12.844 699.013 L5.42793 699.013 Z" fill="#000000" fill-rule="evenodd" fill-opacity="1" /><path clip-path="url(#clip420)" d="M5.42793 680.903 L5.42793 675.046 L54.9531 675.046 L54.9531 680.903 L5.42793 680.903 Z" fill="#000000" fill-rule="evenodd" fill-opacity="1" /><path clip-path="url(#clip420)" d="M19.3052 662.793 L19.3052 656.936 L54.9531 656.936 L54.9531 662.793 L19.3052 662.793 M5.42793 662.793 L5.42793 656.936 L12.844 656.936 L12.844 662.793 L5.42793 662.793 Z" fill="#000000" fill-rule="evenodd" fill-opacity="1" /><path clip-path="url(#clip420)" d="M9.18369 638.889 L19.3052 638.889 L19.3052 626.826 L23.8566 626.826 L23.8566 638.889 L43.2084 638.889 Q47.5689 638.889 48.8102 637.712 Q50.0515 636.502 50.0515 632.842 L50.0515 626.826 L54.9531 626.826 L54.9531 632.842 Q54.9531 639.621 52.4387 642.199 Q49.8924 644.778 43.2084 644.778 L23.8566 644.778 L23.8566 649.074 L19.3052 649.074 L19.3052 644.778 L9.18369 644.778 L9.18369 638.889 Z" fill="#000000" fill-rule="evenodd" fill-opacity="1" /><path clip-path="url(#clip420)" d="M58.2633 604.292 Q64.629 606.774 66.5705 609.13 Q68.5121 611.485 68.5121 615.432 L68.5121 620.11 L63.6105 620.11 L63.6105 616.673 Q63.6105 614.254 62.4647 612.917 Q61.3188 611.58 57.0538 609.957 L54.3802 608.907 L19.3052 623.325 L19.3052 617.119 L47.187 605.979 L19.3052 594.839 L19.3052 588.632 L58.2633 604.292 Z" fill="#000000" fill-rule="evenodd" fill-opacity="1" /><path clip-path="url(#clip420)" d="M23.411 546.014 Q23.411 550.724 27.1032 553.462 Q30.7634 556.199 37.161 556.199 Q43.5585 556.199 47.2506 553.493 Q50.9109 550.756 50.9109 546.014 Q50.9109 541.335 47.2188 538.598 Q43.5267 535.86 37.161 535.86 Q30.8271 535.86 27.135 538.598 Q23.411 541.335 23.411 546.014 M18.4458 546.014 Q18.4458 538.375 23.411 534.014 Q28.3763 529.654 37.161 529.654 Q45.9138 529.654 50.9109 534.014 Q55.8762 538.375 55.8762 546.014 Q55.8762 553.684 50.9109 558.045 Q45.9138 562.373 37.161 562.373 Q28.3763 562.373 23.411 558.045 Q18.4458 553.684 18.4458 546.014 Z" fill="#000000" fill-rule="evenodd" fill-opacity="1" /><path clip-path="url(#clip420)" d="M5.42793 501.899 L10.2977 501.899 L10.2977 507.501 Q10.2977 510.652 11.5708 511.893 Q12.844 513.103 16.1541 513.103 L19.3052 513.103 L19.3052 503.459 L23.8566 503.459 L23.8566 513.103 L54.9531 513.103 L54.9531 518.991 L23.8566 518.991 L23.8566 524.593 L19.3052 524.593 L19.3052 518.991 L16.8225 518.991 Q10.8706 518.991 8.16518 516.222 Q5.42793 513.453 5.42793 507.437 L5.42793 501.899 Z" fill="#000000" fill-rule="evenodd" fill-opacity="1" /><path clip-path="url(#clip420)" d="M20.3555 453.552 L25.8937 453.552 Q24.6205 456.034 23.984 458.708 Q23.3474 461.382 23.3474 464.246 Q23.3474 468.607 24.6842 470.803 Q26.021 472.967 28.6946 472.967 Q30.7316 472.967 31.9093 471.408 Q33.0551 469.848 34.1054 465.137 L34.551 463.132 Q35.8878 456.894 38.3386 454.284 Q40.7576 451.642 45.1181 451.642 Q50.0834 451.642 52.9798 455.589 Q55.8762 459.504 55.8762 466.379 Q55.8762 469.243 55.3032 472.362 Q54.7622 475.45 53.6482 478.887 L47.6007 478.887 Q49.2876 475.641 50.147 472.49 Q50.9746 469.339 50.9746 466.251 Q50.9746 462.114 49.5741 459.886 Q48.1418 457.658 45.5637 457.658 Q43.1766 457.658 41.9034 459.281 Q40.6303 460.872 39.4526 466.315 L38.9752 468.352 Q37.8294 473.795 35.4741 476.214 Q33.0869 478.633 28.9492 478.633 Q23.9203 478.633 21.183 475.068 Q18.4458 471.503 18.4458 464.946 Q18.4458 461.7 18.9232 458.835 Q19.4007 455.971 20.3555 453.552 Z" fill="#000000" fill-rule="evenodd" fill-opacity="1" /><path clip-path="url(#clip420)" d="M40.8849 442.921 L19.3052 442.921 L19.3052 437.065 L40.6621 437.065 Q45.7228 437.065 48.2691 435.091 Q50.7836 433.118 50.7836 429.171 Q50.7836 424.429 47.7599 421.691 Q44.7362 418.922 39.5163 418.922 L19.3052 418.922 L19.3052 413.066 L54.9531 413.066 L54.9531 418.922 L49.4786 418.922 Q52.7251 421.055 54.3166 423.888 Q55.8762 426.688 55.8762 430.412 Q55.8762 436.555 52.0567 439.738 Q48.2373 442.921 40.8849 442.921 M18.4458 428.184 L18.4458 428.184 Z" fill="#000000" fill-rule="evenodd" fill-opacity="1" /><path clip-path="url(#clip420)" d="M20.6738 375.349 L26.1483 375.349 Q24.7797 377.832 24.1113 380.346 Q23.411 382.829 23.411 385.375 Q23.411 391.072 27.0395 394.223 Q30.6361 397.374 37.161 397.374 Q43.6858 397.374 47.3143 394.223 Q50.9109 391.072 50.9109 385.375 Q50.9109 382.829 50.2425 380.346 Q49.5423 377.832 48.1736 375.349 L53.5845 375.349 Q54.7303 377.8 55.3032 380.442 Q55.8762 383.052 55.8762 386.012 Q55.8762 394.064 50.8154 398.807 Q45.7547 403.549 37.161 403.549 Q28.44 403.549 23.4429 398.775 Q18.4458 393.969 18.4458 385.63 Q18.4458 382.924 19.0187 380.346 Q19.5598 377.768 20.6738 375.349 Z" fill="#000000" fill-rule="evenodd" fill-opacity="1" /><path clip-path="url(#clip420)" d="M20.6738 339.51 L26.1483 339.51 Q24.7797 341.993 24.1113 344.507 Q23.411 346.99 23.411 349.536 Q23.411 355.233 27.0395 358.384 Q30.6361 361.535 37.161 361.535 Q43.6858 361.535 47.3143 358.384 Q50.9109 355.233 50.9109 349.536 Q50.9109 346.99 50.2425 344.507 Q49.5423 341.993 48.1736 339.51 L53.5845 339.51 Q54.7303 341.961 55.3032 344.603 Q55.8762 347.213 55.8762 350.173 Q55.8762 358.225 50.8154 362.968 Q45.7547 367.71 37.161 367.71 Q28.44 367.71 23.4429 362.936 Q18.4458 358.13 18.4458 349.791 Q18.4458 347.085 19.0187 344.507 Q19.5598 341.929 20.6738 339.51 Z" fill="#000000" fill-rule="evenodd" fill-opacity="1" /><path clip-path="url(#clip420)" d="M35.665 298.833 L38.5296 298.833 L38.5296 325.76 Q44.577 325.378 47.7599 322.132 Q50.9109 318.853 50.9109 313.029 Q50.9109 309.655 50.0834 306.504 Q49.2558 303.321 47.6007 300.202 L53.1389 300.202 Q54.4757 303.353 55.1759 306.663 Q55.8762 309.973 55.8762 313.379 Q55.8762 321.909 50.9109 326.906 Q45.9456 331.871 37.4793 331.871 Q28.7264 331.871 23.602 327.161 Q18.4458 322.418 18.4458 314.397 Q18.4458 307.204 23.0928 303.035 Q27.7079 298.833 35.665 298.833 M33.9463 304.69 Q29.1402 304.753 26.2756 307.395 Q23.411 310.005 23.411 314.334 Q23.411 319.235 26.1801 322.195 Q28.9492 325.124 33.9781 325.569 L33.9463 304.69 Z" fill="#000000" fill-rule="evenodd" fill-opacity="1" /><path clip-path="url(#clip420)" d="M20.3555 266.495 L25.8937 266.495 Q24.6205 268.978 23.984 271.652 Q23.3474 274.325 23.3474 277.19 Q23.3474 281.55 24.6842 283.747 Q26.021 285.911 28.6946 285.911 Q30.7316 285.911 31.9093 284.351 Q33.0551 282.792 34.1054 278.081 L34.551 276.076 Q35.8878 269.837 38.3386 267.228 Q40.7576 264.586 45.1181 264.586 Q50.0834 264.586 52.9798 268.532 Q55.8762 272.447 55.8762 279.322 Q55.8762 282.187 55.3032 285.306 Q54.7622 288.393 53.6482 291.831 L47.6007 291.831 Q49.2876 288.584 50.147 285.433 Q50.9746 282.282 50.9746 279.195 Q50.9746 275.057 49.5741 272.829 Q48.1418 270.601 45.5637 270.601 Q43.1766 270.601 41.9034 272.225 Q40.6303 273.816 39.4526 279.259 L38.9752 281.296 Q37.8294 286.738 35.4741 289.157 Q33.0869 291.576 28.9492 291.576 Q23.9203 291.576 21.183 288.012 Q18.4458 284.447 18.4458 277.89 Q18.4458 274.644 18.9232 271.779 Q19.4007 268.914 20.3555 266.495 Z" fill="#000000" fill-rule="evenodd" fill-opacity="1" /><path clip-path="url(#clip420)" d="M20.3555 232.534 L25.8937 232.534 Q24.6205 235.017 23.984 237.691 Q23.3474 240.364 23.3474 243.229 Q23.3474 247.589 24.6842 249.785 Q26.021 251.95 28.6946 251.95 Q30.7316 251.95 31.9093 250.39 Q33.0551 248.831 34.1054 244.12 L34.551 242.115 Q35.8878 235.876 38.3386 233.266 Q40.7576 230.625 45.1181 230.625 Q50.0834 230.625 52.9798 234.571 Q55.8762 238.486 55.8762 245.361 Q55.8762 248.226 55.3032 251.345 Q54.7622 254.432 53.6482 257.87 L47.6007 257.87 Q49.2876 254.623 50.147 251.472 Q50.9746 248.321 50.9746 245.234 Q50.9746 241.096 49.5741 238.868 Q48.1418 236.64 45.5637 236.64 Q43.1766 236.64 41.9034 238.264 Q40.6303 239.855 39.4526 245.298 L38.9752 247.335 Q37.8294 252.777 35.4741 255.196 Q33.0869 257.615 28.9492 257.615 Q23.9203 257.615 21.183 254.05 Q18.4458 250.486 18.4458 243.929 Q18.4458 240.683 18.9232 237.818 Q19.4007 234.953 20.3555 232.534 Z" fill="#000000" fill-rule="evenodd" fill-opacity="1" /><path clip-path="url(#clip420)" d="M834.332 12.096 L845.35 12.096 L872.167 62.6918 L872.167 12.096 L880.107 12.096 L880.107 72.576 L869.089 72.576 L842.272 21.9802 L842.272 72.576 L834.332 72.576 L834.332 12.096 Z" fill="#000000" fill-rule="evenodd" fill-opacity="1" /><path clip-path="url(#clip420)" d="M934.875 48.0275 L934.875 51.6733 L900.605 51.6733 Q901.091 59.3701 905.223 63.421 Q909.395 67.4314 916.808 67.4314 Q921.102 67.4314 925.113 66.3781 Q929.164 65.3249 933.134 63.2184 L933.134 70.267 Q929.123 71.9684 924.91 72.8596 Q920.697 73.7508 916.363 73.7508 Q905.506 73.7508 899.146 67.4314 Q892.827 61.1119 892.827 50.3365 Q892.827 39.1965 898.822 32.6746 Q904.858 26.1121 915.066 26.1121 Q924.222 26.1121 929.528 32.0264 Q934.875 37.9003 934.875 48.0275 M927.422 45.84 Q927.341 39.7232 923.978 36.0774 Q920.657 32.4315 915.147 32.4315 Q908.909 32.4315 905.142 35.9558 Q901.415 39.4801 900.848 45.8805 L927.422 45.84 Z" fill="#000000" fill-rule="evenodd" fill-opacity="1" /><path clip-path="url(#clip420)" d="M942.775 27.2059 L950.228 27.2059 L959.545 62.6108 L968.822 27.2059 L977.612 27.2059 L986.93 62.6108 L996.206 27.2059 L1003.66 27.2059 L991.791 72.576 L983 72.576 L973.237 35.3887 L963.434 72.576 L954.644 72.576 L942.775 27.2059 Z" fill="#000000" fill-rule="evenodd" fill-opacity="1" /><path clip-path="url(#clip420)" d="M1071.19 34.0924 L1071.19 9.54393 L1078.64 9.54393 L1078.64 72.576 L1071.19 72.576 L1071.19 65.7705 Q1068.84 69.8214 1065.23 71.8063 Q1061.67 73.7508 1056.65 73.7508 Q1048.42 73.7508 1043.24 67.1883 Q1038.09 60.6258 1038.09 49.9314 Q1038.09 39.2371 1043.24 32.6746 Q1048.42 26.1121 1056.65 26.1121 Q1061.67 26.1121 1065.23 28.0971 Q1068.84 30.0415 1071.19 34.0924 M1045.79 49.9314 Q1045.79 58.1548 1049.15 62.8538 Q1052.55 67.5124 1058.47 67.5124 Q1064.38 67.5124 1067.79 62.8538 Q1071.19 58.1548 1071.19 49.9314 Q1071.19 41.7081 1067.79 37.0496 Q1064.38 32.3505 1058.47 32.3505 Q1052.55 32.3505 1049.15 37.0496 Q1045.79 41.7081 1045.79 49.9314 Z" fill="#000000" fill-rule="evenodd" fill-opacity="1" /><path clip-path="url(#clip420)" d="M1114.61 49.7694 Q1105.58 49.7694 1102.1 51.8354 Q1098.61 53.9013 1098.61 58.8839 Q1098.61 62.8538 1101.21 65.2034 Q1103.84 67.5124 1108.34 67.5124 Q1114.53 67.5124 1118.26 63.1374 Q1122.03 58.7219 1122.03 51.4303 L1122.03 49.7694 L1114.61 49.7694 M1129.48 46.6907 L1129.48 72.576 L1122.03 72.576 L1122.03 65.6895 Q1119.48 69.8214 1115.67 71.8063 Q1111.86 73.7508 1106.35 73.7508 Q1099.38 73.7508 1095.25 69.8619 Q1091.16 65.9325 1091.16 59.3701 Q1091.16 51.7138 1096.26 47.825 Q1101.41 43.9361 1111.58 43.9361 L1122.03 43.9361 L1122.03 43.2069 Q1122.03 38.0623 1118.62 35.2672 Q1115.26 32.4315 1109.15 32.4315 Q1105.26 32.4315 1101.57 33.3632 Q1097.88 34.295 1094.48 36.1584 L1094.48 29.2718 Q1098.57 27.692 1102.42 26.9223 Q1106.27 26.1121 1109.91 26.1121 Q1119.76 26.1121 1124.62 31.2163 Q1129.48 36.3204 1129.48 46.6907 Z" fill="#000000" fill-rule="evenodd" fill-opacity="1" /><path clip-path="url(#clip420)" d="M1152.21 14.324 L1152.21 27.2059 L1167.56 27.2059 L1167.56 32.9987 L1152.21 32.9987 L1152.21 57.6282 Q1152.21 63.1779 1153.71 64.7578 Q1155.24 66.3376 1159.9 66.3376 L1167.56 66.3376 L1167.56 72.576 L1159.9 72.576 Q1151.27 72.576 1147.99 69.3758 Q1144.71 66.1351 1144.71 57.6282 L1144.71 32.9987 L1139.24 32.9987 L1139.24 27.2059 L1144.71 27.2059 L1144.71 14.324 L1152.21 14.324 Z" fill="#000000" fill-rule="evenodd" fill-opacity="1" /><path clip-path="url(#clip420)" d="M1197.98 49.7694 Q1188.95 49.7694 1185.46 51.8354 Q1181.98 53.9013 1181.98 58.8839 Q1181.98 62.8538 1184.57 65.2034 Q1187.21 67.5124 1191.7 67.5124 Q1197.9 67.5124 1201.63 63.1374 Q1205.39 58.7219 1205.39 51.4303 L1205.39 49.7694 L1197.98 49.7694 M1212.85 46.6907 L1212.85 72.576 L1205.39 72.576 L1205.39 65.6895 Q1202.84 69.8214 1199.03 71.8063 Q1195.23 73.7508 1189.72 73.7508 Q1182.75 73.7508 1178.62 69.8619 Q1174.53 65.9325 1174.53 59.3701 Q1174.53 51.7138 1179.63 47.825 Q1184.78 43.9361 1194.94 43.9361 L1205.39 43.9361 L1205.39 43.2069 Q1205.39 38.0623 1201.99 35.2672 Q1198.63 32.4315 1192.51 32.4315 Q1188.62 32.4315 1184.94 33.3632 Q1181.25 34.295 1177.85 36.1584 L1177.85 29.2718 Q1181.94 27.692 1185.79 26.9223 Q1189.64 26.1121 1193.28 26.1121 Q1203.13 26.1121 1207.99 31.2163 Q1212.85 36.3204 1212.85 46.6907 Z" fill="#000000" fill-rule="evenodd" fill-opacity="1" /><path clip-path="url(#clip420)" d="M1230.11 62.2867 L1238.65 62.2867 L1238.65 69.2543 L1232.01 82.2172 L1226.78 82.2172 L1230.11 69.2543 L1230.11 62.2867 Z" fill="#000000" fill-rule="evenodd" fill-opacity="1" /><path clip-path="url(#clip420)" d="M1298.53 32.4315 Q1292.53 32.4315 1289.05 37.1306 Q1285.56 41.7891 1285.56 49.9314 Q1285.56 58.0738 1289.01 62.7728 Q1292.49 67.4314 1298.53 67.4314 Q1304.48 67.4314 1307.96 62.7323 Q1311.45 58.0333 1311.45 49.9314 Q1311.45 41.8701 1307.96 37.1711 Q1304.48 32.4315 1298.53 32.4315 M1298.53 26.1121 Q1308.25 26.1121 1313.8 32.4315 Q1319.35 38.7509 1319.35 49.9314 Q1319.35 61.0714 1313.8 67.4314 Q1308.25 73.7508 1298.53 73.7508 Q1288.76 73.7508 1283.21 67.4314 Q1277.7 61.0714 1277.7 49.9314 Q1277.7 38.7509 1283.21 32.4315 Q1288.76 26.1121 1298.53 26.1121 Z" fill="#000000" fill-rule="evenodd" fill-opacity="1" /><path clip-path="url(#clip420)" d="M1331.7 9.54393 L1339.16 9.54393 L1339.16 72.576 L1331.7 72.576 L1331.7 9.54393 Z" fill="#000000" fill-rule="evenodd" fill-opacity="1" /><path clip-path="url(#clip420)" d="M1384.61 34.0924 L1384.61 9.54393 L1392.06 9.54393 L1392.06 72.576 L1384.61 72.576 L1384.61 65.7705 Q1382.26 69.8214 1378.65 71.8063 Q1375.09 73.7508 1370.06 73.7508 Q1361.84 73.7508 1356.66 67.1883 Q1351.51 60.6258 1351.51 49.9314 Q1351.51 39.2371 1356.66 32.6746 Q1361.84 26.1121 1370.06 26.1121 Q1375.09 26.1121 1378.65 28.0971 Q1382.26 30.0415 1384.61 34.0924 M1359.21 49.9314 Q1359.21 58.1548 1362.57 62.8538 Q1365.97 67.5124 1371.89 67.5124 Q1377.8 67.5124 1381.2 62.8538 Q1384.61 58.1548 1384.61 49.9314 Q1384.61 41.7081 1381.2 37.0496 Q1377.8 32.3505 1371.89 32.3505 Q1365.97 32.3505 1362.57 37.0496 Q1359.21 41.7081 1359.21 49.9314 Z" fill="#000000" fill-rule="evenodd" fill-opacity="1" /><path clip-path="url(#clip420)" d="M1469.11 35.9153 Q1471.9 30.8922 1475.79 28.5022 Q1479.68 26.1121 1484.95 26.1121 Q1492.04 26.1121 1495.89 31.0947 Q1499.73 36.0368 1499.73 45.1919 L1499.73 72.576 L1492.24 72.576 L1492.24 45.4349 Q1492.24 38.913 1489.93 35.7533 Q1487.62 32.5936 1482.88 32.5936 Q1477.09 32.5936 1473.73 36.4419 Q1470.36 40.2903 1470.36 46.9338 L1470.36 72.576 L1462.87 72.576 L1462.87 45.4349 Q1462.87 38.8725 1460.56 35.7533 Q1458.25 32.5936 1453.43 32.5936 Q1447.72 32.5936 1444.36 36.4824 Q1441 40.3308 1441 46.9338 L1441 72.576 L1433.5 72.576 L1433.5 27.2059 L1441 27.2059 L1441 34.2544 Q1443.55 30.082 1447.11 28.0971 Q1450.68 26.1121 1455.58 26.1121 Q1460.52 26.1121 1463.96 28.6237 Q1467.45 31.1352 1469.11 35.9153 Z" fill="#000000" fill-rule="evenodd" fill-opacity="1" /><path clip-path="url(#clip420)" d="M1532.18 32.4315 Q1526.19 32.4315 1522.7 37.1306 Q1519.22 41.7891 1519.22 49.9314 Q1519.22 58.0738 1522.66 62.7728 Q1526.15 67.4314 1532.18 67.4314 Q1538.14 67.4314 1541.62 62.7323 Q1545.1 58.0333 1545.1 49.9314 Q1545.1 41.8701 1541.62 37.1711 Q1538.14 32.4315 1532.18 32.4315 M1532.18 26.1121 Q1541.9 26.1121 1547.45 32.4315 Q1553 38.7509 1553 49.9314 Q1553 61.0714 1547.45 67.4314 Q1541.9 73.7508 1532.18 73.7508 Q1522.42 73.7508 1516.87 67.4314 Q1511.36 61.0714 1511.36 49.9314 Q1511.36 38.7509 1516.87 32.4315 Q1522.42 26.1121 1532.18 26.1121 Z" fill="#000000" fill-rule="evenodd" fill-opacity="1" /><path clip-path="url(#clip420)" d="M1595.21 34.0924 L1595.21 9.54393 L1602.67 9.54393 L1602.67 72.576 L1595.21 72.576 L1595.21 65.7705 Q1592.86 69.8214 1589.26 71.8063 Q1585.69 73.7508 1580.67 73.7508 Q1572.45 73.7508 1567.26 67.1883 Q1562.12 60.6258 1562.12 49.9314 Q1562.12 39.2371 1567.26 32.6746 Q1572.45 26.1121 1580.67 26.1121 Q1585.69 26.1121 1589.26 28.0971 Q1592.86 30.0415 1595.21 34.0924 M1569.81 49.9314 Q1569.81 58.1548 1573.18 62.8538 Q1576.58 67.5124 1582.49 67.5124 Q1588.41 67.5124 1591.81 62.8538 Q1595.21 58.1548 1595.21 49.9314 Q1595.21 41.7081 1591.81 37.0496 Q1588.41 32.3505 1582.49 32.3505 Q1576.58 32.3505 1573.18 37.0496 Q1569.81 41.7081 1569.81 49.9314 Z" fill="#000000" fill-rule="evenodd" fill-opacity="1" /><path clip-path="url(#clip420)" d="M1656.83 48.0275 L1656.83 51.6733 L1622.56 51.6733 Q1623.04 59.3701 1627.17 63.421 Q1631.35 67.4314 1638.76 67.4314 Q1643.05 67.4314 1647.06 66.3781 Q1651.12 65.3249 1655.09 63.2184 L1655.09 70.267 Q1651.08 71.9684 1646.86 72.8596 Q1642.65 73.7508 1638.31 73.7508 Q1627.46 73.7508 1621.1 67.4314 Q1614.78 61.1119 1614.78 50.3365 Q1614.78 39.1965 1620.77 32.6746 Q1626.81 26.1121 1637.02 26.1121 Q1646.17 26.1121 1651.48 32.0264 Q1656.83 37.9003 1656.83 48.0275 M1649.37 45.84 Q1649.29 39.7232 1645.93 36.0774 Q1642.61 32.4315 1637.1 32.4315 Q1630.86 32.4315 1627.09 35.9558 Q1623.37 39.4801 1622.8 45.8805 L1649.37 45.84 Z" fill="#000000" fill-rule="evenodd" fill-opacity="1" /><path clip-path="url(#clip420)" d="M1669.06 9.54393 L1676.51 9.54393 L1676.51 72.576 L1669.06 72.576 L1669.06 9.54393 Z" fill="#000000" fill-rule="evenodd" fill-opacity="1" /><polyline clip-path="url(#clip422)" style="stroke:#0000ff; stroke-linecap:butt; stroke-linejoin:round; stroke-width:6; stroke-opacity:1; fill:none" points="
  295.676,136.397 313.356,153.698 337.955,350.973 363.323,526.963 389.204,639.633 415.084,712.851 440.708,763.058 466.588,800.037 492.212,827.831 517.836,849.641 
  543.46,867.194 569.084,881.617 594.708,893.673 620.332,903.898 658.256,916.466 709.504,929.892 761.008,940.475 812.256,948.954 850.948,954.337 913.471,961.635 
  1016.22,970.914 1118.46,977.872 1220.96,983.32 1322.94,987.671 1425.7,991.267 1527.93,994.253 1630.17,996.785 1755.48,999.407 1908.71,1002.06 2061.17,1004.25 
  2215.17,1006.11 
  "/>
<polyline clip-path="url(#clip422)" style="stroke:#000000; stroke-linecap:butt; stroke-linejoin:round; stroke-width:4; stroke-opacity:1; fill:none" points="
  295.676,136.769 295.676,136.617 
  "/>
<polyline clip-path="url(#clip422)" style="stroke:#000000; stroke-linecap:butt; stroke-linejoin:round; stroke-width:4; stroke-opacity:1; fill:none" points="
  313.356,137.04 313.356,136.933 
  "/>
<polyline clip-path="url(#clip422)" style="stroke:#000000; stroke-linecap:butt; stroke-linejoin:round; stroke-width:4; stroke-opacity:1; fill:none" points="
  337.955,141.334 337.955,141.018 
  "/>
<polyline clip-path="url(#clip422)" style="stroke:#000000; stroke-linecap:butt; stroke-linejoin:round; stroke-width:4; stroke-opacity:1; fill:none" points="
  363.323,169.523 363.323,168.528 
  "/>
<polyline clip-path="url(#clip422)" style="stroke:#000000; stroke-linecap:butt; stroke-linejoin:round; stroke-width:4; stroke-opacity:1; fill:none" points="
  389.204,247.454 389.204,245.297 
  "/>
<polyline clip-path="url(#clip422)" style="stroke:#000000; stroke-linecap:butt; stroke-linejoin:round; stroke-width:4; stroke-opacity:1; fill:none" points="
  415.084,346.491 415.084,343.234 
  "/>
<polyline clip-path="url(#clip422)" style="stroke:#000000; stroke-linecap:butt; stroke-linejoin:round; stroke-width:4; stroke-opacity:1; fill:none" points="
  440.708,444.918 440.708,440.835 
  "/>
<polyline clip-path="url(#clip422)" style="stroke:#000000; stroke-linecap:butt; stroke-linejoin:round; stroke-width:4; stroke-opacity:1; fill:none" points="
  466.588,516.677 466.588,512.101 
  "/>
<polyline clip-path="url(#clip422)" style="stroke:#000000; stroke-linecap:butt; stroke-linejoin:round; stroke-width:4; stroke-opacity:1; fill:none" points="
  492.212,584.994 492.212,580.109 
  "/>
<polyline clip-path="url(#clip422)" style="stroke:#000000; stroke-linecap:butt; stroke-linejoin:round; stroke-width:4; stroke-opacity:1; fill:none" points="
  517.836,639.807 517.836,634.772 
  "/>
<polyline clip-path="url(#clip422)" style="stroke:#000000; stroke-linecap:butt; stroke-linejoin:round; stroke-width:4; stroke-opacity:1; fill:none" points="
  543.46,685.909 543.46,680.781 
  "/>
<polyline clip-path="url(#clip422)" style="stroke:#000000; stroke-linecap:butt; stroke-linejoin:round; stroke-width:4; stroke-opacity:1; fill:none" points="
  569.084,723.379 569.084,718.151 
  "/>
<polyline clip-path="url(#clip422)" style="stroke:#000000; stroke-linecap:butt; stroke-linejoin:round; stroke-width:4; stroke-opacity:1; fill:none" points="
  594.708,752.087 594.708,746.826 
  "/>
<polyline clip-path="url(#clip422)" style="stroke:#000000; stroke-linecap:butt; stroke-linejoin:round; stroke-width:4; stroke-opacity:1; fill:none" points="
  620.332,779.6 620.332,774.303 
  "/>
<polyline clip-path="url(#clip422)" style="stroke:#000000; stroke-linecap:butt; stroke-linejoin:round; stroke-width:4; stroke-opacity:1; fill:none" points="
  658.256,817.471 658.256,813.736 
  "/>
<polyline clip-path="url(#clip422)" style="stroke:#000000; stroke-linecap:butt; stroke-linejoin:round; stroke-width:4; stroke-opacity:1; fill:none" points="
  709.504,849.834 709.504,846.052 
  "/>
<polyline clip-path="url(#clip422)" style="stroke:#000000; stroke-linecap:butt; stroke-linejoin:round; stroke-width:4; stroke-opacity:1; fill:none" points="
  761.008,880.071 761.008,876.325 
  "/>
<polyline clip-path="url(#clip422)" style="stroke:#000000; stroke-linecap:butt; stroke-linejoin:round; stroke-width:4; stroke-opacity:1; fill:none" points="
  812.256,900.614 812.256,896.888 
  "/>
<polyline clip-path="url(#clip422)" style="stroke:#000000; stroke-linecap:butt; stroke-linejoin:round; stroke-width:4; stroke-opacity:1; fill:none" points="
  850.948,919.524 850.948,914.419 
  "/>
<polyline clip-path="url(#clip422)" style="stroke:#000000; stroke-linecap:butt; stroke-linejoin:round; stroke-width:4; stroke-opacity:1; fill:none" points="
  913.471,937.538 913.471,935.034 
  "/>
<polyline clip-path="url(#clip422)" style="stroke:#000000; stroke-linecap:butt; stroke-linejoin:round; stroke-width:4; stroke-opacity:1; fill:none" points="
  1016.22,959.603 1016.22,957.172 
  "/>
<polyline clip-path="url(#clip422)" style="stroke:#000000; stroke-linecap:butt; stroke-linejoin:round; stroke-width:4; stroke-opacity:1; fill:none" points="
  1118.46,972.506 1118.46,970.07 
  "/>
<polyline clip-path="url(#clip422)" style="stroke:#000000; stroke-linecap:butt; stroke-linejoin:round; stroke-width:4; stroke-opacity:1; fill:none" points="
  1220.96,982.552 1220.96,980.083 
  "/>
<polyline clip-path="url(#clip422)" style="stroke:#000000; stroke-linecap:butt; stroke-linejoin:round; stroke-width:4; stroke-opacity:1; fill:none" points="
  1322.94,992.247 1322.94,989.773 
  "/>
<polyline clip-path="url(#clip422)" style="stroke:#000000; stroke-linecap:butt; stroke-linejoin:round; stroke-width:4; stroke-opacity:1; fill:none" points="
  1425.7,997.619 1425.7,995.028 
  "/>
<polyline clip-path="url(#clip422)" style="stroke:#000000; stroke-linecap:butt; stroke-linejoin:round; stroke-width:4; stroke-opacity:1; fill:none" points="
  1527.93,1005.27 1527.93,1002.64 
  "/>
<polyline clip-path="url(#clip422)" style="stroke:#000000; stroke-linecap:butt; stroke-linejoin:round; stroke-width:4; stroke-opacity:1; fill:none" points="
  1630.17,1005.4 1630.17,1002.33 
  "/>
<polyline clip-path="url(#clip422)" style="stroke:#000000; stroke-linecap:butt; stroke-linejoin:round; stroke-width:4; stroke-opacity:1; fill:none" points="
  1755.48,1008.44 1755.48,1005.61 
  "/>
<polyline clip-path="url(#clip422)" style="stroke:#000000; stroke-linecap:butt; stroke-linejoin:round; stroke-width:4; stroke-opacity:1; fill:none" points="
  1908.71,1012.42 1908.71,1009.16 
  "/>
<polyline clip-path="url(#clip422)" style="stroke:#000000; stroke-linecap:butt; stroke-linejoin:round; stroke-width:4; stroke-opacity:1; fill:none" points="
  2061.17,1019.1 2061.17,1015.7 
  "/>
<polyline clip-path="url(#clip422)" style="stroke:#000000; stroke-linecap:butt; stroke-linejoin:round; stroke-width:4; stroke-opacity:1; fill:none" points="
  2215.17,1017.71 2215.17,1012.74 
  "/>
<line clip-path="url(#clip422)" x1="311.676" y1="136.769" x2="279.676" y2="136.769" style="stroke:#000000; stroke-width:2.4; stroke-opacity:1"/>
<line clip-path="url(#clip422)" x1="311.676" y1="136.617" x2="279.676" y2="136.617" style="stroke:#000000; stroke-width:2.4; stroke-opacity:1"/>
<line clip-path="url(#clip422)" x1="329.356" y1="137.04" x2="297.356" y2="137.04" style="stroke:#000000; stroke-width:2.4; stroke-opacity:1"/>
<line clip-path="url(#clip422)" x1="329.356" y1="136.933" x2="297.356" y2="136.933" style="stroke:#000000; stroke-width:2.4; stroke-opacity:1"/>
<line clip-path="url(#clip422)" x1="353.955" y1="141.334" x2="321.955" y2="141.334" style="stroke:#000000; stroke-width:2.4; stroke-opacity:1"/>
<line clip-path="url(#clip422)" x1="353.955" y1="141.018" x2="321.955" y2="141.018" style="stroke:#000000; stroke-width:2.4; stroke-opacity:1"/>
<line clip-path="url(#clip422)" x1="379.323" y1="169.523" x2="347.323" y2="169.523" style="stroke:#000000; stroke-width:2.4; stroke-opacity:1"/>
<line clip-path="url(#clip422)" x1="379.323" y1="168.528" x2="347.323" y2="168.528" style="stroke:#000000; stroke-width:2.4; stroke-opacity:1"/>
<line clip-path="url(#clip422)" x1="405.204" y1="247.454" x2="373.204" y2="247.454" style="stroke:#000000; stroke-width:2.4; stroke-opacity:1"/>
<line clip-path="url(#clip422)" x1="405.204" y1="245.297" x2="373.204" y2="245.297" style="stroke:#000000; stroke-width:2.4; stroke-opacity:1"/>
<line clip-path="url(#clip422)" x1="431.084" y1="346.491" x2="399.084" y2="346.491" style="stroke:#000000; stroke-width:2.4; stroke-opacity:1"/>
<line clip-path="url(#clip422)" x1="431.084" y1="343.234" x2="399.084" y2="343.234" style="stroke:#000000; stroke-width:2.4; stroke-opacity:1"/>
<line clip-path="url(#clip422)" x1="456.708" y1="444.918" x2="424.708" y2="444.918" style="stroke:#000000; stroke-width:2.4; stroke-opacity:1"/>
<line clip-path="url(#clip422)" x1="456.708" y1="440.835" x2="424.708" y2="440.835" style="stroke:#000000; stroke-width:2.4; stroke-opacity:1"/>
<line clip-path="url(#clip422)" x1="482.588" y1="516.677" x2="450.588" y2="516.677" style="stroke:#000000; stroke-width:2.4; stroke-opacity:1"/>
<line clip-path="url(#clip422)" x1="482.588" y1="512.101" x2="450.588" y2="512.101" style="stroke:#000000; stroke-width:2.4; stroke-opacity:1"/>
<line clip-path="url(#clip422)" x1="508.212" y1="584.994" x2="476.212" y2="584.994" style="stroke:#000000; stroke-width:2.4; stroke-opacity:1"/>
<line clip-path="url(#clip422)" x1="508.212" y1="580.109" x2="476.212" y2="580.109" style="stroke:#000000; stroke-width:2.4; stroke-opacity:1"/>
<line clip-path="url(#clip422)" x1="533.836" y1="639.807" x2="501.836" y2="639.807" style="stroke:#000000; stroke-width:2.4; stroke-opacity:1"/>
<line clip-path="url(#clip422)" x1="533.836" y1="634.772" x2="501.836" y2="634.772" style="stroke:#000000; stroke-width:2.4; stroke-opacity:1"/>
<line clip-path="url(#clip422)" x1="559.46" y1="685.909" x2="527.46" y2="685.909" style="stroke:#000000; stroke-width:2.4; stroke-opacity:1"/>
<line clip-path="url(#clip422)" x1="559.46" y1="680.781" x2="527.46" y2="680.781" style="stroke:#000000; stroke-width:2.4; stroke-opacity:1"/>
<line clip-path="url(#clip422)" x1="585.084" y1="723.379" x2="553.084" y2="723.379" style="stroke:#000000; stroke-width:2.4; stroke-opacity:1"/>
<line clip-path="url(#clip422)" x1="585.084" y1="718.151" x2="553.084" y2="718.151" style="stroke:#000000; stroke-width:2.4; stroke-opacity:1"/>
<line clip-path="url(#clip422)" x1="610.708" y1="752.087" x2="578.708" y2="752.087" style="stroke:#000000; stroke-width:2.4; stroke-opacity:1"/>
<line clip-path="url(#clip422)" x1="610.708" y1="746.826" x2="578.708" y2="746.826" style="stroke:#000000; stroke-width:2.4; stroke-opacity:1"/>
<line clip-path="url(#clip422)" x1="636.332" y1="779.6" x2="604.332" y2="779.6" style="stroke:#000000; stroke-width:2.4; stroke-opacity:1"/>
<line clip-path="url(#clip422)" x1="636.332" y1="774.303" x2="604.332" y2="774.303" style="stroke:#000000; stroke-width:2.4; stroke-opacity:1"/>
<line clip-path="url(#clip422)" x1="674.256" y1="817.471" x2="642.256" y2="817.471" style="stroke:#000000; stroke-width:2.4; stroke-opacity:1"/>
<line clip-path="url(#clip422)" x1="674.256" y1="813.736" x2="642.256" y2="813.736" style="stroke:#000000; stroke-width:2.4; stroke-opacity:1"/>
<line clip-path="url(#clip422)" x1="725.504" y1="849.834" x2="693.504" y2="849.834" style="stroke:#000000; stroke-width:2.4; stroke-opacity:1"/>
<line clip-path="url(#clip422)" x1="725.504" y1="846.052" x2="693.504" y2="846.052" style="stroke:#000000; stroke-width:2.4; stroke-opacity:1"/>
<line clip-path="url(#clip422)" x1="777.008" y1="880.071" x2="745.008" y2="880.071" style="stroke:#000000; stroke-width:2.4; stroke-opacity:1"/>
<line clip-path="url(#clip422)" x1="777.008" y1="876.325" x2="745.008" y2="876.325" style="stroke:#000000; stroke-width:2.4; stroke-opacity:1"/>
<line clip-path="url(#clip422)" x1="828.256" y1="900.614" x2="796.256" y2="900.614" style="stroke:#000000; stroke-width:2.4; stroke-opacity:1"/>
<line clip-path="url(#clip422)" x1="828.256" y1="896.888" x2="796.256" y2="896.888" style="stroke:#000000; stroke-width:2.4; stroke-opacity:1"/>
<line clip-path="url(#clip422)" x1="866.948" y1="919.524" x2="834.948" y2="919.524" style="stroke:#000000; stroke-width:2.4; stroke-opacity:1"/>
<line clip-path="url(#clip422)" x1="866.948" y1="914.419" x2="834.948" y2="914.419" style="stroke:#000000; stroke-width:2.4; stroke-opacity:1"/>
<line clip-path="url(#clip422)" x1="929.471" y1="937.538" x2="897.471" y2="937.538" style="stroke:#000000; stroke-width:2.4; stroke-opacity:1"/>
<line clip-path="url(#clip422)" x1="929.471" y1="935.034" x2="897.471" y2="935.034" style="stroke:#000000; stroke-width:2.4; stroke-opacity:1"/>
<line clip-path="url(#clip422)" x1="1032.22" y1="959.603" x2="1000.22" y2="959.603" style="stroke:#000000; stroke-width:2.4; stroke-opacity:1"/>
<line clip-path="url(#clip422)" x1="1032.22" y1="957.172" x2="1000.22" y2="957.172" style="stroke:#000000; stroke-width:2.4; stroke-opacity:1"/>
<line clip-path="url(#clip422)" x1="1134.46" y1="972.506" x2="1102.46" y2="972.506" style="stroke:#000000; stroke-width:2.4; stroke-opacity:1"/>
<line clip-path="url(#clip422)" x1="1134.46" y1="970.07" x2="1102.46" y2="970.07" style="stroke:#000000; stroke-width:2.4; stroke-opacity:1"/>
<line clip-path="url(#clip422)" x1="1236.96" y1="982.552" x2="1204.96" y2="982.552" style="stroke:#000000; stroke-width:2.4; stroke-opacity:1"/>
<line clip-path="url(#clip422)" x1="1236.96" y1="980.083" x2="1204.96" y2="980.083" style="stroke:#000000; stroke-width:2.4; stroke-opacity:1"/>
<line clip-path="url(#clip422)" x1="1338.94" y1="992.247" x2="1306.94" y2="992.247" style="stroke:#000000; stroke-width:2.4; stroke-opacity:1"/>
<line clip-path="url(#clip422)" x1="1338.94" y1="989.773" x2="1306.94" y2="989.773" style="stroke:#000000; stroke-width:2.4; stroke-opacity:1"/>
<line clip-path="url(#clip422)" x1="1441.7" y1="997.619" x2="1409.7" y2="997.619" style="stroke:#000000; stroke-width:2.4; stroke-opacity:1"/>
<line clip-path="url(#clip422)" x1="1441.7" y1="995.028" x2="1409.7" y2="995.028" style="stroke:#000000; stroke-width:2.4; stroke-opacity:1"/>
<line clip-path="url(#clip422)" x1="1543.93" y1="1005.27" x2="1511.93" y2="1005.27" style="stroke:#000000; stroke-width:2.4; stroke-opacity:1"/>
<line clip-path="url(#clip422)" x1="1543.93" y1="1002.64" x2="1511.93" y2="1002.64" style="stroke:#000000; stroke-width:2.4; stroke-opacity:1"/>
<line clip-path="url(#clip422)" x1="1646.17" y1="1005.4" x2="1614.17" y2="1005.4" style="stroke:#000000; stroke-width:2.4; stroke-opacity:1"/>
<line clip-path="url(#clip422)" x1="1646.17" y1="1002.33" x2="1614.17" y2="1002.33" style="stroke:#000000; stroke-width:2.4; stroke-opacity:1"/>
<line clip-path="url(#clip422)" x1="1771.48" y1="1008.44" x2="1739.48" y2="1008.44" style="stroke:#000000; stroke-width:2.4; stroke-opacity:1"/>
<line clip-path="url(#clip422)" x1="1771.48" y1="1005.61" x2="1739.48" y2="1005.61" style="stroke:#000000; stroke-width:2.4; stroke-opacity:1"/>
<line clip-path="url(#clip422)" x1="1924.71" y1="1012.42" x2="1892.71" y2="1012.42" style="stroke:#000000; stroke-width:2.4; stroke-opacity:1"/>
<line clip-path="url(#clip422)" x1="1924.71" y1="1009.16" x2="1892.71" y2="1009.16" style="stroke:#000000; stroke-width:2.4; stroke-opacity:1"/>
<line clip-path="url(#clip422)" x1="2077.17" y1="1019.1" x2="2045.17" y2="1019.1" style="stroke:#000000; stroke-width:2.4; stroke-opacity:1"/>
<line clip-path="url(#clip422)" x1="2077.17" y1="1015.7" x2="2045.17" y2="1015.7" style="stroke:#000000; stroke-width:2.4; stroke-opacity:1"/>
<line clip-path="url(#clip422)" x1="2231.17" y1="1017.71" x2="2199.17" y2="1017.71" style="stroke:#000000; stroke-width:2.4; stroke-opacity:1"/>
<line clip-path="url(#clip422)" x1="2231.17" y1="1012.74" x2="2199.17" y2="1012.74" style="stroke:#000000; stroke-width:2.4; stroke-opacity:1"/>
<circle clip-path="url(#clip422)" cx="295.676" cy="136.693" r="14" fill="#add8e6" fill-rule="evenodd" fill-opacity="1" stroke="#000000" stroke-opacity="1" stroke-width="2.4"/>
<circle clip-path="url(#clip422)" cx="313.356" cy="136.986" r="14" fill="#add8e6" fill-rule="evenodd" fill-opacity="1" stroke="#000000" stroke-opacity="1" stroke-width="2.4"/>
<circle clip-path="url(#clip422)" cx="337.955" cy="141.176" r="14" fill="#add8e6" fill-rule="evenodd" fill-opacity="1" stroke="#000000" stroke-opacity="1" stroke-width="2.4"/>
<circle clip-path="url(#clip422)" cx="363.323" cy="169.026" r="14" fill="#add8e6" fill-rule="evenodd" fill-opacity="1" stroke="#000000" stroke-opacity="1" stroke-width="2.4"/>
<circle clip-path="url(#clip422)" cx="389.204" cy="246.375" r="14" fill="#add8e6" fill-rule="evenodd" fill-opacity="1" stroke="#000000" stroke-opacity="1" stroke-width="2.4"/>
<circle clip-path="url(#clip422)" cx="415.084" cy="344.862" r="14" fill="#add8e6" fill-rule="evenodd" fill-opacity="1" stroke="#000000" stroke-opacity="1" stroke-width="2.4"/>
<circle clip-path="url(#clip422)" cx="440.708" cy="442.877" r="14" fill="#add8e6" fill-rule="evenodd" fill-opacity="1" stroke="#000000" stroke-opacity="1" stroke-width="2.4"/>
<circle clip-path="url(#clip422)" cx="466.588" cy="514.389" r="14" fill="#add8e6" fill-rule="evenodd" fill-opacity="1" stroke="#000000" stroke-opacity="1" stroke-width="2.4"/>
<circle clip-path="url(#clip422)" cx="492.212" cy="582.552" r="14" fill="#add8e6" fill-rule="evenodd" fill-opacity="1" stroke="#000000" stroke-opacity="1" stroke-width="2.4"/>
<circle clip-path="url(#clip422)" cx="517.836" cy="637.289" r="14" fill="#add8e6" fill-rule="evenodd" fill-opacity="1" stroke="#000000" stroke-opacity="1" stroke-width="2.4"/>
<circle clip-path="url(#clip422)" cx="543.46" cy="683.345" r="14" fill="#add8e6" fill-rule="evenodd" fill-opacity="1" stroke="#000000" stroke-opacity="1" stroke-width="2.4"/>
<circle clip-path="url(#clip422)" cx="569.084" cy="720.765" r="14" fill="#add8e6" fill-rule="evenodd" fill-opacity="1" stroke="#000000" stroke-opacity="1" stroke-width="2.4"/>
<circle clip-path="url(#clip422)" cx="594.708" cy="749.456" r="14" fill="#add8e6" fill-rule="evenodd" fill-opacity="1" stroke="#000000" stroke-opacity="1" stroke-width="2.4"/>
<circle clip-path="url(#clip422)" cx="620.332" cy="776.951" r="14" fill="#add8e6" fill-rule="evenodd" fill-opacity="1" stroke="#000000" stroke-opacity="1" stroke-width="2.4"/>
<circle clip-path="url(#clip422)" cx="658.256" cy="815.603" r="14" fill="#add8e6" fill-rule="evenodd" fill-opacity="1" stroke="#000000" stroke-opacity="1" stroke-width="2.4"/>
<circle clip-path="url(#clip422)" cx="709.504" cy="847.943" r="14" fill="#add8e6" fill-rule="evenodd" fill-opacity="1" stroke="#000000" stroke-opacity="1" stroke-width="2.4"/>
<circle clip-path="url(#clip422)" cx="761.008" cy="878.198" r="14" fill="#add8e6" fill-rule="evenodd" fill-opacity="1" stroke="#000000" stroke-opacity="1" stroke-width="2.4"/>
<circle clip-path="url(#clip422)" cx="812.256" cy="898.751" r="14" fill="#add8e6" fill-rule="evenodd" fill-opacity="1" stroke="#000000" stroke-opacity="1" stroke-width="2.4"/>
<circle clip-path="url(#clip422)" cx="850.948" cy="916.972" r="14" fill="#add8e6" fill-rule="evenodd" fill-opacity="1" stroke="#000000" stroke-opacity="1" stroke-width="2.4"/>
<circle clip-path="url(#clip422)" cx="913.471" cy="936.286" r="14" fill="#add8e6" fill-rule="evenodd" fill-opacity="1" stroke="#000000" stroke-opacity="1" stroke-width="2.4"/>
<circle clip-path="url(#clip422)" cx="1016.22" cy="958.387" r="14" fill="#add8e6" fill-rule="evenodd" fill-opacity="1" stroke="#000000" stroke-opacity="1" stroke-width="2.4"/>
<circle clip-path="url(#clip422)" cx="1118.46" cy="971.288" r="14" fill="#add8e6" fill-rule="evenodd" fill-opacity="1" stroke="#000000" stroke-opacity="1" stroke-width="2.4"/>
<circle clip-path="url(#clip422)" cx="1220.96" cy="981.317" r="14" fill="#add8e6" fill-rule="evenodd" fill-opacity="1" stroke="#000000" stroke-opacity="1" stroke-width="2.4"/>
<circle clip-path="url(#clip422)" cx="1322.94" cy="991.01" r="14" fill="#add8e6" fill-rule="evenodd" fill-opacity="1" stroke="#000000" stroke-opacity="1" stroke-width="2.4"/>
<circle clip-path="url(#clip422)" cx="1425.7" cy="996.324" r="14" fill="#add8e6" fill-rule="evenodd" fill-opacity="1" stroke="#000000" stroke-opacity="1" stroke-width="2.4"/>
<circle clip-path="url(#clip422)" cx="1527.93" cy="1003.96" r="14" fill="#add8e6" fill-rule="evenodd" fill-opacity="1" stroke="#000000" stroke-opacity="1" stroke-width="2.4"/>
<circle clip-path="url(#clip422)" cx="1630.17" cy="1003.86" r="14" fill="#add8e6" fill-rule="evenodd" fill-opacity="1" stroke="#000000" stroke-opacity="1" stroke-width="2.4"/>
<circle clip-path="url(#clip422)" cx="1755.48" cy="1007.03" r="14" fill="#add8e6" fill-rule="evenodd" fill-opacity="1" stroke="#000000" stroke-opacity="1" stroke-width="2.4"/>
<circle clip-path="url(#clip422)" cx="1908.71" cy="1010.79" r="14" fill="#add8e6" fill-rule="evenodd" fill-opacity="1" stroke="#000000" stroke-opacity="1" stroke-width="2.4"/>
<circle clip-path="url(#clip422)" cx="2061.17" cy="1017.4" r="14" fill="#add8e6" fill-rule="evenodd" fill-opacity="1" stroke="#000000" stroke-opacity="1" stroke-width="2.4"/>
<circle clip-path="url(#clip422)" cx="2215.17" cy="1015.22" r="14" fill="#add8e6" fill-rule="evenodd" fill-opacity="1" stroke="#000000" stroke-opacity="1" stroke-width="2.4"/>
</svg>
