<?xml version="1.0" encoding="utf-8"?>
<svg xmlns="http://www.w3.org/2000/svg" xmlns:xlink="http://www.w3.org/1999/xlink" width="600" height="400" viewBox="0 0 2400 1600">
<defs>
  <clipPath id="clip800">
    <rect x="0" y="0" width="2400" height="1600"/>
  </clipPath>
</defs>
<path clip-path="url(#clip800)" d="
M0 1600 L2400 1600 L2400 0 L0 0  Z
  " fill="#ffffff" fill-rule="evenodd" fill-opacity="1"/>
<defs>
  <clipPath id="clip801">
    <rect x="480" y="0" width="1681" height="1600"/>
  </clipPath>
</defs>
<path clip-path="url(#clip800)" d="
M249.542 1423.18 L2352.76 1423.18 L2352.76 123.472 L249.542 123.472  Z
  " fill="#ffffff" fill-rule="evenodd" fill-opacity="1"/>
<defs>
  <clipPath id="clip802">
    <rect x="249" y="123" width="2104" height="1301"/>
  </clipPath>
</defs>
<polyline clip-path="url(#clip802)" style="stroke:#000000; stroke-linecap:butt; stroke-linejoin:round; stroke-width:2; stroke-opacity:0.1; fill:none" points="
  301.651,1423.18 301.651,123.472 
  "/>
<polyline clip-path="url(#clip802)" style="stroke:#000000; stroke-linecap:butt; stroke-linejoin:round; stroke-width:2; stroke-opacity:0.1; fill:none" points="
  831.397,1423.18 831.397,123.472 
  "/>
<polyline clip-path="url(#clip802)" style="stroke:#000000; stroke-linecap:butt; stroke-linejoin:round; stroke-width:2; stroke-opacity:0.1; fill:none" points="
  1361.14,1423.18 1361.14,123.472 
  "/>
<polyline clip-path="url(#clip802)" style="stroke:#000000; stroke-linecap:butt; stroke-linejoin:round; stroke-width:2; stroke-opacity:0.1; fill:none" points="
  1890.89,1423.18 1890.89,123.472 
  "/>
<polyline clip-path="url(#clip800)" style="stroke:#000000; stroke-linecap:butt; stroke-linejoin:round; stroke-width:4; stroke-opacity:1; fill:none" points="
  249.542,1423.18 2352.76,1423.18 
  "/>
<polyline clip-path="url(#clip800)" style="stroke:#000000; stroke-linecap:butt; stroke-linejoin:round; stroke-width:4; stroke-opacity:1; fill:none" points="
  301.651,1423.18 301.651,1404.28 
  "/>
<polyline clip-path="url(#clip800)" style="stroke:#000000; stroke-linecap:butt; stroke-linejoin:round; stroke-width:4; stroke-opacity:1; fill:none" points="
  831.397,1423.18 831.397,1404.28 
  "/>
<polyline clip-path="url(#clip800)" style="stroke:#000000; stroke-linecap:butt; stroke-linejoin:round; stroke-width:4; stroke-opacity:1; fill:none" points="
  1361.14,1423.18 1361.14,1404.28 
  "/>
<polyline clip-path="url(#clip800)" style="stroke:#000000; stroke-linecap:butt; stroke-linejoin:round; stroke-width:4; stroke-opacity:1; fill:none" points="
  1890.89,1423.18 1890.89,1404.28 
  "/>
<path clip-path="url(#clip800)" d="M301.651 1454.1 Q298.039 1454.1 296.211 1457.66 Q294.405 1461.2 294.405 1468.33 Q294.405 1475.44 296.211 1479.01 Q298.039 1482.55 301.651 1482.55 Q305.285 1482.55 307.09 1479.01 Q308.919 1475.44 308.919 1468.33 Q308.919 1461.2 307.09 1457.66 Q305.285 1454.1 301.651 1454.1 M301.651 1450.39 Q307.461 1450.39 310.516 1455 Q313.595 1459.58 313.595 1468.33 Q313.595 1477.06 310.516 1481.67 Q307.461 1486.25 301.651 1486.25 Q295.84 1486.25 292.762 1481.67 Q289.706 1477.06 289.706 1468.33 Q289.706 1459.58 292.762 1455 Q295.84 1450.39 301.651 1450.39 Z" fill="#000000" fill-rule="evenodd" fill-opacity="1" /><path clip-path="url(#clip800)" d="M810.17 1481.64 L826.489 1481.64 L826.489 1485.58 L804.545 1485.58 L804.545 1481.64 Q807.207 1478.89 811.79 1474.26 Q816.397 1469.61 817.577 1468.27 Q819.823 1465.74 820.702 1464.01 Q821.605 1462.25 821.605 1460.56 Q821.605 1457.8 819.661 1456.07 Q817.739 1454.33 814.637 1454.33 Q812.438 1454.33 809.985 1455.09 Q807.554 1455.86 804.776 1457.41 L804.776 1452.69 Q807.6 1451.55 810.054 1450.97 Q812.508 1450.39 814.545 1450.39 Q819.915 1450.39 823.11 1453.08 Q826.304 1455.77 826.304 1460.26 Q826.304 1462.39 825.494 1464.31 Q824.707 1466.2 822.6 1468.8 Q822.022 1469.47 818.92 1472.69 Q815.818 1475.88 810.17 1481.64 Z" fill="#000000" fill-rule="evenodd" fill-opacity="1" /><path clip-path="url(#clip800)" d="M846.304 1454.1 Q842.693 1454.1 840.864 1457.66 Q839.059 1461.2 839.059 1468.33 Q839.059 1475.44 840.864 1479.01 Q842.693 1482.55 846.304 1482.55 Q849.938 1482.55 851.744 1479.01 Q853.572 1475.44 853.572 1468.33 Q853.572 1461.2 851.744 1457.66 Q849.938 1454.1 846.304 1454.1 M846.304 1450.39 Q852.114 1450.39 855.17 1455 Q858.248 1459.58 858.248 1468.33 Q858.248 1477.06 855.17 1481.67 Q852.114 1486.25 846.304 1486.25 Q840.494 1486.25 837.415 1481.67 Q834.36 1477.06 834.36 1468.33 Q834.36 1459.58 837.415 1455 Q840.494 1450.39 846.304 1450.39 Z" fill="#000000" fill-rule="evenodd" fill-opacity="1" /><path clip-path="url(#clip800)" d="M1349.31 1455.09 L1337.51 1473.54 L1349.31 1473.54 L1349.31 1455.09 M1348.09 1451.02 L1353.97 1451.02 L1353.97 1473.54 L1358.9 1473.54 L1358.9 1477.43 L1353.97 1477.43 L1353.97 1485.58 L1349.31 1485.58 L1349.31 1477.43 L1333.71 1477.43 L1333.71 1472.92 L1348.09 1451.02 Z" fill="#000000" fill-rule="evenodd" fill-opacity="1" /><path clip-path="url(#clip800)" d="M1376.63 1454.1 Q1373.02 1454.1 1371.19 1457.66 Q1369.38 1461.2 1369.38 1468.33 Q1369.38 1475.44 1371.19 1479.01 Q1373.02 1482.55 1376.63 1482.55 Q1380.26 1482.55 1382.07 1479.01 Q1383.9 1475.44 1383.9 1468.33 Q1383.9 1461.2 1382.07 1457.66 Q1380.26 1454.1 1376.63 1454.1 M1376.63 1450.39 Q1382.44 1450.39 1385.49 1455 Q1388.57 1459.58 1388.57 1468.33 Q1388.57 1477.06 1385.49 1481.67 Q1382.44 1486.25 1376.63 1486.25 Q1370.82 1486.25 1367.74 1481.67 Q1364.68 1477.06 1364.68 1468.33 Q1364.68 1459.58 1367.74 1455 Q1370.82 1450.39 1376.63 1450.39 Z" fill="#000000" fill-rule="evenodd" fill-opacity="1" /><path clip-path="url(#clip800)" d="M1876.29 1466.44 Q1873.15 1466.44 1871.29 1468.59 Q1869.47 1470.74 1869.47 1474.49 Q1869.47 1478.22 1871.29 1480.39 Q1873.15 1482.55 1876.29 1482.55 Q1879.44 1482.55 1881.27 1480.39 Q1883.12 1478.22 1883.12 1474.49 Q1883.12 1470.74 1881.27 1468.59 Q1879.44 1466.44 1876.29 1466.44 M1885.58 1451.78 L1885.58 1456.04 Q1883.82 1455.21 1882.01 1454.77 Q1880.23 1454.33 1878.47 1454.33 Q1873.84 1454.33 1871.39 1457.45 Q1868.96 1460.58 1868.61 1466.9 Q1869.97 1464.89 1872.03 1463.82 Q1874.09 1462.73 1876.57 1462.73 Q1881.78 1462.73 1884.79 1465.9 Q1887.82 1469.05 1887.82 1474.49 Q1887.82 1479.82 1884.67 1483.03 Q1881.53 1486.25 1876.29 1486.25 Q1870.3 1486.25 1867.13 1481.67 Q1863.96 1477.06 1863.96 1468.33 Q1863.96 1460.14 1867.84 1455.28 Q1871.73 1450.39 1878.28 1450.39 Q1880.04 1450.39 1881.83 1450.74 Q1883.63 1451.09 1885.58 1451.78 Z" fill="#000000" fill-rule="evenodd" fill-opacity="1" /><path clip-path="url(#clip800)" d="M1905.88 1454.1 Q1902.27 1454.1 1900.44 1457.66 Q1898.63 1461.2 1898.63 1468.33 Q1898.63 1475.44 1900.44 1479.01 Q1902.27 1482.55 1905.88 1482.55 Q1909.51 1482.55 1911.32 1479.01 Q1913.15 1475.44 1913.15 1468.33 Q1913.15 1461.2 1911.32 1457.66 Q1909.51 1454.1 1905.88 1454.1 M1905.88 1450.39 Q1911.69 1450.39 1914.74 1455 Q1917.82 1459.58 1917.82 1468.33 Q1917.82 1477.06 1914.74 1481.67 Q1911.69 1486.25 1905.88 1486.25 Q1900.07 1486.25 1896.99 1481.67 Q1893.93 1477.06 1893.93 1468.33 Q1893.93 1459.58 1896.99 1455 Q1900.07 1450.39 1905.88 1450.39 Z" fill="#000000" fill-rule="evenodd" fill-opacity="1" /><path clip-path="url(#clip800)" d="M904.645 1525.81 L904.645 1562.76 L912.411 1562.76 Q922.246 1562.76 926.798 1558.3 Q931.381 1553.85 931.381 1544.24 Q931.381 1534.69 926.798 1530.26 Q922.246 1525.81 912.411 1525.81 L904.645 1525.81 M898.216 1520.52 L911.424 1520.52 Q925.238 1520.52 931.699 1526.28 Q938.16 1532.01 938.16 1544.24 Q938.16 1556.52 931.667 1562.28 Q925.174 1568.04 911.424 1568.04 L898.216 1568.04 L898.216 1520.52 Z" fill="#000000" fill-rule="evenodd" fill-opacity="1" /><path clip-path="url(#clip800)" d="M948.155 1532.4 L954.011 1532.4 L954.011 1568.04 L948.155 1568.04 L948.155 1532.4 M948.155 1518.52 L954.011 1518.52 L954.011 1525.93 L948.155 1525.93 L948.155 1518.52 Z" fill="#000000" fill-rule="evenodd" fill-opacity="1" /><path clip-path="url(#clip800)" d="M988.991 1533.45 L988.991 1538.98 Q986.508 1537.71 983.834 1537.07 Q981.161 1536.44 978.296 1536.44 Q973.936 1536.44 971.74 1537.77 Q969.575 1539.11 969.575 1541.79 Q969.575 1543.82 971.135 1545 Q972.694 1546.15 977.405 1547.2 L979.41 1547.64 Q985.649 1548.98 988.259 1551.43 Q990.9 1553.85 990.9 1558.21 Q990.9 1563.17 986.954 1566.07 Q983.039 1568.97 976.164 1568.97 Q973.299 1568.97 970.18 1568.39 Q967.093 1567.85 963.655 1566.74 L963.655 1560.69 Q966.902 1562.38 970.053 1563.24 Q973.204 1564.07 976.291 1564.07 Q980.429 1564.07 982.657 1562.66 Q984.885 1561.23 984.885 1558.65 Q984.885 1556.27 983.261 1554.99 Q981.67 1553.72 976.227 1552.54 L974.19 1552.07 Q968.748 1550.92 966.329 1548.56 Q963.91 1546.18 963.91 1542.04 Q963.91 1537.01 967.475 1534.27 Q971.039 1531.54 977.596 1531.54 Q980.843 1531.54 983.707 1532.01 Q986.572 1532.49 988.991 1533.45 Z" fill="#000000" fill-rule="evenodd" fill-opacity="1" /><path clip-path="url(#clip800)" d="M1006.02 1522.27 L1006.02 1532.4 L1018.08 1532.4 L1018.08 1536.95 L1006.02 1536.95 L1006.02 1556.3 Q1006.02 1560.66 1007.2 1561.9 Q1008.41 1563.14 1012.07 1563.14 L1018.08 1563.14 L1018.08 1568.04 L1012.07 1568.04 Q1005.29 1568.04 1002.71 1565.53 Q1000.13 1562.98 1000.13 1556.3 L1000.13 1536.95 L995.834 1536.95 L995.834 1532.4 L1000.13 1532.4 L1000.13 1522.27 L1006.02 1522.27 Z" fill="#000000" fill-rule="evenodd" fill-opacity="1" /><path clip-path="url(#clip800)" d="M1041.99 1550.12 Q1034.89 1550.12 1032.15 1551.75 Q1029.41 1553.37 1029.41 1557.29 Q1029.41 1560.4 1031.45 1562.25 Q1033.52 1564.07 1037.05 1564.07 Q1041.92 1564.07 1044.85 1560.63 Q1047.81 1557.16 1047.81 1551.43 L1047.81 1550.12 L1041.99 1550.12 M1053.67 1547.71 L1053.67 1568.04 L1047.81 1568.04 L1047.81 1562.63 Q1045.8 1565.88 1042.81 1567.44 Q1039.82 1568.97 1035.49 1568.97 Q1030.02 1568.97 1026.77 1565.91 Q1023.56 1562.82 1023.56 1557.67 Q1023.56 1551.65 1027.57 1548.6 Q1031.61 1545.54 1039.6 1545.54 L1047.81 1545.54 L1047.81 1544.97 Q1047.81 1540.93 1045.14 1538.73 Q1042.49 1536.5 1037.69 1536.5 Q1034.63 1536.5 1031.74 1537.23 Q1028.84 1537.97 1026.17 1539.43 L1026.17 1534.02 Q1029.38 1532.78 1032.4 1532.17 Q1035.43 1531.54 1038.29 1531.54 Q1046.03 1531.54 1049.85 1535.55 Q1053.67 1539.56 1053.67 1547.71 Z" fill="#000000" fill-rule="evenodd" fill-opacity="1" /><path clip-path="url(#clip800)" d="M1095.36 1546.53 L1095.36 1568.04 L1089.51 1568.04 L1089.51 1546.72 Q1089.51 1541.66 1087.53 1539.14 Q1085.56 1536.63 1081.61 1536.63 Q1076.87 1536.63 1074.13 1539.65 Q1071.39 1542.68 1071.39 1547.9 L1071.39 1568.04 L1065.51 1568.04 L1065.51 1532.4 L1071.39 1532.4 L1071.39 1537.93 Q1073.5 1534.72 1076.33 1533.13 Q1079.19 1531.54 1082.92 1531.54 Q1089.06 1531.54 1092.21 1535.36 Q1095.36 1539.14 1095.36 1546.53 Z" fill="#000000" fill-rule="evenodd" fill-opacity="1" /><path clip-path="url(#clip800)" d="M1132.7 1533.76 L1132.7 1539.24 Q1130.21 1537.87 1127.7 1537.2 Q1125.22 1536.5 1122.67 1536.5 Q1116.97 1536.5 1113.82 1540.13 Q1110.67 1543.73 1110.67 1550.25 Q1110.67 1556.78 1113.82 1560.4 Q1116.97 1564 1122.67 1564 Q1125.22 1564 1127.7 1563.33 Q1130.21 1562.63 1132.7 1561.26 L1132.7 1566.68 Q1130.25 1567.82 1127.6 1568.39 Q1124.99 1568.97 1122.03 1568.97 Q1113.98 1568.97 1109.24 1563.91 Q1104.5 1558.85 1104.5 1550.25 Q1104.5 1541.53 1109.27 1536.53 Q1114.08 1531.54 1122.42 1531.54 Q1125.12 1531.54 1127.7 1532.11 Q1130.28 1532.65 1132.7 1533.76 Z" fill="#000000" fill-rule="evenodd" fill-opacity="1" /><path clip-path="url(#clip800)" d="M1173.37 1548.76 L1173.37 1551.62 L1146.45 1551.62 Q1146.83 1557.67 1150.07 1560.85 Q1153.35 1564 1159.18 1564 Q1162.55 1564 1165.7 1563.17 Q1168.89 1562.35 1172 1560.69 L1172 1566.23 Q1168.85 1567.57 1165.54 1568.27 Q1162.23 1568.97 1158.83 1568.97 Q1150.3 1568.97 1145.3 1564 Q1140.34 1559.04 1140.34 1550.57 Q1140.34 1541.82 1145.05 1536.69 Q1149.79 1531.54 1157.81 1531.54 Q1165 1531.54 1169.17 1536.18 Q1173.37 1540.8 1173.37 1548.76 M1167.52 1547.04 Q1167.45 1542.23 1164.81 1539.37 Q1162.2 1536.5 1157.87 1536.5 Q1152.97 1536.5 1150.01 1539.27 Q1147.08 1542.04 1146.64 1547.07 L1167.52 1547.04 Z" fill="#000000" fill-rule="evenodd" fill-opacity="1" /><path clip-path="url(#clip800)" d="M1221.75 1518.52 L1221.75 1523.39 L1216.15 1523.39 Q1213 1523.39 1211.76 1524.66 Q1210.55 1525.93 1210.55 1529.24 L1210.55 1532.4 L1220.19 1532.4 L1220.19 1536.95 L1210.55 1536.95 L1210.55 1568.04 L1204.66 1568.04 L1204.66 1536.95 L1199.06 1536.95 L1199.06 1532.4 L1204.66 1532.4 L1204.66 1529.91 Q1204.66 1523.96 1207.43 1521.26 Q1210.2 1518.52 1216.21 1518.52 L1221.75 1518.52 Z" fill="#000000" fill-rule="evenodd" fill-opacity="1" /><path clip-path="url(#clip800)" d="M1247.31 1537.87 Q1246.32 1537.3 1245.15 1537.04 Q1244 1536.76 1242.6 1536.76 Q1237.64 1536.76 1234.96 1540 Q1232.32 1543.22 1232.32 1549.27 L1232.32 1568.04 L1226.43 1568.04 L1226.43 1532.4 L1232.32 1532.4 L1232.32 1537.93 Q1234.17 1534.69 1237.13 1533.13 Q1240.09 1531.54 1244.32 1531.54 Q1244.92 1531.54 1245.66 1531.63 Q1246.39 1531.7 1247.28 1531.85 L1247.31 1537.87 Z" fill="#000000" fill-rule="evenodd" fill-opacity="1" /><path clip-path="url(#clip800)" d="M1265.84 1536.5 Q1261.12 1536.5 1258.39 1540.19 Q1255.65 1543.85 1255.65 1550.25 Q1255.65 1556.65 1258.36 1560.34 Q1261.09 1564 1265.84 1564 Q1270.51 1564 1273.25 1560.31 Q1275.99 1556.62 1275.99 1550.25 Q1275.99 1543.92 1273.25 1540.23 Q1270.51 1536.5 1265.84 1536.5 M1265.84 1531.54 Q1273.47 1531.54 1277.83 1536.5 Q1282.2 1541.47 1282.2 1550.25 Q1282.2 1559 1277.83 1564 Q1273.47 1568.97 1265.84 1568.97 Q1258.16 1568.97 1253.8 1564 Q1249.48 1559 1249.48 1550.25 Q1249.48 1541.47 1253.8 1536.5 Q1258.16 1531.54 1265.84 1531.54 Z" fill="#000000" fill-rule="evenodd" fill-opacity="1" /><path clip-path="url(#clip800)" d="M1319.66 1539.24 Q1321.85 1535.29 1324.91 1533.41 Q1327.96 1531.54 1332.1 1531.54 Q1337.67 1531.54 1340.7 1535.45 Q1343.72 1539.33 1343.72 1546.53 L1343.72 1568.04 L1337.83 1568.04 L1337.83 1546.72 Q1337.83 1541.59 1336.02 1539.11 Q1334.2 1536.63 1330.48 1536.63 Q1325.93 1536.63 1323.29 1539.65 Q1320.64 1542.68 1320.64 1547.9 L1320.64 1568.04 L1314.76 1568.04 L1314.76 1546.72 Q1314.76 1541.56 1312.94 1539.11 Q1311.13 1536.63 1307.34 1536.63 Q1302.85 1536.63 1300.21 1539.68 Q1297.57 1542.71 1297.57 1547.9 L1297.57 1568.04 L1291.68 1568.04 L1291.68 1532.4 L1297.57 1532.4 L1297.57 1537.93 Q1299.57 1534.66 1302.37 1533.1 Q1305.18 1531.54 1309.03 1531.54 Q1312.91 1531.54 1315.62 1533.51 Q1318.35 1535.48 1319.66 1539.24 Z" fill="#000000" fill-rule="evenodd" fill-opacity="1" /><path clip-path="url(#clip800)" d="M1405.75 1546.53 L1405.75 1568.04 L1399.9 1568.04 L1399.9 1546.72 Q1399.9 1541.66 1397.92 1539.14 Q1395.95 1536.63 1392 1536.63 Q1387.26 1536.63 1384.52 1539.65 Q1381.79 1542.68 1381.79 1547.9 L1381.79 1568.04 L1375.9 1568.04 L1375.9 1518.52 L1381.79 1518.52 L1381.79 1537.93 Q1383.89 1534.72 1386.72 1533.13 Q1389.58 1531.54 1393.31 1531.54 Q1399.45 1531.54 1402.6 1535.36 Q1405.75 1539.14 1405.75 1546.53 Z" fill="#000000" fill-rule="evenodd" fill-opacity="1" /><path clip-path="url(#clip800)" d="M1431.25 1536.5 Q1426.54 1536.5 1423.8 1540.19 Q1421.06 1543.85 1421.06 1550.25 Q1421.06 1556.65 1423.77 1560.34 Q1426.51 1564 1431.25 1564 Q1435.93 1564 1438.66 1560.31 Q1441.4 1556.62 1441.4 1550.25 Q1441.4 1543.92 1438.66 1540.23 Q1435.93 1536.5 1431.25 1536.5 M1431.25 1531.54 Q1438.89 1531.54 1443.25 1536.5 Q1447.61 1541.47 1447.61 1550.25 Q1447.61 1559 1443.25 1564 Q1438.89 1568.97 1431.25 1568.97 Q1423.58 1568.97 1419.22 1564 Q1414.89 1559 1414.89 1550.25 Q1414.89 1541.47 1419.22 1536.5 Q1423.58 1531.54 1431.25 1531.54 Z" fill="#000000" fill-rule="evenodd" fill-opacity="1" /><path clip-path="url(#clip800)" d="M1457.32 1518.52 L1463.17 1518.52 L1463.17 1568.04 L1457.32 1568.04 L1457.32 1518.52 Z" fill="#000000" fill-rule="evenodd" fill-opacity="1" /><path clip-path="url(#clip800)" d="M1505.92 1548.76 L1505.92 1551.62 L1478.99 1551.62 Q1479.37 1557.67 1482.62 1560.85 Q1485.9 1564 1491.72 1564 Q1495.1 1564 1498.25 1563.17 Q1501.43 1562.35 1504.55 1560.69 L1504.55 1566.23 Q1501.4 1567.57 1498.09 1568.27 Q1494.78 1568.97 1491.37 1568.97 Q1482.84 1568.97 1477.85 1564 Q1472.88 1559.04 1472.88 1550.57 Q1472.88 1541.82 1477.59 1536.69 Q1482.33 1531.54 1490.35 1531.54 Q1497.55 1531.54 1501.72 1536.18 Q1505.92 1540.8 1505.92 1548.76 M1500.06 1547.04 Q1500 1542.23 1497.36 1539.37 Q1494.75 1536.5 1490.42 1536.5 Q1485.52 1536.5 1482.56 1539.27 Q1479.63 1542.04 1479.18 1547.07 L1500.06 1547.04 Z" fill="#000000" fill-rule="evenodd" fill-opacity="1" /><path clip-path="url(#clip800)" d="M1550.32 1518.58 Q1546.05 1525.9 1543.98 1533.06 Q1541.92 1540.23 1541.92 1547.58 Q1541.92 1554.93 1543.98 1562.16 Q1546.09 1569.35 1550.32 1576.64 L1545.23 1576.64 Q1540.45 1569.16 1538.06 1561.93 Q1535.71 1554.71 1535.71 1547.58 Q1535.71 1540.48 1538.06 1533.29 Q1540.42 1526.09 1545.23 1518.58 L1550.32 1518.58 Z" fill="#000000" fill-rule="evenodd" fill-opacity="1" /><path clip-path="url(#clip800)" d="M1579.73 1518.52 L1579.73 1523.39 L1574.13 1523.39 Q1570.98 1523.39 1569.73 1524.66 Q1568.52 1525.93 1568.52 1529.24 L1568.52 1532.4 L1578.17 1532.4 L1578.17 1536.95 L1568.52 1536.95 L1568.52 1568.04 L1562.64 1568.04 L1562.64 1536.95 L1557.03 1536.95 L1557.03 1532.4 L1562.64 1532.4 L1562.64 1529.91 Q1562.64 1523.96 1565.41 1521.26 Q1568.17 1518.52 1574.19 1518.52 L1579.73 1518.52 Z" fill="#000000" fill-rule="evenodd" fill-opacity="1" /><path clip-path="url(#clip800)" d="M1615.12 1548.76 L1615.12 1551.62 L1588.19 1551.62 Q1588.58 1557.67 1591.82 1560.85 Q1595.1 1564 1600.93 1564 Q1604.3 1564 1607.45 1563.17 Q1610.63 1562.35 1613.75 1560.69 L1613.75 1566.23 Q1610.6 1567.57 1607.29 1568.27 Q1603.98 1568.97 1600.58 1568.97 Q1592.05 1568.97 1587.05 1564 Q1582.08 1559.04 1582.08 1550.57 Q1582.08 1541.82 1586.79 1536.69 Q1591.54 1531.54 1599.56 1531.54 Q1606.75 1531.54 1610.92 1536.18 Q1615.12 1540.8 1615.12 1548.76 M1609.27 1547.04 Q1609.2 1542.23 1606.56 1539.37 Q1603.95 1536.5 1599.62 1536.5 Q1594.72 1536.5 1591.76 1539.27 Q1588.83 1542.04 1588.39 1547.07 L1609.27 1547.04 Z" fill="#000000" fill-rule="evenodd" fill-opacity="1" /><path clip-path="url(#clip800)" d="M1655.23 1548.76 L1655.23 1551.62 L1628.3 1551.62 Q1628.68 1557.67 1631.93 1560.85 Q1635.21 1564 1641.03 1564 Q1644.4 1564 1647.55 1563.17 Q1650.74 1562.35 1653.86 1560.69 L1653.86 1566.23 Q1650.71 1567.57 1647.4 1568.27 Q1644.09 1568.97 1640.68 1568.97 Q1632.15 1568.97 1627.15 1564 Q1622.19 1559.04 1622.19 1550.57 Q1622.19 1541.82 1626.9 1536.69 Q1631.64 1531.54 1639.66 1531.54 Q1646.85 1531.54 1651.02 1536.18 Q1655.23 1540.8 1655.23 1548.76 M1649.37 1547.04 Q1649.31 1542.23 1646.66 1539.37 Q1644.05 1536.5 1639.72 1536.5 Q1634.82 1536.5 1631.86 1539.27 Q1628.94 1542.04 1628.49 1547.07 L1649.37 1547.04 Z" fill="#000000" fill-rule="evenodd" fill-opacity="1" /><path clip-path="url(#clip800)" d="M1670.63 1522.27 L1670.63 1532.4 L1682.69 1532.4 L1682.69 1536.95 L1670.63 1536.95 L1670.63 1556.3 Q1670.63 1560.66 1671.81 1561.9 Q1673.02 1563.14 1676.68 1563.14 L1682.69 1563.14 L1682.69 1568.04 L1676.68 1568.04 Q1669.9 1568.04 1667.32 1565.53 Q1664.74 1562.98 1664.74 1556.3 L1664.74 1536.95 L1660.45 1536.95 L1660.45 1532.4 L1664.74 1532.4 L1664.74 1522.27 L1670.63 1522.27 Z" fill="#000000" fill-rule="evenodd" fill-opacity="1" /><path clip-path="url(#clip800)" d="M1689.47 1518.58 L1694.57 1518.58 Q1699.34 1526.09 1701.7 1533.29 Q1704.08 1540.48 1704.08 1547.58 Q1704.08 1554.71 1701.7 1561.93 Q1699.34 1569.16 1694.57 1576.64 L1689.47 1576.64 Q1693.71 1569.35 1695.78 1562.16 Q1697.88 1554.93 1697.88 1547.58 Q1697.88 1540.23 1695.78 1533.06 Q1693.71 1525.9 1689.47 1518.58 Z" fill="#000000" fill-rule="evenodd" fill-opacity="1" /><polyline clip-path="url(#clip802)" style="stroke:#000000; stroke-linecap:butt; stroke-linejoin:round; stroke-width:2; stroke-opacity:0.1; fill:none" points="
  249.542,1398.07 2352.76,1398.07 
  "/>
<polyline clip-path="url(#clip802)" style="stroke:#000000; stroke-linecap:butt; stroke-linejoin:round; stroke-width:2; stroke-opacity:0.1; fill:none" points="
  249.542,1088.62 2352.76,1088.62 
  "/>
<polyline clip-path="url(#clip802)" style="stroke:#000000; stroke-linecap:butt; stroke-linejoin:round; stroke-width:2; stroke-opacity:0.1; fill:none" points="
  249.542,779.164 2352.76,779.164 
  "/>
<polyline clip-path="url(#clip802)" style="stroke:#000000; stroke-linecap:butt; stroke-linejoin:round; stroke-width:2; stroke-opacity:0.1; fill:none" points="
  249.542,469.71 2352.76,469.71 
  "/>
<polyline clip-path="url(#clip802)" style="stroke:#000000; stroke-linecap:butt; stroke-linejoin:round; stroke-width:2; stroke-opacity:0.1; fill:none" points="
  249.542,160.256 2352.76,160.256 
  "/>
<polyline clip-path="url(#clip800)" style="stroke:#000000; stroke-linecap:butt; stroke-linejoin:round; stroke-width:4; stroke-opacity:1; fill:none" points="
  249.542,1423.18 249.542,123.472 
  "/>
<polyline clip-path="url(#clip800)" style="stroke:#000000; stroke-linecap:butt; stroke-linejoin:round; stroke-width:4; stroke-opacity:1; fill:none" points="
  249.542,1398.07 268.44,1398.07 
  "/>
<polyline clip-path="url(#clip800)" style="stroke:#000000; stroke-linecap:butt; stroke-linejoin:round; stroke-width:4; stroke-opacity:1; fill:none" points="
  249.542,1088.62 268.44,1088.62 
  "/>
<polyline clip-path="url(#clip800)" style="stroke:#000000; stroke-linecap:butt; stroke-linejoin:round; stroke-width:4; stroke-opacity:1; fill:none" points="
  249.542,779.164 268.44,779.164 
  "/>
<polyline clip-path="url(#clip800)" style="stroke:#000000; stroke-linecap:butt; stroke-linejoin:round; stroke-width:4; stroke-opacity:1; fill:none" points="
  249.542,469.71 268.44,469.71 
  "/>
<polyline clip-path="url(#clip800)" style="stroke:#000000; stroke-linecap:butt; stroke-linejoin:round; stroke-width:4; stroke-opacity:1; fill:none" points="
  249.542,160.256 268.44,160.256 
  "/>
<path clip-path="url(#clip800)" d="M126.205 1383.87 Q122.593 1383.87 120.765 1387.43 Q118.959 1390.98 118.959 1398.11 Q118.959 1405.21 120.765 1408.78 Q122.593 1412.32 126.205 1412.32 Q129.839 1412.32 131.644 1408.78 Q133.473 1405.21 133.473 1398.11 Q133.473 1390.98 131.644 1387.43 Q129.839 1383.87 126.205 1383.87 M126.205 1380.17 Q132.015 1380.17 135.07 1384.77 Q138.149 1389.36 138.149 1398.11 Q138.149 1406.83 135.07 1411.44 Q132.015 1416.02 126.205 1416.02 Q120.394 1416.02 117.316 1411.44 Q114.26 1406.83 114.26 1398.11 Q114.26 1389.36 117.316 1384.77 Q120.394 1380.17 126.205 1380.17 Z" fill="#000000" fill-rule="evenodd" fill-opacity="1" /><path clip-path="url(#clip800)" d="M146.366 1409.47 L151.251 1409.47 L151.251 1415.35 L146.366 1415.35 L146.366 1409.47 Z" fill="#000000" fill-rule="evenodd" fill-opacity="1" /><path clip-path="url(#clip800)" d="M171.436 1383.87 Q167.825 1383.87 165.996 1387.43 Q164.19 1390.98 164.19 1398.11 Q164.19 1405.21 165.996 1408.78 Q167.825 1412.32 171.436 1412.32 Q175.07 1412.32 176.876 1408.78 Q178.704 1405.21 178.704 1398.11 Q178.704 1390.98 176.876 1387.43 Q175.07 1383.87 171.436 1383.87 M171.436 1380.17 Q177.246 1380.17 180.301 1384.77 Q183.38 1389.36 183.38 1398.11 Q183.38 1406.83 180.301 1411.44 Q177.246 1416.02 171.436 1416.02 Q165.626 1416.02 162.547 1411.44 Q159.491 1406.83 159.491 1398.11 Q159.491 1389.36 162.547 1384.77 Q165.626 1380.17 171.436 1380.17 Z" fill="#000000" fill-rule="evenodd" fill-opacity="1" /><path clip-path="url(#clip800)" d="M201.598 1383.87 Q197.987 1383.87 196.158 1387.43 Q194.352 1390.98 194.352 1398.11 Q194.352 1405.21 196.158 1408.78 Q197.987 1412.32 201.598 1412.32 Q205.232 1412.32 207.037 1408.78 Q208.866 1405.21 208.866 1398.11 Q208.866 1390.98 207.037 1387.43 Q205.232 1383.87 201.598 1383.87 M201.598 1380.17 Q207.408 1380.17 210.463 1384.77 Q213.542 1389.36 213.542 1398.11 Q213.542 1406.83 210.463 1411.44 Q207.408 1416.02 201.598 1416.02 Q195.787 1416.02 192.709 1411.44 Q189.653 1406.83 189.653 1398.11 Q189.653 1389.36 192.709 1384.77 Q195.787 1380.17 201.598 1380.17 Z" fill="#000000" fill-rule="evenodd" fill-opacity="1" /><path clip-path="url(#clip800)" d="M127.2 1074.42 Q123.589 1074.42 121.76 1077.98 Q119.955 1081.52 119.955 1088.65 Q119.955 1095.76 121.76 1099.32 Q123.589 1102.87 127.2 1102.87 Q130.834 1102.87 132.64 1099.32 Q134.468 1095.76 134.468 1088.65 Q134.468 1081.52 132.64 1077.98 Q130.834 1074.42 127.2 1074.42 M127.2 1070.71 Q133.01 1070.71 136.066 1075.32 Q139.144 1079.9 139.144 1088.65 Q139.144 1097.38 136.066 1101.99 Q133.01 1106.57 127.2 1106.57 Q121.39 1106.57 118.311 1101.99 Q115.256 1097.38 115.256 1088.65 Q115.256 1079.9 118.311 1075.32 Q121.39 1070.71 127.2 1070.71 Z" fill="#000000" fill-rule="evenodd" fill-opacity="1" /><path clip-path="url(#clip800)" d="M147.362 1100.02 L152.246 1100.02 L152.246 1105.9 L147.362 1105.9 L147.362 1100.02 Z" fill="#000000" fill-rule="evenodd" fill-opacity="1" /><path clip-path="url(#clip800)" d="M166.459 1101.96 L182.778 1101.96 L182.778 1105.9 L160.834 1105.9 L160.834 1101.96 Q163.496 1099.21 168.079 1094.58 Q172.686 1089.93 173.866 1088.58 Q176.112 1086.06 176.991 1084.32 Q177.894 1082.56 177.894 1080.87 Q177.894 1078.12 175.95 1076.38 Q174.028 1074.65 170.927 1074.65 Q168.727 1074.65 166.274 1075.41 Q163.843 1076.18 161.065 1077.73 L161.065 1073 Q163.89 1071.87 166.343 1071.29 Q168.797 1070.71 170.834 1070.71 Q176.204 1070.71 179.399 1073.4 Q182.593 1076.08 182.593 1080.57 Q182.593 1082.7 181.783 1084.62 Q180.996 1086.52 178.889 1089.12 Q178.311 1089.79 175.209 1093 Q172.107 1096.2 166.459 1101.96 Z" fill="#000000" fill-rule="evenodd" fill-opacity="1" /><path clip-path="url(#clip800)" d="M192.639 1071.34 L210.996 1071.34 L210.996 1075.27 L196.922 1075.27 L196.922 1083.74 Q197.94 1083.4 198.959 1083.24 Q199.977 1083.05 200.996 1083.05 Q206.783 1083.05 210.162 1086.22 Q213.542 1089.39 213.542 1094.81 Q213.542 1100.39 210.07 1103.49 Q206.598 1106.57 200.278 1106.57 Q198.102 1106.57 195.834 1106.2 Q193.588 1105.83 191.181 1105.09 L191.181 1100.39 Q193.264 1101.52 195.487 1102.08 Q197.709 1102.63 200.186 1102.63 Q204.19 1102.63 206.528 1100.53 Q208.866 1098.42 208.866 1094.81 Q208.866 1091.2 206.528 1089.09 Q204.19 1086.99 200.186 1086.99 Q198.311 1086.99 196.436 1087.4 Q194.584 1087.82 192.639 1088.7 L192.639 1071.34 Z" fill="#000000" fill-rule="evenodd" fill-opacity="1" /><path clip-path="url(#clip800)" d="M126.205 764.962 Q122.593 764.962 120.765 768.527 Q118.959 772.069 118.959 779.198 Q118.959 786.305 120.765 789.87 Q122.593 793.411 126.205 793.411 Q129.839 793.411 131.644 789.87 Q133.473 786.305 133.473 779.198 Q133.473 772.069 131.644 768.527 Q129.839 764.962 126.205 764.962 M126.205 761.259 Q132.015 761.259 135.07 765.865 Q138.149 770.448 138.149 779.198 Q138.149 787.925 135.07 792.532 Q132.015 797.115 126.205 797.115 Q120.394 797.115 117.316 792.532 Q114.26 787.925 114.26 779.198 Q114.26 770.448 117.316 765.865 Q120.394 761.259 126.205 761.259 Z" fill="#000000" fill-rule="evenodd" fill-opacity="1" /><path clip-path="url(#clip800)" d="M146.366 790.564 L151.251 790.564 L151.251 796.444 L146.366 796.444 L146.366 790.564 Z" fill="#000000" fill-rule="evenodd" fill-opacity="1" /><path clip-path="url(#clip800)" d="M161.482 761.884 L179.839 761.884 L179.839 765.819 L165.765 765.819 L165.765 774.291 Q166.783 773.944 167.802 773.782 Q168.82 773.597 169.839 773.597 Q175.626 773.597 179.005 776.768 Q182.385 779.939 182.385 785.356 Q182.385 790.934 178.913 794.036 Q175.44 797.115 169.121 797.115 Q166.945 797.115 164.677 796.745 Q162.431 796.374 160.024 795.634 L160.024 790.934 Q162.107 792.069 164.329 792.624 Q166.552 793.18 169.028 793.18 Q173.033 793.18 175.371 791.073 Q177.709 788.967 177.709 785.356 Q177.709 781.745 175.371 779.638 Q173.033 777.532 169.028 777.532 Q167.153 777.532 165.278 777.948 Q163.427 778.365 161.482 779.245 L161.482 761.884 Z" fill="#000000" fill-rule="evenodd" fill-opacity="1" /><path clip-path="url(#clip800)" d="M201.598 764.962 Q197.987 764.962 196.158 768.527 Q194.352 772.069 194.352 779.198 Q194.352 786.305 196.158 789.87 Q197.987 793.411 201.598 793.411 Q205.232 793.411 207.037 789.87 Q208.866 786.305 208.866 779.198 Q208.866 772.069 207.037 768.527 Q205.232 764.962 201.598 764.962 M201.598 761.259 Q207.408 761.259 210.463 765.865 Q213.542 770.448 213.542 779.198 Q213.542 787.925 210.463 792.532 Q207.408 797.115 201.598 797.115 Q195.787 797.115 192.709 792.532 Q189.653 787.925 189.653 779.198 Q189.653 770.448 192.709 765.865 Q195.787 761.259 201.598 761.259 Z" fill="#000000" fill-rule="evenodd" fill-opacity="1" /><path clip-path="url(#clip800)" d="M127.2 455.509 Q123.589 455.509 121.76 459.073 Q119.955 462.615 119.955 469.745 Q119.955 476.851 121.76 480.416 Q123.589 483.958 127.2 483.958 Q130.834 483.958 132.64 480.416 Q134.468 476.851 134.468 469.745 Q134.468 462.615 132.64 459.073 Q130.834 455.509 127.2 455.509 M127.2 451.805 Q133.01 451.805 136.066 456.411 Q139.144 460.995 139.144 469.745 Q139.144 478.472 136.066 483.078 Q133.01 487.661 127.2 487.661 Q121.39 487.661 118.311 483.078 Q115.256 478.472 115.256 469.745 Q115.256 460.995 118.311 456.411 Q121.39 451.805 127.2 451.805 Z" fill="#000000" fill-rule="evenodd" fill-opacity="1" /><path clip-path="url(#clip800)" d="M147.362 481.11 L152.246 481.11 L152.246 486.99 L147.362 486.99 L147.362 481.11 Z" fill="#000000" fill-rule="evenodd" fill-opacity="1" /><path clip-path="url(#clip800)" d="M161.251 452.43 L183.473 452.43 L183.473 454.421 L170.927 486.99 L166.042 486.99 L177.848 456.365 L161.251 456.365 L161.251 452.43 Z" fill="#000000" fill-rule="evenodd" fill-opacity="1" /><path clip-path="url(#clip800)" d="M192.639 452.43 L210.996 452.43 L210.996 456.365 L196.922 456.365 L196.922 464.837 Q197.94 464.49 198.959 464.328 Q199.977 464.143 200.996 464.143 Q206.783 464.143 210.162 467.314 Q213.542 470.485 213.542 475.902 Q213.542 481.481 210.07 484.583 Q206.598 487.661 200.278 487.661 Q198.102 487.661 195.834 487.291 Q193.588 486.921 191.181 486.18 L191.181 481.481 Q193.264 482.615 195.487 483.171 Q197.709 483.726 200.186 483.726 Q204.19 483.726 206.528 481.62 Q208.866 479.513 208.866 475.902 Q208.866 472.291 206.528 470.185 Q204.19 468.078 200.186 468.078 Q198.311 468.078 196.436 468.495 Q194.584 468.911 192.639 469.791 L192.639 452.43 Z" fill="#000000" fill-rule="evenodd" fill-opacity="1" /><path clip-path="url(#clip800)" d="M117.015 173.601 L124.654 173.601 L124.654 147.236 L116.343 148.902 L116.343 144.643 L124.607 142.976 L129.283 142.976 L129.283 173.601 L136.922 173.601 L136.922 177.536 L117.015 177.536 L117.015 173.601 Z" fill="#000000" fill-rule="evenodd" fill-opacity="1" /><path clip-path="url(#clip800)" d="M146.366 171.657 L151.251 171.657 L151.251 177.536 L146.366 177.536 L146.366 171.657 Z" fill="#000000" fill-rule="evenodd" fill-opacity="1" /><path clip-path="url(#clip800)" d="M171.436 146.055 Q167.825 146.055 165.996 149.62 Q164.19 153.161 164.19 160.291 Q164.19 167.397 165.996 170.962 Q167.825 174.504 171.436 174.504 Q175.07 174.504 176.876 170.962 Q178.704 167.397 178.704 160.291 Q178.704 153.161 176.876 149.62 Q175.07 146.055 171.436 146.055 M171.436 142.351 Q177.246 142.351 180.301 146.958 Q183.38 151.541 183.38 160.291 Q183.38 169.018 180.301 173.624 Q177.246 178.208 171.436 178.208 Q165.626 178.208 162.547 173.624 Q159.491 169.018 159.491 160.291 Q159.491 151.541 162.547 146.958 Q165.626 142.351 171.436 142.351 Z" fill="#000000" fill-rule="evenodd" fill-opacity="1" /><path clip-path="url(#clip800)" d="M201.598 146.055 Q197.987 146.055 196.158 149.62 Q194.352 153.161 194.352 160.291 Q194.352 167.397 196.158 170.962 Q197.987 174.504 201.598 174.504 Q205.232 174.504 207.037 170.962 Q208.866 167.397 208.866 160.291 Q208.866 153.161 207.037 149.62 Q205.232 146.055 201.598 146.055 M201.598 142.351 Q207.408 142.351 210.463 146.958 Q213.542 151.541 213.542 160.291 Q213.542 169.018 210.463 173.624 Q207.408 178.208 201.598 178.208 Q195.787 178.208 192.709 173.624 Q189.653 169.018 189.653 160.291 Q189.653 151.541 192.709 146.958 Q195.787 142.351 201.598 142.351 Z" fill="#000000" fill-rule="evenodd" fill-opacity="1" /><path clip-path="url(#clip800)" d="M21.7677 1114.02 L39.6235 1114.02 L39.6235 1105.93 Q39.6235 1101.45 37.3 1099 Q34.9765 1096.54 30.6797 1096.54 Q26.4147 1096.54 24.0912 1099 Q21.7677 1101.45 21.7677 1105.93 L21.7677 1114.02 M16.4842 1120.45 L16.4842 1105.93 Q16.4842 1097.95 20.1126 1093.87 Q23.7092 1089.77 30.6797 1089.77 Q37.7138 1089.77 41.3104 1093.87 Q44.907 1097.95 44.907 1105.93 L44.907 1114.02 L64.0042 1114.02 L64.0042 1120.45 L16.4842 1120.45 Z" fill="#000000" fill-rule="evenodd" fill-opacity="1" /><path clip-path="url(#clip800)" d="M33.8307 1061.88 Q33.2578 1062.87 33.0032 1064.05 Q32.7167 1065.19 32.7167 1066.59 Q32.7167 1071.56 35.9632 1074.23 Q39.1779 1076.87 45.2253 1076.87 L64.0042 1076.87 L64.0042 1082.76 L28.3562 1082.76 L28.3562 1076.87 L33.8944 1076.87 Q30.6479 1075.03 29.0883 1072.07 Q27.4968 1069.11 27.4968 1064.88 Q27.4968 1064.27 27.5923 1063.54 Q27.656 1062.81 27.8151 1061.92 L33.8307 1061.88 Z" fill="#000000" fill-rule="evenodd" fill-opacity="1" /><path clip-path="url(#clip800)" d="M32.4621 1043.36 Q32.4621 1048.07 36.1542 1050.81 Q39.8145 1053.54 46.212 1053.54 Q52.6095 1053.54 56.3017 1050.84 Q59.9619 1048.1 59.9619 1043.36 Q59.9619 1038.68 56.2698 1035.94 Q52.5777 1033.21 46.212 1033.21 Q39.8781 1033.21 36.186 1035.94 Q32.4621 1038.68 32.4621 1043.36 M27.4968 1043.36 Q27.4968 1035.72 32.4621 1031.36 Q37.4273 1027 46.212 1027 Q54.9649 1027 59.9619 1031.36 Q64.9272 1035.72 64.9272 1043.36 Q64.9272 1051.03 59.9619 1055.39 Q54.9649 1059.72 46.212 1059.72 Q37.4273 1059.72 32.4621 1055.39 Q27.4968 1051.03 27.4968 1043.36 Z" fill="#000000" fill-rule="evenodd" fill-opacity="1" /><path clip-path="url(#clip800)" d="M46.212 991.702 Q39.7508 991.702 36.0905 994.375 Q32.3984 997.017 32.3984 1001.66 Q32.3984 1006.31 36.0905 1008.98 Q39.7508 1011.63 46.212 1011.63 Q52.6732 1011.63 56.3653 1008.98 Q60.0256 1006.31 60.0256 1001.66 Q60.0256 997.017 56.3653 994.375 Q52.6732 991.702 46.212 991.702 M33.7671 1011.63 Q30.5842 1009.78 29.0564 1006.98 Q27.4968 1004.15 27.4968 1000.23 Q27.4968 993.739 32.6531 989.696 Q37.8093 985.622 46.212 985.622 Q54.6147 985.622 59.771 989.696 Q64.9272 993.739 64.9272 1000.23 Q64.9272 1004.15 63.3994 1006.98 Q61.8398 1009.78 58.657 1011.63 L64.0042 1011.63 L64.0042 1017.51 L14.479 1017.51 L14.479 1011.63 L33.7671 1011.63 Z" fill="#000000" fill-rule="evenodd" fill-opacity="1" /><path clip-path="url(#clip800)" d="M46.0847 959.714 Q46.0847 966.812 47.7079 969.549 Q49.3312 972.286 53.2461 972.286 Q56.3653 972.286 58.2114 970.249 Q60.0256 968.18 60.0256 964.647 Q60.0256 959.778 56.5881 956.849 Q53.1188 953.889 47.3897 953.889 L46.0847 953.889 L46.0847 959.714 M43.6657 948.033 L64.0042 948.033 L64.0042 953.889 L58.5933 953.889 Q61.8398 955.894 63.3994 958.886 Q64.9272 961.878 64.9272 966.207 Q64.9272 971.681 61.8716 974.928 Q58.7843 978.143 53.6281 978.143 Q47.6125 978.143 44.5569 974.132 Q41.5014 970.09 41.5014 962.101 L41.5014 953.889 L40.9285 953.889 Q36.8862 953.889 34.6901 956.563 Q32.4621 959.205 32.4621 964.011 Q32.4621 967.066 33.1941 969.963 Q33.9262 972.859 35.3903 975.533 L29.9795 975.533 Q28.7381 972.318 28.1334 969.294 Q27.4968 966.271 27.4968 963.406 Q27.4968 955.672 31.5072 951.852 Q35.5176 948.033 43.6657 948.033 Z" fill="#000000" fill-rule="evenodd" fill-opacity="1" /><path clip-path="url(#clip800)" d="M46.212 910.38 Q39.7508 910.38 36.0905 913.053 Q32.3984 915.695 32.3984 920.342 Q32.3984 924.989 36.0905 927.663 Q39.7508 930.304 46.212 930.304 Q52.6732 930.304 56.3653 927.663 Q60.0256 924.989 60.0256 920.342 Q60.0256 915.695 56.3653 913.053 Q52.6732 910.38 46.212 910.38 M33.7671 930.304 Q30.5842 928.458 29.0564 925.657 Q27.4968 922.825 27.4968 918.91 Q27.4968 912.417 32.6531 908.374 Q37.8093 904.3 46.212 904.3 Q54.6147 904.3 59.771 908.374 Q64.9272 912.417 64.9272 918.91 Q64.9272 922.825 63.3994 925.657 Q61.8398 928.458 58.657 930.304 L64.0042 930.304 L64.0042 936.193 L14.479 936.193 L14.479 930.304 L33.7671 930.304 Z" fill="#000000" fill-rule="evenodd" fill-opacity="1" /><path clip-path="url(#clip800)" d="M28.3562 894.593 L28.3562 888.736 L64.0042 888.736 L64.0042 894.593 L28.3562 894.593 M14.479 894.593 L14.479 888.736 L21.895 888.736 L21.895 894.593 L14.479 894.593 Z" fill="#000000" fill-rule="evenodd" fill-opacity="1" /><path clip-path="url(#clip800)" d="M14.479 876.482 L14.479 870.626 L64.0042 870.626 L64.0042 876.482 L14.479 876.482 Z" fill="#000000" fill-rule="evenodd" fill-opacity="1" /><path clip-path="url(#clip800)" d="M28.3562 858.372 L28.3562 852.515 L64.0042 852.515 L64.0042 858.372 L28.3562 858.372 M14.479 858.372 L14.479 852.515 L21.895 852.515 L21.895 858.372 L14.479 858.372 Z" fill="#000000" fill-rule="evenodd" fill-opacity="1" /><path clip-path="url(#clip800)" d="M18.2347 834.469 L28.3562 834.469 L28.3562 822.406 L32.9077 822.406 L32.9077 834.469 L52.2594 834.469 Q56.6199 834.469 57.8613 833.291 Q59.1026 832.081 59.1026 828.421 L59.1026 822.406 L64.0042 822.406 L64.0042 828.421 Q64.0042 835.201 61.4897 837.779 Q58.9434 840.357 52.2594 840.357 L32.9077 840.357 L32.9077 844.654 L28.3562 844.654 L28.3562 840.357 L18.2347 840.357 L18.2347 834.469 Z" fill="#000000" fill-rule="evenodd" fill-opacity="1" /><path clip-path="url(#clip800)" d="M67.3143 799.871 Q73.68 802.354 75.6216 804.709 Q77.5631 807.064 77.5631 811.011 L77.5631 815.69 L72.6615 815.69 L72.6615 812.252 Q72.6615 809.833 71.5157 808.497 Q70.3699 807.16 66.1048 805.536 L63.4312 804.486 L28.3562 818.904 L28.3562 812.698 L56.238 801.558 L28.3562 790.418 L28.3562 784.211 L67.3143 799.871 Z" fill="#000000" fill-rule="evenodd" fill-opacity="1" /><path clip-path="url(#clip800)" d="M32.4621 741.593 Q32.4621 746.304 36.1542 749.041 Q39.8145 751.778 46.212 751.778 Q52.6095 751.778 56.3017 749.073 Q59.9619 746.335 59.9619 741.593 Q59.9619 736.914 56.2698 734.177 Q52.5777 731.44 46.212 731.44 Q39.8781 731.44 36.186 734.177 Q32.4621 736.914 32.4621 741.593 M27.4968 741.593 Q27.4968 733.954 32.4621 729.594 Q37.4273 725.233 46.212 725.233 Q54.9649 725.233 59.9619 729.594 Q64.9272 733.954 64.9272 741.593 Q64.9272 749.264 59.9619 753.624 Q54.9649 757.953 46.212 757.953 Q37.4273 757.953 32.4621 753.624 Q27.4968 749.264 27.4968 741.593 Z" fill="#000000" fill-rule="evenodd" fill-opacity="1" /><path clip-path="url(#clip800)" d="M14.479 697.479 L19.3487 697.479 L19.3487 703.08 Q19.3487 706.231 20.6219 707.473 Q21.895 708.682 25.2052 708.682 L28.3562 708.682 L28.3562 699.038 L32.9077 699.038 L32.9077 708.682 L64.0042 708.682 L64.0042 714.571 L32.9077 714.571 L32.9077 720.172 L28.3562 720.172 L28.3562 714.571 L25.8736 714.571 Q19.9216 714.571 17.2162 711.801 Q14.479 709.032 14.479 703.017 L14.479 697.479 Z" fill="#000000" fill-rule="evenodd" fill-opacity="1" /><path clip-path="url(#clip800)" d="M29.4065 649.131 L34.9447 649.131 Q33.6716 651.614 33.035 654.287 Q32.3984 656.961 32.3984 659.825 Q32.3984 664.186 33.7352 666.382 Q35.072 668.546 37.7456 668.546 Q39.7826 668.546 40.9603 666.987 Q42.1061 665.427 43.1565 660.717 L43.6021 658.711 Q44.9389 652.473 47.3897 649.863 Q49.8086 647.221 54.1691 647.221 Q59.1344 647.221 62.0308 651.168 Q64.9272 655.083 64.9272 661.958 Q64.9272 664.823 64.3543 667.942 Q63.8132 671.029 62.6992 674.467 L56.6518 674.467 Q58.3387 671.22 59.198 668.069 Q60.0256 664.918 60.0256 661.831 Q60.0256 657.693 58.6251 655.465 Q57.1929 653.237 54.6147 653.237 Q52.2276 653.237 50.9545 654.86 Q49.6813 656.452 48.5037 661.894 L48.0262 663.931 Q46.8804 669.374 44.5251 671.793 Q42.138 674.212 38.0002 674.212 Q32.9713 674.212 30.2341 670.647 Q27.4968 667.082 27.4968 660.526 Q27.4968 657.279 27.9743 654.415 Q28.4517 651.55 29.4065 649.131 Z" fill="#000000" fill-rule="evenodd" fill-opacity="1" /><path clip-path="url(#clip800)" d="M49.9359 638.5 L28.3562 638.5 L28.3562 632.644 L49.7131 632.644 Q54.7739 632.644 57.3202 630.67 Q59.8346 628.697 59.8346 624.75 Q59.8346 620.008 56.8109 617.271 Q53.7872 614.502 48.5673 614.502 L28.3562 614.502 L28.3562 608.645 L64.0042 608.645 L64.0042 614.502 L58.5296 614.502 Q61.7762 616.634 63.3676 619.467 Q64.9272 622.268 64.9272 625.992 Q64.9272 632.135 61.1078 635.317 Q57.2883 638.5 49.9359 638.5 M27.4968 623.764 L27.4968 623.764 Z" fill="#000000" fill-rule="evenodd" fill-opacity="1" /><path clip-path="url(#clip800)" d="M29.7248 570.928 L35.1993 570.928 Q33.8307 573.411 33.1623 575.925 Q32.4621 578.408 32.4621 580.954 Q32.4621 586.652 36.0905 589.803 Q39.6872 592.954 46.212 592.954 Q52.7369 592.954 56.3653 589.803 Q59.9619 586.652 59.9619 580.954 Q59.9619 578.408 59.2935 575.925 Q58.5933 573.411 57.2247 570.928 L62.6355 570.928 Q63.7814 573.379 64.3543 576.021 Q64.9272 578.631 64.9272 581.591 Q64.9272 589.644 59.8664 594.386 Q54.8057 599.128 46.212 599.128 Q37.491 599.128 32.4939 594.354 Q27.4968 589.548 27.4968 581.209 Q27.4968 578.504 28.0697 575.925 Q28.6108 573.347 29.7248 570.928 Z" fill="#000000" fill-rule="evenodd" fill-opacity="1" /><path clip-path="url(#clip800)" d="M29.7248 535.089 L35.1993 535.089 Q33.8307 537.572 33.1623 540.086 Q32.4621 542.569 32.4621 545.115 Q32.4621 550.813 36.0905 553.964 Q39.6872 557.115 46.212 557.115 Q52.7369 557.115 56.3653 553.964 Q59.9619 550.813 59.9619 545.115 Q59.9619 542.569 59.2935 540.086 Q58.5933 537.572 57.2247 535.089 L62.6355 535.089 Q63.7814 537.54 64.3543 540.182 Q64.9272 542.792 64.9272 545.752 Q64.9272 553.805 59.8664 558.547 Q54.8057 563.289 46.212 563.289 Q37.491 563.289 32.4939 558.515 Q27.4968 553.709 27.4968 545.37 Q27.4968 542.665 28.0697 540.086 Q28.6108 537.508 29.7248 535.089 Z" fill="#000000" fill-rule="evenodd" fill-opacity="1" /><path clip-path="url(#clip800)" d="M44.7161 494.413 L47.5806 494.413 L47.5806 521.339 Q53.6281 520.958 56.8109 517.711 Q59.9619 514.433 59.9619 508.608 Q59.9619 505.234 59.1344 502.083 Q58.3069 498.9 56.6518 495.781 L62.1899 495.781 Q63.5267 498.932 64.227 502.242 Q64.9272 505.553 64.9272 508.958 Q64.9272 517.488 59.9619 522.485 Q54.9967 527.451 46.5303 527.451 Q37.7774 527.451 32.6531 522.74 Q27.4968 517.997 27.4968 509.977 Q27.4968 502.783 32.1438 498.614 Q36.7589 494.413 44.7161 494.413 M42.9973 500.269 Q38.1912 500.333 35.3266 502.974 Q32.4621 505.584 32.4621 509.913 Q32.4621 514.815 35.2312 517.775 Q38.0002 520.703 43.0292 521.149 L42.9973 500.269 Z" fill="#000000" fill-rule="evenodd" fill-opacity="1" /><path clip-path="url(#clip800)" d="M29.4065 462.075 L34.9447 462.075 Q33.6716 464.557 33.035 467.231 Q32.3984 469.905 32.3984 472.769 Q32.3984 477.13 33.7352 479.326 Q35.072 481.49 37.7456 481.49 Q39.7826 481.49 40.9603 479.931 Q42.1061 478.371 43.1565 473.66 L43.6021 471.655 Q44.9389 465.417 47.3897 462.807 Q49.8086 460.165 54.1691 460.165 Q59.1344 460.165 62.0308 464.112 Q64.9272 468.027 64.9272 474.902 Q64.9272 477.766 64.3543 480.885 Q63.8132 483.973 62.6992 487.41 L56.6518 487.41 Q58.3387 484.164 59.198 481.013 Q60.0256 477.862 60.0256 474.774 Q60.0256 470.637 58.6251 468.409 Q57.1929 466.181 54.6147 466.181 Q52.2276 466.181 50.9545 467.804 Q49.6813 469.395 48.5037 474.838 L48.0262 476.875 Q46.8804 482.318 44.5251 484.737 Q42.138 487.156 38.0002 487.156 Q32.9713 487.156 30.2341 483.591 Q27.4968 480.026 27.4968 473.469 Q27.4968 470.223 27.9743 467.358 Q28.4517 464.494 29.4065 462.075 Z" fill="#000000" fill-rule="evenodd" fill-opacity="1" /><path clip-path="url(#clip800)" d="M29.4065 428.114 L34.9447 428.114 Q33.6716 430.596 33.035 433.27 Q32.3984 435.944 32.3984 438.808 Q32.3984 443.169 33.7352 445.365 Q35.072 447.529 37.7456 447.529 Q39.7826 447.529 40.9603 445.97 Q42.1061 444.41 43.1565 439.699 L43.6021 437.694 Q44.9389 431.456 47.3897 428.846 Q49.8086 426.204 54.1691 426.204 Q59.1344 426.204 62.0308 430.151 Q64.9272 434.066 64.9272 440.941 Q64.9272 443.805 64.3543 446.924 Q63.8132 450.012 62.6992 453.449 L56.6518 453.449 Q58.3387 450.203 59.198 447.052 Q60.0256 443.901 60.0256 440.813 Q60.0256 436.676 58.6251 434.448 Q57.1929 432.22 54.6147 432.22 Q52.2276 432.22 50.9545 433.843 Q49.6813 435.434 48.5037 440.877 L48.0262 442.914 Q46.8804 448.357 44.5251 450.776 Q42.138 453.195 38.0002 453.195 Q32.9713 453.195 30.2341 449.63 Q27.4968 446.065 27.4968 439.508 Q27.4968 436.262 27.9743 433.397 Q28.4517 430.533 29.4065 428.114 Z" fill="#000000" fill-rule="evenodd" fill-opacity="1" /><path clip-path="url(#clip800)" d="M880.057 12.096 L891.076 12.096 L917.893 62.6918 L917.893 12.096 L925.833 12.096 L925.833 72.576 L914.814 72.576 L887.997 21.9802 L887.997 72.576 L880.057 72.576 L880.057 12.096 Z" fill="#000000" fill-rule="evenodd" fill-opacity="1" /><path clip-path="url(#clip800)" d="M980.601 48.0275 L980.601 51.6733 L946.33 51.6733 Q946.816 59.3701 950.948 63.421 Q955.121 67.4314 962.534 67.4314 Q966.828 67.4314 970.838 66.3781 Q974.889 65.3249 978.859 63.2184 L978.859 70.267 Q974.849 71.9684 970.636 72.8596 Q966.423 73.7508 962.088 73.7508 Q951.232 73.7508 944.872 67.4314 Q938.553 61.1119 938.553 50.3365 Q938.553 39.1965 944.548 32.6746 Q950.584 26.1121 960.792 26.1121 Q969.947 26.1121 975.254 32.0264 Q980.601 37.9003 980.601 48.0275 M973.147 45.84 Q973.066 39.7232 969.704 36.0774 Q966.382 32.4315 960.873 32.4315 Q954.635 32.4315 950.867 35.9558 Q947.14 39.4801 946.573 45.8805 L973.147 45.84 Z" fill="#000000" fill-rule="evenodd" fill-opacity="1" /><path clip-path="url(#clip800)" d="M988.5 27.2059 L995.954 27.2059 L1005.27 62.6108 L1014.55 27.2059 L1023.34 27.2059 L1032.66 62.6108 L1041.93 27.2059 L1049.39 27.2059 L1037.52 72.576 L1028.73 72.576 L1018.96 35.3887 L1009.16 72.576 L1000.37 72.576 L988.5 27.2059 Z" fill="#000000" fill-rule="evenodd" fill-opacity="1" /><path clip-path="url(#clip800)" d="M1116.91 34.0924 L1116.91 9.54393 L1124.37 9.54393 L1124.37 72.576 L1116.91 72.576 L1116.91 65.7705 Q1114.56 69.8214 1110.96 71.8063 Q1107.39 73.7508 1102.37 73.7508 Q1094.15 73.7508 1088.96 67.1883 Q1083.82 60.6258 1083.82 49.9314 Q1083.82 39.2371 1088.96 32.6746 Q1094.15 26.1121 1102.37 26.1121 Q1107.39 26.1121 1110.96 28.0971 Q1114.56 30.0415 1116.91 34.0924 M1091.51 49.9314 Q1091.51 58.1548 1094.88 62.8538 Q1098.28 67.5124 1104.19 67.5124 Q1110.11 67.5124 1113.51 62.8538 Q1116.91 58.1548 1116.91 49.9314 Q1116.91 41.7081 1113.51 37.0496 Q1110.11 32.3505 1104.19 32.3505 Q1098.28 32.3505 1094.88 37.0496 Q1091.51 41.7081 1091.51 49.9314 Z" fill="#000000" fill-rule="evenodd" fill-opacity="1" /><path clip-path="url(#clip800)" d="M1160.34 49.7694 Q1151.31 49.7694 1147.82 51.8354 Q1144.34 53.9013 1144.34 58.8839 Q1144.34 62.8538 1146.93 65.2034 Q1149.56 67.5124 1154.06 67.5124 Q1160.26 67.5124 1163.99 63.1374 Q1167.75 58.7219 1167.75 51.4303 L1167.75 49.7694 L1160.34 49.7694 M1175.21 46.6907 L1175.21 72.576 L1167.75 72.576 L1167.75 65.6895 Q1165.2 69.8214 1161.39 71.8063 Q1157.58 73.7508 1152.08 73.7508 Q1145.11 73.7508 1140.98 69.8619 Q1136.88 65.9325 1136.88 59.3701 Q1136.88 51.7138 1141.99 47.825 Q1147.13 43.9361 1157.3 43.9361 L1167.75 43.9361 L1167.75 43.2069 Q1167.75 38.0623 1164.35 35.2672 Q1160.99 32.4315 1154.87 32.4315 Q1150.98 32.4315 1147.3 33.3632 Q1143.61 34.295 1140.21 36.1584 L1140.21 29.2718 Q1144.3 27.692 1148.15 26.9223 Q1151.99 26.1121 1155.64 26.1121 Q1165.48 26.1121 1170.35 31.2163 Q1175.21 36.3204 1175.21 46.6907 Z" fill="#000000" fill-rule="evenodd" fill-opacity="1" /><path clip-path="url(#clip800)" d="M1197.93 14.324 L1197.93 27.2059 L1213.28 27.2059 L1213.28 32.9987 L1197.93 32.9987 L1197.93 57.6282 Q1197.93 63.1779 1199.43 64.7578 Q1200.97 66.3376 1205.63 66.3376 L1213.28 66.3376 L1213.28 72.576 L1205.63 72.576 Q1197 72.576 1193.72 69.3758 Q1190.44 66.1351 1190.44 57.6282 L1190.44 32.9987 L1184.97 32.9987 L1184.97 27.2059 L1190.44 27.2059 L1190.44 14.324 L1197.93 14.324 Z" fill="#000000" fill-rule="evenodd" fill-opacity="1" /><path clip-path="url(#clip800)" d="M1243.71 49.7694 Q1234.67 49.7694 1231.19 51.8354 Q1227.71 53.9013 1227.71 58.8839 Q1227.71 62.8538 1230.3 65.2034 Q1232.93 67.5124 1237.43 67.5124 Q1243.63 67.5124 1247.35 63.1374 Q1251.12 58.7219 1251.12 51.4303 L1251.12 49.7694 L1243.71 49.7694 M1258.57 46.6907 L1258.57 72.576 L1251.12 72.576 L1251.12 65.6895 Q1248.57 69.8214 1244.76 71.8063 Q1240.95 73.7508 1235.44 73.7508 Q1228.48 73.7508 1224.34 69.8619 Q1220.25 65.9325 1220.25 59.3701 Q1220.25 51.7138 1225.36 47.825 Q1230.5 43.9361 1240.67 43.9361 L1251.12 43.9361 L1251.12 43.2069 Q1251.12 38.0623 1247.72 35.2672 Q1244.36 32.4315 1238.24 32.4315 Q1234.35 32.4315 1230.66 33.3632 Q1226.98 34.295 1223.57 36.1584 L1223.57 29.2718 Q1227.67 27.692 1231.51 26.9223 Q1235.36 26.1121 1239.01 26.1121 Q1248.85 26.1121 1253.71 31.2163 Q1258.57 36.3204 1258.57 46.6907 Z" fill="#000000" fill-rule="evenodd" fill-opacity="1" /><path clip-path="url(#clip800)" d="M1275.83 62.2867 L1284.38 62.2867 L1284.38 69.2543 L1277.73 82.2172 L1272.51 82.2172 L1275.83 69.2543 L1275.83 62.2867 Z" fill="#000000" fill-rule="evenodd" fill-opacity="1" /><path clip-path="url(#clip800)" d="M1344.25 32.4315 Q1338.26 32.4315 1334.77 37.1306 Q1331.29 41.7891 1331.29 49.9314 Q1331.29 58.0738 1334.73 62.7728 Q1338.21 67.4314 1344.25 67.4314 Q1350.21 67.4314 1353.69 62.7323 Q1357.17 58.0333 1357.17 49.9314 Q1357.17 41.8701 1353.69 37.1711 Q1350.21 32.4315 1344.25 32.4315 M1344.25 26.1121 Q1353.97 26.1121 1359.52 32.4315 Q1365.07 38.7509 1365.07 49.9314 Q1365.07 61.0714 1359.52 67.4314 Q1353.97 73.7508 1344.25 73.7508 Q1334.49 73.7508 1328.94 67.4314 Q1323.43 61.0714 1323.43 49.9314 Q1323.43 38.7509 1328.94 32.4315 Q1334.49 26.1121 1344.25 26.1121 Z" fill="#000000" fill-rule="evenodd" fill-opacity="1" /><path clip-path="url(#clip800)" d="M1377.43 9.54393 L1384.88 9.54393 L1384.88 72.576 L1377.43 72.576 L1377.43 9.54393 Z" fill="#000000" fill-rule="evenodd" fill-opacity="1" /><path clip-path="url(#clip800)" d="M1430.33 34.0924 L1430.33 9.54393 L1437.79 9.54393 L1437.79 72.576 L1430.33 72.576 L1430.33 65.7705 Q1427.98 69.8214 1424.38 71.8063 Q1420.81 73.7508 1415.79 73.7508 Q1407.57 73.7508 1402.38 67.1883 Q1397.24 60.6258 1397.24 49.9314 Q1397.24 39.2371 1402.38 32.6746 Q1407.57 26.1121 1415.79 26.1121 Q1420.81 26.1121 1424.38 28.0971 Q1427.98 30.0415 1430.33 34.0924 M1404.93 49.9314 Q1404.93 58.1548 1408.3 62.8538 Q1411.7 67.5124 1417.61 67.5124 Q1423.53 67.5124 1426.93 62.8538 Q1430.33 58.1548 1430.33 49.9314 Q1430.33 41.7081 1426.93 37.0496 Q1423.53 32.3505 1417.61 32.3505 Q1411.7 32.3505 1408.3 37.0496 Q1404.93 41.7081 1404.93 49.9314 Z" fill="#000000" fill-rule="evenodd" fill-opacity="1" /><path clip-path="url(#clip800)" d="M1514.83 35.9153 Q1517.63 30.8922 1521.52 28.5022 Q1525.41 26.1121 1530.67 26.1121 Q1537.76 26.1121 1541.61 31.0947 Q1545.46 36.0368 1545.46 45.1919 L1545.46 72.576 L1537.96 72.576 L1537.96 45.4349 Q1537.96 38.913 1535.66 35.7533 Q1533.35 32.5936 1528.61 32.5936 Q1522.81 32.5936 1519.45 36.4419 Q1516.09 40.2903 1516.09 46.9338 L1516.09 72.576 L1508.6 72.576 L1508.6 45.4349 Q1508.6 38.8725 1506.29 35.7533 Q1503.98 32.5936 1499.16 32.5936 Q1493.45 32.5936 1490.08 36.4824 Q1486.72 40.3308 1486.72 46.9338 L1486.72 72.576 L1479.23 72.576 L1479.23 27.2059 L1486.72 27.2059 L1486.72 34.2544 Q1489.27 30.082 1492.84 28.0971 Q1496.4 26.1121 1501.3 26.1121 Q1506.25 26.1121 1509.69 28.6237 Q1513.17 31.1352 1514.83 35.9153 Z" fill="#000000" fill-rule="evenodd" fill-opacity="1" /><path clip-path="url(#clip800)" d="M1577.91 32.4315 Q1571.91 32.4315 1568.43 37.1306 Q1564.94 41.7891 1564.94 49.9314 Q1564.94 58.0738 1568.39 62.7728 Q1571.87 67.4314 1577.91 67.4314 Q1583.86 67.4314 1587.35 62.7323 Q1590.83 58.0333 1590.83 49.9314 Q1590.83 41.8701 1587.35 37.1711 Q1583.86 32.4315 1577.91 32.4315 M1577.91 26.1121 Q1587.63 26.1121 1593.18 32.4315 Q1598.73 38.7509 1598.73 49.9314 Q1598.73 61.0714 1593.18 67.4314 Q1587.63 73.7508 1577.91 73.7508 Q1568.14 73.7508 1562.59 67.4314 Q1557.09 61.0714 1557.09 49.9314 Q1557.09 38.7509 1562.59 32.4315 Q1568.14 26.1121 1577.91 26.1121 Z" fill="#000000" fill-rule="evenodd" fill-opacity="1" /><path clip-path="url(#clip800)" d="M1640.94 34.0924 L1640.94 9.54393 L1648.39 9.54393 L1648.39 72.576 L1640.94 72.576 L1640.94 65.7705 Q1638.59 69.8214 1634.98 71.8063 Q1631.42 73.7508 1626.4 73.7508 Q1618.17 73.7508 1612.99 67.1883 Q1607.84 60.6258 1607.84 49.9314 Q1607.84 39.2371 1612.99 32.6746 Q1618.17 26.1121 1626.4 26.1121 Q1631.42 26.1121 1634.98 28.0971 Q1638.59 30.0415 1640.94 34.0924 M1615.54 49.9314 Q1615.54 58.1548 1618.9 62.8538 Q1622.3 67.5124 1628.22 67.5124 Q1634.13 67.5124 1637.54 62.8538 Q1640.94 58.1548 1640.94 49.9314 Q1640.94 41.7081 1637.54 37.0496 Q1634.13 32.3505 1628.22 32.3505 Q1622.3 32.3505 1618.9 37.0496 Q1615.54 41.7081 1615.54 49.9314 Z" fill="#000000" fill-rule="evenodd" fill-opacity="1" /><path clip-path="url(#clip800)" d="M1702.55 48.0275 L1702.55 51.6733 L1668.28 51.6733 Q1668.77 59.3701 1672.9 63.421 Q1677.07 67.4314 1684.49 67.4314 Q1688.78 67.4314 1692.79 66.3781 Q1696.84 65.3249 1700.81 63.2184 L1700.81 70.267 Q1696.8 71.9684 1692.59 72.8596 Q1688.37 73.7508 1684.04 73.7508 Q1673.18 73.7508 1666.82 67.4314 Q1660.5 61.1119 1660.5 50.3365 Q1660.5 39.1965 1666.5 32.6746 Q1672.54 26.1121 1682.74 26.1121 Q1691.9 26.1121 1697.21 32.0264 Q1702.55 37.9003 1702.55 48.0275 M1695.1 45.84 Q1695.02 39.7232 1691.66 36.0774 Q1688.33 32.4315 1682.83 32.4315 Q1676.59 32.4315 1672.82 35.9558 Q1669.09 39.4801 1668.53 45.8805 L1695.1 45.84 Z" fill="#000000" fill-rule="evenodd" fill-opacity="1" /><path clip-path="url(#clip800)" d="M1714.79 9.54393 L1722.24 9.54393 L1722.24 72.576 L1714.79 72.576 L1714.79 9.54393 Z" fill="#000000" fill-rule="evenodd" fill-opacity="1" /><polyline clip-path="url(#clip802)" style="stroke:#0000ff; stroke-linecap:butt; stroke-linejoin:round; stroke-width:6; stroke-opacity:1; fill:none" points="
  309.067,160.256 327.343,184.289 352.771,458.319 378.993,702.783 405.746,859.291 432.498,960.996 458.985,1030.74 485.737,1082.11 512.225,1120.71 538.712,1151.01 
  565.199,1175.39 591.687,1195.43 618.174,1212.17 644.661,1226.38 683.862,1243.83 736.837,1262.48 790.076,1277.18 843.051,1288.96 883.047,1296.44 947.676,1306.58 
  1053.89,1319.47 1159.57,1329.13 1265.52,1336.7 1370.94,1342.74 1477.16,1347.74 1582.84,1351.89 1688.53,1355.4 1818.05,1359.05 1976.44,1362.74 2134.04,1365.77 
  2293.23,1368.35 
  "/>
<polyline clip-path="url(#clip802)" style="stroke:#000000; stroke-linecap:butt; stroke-linejoin:round; stroke-width:4; stroke-opacity:1; fill:none" points="
  309.067,160.773 309.067,160.561 
  "/>
<polyline clip-path="url(#clip802)" style="stroke:#000000; stroke-linecap:butt; stroke-linejoin:round; stroke-width:4; stroke-opacity:1; fill:none" points="
  327.343,161.149 327.343,161 
  "/>
<polyline clip-path="url(#clip802)" style="stroke:#000000; stroke-linecap:butt; stroke-linejoin:round; stroke-width:4; stroke-opacity:1; fill:none" points="
  352.771,167.114 352.771,166.675 
  "/>
<polyline clip-path="url(#clip802)" style="stroke:#000000; stroke-linecap:butt; stroke-linejoin:round; stroke-width:4; stroke-opacity:1; fill:none" points="
  378.993,206.271 378.993,204.888 
  "/>
<polyline clip-path="url(#clip802)" style="stroke:#000000; stroke-linecap:butt; stroke-linejoin:round; stroke-width:4; stroke-opacity:1; fill:none" points="
  405.746,314.522 405.746,311.526 
  "/>
<polyline clip-path="url(#clip802)" style="stroke:#000000; stroke-linecap:butt; stroke-linejoin:round; stroke-width:4; stroke-opacity:1; fill:none" points="
  432.498,452.093 432.498,447.569 
  "/>
<polyline clip-path="url(#clip802)" style="stroke:#000000; stroke-linecap:butt; stroke-linejoin:round; stroke-width:4; stroke-opacity:1; fill:none" points="
  458.985,588.817 458.985,583.145 
  "/>
<polyline clip-path="url(#clip802)" style="stroke:#000000; stroke-linecap:butt; stroke-linejoin:round; stroke-width:4; stroke-opacity:1; fill:none" points="
  485.737,688.495 485.737,682.139 
  "/>
<polyline clip-path="url(#clip802)" style="stroke:#000000; stroke-linecap:butt; stroke-linejoin:round; stroke-width:4; stroke-opacity:1; fill:none" points="
  512.225,783.394 512.225,776.608 
  "/>
<polyline clip-path="url(#clip802)" style="stroke:#000000; stroke-linecap:butt; stroke-linejoin:round; stroke-width:4; stroke-opacity:1; fill:none" points="
  538.712,859.533 538.712,852.538 
  "/>
<polyline clip-path="url(#clip802)" style="stroke:#000000; stroke-linecap:butt; stroke-linejoin:round; stroke-width:4; stroke-opacity:1; fill:none" points="
  565.199,923.572 565.199,916.449 
  "/>
<polyline clip-path="url(#clip802)" style="stroke:#000000; stroke-linecap:butt; stroke-linejoin:round; stroke-width:4; stroke-opacity:1; fill:none" points="
  591.687,975.621 591.687,968.359 
  "/>
<polyline clip-path="url(#clip802)" style="stroke:#000000; stroke-linecap:butt; stroke-linejoin:round; stroke-width:4; stroke-opacity:1; fill:none" points="
  618.174,1015.5 618.174,1008.19 
  "/>
<polyline clip-path="url(#clip802)" style="stroke:#000000; stroke-linecap:butt; stroke-linejoin:round; stroke-width:4; stroke-opacity:1; fill:none" points="
  644.661,1053.72 644.661,1046.36 
  "/>
<polyline clip-path="url(#clip802)" style="stroke:#000000; stroke-linecap:butt; stroke-linejoin:round; stroke-width:4; stroke-opacity:1; fill:none" points="
  683.862,1106.32 683.862,1101.13 
  "/>
<polyline clip-path="url(#clip802)" style="stroke:#000000; stroke-linecap:butt; stroke-linejoin:round; stroke-width:4; stroke-opacity:1; fill:none" points="
  736.837,1151.28 736.837,1146.02 
  "/>
<polyline clip-path="url(#clip802)" style="stroke:#000000; stroke-linecap:butt; stroke-linejoin:round; stroke-width:4; stroke-opacity:1; fill:none" points="
  790.076,1193.28 790.076,1188.08 
  "/>
<polyline clip-path="url(#clip802)" style="stroke:#000000; stroke-linecap:butt; stroke-linejoin:round; stroke-width:4; stroke-opacity:1; fill:none" points="
  843.051,1221.81 843.051,1216.64 
  "/>
<polyline clip-path="url(#clip802)" style="stroke:#000000; stroke-linecap:butt; stroke-linejoin:round; stroke-width:4; stroke-opacity:1; fill:none" points="
  883.047,1248.08 883.047,1240.99 
  "/>
<polyline clip-path="url(#clip802)" style="stroke:#000000; stroke-linecap:butt; stroke-linejoin:round; stroke-width:4; stroke-opacity:1; fill:none" points="
  947.676,1273.1 947.676,1269.63 
  "/>
<polyline clip-path="url(#clip802)" style="stroke:#000000; stroke-linecap:butt; stroke-linejoin:round; stroke-width:4; stroke-opacity:1; fill:none" points="
  1053.89,1303.76 1053.89,1300.38 
  "/>
<polyline clip-path="url(#clip802)" style="stroke:#000000; stroke-linecap:butt; stroke-linejoin:round; stroke-width:4; stroke-opacity:1; fill:none" points="
  1159.57,1321.68 1159.57,1318.29 
  "/>
<polyline clip-path="url(#clip802)" style="stroke:#000000; stroke-linecap:butt; stroke-linejoin:round; stroke-width:4; stroke-opacity:1; fill:none" points="
  1265.52,1335.63 1265.52,1332.2 
  "/>
<polyline clip-path="url(#clip802)" style="stroke:#000000; stroke-linecap:butt; stroke-linejoin:round; stroke-width:4; stroke-opacity:1; fill:none" points="
  1370.94,1349.1 1370.94,1345.66 
  "/>
<polyline clip-path="url(#clip802)" style="stroke:#000000; stroke-linecap:butt; stroke-linejoin:round; stroke-width:4; stroke-opacity:1; fill:none" points="
  1477.16,1356.56 1477.16,1352.96 
  "/>
<polyline clip-path="url(#clip802)" style="stroke:#000000; stroke-linecap:butt; stroke-linejoin:round; stroke-width:4; stroke-opacity:1; fill:none" points="
  1582.84,1367.19 1582.84,1363.53 
  "/>
<polyline clip-path="url(#clip802)" style="stroke:#000000; stroke-linecap:butt; stroke-linejoin:round; stroke-width:4; stroke-opacity:1; fill:none" points="
  1688.53,1367.37 1688.53,1363.1 
  "/>
<polyline clip-path="url(#clip802)" style="stroke:#000000; stroke-linecap:butt; stroke-linejoin:round; stroke-width:4; stroke-opacity:1; fill:none" points="
  1818.05,1371.6 1818.05,1367.66 
  "/>
<polyline clip-path="url(#clip802)" style="stroke:#000000; stroke-linecap:butt; stroke-linejoin:round; stroke-width:4; stroke-opacity:1; fill:none" points="
  1976.44,1377.12 1976.44,1372.59 
  "/>
<polyline clip-path="url(#clip802)" style="stroke:#000000; stroke-linecap:butt; stroke-linejoin:round; stroke-width:4; stroke-opacity:1; fill:none" points="
  2134.04,1386.4 2134.04,1381.68 
  "/>
<polyline clip-path="url(#clip802)" style="stroke:#000000; stroke-linecap:butt; stroke-linejoin:round; stroke-width:4; stroke-opacity:1; fill:none" points="
  2293.23,1384.47 2293.23,1377.56 
  "/>
<line clip-path="url(#clip802)" x1="325.067" y1="160.773" x2="293.067" y2="160.773" style="stroke:#000000; stroke-width:3.2; stroke-opacity:1"/>
<line clip-path="url(#clip802)" x1="325.067" y1="160.561" x2="293.067" y2="160.561" style="stroke:#000000; stroke-width:3.2; stroke-opacity:1"/>
<line clip-path="url(#clip802)" x1="343.343" y1="161.149" x2="311.343" y2="161.149" style="stroke:#000000; stroke-width:3.2; stroke-opacity:1"/>
<line clip-path="url(#clip802)" x1="343.343" y1="161" x2="311.343" y2="161" style="stroke:#000000; stroke-width:3.2; stroke-opacity:1"/>
<line clip-path="url(#clip802)" x1="368.771" y1="167.114" x2="336.771" y2="167.114" style="stroke:#000000; stroke-width:3.2; stroke-opacity:1"/>
<line clip-path="url(#clip802)" x1="368.771" y1="166.675" x2="336.771" y2="166.675" style="stroke:#000000; stroke-width:3.2; stroke-opacity:1"/>
<line clip-path="url(#clip802)" x1="394.993" y1="206.271" x2="362.993" y2="206.271" style="stroke:#000000; stroke-width:3.2; stroke-opacity:1"/>
<line clip-path="url(#clip802)" x1="394.993" y1="204.888" x2="362.993" y2="204.888" style="stroke:#000000; stroke-width:3.2; stroke-opacity:1"/>
<line clip-path="url(#clip802)" x1="421.746" y1="314.522" x2="389.746" y2="314.522" style="stroke:#000000; stroke-width:3.2; stroke-opacity:1"/>
<line clip-path="url(#clip802)" x1="421.746" y1="311.526" x2="389.746" y2="311.526" style="stroke:#000000; stroke-width:3.2; stroke-opacity:1"/>
<line clip-path="url(#clip802)" x1="448.498" y1="452.093" x2="416.498" y2="452.093" style="stroke:#000000; stroke-width:3.2; stroke-opacity:1"/>
<line clip-path="url(#clip802)" x1="448.498" y1="447.569" x2="416.498" y2="447.569" style="stroke:#000000; stroke-width:3.2; stroke-opacity:1"/>
<line clip-path="url(#clip802)" x1="474.985" y1="588.817" x2="442.985" y2="588.817" style="stroke:#000000; stroke-width:3.2; stroke-opacity:1"/>
<line clip-path="url(#clip802)" x1="474.985" y1="583.145" x2="442.985" y2="583.145" style="stroke:#000000; stroke-width:3.2; stroke-opacity:1"/>
<line clip-path="url(#clip802)" x1="501.737" y1="688.495" x2="469.737" y2="688.495" style="stroke:#000000; stroke-width:3.2; stroke-opacity:1"/>
<line clip-path="url(#clip802)" x1="501.737" y1="682.139" x2="469.737" y2="682.139" style="stroke:#000000; stroke-width:3.2; stroke-opacity:1"/>
<line clip-path="url(#clip802)" x1="528.225" y1="783.394" x2="496.225" y2="783.394" style="stroke:#000000; stroke-width:3.2; stroke-opacity:1"/>
<line clip-path="url(#clip802)" x1="528.225" y1="776.608" x2="496.225" y2="776.608" style="stroke:#000000; stroke-width:3.2; stroke-opacity:1"/>
<line clip-path="url(#clip802)" x1="554.712" y1="859.533" x2="522.712" y2="859.533" style="stroke:#000000; stroke-width:3.2; stroke-opacity:1"/>
<line clip-path="url(#clip802)" x1="554.712" y1="852.538" x2="522.712" y2="852.538" style="stroke:#000000; stroke-width:3.2; stroke-opacity:1"/>
<line clip-path="url(#clip802)" x1="581.199" y1="923.572" x2="549.199" y2="923.572" style="stroke:#000000; stroke-width:3.2; stroke-opacity:1"/>
<line clip-path="url(#clip802)" x1="581.199" y1="916.449" x2="549.199" y2="916.449" style="stroke:#000000; stroke-width:3.2; stroke-opacity:1"/>
<line clip-path="url(#clip802)" x1="607.687" y1="975.621" x2="575.687" y2="975.621" style="stroke:#000000; stroke-width:3.2; stroke-opacity:1"/>
<line clip-path="url(#clip802)" x1="607.687" y1="968.359" x2="575.687" y2="968.359" style="stroke:#000000; stroke-width:3.2; stroke-opacity:1"/>
<line clip-path="url(#clip802)" x1="634.174" y1="1015.5" x2="602.174" y2="1015.5" style="stroke:#000000; stroke-width:3.2; stroke-opacity:1"/>
<line clip-path="url(#clip802)" x1="634.174" y1="1008.19" x2="602.174" y2="1008.19" style="stroke:#000000; stroke-width:3.2; stroke-opacity:1"/>
<line clip-path="url(#clip802)" x1="660.661" y1="1053.72" x2="628.661" y2="1053.72" style="stroke:#000000; stroke-width:3.2; stroke-opacity:1"/>
<line clip-path="url(#clip802)" x1="660.661" y1="1046.36" x2="628.661" y2="1046.36" style="stroke:#000000; stroke-width:3.2; stroke-opacity:1"/>
<line clip-path="url(#clip802)" x1="699.862" y1="1106.32" x2="667.862" y2="1106.32" style="stroke:#000000; stroke-width:3.2; stroke-opacity:1"/>
<line clip-path="url(#clip802)" x1="699.862" y1="1101.13" x2="667.862" y2="1101.13" style="stroke:#000000; stroke-width:3.2; stroke-opacity:1"/>
<line clip-path="url(#clip802)" x1="752.837" y1="1151.28" x2="720.837" y2="1151.28" style="stroke:#000000; stroke-width:3.2; stroke-opacity:1"/>
<line clip-path="url(#clip802)" x1="752.837" y1="1146.02" x2="720.837" y2="1146.02" style="stroke:#000000; stroke-width:3.2; stroke-opacity:1"/>
<line clip-path="url(#clip802)" x1="806.076" y1="1193.28" x2="774.076" y2="1193.28" style="stroke:#000000; stroke-width:3.2; stroke-opacity:1"/>
<line clip-path="url(#clip802)" x1="806.076" y1="1188.08" x2="774.076" y2="1188.08" style="stroke:#000000; stroke-width:3.2; stroke-opacity:1"/>
<line clip-path="url(#clip802)" x1="859.051" y1="1221.81" x2="827.051" y2="1221.81" style="stroke:#000000; stroke-width:3.2; stroke-opacity:1"/>
<line clip-path="url(#clip802)" x1="859.051" y1="1216.64" x2="827.051" y2="1216.64" style="stroke:#000000; stroke-width:3.2; stroke-opacity:1"/>
<line clip-path="url(#clip802)" x1="899.047" y1="1248.08" x2="867.047" y2="1248.08" style="stroke:#000000; stroke-width:3.2; stroke-opacity:1"/>
<line clip-path="url(#clip802)" x1="899.047" y1="1240.99" x2="867.047" y2="1240.99" style="stroke:#000000; stroke-width:3.2; stroke-opacity:1"/>
<line clip-path="url(#clip802)" x1="963.676" y1="1273.1" x2="931.676" y2="1273.1" style="stroke:#000000; stroke-width:3.2; stroke-opacity:1"/>
<line clip-path="url(#clip802)" x1="963.676" y1="1269.63" x2="931.676" y2="1269.63" style="stroke:#000000; stroke-width:3.2; stroke-opacity:1"/>
<line clip-path="url(#clip802)" x1="1069.89" y1="1303.76" x2="1037.89" y2="1303.76" style="stroke:#000000; stroke-width:3.2; stroke-opacity:1"/>
<line clip-path="url(#clip802)" x1="1069.89" y1="1300.38" x2="1037.89" y2="1300.38" style="stroke:#000000; stroke-width:3.2; stroke-opacity:1"/>
<line clip-path="url(#clip802)" x1="1175.57" y1="1321.68" x2="1143.57" y2="1321.68" style="stroke:#000000; stroke-width:3.2; stroke-opacity:1"/>
<line clip-path="url(#clip802)" x1="1175.57" y1="1318.29" x2="1143.57" y2="1318.29" style="stroke:#000000; stroke-width:3.2; stroke-opacity:1"/>
<line clip-path="url(#clip802)" x1="1281.52" y1="1335.63" x2="1249.52" y2="1335.63" style="stroke:#000000; stroke-width:3.2; stroke-opacity:1"/>
<line clip-path="url(#clip802)" x1="1281.52" y1="1332.2" x2="1249.52" y2="1332.2" style="stroke:#000000; stroke-width:3.2; stroke-opacity:1"/>
<line clip-path="url(#clip802)" x1="1386.94" y1="1349.1" x2="1354.94" y2="1349.1" style="stroke:#000000; stroke-width:3.2; stroke-opacity:1"/>
<line clip-path="url(#clip802)" x1="1386.94" y1="1345.66" x2="1354.94" y2="1345.66" style="stroke:#000000; stroke-width:3.2; stroke-opacity:1"/>
<line clip-path="url(#clip802)" x1="1493.16" y1="1356.56" x2="1461.16" y2="1356.56" style="stroke:#000000; stroke-width:3.2; stroke-opacity:1"/>
<line clip-path="url(#clip802)" x1="1493.16" y1="1352.96" x2="1461.16" y2="1352.96" style="stroke:#000000; stroke-width:3.2; stroke-opacity:1"/>
<line clip-path="url(#clip802)" x1="1598.84" y1="1367.19" x2="1566.84" y2="1367.19" style="stroke:#000000; stroke-width:3.2; stroke-opacity:1"/>
<line clip-path="url(#clip802)" x1="1598.84" y1="1363.53" x2="1566.84" y2="1363.53" style="stroke:#000000; stroke-width:3.2; stroke-opacity:1"/>
<line clip-path="url(#clip802)" x1="1704.53" y1="1367.37" x2="1672.53" y2="1367.37" style="stroke:#000000; stroke-width:3.2; stroke-opacity:1"/>
<line clip-path="url(#clip802)" x1="1704.53" y1="1363.1" x2="1672.53" y2="1363.1" style="stroke:#000000; stroke-width:3.2; stroke-opacity:1"/>
<line clip-path="url(#clip802)" x1="1834.05" y1="1371.6" x2="1802.05" y2="1371.6" style="stroke:#000000; stroke-width:3.2; stroke-opacity:1"/>
<line clip-path="url(#clip802)" x1="1834.05" y1="1367.66" x2="1802.05" y2="1367.66" style="stroke:#000000; stroke-width:3.2; stroke-opacity:1"/>
<line clip-path="url(#clip802)" x1="1992.44" y1="1377.12" x2="1960.44" y2="1377.12" style="stroke:#000000; stroke-width:3.2; stroke-opacity:1"/>
<line clip-path="url(#clip802)" x1="1992.44" y1="1372.59" x2="1960.44" y2="1372.59" style="stroke:#000000; stroke-width:3.2; stroke-opacity:1"/>
<line clip-path="url(#clip802)" x1="2150.04" y1="1386.4" x2="2118.04" y2="1386.4" style="stroke:#000000; stroke-width:3.2; stroke-opacity:1"/>
<line clip-path="url(#clip802)" x1="2150.04" y1="1381.68" x2="2118.04" y2="1381.68" style="stroke:#000000; stroke-width:3.2; stroke-opacity:1"/>
<line clip-path="url(#clip802)" x1="2309.23" y1="1384.47" x2="2277.23" y2="1384.47" style="stroke:#000000; stroke-width:3.2; stroke-opacity:1"/>
<line clip-path="url(#clip802)" x1="2309.23" y1="1377.56" x2="2277.23" y2="1377.56" style="stroke:#000000; stroke-width:3.2; stroke-opacity:1"/>
<circle clip-path="url(#clip802)" cx="309.067" cy="160.667" r="14" fill="#add8e6" fill-rule="evenodd" fill-opacity="1" stroke="#000000" stroke-opacity="1" stroke-width="3.2"/>
<circle clip-path="url(#clip802)" cx="327.343" cy="161.075" r="14" fill="#add8e6" fill-rule="evenodd" fill-opacity="1" stroke="#000000" stroke-opacity="1" stroke-width="3.2"/>
<circle clip-path="url(#clip802)" cx="352.771" cy="166.894" r="14" fill="#add8e6" fill-rule="evenodd" fill-opacity="1" stroke="#000000" stroke-opacity="1" stroke-width="3.2"/>
<circle clip-path="url(#clip802)" cx="378.993" cy="205.58" r="14" fill="#add8e6" fill-rule="evenodd" fill-opacity="1" stroke="#000000" stroke-opacity="1" stroke-width="3.2"/>
<circle clip-path="url(#clip802)" cx="405.746" cy="313.024" r="14" fill="#add8e6" fill-rule="evenodd" fill-opacity="1" stroke="#000000" stroke-opacity="1" stroke-width="3.2"/>
<circle clip-path="url(#clip802)" cx="432.498" cy="449.831" r="14" fill="#add8e6" fill-rule="evenodd" fill-opacity="1" stroke="#000000" stroke-opacity="1" stroke-width="3.2"/>
<circle clip-path="url(#clip802)" cx="458.985" cy="585.981" r="14" fill="#add8e6" fill-rule="evenodd" fill-opacity="1" stroke="#000000" stroke-opacity="1" stroke-width="3.2"/>
<circle clip-path="url(#clip802)" cx="485.737" cy="685.317" r="14" fill="#add8e6" fill-rule="evenodd" fill-opacity="1" stroke="#000000" stroke-opacity="1" stroke-width="3.2"/>
<circle clip-path="url(#clip802)" cx="512.225" cy="780.001" r="14" fill="#add8e6" fill-rule="evenodd" fill-opacity="1" stroke="#000000" stroke-opacity="1" stroke-width="3.2"/>
<circle clip-path="url(#clip802)" cx="538.712" cy="856.035" r="14" fill="#add8e6" fill-rule="evenodd" fill-opacity="1" stroke="#000000" stroke-opacity="1" stroke-width="3.2"/>
<circle clip-path="url(#clip802)" cx="565.199" cy="920.01" r="14" fill="#add8e6" fill-rule="evenodd" fill-opacity="1" stroke="#000000" stroke-opacity="1" stroke-width="3.2"/>
<circle clip-path="url(#clip802)" cx="591.687" cy="971.99" r="14" fill="#add8e6" fill-rule="evenodd" fill-opacity="1" stroke="#000000" stroke-opacity="1" stroke-width="3.2"/>
<circle clip-path="url(#clip802)" cx="618.174" cy="1011.84" r="14" fill="#add8e6" fill-rule="evenodd" fill-opacity="1" stroke="#000000" stroke-opacity="1" stroke-width="3.2"/>
<circle clip-path="url(#clip802)" cx="644.661" cy="1050.04" r="14" fill="#add8e6" fill-rule="evenodd" fill-opacity="1" stroke="#000000" stroke-opacity="1" stroke-width="3.2"/>
<circle clip-path="url(#clip802)" cx="683.862" cy="1103.73" r="14" fill="#add8e6" fill-rule="evenodd" fill-opacity="1" stroke="#000000" stroke-opacity="1" stroke-width="3.2"/>
<circle clip-path="url(#clip802)" cx="736.837" cy="1148.65" r="14" fill="#add8e6" fill-rule="evenodd" fill-opacity="1" stroke="#000000" stroke-opacity="1" stroke-width="3.2"/>
<circle clip-path="url(#clip802)" cx="790.076" cy="1190.68" r="14" fill="#add8e6" fill-rule="evenodd" fill-opacity="1" stroke="#000000" stroke-opacity="1" stroke-width="3.2"/>
<circle clip-path="url(#clip802)" cx="843.051" cy="1219.23" r="14" fill="#add8e6" fill-rule="evenodd" fill-opacity="1" stroke="#000000" stroke-opacity="1" stroke-width="3.2"/>
<circle clip-path="url(#clip802)" cx="883.047" cy="1244.54" r="14" fill="#add8e6" fill-rule="evenodd" fill-opacity="1" stroke="#000000" stroke-opacity="1" stroke-width="3.2"/>
<circle clip-path="url(#clip802)" cx="947.676" cy="1271.37" r="14" fill="#add8e6" fill-rule="evenodd" fill-opacity="1" stroke="#000000" stroke-opacity="1" stroke-width="3.2"/>
<circle clip-path="url(#clip802)" cx="1053.89" cy="1302.07" r="14" fill="#add8e6" fill-rule="evenodd" fill-opacity="1" stroke="#000000" stroke-opacity="1" stroke-width="3.2"/>
<circle clip-path="url(#clip802)" cx="1159.57" cy="1319.99" r="14" fill="#add8e6" fill-rule="evenodd" fill-opacity="1" stroke="#000000" stroke-opacity="1" stroke-width="3.2"/>
<circle clip-path="url(#clip802)" cx="1265.52" cy="1333.92" r="14" fill="#add8e6" fill-rule="evenodd" fill-opacity="1" stroke="#000000" stroke-opacity="1" stroke-width="3.2"/>
<circle clip-path="url(#clip802)" cx="1370.94" cy="1347.38" r="14" fill="#add8e6" fill-rule="evenodd" fill-opacity="1" stroke="#000000" stroke-opacity="1" stroke-width="3.2"/>
<circle clip-path="url(#clip802)" cx="1477.16" cy="1354.76" r="14" fill="#add8e6" fill-rule="evenodd" fill-opacity="1" stroke="#000000" stroke-opacity="1" stroke-width="3.2"/>
<circle clip-path="url(#clip802)" cx="1582.84" cy="1365.36" r="14" fill="#add8e6" fill-rule="evenodd" fill-opacity="1" stroke="#000000" stroke-opacity="1" stroke-width="3.2"/>
<circle clip-path="url(#clip802)" cx="1688.53" cy="1365.24" r="14" fill="#add8e6" fill-rule="evenodd" fill-opacity="1" stroke="#000000" stroke-opacity="1" stroke-width="3.2"/>
<circle clip-path="url(#clip802)" cx="1818.05" cy="1369.63" r="14" fill="#add8e6" fill-rule="evenodd" fill-opacity="1" stroke="#000000" stroke-opacity="1" stroke-width="3.2"/>
<circle clip-path="url(#clip802)" cx="1976.44" cy="1374.86" r="14" fill="#add8e6" fill-rule="evenodd" fill-opacity="1" stroke="#000000" stroke-opacity="1" stroke-width="3.2"/>
<circle clip-path="url(#clip802)" cx="2134.04" cy="1384.04" r="14" fill="#add8e6" fill-rule="evenodd" fill-opacity="1" stroke="#000000" stroke-opacity="1" stroke-width="3.2"/>
<circle clip-path="url(#clip802)" cx="2293.23" cy="1381.02" r="14" fill="#add8e6" fill-rule="evenodd" fill-opacity="1" stroke="#000000" stroke-opacity="1" stroke-width="3.2"/>
</svg>
